<svg width="31" height="31" viewBox="0 0 31 31" fill="none" xmlns="http://www.w3.org/2000/svg">
<path d="M30.2489 9.06501L26.0321 1.51217C25.5513 0.649961 24.463 0 23.5002 0H15.0843C14.4946 0 14.0148 0.252815 13.7685 0.693826C13.5221 1.13484 13.55 1.69094 13.8446 2.2192L15.0438 4.37049H11.9107C10.9483 4.37049 9.85999 5.02045 9.37878 5.88219L8.06471 8.23535L7.07311 6.45668C6.22976 4.94451 6.22975 4.94451 5.82564 4.94451C5.42152 4.94451 5.42152 4.94451 4.5777 6.45621L0.360902 14.0091C-0.120301 14.8708 -0.120301 16.1707 0.360902 17.0325L4.57816 24.5853C5.42197 26.097 5.42197 26.097 5.82381 26.097C6.22519 26.097 6.22519 26.097 7.06992 24.5862L8.06517 22.8062L9.37924 25.1593C9.86044 26.0211 10.9487 26.671 11.9111 26.671H15.0068L13.8277 28.7808C13.5326 29.3091 13.5044 29.8652 13.7502 30.3057C13.9961 30.7472 14.4759 31 15.0656 31H23.4856C24.448 31 25.5367 30.35 26.0175 29.4883L30.2256 21.9515C30.5202 21.4232 30.5485 20.8667 30.3022 20.4261C30.0564 19.9846 29.5765 19.7318 28.9868 19.7313L26.5484 19.7295L28.0545 17.032C28.5357 16.1702 28.5357 14.8708 28.0545 14.0086L26.5406 11.297L29.1359 11.2988C29.1419 11.2988 29.1473 11.2988 29.1533 11.2988C30.6708 11.2988 30.6721 11.2979 30.8769 10.9621L30.9038 10.9144C31.084 10.5616 31.084 10.5616 30.2489 9.06501ZM5.88493 23.8778C5.86441 23.9146 5.84434 23.9509 5.82381 23.9867C5.80374 23.9509 5.78367 23.9146 5.76269 23.8778L1.54544 16.3245C1.31054 15.9037 1.31054 15.1373 1.54544 14.7161L5.76269 7.16324C5.78367 7.12551 5.80465 7.08825 5.82518 7.05146C5.84571 7.08825 5.86669 7.12551 5.88767 7.16324L7.27472 9.65036L4.84134 14.0091C4.36013 14.8708 4.36013 16.1707 4.84134 17.032L7.27517 21.3907L5.88493 23.8778ZM6.02633 16.3249C5.79143 15.9042 5.79143 15.1378 6.02633 14.717L8.06426 11.0668L10.104 14.7246C10.3389 15.1458 10.3385 15.9122 10.1031 16.333L8.06562 19.9776L6.02633 16.3249ZM10.5638 24.4518L8.85516 21.3921L11.2876 17.0409C11.7693 16.1792 11.7697 14.8798 11.289 14.0175L8.85471 9.65083L10.5642 6.58922C10.5834 6.55479 10.6094 6.5213 10.6331 6.48781L15.6736 15.5283L10.6308 24.5494C10.6076 24.5174 10.5825 24.4853 10.5638 24.4518ZM28.9859 21.1464C29.0256 21.1464 29.0575 21.1497 29.083 21.1539C29.0739 21.1784 29.0602 21.2086 29.0406 21.244L24.8325 28.7808C24.5976 29.202 23.9558 29.585 23.4856 29.585H15.0656C15.0269 29.585 14.9949 29.5822 14.9703 29.5779C14.9794 29.5534 14.9927 29.5237 15.0123 29.4892L16.5877 26.671H20.9856C21.948 26.671 23.0367 26.0211 23.5175 25.1593L25.7593 21.144L28.9859 21.1464ZM17.3786 25.256L19.23 21.9439C19.4649 21.5232 20.1071 21.1407 20.5774 21.1407L24.1793 21.1435L22.332 24.4523C22.0967 24.8735 21.4549 25.2565 20.9851 25.2565L17.3786 25.256ZM26.8695 16.3249L24.9689 19.729L20.5764 19.7257C19.6145 19.7257 18.5262 20.3747 18.0445 21.2355L15.7968 25.256H11.9102C11.8815 25.256 11.8505 25.2504 11.8208 25.2475L16.8577 16.2367L26.9051 16.2434C26.8937 16.2707 26.8836 16.3 26.8695 16.3249ZM26.8695 14.7166C26.8886 14.751 26.9037 14.7906 26.9197 14.8288L16.8586 14.8222L11.8249 5.79352C11.8532 5.79116 11.8833 5.7855 11.9107 5.7855H15.8328L18.0605 9.78054C18.5413 10.6427 19.6291 11.2932 20.5915 11.2937L24.9602 11.2965L26.8695 14.7166ZM17.4124 5.7855H20.9851C21.4549 5.7855 22.0971 6.16849 22.332 6.58969L24.1697 9.88147L20.592 9.87912C20.1222 9.87912 19.4799 9.49518 19.2455 9.07398L17.4124 5.7855ZM25.7502 9.88242L23.517 5.88266C23.0363 5.02045 21.948 4.37049 20.9851 4.37049H16.6237L15.0301 1.51264C15.0105 1.47727 14.9968 1.44708 14.9877 1.42255C15.0127 1.41831 15.0447 1.41548 15.0843 1.41548H23.5002C23.97 1.41548 24.6122 1.79848 24.8471 2.21968L29.0639 9.77252C29.0848 9.81025 29.1058 9.84799 29.1264 9.88478L25.7502 9.88242Z" fill="white"/>
</svg>
