<svg width="48" height="44" viewBox="0 0 48 44" fill="none" xmlns="http://www.w3.org/2000/svg">
<path opacity="0.2" d="M42.6851 28.688L41.3228 27.9015L42.6851 27.1151L44.0473 27.9015L42.6851 28.688Z" fill="#005BF2"/>
<path opacity="0.28" d="M8.15322 10.6194L6.78909 9.83294L8.15322 9.04651L9.51549 9.83294L8.15322 10.6194Z" fill="#005BF2"/>
<path opacity="0.5" d="M6.06048 15.912L4.69821 15.1255L6.06048 14.3391L7.42274 15.1255L6.06048 15.912Z" fill="#005BF2"/>
<path opacity="0.6" d="M18.4923 13.7036L17.13 12.9172L18.4923 12.1289L19.8546 12.9172L18.4923 13.7036Z" fill="#005BF2"/>
<path opacity="0.6" d="M16.9288 18.6719L15.5665 17.8836L16.9288 17.0972L18.291 17.8836L16.9288 18.6719Z" fill="#005BF2"/>
<path opacity="0.83" d="M11.5468 5.8021L10.1845 5.01567L11.5468 4.22925L12.9109 5.01567L11.5468 5.8021Z" fill="#005BF2"/>
<path opacity="0.74" d="M18.7085 26.4895L17.3462 25.7031L18.7085 24.9148L20.0708 25.7031L18.7085 26.4895Z" fill="#005BF2"/>
<path opacity="0.31" d="M1.66241 19.3558L0.298281 18.5694L1.66241 17.783L3.02467 18.5694L1.66241 19.3558Z" fill="#005BF2"/>
<path opacity="0.17" d="M12.3314 14.3373L10.9691 13.549L12.3314 12.7626L13.6955 13.549L12.3314 14.3373Z" fill="#005BF2"/>
<path opacity="0.11" d="M11.3344 18.8023L9.97024 18.0159L11.3344 17.2295L12.6966 18.0159L11.3344 18.8023Z" fill="#005BF2"/>
<path opacity="0.43" d="M14.2005 9.76404L12.8364 8.97575L14.1986 8.18933L15.5628 8.97575L14.2005 9.76404Z" fill="#005BF2"/>
<path d="M17.8959 21.689C17.9385 21.6886 17.9802 21.7009 18.0157 21.7243C18.0512 21.7477 18.079 21.7812 18.0954 21.8204C18.1119 21.8596 18.1163 21.9029 18.1081 21.9446C18.0999 21.9864 18.0794 22.0247 18.0493 22.0548C18.0192 22.0849 17.9809 22.1053 17.9391 22.1136C17.8974 22.1218 17.8542 22.1174 17.8149 22.1009C17.7757 22.0845 17.7422 22.0567 17.7188 22.0212C17.6954 21.9857 17.6831 21.944 17.6835 21.9014C17.6835 21.8451 17.7059 21.791 17.7457 21.7512C17.7855 21.7114 17.8396 21.689 17.8959 21.689Z" fill="#121728"/>
<path d="M20.9242 25.6603C20.998 25.6603 21.07 25.6821 21.1313 25.7231C21.1926 25.764 21.2404 25.8223 21.2686 25.8904C21.2968 25.9585 21.3042 26.0334 21.2898 26.1057C21.2754 26.178 21.2399 26.2444 21.1878 26.2965C21.1357 26.3487 21.0693 26.3842 20.997 26.3985C20.9247 26.4129 20.8497 26.4055 20.7816 26.3773C20.7135 26.3491 20.6553 26.3014 20.6143 26.2401C20.5734 26.1788 20.5515 26.1067 20.5515 26.033C20.5515 25.9341 20.5908 25.8393 20.6607 25.7694C20.7306 25.6996 20.8254 25.6603 20.9242 25.6603Z" fill="#121728"/>
<path d="M21.1106 23.2843C21.1516 23.281 21.1928 23.2863 21.2317 23.2997C21.2706 23.3132 21.3063 23.3346 21.3365 23.3625C21.3667 23.3904 21.3908 23.4243 21.4073 23.462C21.4238 23.4997 21.4323 23.5403 21.4323 23.5815C21.4323 23.6226 21.4238 23.6633 21.4073 23.701C21.3908 23.7387 21.3667 23.7726 21.3365 23.8005C21.3063 23.8284 21.2706 23.8498 21.2317 23.8632C21.1928 23.8767 21.1516 23.882 21.1106 23.8787C21.0358 23.8728 20.966 23.8389 20.9151 23.7838C20.8642 23.7287 20.836 23.6565 20.836 23.5815C20.836 23.5065 20.8642 23.4342 20.9151 23.3792C20.966 23.3241 21.0358 23.2902 21.1106 23.2843Z" fill="#121728"/>
<path d="M16.3585 17.2015C16.3799 17.2015 16.4008 17.2079 16.4185 17.2198C16.4363 17.2316 16.4502 17.2485 16.4583 17.2683C16.4665 17.288 16.4687 17.3097 16.4645 17.3307C16.4603 17.3517 16.45 17.3709 16.4349 17.3861C16.4198 17.4012 16.4005 17.4115 16.3796 17.4156C16.3586 17.4198 16.3369 17.4177 16.3171 17.4095C16.2974 17.4013 16.2805 17.3874 16.2686 17.3697C16.2567 17.3519 16.2504 17.331 16.2504 17.3096C16.2504 17.281 16.2618 17.2535 16.2821 17.2332C16.3023 17.2129 16.3298 17.2015 16.3585 17.2015Z" fill="#121728"/>
<path d="M17.4244 20.351C17.4591 20.351 17.4929 20.3612 17.5218 20.3805C17.5506 20.3997 17.573 20.4271 17.5863 20.4591C17.5995 20.4911 17.603 20.5263 17.5962 20.5603C17.5895 20.5943 17.5728 20.6255 17.5483 20.65C17.5238 20.6745 17.4926 20.6912 17.4586 20.6979C17.4246 20.7047 17.3894 20.7012 17.3574 20.688C17.3254 20.6747 17.298 20.6523 17.2788 20.6234C17.2595 20.5946 17.2493 20.5608 17.2493 20.5261C17.2497 20.4798 17.2683 20.4355 17.3011 20.4028C17.3338 20.37 17.3781 20.3514 17.4244 20.351Z" fill="#121728"/>
<path d="M19.0495 14.7957C19.0698 14.7957 19.0896 14.8017 19.1065 14.8129C19.1233 14.8242 19.1364 14.8402 19.1442 14.8589C19.152 14.8777 19.154 14.8983 19.15 14.9181C19.1461 14.938 19.1363 14.9563 19.122 14.9706C19.1077 14.985 19.0894 14.9947 19.0695 14.9987C19.0496 15.0026 19.029 15.0006 19.0103 14.9928C18.9916 14.9851 18.9756 14.9719 18.9643 14.9551C18.953 14.9382 18.947 14.9184 18.947 14.8981C18.947 14.871 18.9578 14.8449 18.977 14.8257C18.9963 14.8064 19.0223 14.7957 19.0495 14.7957Z" fill="#121728"/>
<path d="M17.1356 18.7427C17.1551 18.7424 17.1744 18.7461 17.1925 18.7534C17.2106 18.7606 17.227 18.7715 17.2409 18.7851C17.2548 18.7988 17.2658 18.8152 17.2733 18.8331C17.2808 18.8511 17.2847 18.8704 17.2847 18.8899C17.2847 18.9294 17.269 18.9674 17.241 18.9953C17.2131 19.0233 17.1751 19.039 17.1356 19.039C17.1161 19.039 17.0968 19.0351 17.0788 19.0276C17.0608 19.0201 17.0445 19.0091 17.0308 18.9952C17.0171 18.9814 17.0063 18.9649 16.999 18.9468C16.9918 18.9287 16.9881 18.9094 16.9884 18.8899C16.9884 18.8706 16.9922 18.8514 16.9996 18.8336C17.007 18.8157 17.0178 18.7995 17.0315 18.7858C17.0452 18.7721 17.0614 18.7613 17.0793 18.7539C17.0971 18.7465 17.1163 18.7427 17.1356 18.7427Z" fill="#121728"/>
<path d="M15.7659 9.16394C15.7728 9.16394 15.7794 9.16669 15.7843 9.17158C15.7892 9.17648 15.7919 9.18311 15.7919 9.19003C15.792 9.19338 15.7913 9.19669 15.7899 9.19976C15.7886 9.20283 15.7867 9.20558 15.7842 9.20786C15.7817 9.21013 15.7789 9.21187 15.7757 9.21298C15.7725 9.21408 15.7692 9.21452 15.7659 9.21426C15.7594 9.21426 15.7533 9.21171 15.7487 9.20716C15.7442 9.20262 15.7416 9.19646 15.7416 9.19003C15.7414 9.1867 15.7418 9.18335 15.7429 9.18019C15.744 9.17704 15.7458 9.17414 15.748 9.17169C15.7503 9.16924 15.7531 9.16729 15.7561 9.16595C15.7592 9.16462 15.7625 9.16393 15.7659 9.16394Z" fill="#121728"/>
<path d="M19.6459 22.9097C19.6978 22.91 19.7484 22.9258 19.7913 22.9549C19.8343 22.984 19.8677 23.0251 19.8873 23.0732C19.9069 23.1212 19.9118 23.174 19.9015 23.2248C19.8911 23.2757 19.866 23.3223 19.8292 23.3589C19.7923 23.3955 19.7455 23.4203 19.6946 23.4303C19.6437 23.4403 19.5909 23.435 19.543 23.415C19.4951 23.3951 19.4542 23.3614 19.4254 23.3182C19.3966 23.2751 19.3812 23.2243 19.3812 23.1724C19.3812 23.1378 19.3881 23.1035 19.4014 23.0715C19.4147 23.0394 19.4343 23.0104 19.4589 22.986C19.4835 22.9615 19.5127 22.9422 19.5447 22.9291C19.5768 22.916 19.6112 22.9094 19.6459 22.9097Z" fill="#121728"/>
<path d="M21.1218 20.7814C21.1679 20.7814 21.2129 20.795 21.2512 20.8206C21.2895 20.8462 21.3194 20.8826 21.337 20.9252C21.3546 20.9678 21.3592 21.0146 21.3503 21.0598C21.3413 21.105 21.3191 21.1465 21.2865 21.179C21.2539 21.2116 21.2124 21.2338 21.1672 21.2428C21.122 21.2518 21.0752 21.2472 21.0326 21.2295C20.9901 21.2119 20.9537 21.182 20.9281 21.1437C20.9025 21.1054 20.8888 21.0604 20.8888 21.0143C20.8886 20.9837 20.8944 20.9533 20.9061 20.9249C20.9177 20.8965 20.9348 20.8707 20.9565 20.8491C20.9782 20.8274 21.004 20.8102 21.0323 20.7986C21.0607 20.787 21.0911 20.7811 21.1218 20.7814Z" fill="#121728"/>
<path d="M18.8706 19.1602C18.905 19.1598 18.9386 19.1696 18.9674 19.1885C18.9961 19.2073 19.0186 19.2342 19.032 19.2659C19.0454 19.2975 19.0491 19.3324 19.0427 19.3661C19.0362 19.3999 19.0198 19.4309 18.9957 19.4554C18.9715 19.4798 18.9406 19.4965 18.907 19.5033C18.8733 19.5101 18.8383 19.5068 18.8066 19.4938C18.7748 19.4807 18.7476 19.4585 18.7285 19.43C18.7094 19.4014 18.6991 19.3678 18.6991 19.3335C18.6991 19.2878 18.7171 19.244 18.7493 19.2116C18.7814 19.1791 18.825 19.1607 18.8706 19.1602Z" fill="#121728"/>
<path d="M20.1844 17.9973C20.2172 17.9973 20.2493 18.007 20.2766 18.0253C20.3038 18.0435 20.3251 18.0694 20.3377 18.0997C20.3502 18.13 20.3535 18.1633 20.3471 18.1955C20.3407 18.2277 20.3249 18.2573 20.3017 18.2805C20.2785 18.3037 20.2489 18.3194 20.2168 18.3258C20.1846 18.3322 20.1513 18.329 20.1209 18.3164C20.0906 18.3038 20.0647 18.2826 20.0465 18.2553C20.0283 18.228 20.0186 18.196 20.0186 18.1632C20.0186 18.1192 20.036 18.077 20.0671 18.0459C20.0982 18.0148 20.1404 17.9973 20.1844 17.9973Z" fill="#121728"/>
<path d="M18.4215 24.3967C18.4775 24.3967 18.5323 24.4134 18.5789 24.4445C18.6255 24.4756 18.6618 24.5198 18.6832 24.5716C18.7047 24.6234 18.7103 24.6803 18.6993 24.7353C18.6884 24.7902 18.6614 24.8407 18.6218 24.8803C18.5822 24.9199 18.5317 24.9469 18.4768 24.9578C18.4218 24.9687 18.3649 24.9631 18.3131 24.9417C18.2614 24.9203 18.2171 24.884 18.186 24.8374C18.1549 24.7908 18.1383 24.736 18.1383 24.68C18.1383 24.6049 18.1681 24.5328 18.2212 24.4797C18.2743 24.4266 18.3464 24.3967 18.4215 24.3967Z" fill="#121728"/>
<path d="M15.2292 12.5836C15.242 12.5836 15.2543 12.5887 15.2634 12.5978C15.2725 12.6069 15.2776 12.6192 15.2776 12.6321C15.2776 12.6449 15.2725 12.6572 15.2634 12.6663C15.2543 12.6754 15.242 12.6805 15.2292 12.6805C15.2227 12.6808 15.2163 12.6797 15.2103 12.6774C15.2043 12.675 15.1989 12.6715 15.1943 12.6669C15.1898 12.6624 15.1862 12.6569 15.1839 12.6509C15.1815 12.6449 15.1805 12.6385 15.1807 12.6321C15.1807 12.6192 15.1858 12.6069 15.1949 12.5978C15.204 12.5887 15.2163 12.5836 15.2292 12.5836Z" fill="#121728"/>
<path d="M20.6745 19.4975C20.7248 19.5023 20.7715 19.5257 20.8054 19.5631C20.8394 19.6005 20.8582 19.6492 20.8582 19.6997C20.8582 19.7502 20.8394 19.7989 20.8054 19.8363C20.7715 19.8737 20.7248 19.8971 20.6745 19.9019C20.6463 19.9046 20.6179 19.9014 20.591 19.8925C20.5642 19.8835 20.5395 19.8691 20.5185 19.8501C20.4976 19.831 20.4808 19.8078 20.4693 19.7819C20.4579 19.756 20.452 19.728 20.452 19.6997C20.452 19.6714 20.4579 19.6434 20.4693 19.6175C20.4808 19.5916 20.4976 19.5684 20.5185 19.5494C20.5395 19.5303 20.5642 19.5159 20.591 19.5069C20.6179 19.498 20.6463 19.4948 20.6745 19.4975Z" fill="#121728"/>
<path d="M19.7315 28.8246C19.9343 28.8246 20.0986 28.6602 20.0986 28.4575C20.0986 28.2547 19.9343 28.0903 19.7315 28.0903C19.5288 28.0903 19.3644 28.2547 19.3644 28.4575C19.3644 28.6602 19.5288 28.8246 19.7315 28.8246Z" fill="#121728"/>
<path d="M18.0097 16.5996C18.041 16.6001 18.0708 16.6129 18.0928 16.6352C18.1148 16.6575 18.1271 16.6876 18.1271 16.7189C18.1271 16.75 18.1147 16.7799 18.0927 16.8019C18.0707 16.8239 18.0408 16.8363 18.0097 16.8363C17.9783 16.8363 17.9483 16.824 17.926 16.802C17.9037 16.78 17.8909 16.7502 17.8904 16.7189C17.8904 16.6872 17.903 16.6569 17.9253 16.6345C17.9477 16.6122 17.978 16.5996 18.0097 16.5996Z" fill="#121728"/>
<path d="M19.3999 20.966C19.4438 20.9656 19.4869 20.9783 19.5236 21.0024C19.5603 21.0266 19.589 21.0611 19.6061 21.1016C19.6231 21.142 19.6278 21.1867 19.6195 21.2298C19.6111 21.273 19.5901 21.3126 19.5592 21.3438C19.5283 21.3751 19.4888 21.3964 19.4457 21.4051C19.4026 21.4138 19.3579 21.4095 19.3173 21.3928C19.2767 21.376 19.2419 21.3476 19.2175 21.3111C19.193 21.2746 19.18 21.2317 19.18 21.1877C19.1797 21.1587 19.1852 21.1299 19.1962 21.103C19.2071 21.0761 19.2233 21.0516 19.2437 21.031C19.2642 21.0104 19.2885 20.994 19.3153 20.9829C19.3421 20.9717 19.3708 20.9659 19.3999 20.966Z" fill="#121728"/>
<path d="M20.9317 22.0337C20.9844 22.0337 21.0359 22.0493 21.0797 22.0786C21.1235 22.1079 21.1577 22.1495 21.1779 22.1982C21.198 22.2469 21.2033 22.3005 21.193 22.3522C21.1827 22.4039 21.1574 22.4513 21.1201 22.4886C21.0828 22.5259 21.0353 22.5513 20.9836 22.5615C20.932 22.5718 20.8784 22.5666 20.8297 22.5464C20.781 22.5262 20.7394 22.4921 20.7101 22.4482C20.6808 22.4044 20.6652 22.3529 20.6652 22.3002C20.6652 22.2295 20.6932 22.1617 20.7432 22.1118C20.7932 22.0618 20.861 22.0337 20.9317 22.0337Z" fill="#121728"/>
<path d="M19.7986 16.8288C19.8738 16.8288 19.9347 16.7679 19.9347 16.6928C19.9347 16.6177 19.8738 16.5568 19.7986 16.5568C19.7235 16.5568 19.6626 16.6177 19.6626 16.6928C19.6626 16.7679 19.7235 16.8288 19.7986 16.8288Z" fill="#121728"/>
<path d="M19.4706 27.7064C19.6734 27.7064 19.8378 27.5421 19.8378 27.3393C19.8378 27.1365 19.6734 26.9722 19.4706 26.9722C19.2679 26.9722 19.1035 27.1365 19.1035 27.3393C19.1035 27.5421 19.2679 27.7064 19.4706 27.7064Z" fill="#121728"/>
<path d="M18.1531 22.9785C18.2008 22.9782 18.2474 22.9919 18.2872 23.0181C18.327 23.0443 18.3581 23.0817 18.3766 23.1256C18.395 23.1695 18.4001 23.2179 18.391 23.2647C18.3819 23.3114 18.3592 23.3544 18.3257 23.3882C18.2921 23.4221 18.2493 23.4451 18.2026 23.4546C18.1559 23.464 18.1075 23.4593 18.0634 23.4412C18.0194 23.4231 17.9817 23.3923 17.9553 23.3527C17.9288 23.3131 17.9146 23.2666 17.9146 23.2189C17.9146 23.1555 17.9397 23.0946 17.9844 23.0496C18.029 23.0046 18.0897 22.979 18.1531 22.9785Z" fill="#121728"/>
<path d="M18.0767 13.2974C18.0914 13.2978 18.1056 13.3024 18.1176 13.3109C18.1296 13.3193 18.1389 13.331 18.1442 13.3447C18.1496 13.3583 18.1508 13.3732 18.1477 13.3876C18.1446 13.4019 18.1374 13.415 18.1269 13.4253C18.1164 13.4355 18.1031 13.4424 18.0887 13.4451C18.0743 13.4479 18.0594 13.4463 18.0459 13.4406C18.0324 13.4349 18.0209 13.4254 18.0128 13.4131C18.0046 13.4009 18.0003 13.3866 18.0003 13.3719C18.0003 13.362 18.0023 13.3521 18.0062 13.343C18.01 13.3338 18.0157 13.3255 18.0228 13.3186C18.0299 13.3116 18.0384 13.3062 18.0476 13.3025C18.0569 13.2989 18.0668 13.2971 18.0767 13.2974Z" fill="#121728"/>
<path d="M16.0399 14.9951C16.0553 14.9951 16.0705 14.9997 16.0833 15.0083C16.0962 15.0169 16.1062 15.0291 16.1122 15.0434C16.1181 15.0577 16.1196 15.0735 16.1166 15.0886C16.1136 15.1038 16.1061 15.1178 16.0952 15.1287C16.0843 15.1397 16.0703 15.1471 16.0551 15.1501C16.0399 15.1532 16.0242 15.1516 16.0099 15.1457C15.9956 15.1398 15.9834 15.1297 15.9748 15.1169C15.9662 15.104 15.9616 15.0889 15.9616 15.0734C15.9616 15.0526 15.9698 15.0327 15.9845 15.018C15.9992 15.0034 16.0191 14.9951 16.0399 14.9951Z" fill="#121728"/>
<path d="M20.1229 29.2811C20.1966 29.2811 20.2686 29.303 20.3299 29.3439C20.3912 29.3849 20.439 29.4431 20.4672 29.5112C20.4954 29.5793 20.5028 29.6543 20.4884 29.7266C20.474 29.7989 20.4385 29.8653 20.3864 29.9174C20.3343 29.9695 20.2679 30.005 20.1956 30.0194C20.1233 30.0338 20.0483 30.0264 19.9802 29.9982C19.9121 29.97 19.8539 29.9222 19.813 29.8609C19.772 29.7996 19.7501 29.7276 19.7501 29.6538C19.7501 29.555 19.7894 29.4602 19.8593 29.3903C19.9292 29.3204 20.024 29.2811 20.1229 29.2811Z" fill="#121728"/>
<path d="M19.7744 24.639C19.8366 24.6394 19.8973 24.6582 19.9489 24.693C20.0004 24.7279 20.0405 24.7772 20.064 24.8347C20.0876 24.8923 20.0936 24.9556 20.0812 25.0166C20.0688 25.0775 20.0387 25.1335 19.9946 25.1773C19.9505 25.2212 19.8943 25.251 19.8333 25.263C19.7723 25.275 19.709 25.2687 19.6516 25.2448C19.5941 25.2209 19.5451 25.1805 19.5105 25.1288C19.476 25.077 19.4576 25.0162 19.4576 24.954C19.4576 24.9125 19.4658 24.8714 19.4817 24.833C19.4977 24.7947 19.521 24.7599 19.5505 24.7306C19.5799 24.7013 19.6149 24.6782 19.6533 24.6625C19.6917 24.6468 19.7329 24.6388 19.7744 24.639Z" fill="#121728"/>
<path d="M18.9321 25.9901C18.9966 25.9901 19.0597 26.0092 19.1133 26.0451C19.1669 26.0809 19.2087 26.1318 19.2334 26.1914C19.2581 26.251 19.2645 26.3166 19.252 26.3799C19.2394 26.4431 19.2083 26.5012 19.1627 26.5468C19.1171 26.5924 19.059 26.6235 18.9957 26.6361C18.9325 26.6487 18.8669 26.6422 18.8073 26.6175C18.7477 26.5928 18.6968 26.551 18.6609 26.4974C18.6251 26.4438 18.606 26.3807 18.606 26.3162C18.606 26.2297 18.6403 26.1468 18.7015 26.0856C18.7627 26.0245 18.8456 25.9901 18.9321 25.9901Z" fill="#121728"/>
<path d="M17.7971 11.1021C17.8047 11.1007 17.8125 11.1009 17.8199 11.1028C17.8274 11.1047 17.8343 11.1083 17.8402 11.1132C17.8461 11.1181 17.8509 11.1242 17.8542 11.1311C17.8574 11.1381 17.8591 11.1457 17.8591 11.1534C17.8591 11.1611 17.8574 11.1687 17.8542 11.1756C17.8509 11.1826 17.8461 11.1887 17.8402 11.1936C17.8343 11.1985 17.8274 11.202 17.8199 11.2039C17.8125 11.2058 17.8047 11.2061 17.7971 11.2046C17.7896 11.2061 17.7818 11.2058 17.7744 11.2039C17.7669 11.202 17.76 11.1985 17.7541 11.1936C17.7482 11.1887 17.7434 11.1826 17.7401 11.1756C17.7369 11.1687 17.7352 11.1611 17.7352 11.1534C17.7352 11.1457 17.7369 11.1381 17.7401 11.1311C17.7434 11.1242 17.7482 11.1181 17.7541 11.1132C17.76 11.1083 17.7669 11.1047 17.7744 11.1028C17.7818 11.1009 17.7896 11.1007 17.7971 11.1021Z" fill="#121728"/>
<path d="M11.886 4.91881L19.6552 30.1682L15.3839 27.7102L13.7067 22.2593L8.53157 19.2608L6.17603 17.9004L4.49882 21.4207L0.233126 18.9514L8.00232 2.67322L11.886 4.91881ZM12.1953 17.3059L10.8443 12.8874L9.9572 9.98397L7.69297 14.7062L12.1953 17.3059Z" fill="white"/>
<path d="M16.1349 2.46635L11.886 4.9188L8.00232 2.67693L12.2494 0.224487L16.1349 2.46635Z" fill="#005BF2"/>
<path d="M10.8442 12.8873L12.1953 17.3058L7.69294 14.7062L10.8442 12.8873Z" fill="#005BF2"/>
<path d="M9.95717 9.98389L10.8442 12.8873L7.69294 14.7062L9.95717 9.98389Z" fill="#121728"/>
<path d="M8.53157 19.2608L4.50441 21.4207L6.17602 17.9004L8.53157 19.2608Z" fill="#121728"/>
<path d="M19.6552 30.4012C19.6147 30.4014 19.5749 30.3912 19.5396 30.3714L15.2683 27.9058C15.217 27.8764 15.179 27.8284 15.1621 27.7717L13.5166 22.4083L6.2785 18.2284L4.71497 21.5213C4.70122 21.5503 4.68163 21.5761 4.65743 21.5972C4.63322 21.6183 4.60492 21.6342 4.57429 21.6438C4.54367 21.6534 4.51139 21.6566 4.47948 21.6532C4.44756 21.6497 4.41671 21.6397 4.38884 21.6238L0.117555 19.1583C0.0664639 19.1288 0.0283222 19.0812 0.0107133 19.025C-0.00689558 18.9687 -0.00268418 18.9078 0.0225113 18.8545L7.78612 2.5763C7.80022 2.54739 7.82012 2.52169 7.84458 2.50078C7.86903 2.47988 7.89751 2.46422 7.92827 2.45479C7.95902 2.44535 7.99139 2.44233 8.02335 2.44593C8.05532 2.44952 8.08621 2.45965 8.1141 2.47567L11.9978 4.71195C12.0486 4.74199 12.0864 4.78979 12.104 4.84612L19.8732 30.0955C19.8837 30.1304 19.8858 30.1672 19.8795 30.203C19.8732 30.2388 19.8586 30.2727 19.8369 30.3018C19.8151 30.331 19.7869 30.3547 19.7544 30.371C19.7218 30.3872 19.6859 30.3957 19.6496 30.3956L19.6552 30.4012ZM15.5795 27.548L19.2582 29.6707L11.6996 5.07533L8.1141 3.00492L0.536857 18.862L4.40189 21.0983L5.96542 17.8072C5.97911 17.7779 5.9988 17.7519 6.02319 17.7307C6.04759 17.7095 6.07615 17.6937 6.10705 17.6842C6.13776 17.6741 6.1703 17.6706 6.20246 17.6742C6.23461 17.6777 6.26563 17.6881 6.2934 17.7047L13.8297 22.0561C13.8804 22.0862 13.9183 22.134 13.9359 22.1903L15.5795 27.548Z" fill="#121728"/>
<path d="M12.1953 17.5388C12.1546 17.5393 12.1145 17.5284 12.0797 17.5071L7.57737 14.8981C7.52608 14.8694 7.4878 14.822 7.47046 14.7658C7.45312 14.7096 7.45804 14.6489 7.4842 14.5962L9.74656 9.87397C9.76731 9.83177 9.80026 9.79678 9.84112 9.77352C9.88199 9.75027 9.9289 9.73982 9.97578 9.74353C10.0226 9.74658 10.0674 9.76394 10.1041 9.79327C10.1407 9.8226 10.1675 9.86247 10.1808 9.90751L12.417 17.2295C12.4275 17.2643 12.4297 17.3011 12.4234 17.3369C12.4171 17.3727 12.4025 17.4066 12.3807 17.4358C12.359 17.4649 12.3307 17.4886 12.2982 17.5049C12.2657 17.5211 12.2298 17.5296 12.1934 17.5295L12.1953 17.5388ZM7.99668 14.613L11.8002 16.8083L10.6224 12.9563L9.90869 10.6231L7.99668 14.613Z" fill="#121728"/>
<path d="M11.8859 5.16109C11.8349 5.16071 11.7854 5.14357 11.745 5.11231C11.7047 5.08105 11.6757 5.03739 11.6626 4.98806C11.6494 4.93872 11.6529 4.88645 11.6724 4.83926C11.6918 4.79207 11.7263 4.75258 11.7704 4.72688L16.0193 2.27444C16.0459 2.25914 16.0752 2.24922 16.1056 2.24525C16.136 2.24128 16.1668 2.24334 16.1964 2.2513C16.226 2.25926 16.2537 2.27297 16.278 2.29165C16.3023 2.31032 16.3227 2.3336 16.338 2.36015C16.3533 2.38671 16.3632 2.41602 16.3672 2.44641C16.3711 2.47679 16.3691 2.50766 16.3611 2.53725C16.3532 2.56684 16.3395 2.59457 16.3208 2.61886C16.3021 2.64315 16.2788 2.66353 16.2523 2.67883L12.0033 5.13128C11.9674 5.15116 11.927 5.16142 11.8859 5.16109Z" fill="#121728"/>
<path d="M7.69293 14.9391C7.64188 14.9387 7.59236 14.9216 7.55201 14.8904C7.51165 14.8591 7.48268 14.8154 7.46955 14.7661C7.45642 14.7168 7.45986 14.6645 7.47935 14.6173C7.49883 14.5701 7.53328 14.5306 7.57739 14.5049L10.7287 12.6861C10.7551 12.6708 10.7842 12.6608 10.8145 12.6569C10.8447 12.6529 10.8755 12.655 10.9049 12.6629C10.9344 12.6709 10.962 12.6846 10.9861 12.7033C11.0102 12.722 11.0304 12.7453 11.0455 12.7718C11.0761 12.8253 11.0845 12.8887 11.0688 12.9483C11.0531 13.0079 11.0146 13.059 10.9616 13.0905L7.81033 14.9093C7.77441 14.9292 7.73398 14.9395 7.69293 14.9391Z" fill="#121728"/>
<path d="M4.50435 21.6536C4.4623 21.6533 4.4211 21.6418 4.38504 21.6201C4.34898 21.5985 4.31939 21.5676 4.29936 21.5306C4.28472 21.5037 4.27556 21.4742 4.27241 21.4437C4.26927 21.4133 4.2722 21.3825 4.28104 21.3532C4.28988 21.3239 4.30446 21.2967 4.32392 21.2731C4.34338 21.2494 4.36734 21.2299 4.39441 21.2156L8.42157 19.0558C8.44861 19.0394 8.47871 19.0286 8.51004 19.0242C8.54136 19.0198 8.57325 19.0219 8.60377 19.0302C8.63428 19.0385 8.66278 19.053 8.68752 19.0727C8.71227 19.0924 8.73274 19.1169 8.74769 19.1448C8.76264 19.1727 8.77176 19.2033 8.77449 19.2348C8.77722 19.2663 8.7735 19.2981 8.76356 19.3281C8.75362 19.3581 8.73767 19.3858 8.71668 19.4095C8.69568 19.4332 8.67009 19.4523 8.64147 19.4658L4.61803 21.6256C4.58311 21.6444 4.544 21.654 4.50435 21.6536Z" fill="#121728"/>
<path d="M19.6552 30.4012C19.6147 30.4014 19.5749 30.3912 19.5396 30.3714L15.2683 27.9058C15.217 27.8764 15.179 27.8284 15.1621 27.7717L13.5166 22.4083L6.2785 18.2284L4.71497 21.5213C4.70122 21.5503 4.68163 21.5761 4.65743 21.5972C4.63322 21.6183 4.60492 21.6342 4.57429 21.6438C4.54367 21.6534 4.51139 21.6566 4.47948 21.6532C4.44756 21.6497 4.41671 21.6397 4.38884 21.6238L0.117555 19.1583C0.0664639 19.1288 0.0283222 19.0812 0.0107133 19.025C-0.00689558 18.9687 -0.00268418 18.9078 0.0225113 18.8545L7.78612 2.5763C7.80022 2.54739 7.82012 2.52169 7.84458 2.50078C7.86903 2.47988 7.89751 2.46422 7.92827 2.45479C7.95902 2.44535 7.99139 2.44233 8.02335 2.44593C8.05532 2.44952 8.08621 2.45965 8.1141 2.47567L11.9978 4.71195C12.0486 4.74199 12.0864 4.78979 12.104 4.84612L19.8732 30.0955C19.8837 30.1304 19.8858 30.1672 19.8795 30.203C19.8732 30.2388 19.8586 30.2727 19.8369 30.3018C19.8151 30.331 19.7869 30.3547 19.7544 30.371C19.7218 30.3872 19.6859 30.3957 19.6496 30.3956L19.6552 30.4012ZM15.5795 27.548L19.2582 29.6707L11.6996 5.07533L8.1141 3.00492L0.536857 18.862L4.40189 21.0983L5.96542 17.8072C5.97911 17.7779 5.9988 17.7519 6.02319 17.7307C6.04759 17.7095 6.07615 17.6937 6.10705 17.6842C6.13776 17.6741 6.1703 17.6706 6.20246 17.6742C6.23461 17.6777 6.26563 17.6881 6.2934 17.7047L13.8297 22.0561C13.8804 22.0862 13.9183 22.134 13.9359 22.1903L15.5795 27.548Z" fill="#121728"/>
<path d="M12.1953 17.5388C12.1546 17.5393 12.1145 17.5284 12.0797 17.5071L7.57737 14.8981C7.52608 14.8694 7.4878 14.822 7.47046 14.7658C7.45312 14.7096 7.45804 14.6489 7.4842 14.5962L9.74656 9.87397C9.76731 9.83177 9.80026 9.79678 9.84112 9.77352C9.88199 9.75027 9.9289 9.73982 9.97578 9.74353C10.0226 9.74658 10.0674 9.76394 10.1041 9.79327C10.1407 9.8226 10.1675 9.86247 10.1808 9.90751L12.417 17.2295C12.4275 17.2643 12.4297 17.3011 12.4234 17.3369C12.4171 17.3727 12.4025 17.4066 12.3807 17.4358C12.359 17.4649 12.3307 17.4886 12.2982 17.5049C12.2657 17.5211 12.2298 17.5296 12.1934 17.5295L12.1953 17.5388ZM7.99668 14.613L11.8002 16.8083L10.6224 12.9563L9.90869 10.6231L7.99668 14.613Z" fill="#121728"/>
<path d="M11.8859 5.16109C11.8349 5.16071 11.7854 5.14357 11.745 5.11231C11.7047 5.08105 11.6757 5.03739 11.6626 4.98806C11.6494 4.93872 11.6529 4.88645 11.6724 4.83926C11.6918 4.79207 11.7263 4.75258 11.7704 4.72688L16.0193 2.27444C16.0459 2.25914 16.0752 2.24922 16.1056 2.24525C16.136 2.24128 16.1668 2.24334 16.1964 2.2513C16.226 2.25926 16.2537 2.27297 16.278 2.29165C16.3023 2.31032 16.3227 2.3336 16.338 2.36015C16.3533 2.38671 16.3632 2.41602 16.3672 2.44641C16.3711 2.47679 16.3691 2.50766 16.3611 2.53725C16.3532 2.56684 16.3395 2.59457 16.3208 2.61886C16.3021 2.64315 16.2788 2.66353 16.2523 2.67883L12.0033 5.13128C11.9674 5.15116 11.927 5.16142 11.8859 5.16109Z" fill="#121728"/>
<path d="M7.69293 14.9391C7.64188 14.9387 7.59236 14.9216 7.55201 14.8904C7.51165 14.8591 7.48268 14.8154 7.46955 14.7661C7.45642 14.7168 7.45986 14.6645 7.47935 14.6173C7.49883 14.5701 7.53328 14.5306 7.57739 14.5049L10.7287 12.6861C10.7551 12.6708 10.7842 12.6608 10.8145 12.6569C10.8447 12.6529 10.8755 12.655 10.9049 12.6629C10.9344 12.6709 10.962 12.6846 10.9861 12.7033C11.0102 12.722 11.0304 12.7453 11.0455 12.7718C11.0761 12.8253 11.0845 12.8887 11.0688 12.9483C11.0531 13.0079 11.0146 13.059 10.9616 13.0905L7.81033 14.9093C7.77441 14.9292 7.73398 14.9395 7.69293 14.9391Z" fill="#121728"/>
<path d="M4.50435 21.6536C4.4623 21.6533 4.4211 21.6418 4.38504 21.6201C4.34898 21.5985 4.31939 21.5676 4.29936 21.5306C4.28472 21.5037 4.27556 21.4742 4.27241 21.4437C4.26927 21.4133 4.2722 21.3825 4.28104 21.3532C4.28988 21.3239 4.30446 21.2967 4.32392 21.2731C4.34338 21.2494 4.36734 21.2299 4.39441 21.2156L8.42157 19.0558C8.44861 19.0394 8.47871 19.0286 8.51004 19.0242C8.54136 19.0198 8.57325 19.0219 8.60377 19.0302C8.63428 19.0385 8.66278 19.053 8.68752 19.0727C8.71227 19.0924 8.73274 19.1169 8.74769 19.1448C8.76264 19.1727 8.77176 19.2033 8.77449 19.2348C8.77722 19.2663 8.7735 19.2981 8.76356 19.3281C8.75362 19.3581 8.73767 19.3858 8.71668 19.4095C8.69568 19.4332 8.67009 19.4523 8.64147 19.4658L4.61803 21.6256C4.58311 21.6444 4.544 21.654 4.50435 21.6536Z" fill="#121728"/>
<path opacity="0.24" d="M38.1436 19.613L36.7813 18.8266L38.1436 18.0402L39.5058 18.8266L38.1436 19.613Z" fill="#005BF2"/>
<path d="M47.4148 20.5261V41.2899L43.1659 43.7424V22.9786L47.4148 20.5261Z" fill="white"/>
<path d="M43.9765 34.0463C44.0031 34.0463 44.029 34.0541 44.0511 34.0689C44.0731 34.0836 44.0903 34.1046 44.1005 34.1291C44.1106 34.1536 44.1133 34.1806 44.1081 34.2066C44.1029 34.2326 44.0902 34.2566 44.0714 34.2753C44.0526 34.2941 44.0287 34.3069 44.0027 34.312C43.9767 34.3172 43.9497 34.3146 43.9252 34.3044C43.9007 34.2942 43.8797 34.277 43.865 34.255C43.8502 34.2329 43.8424 34.207 43.8424 34.1804C43.8424 34.1448 43.8565 34.1107 43.8817 34.0856C43.9068 34.0604 43.9409 34.0463 43.9765 34.0463Z" fill="#121728"/>
<path d="M46.8204 37.1826C46.8773 37.1823 46.933 37.1988 46.9805 37.2302C47.028 37.2616 47.0651 37.3064 47.087 37.3589C47.109 37.4114 47.1148 37.4693 47.1038 37.5251C47.0928 37.581 47.0654 37.6323 47.0252 37.6725C46.9849 37.7128 46.9336 37.7402 46.8778 37.7512C46.8219 37.7622 46.7641 37.7563 46.7115 37.7344C46.659 37.7124 46.6142 37.6754 46.5828 37.6279C46.5514 37.5804 46.5349 37.5247 46.5352 37.4677C46.5357 37.3923 46.5659 37.32 46.6193 37.2667C46.6727 37.2133 46.7449 37.1831 46.8204 37.1826Z" fill="#121728"/>
<path d="M44.0604 36.0422C44.0972 36.0422 44.1333 36.0532 44.1639 36.0736C44.1946 36.0941 44.2184 36.1232 44.2326 36.1573C44.2467 36.1913 44.2503 36.2288 44.2432 36.2649C44.236 36.3011 44.2182 36.3343 44.1922 36.3604C44.1661 36.3864 44.1329 36.4042 44.0967 36.4114C44.0606 36.4186 44.0231 36.4149 43.9891 36.4008C43.955 36.3866 43.9259 36.3628 43.9054 36.3321C43.885 36.3015 43.874 36.2655 43.874 36.2286C43.874 36.1792 43.8937 36.1318 43.9286 36.0968C43.9636 36.0619 44.011 36.0422 44.0604 36.0422Z" fill="#121728"/>
<path d="M43.7343 42.5516C43.808 42.5516 43.88 42.5735 43.9413 42.6144C44.0026 42.6554 44.0504 42.7136 44.0786 42.7817C44.1068 42.8498 44.1142 42.9248 44.0998 42.9971C44.0854 43.0694 44.0499 43.1358 43.9978 43.1879C43.9457 43.24 43.8793 43.2755 43.807 43.2899C43.7347 43.3043 43.6597 43.2969 43.5916 43.2687C43.5235 43.2405 43.4653 43.1927 43.4244 43.1314C43.3834 43.0701 43.3615 42.9981 43.3615 42.9243C43.3615 42.8255 43.4008 42.7307 43.4707 42.6608C43.5406 42.5909 43.6354 42.5516 43.7343 42.5516Z" fill="#121728"/>
<path d="M43.9393 39.2494C44.0006 39.249 44.0607 39.2669 44.1119 39.3008C44.163 39.3346 44.2029 39.3829 44.2266 39.4395C44.2502 39.4961 44.2565 39.5585 44.2446 39.6186C44.2328 39.6788 44.2033 39.7341 44.1599 39.7775C44.1165 39.8209 44.0612 39.8504 44.001 39.8622C43.9409 39.8741 43.8785 39.8678 43.8219 39.8442C43.7653 39.8205 43.717 39.7806 43.6832 39.7294C43.6493 39.6783 43.6314 39.6182 43.6318 39.5569C43.6318 39.4753 43.6642 39.3971 43.7219 39.3395C43.7795 39.2818 43.8577 39.2494 43.9393 39.2494Z" fill="#121728"/>
<path d="M45.3108 37.5106C45.3632 37.5106 45.4143 37.5261 45.4579 37.5552C45.5014 37.5843 45.5353 37.6256 45.5553 37.674C45.5754 37.7223 45.5806 37.7755 45.5704 37.8269C45.5602 37.8782 45.535 37.9254 45.498 37.9624C45.461 37.9994 45.4138 38.0246 45.3625 38.0348C45.3111 38.045 45.2579 38.0398 45.2096 38.0197C45.1612 37.9997 45.1199 37.9658 45.0908 37.9223C45.0617 37.8787 45.0462 37.8276 45.0462 37.7752C45.046 37.7404 45.0526 37.7059 45.0659 37.6737C45.0791 37.6415 45.0985 37.6122 45.1232 37.5876C45.1478 37.563 45.1771 37.5435 45.2093 37.5303C45.2415 37.517 45.276 37.5104 45.3108 37.5106Z" fill="#121728"/>
<path d="M46.6302 40.9993C46.704 40.9993 46.776 41.0211 46.8373 41.0621C46.8986 41.103 46.9464 41.1612 46.9746 41.2293C47.0028 41.2975 47.0102 41.3724 46.9958 41.4447C46.9814 41.517 46.9459 41.5834 46.8938 41.6355C46.8417 41.6877 46.7753 41.7231 46.703 41.7375C46.6307 41.7519 46.5557 41.7445 46.4876 41.7163C46.4195 41.6881 46.3613 41.6403 46.3203 41.579C46.2794 41.5178 46.2575 41.4457 46.2575 41.372C46.2575 41.2731 46.2968 41.1783 46.3667 41.1084C46.4366 41.0385 46.5314 40.9993 46.6302 40.9993Z" fill="#121728"/>
<path d="M46.9489 34.078C46.9858 34.078 47.0218 34.0889 47.0524 34.1094C47.0831 34.1299 47.107 34.159 47.1211 34.193C47.1352 34.2271 47.1389 34.2646 47.1317 34.3007C47.1245 34.3369 47.1067 34.3701 47.0807 34.3961C47.0546 34.4222 47.0214 34.4399 46.9853 34.4471C46.9491 34.4543 46.9116 34.4506 46.8776 34.4365C46.8435 34.4224 46.8144 34.3985 46.794 34.3679C46.7735 34.3373 46.7625 34.3012 46.7625 34.2644C46.7625 34.2149 46.7822 34.1675 46.8171 34.1326C46.8521 34.0976 46.8995 34.078 46.9489 34.078Z" fill="#121728"/>
<path d="M46.7346 31.6237C46.7586 31.6237 46.782 31.6308 46.8019 31.6441C46.8218 31.6574 46.8374 31.6763 46.8465 31.6984C46.8557 31.7206 46.8581 31.7449 46.8534 31.7684C46.8487 31.7919 46.8372 31.8135 46.8203 31.8304C46.8033 31.8474 46.7817 31.8589 46.7582 31.8636C46.7348 31.8683 46.7104 31.8659 46.6883 31.8567C46.6661 31.8475 46.6472 31.832 46.6339 31.8121C46.6206 31.7922 46.6135 31.7688 46.6135 31.7448C46.6135 31.7127 46.6262 31.6819 46.649 31.6591C46.6717 31.6364 46.7025 31.6237 46.7346 31.6237Z" fill="#121728"/>
<path d="M46.7794 38.4518C46.8446 38.4518 46.9084 38.4711 46.9626 38.5074C47.0169 38.5436 47.0592 38.5951 47.0841 38.6554C47.1091 38.7157 47.1156 38.782 47.1029 38.846C47.0902 38.91 47.0588 38.9687 47.0126 39.0149C46.9665 39.061 46.9077 39.0924 46.8437 39.1051C46.7797 39.1179 46.7134 39.1113 46.6532 39.0864C46.5929 39.0614 46.5414 39.0191 46.5051 38.9649C46.4689 38.9106 46.4495 38.8469 46.4495 38.7816C46.4495 38.6941 46.4843 38.6103 46.5461 38.5484C46.608 38.4865 46.6919 38.4518 46.7794 38.4518Z" fill="#121728"/>
<path d="M45.3333 39.199C45.3967 39.199 45.4586 39.2178 45.5113 39.253C45.564 39.2882 45.6051 39.3383 45.6294 39.3968C45.6536 39.4554 45.66 39.5199 45.6476 39.582C45.6353 39.6442 45.6047 39.7013 45.5599 39.7462C45.5151 39.791 45.458 39.8215 45.3958 39.8339C45.3336 39.8462 45.2692 39.8399 45.2106 39.8156C45.152 39.7914 45.102 39.7503 45.0667 39.6976C45.0315 39.6449 45.0127 39.5829 45.0127 39.5195C45.0127 39.4345 45.0465 39.353 45.1066 39.2928C45.1667 39.2327 45.2482 39.199 45.3333 39.199Z" fill="#121728"/>
<path d="M46.2463 26.5305C46.2552 26.5305 46.2637 26.5341 46.27 26.5403C46.2763 26.5466 46.2798 26.5552 46.2798 26.5641C46.2798 26.573 46.2763 26.5815 46.27 26.5878C46.2637 26.5941 46.2552 26.5976 46.2463 26.5976C46.2374 26.5976 46.2289 26.5941 46.2226 26.5878C46.2163 26.5815 46.2128 26.573 46.2128 26.5641C46.2128 26.5552 46.2163 26.5466 46.2226 26.5403C46.2289 26.5341 46.2374 26.5305 46.2463 26.5305Z" fill="#121728"/>
<path d="M43.8964 37.6486C43.9425 37.6486 43.9875 37.6622 44.0258 37.6878C44.0641 37.7134 44.094 37.7498 44.1116 37.7924C44.1293 37.8349 44.1339 37.8818 44.1249 37.9269C44.1159 37.9721 44.0937 38.0136 44.0611 38.0462C44.0286 38.0788 43.987 38.101 43.9419 38.11C43.8967 38.119 43.8498 38.1143 43.8073 38.0967C43.7647 38.0791 43.7283 38.0492 43.7027 38.0109C43.6771 37.9726 43.6635 37.9276 43.6635 37.8815C43.6635 37.8197 43.688 37.7605 43.7317 37.7168C43.7754 37.6731 43.8346 37.6486 43.8964 37.6486Z" fill="#121728"/>
<path d="M44.9791 41.8378C45.0529 41.8378 45.1249 41.8596 45.1862 41.9006C45.2475 41.9415 45.2953 41.9997 45.3235 42.0678C45.3517 42.136 45.3591 42.2109 45.3447 42.2832C45.3303 42.3555 45.2948 42.4219 45.2427 42.474C45.1906 42.5262 45.1242 42.5616 45.0519 42.576C44.9796 42.5904 44.9046 42.583 44.8365 42.5548C44.7684 42.5266 44.7102 42.4788 44.6692 42.4176C44.6283 42.3563 44.6064 42.2842 44.6064 42.2105C44.6064 42.1116 44.6457 42.0168 44.7156 41.9469C44.7855 41.877 44.8803 41.8378 44.9791 41.8378Z" fill="#121728"/>
<path d="M45.3556 35.2166C45.3925 35.2166 45.4285 35.2275 45.4591 35.248C45.4898 35.2684 45.5137 35.2975 45.5278 35.3316C45.5419 35.3656 45.5456 35.4031 45.5384 35.4393C45.5312 35.4754 45.5134 35.5086 45.4874 35.5347C45.4613 35.5607 45.4281 35.5785 45.392 35.5857C45.3558 35.5929 45.3183 35.5892 45.2843 35.5751C45.2502 35.561 45.2211 35.5371 45.2006 35.5064C45.1802 35.4758 45.1692 35.4398 45.1692 35.4029C45.1692 35.3535 45.1889 35.3061 45.2238 35.2711C45.2588 35.2362 45.3062 35.2166 45.3556 35.2166Z" fill="#121728"/>
<path d="M46.8576 39.6854C46.9314 39.6854 47.0034 39.7073 47.0647 39.7482C47.126 39.7892 47.1738 39.8474 47.202 39.9155C47.2302 39.9836 47.2376 40.0586 47.2232 40.1309C47.2088 40.2032 47.1733 40.2696 47.1212 40.3217C47.0691 40.3738 47.0027 40.4093 46.9304 40.4237C46.8581 40.4381 46.7831 40.4307 46.715 40.4025C46.6469 40.3743 46.5887 40.3265 46.5477 40.2652C46.5068 40.2039 46.4849 40.1319 46.4849 40.0581C46.4849 39.9593 46.5242 39.8645 46.5941 39.7946C46.664 39.7247 46.7588 39.6854 46.8576 39.6854Z" fill="#121728"/>
<path d="M46.5985 29.5048C46.6193 29.5048 46.6392 29.513 46.6539 29.5277C46.6686 29.5424 46.6768 29.5623 46.6768 29.583C46.6739 29.602 46.6643 29.6192 46.6498 29.6317C46.6353 29.6441 46.6168 29.651 46.5976 29.651C46.5785 29.651 46.56 29.6441 46.5454 29.6317C46.5309 29.6192 46.5213 29.602 46.5184 29.583C46.5184 29.5726 46.5205 29.5623 46.5245 29.5527C46.5286 29.543 46.5345 29.5343 46.542 29.527C46.5495 29.5197 46.5583 29.514 46.568 29.5102C46.5777 29.5064 46.5881 29.5045 46.5985 29.5048Z" fill="#121728"/>
<path d="M43.7697 40.7551C43.8401 40.7548 43.9091 40.7753 43.9679 40.8142C44.0267 40.8531 44.0726 40.9086 44.0998 40.9736C44.1271 41.0386 44.1344 41.1102 44.1209 41.1794C44.1073 41.2485 44.0736 41.3121 44.0239 41.3621C43.9742 41.4121 43.9108 41.4461 43.8417 41.46C43.7726 41.4739 43.7009 41.467 43.6358 41.4401C43.5706 41.4132 43.5149 41.3676 43.4757 41.309C43.4365 41.2504 43.4156 41.1815 43.4156 41.1111C43.4153 41.0644 43.4243 41.0182 43.442 40.975C43.4597 40.9318 43.4857 40.8926 43.5186 40.8595C43.5515 40.8264 43.5907 40.8002 43.6337 40.7823C43.6768 40.7643 43.723 40.7551 43.7697 40.7551Z" fill="#121728"/>
<path d="M45.7115 33.0773C45.7388 33.0773 45.7655 33.0854 45.7881 33.1005C45.8108 33.1157 45.8285 33.1372 45.8389 33.1624C45.8494 33.1876 45.8521 33.2153 45.8468 33.2421C45.8415 33.2688 45.8283 33.2934 45.809 33.3127C45.7898 33.332 45.7652 33.3451 45.7384 33.3504C45.7117 33.3558 45.684 33.353 45.6588 33.3426C45.6336 33.3321 45.612 33.3145 45.5969 33.2918C45.5817 33.2691 45.5736 33.2424 45.5736 33.2152C45.5736 33.1786 45.5882 33.1435 45.614 33.1177C45.6399 33.0918 45.675 33.0773 45.7115 33.0773Z" fill="#121728"/>
<path d="M45.3071 40.5687C45.3808 40.5687 45.4529 40.5906 45.5142 40.6315C45.5755 40.6725 45.6232 40.7307 45.6514 40.7988C45.6796 40.8669 45.687 40.9419 45.6727 41.0142C45.6583 41.0865 45.6228 41.1529 45.5706 41.205C45.5185 41.2571 45.4521 41.2926 45.3798 41.307C45.3075 41.3214 45.2326 41.314 45.1645 41.2858C45.0964 41.2576 45.0382 41.2098 44.9972 41.1485C44.9562 41.0872 44.9344 41.0152 44.9344 40.9414C44.9344 40.8426 44.9737 40.7478 45.0436 40.6779C45.1134 40.608 45.2083 40.5687 45.3071 40.5687Z" fill="#121728"/>
<path d="M44.3679 29.1172C44.3817 29.1172 44.395 29.1227 44.4048 29.1325C44.4146 29.1423 44.4201 29.1555 44.4201 29.1694C44.4201 29.1832 44.4146 29.1965 44.4048 29.2063C44.395 29.2161 44.3817 29.2215 44.3679 29.2215C44.354 29.2215 44.3408 29.2161 44.331 29.2063C44.3212 29.1965 44.3157 29.1832 44.3157 29.1694C44.3157 29.1555 44.3212 29.1423 44.331 29.1325C44.3408 29.1227 44.354 29.1172 44.3679 29.1172Z" fill="#121728"/>
<path d="M46.7346 35.8335C46.7968 35.8335 46.8566 35.8582 46.9006 35.9023C46.9446 35.9463 46.9694 36.006 46.9694 36.0683C46.9694 36.1306 46.9446 36.1903 46.9006 36.2343C46.8566 36.2784 46.7968 36.3031 46.7346 36.3031C46.6723 36.3031 46.6126 36.2784 46.5685 36.2343C46.5245 36.1903 46.4998 36.1306 46.4998 36.0683C46.4998 36.006 46.5245 35.9463 46.5685 35.9023C46.6126 35.8582 46.6723 35.8335 46.7346 35.8335Z" fill="#121728"/>
<path d="M44.2579 31.7896C44.2817 31.7896 44.3044 31.799 44.3212 31.8157C44.338 31.8325 44.3474 31.8553 44.3474 31.879C44.3476 31.8908 44.3455 31.9026 44.3411 31.9135C44.3367 31.9245 44.3301 31.9345 44.3217 31.9428C44.3134 31.9512 44.3034 31.9578 44.2925 31.9622C44.2815 31.9666 44.2697 31.9687 44.2579 31.9684C44.2342 31.9684 44.2115 31.959 44.1947 31.9423C44.1779 31.9255 44.1685 31.9027 44.1685 31.879C44.169 31.8554 44.1785 31.833 44.1952 31.8163C44.2119 31.7996 44.2344 31.79 44.2579 31.7896Z" fill="#121728"/>
<path d="M47.4148 20.5261L43.1659 22.9786L39.1536 20.6622L39.7798 20.3006L43.4007 18.2097L47.4148 20.5261Z" fill="#FAD657"/>
<path d="M43.1659 22.9785V43.7423L39.1536 41.4241V27.9524V20.6621L43.1659 22.9785Z" fill="white"/>
<path d="M39.7798 20.3006L39.1537 20.6621V27.9524C39.0215 28.082 38.8738 28.1947 38.7139 28.2878L34.4668 30.7403C35.4992 30.1439 36.0154 28.7003 36.0154 26.4094C36.0154 23.8451 35.3849 21.5803 34.1239 19.6148C32.8629 17.6494 30.8546 15.8697 28.099 14.2757L21.7461 10.6082L25.9932 8.15576L32.3479 11.8233C35.106 13.4185 37.1143 15.1982 38.3728 17.1624C38.9955 18.1325 39.4697 19.1903 39.7798 20.3006Z" fill="white"/>
<path d="M31.7572 22.4455C31.6148 21.8058 31.3441 21.2016 30.9614 20.6695C30.6795 20.2852 30.3571 19.9322 29.9998 19.6166C29.3969 19.0866 28.7405 18.6207 28.0412 18.2264L25.7509 16.9014V23.8805L28.4531 25.4403C29.7886 26.2143 30.6974 26.4273 31.1795 26.0795C31.6615 25.7316 31.9013 24.9595 31.8988 23.7631C31.901 23.32 31.8535 22.878 31.7572 22.4455ZM34.1239 19.6148C35.3862 21.5814 36.0167 23.8463 36.0154 26.4093C36.0154 28.699 35.4992 30.1427 34.4668 30.7402C34.3422 30.8152 34.2105 30.8776 34.0736 30.9266C33.1008 31.2558 31.7429 31.0291 29.9998 30.2464C29.3629 29.9573 28.7409 29.6364 28.1363 29.2848L25.7509 27.8964V33.6884L21.7387 31.372V10.6082L28.099 14.2756C30.8558 15.8709 32.8641 17.6506 34.1239 19.6148Z" fill="white"/>
<path d="M31.7571 22.4457C31.8538 22.8794 31.9013 23.3226 31.8988 23.7669C31.8988 24.9646 31.659 25.7367 31.1794 26.0833C30.6999 26.43 29.7911 26.2169 28.453 25.4441L25.7509 23.8843L29.9998 21.4319L31.7571 22.4457Z" fill="#005BF2"/>
<path d="M29.9998 30.2371V31.2341L25.7509 33.6866V27.8965L28.1437 29.2774C28.7459 29.6281 29.3654 29.9484 29.9998 30.2371Z" fill="#121728"/>
<path d="M29.9998 19.6167V21.4318L25.7509 23.8843V16.9015L28.0412 18.2228C28.7406 18.6183 29.397 19.0854 29.9998 19.6167Z" fill="#121728"/>
<path d="M21.7386 20.6808V28.9643L19.6552 30.1682L11.886 4.91876L16.1349 2.46631L21.7386 20.6808Z" fill="white"/>
<path d="M36.3341 28.066C36.5369 28.066 36.7012 27.9017 36.7012 27.6989C36.7012 27.4962 36.5369 27.3318 36.3341 27.3318C36.1314 27.3318 35.967 27.4962 35.967 27.6989C35.967 27.9017 36.1314 28.066 36.3341 28.066Z" fill="#121728"/>
<path d="M35.3259 17.5519C35.3586 17.5557 35.3886 17.5714 35.4104 17.596C35.4323 17.6206 35.4443 17.6523 35.4443 17.6851C35.4443 17.718 35.4323 17.7497 35.4104 17.7742C35.3886 17.7988 35.3586 17.8145 35.3259 17.8184C35.2933 17.8145 35.2632 17.7988 35.2414 17.7742C35.2196 17.7497 35.2075 17.718 35.2075 17.6851C35.2075 17.6523 35.2196 17.6206 35.2414 17.596C35.2632 17.5714 35.2933 17.5557 35.3259 17.5519Z" fill="#121728"/>
<path d="M35.8122 15.4255C35.8325 15.4255 35.8523 15.4315 35.8692 15.4428C35.886 15.4541 35.8992 15.4701 35.9069 15.4888C35.9147 15.5075 35.9167 15.5281 35.9128 15.548C35.9088 15.5679 35.899 15.5862 35.8847 15.6005C35.8704 15.6148 35.8521 15.6246 35.8322 15.6286C35.8124 15.6325 35.7917 15.6305 35.773 15.6227C35.7543 15.615 35.7383 15.6018 35.727 15.585C35.7157 15.5681 35.7097 15.5483 35.7097 15.528C35.7097 15.5008 35.7205 15.4748 35.7398 15.4556C35.759 15.4363 35.7851 15.4255 35.8122 15.4255Z" fill="#121728"/>
<path d="M36.4719 18.8396C36.5066 18.8396 36.5404 18.8499 36.5692 18.8691C36.5981 18.8884 36.6205 18.9157 36.6338 18.9477C36.647 18.9797 36.6505 19.015 36.6437 19.0489C36.637 19.0829 36.6203 19.1141 36.5958 19.1386C36.5713 19.1631 36.5401 19.1798 36.5061 19.1866C36.4721 19.1933 36.4369 19.1899 36.4049 19.1766C36.3729 19.1633 36.3455 19.1409 36.3263 19.1121C36.307 19.0833 36.2967 19.0494 36.2967 19.0148C36.2967 18.9918 36.3013 18.969 36.3101 18.9477C36.3189 18.9265 36.3318 18.9072 36.3481 18.8909C36.3643 18.8746 36.3836 18.8617 36.4049 18.8529C36.4261 18.8441 36.4489 18.8396 36.4719 18.8396Z" fill="#121728"/>
<path d="M34.1127 13.836C34.1271 13.836 34.1411 13.8402 34.1531 13.8482C34.165 13.8562 34.1743 13.8676 34.1798 13.8808C34.1853 13.8941 34.1868 13.9087 34.184 13.9228C34.1812 13.9369 34.1742 13.9499 34.1641 13.96C34.1539 13.9702 34.141 13.9771 34.1269 13.9799C34.1128 13.9827 34.0982 13.9813 34.0849 13.9758C34.0716 13.9703 34.0603 13.961 34.0523 13.949C34.0443 13.9371 34.04 13.923 34.04 13.9086C34.0398 13.899 34.0415 13.8895 34.045 13.8805C34.0486 13.8716 34.0539 13.8635 34.0607 13.8567C34.0675 13.8499 34.0756 13.8445 34.0846 13.841C34.0935 13.8374 34.1031 13.8357 34.1127 13.836Z" fill="#121728"/>
<path d="M38.5107 22.5369C38.5702 22.5365 38.6285 22.5538 38.6781 22.5867C38.7277 22.6195 38.7665 22.6663 38.7894 22.7212C38.8124 22.7761 38.8184 22.8366 38.8069 22.895C38.7954 22.9534 38.7668 23.007 38.7247 23.0491C38.6827 23.0911 38.629 23.1197 38.5707 23.1313C38.5123 23.1428 38.4518 23.1367 38.3969 23.1137C38.342 23.0908 38.2952 23.0521 38.2623 23.0024C38.2295 22.9528 38.2122 22.8945 38.2125 22.835C38.213 22.7561 38.2446 22.6806 38.3004 22.6247C38.3562 22.5689 38.4318 22.5374 38.5107 22.5369Z" fill="#121728"/>
<path d="M31.2391 15.4386C31.2487 15.4369 31.2586 15.4374 31.268 15.44C31.2774 15.4426 31.2861 15.4472 31.2935 15.4535C31.301 15.4598 31.307 15.4676 31.3111 15.4765C31.3152 15.4853 31.3173 15.495 31.3173 15.5047C31.3173 15.5145 31.3152 15.5241 31.3111 15.5329C31.307 15.5418 31.301 15.5496 31.2935 15.5559C31.2861 15.5622 31.2774 15.5668 31.268 15.5694C31.2586 15.572 31.2487 15.5725 31.2391 15.5709C31.2234 15.5682 31.2092 15.5601 31.199 15.548C31.1888 15.5359 31.1831 15.5206 31.1831 15.5047C31.1831 15.4888 31.1888 15.4735 31.199 15.4614C31.2092 15.4493 31.2234 15.4412 31.2391 15.4386Z" fill="#121728"/>
<path d="M38.5349 21.074C38.5867 21.0736 38.6374 21.0886 38.6806 21.1172C38.7237 21.1457 38.7575 21.1864 38.7774 21.2342C38.7974 21.2819 38.8027 21.3345 38.7927 21.3853C38.7827 21.4361 38.7578 21.4828 38.7212 21.5194C38.6846 21.556 38.638 21.5808 38.5872 21.5909C38.5364 21.6009 38.4838 21.5955 38.4361 21.5756C38.3883 21.5556 38.3476 21.5218 38.3191 21.4787C38.2905 21.4355 38.2755 21.3848 38.2759 21.333C38.2759 21.2643 38.3032 21.1984 38.3517 21.1498C38.4003 21.1013 38.4662 21.074 38.5349 21.074Z" fill="#121728"/>
<path d="M33.3337 17.5706C33.3562 17.5702 33.3784 17.5766 33.3973 17.5888C33.4163 17.6011 33.4311 17.6187 33.44 17.6394C33.4489 17.6602 33.4514 17.6831 33.4473 17.7053C33.4431 17.7274 33.4324 17.7479 33.4166 17.7639C33.4008 17.78 33.3805 17.791 33.3584 17.7956C33.3363 17.8001 33.3134 17.798 33.2925 17.7894C33.2716 17.7809 33.2537 17.7663 33.2412 17.7476C33.2286 17.7289 33.2219 17.7068 33.2219 17.6842C33.2219 17.6544 33.2336 17.6258 33.2545 17.6045C33.2754 17.5832 33.3039 17.5711 33.3337 17.5706Z" fill="#121728"/>
<path d="M36.4552 24.3782C36.5171 24.3782 36.5777 24.3965 36.6292 24.4309C36.6806 24.4653 36.7208 24.5142 36.7445 24.5714C36.7682 24.6287 36.7744 24.6916 36.7623 24.7523C36.7502 24.8131 36.7204 24.8688 36.6766 24.9126C36.6328 24.9564 36.577 24.9862 36.5163 24.9983C36.4556 25.0104 36.3926 25.0042 36.3354 24.9805C36.2782 24.9568 36.2293 24.9167 36.1949 24.8652C36.1605 24.8137 36.1421 24.7532 36.1421 24.6913C36.1421 24.6082 36.1751 24.5286 36.2338 24.4699C36.2926 24.4112 36.3722 24.3782 36.4552 24.3782Z" fill="#121728"/>
<path d="M39.094 19.4172C39.1374 19.4176 39.1798 19.4308 39.2157 19.4552C39.2516 19.4796 39.2795 19.5141 39.2958 19.5543C39.3122 19.5945 39.3163 19.6386 39.3076 19.6812C39.2989 19.7237 39.2778 19.7627 39.247 19.7933C39.2162 19.8239 39.177 19.8446 39.1344 19.8529C39.0918 19.8613 39.0477 19.8568 39.0076 19.8401C38.9675 19.8234 38.9333 19.7952 38.9092 19.7591C38.8851 19.723 38.8723 19.6806 38.8723 19.6371C38.8723 19.6081 38.878 19.5794 38.8892 19.5526C38.9003 19.5258 38.9167 19.5014 38.9373 19.481C38.9579 19.4605 38.9824 19.4444 39.0093 19.4334C39.0362 19.4225 39.065 19.417 39.094 19.4172Z" fill="#121728"/>
<path d="M33.4549 15.7386C33.4722 15.7386 33.4891 15.7438 33.5035 15.7534C33.5179 15.763 33.5292 15.7767 33.5358 15.7927C33.5424 15.8087 33.5441 15.8263 33.5408 15.8433C33.5374 15.8603 33.529 15.8759 33.5168 15.8882C33.5045 15.9004 33.4889 15.9088 33.4719 15.9121C33.455 15.9155 33.4373 15.9138 33.4213 15.9072C33.4053 15.9005 33.3917 15.8893 33.382 15.8749C33.3724 15.8605 33.3673 15.8436 33.3673 15.8262C33.3673 15.803 33.3765 15.7807 33.3929 15.7643C33.4094 15.7479 33.4316 15.7386 33.4549 15.7386Z" fill="#121728"/>
<path d="M38.7324 27.4344C38.9352 27.4344 39.0996 27.2701 39.0996 27.0673C39.0996 26.8646 38.9352 26.7002 38.7324 26.7002C38.5297 26.7002 38.3653 26.8646 38.3653 27.0673C38.3653 27.2701 38.5297 27.4344 38.7324 27.4344Z" fill="#121728"/>
<path d="M38.4939 25.1422C38.5676 25.1422 38.6397 25.1641 38.701 25.205C38.7623 25.246 38.81 25.3042 38.8382 25.3723C38.8664 25.4404 38.8738 25.5153 38.8594 25.5876C38.8451 25.6599 38.8096 25.7264 38.7574 25.7785C38.7053 25.8306 38.6389 25.8661 38.5666 25.8805C38.4943 25.8949 38.4194 25.8875 38.3513 25.8593C38.2832 25.8311 38.2249 25.7833 38.184 25.722C38.143 25.6607 38.1212 25.5886 38.1212 25.5149C38.1212 25.4161 38.1604 25.3213 38.2303 25.2514C38.3002 25.1815 38.395 25.1422 38.4939 25.1422Z" fill="#121728"/>
<path d="M36.7422 29.298C36.945 29.298 37.1093 29.1336 37.1093 28.9308C37.1093 28.7281 36.945 28.5637 36.7422 28.5637C36.5395 28.5637 36.3751 28.7281 36.3751 28.9308C36.3751 29.1336 36.5395 29.298 36.7422 29.298Z" fill="#121728"/>
<path d="M28.5183 13.2061C28.5254 13.2065 28.532 13.2097 28.5369 13.2149C28.5417 13.2201 28.5444 13.2269 28.5444 13.234C28.5444 13.2409 28.5416 13.2476 28.5368 13.2525C28.5319 13.2574 28.5252 13.2601 28.5183 13.2601C28.5112 13.2601 28.5044 13.2574 28.4992 13.2526C28.494 13.2477 28.4908 13.2411 28.4903 13.234C28.4903 13.2266 28.4933 13.2195 28.4985 13.2142C28.5038 13.209 28.5109 13.2061 28.5183 13.2061Z" fill="#121728"/>
<path d="M36.9975 21.3461C37.045 21.3461 37.0915 21.3602 37.1311 21.3866C37.1706 21.413 37.2014 21.4506 37.2196 21.4945C37.2378 21.5384 37.2425 21.5867 37.2333 21.6334C37.224 21.68 37.2011 21.7229 37.1675 21.7565C37.1339 21.7901 37.091 21.813 37.0444 21.8223C36.9978 21.8315 36.9494 21.8268 36.9055 21.8086C36.8616 21.7904 36.824 21.7596 36.7976 21.72C36.7712 21.6805 36.7571 21.634 36.7571 21.5865C36.7568 21.5548 36.7629 21.5235 36.7749 21.4942C36.7869 21.4649 36.8046 21.4383 36.827 21.4159C36.8493 21.3936 36.8759 21.3759 36.9052 21.3639C36.9345 21.3519 36.9659 21.3458 36.9975 21.3461Z" fill="#121728"/>
<path d="M37.4019 26.4299C37.4756 26.4299 37.5476 26.4518 37.6089 26.4927C37.6702 26.5337 37.718 26.5919 37.7462 26.66C37.7744 26.7281 37.7818 26.8031 37.7674 26.8754C37.753 26.9477 37.7175 27.0141 37.6654 27.0662C37.6133 27.1183 37.5469 27.1538 37.4746 27.1682C37.4023 27.1826 37.3273 27.1752 37.2592 27.147C37.1911 27.1188 37.1329 27.071 37.092 27.0097C37.051 26.9484 37.0292 26.8764 37.0292 26.8026C37.0292 26.7038 37.0684 26.609 37.1383 26.5391C37.2082 26.4692 37.303 26.4299 37.4019 26.4299Z" fill="#121728"/>
<path d="M37.1838 23.2059C37.2429 23.2056 37.3008 23.2228 37.3502 23.2554C37.3995 23.288 37.438 23.3346 37.4608 23.3891C37.4836 23.4437 37.4896 23.5038 37.4782 23.5618C37.4667 23.6198 37.4383 23.6731 37.3965 23.7149C37.3547 23.7567 37.3014 23.7852 37.2434 23.7966C37.1854 23.8081 37.1253 23.802 37.0707 23.7792C37.0161 23.7564 36.9696 23.7179 36.937 23.6686C36.9043 23.6193 36.8871 23.5614 36.8875 23.5022C36.888 23.4238 36.9194 23.3487 36.9748 23.2933C37.0303 23.2378 37.1054 23.2064 37.1838 23.2059Z" fill="#121728"/>
<path d="M34.6718 19.3428C34.7032 19.3424 34.734 19.3514 34.7603 19.3686C34.7866 19.3857 34.8072 19.4104 34.8195 19.4393C34.8317 19.4682 34.8352 19.5001 34.8293 19.5309C34.8234 19.5618 34.8084 19.5902 34.7863 19.6125C34.7643 19.6349 34.736 19.6501 34.7053 19.6564C34.6745 19.6627 34.6425 19.6596 34.6135 19.6477C34.5844 19.6358 34.5596 19.6155 34.5421 19.5894C34.5246 19.5633 34.5153 19.5326 34.5153 19.5012C34.5153 19.4595 34.5317 19.4195 34.561 19.3898C34.5903 19.3602 34.6301 19.3433 34.6718 19.3428Z" fill="#121728"/>
<path d="M36.7105 25.5093C36.7807 25.5089 36.8494 25.5294 36.9079 25.5682C36.9664 25.6069 37.0121 25.6622 37.0391 25.727C37.0661 25.7918 37.0733 25.8631 37.0597 25.932C37.0461 26.0008 37.0123 26.0641 36.9627 26.1137C36.9131 26.1634 36.8498 26.1971 36.781 26.2107C36.7121 26.2243 36.6408 26.2172 36.576 26.1901C36.5112 26.1631 36.4559 26.1174 36.4172 26.0589C36.3784 26.0004 36.3579 25.9317 36.3583 25.8615C36.3583 25.7681 36.3954 25.6785 36.4614 25.6124C36.5275 25.5464 36.6171 25.5093 36.7105 25.5093Z" fill="#121728"/>
<path d="M35.9352 22.6525C35.9864 22.6525 36.0365 22.6677 36.0791 22.6961C36.1217 22.7246 36.1549 22.7651 36.1745 22.8124C36.1941 22.8597 36.1993 22.9118 36.1893 22.962C36.1793 23.0123 36.1546 23.0584 36.1184 23.0947C36.0821 23.1309 36.036 23.1556 35.9857 23.1656C35.9355 23.1756 35.8834 23.1704 35.8361 23.1508C35.7887 23.1312 35.7483 23.098 35.7198 23.0554C35.6914 23.0128 35.6762 22.9627 35.6762 22.9115C35.6759 22.8774 35.6825 22.8436 35.6954 22.8121C35.7083 22.7805 35.7274 22.7519 35.7515 22.7278C35.7756 22.7037 35.8042 22.6846 35.8358 22.6717C35.8673 22.6588 35.9011 22.6522 35.9352 22.6525Z" fill="#121728"/>
<path d="M31.4236 12.6824C31.4452 12.6824 31.4627 12.6649 31.4627 12.6433C31.4627 12.6217 31.4452 12.6041 31.4236 12.6041C31.4019 12.6041 31.3844 12.6217 31.3844 12.6433C31.3844 12.6649 31.4019 12.6824 31.4236 12.6824Z" fill="#121728"/>
<path d="M38.4175 23.983C38.484 23.9827 38.549 24.002 38.6044 24.0387C38.6598 24.0753 38.7031 24.1275 38.7288 24.1888C38.7545 24.2501 38.7614 24.3176 38.7486 24.3828C38.7359 24.448 38.7041 24.5079 38.6573 24.555C38.6104 24.6021 38.5507 24.6342 38.4855 24.6473C38.4204 24.6604 38.3529 24.6539 38.2915 24.6286C38.2301 24.6032 38.1776 24.5602 38.1406 24.505C38.1037 24.4498 38.084 24.3849 38.084 24.3185C38.0837 24.2745 38.0922 24.2309 38.1088 24.1903C38.1255 24.1496 38.15 24.1126 38.181 24.0814C38.212 24.0502 38.2489 24.0255 38.2895 24.0086C38.3301 23.9917 38.3736 23.983 38.4175 23.983Z" fill="#121728"/>
<path d="M37.523 19.7752C37.5645 19.7748 37.6051 19.7868 37.6397 19.8096C37.6743 19.8323 37.7013 19.8649 37.7174 19.9031C37.7334 19.9414 37.7377 19.9835 37.7297 20.0241C37.7217 20.0648 37.7018 20.1022 37.6725 20.1315C37.6432 20.1608 37.6058 20.1807 37.5651 20.1887C37.5245 20.1967 37.4824 20.1924 37.4441 20.1763C37.4059 20.1603 37.3734 20.1333 37.3506 20.0987C37.3278 20.0641 37.3158 20.0235 37.3162 19.982C37.3166 19.9273 37.3386 19.875 37.3773 19.8363C37.416 19.7976 37.4683 19.7756 37.523 19.7752Z" fill="#121728"/>
<path d="M35.406 29.5532C35.4797 29.5532 35.5518 29.5751 35.6131 29.616C35.6744 29.657 35.7221 29.7152 35.7504 29.7833C35.7786 29.8514 35.7859 29.9263 35.7716 29.9986C35.7572 30.0709 35.7217 30.1374 35.6696 30.1895C35.6174 30.2416 35.551 30.2771 35.4787 30.2915C35.4064 30.3059 35.3315 30.2985 35.2634 30.2703C35.1953 30.2421 35.1371 30.1943 35.0961 30.133C35.0552 30.0717 35.0333 29.9997 35.0333 29.9259C35.0333 29.8271 35.0726 29.7323 35.1425 29.6624C35.2124 29.5925 35.3072 29.5532 35.406 29.5532Z" fill="#121728"/>
<path d="M35.5532 20.8765C35.5939 20.8761 35.6338 20.8879 35.6678 20.9102C35.7018 20.9326 35.7283 20.9646 35.7441 21.0021C35.7598 21.0397 35.764 21.081 35.7562 21.121C35.7483 21.1609 35.7288 21.1976 35.7 21.2264C35.6712 21.2552 35.6345 21.2747 35.5946 21.2826C35.5546 21.2904 35.5133 21.2862 35.4757 21.2705C35.4382 21.2547 35.4062 21.2282 35.3838 21.1942C35.3614 21.1602 35.3497 21.1203 35.35 21.0796C35.35 21.0257 35.3714 20.9741 35.4095 20.936C35.4476 20.8979 35.4993 20.8765 35.5532 20.8765Z" fill="#121728"/>
<path d="M37.1466 16.5642C37.1731 16.5642 37.1991 16.5721 37.2211 16.5868C37.2432 16.6016 37.2604 16.6225 37.2705 16.647C37.2807 16.6716 37.2834 16.6985 37.2782 16.7246C37.273 16.7506 37.2602 16.7745 37.2415 16.7933C37.2227 16.812 37.1988 16.8248 37.1728 16.83C37.1467 16.8352 37.1198 16.8325 37.0952 16.8223C37.0707 16.8122 37.0498 16.795 37.035 16.7729C37.0203 16.7509 37.0124 16.7249 37.0124 16.6984C37.0124 16.6808 37.0159 16.6633 37.0226 16.647C37.0294 16.6308 37.0393 16.616 37.0517 16.6035C37.0642 16.591 37.079 16.5812 37.0952 16.5744C37.1115 16.5677 37.129 16.5642 37.1466 16.5642Z" fill="#121728"/>
<path d="M38.0411 27.8816C38.1148 27.8816 38.1869 27.9035 38.2482 27.9444C38.3095 27.9854 38.3572 28.0436 38.3854 28.1117C38.4137 28.1798 38.421 28.2547 38.4067 28.327C38.3923 28.3993 38.3568 28.4657 38.3047 28.5179C38.2525 28.57 38.1861 28.6055 38.1138 28.6199C38.0415 28.6342 37.9666 28.6269 37.8985 28.5986C37.8304 28.5704 37.7722 28.5227 37.7312 28.4614C37.6903 28.4001 37.6684 28.328 37.6684 28.2543C37.6684 28.1555 37.7077 28.0607 37.7776 27.9908C37.8475 27.9209 37.9423 27.8816 38.0411 27.8816Z" fill="#121728"/>
<path d="M38.1883 18.1259C38.285 18.1259 38.3634 18.0474 38.3634 17.9507C38.3634 17.8539 38.285 17.7755 38.1883 17.7755C38.0915 17.7755 38.0131 17.8539 38.0131 17.9507C38.0131 18.0474 38.0915 18.1259 38.1883 18.1259Z" fill="#121728"/>
<path d="M21.2672 25.2056C21.4565 25.2056 21.6101 25.052 21.6101 24.8627C21.6101 24.6733 21.4565 24.5198 21.2672 24.5198C21.0778 24.5198 20.9243 24.6733 20.9243 24.8627C20.9243 25.052 21.0778 25.2056 21.2672 25.2056Z" fill="#121728"/>
<path d="M21.1666 26.7783C21.2403 26.7783 21.3124 26.8002 21.3736 26.8411C21.4349 26.8821 21.4827 26.9403 21.5109 27.0084C21.5391 27.0765 21.5465 27.1514 21.5321 27.2237C21.5177 27.296 21.4822 27.3625 21.4301 27.4146C21.378 27.4667 21.3116 27.5022 21.2393 27.5166C21.167 27.531 21.0921 27.5236 21.0239 27.4954C20.9558 27.4672 20.8976 27.4194 20.8567 27.3581C20.8157 27.2968 20.7939 27.2247 20.7939 27.151C20.7939 27.0522 20.8331 26.9574 20.903 26.8875C20.9729 26.8176 21.0677 26.7783 21.1666 26.7783Z" fill="#121728"/>
<path d="M21.2932 28.1444C21.367 28.1444 21.439 28.1663 21.5003 28.2072C21.5616 28.2482 21.6094 28.3064 21.6376 28.3745C21.6658 28.4426 21.6732 28.5175 21.6588 28.5898C21.6444 28.6621 21.6089 28.7285 21.5568 28.7807C21.5047 28.8328 21.4383 28.8683 21.366 28.8827C21.2937 28.897 21.2187 28.8897 21.1506 28.8615C21.0825 28.8332 21.0243 28.7855 20.9833 28.7242C20.9424 28.6629 20.9205 28.5908 20.9205 28.5171C20.9205 28.4183 20.9598 28.3235 21.0297 28.2536C21.0996 28.1837 21.1944 28.1444 21.2932 28.1444Z" fill="#121728"/>
<path d="M25.7509 33.9196C25.7105 33.9198 25.6706 33.9095 25.6354 33.8897L21.6231 31.5733C21.5875 31.5527 21.5578 31.5231 21.5372 31.4875C21.5166 31.4518 21.5058 31.4114 21.5057 31.3702V10.6082C21.5059 10.5673 21.5168 10.5272 21.5374 10.4919C21.5581 10.4566 21.5876 10.4273 21.6231 10.407C21.6587 10.3869 21.6988 10.3763 21.7396 10.3763C21.7804 10.3763 21.8205 10.3869 21.8561 10.407L28.209 14.0745C30.9894 15.6809 33.0542 17.5034 34.3196 19.49C35.5849 21.4766 36.2484 23.8116 36.2484 26.4094C36.2484 28.7799 35.6893 30.3043 34.5842 30.9416C34.4457 31.0217 34.2997 31.0878 34.1481 31.1391C33.1213 31.4876 31.6938 31.2547 29.9048 30.4496C29.3252 30.1887 28.6935 29.8626 28.0282 29.4787L25.9783 28.299V33.6866C25.9788 33.7173 25.9731 33.7479 25.9616 33.7763C25.95 33.8048 25.9329 33.8307 25.9112 33.8525C25.8894 33.8742 25.8635 33.8913 25.8351 33.9029C25.8066 33.9144 25.7761 33.9201 25.7453 33.9196H25.7509ZM21.9716 31.236L25.5124 33.2859V27.8965C25.5126 27.8556 25.5235 27.8155 25.5441 27.7802C25.5647 27.7448 25.5943 27.7155 25.6298 27.6953C25.6653 27.6752 25.7054 27.6646 25.7463 27.6646C25.7871 27.6646 25.8272 27.6752 25.8627 27.6953L28.2555 29.0762C28.8503 29.4238 29.4623 29.741 30.0893 30.0266C31.7665 30.7832 33.0803 31.0087 34.0028 30.6993C34.1248 30.6576 34.2428 30.6046 34.355 30.5409C35.3054 29.9912 35.7862 28.6028 35.7862 26.4113C35.7862 23.9048 35.1619 21.661 33.9226 19.7434C32.6834 17.8258 30.6912 16.0461 27.976 14.4789L21.9716 11.0126V31.236Z" fill="#121728"/>
<path d="M30.6129 26.4765C30.0538 26.4765 29.2954 26.2006 28.3375 25.6453L25.6353 24.0874C25.5997 24.0668 25.57 24.0372 25.5494 24.0015C25.5288 23.9659 25.518 23.9254 25.5179 23.8842V16.9015C25.5181 16.8606 25.529 16.8204 25.5497 16.7851C25.5703 16.7498 25.5998 16.7205 25.6353 16.7002C25.6709 16.6801 25.711 16.6696 25.7518 16.6696C25.7926 16.6696 25.8327 16.6801 25.8683 16.7002L28.1586 18.0196C28.869 18.4248 29.536 18.9019 30.1489 19.4434C30.5179 19.7709 30.8515 20.1363 31.144 20.5335C31.5438 21.0926 31.8271 21.7264 31.977 22.3971C32.0777 22.8479 32.1271 23.3087 32.1243 23.7706C32.1243 25.0601 31.8578 25.8783 31.308 26.2771C31.1033 26.4156 30.8599 26.4854 30.6129 26.4765ZM25.9838 23.7501L28.5704 25.2409C30.1191 26.1373 30.7694 26.0907 31.0434 25.8932C31.4571 25.5931 31.6658 24.8775 31.6658 23.765C31.6686 23.3382 31.6229 22.9124 31.5298 22.4959C31.3935 21.8869 31.1362 21.3114 30.7732 20.8038C30.4993 20.4333 30.187 20.0928 29.8414 19.7881C29.2499 19.2701 28.6067 18.8142 27.9219 18.4277L25.9801 17.3096L25.9838 23.7501Z" fill="#121728"/>
<path d="M43.1659 43.9754C43.1251 43.9759 43.0851 43.9649 43.0503 43.9437L39.0381 41.6254C39.0024 41.6053 38.9728 41.576 38.9521 41.5407C38.9315 41.5053 38.9206 41.4651 38.9207 41.4242V20.6622C38.9208 20.6213 38.9318 20.5812 38.9524 20.5458C38.973 20.5105 39.0026 20.4812 39.0381 20.4609C39.0736 20.4409 39.1137 20.4303 39.1545 20.4303C39.1954 20.4303 39.2355 20.4409 39.271 20.4609L43.2833 22.7774C43.3183 22.798 43.3474 22.8274 43.3676 22.8627C43.3879 22.898 43.3986 22.9379 43.3988 22.9786V43.7369C43.3993 43.7676 43.3936 43.7981 43.3821 43.8266C43.3706 43.8551 43.3534 43.881 43.3317 43.9027C43.31 43.9244 43.2841 43.9416 43.2556 43.9531C43.2271 43.9646 43.1966 43.9703 43.1659 43.9698V43.9754ZM39.3866 41.29L42.9273 43.3399V23.1128L39.3866 21.0629V41.29Z" fill="#121728"/>
<path d="M31.7571 22.6785C31.7104 22.6786 31.6648 22.6643 31.6266 22.6375L29.8842 21.633C29.8485 21.6124 29.8189 21.5828 29.7983 21.5472C29.7777 21.5115 29.7668 21.4711 29.7668 21.4299V19.6148C29.7668 19.553 29.7914 19.4937 29.835 19.4501C29.8787 19.4064 29.938 19.3818 29.9998 19.3818C30.0615 19.3818 30.1208 19.4064 30.1645 19.4501C30.2082 19.4937 30.2327 19.553 30.2327 19.6148V21.292L31.8745 22.2387C31.8951 22.2509 31.9139 22.266 31.9304 22.2834C31.9605 22.3171 31.9803 22.3587 31.9873 22.4034C31.9944 22.448 31.9884 22.4937 31.9701 22.535C31.9518 22.5763 31.922 22.6115 31.8842 22.6363C31.8464 22.6611 31.8023 22.6744 31.7571 22.6747V22.6785Z" fill="#121728"/>
<path d="M21.7386 20.9137C21.6889 20.9139 21.6405 20.898 21.6006 20.8685C21.5606 20.8389 21.5313 20.7973 21.5168 20.7498L15.9392 2.62287L12.2587 0.502129L8.129 2.88562C8.10251 2.90313 8.07272 2.91503 8.04146 2.9206C8.0102 2.92617 7.97813 2.92529 7.94722 2.91802C7.91631 2.91074 7.88722 2.89723 7.86172 2.8783C7.83623 2.85937 7.81488 2.83543 7.79897 2.80795C7.78307 2.78047 7.77295 2.75002 7.76924 2.71849C7.76553 2.68695 7.76831 2.65499 7.7774 2.62457C7.78649 2.59415 7.80171 2.5659 7.82211 2.54157C7.84252 2.51725 7.86768 2.49735 7.89605 2.4831L12.1431 0.0306423C12.1786 0.0105552 12.2188 0 12.2596 0C12.3004 0 12.3405 0.0105552 12.3761 0.0306423L16.2616 2.26692C16.3118 2.29678 16.3495 2.34377 16.3678 2.39924L21.9715 20.6156C21.9891 20.6746 21.9826 20.7382 21.9537 20.7926C21.9248 20.847 21.8756 20.8878 21.8169 20.9063C21.7912 20.9123 21.7649 20.9148 21.7386 20.9137Z" fill="#121728"/>
<path d="M19.6551 30.4011C19.6041 30.4007 19.5546 30.3836 19.5142 30.3523C19.4739 30.3211 19.4449 30.2774 19.4318 30.2281C19.4186 30.1788 19.4221 30.1265 19.4416 30.0793C19.4611 30.0321 19.4955 29.9926 19.5396 29.9669L21.6231 28.7631C21.6761 28.7364 21.7374 28.731 21.7943 28.748C21.8512 28.765 21.8995 28.8031 21.9292 28.8546C21.959 28.906 21.968 28.9668 21.9544 29.0246C21.9407 29.0824 21.9056 29.1328 21.856 29.1656L19.7726 30.3694C19.737 30.3905 19.6964 30.4014 19.6551 30.4011Z" fill="#121728"/>
<path d="M25.7509 33.9195C25.6998 33.9191 25.6503 33.902 25.6099 33.8707C25.5696 33.8395 25.5406 33.7958 25.5275 33.7465C25.5144 33.6971 25.5178 33.6448 25.5373 33.5977C25.5568 33.5505 25.5912 33.511 25.6353 33.4853L29.7762 31.0999V30.2371C29.7762 30.1753 29.8007 30.1161 29.8444 30.0724C29.8881 30.0287 29.9473 30.0042 30.0091 30.0042C30.0709 30.0042 30.1301 30.0287 30.1738 30.0724C30.2175 30.1161 30.2421 30.1753 30.2421 30.2371V31.2341C30.2418 31.275 30.2311 31.3152 30.2109 31.3508C30.1906 31.3864 30.1616 31.4161 30.1265 31.4372L25.8627 33.8897C25.8283 33.9084 25.79 33.9187 25.7509 33.9195Z" fill="#121728"/>
<path d="M25.7509 24.1171C25.6998 24.1168 25.6503 24.0996 25.6099 24.0684C25.5696 24.0371 25.5406 23.9934 25.5275 23.9441C25.5144 23.8948 25.5178 23.8425 25.5373 23.7953C25.5568 23.7481 25.5912 23.7086 25.6353 23.6829L29.8843 21.2305C29.9379 21.1996 30.0016 21.1913 30.0613 21.2074C30.1211 21.2234 30.172 21.2626 30.2029 21.3162C30.2338 21.3698 30.2421 21.4335 30.2261 21.4933C30.21 21.5531 30.1708 21.604 30.1172 21.6349L25.8627 24.0873C25.8283 24.1061 25.79 24.1163 25.7509 24.1171Z" fill="#121728"/>
<path d="M34.4668 30.9733C34.4157 30.9729 34.3662 30.9557 34.3258 30.9245C34.2855 30.8932 34.2565 30.8496 34.2434 30.8002C34.2302 30.7509 34.2337 30.6986 34.2532 30.6514C34.2727 30.6042 34.3071 30.5647 34.3512 30.539L38.5983 28.0829C38.7408 27.9997 38.8723 27.8989 38.9896 27.7828C39.0114 27.7613 39.0372 27.7443 39.0656 27.7327C39.0939 27.7211 39.1243 27.7153 39.1549 27.7155C39.1856 27.7156 39.2159 27.7218 39.2441 27.7337C39.2723 27.7456 39.2979 27.7629 39.3195 27.7847C39.341 27.8065 39.358 27.8323 39.3696 27.8607C39.3812 27.889 39.387 27.9194 39.3869 27.95C39.3867 27.9806 39.3805 28.0109 39.3686 28.0392C39.3567 28.0674 39.3394 28.093 39.3176 28.1145C39.1722 28.2584 39.0094 28.3836 38.8331 28.4873L34.5842 30.9397C34.5489 30.9617 34.5083 30.9733 34.4668 30.9733Z" fill="#121728"/>
<path d="M39.7798 20.5336C39.7292 20.5335 39.6799 20.5169 39.6396 20.4863C39.5992 20.4557 39.57 20.4128 39.5562 20.364C39.2521 19.2761 38.7873 18.2397 38.1771 17.2892C36.9416 15.366 34.9383 13.5937 32.2249 12.0246L25.9857 8.42605L21.856 10.8095C21.8296 10.827 21.7998 10.8389 21.7685 10.8445C21.7372 10.8501 21.7052 10.8492 21.6743 10.8419C21.6434 10.8347 21.6143 10.8211 21.5888 10.8022C21.5633 10.7833 21.5419 10.7593 21.526 10.7319C21.5101 10.7044 21.5 10.6739 21.4963 10.6424C21.4926 10.6109 21.4954 10.5789 21.5044 10.5485C21.5135 10.5181 21.5288 10.4898 21.5492 10.4655C21.5696 10.4412 21.5947 10.4213 21.6231 10.407L25.8627 7.95642C25.8982 7.93634 25.9384 7.92578 25.9792 7.92578C26.02 7.92578 26.0601 7.93634 26.0957 7.95642L32.4504 11.6239C35.229 13.2303 37.2864 15.0529 38.561 17.0394C39.1957 18.029 39.6799 19.1073 39.9978 20.2392C40.014 20.299 40.006 20.3627 39.9757 20.4167C39.9454 20.4707 39.8952 20.5107 39.8357 20.528C39.8174 20.532 39.7986 20.5339 39.7798 20.5336Z" fill="#121728"/>
<path d="M43.1659 43.9753C43.1149 43.9749 43.0653 43.9578 43.025 43.9265C42.9846 43.8953 42.9557 43.8516 42.9425 43.8023C42.9294 43.7529 42.9328 43.7007 42.9523 43.6535C42.9718 43.6063 43.0063 43.5668 43.0504 43.5411L47.1819 41.1558V20.6566L43.4007 18.4762L39.2804 20.8634C39.2539 20.8809 39.2241 20.8928 39.1928 20.8984C39.1616 20.904 39.1295 20.9031 39.0986 20.8958C39.0677 20.8885 39.0386 20.875 39.0131 20.8561C38.9876 20.8371 38.9663 20.8132 38.9504 20.7857C38.9344 20.7582 38.9243 20.7278 38.9206 20.6963C38.9169 20.6647 38.9197 20.6328 38.9288 20.6023C38.9379 20.5719 38.9531 20.5437 38.9735 20.5194C38.9939 20.495 39.0191 20.4751 39.0474 20.4609L43.2945 18.0084C43.33 17.9883 43.3701 17.9778 43.411 17.9778C43.4518 17.9778 43.4919 17.9883 43.5274 18.0084L47.5415 20.3248C47.5766 20.3455 47.6057 20.3749 47.6259 20.4102C47.6462 20.4455 47.6569 20.4854 47.6571 20.5261V41.2899C47.6569 41.3308 47.6461 41.371 47.6259 41.4066C47.6057 41.4422 47.5766 41.472 47.5415 41.4931L43.2926 43.9455C43.2539 43.9667 43.2101 43.977 43.1659 43.9753Z" fill="#121728"/>
<path d="M43.1659 23.2115C43.1149 23.2111 43.0653 23.194 43.025 23.1627C42.9846 23.1315 42.9557 23.0878 42.9425 23.0385C42.9294 22.9892 42.9328 22.9369 42.9523 22.8897C42.9718 22.8425 43.0063 22.803 43.0504 22.7773L47.2937 20.3249C47.3201 20.3096 47.3493 20.2996 47.3795 20.2957C47.4098 20.2917 47.4405 20.2938 47.47 20.3017C47.4994 20.3097 47.527 20.3234 47.5511 20.3421C47.5752 20.3608 47.5954 20.3841 47.6105 20.4106C47.6412 20.4641 47.6495 20.5275 47.6339 20.5871C47.6182 20.6467 47.5797 20.6978 47.5266 20.7293L43.2777 23.1817C43.2434 23.2005 43.205 23.2107 43.1659 23.2115Z" fill="#121728"/>
<path d="M25.7509 33.9196C25.7105 33.9198 25.6706 33.9095 25.6354 33.8897L21.6231 31.5733C21.5875 31.5527 21.5578 31.5231 21.5372 31.4875C21.5166 31.4518 21.5058 31.4114 21.5057 31.3702V10.6082C21.5059 10.5673 21.5168 10.5272 21.5374 10.4919C21.5581 10.4566 21.5876 10.4273 21.6231 10.407C21.6587 10.3869 21.6988 10.3763 21.7396 10.3763C21.7804 10.3763 21.8205 10.3869 21.8561 10.407L28.209 14.0745C30.9894 15.6809 33.0542 17.5034 34.3196 19.49C35.5849 21.4766 36.2484 23.8116 36.2484 26.4094C36.2484 28.7799 35.6893 30.3043 34.5842 30.9416C34.4457 31.0217 34.2997 31.0878 34.1481 31.1391C33.1213 31.4876 31.6938 31.2547 29.9048 30.4496C29.3252 30.1887 28.6935 29.8626 28.0282 29.4787L25.9783 28.299V33.6866C25.9788 33.7173 25.9731 33.7479 25.9616 33.7763C25.95 33.8048 25.9329 33.8307 25.9112 33.8525C25.8894 33.8742 25.8635 33.8913 25.8351 33.9029C25.8066 33.9144 25.7761 33.9201 25.7453 33.9196H25.7509ZM21.9716 31.236L25.5124 33.2859V27.8965C25.5126 27.8556 25.5235 27.8155 25.5441 27.7802C25.5647 27.7448 25.5943 27.7155 25.6298 27.6953C25.6653 27.6752 25.7054 27.6646 25.7463 27.6646C25.7871 27.6646 25.8272 27.6752 25.8627 27.6953L28.2555 29.0762C28.8503 29.4238 29.4623 29.741 30.0893 30.0266C31.7665 30.7832 33.0803 31.0087 34.0028 30.6993C34.1248 30.6576 34.2428 30.6046 34.355 30.5409C35.3054 29.9912 35.7862 28.6028 35.7862 26.4113C35.7862 23.9048 35.1619 21.661 33.9226 19.7434C32.6834 17.8258 30.6912 16.0461 27.976 14.4789L21.9716 11.0126V31.236Z" fill="#121728"/>
<path d="M30.6129 26.4765C30.0538 26.4765 29.2954 26.2006 28.3375 25.6453L25.6353 24.0874C25.5997 24.0668 25.57 24.0372 25.5494 24.0015C25.5288 23.9659 25.518 23.9254 25.5179 23.8842V16.9015C25.5181 16.8606 25.529 16.8204 25.5497 16.7851C25.5703 16.7498 25.5998 16.7205 25.6353 16.7002C25.6709 16.6801 25.711 16.6696 25.7518 16.6696C25.7926 16.6696 25.8327 16.6801 25.8683 16.7002L28.1586 18.0196C28.869 18.4248 29.536 18.9019 30.1489 19.4434C30.5179 19.7709 30.8515 20.1363 31.144 20.5335C31.5438 21.0926 31.8271 21.7264 31.977 22.3971C32.0777 22.8479 32.1271 23.3087 32.1243 23.7706C32.1243 25.0601 31.8578 25.8783 31.308 26.2771C31.1033 26.4156 30.8599 26.4854 30.6129 26.4765ZM25.9838 23.7501L28.5704 25.2409C30.1191 26.1373 30.7694 26.0907 31.0434 25.8932C31.4571 25.5931 31.6658 24.8775 31.6658 23.765C31.6686 23.3382 31.6229 22.9124 31.5298 22.4959C31.3935 21.8869 31.1362 21.3114 30.7732 20.8038C30.4993 20.4333 30.187 20.0928 29.8414 19.7881C29.2499 19.2701 28.6067 18.8142 27.9219 18.4277L25.9801 17.3096L25.9838 23.7501Z" fill="#121728"/>
<path d="M43.1659 43.9754C43.1251 43.9759 43.0851 43.9649 43.0503 43.9437L39.0381 41.6254C39.0024 41.6053 38.9728 41.576 38.9521 41.5407C38.9315 41.5053 38.9206 41.4651 38.9207 41.4242V20.6622C38.9208 20.6213 38.9318 20.5812 38.9524 20.5458C38.973 20.5105 39.0026 20.4812 39.0381 20.4609C39.0736 20.4409 39.1137 20.4303 39.1545 20.4303C39.1954 20.4303 39.2355 20.4409 39.271 20.4609L43.2833 22.7774C43.3183 22.798 43.3474 22.8274 43.3676 22.8627C43.3879 22.898 43.3986 22.9379 43.3988 22.9786V43.7369C43.3993 43.7676 43.3936 43.7981 43.3821 43.8266C43.3706 43.8551 43.3534 43.881 43.3317 43.9027C43.31 43.9244 43.2841 43.9416 43.2556 43.9531C43.2271 43.9646 43.1966 43.9703 43.1659 43.9698V43.9754ZM39.3866 41.29L42.9273 43.3399V23.1128L39.3866 21.0629V41.29Z" fill="#121728"/>
<path d="M31.7571 22.6785C31.7104 22.6786 31.6648 22.6643 31.6266 22.6375L29.8842 21.633C29.8485 21.6124 29.8189 21.5828 29.7983 21.5472C29.7777 21.5115 29.7668 21.4711 29.7668 21.4299V19.6148C29.7668 19.553 29.7914 19.4937 29.835 19.4501C29.8787 19.4064 29.938 19.3818 29.9998 19.3818C30.0615 19.3818 30.1208 19.4064 30.1645 19.4501C30.2082 19.4937 30.2327 19.553 30.2327 19.6148V21.292L31.8745 22.2387C31.8951 22.2509 31.9139 22.266 31.9304 22.2834C31.9605 22.3171 31.9803 22.3587 31.9873 22.4034C31.9944 22.448 31.9884 22.4937 31.9701 22.535C31.9518 22.5763 31.922 22.6115 31.8842 22.6363C31.8464 22.6611 31.8023 22.6744 31.7571 22.6747V22.6785Z" fill="#121728"/>
<path d="M21.7386 20.9137C21.6889 20.9139 21.6405 20.898 21.6006 20.8685C21.5606 20.8389 21.5313 20.7973 21.5168 20.7498L15.9392 2.62287L12.2587 0.502129L8.129 2.88562C8.10251 2.90313 8.07272 2.91503 8.04146 2.9206C8.0102 2.92617 7.97813 2.92529 7.94722 2.91802C7.91631 2.91074 7.88722 2.89723 7.86172 2.8783C7.83623 2.85937 7.81488 2.83543 7.79897 2.80795C7.78307 2.78047 7.77295 2.75002 7.76924 2.71849C7.76553 2.68695 7.76831 2.65499 7.7774 2.62457C7.78649 2.59415 7.80171 2.5659 7.82211 2.54157C7.84252 2.51725 7.86768 2.49735 7.89605 2.4831L12.1431 0.0306423C12.1786 0.0105552 12.2188 0 12.2596 0C12.3004 0 12.3405 0.0105552 12.3761 0.0306423L16.2616 2.26692C16.3118 2.29678 16.3495 2.34377 16.3678 2.39924L21.9715 20.6156C21.9891 20.6746 21.9826 20.7382 21.9537 20.7926C21.9248 20.847 21.8756 20.8878 21.8169 20.9063C21.7912 20.9123 21.7649 20.9148 21.7386 20.9137Z" fill="#121728"/>
<path d="M19.6551 30.4011C19.6041 30.4007 19.5546 30.3836 19.5142 30.3523C19.4739 30.3211 19.4449 30.2774 19.4318 30.2281C19.4186 30.1788 19.4221 30.1265 19.4416 30.0793C19.4611 30.0321 19.4955 29.9926 19.5396 29.9669L21.6231 28.7631C21.6761 28.7364 21.7374 28.731 21.7943 28.748C21.8512 28.765 21.8995 28.8031 21.9292 28.8546C21.959 28.906 21.968 28.9668 21.9544 29.0246C21.9407 29.0824 21.9056 29.1328 21.856 29.1656L19.7726 30.3694C19.737 30.3905 19.6964 30.4014 19.6551 30.4011Z" fill="#121728"/>
<path d="M25.7509 33.9195C25.6998 33.9191 25.6503 33.902 25.6099 33.8707C25.5696 33.8395 25.5406 33.7958 25.5275 33.7465C25.5144 33.6971 25.5178 33.6448 25.5373 33.5977C25.5568 33.5505 25.5912 33.511 25.6353 33.4853L29.7762 31.0999V30.2371C29.7762 30.1753 29.8007 30.1161 29.8444 30.0724C29.8881 30.0287 29.9473 30.0042 30.0091 30.0042C30.0709 30.0042 30.1301 30.0287 30.1738 30.0724C30.2175 30.1161 30.2421 30.1753 30.2421 30.2371V31.2341C30.2418 31.275 30.2311 31.3152 30.2109 31.3508C30.1906 31.3864 30.1616 31.4161 30.1265 31.4372L25.8627 33.8897C25.8283 33.9084 25.79 33.9187 25.7509 33.9195Z" fill="#121728"/>
<path d="M25.7509 24.1171C25.6998 24.1168 25.6503 24.0996 25.6099 24.0684C25.5696 24.0371 25.5406 23.9934 25.5275 23.9441C25.5144 23.8948 25.5178 23.8425 25.5373 23.7953C25.5568 23.7481 25.5912 23.7086 25.6353 23.6829L29.8843 21.2305C29.9379 21.1996 30.0016 21.1913 30.0613 21.2074C30.1211 21.2234 30.172 21.2626 30.2029 21.3162C30.2338 21.3698 30.2421 21.4335 30.2261 21.4933C30.21 21.5531 30.1708 21.604 30.1172 21.6349L25.8627 24.0873C25.8283 24.1061 25.79 24.1163 25.7509 24.1171Z" fill="#121728"/>
<path d="M34.4668 30.9733C34.4157 30.9729 34.3662 30.9557 34.3258 30.9245C34.2855 30.8932 34.2565 30.8496 34.2434 30.8002C34.2302 30.7509 34.2337 30.6986 34.2532 30.6514C34.2727 30.6042 34.3071 30.5647 34.3512 30.539L38.5983 28.0829C38.7408 27.9997 38.8723 27.8989 38.9896 27.7828C39.0114 27.7613 39.0372 27.7443 39.0656 27.7327C39.0939 27.7211 39.1243 27.7153 39.1549 27.7155C39.1856 27.7156 39.2159 27.7218 39.2441 27.7337C39.2723 27.7456 39.2979 27.7629 39.3195 27.7847C39.341 27.8065 39.358 27.8323 39.3696 27.8607C39.3812 27.889 39.387 27.9194 39.3869 27.95C39.3867 27.9806 39.3805 28.0109 39.3686 28.0392C39.3567 28.0674 39.3394 28.093 39.3176 28.1145C39.1722 28.2584 39.0094 28.3836 38.8331 28.4873L34.5842 30.9397C34.5489 30.9617 34.5083 30.9733 34.4668 30.9733Z" fill="#121728"/>
<path d="M39.7798 20.5336C39.7292 20.5335 39.6799 20.5169 39.6396 20.4863C39.5992 20.4557 39.57 20.4128 39.5562 20.364C39.2521 19.2761 38.7873 18.2397 38.1771 17.2892C36.9416 15.366 34.9383 13.5937 32.2249 12.0246L25.9857 8.42605L21.856 10.8095C21.8296 10.827 21.7998 10.8389 21.7685 10.8445C21.7372 10.8501 21.7052 10.8492 21.6743 10.8419C21.6434 10.8347 21.6143 10.8211 21.5888 10.8022C21.5633 10.7833 21.5419 10.7593 21.526 10.7319C21.5101 10.7044 21.5 10.6739 21.4963 10.6424C21.4926 10.6109 21.4954 10.5789 21.5044 10.5485C21.5135 10.5181 21.5288 10.4898 21.5492 10.4655C21.5696 10.4412 21.5947 10.4213 21.6231 10.407L25.8627 7.95642C25.8982 7.93634 25.9384 7.92578 25.9792 7.92578C26.02 7.92578 26.0601 7.93634 26.0957 7.95642L32.4504 11.6239C35.229 13.2303 37.2864 15.0529 38.561 17.0394C39.1957 18.029 39.6799 19.1073 39.9978 20.2392C40.014 20.299 40.006 20.3627 39.9757 20.4167C39.9454 20.4707 39.8952 20.5107 39.8357 20.528C39.8174 20.532 39.7986 20.5339 39.7798 20.5336Z" fill="#121728"/>
<path d="M43.1659 43.9753C43.1149 43.9749 43.0653 43.9578 43.025 43.9265C42.9846 43.8953 42.9557 43.8516 42.9425 43.8023C42.9294 43.7529 42.9328 43.7007 42.9523 43.6535C42.9718 43.6063 43.0063 43.5668 43.0504 43.5411L47.1819 41.1558V20.6566L43.4007 18.4762L39.2804 20.8634C39.2539 20.8809 39.2241 20.8928 39.1928 20.8984C39.1616 20.904 39.1295 20.9031 39.0986 20.8958C39.0677 20.8885 39.0386 20.875 39.0131 20.8561C38.9876 20.8371 38.9663 20.8132 38.9504 20.7857C38.9344 20.7582 38.9243 20.7278 38.9206 20.6963C38.9169 20.6647 38.9197 20.6328 38.9288 20.6023C38.9379 20.5719 38.9531 20.5437 38.9735 20.5194C38.9939 20.495 39.0191 20.4751 39.0474 20.4609L43.2945 18.0084C43.33 17.9883 43.3701 17.9778 43.411 17.9778C43.4518 17.9778 43.4919 17.9883 43.5274 18.0084L47.5415 20.3248C47.5766 20.3455 47.6057 20.3749 47.6259 20.4102C47.6462 20.4455 47.6569 20.4854 47.6571 20.5261V41.2899C47.6569 41.3308 47.6461 41.371 47.6259 41.4066C47.6057 41.4422 47.5766 41.472 47.5415 41.4931L43.2926 43.9455C43.2539 43.9667 43.2101 43.977 43.1659 43.9753Z" fill="#121728"/>
<path d="M43.1659 23.2115C43.1149 23.2111 43.0653 23.194 43.025 23.1627C42.9846 23.1315 42.9557 23.0878 42.9425 23.0385C42.9294 22.9892 42.9328 22.9369 42.9523 22.8897C42.9718 22.8425 43.0063 22.803 43.0504 22.7773L47.2937 20.3249C47.3201 20.3096 47.3493 20.2996 47.3795 20.2957C47.4098 20.2917 47.4405 20.2938 47.47 20.3017C47.4994 20.3097 47.527 20.3234 47.5511 20.3421C47.5752 20.3608 47.5954 20.3841 47.6105 20.4106C47.6412 20.4641 47.6495 20.5275 47.6339 20.5871C47.6182 20.6467 47.5797 20.6978 47.5266 20.7293L43.2777 23.1817C43.2434 23.2005 43.205 23.2107 43.1659 23.2115Z" fill="#121728"/>
</svg>
