<svg width="167" height="410" viewBox="0 0 167 410" fill="none" xmlns="http://www.w3.org/2000/svg">
<path opacity="0.05" d="M35.1882 81.5356C70.3857 105.248 117.439 114.881 142.263 142.668C166.716 170.826 169.309 217.139 163.752 269.009C157.824 320.879 143.745 377.936 107.065 398.684C70.7561 419.802 11.8466 404.241 -39.2824 393.867C-90.4114 383.493 -133.76 377.936 -181.554 360.893C-229.349 343.85 -280.848 314.58 -276.773 279.012C-272.327 243.444 -211.935 200.837 -185.63 155.636C-159.695 110.435 -167.846 62.6401 -150.432 33.0001C-133.019 3.3601 -90.0408 -7.7549 -56.6958 5.5831C-23.3508 19.2916 -0.00933838 57.8236 35.1882 81.5356Z" fill="#005BF2"/>
</svg>
