<svg width="38" height="44" viewBox="0 0 38 44" fill="none" xmlns="http://www.w3.org/2000/svg">
<path d="M14.6848 29.2272C14.7445 30.4031 15.149 31.5353 15.8479 32.4828C16.2534 32.9949 16.7812 33.3966 17.3827 33.6511C17.9842 33.9056 18.6401 34.0045 19.29 33.9389C19.9295 33.8903 20.5581 33.7457 21.1545 33.5098C22.9925 32.8143 24.9429 31.299 26.6417 29.0704C29.403 25.4714 30.7053 21.0557 30.1933 17.8533C30.1016 17.2201 29.9118 16.6051 29.6309 16.0302C29.4863 15.7318 29.3096 15.45 29.1041 15.1897C27.7516 13.4938 25.5348 13.3133 23.1848 14.4143C21.5334 15.1926 19.8168 16.6103 18.3015 18.5873C15.7059 21.9761 14.3977 26.0989 14.6848 29.2272ZM37.3526 12.1886L37.4976 12.7598L35.3045 15.5951L35.0826 19.3213L37.0774 20.0642L35.8343 24.3645L33.2624 25.6372L31.2587 29.5705L31.9098 32.0803L29.0775 35.771L27.1182 34.9778L24.0816 37.6148L23.1405 40.9355L19.805 42.6047L19.1893 40.0654L16.28 40.4028L14.1047 43.2647L11.5357 42.2762L12.0951 40.3761V40.3584L12.5065 38.9555L10.8343 36.8601L8.25943 38.1683L7.43961 34.9127L9.6327 32.0773L9.83987 28.3452L7.85396 27.5935L9.09996 23.2932L11.6719 22.0264L13.6785 18.0901L13.0274 15.5804L15.845 11.8927L17.8161 12.677L20.8763 10.034L21.8205 6.71625L25.156 5.04702L25.7745 7.58639L28.6779 7.24899L28.7667 7.13356L30.8533 4.39294L33.4252 5.38146L32.8984 7.15724L32.4485 8.69625L34.1177 10.7917L36.6926 9.48055L36.7725 9.80019L37.3526 12.1886Z" fill="white"/>
<path d="M21.5894 37.9138C21.7065 37.9138 21.8209 37.9485 21.9183 38.0136C22.0156 38.0786 22.0915 38.1711 22.1363 38.2792C22.1811 38.3874 22.1928 38.5064 22.17 38.6212C22.1471 38.736 22.0908 38.8415 22.008 38.9243C21.9252 39.0071 21.8197 39.0635 21.7049 39.0863C21.5901 39.1091 21.4711 39.0974 21.3629 39.0526C21.2547 39.0078 21.1623 38.9319 21.0972 38.8346C21.0322 38.7373 20.9975 38.6228 20.9975 38.5057C20.9975 38.3488 21.0599 38.1982 21.1709 38.0872C21.2819 37.9762 21.4324 37.9138 21.5894 37.9138Z" fill="#121728"/>
<path d="M17.1381 39.0089C17.2429 39.0089 17.3454 39.04 17.4325 39.0982C17.5196 39.1564 17.5875 39.2392 17.6276 39.336C17.6677 39.4328 17.6782 39.5393 17.6577 39.642C17.6373 39.7448 17.5868 39.8392 17.5128 39.9133C17.4387 39.9874 17.3443 40.0378 17.2415 40.0583C17.1387 40.0787 17.0322 40.0682 16.9354 40.0281C16.8386 39.988 16.7559 39.9201 16.6977 39.833C16.6394 39.7459 16.6084 39.6435 16.6084 39.5387C16.6084 39.4691 16.6221 39.4002 16.6487 39.336C16.6753 39.2717 16.7143 39.2133 16.7635 39.1641C16.8127 39.1149 16.8711 39.0759 16.9354 39.0492C16.9997 39.0226 17.0686 39.0089 17.1381 39.0089Z" fill="#121728"/>
<path d="M14.4717 42.5722C14.7724 42.5722 15.0162 42.3284 15.0162 42.0276C15.0162 41.7268 14.7724 41.483 14.4717 41.483C14.1709 41.483 13.9271 41.7268 13.9271 42.0276C13.9271 42.3284 14.1709 42.5722 14.4717 42.5722Z" fill="#121728"/>
<path d="M22.8354 40.7462C23.1574 40.7462 23.4184 40.4851 23.4184 40.1631C23.4184 39.8411 23.1574 39.5801 22.8354 39.5801C22.5134 39.5801 22.2523 39.8411 22.2523 40.1631C22.2523 40.4851 22.5134 40.7462 22.8354 40.7462Z" fill="#121728"/>
<path d="M27.5619 28.6502C27.6374 28.6502 27.7113 28.6726 27.774 28.7145C27.8368 28.7565 27.8858 28.8161 27.9147 28.8858C27.9436 28.9556 27.9511 29.0324 27.9364 29.1064C27.9217 29.1805 27.8853 29.2485 27.8319 29.3019C27.7785 29.3553 27.7105 29.3917 27.6364 29.4064C27.5624 29.4211 27.4856 29.4136 27.4158 29.3847C27.3461 29.3558 27.2864 29.3068 27.2445 29.2441C27.2025 29.1813 27.1801 29.1075 27.1801 29.032C27.1797 28.9817 27.1893 28.9319 27.2084 28.8854C27.2274 28.8389 27.2556 28.7966 27.2911 28.7611C27.3266 28.7256 27.3689 28.6975 27.4154 28.6784C27.4619 28.6594 27.5117 28.6498 27.5619 28.6502Z" fill="#121728"/>
<path d="M32.8154 24.9832C32.8909 24.9832 32.9647 25.0055 33.0275 25.0475C33.0903 25.0895 33.1392 25.1491 33.1681 25.2188C33.197 25.2886 33.2046 25.3654 33.1898 25.4394C33.1751 25.5135 33.1387 25.5815 33.0853 25.6349C33.0319 25.6883 32.9639 25.7247 32.8899 25.7394C32.8158 25.7541 32.739 25.7466 32.6693 25.7177C32.5995 25.6888 32.5399 25.6398 32.4979 25.5771C32.456 25.5143 32.4336 25.4405 32.4336 25.3649C32.4336 25.2637 32.4738 25.1666 32.5454 25.095C32.617 25.0234 32.7141 24.9832 32.8154 24.9832Z" fill="#121728"/>
<path d="M12.394 42.2911C12.6702 42.2911 12.8942 42.0672 12.8942 41.7909C12.8942 41.5147 12.6702 41.2908 12.394 41.2908C12.1178 41.2908 11.8938 41.5147 11.8938 41.7909C11.8938 42.0672 12.1178 42.2911 12.394 42.2911Z" fill="#121728"/>
<path d="M19.8286 39.4172C19.9456 39.4172 20.0601 39.452 20.1574 39.517C20.2548 39.582 20.3306 39.6745 20.3754 39.7826C20.4202 39.8908 20.432 40.0098 20.4091 40.1246C20.3863 40.2395 20.3299 40.3449 20.2471 40.4277C20.1643 40.5105 20.0589 40.5669 19.944 40.5897C19.8292 40.6126 19.7102 40.6008 19.602 40.556C19.4939 40.5112 19.4014 40.4354 19.3364 40.338C19.2714 40.2407 19.2366 40.1262 19.2366 40.0092C19.2366 39.8522 19.299 39.7016 19.41 39.5906C19.521 39.4796 19.6716 39.4172 19.8286 39.4172Z" fill="#121728"/>
<path d="M9.08799 36.6442C9.15266 36.6511 9.21249 36.6816 9.25597 36.73C9.29945 36.7783 9.32351 36.8411 9.32351 36.9061C9.32351 36.9711 9.29945 37.0339 9.25597 37.0822C9.21249 37.1306 9.15266 37.1611 9.08799 37.168C9.05126 37.1719 9.0141 37.1681 8.97896 37.1567C8.94381 37.1453 8.91146 37.1267 8.88399 37.102C8.85652 37.0773 8.83454 37.0471 8.81951 37.0133C8.80447 36.9796 8.7967 36.9431 8.7967 36.9061C8.7967 36.8692 8.80447 36.8326 8.81951 36.7989C8.83454 36.7651 8.85652 36.7349 8.88399 36.7102C8.91146 36.6855 8.94381 36.6669 8.97896 36.6555C9.0141 36.6441 9.05126 36.6403 9.08799 36.6442Z" fill="#121728"/>
<path d="M30.2376 24.0272C30.2961 24.0272 30.3534 24.0446 30.402 24.0771C30.4507 24.1096 30.4886 24.1558 30.511 24.2099C30.5334 24.264 30.5393 24.3235 30.5279 24.3809C30.5165 24.4383 30.4883 24.4911 30.4469 24.5325C30.4055 24.5739 30.3528 24.602 30.2953 24.6135C30.2379 24.6249 30.1784 24.619 30.1243 24.5966C30.0703 24.5742 30.024 24.5363 29.9915 24.4876C29.959 24.4389 29.9416 24.3817 29.9416 24.3232C29.9416 24.2447 29.9728 24.1694 30.0283 24.1139C30.0838 24.0584 30.1591 24.0272 30.2376 24.0272Z" fill="#121728"/>
<path d="M22.0601 33.0925C22.1437 33.0931 22.2252 33.1184 22.2944 33.1653C22.3636 33.2122 22.4174 33.2785 22.449 33.3558C22.4806 33.4332 22.4885 33.5182 22.4719 33.6001C22.4552 33.682 22.4147 33.7572 22.3553 33.8161C22.296 33.875 22.2206 33.915 22.1386 33.9311C22.0566 33.9472 21.9717 33.9386 21.8945 33.9065C21.8173 33.8744 21.7514 33.8201 21.705 33.7506C21.6587 33.6811 21.6339 33.5993 21.6339 33.5158C21.6339 33.4599 21.6449 33.4047 21.6664 33.3531C21.6879 33.3016 21.7193 33.2548 21.7589 33.2154C21.7985 33.1761 21.8455 33.145 21.8972 33.1239C21.9489 33.1028 22.0043 33.0921 22.0601 33.0925Z" fill="#121728"/>
<path d="M17.4194 36.8366C17.5067 36.836 17.5923 36.8613 17.6652 36.9094C17.7381 36.9575 17.7951 37.0262 17.8289 37.1067C17.8627 37.1873 17.8719 37.276 17.8552 37.3617C17.8385 37.4475 17.7968 37.5263 17.7352 37.5883C17.6737 37.6503 17.5951 37.6926 17.5095 37.7098C17.4239 37.7271 17.335 37.7185 17.2543 37.6852C17.1735 37.652 17.1045 37.5954 17.0559 37.5228C17.0073 37.4503 16.9814 37.3649 16.9814 37.2775C16.9814 37.1611 17.0274 37.0494 17.1095 36.9668C17.1915 36.8841 17.3029 36.8373 17.4194 36.8366Z" fill="#121728"/>
<path d="M29.0803 26.4423C29.1482 26.4423 29.2146 26.4624 29.271 26.5001C29.3275 26.5378 29.3715 26.5915 29.3975 26.6542C29.4235 26.7169 29.4303 26.786 29.417 26.8526C29.4038 26.9192 29.3711 26.9803 29.3231 27.0283C29.275 27.0764 29.2139 27.1091 29.1473 27.1223C29.0807 27.1355 29.0116 27.1287 28.9489 27.1028C28.8862 27.0768 28.8326 27.0328 28.7948 26.9763C28.7571 26.9199 28.737 26.8535 28.737 26.7856C28.7377 26.6948 28.7742 26.6079 28.8384 26.5437C28.9026 26.4795 28.9895 26.443 29.0803 26.4423Z" fill="#121728"/>
<path d="M31.2911 20.8278C31.3547 20.8278 31.4157 20.853 31.4606 20.898C31.5056 20.9429 31.5309 21.0039 31.5309 21.0675C31.5309 21.1311 31.5056 21.192 31.4606 21.237C31.4157 21.282 31.3547 21.3072 31.2911 21.3072C31.2275 21.3072 31.1666 21.282 31.1216 21.237C31.0767 21.192 31.0514 21.1311 31.0514 21.0675C31.0514 21.0039 31.0767 20.9429 31.1216 20.898C31.1666 20.853 31.2275 20.8278 31.2911 20.8278Z" fill="#121728"/>
<path d="M14.3088 31.6423C14.4281 31.6423 14.5249 31.5456 14.5249 31.4263C14.5249 31.3069 14.4281 31.2102 14.3088 31.2102C14.1895 31.2102 14.0928 31.3069 14.0928 31.4263C14.0928 31.5456 14.1895 31.6423 14.3088 31.6423Z" fill="#121728"/>
<path d="M35.9436 11.9224C36.0074 11.9224 36.059 11.8707 36.059 11.807C36.059 11.7432 36.0074 11.6915 35.9436 11.6915C35.8799 11.6915 35.8282 11.7432 35.8282 11.807C35.8282 11.8707 35.8799 11.9224 35.9436 11.9224Z" fill="#121728"/>
<path d="M16.8688 18.5578C16.8901 18.5578 16.9073 18.5406 16.9073 18.5193C16.9073 18.4981 16.8901 18.4808 16.8688 18.4808C16.8476 18.4808 16.8304 18.4981 16.8304 18.5193C16.8304 18.5406 16.8476 18.5578 16.8688 18.5578Z" fill="#121728"/>
<path d="M34.6592 15.0418C34.7393 15.0418 34.8042 14.9768 34.8042 14.8967C34.8042 14.8166 34.7393 14.7517 34.6592 14.7517C34.5791 14.7517 34.5142 14.8166 34.5142 14.8967C34.5142 14.9768 34.5791 15.0418 34.6592 15.0418Z" fill="#121728"/>
<path d="M12.1245 35.8333C12.183 35.8333 12.2402 35.8506 12.2889 35.8831C12.3376 35.9156 12.3755 35.9619 12.3979 36.016C12.4203 36.07 12.4262 36.1295 12.4147 36.1869C12.4033 36.2444 12.3751 36.2971 12.3337 36.3385C12.2924 36.3799 12.2396 36.4081 12.1822 36.4195C12.1248 36.4309 12.0653 36.425 12.0112 36.4026C11.9571 36.3802 11.9109 36.3423 11.8784 36.2936C11.8459 36.245 11.8285 36.1878 11.8285 36.1292C11.8285 36.0507 11.8597 35.9754 11.9152 35.9199C11.9707 35.8644 12.046 35.8333 12.1245 35.8333Z" fill="#121728"/>
<path d="M11.4054 32.551C11.4588 32.551 11.51 32.5722 11.5477 32.61C11.5855 32.6477 11.6067 32.6989 11.6067 32.7523C11.6067 32.8057 11.5855 32.8568 11.5477 32.8946C11.51 32.9323 11.4588 32.9535 11.4054 32.9535C11.352 32.9535 11.3008 32.9323 11.2631 32.8946C11.2253 32.8568 11.2041 32.8057 11.2041 32.7523C11.2041 32.6989 11.2253 32.6477 11.2631 32.61C11.3008 32.5722 11.352 32.551 11.4054 32.551Z" fill="#121728"/>
<path d="M25.4608 32.8883C25.5562 32.8883 25.6495 32.9166 25.7288 32.9696C25.8081 33.0226 25.87 33.098 25.9065 33.1861C25.943 33.2743 25.9525 33.3713 25.9339 33.4648C25.9153 33.5584 25.8694 33.6444 25.8019 33.7118C25.7344 33.7793 25.6485 33.8253 25.5549 33.8439C25.4613 33.8625 25.3643 33.8529 25.2762 33.8164C25.188 33.7799 25.1127 33.7181 25.0597 33.6387C25.0066 33.5594 24.9783 33.4661 24.9783 33.3707C24.9783 33.2428 25.0292 33.1201 25.1196 33.0296C25.2101 32.9391 25.3328 32.8883 25.4608 32.8883Z" fill="#121728"/>
<path d="M9.92543 26.0546C9.94182 26.0546 9.95784 26.0594 9.97147 26.0685C9.9851 26.0776 9.99573 26.0906 10.002 26.1057C10.0083 26.1209 10.0099 26.1375 10.0067 26.1536C10.0035 26.1697 9.99562 26.1844 9.98403 26.196C9.97244 26.2076 9.95768 26.2155 9.9416 26.2187C9.92553 26.2219 9.90886 26.2203 9.89372 26.214C9.87858 26.2077 9.86563 26.1971 9.85653 26.1835C9.84742 26.1698 9.84256 26.1538 9.84256 26.1374C9.84256 26.1155 9.85129 26.0944 9.86683 26.0788C9.88237 26.0633 9.90345 26.0546 9.92543 26.0546Z" fill="#121728"/>
<path d="M25.3571 36.4014C25.6792 36.4014 25.9402 36.1404 25.9402 35.8184C25.9402 35.4964 25.6792 35.2354 25.3571 35.2354C25.0351 35.2354 24.7741 35.4964 24.7741 35.8184C24.7741 36.1404 25.0351 36.4014 25.3571 36.4014Z" fill="#121728"/>
<path d="M25.3155 30.7871C25.3987 30.7871 25.4799 30.8118 25.549 30.8579C25.6181 30.9041 25.672 30.9698 25.7038 31.0465C25.7356 31.1233 25.7439 31.2078 25.7277 31.2894C25.7115 31.3709 25.6715 31.4458 25.6127 31.5046C25.5539 31.5633 25.4791 31.6034 25.3975 31.6196C25.316 31.6358 25.2315 31.6275 25.1547 31.5957C25.0779 31.5638 25.0123 31.51 24.9661 31.4409C24.9199 31.3718 24.8953 31.2905 24.8953 31.2074C24.896 31.0962 24.9406 30.9897 25.0192 30.9111C25.0979 30.8324 25.2043 30.7879 25.3155 30.7871Z" fill="#121728"/>
<path d="M27.414 31.6571C27.5103 31.6565 27.6045 31.6846 27.6848 31.7377C27.7651 31.7908 27.8278 31.8666 27.8649 31.9554C27.902 32.0442 27.9118 32.142 27.8932 32.2365C27.8746 32.3309 27.8283 32.4176 27.7602 32.4857C27.6922 32.5538 27.6054 32.6 27.511 32.6187C27.4165 32.6373 27.3187 32.6275 27.2299 32.5903C27.1411 32.5532 27.0653 32.4906 27.0122 32.4103C26.9591 32.33 26.931 32.2358 26.9316 32.1395C26.9316 32.0116 26.9825 31.8889 27.0729 31.7984C27.1634 31.7079 27.2861 31.6571 27.414 31.6571Z" fill="#121728"/>
<path d="M33.0403 22.3876C33.0988 22.3876 33.156 22.4049 33.2047 22.4374C33.2534 22.47 33.2913 22.5162 33.3137 22.5703C33.3361 22.6244 33.342 22.6839 33.3306 22.7413C33.3191 22.7987 33.291 22.8514 33.2496 22.8928C33.2082 22.9342 33.1554 22.9624 33.098 22.9738C33.0406 22.9852 32.9811 22.9794 32.927 22.957C32.8729 22.9346 32.8267 22.8966 32.7942 22.848C32.7617 22.7993 32.7443 22.7421 32.7443 22.6835C32.7443 22.605 32.7755 22.5298 32.831 22.4743C32.8865 22.4188 32.9618 22.3876 33.0403 22.3876Z" fill="#121728"/>
<path d="M31.6227 17.5663C31.655 17.5663 31.6866 17.5759 31.7134 17.5939C31.7403 17.612 31.7611 17.6376 31.7734 17.6675C31.7856 17.6974 31.7886 17.7303 31.7821 17.7619C31.7756 17.7936 31.7598 17.8226 31.7367 17.8452C31.7137 17.8679 31.6844 17.8831 31.6526 17.8891C31.6208 17.895 31.588 17.8914 31.5583 17.8786C31.5286 17.8658 31.5034 17.8445 31.4859 17.8173C31.4684 17.7902 31.4593 17.7584 31.4599 17.7261C31.4607 17.6834 31.4782 17.6428 31.5086 17.6129C31.5391 17.583 31.58 17.5663 31.6227 17.5663Z" fill="#121728"/>
<path d="M14.939 36.65C15.0163 36.65 15.0918 36.6729 15.1561 36.7159C15.2203 36.7588 15.2704 36.8198 15.3 36.8912C15.3295 36.9626 15.3373 37.0411 15.3222 37.1169C15.3071 37.1927 15.2699 37.2623 15.2153 37.3169C15.1606 37.3716 15.091 37.4088 15.0152 37.4239C14.9395 37.4389 14.8609 37.4312 14.7895 37.4016C14.7181 37.3721 14.6571 37.322 14.6142 37.2577C14.5713 37.1935 14.5484 37.118 14.5484 37.0407C14.5484 36.9371 14.5895 36.8377 14.6628 36.7645C14.736 36.6912 14.8354 36.65 14.939 36.65Z" fill="#121728"/>
<path d="M30.347 29.0289C30.4642 29.0383 30.5736 29.0915 30.6534 29.1778C30.7332 29.2642 30.7775 29.3775 30.7775 29.4951C30.7775 29.6127 30.7332 29.7259 30.6534 29.8123C30.5736 29.8987 30.4642 29.9519 30.347 29.9612C30.2827 29.9664 30.218 29.9581 30.157 29.937C30.096 29.9159 30.04 29.8824 29.9926 29.8386C29.9452 29.7949 29.9074 29.7417 29.8815 29.6826C29.8556 29.6235 29.8422 29.5596 29.8422 29.4951C29.8422 29.4305 29.8556 29.3667 29.8815 29.3076C29.9074 29.2485 29.9452 29.1953 29.9926 29.1515C30.04 29.1078 30.096 29.0743 30.157 29.0532C30.218 29.0321 30.2827 29.0238 30.347 29.0289Z" fill="#121728"/>
<path d="M18.911 34.3563C18.9665 34.3516 19.0225 34.3584 19.0753 34.3764C19.128 34.3944 19.1765 34.4231 19.2176 34.4608C19.2587 34.4985 19.2915 34.5443 19.3139 34.5954C19.3364 34.6464 19.348 34.7016 19.348 34.7574C19.348 34.8131 19.3364 34.8683 19.3139 34.9193C19.2915 34.9704 19.2587 35.0162 19.2176 35.0539C19.1765 35.0916 19.128 35.1204 19.0753 35.1384C19.0225 35.1564 18.9665 35.1632 18.911 35.1584C18.8105 35.1498 18.717 35.1038 18.6489 35.0295C18.5807 34.9553 18.5429 34.8582 18.5429 34.7574C18.5429 34.6566 18.5807 34.5595 18.6489 34.4852C18.717 34.411 18.8105 34.365 18.911 34.3563Z" fill="#121728"/>
<path d="M31.5072 27.9784C31.7458 27.9784 31.9393 27.7849 31.9393 27.5462C31.9393 27.3076 31.7458 27.1141 31.5072 27.1141C31.2685 27.1141 31.0751 27.3076 31.0751 27.5462C31.0751 27.7849 31.2685 27.9784 31.5072 27.9784Z" fill="#121728"/>
<path d="M29.7343 33.4744C29.8514 33.4744 29.9658 33.5091 30.0632 33.5741C30.1605 33.6392 30.2364 33.7316 30.2812 33.8398C30.326 33.9479 30.3377 34.0669 30.3149 34.1818C30.292 34.2966 30.2357 34.4021 30.1529 34.4848C30.0701 34.5676 29.9646 34.624 29.8498 34.6468C29.735 34.6697 29.616 34.658 29.5078 34.6132C29.3996 34.5684 29.3072 34.4925 29.2421 34.3951C29.1771 34.2978 29.1424 34.1834 29.1424 34.0663C29.1424 33.9093 29.2048 33.7587 29.3158 33.6477C29.4268 33.5367 29.5773 33.4744 29.7343 33.4744Z" fill="#121728"/>
<path d="M21.0596 35.3656C21.1551 35.3656 21.2485 35.394 21.3279 35.4471C21.4073 35.5003 21.4691 35.5758 21.5056 35.6641C21.542 35.7524 21.5514 35.8496 21.5325 35.9432C21.5137 36.0369 21.4674 36.1229 21.3997 36.1902C21.3319 36.2576 21.2457 36.3033 21.1519 36.3215C21.0581 36.3398 20.961 36.3298 20.8729 36.2929C20.7848 36.2559 20.7097 36.1936 20.657 36.1139C20.6044 36.0342 20.5766 35.9406 20.5772 35.8451C20.5772 35.7819 20.5897 35.7193 20.6139 35.6609C20.6382 35.6025 20.6738 35.5496 20.7186 35.505C20.7635 35.4604 20.8167 35.4252 20.8752 35.4013C20.9337 35.3773 20.9964 35.3652 21.0596 35.3656Z" fill="#121728"/>
<path d="M27.9705 35.3656C28.2925 35.3656 28.5535 35.1045 28.5535 34.7825C28.5535 34.4605 28.2925 34.1995 27.9705 34.1995C27.6485 34.1995 27.3875 34.4605 27.3875 34.7825C27.3875 35.1045 27.6485 35.3656 27.9705 35.3656Z" fill="#121728"/>
<path d="M35.3015 23.2163C35.3772 23.2157 35.4513 23.2376 35.5144 23.2792C35.5776 23.3208 35.627 23.3802 35.6564 23.4499C35.6857 23.5197 35.6937 23.5965 35.6793 23.6708C35.6649 23.745 35.6288 23.8133 35.5755 23.867C35.5222 23.9207 35.4542 23.9574 35.3801 23.9723C35.3059 23.9873 35.229 23.9799 35.1591 23.9511C35.0891 23.9223 35.0293 23.8734 34.9873 23.8105C34.9452 23.7477 34.9227 23.6738 34.9227 23.5981C34.9223 23.5481 34.9318 23.4985 34.9507 23.4522C34.9695 23.4059 34.9974 23.3638 35.0326 23.3283C35.0678 23.2928 35.1097 23.2647 35.1559 23.2454C35.202 23.2262 35.2515 23.2163 35.3015 23.2163Z" fill="#121728"/>
<path d="M31.0336 14.6037C31.0941 14.6037 31.1431 14.5546 31.1431 14.4941C31.1431 14.4337 31.0941 14.3846 31.0336 14.3846C30.9731 14.3846 30.9241 14.4337 30.9241 14.4941C30.9241 14.5546 30.9731 14.6037 31.0336 14.6037Z" fill="#121728"/>
<path d="M31.5309 9.92749C31.5415 9.92749 31.5518 9.93061 31.5605 9.93647C31.5693 9.94232 31.5761 9.95064 31.5801 9.96038C31.5842 9.97011 31.5852 9.98082 31.5832 9.99116C31.5811 10.0015 31.576 10.011 31.5686 10.0184C31.5611 10.0259 31.5517 10.031 31.5413 10.033C31.531 10.0351 31.5203 10.034 31.5105 10.03C31.5008 10.0259 31.4925 10.0191 31.4866 10.0104C31.4808 10.0016 31.4776 9.9913 31.4776 9.98076C31.4776 9.96663 31.4833 9.95308 31.4932 9.94309C31.5032 9.9331 31.5168 9.92749 31.5309 9.92749Z" fill="#121728"/>
<path d="M13.6992 27.3006C13.7164 27.3002 13.7336 27.3033 13.7495 27.3097C13.7655 27.3161 13.78 27.3256 13.7922 27.3378C13.8044 27.35 13.814 27.3645 13.8204 27.3805C13.8268 27.3965 13.8299 27.4136 13.8294 27.4308C13.8294 27.4653 13.8157 27.4985 13.7913 27.5229C13.7669 27.5473 13.7338 27.561 13.6992 27.561C13.6647 27.561 13.6316 27.5473 13.6071 27.5229C13.5827 27.4985 13.569 27.4653 13.569 27.4308C13.569 27.3963 13.5827 27.3631 13.6071 27.3387C13.6316 27.3143 13.6647 27.3006 13.6992 27.3006Z" fill="#121728"/>
<path d="M9.25972 34.5369C9.37741 34.5369 9.47282 34.4415 9.47282 34.3238C9.47282 34.2061 9.37741 34.1107 9.25972 34.1107C9.14204 34.1107 9.04663 34.2061 9.04663 34.3238C9.04663 34.4415 9.14204 34.5369 9.25972 34.5369Z" fill="#121728"/>
<path d="M11.0798 29.9553C11.1599 29.9553 11.2249 29.8904 11.2249 29.8103C11.2249 29.7302 11.1599 29.6653 11.0798 29.6653C10.9997 29.6653 10.9348 29.7302 10.9348 29.8103C10.9348 29.8904 10.9997 29.9553 11.0798 29.9553Z" fill="#121728"/>
<path d="M15.3268 39.9247C15.3686 39.6682 15.1945 39.4264 14.9379 39.3846C14.6814 39.3429 14.4396 39.517 14.3979 39.7736C14.3562 40.0301 14.5303 40.2719 14.7868 40.3136C15.0433 40.3553 15.2851 40.1812 15.3268 39.9247Z" fill="#121728"/>
<path d="M34.0733 18.7532C34.1167 18.7532 34.159 18.766 34.195 18.7901C34.231 18.8142 34.2591 18.8484 34.2757 18.8884C34.2923 18.9284 34.2966 18.9724 34.2882 19.0149C34.2797 19.0574 34.2588 19.0964 34.2282 19.1271C34.1976 19.1577 34.1586 19.1785 34.1161 19.187C34.0736 19.1954 34.0296 19.1911 33.9895 19.1745C33.9495 19.158 33.9153 19.1299 33.8912 19.0939C33.8672 19.0578 33.8543 19.0155 33.8543 18.9722C33.8543 18.9141 33.8774 18.8584 33.9185 18.8173C33.9596 18.7763 34.0153 18.7532 34.0733 18.7532Z" fill="#121728"/>
<path d="M12.9119 38.3815C12.9935 38.3809 13.0735 38.4046 13.1416 38.4496C13.2097 38.4946 13.2629 38.5588 13.2944 38.6341C13.3259 38.7094 13.3343 38.7923 13.3185 38.8724C13.3027 38.9525 13.2635 39.026 13.2058 39.0838C13.1481 39.1415 13.0745 39.1807 12.9944 39.1965C12.9143 39.2123 12.8314 39.2039 12.7561 39.1724C12.6808 39.1409 12.6166 39.0877 12.5716 39.0196C12.5266 38.9515 12.5029 38.8715 12.5035 38.7899C12.5035 38.6816 12.5465 38.5777 12.6231 38.5011C12.6997 38.4245 12.8036 38.3815 12.9119 38.3815Z" fill="#121728"/>
<path d="M14.0986 34.4629C14.2587 34.4629 14.3886 34.333 14.3886 34.1729C14.3886 34.0127 14.2587 33.8828 14.0986 33.8828C13.9384 33.8828 13.8085 34.0127 13.8085 34.1729C13.8085 34.333 13.9384 34.4629 14.0986 34.4629Z" fill="#121728"/>
<path d="M25.8839 12.6238C25.8952 12.6238 25.906 12.628 25.9143 12.6357C25.9225 12.6434 25.9275 12.654 25.9283 12.6652C25.9283 12.677 25.9236 12.6883 25.9153 12.6966C25.9069 12.7049 25.8957 12.7096 25.8839 12.7096C25.8726 12.7089 25.8621 12.7038 25.8544 12.6956C25.8467 12.6874 25.8424 12.6765 25.8424 12.6652C25.8424 12.6542 25.8468 12.6437 25.8546 12.6359C25.8624 12.6281 25.8729 12.6238 25.8839 12.6238Z" fill="#121728"/>
<path d="M23.3298 37.9878C23.6518 37.9878 23.9128 37.7267 23.9128 37.4047C23.9128 37.0827 23.6518 36.8217 23.3298 36.8217C23.0078 36.8217 22.7467 37.0827 22.7467 37.4047C22.7467 37.7267 23.0078 37.9878 23.3298 37.9878Z" fill="#121728"/>
<path d="M19.5207 37.1414C19.6232 37.1414 19.7233 37.1717 19.8085 37.2287C19.8937 37.2856 19.96 37.3665 19.9993 37.4611C20.0385 37.5557 20.0487 37.6599 20.0287 37.7603C20.0087 37.8608 19.9594 37.9531 19.887 38.0255C19.8145 38.098 19.7223 38.1473 19.6218 38.1673C19.5213 38.1873 19.4172 38.177 19.3225 38.1378C19.2279 38.0986 19.147 38.0322 19.0901 37.9471C19.0332 37.8619 19.0028 37.7617 19.0028 37.6593C19.0024 37.5912 19.0155 37.5236 19.0414 37.4606C19.0673 37.3976 19.1054 37.3404 19.1536 37.2922C19.2018 37.244 19.2591 37.2059 19.3221 37.18C19.3851 37.1541 19.4526 37.141 19.5207 37.1414Z" fill="#121728"/>
<path d="M29.2076 30.9351C29.3065 30.9351 29.4032 30.9644 29.4855 31.0194C29.5677 31.0743 29.6318 31.1524 29.6697 31.2438C29.7075 31.3352 29.7174 31.4358 29.6981 31.5328C29.6788 31.6298 29.6312 31.719 29.5612 31.7889C29.4913 31.8589 29.4022 31.9065 29.3051 31.9258C29.2081 31.9451 29.1075 31.9352 29.0162 31.8973C28.9248 31.8595 28.8466 31.7954 28.7917 31.7131C28.7367 31.6309 28.7074 31.5342 28.7074 31.4352C28.7074 31.3026 28.7601 31.1754 28.8539 31.0816C28.9477 30.9878 29.0749 30.9351 29.2076 30.9351Z" fill="#121728"/>
<path d="M21.2973 41.8785C21.349 41.5607 21.1332 41.2611 20.8154 41.2094C20.4976 41.1577 20.198 41.3734 20.1463 41.6912C20.0946 42.0091 20.3103 42.3086 20.6282 42.3603C20.946 42.412 21.2456 42.1963 21.2973 41.8785Z" fill="#121728"/>
<path d="M35.9261 20.6355C35.9846 20.6355 36.0418 20.6529 36.0905 20.6854C36.1392 20.7179 36.1771 20.7641 36.1995 20.8182C36.2219 20.8723 36.2278 20.9318 36.2163 20.9892C36.2049 21.0466 36.1767 21.0993 36.1353 21.1407C36.0939 21.1821 36.0412 21.2103 35.9838 21.2217C35.9264 21.2332 35.8669 21.2273 35.8128 21.2049C35.7587 21.1825 35.7125 21.1446 35.68 21.0959C35.6475 21.0472 35.6301 20.99 35.6301 20.9315C35.6301 20.853 35.6613 20.7777 35.7168 20.7222C35.7723 20.6667 35.8476 20.6355 35.9261 20.6355Z" fill="#121728"/>
<path d="M13.4299 23.2014C13.4392 23.2014 13.4484 23.2033 13.457 23.2068C13.4657 23.2104 13.4735 23.2156 13.4801 23.2222C13.4867 23.2288 13.4919 23.2366 13.4955 23.2453C13.4991 23.2539 13.5009 23.2631 13.5009 23.2724C13.5009 23.2913 13.4934 23.3094 13.4801 23.3227C13.4668 23.336 13.4487 23.3435 13.4299 23.3435C13.411 23.3435 13.393 23.336 13.3796 23.3227C13.3663 23.3094 13.3588 23.2913 13.3588 23.2724C13.3588 23.2631 13.3607 23.2539 13.3642 23.2453C13.3678 23.2366 13.373 23.2288 13.3796 23.2222C13.3862 23.2156 13.3941 23.2104 13.4027 23.2068C13.4113 23.2033 13.4205 23.2014 13.4299 23.2014Z" fill="#121728"/>
<path d="M16.4931 34.167C16.5593 34.167 16.6239 34.1866 16.6789 34.2234C16.7339 34.2601 16.7768 34.3123 16.8021 34.3734C16.8274 34.4346 16.834 34.5018 16.8211 34.5667C16.8082 34.6316 16.7764 34.6911 16.7296 34.7379C16.6828 34.7847 16.6232 34.8165 16.5584 34.8294C16.4935 34.8423 16.4262 34.8357 16.3651 34.8104C16.304 34.7851 16.2518 34.7422 16.215 34.6872C16.1783 34.6322 16.1587 34.5676 16.1587 34.5014C16.1587 34.4127 16.1939 34.3277 16.2566 34.2649C16.3194 34.2022 16.4044 34.167 16.4931 34.167Z" fill="#121728"/>
<path d="M31.8494 32.0598C31.9011 31.7419 31.6854 31.4424 31.3675 31.3907C31.0497 31.3389 30.7501 31.5547 30.6984 31.8725C30.6467 32.1903 30.8624 32.4899 31.1803 32.5416C31.4981 32.5933 31.7977 32.3776 31.8494 32.0598Z" fill="#121728"/>
<path d="M24.0384 34.9202C24.0833 34.6443 23.896 34.3843 23.6201 34.3394C23.3443 34.2945 23.0842 34.4818 23.0394 34.7577C22.9945 35.0336 23.1817 35.2936 23.4576 35.3385C23.7335 35.3833 23.9935 35.1961 24.0384 34.9202Z" fill="#121728"/>
<path d="M36.6777 9.48652L34.1028 10.7976L32.4336 8.70222L32.8834 7.16321L36.6777 9.48652Z" fill="#121728"/>
<path d="M33.4103 5.37861L30.8383 4.39009L28.7518 7.13071V7.13367L28.663 7.2491L25.7596 7.58649L25.141 5.04713L21.699 3.09378L23.7678 0.376831L26.3338 1.36535L33.4103 5.37861Z" fill="#005BF2"/>
<path d="M30.1871 17.8535C30.705 21.0558 29.4028 25.4716 26.6356 29.0705C24.9367 31.2872 22.9863 32.8026 21.1484 33.5099C20.552 33.7458 19.9234 33.8905 19.2838 33.9391C18.6334 34.0028 17.9775 33.9017 17.3764 33.6452C16.7754 33.3886 16.2486 32.9848 15.8447 32.4711C15.1458 31.5236 14.7413 30.3914 14.6816 29.2155C16.336 28.4371 18.0526 27.0254 19.5679 25.0454C22.1635 21.6566 23.4717 17.5427 23.1817 14.4055C25.5257 13.3045 27.7425 13.4851 29.1009 15.1809C29.3065 15.4412 29.4831 15.723 29.6277 16.0215C29.9085 16.5993 30.0972 17.2174 30.1871 17.8535Z" fill="#121728"/>
<path d="M21.6991 3.09372L25.1412 5.04707L21.8057 6.71631L14.7292 2.70305L18.0676 1.03381L21.6991 3.09372Z" fill="white"/>
<path d="M21.8055 6.71639L20.8614 10.0341L17.8248 12.6741L15.8537 11.8898L8.78014 7.87952L10.7542 8.66087L13.7908 6.02383L14.729 2.70312L21.8055 6.71639Z" fill="#FAD657"/>
<path d="M15.8536 11.8897L13.0242 15.5804L5.9507 11.5701L8.7801 7.87939L15.8536 11.8897Z" fill="white"/>
<path d="M13.0244 15.5804L13.6755 18.0901L11.6689 22.0264L9.09697 23.2932L2.02049 19.2829L4.59536 18.0161L6.60199 14.0769L5.95088 11.5701L13.0244 15.5804Z" fill="#005BF2"/>
<path d="M10.8403 36.8631L12.5124 38.9585L12.1011 40.3614L12.0922 40.3792V40.3821L11.5358 42.2822L4.46225 38.2689L5.02162 36.3689L5.01867 36.3659L5.02458 36.3481L5.02754 36.3363L8.26538 38.1713L10.8403 36.8631Z" fill="#121728"/>
<path d="M9.8456 28.3365L9.63842 32.0685L7.44533 34.9039L0.371815 30.8906L2.5649 28.0553L2.75136 24.702L7.8508 27.5936L9.8456 28.3365Z" fill="#005BF2"/>
<path d="M9.09677 23.2933L7.85075 27.5936L2.75131 24.702L0.777237 23.5863L2.02029 19.283L9.09677 23.2933Z" fill="white"/>
<path d="M7.44533 34.9039L8.26516 38.1713L5.02732 36.3363L1.19163 34.161L0.371815 30.8906L7.44533 34.9039Z" fill="white"/>
<path d="M14.1047 43.6406C14.0593 43.64 14.0143 43.632 13.9715 43.6169L11.4055 42.6255C11.3188 42.5921 11.2478 42.5273 11.2066 42.4439C11.1655 42.3605 11.1572 42.2648 11.1835 42.1756L11.737 40.2962C11.7405 40.2781 11.7455 40.2603 11.7518 40.243L12.104 39.0384L10.7425 37.3277L8.43403 38.5116C8.3842 38.5357 8.32957 38.5482 8.27421 38.5482C8.21886 38.5482 8.16422 38.5357 8.11439 38.5116C8.06353 38.4894 8.01856 38.4557 7.9831 38.413C7.94764 38.3704 7.92266 38.32 7.91017 38.2659L7.09036 35.0103C7.07694 34.9558 7.0761 34.899 7.08789 34.8441C7.09969 34.7893 7.1238 34.7378 7.15842 34.6937L9.27752 31.9501L9.46398 28.6057L7.72372 27.9575C7.63665 27.9253 7.56503 27.8613 7.52329 27.7783C7.48155 27.6954 7.47279 27.5998 7.49878 27.5106L8.74183 23.1896C8.75581 23.1401 8.78021 23.0941 8.81339 23.0548C8.84657 23.0155 8.88776 22.9838 8.9342 22.9617L11.3966 21.7512L13.2819 18.0487L12.6663 15.681C12.6518 15.6269 12.6499 15.5703 12.6607 15.5154C12.6715 15.4606 12.6946 15.4089 12.7285 15.3643L15.549 11.6648C15.5973 11.6003 15.6657 11.5537 15.7434 11.5323C15.821 11.5109 15.9036 11.5158 15.9781 11.5464L17.7539 12.2478L20.536 9.82979L21.4475 6.61563C21.4618 6.56591 21.4863 6.51971 21.5194 6.47996C21.5526 6.44022 21.5936 6.40781 21.6399 6.38477L24.9754 4.71554C25.0255 4.69225 25.08 4.68018 25.1352 4.68018C25.1904 4.68018 25.245 4.69225 25.295 4.71554C25.3457 4.73875 25.3905 4.7732 25.4259 4.81628C25.4612 4.85935 25.4863 4.90992 25.4993 4.96415L26.0409 7.18684L28.4619 6.89087L30.5336 4.15617C30.5817 4.09226 30.6494 4.04582 30.7263 4.02392C30.8032 4.00201 30.8852 4.00584 30.9598 4.03483L33.5287 5.02334C33.6155 5.05673 33.6865 5.12155 33.7276 5.20491C33.7688 5.28827 33.777 5.38405 33.7507 5.47321L32.8303 8.61042L34.1917 10.3211L36.5002 9.13723C36.5499 9.11248 36.6046 9.09959 36.66 9.09959C36.7155 9.09959 36.7702 9.11248 36.8199 9.13723C36.8708 9.16045 36.9159 9.19485 36.9518 9.23789C36.9877 9.28093 37.0134 9.3315 37.027 9.38584L37.8439 12.6414C37.8571 12.6958 37.8581 12.7523 37.8468 12.8071C37.8356 12.8618 37.8123 12.9134 37.7788 12.9581L35.6745 15.7402L35.4851 19.0816L37.2253 19.7298C37.3126 19.7626 37.3843 19.8272 37.426 19.9106C37.4677 19.994 37.4764 20.0901 37.4503 20.1796L36.2102 24.48C36.1949 24.5288 36.17 24.5742 36.137 24.6133C36.1039 24.6524 36.0634 24.6846 36.0178 24.7079L33.5554 25.9243L31.6701 29.6238L32.2857 31.9915C32.2989 32.0458 32.2999 32.1024 32.2886 32.1571C32.2774 32.2119 32.2541 32.2635 32.2206 32.3082L29.3912 35.9989C29.3417 36.0627 29.2728 36.1088 29.1949 36.1302C29.117 36.1515 29.0342 36.147 28.9591 36.1172L27.1833 35.4158L24.3983 37.8338L23.4867 41.048C23.4724 41.0973 23.4483 41.1432 23.4157 41.1829C23.3832 41.2225 23.3429 41.2552 23.2973 41.2788L19.9588 42.9481C19.9089 42.9721 19.8543 42.9848 19.7989 42.9851C19.7434 42.9854 19.6887 42.9734 19.6385 42.9498C19.5883 42.9263 19.544 42.8919 19.5088 42.8491C19.4736 42.8063 19.4484 42.7562 19.435 42.7024L18.8963 40.4797L16.4694 40.7757L14.3977 43.5104C14.3612 43.552 14.3161 43.5853 14.2655 43.6078C14.2149 43.6302 14.16 43.6415 14.1047 43.6406ZM11.9974 42.0572L13.9893 42.8267L15.9988 40.1867C16.0289 40.1471 16.0667 40.1141 16.1099 40.0897C16.1532 40.0652 16.201 40.0499 16.2504 40.0447L19.1568 39.7043C19.2466 39.6939 19.3372 39.7167 19.4114 39.7685C19.4856 39.8203 19.5382 39.8975 19.5593 39.9855L20.0654 42.075L22.8386 40.6869L23.7264 37.5231C23.7469 37.4546 23.7858 37.3932 23.8389 37.3455L26.8755 34.7055C26.9271 34.6607 26.9899 34.631 27.0573 34.6195C27.1246 34.608 27.1938 34.6152 27.2573 34.6404L28.968 35.3241L31.531 31.9974L30.9391 29.6623C30.9151 29.5752 30.9246 29.4823 30.9657 29.4018L32.9723 25.4685C33.0083 25.3969 33.0665 25.3387 33.1381 25.3027L35.565 24.1041L36.666 20.2921L34.9908 19.6706C34.9167 19.6424 34.8535 19.5913 34.8104 19.5248C34.7673 19.4583 34.7465 19.3797 34.7511 19.3006L34.9612 15.5715C34.9671 15.4975 34.9938 15.4267 35.0382 15.3673L37.1099 12.674L36.4469 10.0281L34.2864 11.1291C34.2099 11.1669 34.1228 11.1775 34.0394 11.1592C33.956 11.1409 33.8813 11.0948 33.8277 11.0284L32.1436 8.93302C32.1066 8.88669 32.0813 8.83206 32.0699 8.77381C32.0586 8.71557 32.0615 8.65543 32.0785 8.59858L32.9664 5.60047L30.9746 4.83393L29.0775 7.32594C29.0703 7.33732 29.0624 7.34819 29.0538 7.35849L28.965 7.47392C28.9353 7.51318 28.898 7.546 28.8552 7.57042C28.8125 7.59484 28.7653 7.61034 28.7164 7.61598L25.81 7.95338C25.7205 7.96463 25.6299 7.94247 25.5556 7.89114C25.4814 7.83982 25.4287 7.76293 25.4075 7.67517L24.8985 5.58568L22.1253 6.97374L21.2374 10.1376C21.218 10.2065 21.1789 10.2682 21.1249 10.3152L18.0883 12.9522C18.0372 12.9967 17.9749 13.0263 17.9081 13.0378C17.8412 13.0493 17.7726 13.0422 17.7095 13.0173L15.9959 12.3366L13.4476 15.6603L14.0544 17.9984C14.0758 18.0859 14.0653 18.1783 14.0248 18.2588L11.9974 22.1951C11.9609 22.2666 11.9015 22.3239 11.8287 22.3579L9.40478 23.5418L8.29788 27.3567L9.97304 27.9783C10.0466 28.0063 10.1094 28.0569 10.1525 28.1228C10.1956 28.1887 10.2167 28.2666 10.2128 28.3452L10.0056 32.0744C10.0002 32.1494 9.97355 32.2213 9.92864 32.2816L7.8569 34.9748L8.51986 37.6178L10.6833 36.5197C10.7592 36.481 10.8461 36.4699 10.9293 36.4883C11.0125 36.5066 11.0866 36.5533 11.1391 36.6204L12.8084 38.7158C12.8459 38.7619 12.8715 38.8165 12.8828 38.8748C12.8942 38.9332 12.891 38.9934 12.8735 39.0502L12.465 40.4531V40.4738L11.9974 42.0572Z" fill="#121728"/>
<path d="M18.9613 34.309C18.3079 34.325 17.6599 34.1881 17.0689 33.909C16.478 33.63 15.9604 33.2166 15.5577 32.7019C14.8152 31.701 14.383 30.5042 14.3147 29.2598C14.0187 25.9095 15.4245 21.7335 18.0083 18.3625C19.5147 16.3973 21.2639 14.9145 23.0397 14.0769C25.6175 12.8664 27.9941 13.189 29.3969 14.9648C29.6199 15.2449 29.8114 15.5486 29.9682 15.8705C30.2623 16.4809 30.4619 17.1326 30.5601 17.8031C31.1076 21.2067 29.6899 25.7201 26.9404 29.3013C25.2653 31.4914 23.2557 33.1074 21.2905 33.8502C20.6597 34.0985 19.9953 34.2511 19.3194 34.303C19.1951 34.303 19.0767 34.309 18.9613 34.309ZM23.3415 14.7488C21.6723 15.536 20.0297 16.9389 18.6061 18.8123C16.1319 22.0413 14.7586 26.019 15.0546 29.1947C15.1091 30.2946 15.487 31.354 16.1408 32.2402C16.509 32.7055 16.9889 33.0702 17.5358 33.3004C18.0827 33.5307 18.6789 33.619 19.2691 33.5572C19.8713 33.5119 20.4631 33.3752 21.0241 33.1518C22.865 32.4562 24.7562 30.9261 26.3515 28.8455C28.9796 25.4182 30.344 21.1268 29.8261 17.9126C29.7374 17.3163 29.5599 16.7367 29.2993 16.1931C29.1627 15.919 28.9991 15.6592 28.8109 15.4176C27.6152 13.9201 25.6116 13.6685 23.3415 14.7488Z" fill="#121728"/>
<path d="M14.6818 29.5972C14.61 29.5969 14.5399 29.5756 14.4799 29.536C14.42 29.4965 14.3729 29.4403 14.3443 29.3744C14.3158 29.3085 14.307 29.2357 14.3191 29.1649C14.3312 29.0941 14.3637 29.0284 14.4125 28.9757C14.4454 28.9423 14.4833 28.9143 14.525 28.8929C16.2031 28.1026 17.8457 26.6998 19.2604 24.8322C21.7376 21.6003 23.1079 17.6226 22.812 14.4499C22.8075 14.4015 22.8126 14.3527 22.827 14.3063C22.8414 14.2598 22.8648 14.2167 22.8958 14.1793C22.9269 14.142 22.965 14.1111 23.008 14.0884C23.051 14.0658 23.098 14.0518 23.1464 14.0473C23.1948 14.0429 23.2436 14.048 23.29 14.0624C23.3364 14.0768 23.3795 14.1001 23.4169 14.1312C23.4543 14.1623 23.4852 14.2004 23.5078 14.2434C23.5305 14.2864 23.5444 14.3334 23.5489 14.3818C23.8449 17.7321 22.442 21.9081 19.8582 25.2821C18.3607 27.2384 16.6263 28.7182 14.8446 29.5588C14.7939 29.5836 14.7383 29.5967 14.6818 29.5972Z" fill="#121728"/>
<path d="M11.5356 42.6521C11.4711 42.6511 11.408 42.6338 11.3521 42.6018L4.27856 38.5915C4.20684 38.5495 4.15109 38.4848 4.12002 38.4077C4.08896 38.3306 4.08434 38.2453 4.10689 38.1653L4.65146 36.3126C4.65659 36.2833 4.66452 36.2546 4.67515 36.2268C4.70502 36.1392 4.7664 36.0658 4.84736 36.021C4.92832 35.9761 5.02305 35.963 5.11316 35.9841C5.16012 35.9946 5.20452 36.0142 5.24382 36.042C5.28312 36.0697 5.31654 36.105 5.34214 36.1457C5.36773 36.1864 5.385 36.2318 5.39294 36.2793C5.40089 36.3267 5.39935 36.3753 5.38842 36.4221V36.4665L4.89415 38.0913L11.7013 41.9596C11.7434 41.9835 11.7804 42.0156 11.8101 42.0539C11.8398 42.0922 11.8616 42.136 11.8742 42.1828C11.8869 42.2296 11.8901 42.2784 11.8838 42.3264C11.8775 42.3745 11.8618 42.4208 11.8374 42.4627C11.8076 42.5175 11.7641 42.5637 11.7113 42.5969C11.6584 42.6301 11.5979 42.6491 11.5356 42.6521Z" fill="#121728"/>
<path d="M33.4073 5.74855C33.3441 5.74858 33.2819 5.73227 33.2268 5.70119L26.174 1.70273L23.8921 0.814841L21.9772 3.33644C21.9184 3.41494 21.8307 3.46683 21.7336 3.48071C21.6365 3.49459 21.5378 3.46931 21.4593 3.41043C21.3808 3.35156 21.3289 3.26392 21.315 3.16679C21.3012 3.06966 21.3264 2.97099 21.3853 2.8925L21.406 2.86586L23.4778 0.145962C23.5267 0.0821956 23.5949 0.0359364 23.6722 0.0140707C23.7495 -0.00779506 23.8319 -0.00409837 23.9069 0.0246156L26.4729 1.01609L26.5232 1.03681L33.6027 5.05599C33.6742 5.09614 33.7304 5.15893 33.7623 5.23448C33.7943 5.31003 33.8002 5.39406 33.7792 5.47335C33.7582 5.55265 33.7114 5.62271 33.6462 5.67252C33.5811 5.72234 33.5012 5.74908 33.4192 5.74855H33.4073Z" fill="#121728"/>
<path d="M7.8539 27.9635C7.7897 27.9636 7.72653 27.9473 7.67041 27.9161L0.599844 23.9058C0.526697 23.8659 0.469453 23.8021 0.437673 23.7251C0.405893 23.6481 0.4015 23.5625 0.425227 23.4826L1.66828 19.1793C1.6831 19.1302 1.70781 19.0846 1.74089 19.0454C1.77398 19.0063 1.81473 18.9742 1.86065 18.9514L4.32307 17.7379L6.21131 14.0354L5.5957 11.6677C5.58188 11.6135 5.58056 11.5568 5.59184 11.5019C5.60312 11.4471 5.6267 11.3955 5.66082 11.3511L8.49022 7.6604C8.5389 7.59637 8.60726 7.5501 8.6848 7.52871C8.76234 7.50732 8.84475 7.512 8.91937 7.54202L10.6952 8.24049L13.4772 5.82247L14.3651 2.60239C14.3789 2.55286 14.4029 2.50675 14.4355 2.46701C14.4681 2.42726 14.5086 2.39475 14.5545 2.37154L17.9167 0.702309C17.9707 0.674529 18.0305 0.660034 18.0913 0.660034C18.152 0.660034 18.2119 0.674529 18.2659 0.702309L25.3157 4.72445C25.3581 4.74835 25.3953 4.78037 25.4253 4.81866C25.4553 4.85696 25.4775 4.90078 25.4905 4.94764C25.5036 4.9945 25.5073 5.04347 25.5014 5.09175C25.4955 5.14004 25.4802 5.1867 25.4563 5.22906C25.4324 5.27143 25.4004 5.30867 25.3621 5.33866C25.3238 5.36866 25.28 5.39081 25.2331 5.40387C25.1863 5.41692 25.1373 5.42062 25.089 5.41475C25.0407 5.40887 24.9941 5.39355 24.9517 5.36965L18.0498 1.45405L15.034 2.96051L14.1461 6.12435C14.1257 6.19277 14.0867 6.25422 14.0336 6.30193L10.9941 8.93304C10.9428 8.97727 10.8804 9.0067 10.8137 9.01817C10.7469 9.02964 10.6783 9.02272 10.6152 8.99816L8.90457 8.31744L6.35337 11.6441L6.9601 13.9763C6.98292 14.0637 6.97236 14.1566 6.9305 14.2367L4.92387 18.173C4.88787 18.2446 4.82976 18.3028 4.75813 18.3388L2.33123 19.5226L1.21545 23.3879L8.02261 27.2532C8.09266 27.294 8.14736 27.3567 8.1783 27.4316C8.20924 27.5066 8.21471 27.5896 8.19386 27.6679C8.17301 27.7463 8.127 27.8156 8.06291 27.8653C7.99881 27.9149 7.92019 27.9422 7.83911 27.9428L7.8539 27.9635Z" fill="#121728"/>
<path d="M21.8057 7.08626C21.7415 7.0864 21.6783 7.0701 21.6222 7.0389L14.5457 3.0138C14.4601 2.96514 14.3974 2.88448 14.3713 2.78956C14.3453 2.69465 14.3579 2.59326 14.4066 2.5077C14.4553 2.42215 14.5359 2.35943 14.6309 2.33334C14.7258 2.30725 14.8271 2.31994 14.9127 2.36861L21.9862 6.38187C22.0575 6.4219 22.1136 6.48442 22.1456 6.55967C22.1776 6.63492 22.1837 6.71866 22.1631 6.79779C22.1425 6.87692 22.0962 6.94698 22.0316 6.99703C21.9669 7.04708 21.8875 7.0743 21.8057 7.07442V7.08626Z" fill="#121728"/>
<path d="M15.8449 12.2597C15.7802 12.2601 15.7167 12.2427 15.6614 12.2094L8.59079 8.20204C8.50523 8.15376 8.44236 8.07348 8.41599 7.97885C8.38963 7.88421 8.40194 7.78298 8.45022 7.69742C8.49849 7.61186 8.57877 7.54899 8.67341 7.52262C8.76804 7.49626 8.86927 7.50857 8.95483 7.55684L16.0254 11.5671C16.0967 11.6072 16.1527 11.6697 16.1847 11.7449C16.2167 11.8202 16.2229 11.9039 16.2023 11.9831C16.1817 12.0622 16.1354 12.1323 16.0707 12.1823C16.0061 12.2324 15.9266 12.2596 15.8449 12.2597Z" fill="#121728"/>
<path d="M13.0244 15.9504C12.96 15.9494 12.8968 15.932 12.8409 15.9001L5.78218 11.8927C5.69662 11.8444 5.63374 11.7642 5.60738 11.6695C5.58102 11.5749 5.59332 11.4737 5.64159 11.3881C5.68987 11.3025 5.77015 11.2397 5.86479 11.2133C5.95942 11.1869 6.06066 11.1992 6.14622 11.2475L13.2168 15.2578C13.2881 15.2978 13.3441 15.3604 13.3761 15.4356C13.4081 15.5109 13.4143 15.5946 13.3937 15.6737C13.373 15.7529 13.3268 15.8229 13.2621 15.873C13.1974 15.923 13.118 15.9502 13.0362 15.9504H13.0244Z" fill="#121728"/>
<path d="M9.09692 23.6633C9.03272 23.6634 8.96954 23.6471 8.91342 23.6159L1.8399 19.6056C1.79754 19.5817 1.7603 19.5497 1.73031 19.5114C1.70031 19.4731 1.67816 19.4293 1.6651 19.3824C1.65205 19.3356 1.64835 19.2866 1.65422 19.2383C1.66009 19.19 1.67541 19.1434 1.69932 19.101C1.72322 19.0586 1.75523 19.0214 1.79353 18.9914C1.83183 18.9614 1.87566 18.9392 1.92252 18.9262C1.96938 18.9131 2.01835 18.9094 2.06663 18.9153C2.11492 18.9212 2.16157 18.9365 2.20394 18.9604L9.27746 22.9707C9.32008 22.9941 9.35762 23.0258 9.38789 23.0639C9.41816 23.102 9.44056 23.1457 9.45378 23.1925C9.467 23.2394 9.47077 23.2883 9.46489 23.3366C9.45901 23.3849 9.44359 23.4316 9.41952 23.4738C9.3872 23.531 9.34034 23.5787 9.28369 23.6119C9.22704 23.6452 9.16261 23.6629 9.09692 23.6633Z" fill="#121728"/>
<path d="M7.44541 35.2738C7.3821 35.2742 7.31981 35.2579 7.26488 35.2264L0.188395 31.2131C0.102836 31.1649 0.0399523 31.0846 0.0135879 30.99C-0.0127764 30.8953 -0.000463503 30.7941 0.0478105 30.7085C0.0960845 30.623 0.176368 30.5601 0.271002 30.5337C0.365636 30.5074 0.466865 30.5197 0.552424 30.5679L7.62891 34.5812C7.70044 34.6214 7.7566 34.6841 7.78856 34.7597C7.82051 34.8352 7.82645 34.9193 7.80544 34.9986C7.78443 35.0779 7.73767 35.1479 7.67249 35.1977C7.60732 35.2476 7.52744 35.2743 7.44541 35.2738Z" fill="#121728"/>
<path d="M8.26525 38.5293C8.20082 38.5283 8.13769 38.511 8.08175 38.479L1.01119 34.4717C0.96731 34.4468 0.928949 34.4132 0.898425 34.373C0.867901 34.3328 0.845849 34.2868 0.833611 34.2379L0.013796 30.9823C-0.00118314 30.9281 -0.00309616 30.8712 0.00822319 30.8161C0.0195425 30.7611 0.0437714 30.7095 0.0789082 30.6656L2.20392 27.9191L2.3815 24.6812C2.38082 24.6305 2.39057 24.5801 2.41018 24.5333C2.42978 24.4865 2.45881 24.4442 2.49546 24.4091C2.5321 24.374 2.57558 24.3468 2.62319 24.3292C2.6708 24.3116 2.72151 24.304 2.77218 24.3069C2.82286 24.3097 2.8724 24.323 2.91774 24.3458C2.96307 24.3686 3.00323 24.4005 3.0357 24.4395C3.06818 24.4785 3.09229 24.5238 3.10652 24.5725C3.12076 24.6212 3.12482 24.6723 3.11845 24.7227L2.93495 28.0759C2.93177 28.1505 2.9048 28.222 2.858 28.2801L0.786256 30.9764L1.52616 33.9182L8.44578 37.8486C8.51732 37.8888 8.57348 37.9516 8.60543 38.0271C8.63739 38.1027 8.64333 38.1867 8.62232 38.266C8.60131 38.3453 8.55454 38.4154 8.48936 38.4652C8.42419 38.515 8.34432 38.5417 8.26229 38.5412L8.26525 38.5293Z" fill="#121728"/>
<path d="M36.6776 9.85652C36.6099 9.85628 36.5435 9.83789 36.4853 9.80325L32.691 7.47994C32.6494 7.45468 32.6132 7.42147 32.5845 7.38222C32.5557 7.34296 32.535 7.29843 32.5234 7.25116C32.5119 7.20389 32.5098 7.1548 32.5172 7.10672C32.5246 7.05863 32.5415 7.01247 32.5667 6.97088C32.592 6.9293 32.6252 6.89309 32.6644 6.86434C32.7037 6.83559 32.7482 6.81484 32.7955 6.8033C32.8428 6.79176 32.8918 6.78964 32.9399 6.79706C32.988 6.80449 33.0342 6.82131 33.0758 6.84658L36.873 9.16989C36.9425 9.21185 36.9962 9.27549 37.026 9.35102C37.0557 9.42654 37.0598 9.50975 37.0376 9.58782C37.0154 9.6659 36.9681 9.7345 36.9031 9.78306C36.838 9.83161 36.7588 9.85743 36.6776 9.85652Z" fill="#121728"/>
</svg>
