<svg width="159" height="121" viewBox="0 0 159 121" fill="none" xmlns="http://www.w3.org/2000/svg">
<path opacity="0.5" d="M122.406 95.5654L119.447 93.8596L122.406 92.1498L125.361 93.8596L122.406 95.5654Z" fill="white"/>
<path opacity="0.86" d="M139.808 93.0796L136.849 91.3698L139.808 89.6639L142.762 91.3698L139.808 93.0796Z" fill="white"/>
<path opacity="0.98" d="M110.902 67.0437L107.947 65.3379L110.902 63.6321L113.857 65.3379L110.902 67.0437Z" fill="white"/>
<path opacity="0.3" d="M154.578 79.8455L151.619 78.1397L154.578 76.4298L157.533 78.1397L154.578 79.8455Z" fill="white"/>
<path opacity="0.15" d="M112.111 90.5209L109.156 88.8151L112.111 87.1052L115.065 88.8151L112.111 90.5209Z" fill="white"/>
<path opacity="0.61" d="M133.077 68.9718L130.123 67.266L133.077 65.5602L136.032 67.266L133.077 68.9718Z" fill="white"/>
<path opacity="0.48" d="M123.703 107.838L120.749 106.128L123.703 104.422L126.658 106.128L123.703 107.838Z" fill="white"/>
<path opacity="0.79" d="M142.847 52.6818L139.893 50.9719L142.847 49.2661L145.802 50.9719L142.847 52.6818Z" fill="white"/>
<path opacity="0.17" d="M121.25 83.0104L118.291 81.3046L121.25 79.5988L124.205 81.3046L121.25 83.0104Z" fill="white"/>
<path opacity="0.9" d="M147.896 42.5036L144.941 40.7937L147.896 39.0879L150.851 40.7937L147.896 42.5036Z" fill="white"/>
<path opacity="0.49" d="M131.707 78.2688L128.748 76.563L131.707 74.8531L134.662 76.563L131.707 78.2688Z" fill="white"/>
<path opacity="0.78" d="M132.285 100.885L129.33 99.1753L132.285 97.4695L135.24 99.1753L132.285 100.885Z" fill="white"/>
<path opacity="0.27" d="M145.621 72.0198L142.662 70.314L145.621 68.6082L148.575 70.314L145.621 72.0198Z" fill="white"/>
<path opacity="0.94" d="M130.656 88.3744L127.697 86.6686L130.656 84.9628L133.611 86.6686L130.656 88.3744Z" fill="white"/>
<path opacity="0.83" d="M138.809 61.9789L135.854 60.2731L138.809 58.5673L141.768 60.2731L138.809 61.9789Z" fill="white"/>
<path opacity="0.83" d="M150.681 90.1367L147.726 88.4309L150.681 86.7211L153.64 88.4309L150.681 90.1367Z" fill="white"/>
<path opacity="0.2" d="M134.116 46.1252L131.157 44.4194L134.116 42.7136L137.071 44.4194L134.116 46.1252Z" fill="white"/>
<path opacity="0.76" d="M122.135 69.9298L119.176 68.22L122.135 66.5142L125.09 68.22L122.135 69.9298Z" fill="white"/>
<path opacity="0.23" d="M116.581 116.601L113.626 114.895L116.581 113.185L119.54 114.895L116.581 116.601Z" fill="white"/>
<path opacity="0.99" d="M137.625 36.5049L134.67 34.7991L137.625 33.0933L140.58 34.7991L137.625 36.5049Z" fill="white"/>
<path opacity="0.26" d="M142.302 82.5092L139.347 80.8034L142.302 79.0975L145.256 80.8034L142.302 82.5092Z" fill="white"/>
<path opacity="0.48" d="M128.817 56.8089L125.862 55.103L128.817 53.3932L131.772 55.103L128.817 56.8089Z" fill="white"/>
<path opacity="0.13" d="M102.049 83.0791L99.0945 81.3733L102.049 79.6675L105.004 81.3733L102.049 83.0791Z" fill="white"/>
<path opacity="0.61" d="M145.313 101.698L142.358 99.9917L145.313 98.2859L148.268 99.9917L145.313 101.698Z" fill="white"/>
<path opacity="0.36" d="M112.571 77.8121L109.616 76.1063L112.571 74.4005L115.526 76.1063L112.571 77.8121Z" fill="white"/>
<path d="M158.487 77.3231V88.8313C158.487 92.2105 156.259 95.5777 151.797 98.1526C145.261 101.932 135.729 102.939 127.596 101.172C128.32 97.4048 128.874 93.9244 129.431 90.0116C137.132 91.2647 145.746 90.1409 151.797 86.6444C156.259 84.0776 158.487 80.6984 158.487 77.3231Z" fill="white"/>
<path d="M158.378 76.0135C158.45 76.4463 158.487 76.8844 158.487 77.3232C158.487 80.6984 156.259 84.0777 151.797 86.6445C145.734 90.141 137.132 91.2647 129.431 90.0116C129.613 88.7303 129.799 87.4044 129.989 86.0058C130.05 85.5622 130.229 85.1433 130.509 84.7938C130.789 84.4443 131.158 84.1772 131.578 84.0211C135.447 82.6376 139.206 80.9649 142.823 79.0169C144.95 77.8302 146.748 76.1322 148.055 74.0764C149.361 72.0206 150.134 69.6717 150.305 67.2419V67.2136C150.815 67.4602 151.312 67.7229 151.793 68.0019C155.52 70.1402 157.678 72.8525 158.301 75.6457C158.333 75.7669 158.357 75.8922 158.378 76.0135Z" fill="white"/>
<path d="M134.423 51.1862C133.418 51.083 132.452 50.7431 131.604 50.1944C130.756 49.6456 130.05 48.9036 129.544 48.0292L131.44 39.8236C131.626 38.9475 131.994 38.1204 132.52 37.396C133.047 36.6717 133.72 36.0665 134.496 35.6197L134.654 35.5267C134.859 35.4096 135.071 35.3043 135.288 35.2114L135.769 35.1791V35.3569C135.799 35.7993 135.933 36.2283 136.161 36.6085C136.389 36.9887 136.705 37.3093 137.081 37.5438C137.457 37.7783 137.884 37.92 138.325 37.9573C138.767 37.9945 139.211 37.9262 139.622 37.758L139.755 37.7014V38.8009C139.756 39.0398 139.805 39.276 139.897 39.4962C139.99 39.7164 140.125 39.9162 140.295 40.0842C140.465 40.2521 140.666 40.385 140.887 40.4752C141.108 40.5654 141.345 40.6111 141.584 40.6098C141.823 40.6085 142.059 40.5601 142.279 40.4675C142.5 40.3748 142.699 40.2397 142.867 40.0699C143.035 39.9 143.168 39.6988 143.258 39.4776C143.349 39.2564 143.394 39.0196 143.393 38.7807C143.393 38.7807 143.413 38.045 143.433 36.9253C145.22 37.9965 147.152 39.2415 149.133 40.5633C149.772 40.9952 150.359 41.5013 150.879 42.071C151.795 43.0849 152.481 44.2853 152.888 45.5896C153.296 46.8938 153.416 48.2709 153.24 49.6259L152.399 55.9075L151.817 60.2448C151.485 60.2771 151.158 60.2933 150.827 60.2933C149.004 60.2933 147.225 59.8001 145.976 58.6117L145.798 60.3175C145.768 60.5926 145.679 60.8578 145.536 61.0945C145.392 61.3312 145.199 61.5337 144.969 61.6878L138.647 65.9402C137.57 65.3753 136.587 64.6441 135.737 63.7736C135.432 63.4647 135.186 63.1032 135.009 62.7065C134.912 62.4923 134.836 62.2689 134.783 62.0395C134.731 61.81 134.702 61.5756 134.698 61.3402L134.448 51.259L134.423 51.1862Z" fill="white"/>
<path d="M132.904 72.812C130.883 73.6204 128.995 74.3318 127.483 74.8331C127.317 74.8879 127.14 74.8942 126.971 74.8513C126.802 74.8083 126.648 74.7178 126.529 74.5905C126.438 74.4934 126.369 74.3773 126.328 74.2507C126.286 74.124 126.273 73.9898 126.289 73.8576C126.306 73.7253 126.351 73.5982 126.421 73.4853C126.492 73.3723 126.587 73.2763 126.699 73.2041L129.035 71.6963L127.544 71.094C127.449 71.0547 127.371 70.9833 127.324 70.8924C127.277 70.8015 127.263 70.6969 127.285 70.5968C127.311 70.4987 127.369 70.4123 127.451 70.352C127.532 70.2917 127.632 70.2611 127.734 70.2654H128.506L131.335 70.3017C131.853 70.3086 132.361 70.1578 132.79 69.8692L138.627 65.9402L144.949 61.6878C145.179 61.5337 145.372 61.3312 145.515 61.0945C145.659 60.8577 145.748 60.5926 145.778 60.3175L145.956 58.6117C147.217 59.8001 148.996 60.2933 150.807 60.2933C151.138 60.2933 151.465 60.2933 151.797 60.2448L151.558 62.0314C151.444 62.9005 151.112 63.7266 150.594 64.4332C150.075 65.1398 149.386 65.7041 148.591 66.0736C148.292 66.211 147.237 66.688 145.717 67.3631C142.573 68.7738 137.407 71.0213 132.904 72.812Z" fill="white"/>
<path d="M150.281 64.8528C150.354 65.6377 150.362 66.4272 150.305 67.2134V67.2417C149.294 67.3601 148.276 67.4181 147.258 67.4156C146.756 67.4156 146.247 67.4155 145.734 67.3792C147.254 66.7041 148.309 66.2271 148.608 66.0897C149.243 65.7944 149.812 65.3737 150.281 64.8528Z" fill="white"/>
<path d="M147.249 67.4156C148.268 67.4182 149.285 67.3601 150.297 67.2418C150.126 69.6716 149.353 72.0205 148.046 74.0763C146.74 76.1321 144.942 77.8301 142.815 79.0168C139.197 80.9647 135.438 82.6375 131.569 84.021C131.15 84.1771 130.78 84.4442 130.501 84.7937C130.221 85.1432 130.041 85.5621 129.981 86.0057C129.791 87.4043 129.605 88.7302 129.423 90.0115C128.865 93.9244 128.311 97.4047 127.588 101.172C127.087 103.783 126.505 106.536 125.781 109.661C125.716 109.934 125.562 110.178 125.342 110.352C125.122 110.527 124.849 110.622 124.568 110.623H123.853C122.593 110.643 121.34 110.44 120.15 110.024C119.928 109.933 119.713 109.825 119.508 109.701C119.307 109.575 119.147 109.393 119.049 109.178C118.951 108.962 118.917 108.723 118.954 108.488L120.445 98.6901L122.062 87.95L122.996 81.9352C123.035 81.6821 123.097 81.4331 123.182 81.1914H123.202L135.329 74.1944L132.903 72.7918C137.406 70.997 142.572 68.7496 145.733 67.359C146.247 67.4035 146.756 67.4156 147.249 67.4156Z" fill="#121728"/>
<path d="M143.429 36.9254C143.409 38.0451 143.389 38.7807 143.389 38.7807C143.39 39.0196 143.345 39.2564 143.254 39.4776C143.164 39.6988 143.031 39.9001 142.863 40.0699C142.695 40.2398 142.496 40.3749 142.275 40.4675C142.055 40.5602 141.819 40.6085 141.58 40.6099C141.341 40.6112 141.104 40.5654 140.883 40.4753C140.662 40.3851 140.461 40.2522 140.291 40.0842C140.121 39.9163 139.986 39.7165 139.893 39.4963C139.801 39.2761 139.752 39.0398 139.751 38.801V37.7015L139.618 37.7581C139.207 37.9263 138.763 37.9946 138.321 37.9573C137.88 37.9201 137.453 37.7784 137.077 37.5439C136.701 37.3094 136.385 36.9888 136.157 36.6085C135.929 36.2283 135.795 35.7994 135.765 35.357V35.1791L135.547 31.9454C135.73 32.0094 135.918 32.0594 136.109 32.095C138.017 32.4668 140.895 31.1774 140.895 31.1774L141.517 33.8008L143.446 33.8776C143.45 35.0134 143.442 36.0806 143.429 36.9254Z" fill="white"/>
<path d="M143.45 33.8774L141.522 33.8006L140.899 31.1772C140.899 31.1772 138.021 32.4667 136.113 32.0948C135.922 32.0592 135.734 32.0092 135.551 31.9452C133.898 31.3874 132.548 29.7382 131.509 26.0679C133.166 27.2401 136.02 27.426 138.668 26.848C141.315 26.27 141.566 28.3234 141.566 28.3234H142.225C142.512 28.3271 142.787 28.4398 142.994 28.6387C143.201 28.8376 143.325 29.1078 143.341 29.3946C143.413 30.8013 143.446 32.398 143.45 33.8774Z" fill="#121728"/>
<path d="M138.627 65.9523L132.79 69.8813C132.361 70.1699 131.853 70.3207 131.335 70.3139L128.506 70.2775L122.224 66.6395V66.5748L134.993 62.7388C135.17 63.1355 135.416 63.497 135.721 63.8059C136.572 64.6689 137.552 65.3931 138.627 65.9523Z" fill="#121728"/>
<path d="M123.19 81.1713L119.479 70.2129L120.559 68.7213L121.286 69.4287C121.369 69.5092 121.473 69.5634 121.586 69.5842C121.7 69.605 121.816 69.5915 121.922 69.5455C122.027 69.4995 122.117 69.423 122.179 69.3258C122.24 69.2287 122.272 69.1153 122.269 69.0002L122.216 66.6598L128.498 70.2978H127.726C127.624 70.2935 127.524 70.3241 127.443 70.3844C127.361 70.4447 127.303 70.5311 127.277 70.6292C127.255 70.7293 127.269 70.8339 127.316 70.9248C127.363 71.0157 127.441 71.0871 127.536 71.1264L129.027 71.7287L126.691 73.2364C126.579 73.3087 126.484 73.4047 126.413 73.5177C126.343 73.6306 126.298 73.7577 126.281 73.8899C126.265 74.0222 126.278 74.1564 126.32 74.2831C126.361 74.4097 126.43 74.5257 126.521 74.6229C126.64 74.7502 126.793 74.8407 126.963 74.8837C127.132 74.9266 127.309 74.9203 127.475 74.8655C128.987 74.3561 130.874 73.6528 132.896 72.8444L135.321 74.247L123.194 81.244L123.19 81.1713Z" fill="white"/>
<path d="M134.427 51.2671L133.817 53.7733C133.657 54.4257 133.325 55.0232 132.855 55.5033L129.439 58.9756L122.208 66.3324V66.6436L122.26 68.9841C122.263 69.0992 122.232 69.2125 122.17 69.3097C122.108 69.4068 122.019 69.4833 121.914 69.5294C121.808 69.5754 121.691 69.5889 121.578 69.568C121.465 69.5472 121.36 69.4931 121.278 69.4125L120.55 68.7052L119.479 70.2129L118.404 67.0357L119.152 65.3905L119.326 64.9863L119.407 64.8085L125.385 56.6432L128.024 53.0335C128.387 52.537 128.64 51.9694 128.768 51.3681L128.942 50.6123L129.54 48.0333C130.046 48.9077 130.752 49.6497 131.6 50.1984C132.448 50.7472 133.414 51.0871 134.419 51.1903L134.427 51.2671Z" fill="white"/>
<path d="M123.19 81.1713V81.2117H123.17C123.172 81.1965 123.18 81.1824 123.19 81.1713Z" fill="white"/>
<path d="M123.19 81.1713C123.188 81.1806 123.188 81.1902 123.19 81.1996L116.318 77.218L108.347 72.6382L104.871 70.6171L99.7656 55.5356L115.381 64.5538L118.101 66.1222L118.404 67.0195L119.479 70.2129L123.19 81.1713Z" fill="white"/>
<path d="M116.29 77.218L123.162 81.1996C123.085 81.4393 123.029 81.6855 122.996 81.9353L122.087 87.9218C121.199 87.5463 120.335 87.117 119.5 86.6363C117.517 85.5585 115.796 84.0569 114.459 82.2384C114.483 81.333 114.493 80.4019 114.487 79.4453C114.486 79.0295 114.603 78.6219 114.826 78.2709C115.049 77.9198 115.367 77.64 115.744 77.4646L116.29 77.218Z" fill="white"/>
<path d="M122.087 87.9298L120.47 98.6699C120.15 98.5042 119.831 98.3304 119.52 98.1525C116.585 96.4548 114.613 94.4094 113.614 92.2428C114.131 88.9344 114.42 85.5945 114.479 82.2465C115.816 84.0649 117.537 85.5665 119.52 86.6444C120.349 87.1243 121.206 87.5536 122.087 87.9298Z" fill="white"/>
<path d="M123.861 110.635C122.729 117.466 117.119 119.58 115.603 119.58C115.069 119.58 114.835 119.301 114.835 118.986C114.835 117.587 118.452 115.623 120.158 110.037C121.348 110.453 122.601 110.655 123.861 110.635Z" fill="white"/>
<path d="M119.411 64.8044L119.33 64.9825H119.305C119.336 64.9207 119.371 64.8612 119.411 64.8044Z" fill="white"/>
<path d="M119.33 64.9823L119.156 65.3869C119.185 65.2454 119.236 65.109 119.306 64.9823H119.33Z" fill="white"/>
<path d="M116.989 63.6282L119.306 64.9702C119.236 65.0967 119.185 65.233 119.156 65.3744L118.408 67.0196L118.105 66.1222L115.381 64.5538L116.989 63.6282Z" fill="white"/>
<path d="M108.82 105.073C107.508 105.069 106.221 104.709 105.097 104.03C104.903 103.909 104.693 103.779 104.511 103.626C104.349 103.508 104.221 103.349 104.143 103.164C104.065 102.98 104.038 102.777 104.066 102.579L107.947 73.9478C108.012 73.4862 108.148 73.0376 108.351 72.6179L116.294 77.2018L115.744 77.4564C115.367 77.6319 115.049 77.9117 114.826 78.2627C114.603 78.6138 114.486 79.0213 114.487 79.4371C114.487 80.3938 114.478 81.3248 114.459 82.2303C114.4 85.5783 114.111 88.9182 113.594 92.2266C112.916 96.3115 111.937 100.341 110.663 104.28C110.593 104.503 110.456 104.697 110.269 104.837C110.083 104.977 109.857 105.055 109.625 105.061C109.338 105.081 109.071 105.081 108.82 105.073Z" fill="#121728"/>
<path d="M105.097 104.03C106.221 104.709 107.508 105.069 108.82 105.073C107.664 109.762 101.249 112.268 100.02 112.268C99.8454 112.284 99.6692 112.261 99.5038 112.202C99.3385 112.143 99.188 112.049 99.0626 111.926C98.9373 111.802 98.8402 111.654 98.7781 111.49C98.7159 111.325 98.6901 111.15 98.7025 110.974C98.7146 109.758 103.02 108.286 105.097 104.03Z" fill="white"/>
<path d="M134.763 62.5569C134.675 62.5575 134.589 62.5352 134.512 62.4923L129.189 59.4202C129.131 59.387 129.081 59.3428 129.04 59.2901C129 59.2374 128.97 59.1773 128.953 59.1131C128.935 59.0489 128.931 58.982 128.94 58.916C128.948 58.8501 128.97 58.7866 129.003 58.729C129.036 58.6714 129.08 58.6209 129.133 58.5804C129.186 58.5398 129.246 58.5101 129.31 58.4929C129.374 58.4756 129.441 58.4711 129.507 58.4797C129.573 58.4883 129.636 58.5099 129.694 58.543L135.018 61.6151C135.075 61.6485 135.125 61.6929 135.165 61.7458C135.206 61.7986 135.235 61.8588 135.252 61.923C135.269 61.9872 135.273 62.0541 135.264 62.1199C135.255 62.1856 135.233 62.249 135.2 62.3063C135.155 62.3829 135.092 62.4464 135.015 62.4904C134.938 62.5344 134.851 62.5574 134.763 62.5569Z" fill="#121728"/>
<path d="M135.624 91.0098C133.523 91.014 131.425 90.8477 129.351 90.5126C129.285 90.502 129.222 90.4786 129.166 90.4437C129.109 90.4088 129.06 90.3631 129.021 90.3092C128.982 90.2554 128.955 90.1944 128.939 90.1297C128.924 90.0651 128.922 89.9981 128.932 89.9325C128.943 89.867 128.966 89.8042 129.001 89.7477C129.036 89.6912 129.082 89.6421 129.136 89.6032C129.19 89.5644 129.251 89.5365 129.315 89.5212C129.38 89.506 129.447 89.5036 129.512 89.5142C137.362 90.7915 145.806 89.5142 151.546 86.2077C155.698 83.8187 157.982 80.6658 157.982 77.3148C157.981 76.9085 157.948 76.5029 157.881 76.1022C157.86 75.989 157.84 75.8758 157.816 75.7667C157.193 72.9695 155.027 70.4431 151.546 68.4462C151.082 68.1754 150.592 67.9167 150.091 67.6742C150.031 67.6452 149.978 67.6048 149.934 67.5552C149.89 67.5057 149.856 67.4479 149.834 67.3852C149.812 67.3225 149.803 67.2562 149.807 67.1899C149.811 67.1237 149.828 67.0588 149.857 66.9991C149.886 66.9394 149.926 66.886 149.976 66.8419C150.025 66.7978 150.083 66.7639 150.146 66.7421C150.208 66.7203 150.275 66.7111 150.341 66.715C150.407 66.7188 150.472 66.7357 150.532 66.7647C151.053 67.0153 151.567 67.2861 152.052 67.5731C155.783 69.7155 158.115 72.4723 158.798 75.5443C158.83 75.6696 158.855 75.8071 158.875 75.9486C158.954 76.4078 158.993 76.8731 158.992 77.3391C158.992 81.0579 156.526 84.5261 152.052 87.101C147.577 89.6759 141.7 91.0098 135.624 91.0098Z" fill="#121728"/>
<path d="M122.087 88.4351C122.019 88.4354 121.951 88.4216 121.889 88.3947C120.983 88.0111 120.102 87.5738 119.249 87.085C117.201 85.9712 115.424 84.4183 114.047 82.5375C113.973 82.4276 113.946 82.2932 113.97 82.1633C113.995 82.0334 114.069 81.9182 114.178 81.8426C114.286 81.7669 114.42 81.7368 114.55 81.7587C114.681 81.7805 114.798 81.8526 114.875 81.9595C116.169 83.7203 117.839 85.1715 119.762 86.2079C120.579 86.6783 121.424 87.0981 122.293 87.465C122.4 87.5106 122.488 87.5919 122.542 87.695C122.596 87.7982 122.613 87.9168 122.59 88.0309C122.567 88.1451 122.505 88.2476 122.414 88.3213C122.324 88.3949 122.211 88.4351 122.095 88.4351H122.087Z" fill="#121728"/>
<path d="M135.616 102.518C132.885 102.523 130.161 102.237 127.491 101.665C127.424 101.654 127.359 101.629 127.301 101.592C127.244 101.555 127.194 101.507 127.156 101.45C127.117 101.394 127.091 101.33 127.078 101.263C127.065 101.195 127.065 101.126 127.08 101.059C127.094 100.993 127.122 100.929 127.162 100.873C127.202 100.818 127.253 100.771 127.311 100.735C127.369 100.699 127.435 100.676 127.502 100.666C127.57 100.657 127.639 100.661 127.705 100.679C135.972 102.474 145.329 101.309 151.554 97.7159C155.706 95.3189 157.99 92.166 157.99 88.8231V77.323C157.99 77.189 158.043 77.0605 158.138 76.9657C158.232 76.871 158.361 76.8177 158.495 76.8177C158.629 76.8177 158.757 76.871 158.852 76.9657C158.947 77.0605 159 77.189 159 77.323V88.8312C159 92.5419 156.534 96.0061 152.06 98.5931C147.585 101.18 141.671 102.518 135.616 102.518Z" fill="#121728"/>
<path d="M120.449 99.1752C120.369 99.1762 120.29 99.1567 120.219 99.1186C119.892 98.9488 119.568 98.775 119.249 98.5931C116.318 96.8954 114.204 94.7732 113.137 92.4571C113.1 92.3956 113.077 92.3269 113.069 92.2558C113.06 92.1846 113.067 92.1124 113.089 92.0442C113.111 91.9759 113.147 91.9129 113.195 91.8596C113.242 91.8063 113.301 91.7638 113.367 91.7349C113.432 91.706 113.503 91.6914 113.575 91.692C113.647 91.6927 113.717 91.7086 113.782 91.7386C113.847 91.7687 113.905 91.8123 113.952 91.8664C113.999 91.9206 114.034 91.9842 114.055 92.0528C115.033 94.1831 117.005 96.1476 119.754 97.7362C120.057 97.91 120.369 98.0798 120.684 98.2414C120.802 98.3042 120.891 98.4111 120.931 98.539C120.971 98.6669 120.959 98.8054 120.898 98.9246C120.853 99.003 120.787 99.0676 120.708 99.1118C120.629 99.1559 120.54 99.1778 120.449 99.1752Z" fill="#121728"/>
<path d="M141.59 41.109C140.976 41.1079 140.388 40.8636 139.954 40.4294C139.52 39.9953 139.275 39.4068 139.274 38.7928V38.3886C138.811 38.487 138.333 38.4847 137.871 38.3821C137.409 38.2794 136.975 38.0787 136.597 37.7935C136.22 37.5083 135.908 37.1454 135.683 36.7292C135.458 36.313 135.325 35.8533 135.293 35.3812L135.082 32.293C133.288 31.529 131.994 29.5806 131.04 26.1933C131.012 26.0928 131.016 25.9862 131.051 25.8879C131.085 25.7896 131.149 25.7043 131.234 25.6435C131.319 25.5824 131.421 25.5494 131.525 25.5494C131.63 25.5494 131.732 25.5824 131.816 25.6435C133.243 26.6541 135.899 26.9289 138.579 26.3428C139.63 26.1165 140.487 26.2297 141.13 26.6864C141.517 26.9675 141.81 27.3592 141.97 27.8102H142.249C142.665 27.8156 143.063 27.9784 143.363 28.2658C143.663 28.5531 143.843 28.9435 143.866 29.3583C143.951 30.9994 143.971 32.7093 143.975 33.8573C143.975 34.9931 143.975 36.0643 143.955 36.9091C143.935 38.0329 143.915 38.7726 143.915 38.7726C143.918 39.0793 143.86 39.3836 143.744 39.6677C143.629 39.9518 143.458 40.2101 143.242 40.4276C143.025 40.645 142.768 40.8172 142.485 40.9342C142.201 41.0512 141.897 41.1106 141.59 41.109ZM139.779 37.1881C139.913 37.1891 140.041 37.2427 140.136 37.3372C140.23 37.4317 140.284 37.5596 140.285 37.6933V38.7928C140.285 39.0519 140.361 39.3052 140.506 39.5204C140.65 39.7357 140.855 39.9031 141.095 40.0015C141.334 40.0999 141.598 40.1248 141.852 40.0729C142.105 40.0211 142.338 39.8949 142.52 39.7104C142.642 39.5885 142.738 39.4434 142.802 39.2837C142.867 39.124 142.899 38.9529 142.896 38.7807C142.896 38.7605 142.916 38.0248 142.936 36.9091C142.936 36.1896 142.957 35.2923 142.957 34.3545L141.514 34.2979C141.401 34.2927 141.294 34.2501 141.209 34.1768C141.124 34.1035 141.066 34.0038 141.045 33.8937L140.556 31.8443C139.606 32.2081 137.637 32.8427 136.109 32.584L136.295 35.3004C136.32 35.6626 136.43 36.0138 136.617 36.3251C136.804 36.6363 137.062 36.8987 137.371 37.0905C137.679 37.2824 138.029 37.3982 138.39 37.4285C138.752 37.4588 139.116 37.4027 139.452 37.2649L139.577 37.2123C139.639 37.1964 139.704 37.191 139.767 37.1961L139.779 37.1881ZM141.938 33.3035L142.953 33.3439C142.953 32.2444 142.92 30.8054 142.847 29.423C142.839 29.2646 142.771 29.1151 142.657 29.0049C142.543 28.8946 142.392 28.8316 142.233 28.8288H141.574C141.452 28.8269 141.334 28.7808 141.243 28.6992C141.151 28.6175 141.093 28.5057 141.077 28.3841C141.011 28.0362 140.816 27.726 140.531 27.5151C140.268 27.3692 139.978 27.2786 139.678 27.2487C139.379 27.2188 139.076 27.2503 138.789 27.3413C136.396 27.8667 134.064 27.7455 132.37 27.0866C133.227 29.5887 134.31 30.9873 135.725 31.4683C135.887 31.5238 136.054 31.5671 136.222 31.5977C137.952 31.9372 140.669 30.7286 140.705 30.7165C140.773 30.6859 140.847 30.6707 140.921 30.6719C140.996 30.6731 141.069 30.6908 141.136 30.7236C141.202 30.7564 141.261 30.8036 141.308 30.8618C141.354 30.9199 141.387 30.9877 141.404 31.0601L141.938 33.3035Z" fill="#121728"/>
<path d="M138.627 66.4576C138.547 66.4586 138.468 66.4391 138.397 66.401C137.271 65.8126 136.245 65.05 135.357 64.1414C134.823 63.593 134.447 62.9099 134.27 62.1648C134.209 61.8995 134.176 61.6285 134.173 61.3563L133.91 51.2832C133.908 51.2168 133.92 51.1508 133.944 51.0889C133.968 51.027 134.004 50.9704 134.049 50.9223C134.095 50.8743 134.15 50.8357 134.211 50.8089C134.271 50.782 134.337 50.7674 134.403 50.7658C134.47 50.7642 134.536 50.7757 134.597 50.7996C134.659 50.8235 134.716 50.8594 134.764 50.9052C134.812 50.951 134.851 51.0058 134.878 51.0665C134.904 51.1272 134.919 51.1926 134.921 51.2589L135.171 61.3402C135.175 61.5429 135.199 61.7447 135.244 61.9424C135.291 62.138 135.356 62.3288 135.438 62.5124C135.59 62.8534 135.802 63.1642 136.065 63.43C136.878 64.2639 137.818 64.9638 138.85 65.5036C138.95 65.5558 139.031 65.6403 139.077 65.7435C139.124 65.8468 139.135 65.9628 139.108 66.0729C139.081 66.183 139.018 66.2808 138.928 66.3506C138.839 66.4204 138.729 66.4581 138.615 66.4576H138.627Z" fill="#121728"/>
<path d="M134.427 51.7724C134.298 51.7716 134.173 51.7214 134.079 51.632C133.986 51.5426 133.929 51.4208 133.922 51.2914V51.2146L133.752 44.3429C133.75 44.2092 133.801 44.0799 133.893 43.9831C133.985 43.8863 134.112 43.8297 134.245 43.8255C134.379 43.8243 134.507 43.8751 134.604 43.9672C134.701 44.0593 134.758 44.1853 134.763 44.3186L134.937 51.2429C134.94 51.3093 134.93 51.3756 134.908 51.4382C134.885 51.5007 134.851 51.5583 134.806 51.6075C134.761 51.6567 134.707 51.6965 134.647 51.7249C134.587 51.7532 134.522 51.7693 134.456 51.7724H134.427Z" fill="#121728"/>
<path d="M119.156 65.8756H119.055C118.989 65.8635 118.926 65.8383 118.869 65.8016C118.813 65.7648 118.765 65.7171 118.727 65.6614C118.689 65.6057 118.663 65.543 118.65 65.4771C118.637 65.4111 118.637 65.3432 118.651 65.2773C118.69 65.0875 118.758 64.9048 118.853 64.7357C118.895 64.6552 118.944 64.5782 118.998 64.5053L127.608 52.7384C127.93 52.3005 128.155 51.7988 128.267 51.2671L130.935 39.7185C131.138 38.7752 131.536 37.8849 132.104 37.1051C132.672 36.3253 133.398 35.6733 134.233 35.1912L134.387 35.1023C134.611 34.9736 134.841 34.8576 135.078 34.7547C135.201 34.7011 135.341 34.6986 135.466 34.7479C135.591 34.7972 135.691 34.8941 135.745 35.0174C135.799 35.1407 135.801 35.2802 135.752 35.4053C135.703 35.5304 135.606 35.6308 135.482 35.6844C135.283 35.7708 135.089 35.868 134.9 35.9754L134.751 36.0644C134.034 36.4752 133.411 37.0323 132.924 37.6995C132.436 38.3667 132.095 39.1289 131.921 39.9368L129.253 51.4854C129.111 52.154 128.828 52.7849 128.425 53.3367L119.807 65.1116C119.781 65.1464 119.758 65.1828 119.738 65.2208C119.692 65.3014 119.66 65.3887 119.641 65.4795C119.616 65.5904 119.555 65.6899 119.467 65.7617C119.379 65.8336 119.27 65.8737 119.156 65.8756Z" fill="#121728"/>
<path d="M119.322 65.4874C119.246 65.4879 119.171 65.4698 119.103 65.4349H119.079L116.989 64.2222L115.635 65.0024C115.578 65.0403 115.513 65.0662 115.445 65.0782C115.377 65.0903 115.308 65.0884 115.241 65.0726C115.174 65.0569 115.111 65.0275 115.055 64.9865C115 64.9454 114.954 64.8935 114.919 64.8339C114.885 64.7743 114.863 64.7082 114.855 64.6398C114.847 64.5714 114.853 64.5021 114.872 64.4361C114.892 64.3701 114.925 64.3089 114.969 64.2561C115.014 64.2033 115.068 64.1602 115.13 64.1293L116.747 63.1996C116.823 63.1548 116.911 63.1312 116.999 63.1312C117.088 63.1312 117.175 63.1548 117.252 63.1996L119.56 64.5537C119.676 64.6193 119.761 64.7271 119.799 64.8545C119.837 64.9819 119.823 65.1189 119.762 65.2368C119.717 65.3137 119.653 65.3774 119.576 65.4214C119.498 65.4654 119.411 65.4882 119.322 65.4874Z" fill="#121728"/>
<path d="M123.202 81.717C123.091 81.7162 122.984 81.679 122.897 81.6112C122.809 81.5434 122.746 81.4487 122.718 81.3417C122.689 81.2347 122.697 81.1213 122.739 81.0189C122.781 80.9166 122.856 80.8309 122.952 80.7752L134.314 74.2147L132.665 73.2607C132.584 73.217 132.517 73.1522 132.47 73.0732C132.423 72.9942 132.398 72.9039 132.398 72.812C132.398 72.7459 132.41 72.6803 132.435 72.619C132.46 72.5577 132.497 72.502 132.544 72.455C132.59 72.408 132.646 72.3707 132.707 72.3453C132.768 72.3199 132.833 72.3068 132.899 72.3068C132.99 72.307 133.079 72.3306 133.158 72.3755L135.583 73.7781C135.66 73.8226 135.723 73.8864 135.767 73.963C135.811 74.0396 135.834 74.1264 135.834 74.2147C135.834 74.3035 135.81 74.3906 135.766 74.4678C135.723 74.5449 135.66 74.6095 135.583 74.6553L123.457 81.6523C123.379 81.6949 123.291 81.7172 123.202 81.717Z" fill="#121728"/>
<path d="M128.498 70.7787C128.41 70.7793 128.324 70.757 128.247 70.714L121.965 67.0761C121.908 67.0429 121.857 66.9987 121.817 66.946C121.776 66.8933 121.747 66.8332 121.729 66.769C121.712 66.7048 121.708 66.6378 121.716 66.5719C121.725 66.506 121.746 66.4425 121.779 66.3849C121.813 66.3273 121.857 66.2768 121.91 66.2362C121.962 66.1957 122.022 66.166 122.087 66.1487C122.151 66.1315 122.218 66.127 122.284 66.1356C122.35 66.1442 122.413 66.1657 122.471 66.1989L128.752 69.8369C128.81 69.8703 128.86 69.9147 128.9 69.9676C128.94 70.0204 128.97 70.0806 128.986 70.1448C129.003 70.209 129.007 70.2759 128.998 70.3417C128.989 70.4074 128.968 70.4708 128.934 70.5281C128.89 70.6047 128.826 70.6682 128.75 70.7122C128.673 70.7562 128.586 70.7792 128.498 70.7787Z" fill="#121728"/>
<path d="M127.2 75.395C126.893 75.3958 126.594 75.2973 126.347 75.1142C126.101 74.931 125.92 74.6731 125.833 74.3789C125.745 74.0846 125.755 73.7699 125.86 73.4817C125.966 73.1935 126.162 72.9472 126.42 72.7797L127.936 71.8015L127.345 71.563C127.141 71.4796 126.973 71.3269 126.87 71.1317C126.767 70.9365 126.737 70.7114 126.784 70.4958C126.834 70.2822 126.956 70.0924 127.13 69.9584C127.304 69.8244 127.518 69.7544 127.738 69.7602L131.343 69.8087H131.371C131.777 69.808 132.174 69.6871 132.511 69.461L144.666 61.2837C144.835 61.1707 144.978 61.0221 145.083 60.8482C145.189 60.6743 145.255 60.4793 145.277 60.2772L146.695 46.7681C146.703 46.7025 146.722 46.6389 146.754 46.5811C146.786 46.5232 146.829 46.4721 146.88 46.4308C146.931 46.3895 146.991 46.3587 147.054 46.3403C147.117 46.3219 147.184 46.3162 147.249 46.3235C147.315 46.3301 147.38 46.3496 147.438 46.381C147.497 46.4124 147.548 46.455 147.59 46.5065C147.633 46.5579 147.664 46.6171 147.683 46.6808C147.702 46.7444 147.709 46.8112 147.702 46.8773L146.279 60.3823C146.244 60.733 146.132 61.0717 145.95 61.3737C145.769 61.6758 145.522 61.9336 145.228 62.1285L133.069 70.3099C132.556 70.6614 131.945 70.8425 131.323 70.8273L128.089 70.7869L129.205 71.2356C129.288 71.2698 129.361 71.325 129.416 71.3959C129.471 71.4668 129.507 71.5508 129.52 71.6398C129.528 71.7321 129.511 71.825 129.471 71.9083C129.43 71.9916 129.368 72.0623 129.29 72.1127L126.953 73.6205C126.903 73.6528 126.861 73.6957 126.83 73.7462C126.798 73.7967 126.778 73.8535 126.772 73.9126C126.765 73.9716 126.771 74.0315 126.79 74.0879C126.808 74.1444 126.84 74.1959 126.881 74.2389C126.933 74.299 127.002 74.3421 127.079 74.363C127.156 74.3838 127.238 74.3814 127.313 74.3561C128.687 73.8913 130.502 73.2122 132.705 72.335C137.35 70.4837 142.726 68.1433 145.519 66.9104C147.035 66.2354 148.086 65.7624 148.385 65.625C148.96 65.359 149.475 64.9779 149.897 64.5053C150.53 63.7959 150.935 62.9131 151.061 61.9708L152.722 49.5653C152.889 48.2836 152.774 46.9811 152.388 45.7479C152.001 44.5147 151.351 43.3802 150.483 42.4228C149.991 41.8828 149.436 41.4037 148.83 40.9959C146.748 39.5932 144.84 38.3684 143.171 37.3579L143.094 37.3134C142.981 37.2453 142.899 37.1356 142.866 37.0079C142.833 36.8802 142.851 36.7446 142.916 36.6301C142.982 36.5155 143.089 36.4311 143.216 36.3949C143.343 36.3587 143.479 36.3735 143.595 36.4363L143.72 36.5131C145.39 37.5115 147.314 38.7443 149.412 40.151C150.084 40.6047 150.7 41.1366 151.247 41.7356C152.215 42.8021 152.939 44.0664 153.369 45.4409C153.799 46.8153 153.924 48.2668 153.737 49.6947L152.076 62.1285C151.924 63.2747 151.429 64.3484 150.657 65.2086C150.141 65.7788 149.518 66.2405 148.822 66.5668C148.519 66.7043 147.464 67.1812 145.94 67.8563C143.138 69.0932 137.75 71.4417 133.089 73.2971C130.874 74.1823 129.047 74.8655 127.645 75.3182C127.501 75.3676 127.351 75.3936 127.2 75.395Z" fill="#121728"/>
<path d="M123.202 81.7168C123.113 81.7186 123.024 81.6947 122.948 81.6481H122.927L104.62 71.0616C104.513 71.0013 104.433 70.9033 104.394 70.7867L99.2887 55.7053C99.2557 55.6085 99.2532 55.504 99.2814 55.4057C99.3096 55.3074 99.3671 55.2202 99.4463 55.1555C99.5256 55.0899 99.6231 55.0501 99.7257 55.0415C99.8283 55.0328 99.9311 55.0557 100.02 55.107L118.356 65.6895C118.462 65.7509 118.542 65.8485 118.582 65.9644L123.687 81.066C123.71 81.1416 123.715 81.2214 123.701 81.2991C123.687 81.3768 123.656 81.4503 123.609 81.5135C123.561 81.5768 123.5 81.6281 123.43 81.6634C123.359 81.6987 123.281 81.717 123.202 81.7168ZM105.291 70.2855L122.297 80.104L117.685 66.4696L100.675 56.6511L105.291 70.2855Z" fill="#121728"/>
<path d="M118.404 67.5289C118.331 67.5297 118.26 67.5145 118.194 67.4844C118.073 67.4273 117.979 67.3252 117.932 67.1998C117.885 67.0745 117.889 66.9359 117.943 66.8134L118.691 65.1682L118.938 64.6104C118.995 64.4894 119.097 64.3955 119.222 64.3487C119.347 64.3019 119.486 64.3059 119.609 64.3598C119.669 64.3873 119.724 64.4264 119.769 64.4751C119.815 64.5237 119.85 64.5808 119.873 64.6432C119.897 64.7055 119.907 64.7719 119.905 64.8384C119.902 64.9049 119.887 64.9703 119.859 65.0308L119.604 65.5927C119.604 65.6061 119.604 65.6196 119.604 65.6331L118.869 67.2499C118.826 67.3358 118.759 67.4076 118.677 67.457C118.595 67.5064 118.5 67.5313 118.404 67.5289Z" fill="#121728"/>
<path d="M119.48 70.706C119.374 70.7069 119.271 70.6744 119.184 70.613C119.076 70.5338 119.004 70.415 118.982 70.2826C118.961 70.1502 118.993 70.0147 119.071 69.9056L120.151 68.4141C120.193 68.3555 120.247 68.3068 120.31 68.2712C120.373 68.2357 120.442 68.2141 120.514 68.2079C120.588 68.1996 120.663 68.208 120.733 68.2325C120.803 68.257 120.866 68.297 120.919 68.3494L121.646 69.0568C121.659 69.0676 121.676 69.0736 121.693 69.0736C121.71 69.0736 121.726 69.0676 121.739 69.0568C121.751 69.0524 121.761 69.0448 121.769 69.0348C121.777 69.0248 121.782 69.0128 121.784 69.0002L121.723 66.3445C121.723 66.2103 121.775 66.0814 121.868 65.9847L132.516 55.1557C132.921 54.7398 133.208 54.2236 133.348 53.66L133.955 51.162C133.982 51.0409 134.052 50.934 134.153 50.8616C134.254 50.7892 134.377 50.7564 134.501 50.7694C134.624 50.7824 134.738 50.8403 134.822 50.932C134.905 51.0238 134.952 51.143 134.953 51.2671C134.957 51.3087 134.957 51.3507 134.953 51.3924L134.343 53.8985C134.161 54.639 133.784 55.3173 133.251 55.863L122.742 66.5385V66.6274L122.794 68.9759C122.801 69.1918 122.743 69.4046 122.627 69.5872C122.512 69.7698 122.345 69.9137 122.147 70.0006C121.95 70.0875 121.73 70.1133 121.518 70.0748C121.306 70.0363 121.11 69.9351 120.955 69.7844L120.648 69.4893L119.908 70.5079C119.858 70.5733 119.793 70.6256 119.718 70.6601C119.644 70.6946 119.562 70.7104 119.48 70.706Z" fill="#121728"/>
<path d="M124.577 111.132H123.853C122.531 111.153 121.216 110.938 119.969 110.497C119.722 110.395 119.483 110.274 119.253 110.138C118.965 109.959 118.736 109.699 118.596 109.39C118.456 109.082 118.41 108.738 118.465 108.404L122.507 81.8786C122.549 81.6034 122.617 81.3327 122.709 81.0702C122.74 80.9519 122.812 80.8487 122.913 80.7797C123.014 80.7107 123.136 80.6805 123.258 80.6948C123.379 80.7091 123.491 80.7669 123.573 80.8575C123.655 80.948 123.701 81.0653 123.704 81.1874C123.703 81.2379 123.696 81.2881 123.683 81.337C123.685 81.3544 123.685 81.372 123.683 81.3895C123.609 81.6021 123.555 81.8214 123.522 82.0444L119.48 108.565C119.455 108.703 119.472 108.846 119.528 108.974C119.584 109.103 119.677 109.212 119.795 109.289C119.98 109.398 120.174 109.494 120.373 109.576C121.503 109.966 122.694 110.155 123.89 110.134H124.593C124.761 110.133 124.923 110.077 125.055 109.973C125.186 109.868 125.278 109.723 125.317 109.56C126.012 106.552 126.602 103.779 127.115 101.091C127.778 97.6392 128.328 94.3124 128.946 89.9549C129.128 88.6736 129.314 87.3477 129.504 85.9491C129.574 85.415 129.788 84.9099 130.123 84.4878C130.457 84.0656 130.9 83.7422 131.404 83.5521C135.25 82.1819 138.985 80.5198 142.577 78.5802C144.968 77.2384 146.921 75.2335 148.199 72.8072C149.477 70.3809 150.026 67.6367 149.78 64.9054C149.773 64.8392 149.78 64.7723 149.799 64.7087C149.819 64.6451 149.851 64.586 149.893 64.5348C149.936 64.4836 149.988 64.4414 150.047 64.4107C150.106 64.3799 150.17 64.3612 150.237 64.3557C150.303 64.3495 150.369 64.3565 150.433 64.3761C150.496 64.3958 150.555 64.4277 150.606 64.4701C150.657 64.5126 150.699 64.5646 150.73 64.6234C150.761 64.6821 150.78 64.7463 150.786 64.8124C150.858 65.619 150.866 66.4299 150.811 67.2378C150.643 69.7577 149.846 72.1955 148.494 74.3286C147.142 76.4616 145.277 78.2221 143.07 79.4492C139.43 81.4123 135.647 83.096 131.752 84.4858C131.417 84.6085 131.123 84.8202 130.9 85.098C130.677 85.3758 130.534 85.7092 130.486 86.0623C130.297 87.4609 130.111 88.7908 129.929 90.0722C129.306 94.4458 128.756 97.7887 128.089 101.257C127.572 103.957 126.978 106.742 126.279 109.746C126.196 110.136 125.982 110.487 125.673 110.74C125.363 110.992 124.976 111.13 124.577 111.132Z" fill="#121728"/>
<path d="M115.603 120.07C114.73 120.07 114.33 119.5 114.33 118.97C114.33 118.246 114.92 117.559 115.741 116.609C117.533 114.682 118.877 112.382 119.678 109.875C119.696 109.81 119.726 109.749 119.768 109.696C119.81 109.643 119.862 109.599 119.921 109.566C119.98 109.534 120.046 109.513 120.113 109.506C120.18 109.499 120.248 109.506 120.312 109.526C120.377 109.545 120.437 109.578 120.489 109.621C120.541 109.665 120.583 109.718 120.614 109.778C120.645 109.838 120.664 109.904 120.669 109.971C120.674 110.038 120.665 110.106 120.644 110.17C119.56 113.711 117.721 115.829 116.505 117.268C115.882 117.992 115.34 118.622 115.34 118.97C115.34 119.059 115.579 119.059 115.603 119.059C117.006 119.059 122.289 117.018 123.364 110.538C123.388 110.407 123.462 110.291 123.572 110.215C123.681 110.14 123.815 110.11 123.946 110.134C124.076 110.159 124.191 110.234 124.266 110.343C124.342 110.452 124.372 110.585 124.35 110.716C123.19 117.765 117.45 120.07 115.603 120.07Z" fill="#121728"/>
<path d="M122.216 67.064C122.094 67.065 121.976 67.0218 121.883 66.9425C121.79 66.8631 121.73 66.7529 121.712 66.6322C121.694 66.5115 121.721 66.3885 121.787 66.2858C121.852 66.1832 121.953 66.1078 122.07 66.0737L134.84 62.2417C134.904 62.2182 134.973 62.2082 135.042 62.2122C135.11 62.2162 135.177 62.2341 135.239 62.2649C135.3 62.2957 135.355 62.3387 135.399 62.3913C135.443 62.4439 135.476 62.505 135.496 62.5708C135.516 62.6366 135.522 62.7058 135.514 62.7741C135.506 62.8424 135.485 62.9084 135.451 62.968C135.416 63.0276 135.37 63.0796 135.315 63.1208C135.26 63.1621 135.198 63.1916 135.131 63.2078L122.361 67.0438C122.314 67.0584 122.265 67.0653 122.216 67.064Z" fill="#121728"/>
<path d="M109.273 105.586H108.804C107.405 105.58 106.035 105.195 104.838 104.471C104.628 104.341 104.434 104.208 104.224 104.066C103.985 103.895 103.798 103.662 103.682 103.392C103.566 103.122 103.525 102.825 103.565 102.534L107.446 73.9034C107.518 73.3901 107.669 72.891 107.894 72.424C107.957 72.3112 108.06 72.2265 108.183 72.1874C108.306 72.1482 108.439 72.1574 108.555 72.2132C108.671 72.269 108.762 72.3671 108.808 72.4875C108.854 72.6078 108.853 72.7413 108.804 72.8605C108.626 73.2335 108.506 73.6315 108.448 74.0409L104.568 102.672C104.551 102.779 104.564 102.888 104.606 102.988C104.647 103.087 104.715 103.174 104.802 103.238C104.992 103.367 105.178 103.492 105.364 103.61C106.416 104.241 107.621 104.573 108.848 104.572C109.087 104.572 109.35 104.572 109.62 104.572C109.745 104.57 109.866 104.531 109.967 104.459C110.068 104.386 110.145 104.285 110.186 104.167C111.454 100.252 112.429 96.2469 113.101 92.1863C113.612 88.9004 113.898 85.5835 113.958 82.2587C113.982 81.3815 113.99 80.472 113.986 79.4776C113.988 78.9678 114.135 78.4691 114.41 78.0396C114.685 77.6102 115.076 77.2677 115.538 77.0523L116.088 76.7976C116.21 76.7414 116.349 76.7357 116.474 76.782C116.6 76.8282 116.703 76.9226 116.759 77.0442C116.815 77.1659 116.821 77.305 116.775 77.4308C116.728 77.5566 116.634 77.659 116.512 77.7152L115.963 77.9699C115.673 78.1044 115.428 78.319 115.257 78.5884C115.086 78.8578 114.995 79.1706 114.996 79.4898C114.996 80.4922 114.997 81.4139 114.968 82.2991C114.908 85.6564 114.619 89.0058 114.103 92.3238C113.422 96.4333 112.438 100.487 111.156 104.45C111.056 104.774 110.855 105.058 110.584 105.262C110.313 105.466 109.984 105.58 109.645 105.586H109.273Z" fill="#121728"/>
<path d="M100.02 112.773C99.7781 112.792 99.5346 112.759 99.3064 112.676C99.0782 112.592 98.8706 112.461 98.6977 112.29C98.5248 112.12 98.3906 111.914 98.3043 111.687C98.2179 111.46 98.1814 111.217 98.1972 110.974C98.1972 110.23 98.945 109.669 100.061 108.824C101.492 107.736 103.452 106.253 104.645 103.807C104.671 103.744 104.71 103.686 104.76 103.639C104.81 103.591 104.869 103.554 104.933 103.53C104.998 103.505 105.066 103.495 105.135 103.498C105.204 103.501 105.271 103.519 105.333 103.549C105.395 103.579 105.45 103.622 105.495 103.675C105.54 103.727 105.573 103.788 105.593 103.854C105.614 103.92 105.62 103.989 105.613 104.057C105.605 104.126 105.584 104.192 105.55 104.252C104.256 106.912 102.098 108.545 100.671 109.628C100.057 110.097 99.2118 110.736 99.2078 110.974C99.2078 111.504 99.4745 111.762 100.016 111.762C101.095 111.762 107.223 109.398 108.323 104.963C108.347 104.85 108.409 104.748 108.498 104.675C108.588 104.601 108.7 104.56 108.816 104.559C108.882 104.559 108.948 104.571 109.009 104.596C109.07 104.621 109.126 104.658 109.173 104.705C109.22 104.751 109.257 104.807 109.283 104.868C109.308 104.929 109.321 104.994 109.321 105.061C109.325 105.102 109.325 105.144 109.321 105.186C108.068 110.23 101.273 112.773 100.02 112.773Z" fill="#121728"/>
<path d="M147.249 67.921C146.736 67.921 146.214 67.921 145.701 67.8846C145.635 67.8814 145.57 67.8652 145.51 67.8369C145.449 67.8085 145.396 67.7687 145.351 67.7195C145.306 67.6703 145.272 67.6128 145.249 67.5503C145.227 67.4878 145.217 67.4214 145.22 67.3551C145.223 67.2887 145.239 67.2237 145.268 67.1636C145.296 67.1035 145.336 67.0496 145.385 67.0049C145.434 66.9602 145.492 66.9257 145.554 66.9033C145.617 66.8808 145.683 66.8709 145.75 66.8741C146.247 66.8983 146.752 66.9105 147.249 66.9105C148.247 66.9126 149.245 66.8559 150.236 66.7407C150.304 66.7299 150.372 66.7327 150.438 66.7491C150.504 66.7654 150.566 66.795 150.621 66.8359C150.675 66.8768 150.721 66.9283 150.754 66.9872C150.788 67.0461 150.81 67.1113 150.818 67.1789C150.827 67.2464 150.821 67.3149 150.802 67.3802C150.783 67.4455 150.751 67.5064 150.708 67.5591C150.665 67.6117 150.612 67.6552 150.552 67.6869C150.491 67.7185 150.425 67.7376 150.358 67.7432C149.326 67.865 148.288 67.9244 147.249 67.921Z" fill="#121728"/>
<path d="M150.819 60.8106C149.323 60.8106 147.205 60.4953 145.608 58.9916C145.511 58.8994 145.454 58.7723 145.45 58.6381C145.446 58.5039 145.496 58.3737 145.588 58.2761C145.68 58.1786 145.808 58.1217 145.942 58.1179C146.076 58.1141 146.206 58.1637 146.304 58.2559C147.658 59.5333 149.505 59.8001 150.819 59.8001C151.133 59.8013 151.448 59.7865 151.761 59.7556C151.894 59.7427 152.027 59.7834 152.131 59.8687C152.234 59.954 152.3 60.0769 152.312 60.2104C152.325 60.3438 152.285 60.4769 152.199 60.5804C152.114 60.6839 151.991 60.7492 151.858 60.7621C151.51 60.7944 151.166 60.8106 150.819 60.8106Z" fill="#121728"/>
<path d="M134.423 51.6913H134.363C133.283 51.5776 132.246 51.2122 131.333 50.6246C130.42 50.0371 129.658 49.2436 129.108 48.308C129.084 48.2716 129.063 48.2353 129.043 48.1989C128.98 48.0828 128.966 47.9468 129.002 47.8199C129.038 47.6931 129.122 47.5854 129.237 47.5199C129.352 47.4545 129.487 47.4364 129.615 47.4696C129.743 47.5028 129.852 47.5847 129.92 47.6977V47.734L129.949 47.7785C130.414 48.5872 131.066 49.273 131.85 49.7792C132.634 50.2854 133.527 50.5973 134.456 50.6889C134.583 50.7051 134.7 50.7693 134.782 50.8685C134.863 50.9676 134.904 51.0942 134.896 51.2225C134.888 51.3508 134.831 51.4711 134.737 51.559C134.643 51.6468 134.52 51.6956 134.391 51.6954L134.423 51.6913Z" fill="#121728"/>
<path d="M134.763 62.5569C134.675 62.5575 134.589 62.5352 134.512 62.4923L129.189 59.4202C129.131 59.387 129.081 59.3428 129.04 59.2901C129 59.2374 128.97 59.1773 128.953 59.1131C128.935 59.0489 128.931 58.982 128.94 58.916C128.948 58.8501 128.97 58.7866 129.003 58.729C129.036 58.6714 129.08 58.6209 129.133 58.5804C129.186 58.5398 129.246 58.5101 129.31 58.4929C129.374 58.4756 129.441 58.4711 129.507 58.4797C129.573 58.4883 129.636 58.5099 129.694 58.543L135.018 61.6151C135.075 61.6485 135.125 61.6929 135.165 61.7458C135.206 61.7986 135.235 61.8588 135.252 61.923C135.269 61.9872 135.273 62.0541 135.264 62.1199C135.255 62.1856 135.233 62.249 135.2 62.3063C135.155 62.3829 135.092 62.4464 135.015 62.4904C134.938 62.5344 134.851 62.5574 134.763 62.5569Z" fill="#121728"/>
<path d="M135.624 91.0098C133.523 91.014 131.425 90.8477 129.351 90.5126C129.285 90.502 129.222 90.4786 129.166 90.4437C129.109 90.4088 129.06 90.3631 129.021 90.3092C128.982 90.2554 128.955 90.1944 128.939 90.1297C128.924 90.0651 128.922 89.9981 128.932 89.9325C128.943 89.867 128.966 89.8042 129.001 89.7477C129.036 89.6912 129.082 89.6421 129.136 89.6032C129.19 89.5644 129.251 89.5365 129.315 89.5212C129.38 89.506 129.447 89.5036 129.512 89.5142C137.362 90.7915 145.806 89.5142 151.546 86.2077C155.698 83.8187 157.982 80.6658 157.982 77.3148C157.981 76.9085 157.948 76.5029 157.881 76.1022C157.86 75.989 157.84 75.8758 157.816 75.7667C157.193 72.9695 155.027 70.4431 151.546 68.4462C151.082 68.1754 150.592 67.9167 150.091 67.6742C150.031 67.6452 149.978 67.6048 149.934 67.5552C149.89 67.5057 149.856 67.4479 149.834 67.3852C149.812 67.3225 149.803 67.2562 149.807 67.1899C149.811 67.1237 149.828 67.0588 149.857 66.9991C149.886 66.9394 149.926 66.886 149.976 66.8419C150.025 66.7978 150.083 66.7639 150.146 66.7421C150.208 66.7203 150.275 66.7111 150.341 66.715C150.407 66.7188 150.472 66.7357 150.532 66.7647C151.053 67.0153 151.567 67.2861 152.052 67.5731C155.783 69.7155 158.115 72.4723 158.798 75.5443C158.83 75.6696 158.855 75.8071 158.875 75.9486C158.954 76.4078 158.993 76.8731 158.992 77.3391C158.992 81.0579 156.526 84.5261 152.052 87.101C147.577 89.6759 141.7 91.0098 135.624 91.0098Z" fill="#121728"/>
<path d="M122.087 88.4351C122.019 88.4354 121.951 88.4216 121.889 88.3947C120.983 88.0111 120.102 87.5738 119.249 87.085C117.201 85.9712 115.424 84.4183 114.047 82.5375C113.973 82.4276 113.946 82.2932 113.97 82.1633C113.995 82.0334 114.069 81.9182 114.178 81.8426C114.286 81.7669 114.42 81.7368 114.55 81.7587C114.681 81.7805 114.798 81.8526 114.875 81.9595C116.169 83.7203 117.839 85.1715 119.762 86.2079C120.579 86.6783 121.424 87.0981 122.293 87.465C122.4 87.5106 122.488 87.5919 122.542 87.695C122.596 87.7982 122.613 87.9168 122.59 88.0309C122.567 88.1451 122.505 88.2476 122.414 88.3213C122.324 88.3949 122.211 88.4351 122.095 88.4351H122.087Z" fill="#121728"/>
<path d="M135.616 102.518C132.885 102.523 130.161 102.237 127.491 101.665C127.424 101.654 127.359 101.629 127.301 101.592C127.244 101.555 127.194 101.507 127.156 101.45C127.117 101.394 127.091 101.33 127.078 101.263C127.065 101.195 127.065 101.126 127.08 101.059C127.094 100.993 127.122 100.929 127.162 100.873C127.202 100.818 127.253 100.771 127.311 100.735C127.369 100.699 127.435 100.676 127.502 100.666C127.57 100.657 127.639 100.661 127.705 100.679C135.972 102.474 145.329 101.309 151.554 97.7159C155.706 95.3189 157.99 92.166 157.99 88.8231V77.323C157.99 77.189 158.043 77.0605 158.138 76.9657C158.232 76.871 158.361 76.8177 158.495 76.8177C158.629 76.8177 158.757 76.871 158.852 76.9657C158.947 77.0605 159 77.189 159 77.323V88.8312C159 92.5419 156.534 96.0061 152.06 98.5931C147.585 101.18 141.671 102.518 135.616 102.518Z" fill="#121728"/>
<path d="M120.449 99.1752C120.369 99.1762 120.29 99.1567 120.219 99.1186C119.892 98.9488 119.568 98.775 119.249 98.5931C116.318 96.8954 114.204 94.7732 113.137 92.4571C113.1 92.3956 113.077 92.3269 113.069 92.2558C113.06 92.1846 113.067 92.1124 113.089 92.0442C113.111 91.9759 113.147 91.9129 113.195 91.8596C113.242 91.8063 113.301 91.7638 113.367 91.7349C113.432 91.706 113.503 91.6914 113.575 91.692C113.647 91.6927 113.717 91.7086 113.782 91.7386C113.847 91.7687 113.905 91.8123 113.952 91.8664C113.999 91.9206 114.034 91.9842 114.055 92.0528C115.033 94.1831 117.005 96.1476 119.754 97.7362C120.057 97.91 120.369 98.0798 120.684 98.2414C120.802 98.3042 120.891 98.4111 120.931 98.539C120.971 98.6669 120.959 98.8054 120.898 98.9246C120.853 99.003 120.787 99.0676 120.708 99.1118C120.629 99.1559 120.54 99.1778 120.449 99.1752Z" fill="#121728"/>
<path d="M141.59 41.109C140.976 41.1079 140.388 40.8636 139.954 40.4294C139.52 39.9953 139.275 39.4068 139.274 38.7928V38.3886C138.811 38.487 138.333 38.4847 137.871 38.3821C137.409 38.2794 136.975 38.0787 136.597 37.7935C136.22 37.5083 135.908 37.1454 135.683 36.7292C135.458 36.313 135.325 35.8533 135.293 35.3812L135.082 32.293C133.288 31.529 131.994 29.5806 131.04 26.1933C131.012 26.0928 131.016 25.9862 131.051 25.8879C131.085 25.7896 131.149 25.7043 131.234 25.6435C131.319 25.5824 131.421 25.5494 131.525 25.5494C131.63 25.5494 131.732 25.5824 131.816 25.6435C133.243 26.6541 135.899 26.9289 138.579 26.3428C139.63 26.1165 140.487 26.2297 141.13 26.6864C141.517 26.9675 141.81 27.3592 141.97 27.8102H142.249C142.665 27.8156 143.063 27.9784 143.363 28.2658C143.663 28.5531 143.843 28.9435 143.866 29.3583C143.951 30.9994 143.971 32.7093 143.975 33.8573C143.975 34.9931 143.975 36.0643 143.955 36.9091C143.935 38.0329 143.915 38.7726 143.915 38.7726C143.918 39.0793 143.86 39.3836 143.744 39.6677C143.629 39.9518 143.458 40.2101 143.242 40.4276C143.025 40.645 142.768 40.8172 142.485 40.9342C142.201 41.0512 141.897 41.1106 141.59 41.109ZM139.779 37.1881C139.913 37.1891 140.041 37.2427 140.136 37.3372C140.23 37.4317 140.284 37.5596 140.285 37.6933V38.7928C140.285 39.0519 140.361 39.3052 140.506 39.5204C140.65 39.7357 140.855 39.9031 141.095 40.0015C141.334 40.0999 141.598 40.1248 141.852 40.0729C142.105 40.0211 142.338 39.8949 142.52 39.7104C142.642 39.5885 142.738 39.4434 142.802 39.2837C142.867 39.124 142.899 38.9529 142.896 38.7807C142.896 38.7605 142.916 38.0248 142.936 36.9091C142.936 36.1896 142.957 35.2923 142.957 34.3545L141.514 34.2979C141.401 34.2927 141.294 34.2501 141.209 34.1768C141.124 34.1035 141.066 34.0038 141.045 33.8937L140.556 31.8443C139.606 32.2081 137.637 32.8427 136.109 32.584L136.295 35.3004C136.32 35.6626 136.43 36.0138 136.617 36.3251C136.804 36.6363 137.062 36.8987 137.371 37.0905C137.679 37.2824 138.029 37.3982 138.39 37.4285C138.752 37.4588 139.116 37.4027 139.452 37.2649L139.577 37.2123C139.639 37.1964 139.704 37.191 139.767 37.1961L139.779 37.1881ZM141.938 33.3035L142.953 33.3439C142.953 32.2444 142.92 30.8054 142.847 29.423C142.839 29.2646 142.771 29.1151 142.657 29.0049C142.543 28.8946 142.392 28.8316 142.233 28.8288H141.574C141.452 28.8269 141.334 28.7808 141.243 28.6992C141.151 28.6175 141.093 28.5057 141.077 28.3841C141.011 28.0362 140.816 27.726 140.531 27.5151C140.268 27.3692 139.978 27.2786 139.678 27.2487C139.379 27.2188 139.076 27.2503 138.789 27.3413C136.396 27.8667 134.064 27.7455 132.37 27.0866C133.227 29.5887 134.31 30.9873 135.725 31.4683C135.887 31.5238 136.054 31.5671 136.222 31.5977C137.952 31.9372 140.669 30.7286 140.705 30.7165C140.773 30.6859 140.847 30.6707 140.921 30.6719C140.996 30.6731 141.069 30.6908 141.136 30.7236C141.202 30.7564 141.261 30.8036 141.308 30.8618C141.354 30.9199 141.387 30.9877 141.404 31.0601L141.938 33.3035Z" fill="#121728"/>
<path d="M138.627 66.4576C138.547 66.4586 138.468 66.4391 138.397 66.401C137.271 65.8126 136.245 65.05 135.357 64.1414C134.823 63.593 134.447 62.9099 134.27 62.1648C134.209 61.8995 134.176 61.6285 134.173 61.3563L133.91 51.2832C133.908 51.2168 133.92 51.1508 133.944 51.0889C133.968 51.027 134.004 50.9704 134.049 50.9223C134.095 50.8743 134.15 50.8357 134.211 50.8089C134.271 50.782 134.337 50.7674 134.403 50.7658C134.47 50.7642 134.536 50.7757 134.597 50.7996C134.659 50.8235 134.716 50.8594 134.764 50.9052C134.812 50.951 134.851 51.0058 134.878 51.0665C134.904 51.1272 134.919 51.1926 134.921 51.2589L135.171 61.3402C135.175 61.5429 135.199 61.7447 135.244 61.9424C135.291 62.138 135.356 62.3288 135.438 62.5124C135.59 62.8534 135.802 63.1642 136.065 63.43C136.878 64.2639 137.818 64.9638 138.85 65.5036C138.95 65.5558 139.031 65.6403 139.077 65.7435C139.124 65.8468 139.135 65.9628 139.108 66.0729C139.081 66.183 139.018 66.2808 138.928 66.3506C138.839 66.4204 138.729 66.4581 138.615 66.4576H138.627Z" fill="#121728"/>
<path d="M134.427 51.7724C134.298 51.7716 134.173 51.7214 134.079 51.632C133.986 51.5426 133.929 51.4208 133.922 51.2914V51.2146L133.752 44.3429C133.75 44.2092 133.801 44.0799 133.893 43.9831C133.985 43.8863 134.112 43.8297 134.245 43.8255C134.379 43.8243 134.507 43.8751 134.604 43.9672C134.701 44.0593 134.758 44.1853 134.763 44.3186L134.937 51.2429C134.94 51.3093 134.93 51.3756 134.908 51.4382C134.885 51.5007 134.851 51.5583 134.806 51.6075C134.761 51.6567 134.707 51.6965 134.647 51.7249C134.587 51.7532 134.522 51.7693 134.456 51.7724H134.427Z" fill="#121728"/>
<path d="M119.156 65.8756H119.055C118.989 65.8635 118.926 65.8383 118.869 65.8016C118.813 65.7648 118.765 65.7171 118.727 65.6614C118.689 65.6057 118.663 65.543 118.65 65.4771C118.637 65.4111 118.637 65.3432 118.651 65.2773C118.69 65.0875 118.758 64.9048 118.853 64.7357C118.895 64.6552 118.944 64.5782 118.998 64.5053L127.608 52.7384C127.93 52.3005 128.155 51.7988 128.267 51.2671L130.935 39.7185C131.138 38.7752 131.536 37.8849 132.104 37.1051C132.672 36.3253 133.398 35.6733 134.233 35.1912L134.387 35.1023C134.611 34.9736 134.841 34.8576 135.078 34.7547C135.201 34.7011 135.341 34.6986 135.466 34.7479C135.591 34.7972 135.691 34.8941 135.745 35.0174C135.799 35.1407 135.801 35.2802 135.752 35.4053C135.703 35.5304 135.606 35.6308 135.482 35.6844C135.283 35.7708 135.089 35.868 134.9 35.9754L134.751 36.0644C134.034 36.4752 133.411 37.0323 132.924 37.6995C132.436 38.3667 132.095 39.1289 131.921 39.9368L129.253 51.4854C129.111 52.154 128.828 52.7849 128.425 53.3367L119.807 65.1116C119.781 65.1464 119.758 65.1828 119.738 65.2208C119.692 65.3014 119.66 65.3887 119.641 65.4795C119.616 65.5904 119.555 65.6899 119.467 65.7617C119.379 65.8336 119.27 65.8737 119.156 65.8756Z" fill="#121728"/>
<path d="M119.322 65.4874C119.246 65.4879 119.171 65.4698 119.103 65.4349H119.079L116.989 64.2222L115.635 65.0024C115.578 65.0403 115.513 65.0662 115.445 65.0782C115.377 65.0903 115.308 65.0884 115.241 65.0726C115.174 65.0569 115.111 65.0275 115.055 64.9865C115 64.9454 114.954 64.8935 114.919 64.8339C114.885 64.7743 114.863 64.7082 114.855 64.6398C114.847 64.5714 114.853 64.5021 114.872 64.4361C114.892 64.3701 114.925 64.3089 114.969 64.2561C115.014 64.2033 115.068 64.1602 115.13 64.1293L116.747 63.1996C116.823 63.1548 116.911 63.1312 116.999 63.1312C117.088 63.1312 117.175 63.1548 117.252 63.1996L119.56 64.5537C119.676 64.6193 119.761 64.7271 119.799 64.8545C119.837 64.9819 119.823 65.1189 119.762 65.2368C119.717 65.3137 119.653 65.3774 119.576 65.4214C119.498 65.4654 119.411 65.4882 119.322 65.4874Z" fill="#121728"/>
<path d="M123.202 81.717C123.091 81.7162 122.984 81.679 122.897 81.6112C122.809 81.5434 122.746 81.4487 122.718 81.3417C122.689 81.2347 122.697 81.1213 122.739 81.0189C122.781 80.9166 122.856 80.8309 122.952 80.7752L134.314 74.2147L132.665 73.2607C132.584 73.217 132.517 73.1522 132.47 73.0732C132.423 72.9942 132.398 72.9039 132.398 72.812C132.398 72.7459 132.41 72.6803 132.435 72.619C132.46 72.5577 132.497 72.502 132.544 72.455C132.59 72.408 132.646 72.3707 132.707 72.3453C132.768 72.3199 132.833 72.3068 132.899 72.3068C132.99 72.307 133.079 72.3306 133.158 72.3755L135.583 73.7781C135.66 73.8226 135.723 73.8864 135.767 73.963C135.811 74.0396 135.834 74.1264 135.834 74.2147C135.834 74.3035 135.81 74.3906 135.766 74.4678C135.723 74.5449 135.66 74.6095 135.583 74.6553L123.457 81.6523C123.379 81.6949 123.291 81.7172 123.202 81.717Z" fill="#121728"/>
<path d="M128.498 70.7787C128.41 70.7793 128.324 70.757 128.247 70.714L121.965 67.0761C121.908 67.0429 121.857 66.9987 121.817 66.946C121.776 66.8933 121.747 66.8332 121.729 66.769C121.712 66.7048 121.708 66.6378 121.716 66.5719C121.725 66.506 121.746 66.4425 121.779 66.3849C121.813 66.3273 121.857 66.2768 121.91 66.2362C121.962 66.1957 122.022 66.166 122.087 66.1487C122.151 66.1315 122.218 66.127 122.284 66.1356C122.35 66.1442 122.413 66.1657 122.471 66.1989L128.752 69.8369C128.81 69.8703 128.86 69.9147 128.9 69.9676C128.94 70.0204 128.97 70.0806 128.986 70.1448C129.003 70.209 129.007 70.2759 128.998 70.3417C128.989 70.4074 128.968 70.4708 128.934 70.5281C128.89 70.6047 128.826 70.6682 128.75 70.7122C128.673 70.7562 128.586 70.7792 128.498 70.7787Z" fill="#121728"/>
<path d="M127.2 75.395C126.893 75.3958 126.594 75.2973 126.347 75.1142C126.101 74.931 125.92 74.6731 125.833 74.3789C125.745 74.0846 125.755 73.7699 125.86 73.4817C125.966 73.1935 126.162 72.9472 126.42 72.7797L127.936 71.8015L127.345 71.563C127.141 71.4796 126.973 71.3269 126.87 71.1317C126.767 70.9365 126.737 70.7114 126.784 70.4958C126.834 70.2822 126.956 70.0924 127.13 69.9584C127.304 69.8244 127.518 69.7544 127.738 69.7602L131.343 69.8087H131.371C131.777 69.808 132.174 69.6871 132.511 69.461L144.666 61.2837C144.835 61.1707 144.978 61.0221 145.083 60.8482C145.189 60.6743 145.255 60.4793 145.277 60.2772L146.695 46.7681C146.703 46.7025 146.722 46.6389 146.754 46.5811C146.786 46.5232 146.829 46.4721 146.88 46.4308C146.931 46.3895 146.991 46.3587 147.054 46.3403C147.117 46.3219 147.184 46.3162 147.249 46.3235C147.315 46.3301 147.38 46.3496 147.438 46.381C147.497 46.4124 147.548 46.455 147.59 46.5065C147.633 46.5579 147.664 46.6171 147.683 46.6808C147.702 46.7444 147.709 46.8112 147.702 46.8773L146.279 60.3823C146.244 60.733 146.132 61.0717 145.95 61.3737C145.769 61.6758 145.522 61.9336 145.228 62.1285L133.069 70.3099C132.556 70.6614 131.945 70.8425 131.323 70.8273L128.089 70.7869L129.205 71.2356C129.288 71.2698 129.361 71.325 129.416 71.3959C129.471 71.4668 129.507 71.5508 129.52 71.6398C129.528 71.7321 129.511 71.825 129.471 71.9083C129.43 71.9916 129.368 72.0623 129.29 72.1127L126.953 73.6205C126.903 73.6528 126.861 73.6957 126.83 73.7462C126.798 73.7967 126.778 73.8535 126.772 73.9126C126.765 73.9716 126.771 74.0315 126.79 74.0879C126.808 74.1444 126.84 74.1959 126.881 74.2389C126.933 74.299 127.002 74.3421 127.079 74.363C127.156 74.3838 127.238 74.3814 127.313 74.3561C128.687 73.8913 130.502 73.2122 132.705 72.335C137.35 70.4837 142.726 68.1433 145.519 66.9104C147.035 66.2354 148.086 65.7624 148.385 65.625C148.96 65.359 149.475 64.9779 149.897 64.5053C150.53 63.7959 150.935 62.9131 151.061 61.9708L152.722 49.5653C152.889 48.2836 152.774 46.9811 152.388 45.7479C152.001 44.5147 151.351 43.3802 150.483 42.4228C149.991 41.8828 149.436 41.4037 148.83 40.9959C146.748 39.5932 144.84 38.3684 143.171 37.3579L143.094 37.3134C142.981 37.2453 142.899 37.1356 142.866 37.0079C142.833 36.8802 142.851 36.7446 142.916 36.6301C142.982 36.5155 143.089 36.4311 143.216 36.3949C143.343 36.3587 143.479 36.3735 143.595 36.4363L143.72 36.5131C145.39 37.5115 147.314 38.7443 149.412 40.151C150.084 40.6047 150.7 41.1366 151.247 41.7356C152.215 42.8021 152.939 44.0664 153.369 45.4409C153.799 46.8153 153.924 48.2668 153.737 49.6947L152.076 62.1285C151.924 63.2747 151.429 64.3484 150.657 65.2086C150.141 65.7788 149.518 66.2405 148.822 66.5668C148.519 66.7043 147.464 67.1812 145.94 67.8563C143.138 69.0932 137.75 71.4417 133.089 73.2971C130.874 74.1823 129.047 74.8655 127.645 75.3182C127.501 75.3676 127.351 75.3936 127.2 75.395Z" fill="#121728"/>
<path d="M123.202 81.7168C123.113 81.7186 123.024 81.6947 122.948 81.6481H122.927L104.62 71.0616C104.513 71.0013 104.433 70.9033 104.394 70.7867L99.2887 55.7053C99.2557 55.6085 99.2532 55.504 99.2814 55.4057C99.3096 55.3074 99.3671 55.2202 99.4463 55.1555C99.5256 55.0899 99.6231 55.0501 99.7257 55.0415C99.8283 55.0328 99.9311 55.0557 100.02 55.107L118.356 65.6895C118.462 65.7509 118.542 65.8485 118.582 65.9644L123.687 81.066C123.71 81.1416 123.715 81.2214 123.701 81.2991C123.687 81.3768 123.656 81.4503 123.609 81.5135C123.561 81.5768 123.5 81.6281 123.43 81.6634C123.359 81.6987 123.281 81.717 123.202 81.7168ZM105.291 70.2855L122.297 80.104L117.685 66.4696L100.675 56.6511L105.291 70.2855Z" fill="#121728"/>
<path d="M118.404 67.5289C118.331 67.5297 118.26 67.5145 118.194 67.4844C118.073 67.4273 117.979 67.3252 117.932 67.1998C117.885 67.0745 117.889 66.9359 117.943 66.8134L118.691 65.1682L118.938 64.6104C118.995 64.4894 119.097 64.3955 119.222 64.3487C119.347 64.3019 119.486 64.3059 119.609 64.3598C119.669 64.3873 119.724 64.4264 119.769 64.4751C119.815 64.5237 119.85 64.5808 119.873 64.6432C119.897 64.7055 119.907 64.7719 119.905 64.8384C119.902 64.9049 119.887 64.9703 119.859 65.0308L119.604 65.5927C119.604 65.6061 119.604 65.6196 119.604 65.6331L118.869 67.2499C118.826 67.3358 118.759 67.4076 118.677 67.457C118.595 67.5064 118.5 67.5313 118.404 67.5289Z" fill="#121728"/>
<path d="M119.48 70.706C119.374 70.7069 119.271 70.6744 119.184 70.613C119.076 70.5338 119.004 70.415 118.982 70.2826C118.961 70.1502 118.993 70.0147 119.071 69.9056L120.151 68.4141C120.193 68.3555 120.247 68.3068 120.31 68.2712C120.373 68.2357 120.442 68.2141 120.514 68.2079C120.588 68.1996 120.663 68.208 120.733 68.2325C120.803 68.257 120.866 68.297 120.919 68.3494L121.646 69.0568C121.659 69.0676 121.676 69.0736 121.693 69.0736C121.71 69.0736 121.726 69.0676 121.739 69.0568C121.751 69.0524 121.761 69.0448 121.769 69.0348C121.777 69.0248 121.782 69.0128 121.784 69.0002L121.723 66.3445C121.723 66.2103 121.775 66.0814 121.868 65.9847L132.516 55.1557C132.921 54.7398 133.208 54.2236 133.348 53.66L133.955 51.162C133.982 51.0409 134.052 50.934 134.153 50.8616C134.254 50.7892 134.377 50.7564 134.501 50.7694C134.624 50.7824 134.738 50.8403 134.822 50.932C134.905 51.0238 134.952 51.143 134.953 51.2671C134.957 51.3087 134.957 51.3507 134.953 51.3924L134.343 53.8985C134.161 54.639 133.784 55.3173 133.251 55.863L122.742 66.5385V66.6274L122.794 68.9759C122.801 69.1918 122.743 69.4046 122.627 69.5872C122.512 69.7698 122.345 69.9137 122.147 70.0006C121.95 70.0875 121.73 70.1133 121.518 70.0748C121.306 70.0363 121.11 69.9351 120.955 69.7844L120.648 69.4893L119.908 70.5079C119.858 70.5733 119.793 70.6256 119.718 70.6601C119.644 70.6946 119.562 70.7104 119.48 70.706Z" fill="#121728"/>
<path d="M124.577 111.132H123.853C122.531 111.153 121.216 110.938 119.969 110.497C119.722 110.395 119.483 110.274 119.253 110.138C118.965 109.959 118.736 109.699 118.596 109.39C118.456 109.082 118.41 108.738 118.465 108.404L122.507 81.8786C122.549 81.6034 122.617 81.3327 122.709 81.0702C122.74 80.9519 122.812 80.8487 122.913 80.7797C123.014 80.7107 123.136 80.6805 123.258 80.6948C123.379 80.7091 123.491 80.7669 123.573 80.8575C123.655 80.948 123.701 81.0653 123.704 81.1874C123.703 81.2379 123.696 81.2881 123.683 81.337C123.685 81.3544 123.685 81.372 123.683 81.3895C123.609 81.6021 123.555 81.8214 123.522 82.0444L119.48 108.565C119.455 108.703 119.472 108.846 119.528 108.974C119.584 109.103 119.677 109.212 119.795 109.289C119.98 109.398 120.174 109.494 120.373 109.576C121.503 109.966 122.694 110.155 123.89 110.134H124.593C124.761 110.133 124.923 110.077 125.055 109.973C125.186 109.868 125.278 109.723 125.317 109.56C126.012 106.552 126.602 103.779 127.115 101.091C127.778 97.6392 128.328 94.3124 128.946 89.9549C129.128 88.6736 129.314 87.3477 129.504 85.9491C129.574 85.415 129.788 84.9099 130.123 84.4878C130.457 84.0656 130.9 83.7422 131.404 83.5521C135.25 82.1819 138.985 80.5198 142.577 78.5802C144.968 77.2384 146.921 75.2335 148.199 72.8072C149.477 70.3809 150.026 67.6367 149.78 64.9054C149.773 64.8392 149.78 64.7723 149.799 64.7087C149.819 64.6451 149.851 64.586 149.893 64.5348C149.936 64.4836 149.988 64.4414 150.047 64.4107C150.106 64.3799 150.17 64.3612 150.237 64.3557C150.303 64.3495 150.369 64.3565 150.433 64.3761C150.496 64.3958 150.555 64.4277 150.606 64.4701C150.657 64.5126 150.699 64.5646 150.73 64.6234C150.761 64.6821 150.78 64.7463 150.786 64.8124C150.858 65.619 150.866 66.4299 150.811 67.2378C150.643 69.7577 149.846 72.1955 148.494 74.3286C147.142 76.4616 145.277 78.2221 143.07 79.4492C139.43 81.4123 135.647 83.096 131.752 84.4858C131.417 84.6085 131.123 84.8202 130.9 85.098C130.677 85.3758 130.534 85.7092 130.486 86.0623C130.297 87.4609 130.111 88.7908 129.929 90.0722C129.306 94.4458 128.756 97.7887 128.089 101.257C127.572 103.957 126.978 106.742 126.279 109.746C126.196 110.136 125.982 110.487 125.673 110.74C125.363 110.992 124.976 111.13 124.577 111.132Z" fill="#121728"/>
<path d="M115.603 120.07C114.73 120.07 114.33 119.5 114.33 118.97C114.33 118.246 114.92 117.559 115.741 116.609C117.533 114.682 118.877 112.382 119.678 109.875C119.696 109.81 119.726 109.749 119.768 109.696C119.81 109.643 119.862 109.599 119.921 109.566C119.98 109.534 120.046 109.513 120.113 109.506C120.18 109.499 120.248 109.506 120.312 109.526C120.377 109.545 120.437 109.578 120.489 109.621C120.541 109.665 120.583 109.718 120.614 109.778C120.645 109.838 120.664 109.904 120.669 109.971C120.674 110.038 120.665 110.106 120.644 110.17C119.56 113.711 117.721 115.829 116.505 117.268C115.882 117.992 115.34 118.622 115.34 118.97C115.34 119.059 115.579 119.059 115.603 119.059C117.006 119.059 122.289 117.018 123.364 110.538C123.388 110.407 123.462 110.291 123.572 110.215C123.681 110.14 123.815 110.11 123.946 110.134C124.076 110.159 124.191 110.234 124.266 110.343C124.342 110.452 124.372 110.585 124.35 110.716C123.19 117.765 117.45 120.07 115.603 120.07Z" fill="#121728"/>
<path d="M122.216 67.064C122.094 67.065 121.976 67.0218 121.883 66.9425C121.79 66.8631 121.73 66.7529 121.712 66.6322C121.694 66.5115 121.721 66.3885 121.787 66.2858C121.852 66.1832 121.953 66.1078 122.07 66.0737L134.84 62.2417C134.904 62.2182 134.973 62.2082 135.042 62.2122C135.11 62.2162 135.177 62.2341 135.239 62.2649C135.3 62.2957 135.355 62.3387 135.399 62.3913C135.443 62.4439 135.476 62.505 135.496 62.5708C135.516 62.6366 135.522 62.7058 135.514 62.7741C135.506 62.8424 135.485 62.9084 135.451 62.968C135.416 63.0276 135.37 63.0796 135.315 63.1208C135.26 63.1621 135.198 63.1916 135.131 63.2078L122.361 67.0438C122.314 67.0584 122.265 67.0653 122.216 67.064Z" fill="#121728"/>
<path d="M109.273 105.586H108.804C107.405 105.58 106.035 105.195 104.838 104.471C104.628 104.341 104.434 104.208 104.224 104.066C103.985 103.895 103.798 103.662 103.682 103.392C103.566 103.122 103.525 102.825 103.565 102.534L107.446 73.9034C107.518 73.3901 107.669 72.891 107.894 72.424C107.957 72.3112 108.06 72.2265 108.183 72.1874C108.306 72.1482 108.439 72.1574 108.555 72.2132C108.671 72.269 108.762 72.3671 108.808 72.4875C108.854 72.6078 108.853 72.7413 108.804 72.8605C108.626 73.2335 108.506 73.6315 108.448 74.0409L104.568 102.672C104.551 102.779 104.564 102.888 104.606 102.988C104.647 103.087 104.715 103.174 104.802 103.238C104.992 103.367 105.178 103.492 105.364 103.61C106.416 104.241 107.621 104.573 108.848 104.572C109.087 104.572 109.35 104.572 109.62 104.572C109.745 104.57 109.866 104.531 109.967 104.459C110.068 104.386 110.145 104.285 110.186 104.167C111.454 100.252 112.429 96.2469 113.101 92.1863C113.612 88.9004 113.898 85.5835 113.958 82.2587C113.982 81.3815 113.99 80.472 113.986 79.4776C113.988 78.9678 114.135 78.4691 114.41 78.0396C114.685 77.6102 115.076 77.2677 115.538 77.0523L116.088 76.7976C116.21 76.7414 116.349 76.7357 116.474 76.782C116.6 76.8282 116.703 76.9226 116.759 77.0442C116.815 77.1659 116.821 77.305 116.775 77.4308C116.728 77.5566 116.634 77.659 116.512 77.7152L115.963 77.9699C115.673 78.1044 115.428 78.319 115.257 78.5884C115.086 78.8578 114.995 79.1706 114.996 79.4898C114.996 80.4922 114.997 81.4139 114.968 82.2991C114.908 85.6564 114.619 89.0058 114.103 92.3238C113.422 96.4333 112.438 100.487 111.156 104.45C111.056 104.774 110.855 105.058 110.584 105.262C110.313 105.466 109.984 105.58 109.645 105.586H109.273Z" fill="#121728"/>
<path d="M100.02 112.773C99.7781 112.792 99.5346 112.759 99.3064 112.676C99.0782 112.592 98.8706 112.461 98.6977 112.29C98.5248 112.12 98.3906 111.914 98.3043 111.687C98.2179 111.46 98.1814 111.217 98.1972 110.974C98.1972 110.23 98.945 109.669 100.061 108.824C101.492 107.736 103.452 106.253 104.645 103.807C104.671 103.744 104.71 103.686 104.76 103.639C104.81 103.591 104.869 103.554 104.933 103.53C104.998 103.505 105.066 103.495 105.135 103.498C105.204 103.501 105.271 103.519 105.333 103.549C105.395 103.579 105.45 103.622 105.495 103.675C105.54 103.727 105.573 103.788 105.593 103.854C105.614 103.92 105.62 103.989 105.613 104.057C105.605 104.126 105.584 104.192 105.55 104.252C104.256 106.912 102.098 108.545 100.671 109.628C100.057 110.097 99.2118 110.736 99.2078 110.974C99.2078 111.504 99.4745 111.762 100.016 111.762C101.095 111.762 107.223 109.398 108.323 104.963C108.347 104.85 108.409 104.748 108.498 104.675C108.588 104.601 108.7 104.56 108.816 104.559C108.882 104.559 108.948 104.571 109.009 104.596C109.07 104.621 109.126 104.658 109.173 104.705C109.22 104.751 109.257 104.807 109.283 104.868C109.308 104.929 109.321 104.994 109.321 105.061C109.325 105.102 109.325 105.144 109.321 105.186C108.068 110.23 101.273 112.773 100.02 112.773Z" fill="#121728"/>
<path d="M147.249 67.921C146.736 67.921 146.214 67.921 145.701 67.8846C145.635 67.8814 145.57 67.8652 145.51 67.8369C145.449 67.8085 145.396 67.7687 145.351 67.7195C145.306 67.6703 145.272 67.6128 145.249 67.5503C145.227 67.4878 145.217 67.4214 145.22 67.3551C145.223 67.2887 145.239 67.2237 145.268 67.1636C145.296 67.1035 145.336 67.0496 145.385 67.0049C145.434 66.9602 145.492 66.9257 145.554 66.9033C145.617 66.8808 145.683 66.8709 145.75 66.8741C146.247 66.8983 146.752 66.9105 147.249 66.9105C148.247 66.9126 149.245 66.8559 150.236 66.7407C150.304 66.7299 150.372 66.7327 150.438 66.7491C150.504 66.7654 150.566 66.795 150.621 66.8359C150.675 66.8768 150.721 66.9283 150.754 66.9872C150.788 67.0461 150.81 67.1113 150.818 67.1789C150.827 67.2464 150.821 67.3149 150.802 67.3802C150.783 67.4455 150.751 67.5064 150.708 67.5591C150.665 67.6117 150.612 67.6552 150.552 67.6869C150.491 67.7185 150.425 67.7376 150.358 67.7432C149.326 67.865 148.288 67.9244 147.249 67.921Z" fill="#121728"/>
<path d="M150.819 60.8106C149.323 60.8106 147.205 60.4953 145.608 58.9916C145.511 58.8994 145.454 58.7723 145.45 58.6381C145.446 58.5039 145.496 58.3737 145.588 58.2761C145.68 58.1786 145.808 58.1217 145.942 58.1179C146.076 58.1141 146.206 58.1637 146.304 58.2559C147.658 59.5333 149.505 59.8001 150.819 59.8001C151.133 59.8013 151.448 59.7865 151.761 59.7556C151.894 59.7427 152.027 59.7834 152.131 59.8687C152.234 59.954 152.3 60.0769 152.312 60.2104C152.325 60.3438 152.285 60.4769 152.199 60.5804C152.114 60.6839 151.991 60.7492 151.858 60.7621C151.51 60.7944 151.166 60.8106 150.819 60.8106Z" fill="#121728"/>
<path d="M134.423 51.6913H134.363C133.283 51.5776 132.246 51.2122 131.333 50.6246C130.42 50.0371 129.658 49.2436 129.108 48.308C129.084 48.2716 129.063 48.2353 129.043 48.1989C128.98 48.0828 128.966 47.9468 129.002 47.8199C129.038 47.6931 129.122 47.5854 129.237 47.5199C129.352 47.4545 129.487 47.4364 129.615 47.4696C129.743 47.5028 129.852 47.5847 129.92 47.6977V47.734L129.949 47.7785C130.414 48.5872 131.066 49.273 131.85 49.7792C132.634 50.2854 133.527 50.5973 134.456 50.6889C134.583 50.7051 134.7 50.7693 134.782 50.8685C134.863 50.9676 134.904 51.0942 134.896 51.2225C134.888 51.3508 134.831 51.4711 134.737 51.559C134.643 51.6468 134.52 51.6956 134.391 51.6954L134.423 51.6913Z" fill="#121728"/>
<path d="M63.4987 27.4338C63.5738 27.4581 63.6388 27.5065 63.6837 27.5714C63.7285 27.6364 63.7507 27.7143 63.7468 27.7931C63.7429 27.8719 63.7131 27.9472 63.6621 28.0075C63.6111 28.0677 63.5417 28.1094 63.4646 28.1262L57.8145 29.3784C57.1471 29.526 56.5107 29.7893 55.934 30.1563C51.7585 32.8018 48.9249 34.7677 44.5869 36.4901C44.1036 36.6825 43.5744 36.7283 43.0652 36.6219C42.5559 36.5155 42.0893 36.2616 41.7235 35.8918C38.7959 32.9257 36.6632 30.8401 34.3767 28.0236C34.3767 27.7116 34.3767 27.3996 34.3767 27.0791C36.1774 25.7411 38.0586 24.515 40.0096 23.4078C41.1294 25.5918 42.2748 27.7544 43.527 30.0238C43.6063 30.165 43.7307 30.2755 43.8803 30.3375C44.0299 30.3995 44.196 30.4094 44.3519 30.3657C49.1942 29.0023 52.9466 28.0877 56.9298 26.1901C57.6087 25.8627 58.3871 25.8077 59.1052 26.0363L63.4987 27.4338Z" fill="white"/>
<path d="M34.5263 40.4007C34.3367 40.6319 34.1151 40.8348 33.8681 41.0033C32.1756 42.2025 30.3741 43.24 28.4873 44.1019C26.5692 44.9731 24.4691 45.3682 22.3656 45.2536C20.262 45.139 18.2172 44.5181 16.4051 43.4437L14.7554 42.4607L14.5546 42.3453C14.3473 42.2179 14.1805 42.034 14.0738 41.8153C13.9671 41.5966 13.9248 41.352 13.952 41.1102C14.2426 38.6228 14.2298 30.9213 14.2084 25.9123C13.0943 27.1031 12.0659 28.3713 11.1312 29.7075L11.0799 29.6605C8.61818 29.0536 6.66503 27.7373 5.98976 25.6003L5.94702 25.5704C7.37021 23.2925 8.8447 21.0102 10.5842 18.5057C11.7424 16.8475 13.8793 15.7277 15.7683 15.0097L19.3541 13.6378C19.9439 15.3987 21.0636 17.5484 23.7049 17.5484C25.782 17.5484 27.4531 15.7021 27.4531 13.5994C27.4519 12.9931 27.3162 12.3945 27.0556 11.8471C27.3107 11.7256 27.5377 11.5524 27.7223 11.3385C29.6648 11.4058 31.5521 12.0018 33.181 13.0621C34.81 14.1225 36.1188 15.6071 36.9667 17.3561C37.9796 19.446 38.9711 21.4376 39.9883 23.4207C38.0372 24.5279 36.156 25.7539 34.3553 27.0919C34.3553 27.4125 34.3553 27.7245 34.3553 28.0365C34.4152 31.4256 34.3211 34.8233 35.0434 38.7895C35.0823 39.0796 35.0561 39.3747 34.9666 39.6534C34.8772 39.9321 34.7268 40.1874 34.5263 40.4007Z" fill="white"/>
<path d="M36.4023 107.355C36.4423 107.415 36.4621 107.487 36.4588 107.559C36.4556 107.631 36.4296 107.701 36.3845 107.757C36.3394 107.814 36.2775 107.854 36.2077 107.874C36.138 107.893 36.064 107.889 35.9963 107.864C33.65 106.893 32.0387 106.004 30.6283 104.804C30.5048 104.699 30.4073 104.568 30.3435 104.42C30.2797 104.271 30.2514 104.11 30.2608 103.949L30.3847 101.055C30.5824 101.203 30.8153 101.295 31.06 101.325C31.4276 101.372 31.778 101.414 32.1755 101.453C32.4181 101.478 32.6631 101.441 32.8874 101.345C33.1117 101.25 33.308 101.098 33.4576 100.906C33.9064 103.226 34.8552 105.171 36.4023 107.355Z" fill="white"/>
<path d="M26.4871 51.4444C22.4099 65.5481 19.931 81.5836 15.2982 103.722C15.2358 104.017 15.093 104.289 14.8855 104.508C14.6781 104.727 14.4141 104.884 14.1229 104.962C13.9421 105.011 13.754 105.028 13.5673 105.013L12.7125 104.932C12.2953 104.898 11.9076 104.703 11.6309 104.389C11.3543 104.075 11.2104 103.666 11.2295 103.248C11.6953 91.7554 13.063 82.2418 13.5886 73.5701C14.0887 65.3131 14.4007 58.6843 14.6015 50.7178C15.204 51.6889 15.734 52.7031 16.1871 53.7523L18.0078 49.9357L15.7854 47.2603L17.0419 45.1533C16.2463 45.1323 15.4618 44.9612 14.7298 44.649C14.7298 43.9267 14.7597 43.2001 14.7725 42.4479L16.4222 43.4309C18.2312 44.5045 20.2723 45.1261 22.3726 45.2429C24.4729 45.3597 26.5704 44.9683 28.4873 44.1019C30.3735 43.2441 32.1751 42.211 33.8681 41.0162C34.1151 40.8477 34.3367 40.6448 34.5262 40.4136C36.5606 57.8124 36.1503 77.8012 33.7612 100.196C33.7203 100.576 33.5305 100.925 33.2333 101.165C32.9361 101.405 32.5558 101.518 32.1756 101.478C31.7782 101.44 31.4277 101.397 31.0602 101.35C30.8154 101.321 30.5826 101.228 30.3849 101.081C30.2098 100.952 30.0664 100.785 29.9657 100.593C29.865 100.4 29.8095 100.187 29.8036 99.9697C29.1113 81.3913 27.7992 66.6337 26.4871 51.4444Z" fill="#121728"/>
<path d="M27.0555 11.8472C27.3161 12.3946 27.4519 12.9931 27.453 13.5995C27.453 15.7022 25.7819 17.5485 23.7048 17.5485C21.0721 17.5485 19.9438 15.4116 19.354 13.6379L21.5721 12.7832C21.5721 11.6335 21.5465 10.6035 21.5721 9.46238C21.5721 8.65889 21.6063 7.80411 21.6448 6.82112C22.2095 7.06401 22.759 7.34089 23.2902 7.65025L23.4142 4.3252C23.4142 4.3252 26.5042 6.52623 28.7779 5.50478C28.9403 7.66735 28.8078 10.1376 27.735 11.3258C27.548 11.5457 27.3164 11.7235 27.0555 11.8472Z" fill="white"/>
<path d="M30.932 2.0643C30.5559 4.06874 29.7353 5.08163 28.7651 5.51329C26.4915 6.53474 23.4014 4.33372 23.4014 4.33372L23.2775 7.65878C22.7463 7.34941 22.1968 7.07253 21.6321 6.82965C21.5936 7.81263 21.568 8.6674 21.5594 9.47089H21.5081C19.4481 3.0601 21.132 1.60272 22.2261 1.35056C23.3587 -0.0811779 29.4618 1.14115 30.932 2.0643Z" fill="#121728"/>
<path d="M14.7126 44.649C15.4447 44.9613 16.2292 45.1324 17.0248 45.1533L15.7683 47.2604L17.9907 49.9358L16.17 53.7523C15.7169 52.7032 15.1869 51.689 14.5844 50.7179C13.9844 49.7783 13.3353 48.871 12.6398 47.9997C7.63941 44.508 3.02365 40.6102 1.57909 36.6185C1.12606 35.3662 1.02776 33.4986 1.73295 32.366C3.22452 29.9812 4.56224 27.7716 5.94697 25.5706L5.98971 25.6005C6.66498 27.7374 8.61813 29.0537 11.0799 29.6606L11.1312 29.7076C9.97294 31.3189 8.87883 32.99 7.28468 34.9773C7.10087 35.2088 6.99248 35.491 6.97414 35.786C6.95579 36.081 7.02838 36.3746 7.18211 36.627C9.57547 40.5547 11.9859 43.5165 14.7126 44.649Z" fill="white"/>
<path d="M17.6613 112.142C17.7105 112.203 17.739 112.279 17.7428 112.358C17.7466 112.437 17.7255 112.515 17.6825 112.581C17.6395 112.647 17.5767 112.698 17.5031 112.727C17.4295 112.755 17.3488 112.76 17.2724 112.74C14.9688 112.163 13.2635 111.351 11.8104 109.966C11.6824 109.841 11.582 109.69 11.5158 109.524C11.4495 109.358 11.4189 109.179 11.4258 109L11.648 104.427C11.9224 104.719 12.2956 104.899 12.6951 104.932L13.5499 105.013C13.7366 105.028 13.9247 105.011 14.1055 104.961C14.6943 107.607 15.9143 110.07 17.6613 112.142Z" fill="white"/>
<path d="M16.1614 54.4233C16.0325 54.4207 15.9071 54.3816 15.7996 54.3105C15.6922 54.2394 15.6072 54.1391 15.5545 54.0215C15.1139 53.0031 14.5982 52.0188 14.0116 51.0768C13.4416 50.1782 12.8239 49.3108 12.1611 48.4783C8.13937 45.6832 2.58335 41.4094 0.946468 36.8363C0.450701 35.4687 0.309663 33.3703 1.16016 31.9983C1.84398 30.9042 2.4936 29.8614 3.13041 28.8143L3.24152 28.6391C3.95953 27.4766 4.66044 26.3355 5.37845 25.1986C7.08799 22.4933 8.50691 20.3051 10.0327 18.1126C11.0755 16.6167 12.9261 15.356 15.5331 14.3644L20.8968 12.3173C20.8968 11.3343 20.8968 10.5265 20.8968 9.7102C20.8944 9.69462 20.8944 9.67877 20.8968 9.66319C19.7386 6.06461 19.5805 3.47465 20.4352 1.97025C20.7438 1.3862 21.2659 0.943741 21.8926 0.735103C22.4269 0.247884 23.3757 0 24.7176 0C27.282 0 30.3805 0.893236 31.3207 1.48303C31.435 1.55458 31.5251 1.65891 31.5792 1.78241C31.6334 1.90591 31.649 2.04286 31.6242 2.17539C31.2395 4.20974 30.3805 5.53464 29.0599 6.11588C28.5509 6.33914 28.0001 6.45134 27.4444 6.44498C26.2538 6.39281 25.0919 6.06354 24.0509 5.48336L23.9697 7.67157C23.9653 7.78793 23.9306 7.90113 23.8692 8.00004C23.8077 8.09896 23.7216 8.18017 23.6193 8.23571C23.5204 8.28796 23.4105 8.3158 23.2987 8.31692C23.1788 8.31769 23.0609 8.28672 22.9568 8.22717C22.9568 8.22717 22.6662 8.05622 22.2901 7.85962C22.2901 8.44087 22.2602 8.96227 22.2559 9.46658C22.2559 10.6804 22.2559 11.7702 22.2559 12.766C22.2573 12.9034 22.2173 13.0381 22.1411 13.1525C22.0649 13.2668 21.9559 13.3555 21.8285 13.4071L16.0246 15.6252C13.7039 16.5056 12.02 17.6296 11.1482 18.8819C9.63521 21.0573 8.21202 23.2241 6.52812 25.9124C5.78874 27.0962 5.05792 28.2801 4.31427 29.4896L4.2587 29.5751C3.63045 30.5923 2.97655 31.6351 2.31838 32.7121C1.73713 33.6481 1.83543 35.2978 2.22435 36.3748C3.75012 40.5931 9.12663 44.7045 13.0415 47.4355C13.0959 47.4743 13.1448 47.5203 13.1868 47.5723C13.8946 48.4625 14.5565 49.3882 15.1699 50.346C15.5374 50.9358 15.8622 51.517 16.187 52.1667L17.2128 50.0297L15.2639 47.6877C15.1756 47.5805 15.1225 47.4488 15.1118 47.3103C15.1011 47.1719 15.1333 47.0335 15.204 46.9141L15.922 45.7089C15.424 45.6179 14.9369 45.4746 14.4689 45.2815C11.879 44.2045 9.45571 41.6487 6.61787 36.9902C6.39552 36.6189 6.29117 36.1887 6.31865 35.7568C6.34612 35.3248 6.50412 34.9114 6.77173 34.5712C7.90858 33.1523 8.78044 31.9043 9.62666 30.6991C9.95148 30.2332 10.272 29.7759 10.5968 29.3272C11.55 27.9735 12.5968 26.6882 13.7296 25.4807C13.7926 25.4134 13.8687 25.3598 13.9532 25.323C14.0377 25.2863 14.1289 25.2672 14.2211 25.267C14.3058 25.2678 14.3898 25.2837 14.4689 25.314C14.594 25.364 14.7014 25.45 14.7775 25.5611C14.8536 25.6722 14.8949 25.8034 14.8963 25.938C14.9177 32.1821 14.8963 38.8792 14.6356 41.217C14.6219 41.329 14.6414 41.4425 14.6915 41.5435C14.7416 41.6445 14.8203 41.7287 14.9177 41.7855L16.764 42.8796C18.6842 44.0061 20.8716 44.5964 23.0979 44.5891C24.8674 44.5917 26.6167 44.2127 28.2265 43.4779C30.0749 42.6358 31.8405 41.6228 33.5004 40.452C33.6952 40.3186 33.8707 40.159 34.0218 39.9776C34.1587 39.8353 34.2643 39.6661 34.332 39.4806C34.3997 39.2952 34.428 39.0976 34.415 38.9006C33.9137 35.8384 33.6862 32.7375 33.7355 29.6349C33.7355 29.1049 33.7355 28.575 33.7141 28.0493C33.7141 27.7373 33.7141 27.4296 33.7141 27.1133C33.6675 24.8552 33.4042 22.6068 32.9277 20.3991C32.8895 20.2246 32.922 20.042 33.0182 19.8914C33.1143 19.7408 33.2662 19.6345 33.4406 19.5956C33.4888 19.5891 33.5377 19.5891 33.5859 19.5956C33.7392 19.5953 33.8879 19.6478 34.007 19.7444C34.1261 19.8409 34.2083 19.9755 34.2398 20.1256C34.7199 22.4175 34.9775 24.7505 35.0091 27.092C35.0091 27.4125 35.0091 27.7288 35.0091 28.045C35.0091 28.575 35.0091 29.1049 35.0091 29.6392C34.9614 32.6672 35.1817 35.6935 35.6673 38.6827C35.7221 39.0733 35.6892 39.4712 35.5709 39.8475C35.4526 40.2238 35.2519 40.569 34.9834 40.858C34.771 41.1159 34.5252 41.3444 34.2526 41.5376C32.526 42.757 30.6888 43.8116 28.765 44.6874C26.9878 45.5064 25.0547 45.9321 23.0979 45.9354C21.2052 45.9347 19.333 45.5448 17.5974 44.79L17.623 44.8285C17.6819 44.9305 17.7129 45.0462 17.7129 45.1639C17.7129 45.2817 17.6819 45.3974 17.623 45.4994L16.6144 47.209L18.5334 49.5211C18.6149 49.62 18.6666 49.74 18.6825 49.8671C18.6984 49.9943 18.6778 50.1233 18.6231 50.2391L16.7982 54.0514C16.7435 54.1662 16.6575 54.2631 16.5501 54.3312C16.4428 54.3992 16.3184 54.4356 16.1913 54.4361L16.1614 54.4233ZM13.5415 27.6732C12.7722 28.5878 12.1739 29.4084 11.6824 30.0965C11.3576 30.5239 11.0413 30.9983 10.7165 31.4598C9.86173 32.6864 8.97276 33.9515 7.81028 35.4003C7.71351 35.5245 7.65644 35.6749 7.64652 35.832C7.63661 35.989 7.67432 36.1455 7.75472 36.2808C10.4002 40.6144 12.6953 43.0762 14.9733 44.0292C15.5914 44.2923 16.2512 44.4442 16.9221 44.478C16.6315 44.3327 16.3452 44.1746 16.0674 44.0079L14.2211 42.9095C13.9018 42.7195 13.6441 42.4414 13.4788 42.1086C13.3136 41.7759 13.2478 41.4025 13.2894 41.0333C13.5415 38.8408 13.5543 32.4385 13.5415 27.6732ZM21.6319 6.15435C21.72 6.154 21.8072 6.17144 21.8884 6.20563C22.1191 6.29966 22.3713 6.41506 22.6448 6.55183L22.726 4.31232C22.7313 4.19073 22.769 4.07276 22.8351 3.97058C22.9012 3.86841 22.9934 3.78573 23.1021 3.73108C23.1959 3.68737 23.2979 3.66406 23.4013 3.6627C23.5407 3.66233 23.6767 3.70568 23.7902 3.78664C23.8116 3.78664 25.6835 5.11153 27.4102 5.11153C27.7816 5.11726 28.1501 5.04444 28.4915 4.89783C29.2821 4.54738 29.842 3.71398 30.1625 2.42328C28.3688 1.75369 26.4739 1.39523 24.5595 1.36336C23.6022 1.36336 22.9611 1.50868 22.7517 1.76938C22.6583 1.88888 22.5273 1.97324 22.3798 2.00872C22.2074 2.05082 22.0462 2.12997 21.9074 2.24068C21.7687 2.35139 21.6557 2.491 21.5764 2.64979C21.29 3.15838 21.025 4.18838 21.3669 6.21419C21.45 6.17554 21.5403 6.15513 21.6319 6.15435Z" fill="#121728"/>
<path d="M30.3847 101.735C30.2418 101.736 30.1022 101.691 29.9872 101.607C29.7301 101.417 29.5195 101.172 29.3714 100.889C29.2233 100.606 29.1416 100.293 29.1324 99.9739C28.4871 82.5451 27.2477 68.1551 26.0553 54.2437L25.8202 51.5127C25.8117 51.4246 25.821 51.3358 25.8474 51.2514C25.8738 51.167 25.9169 51.0887 25.974 51.0212C26.0891 50.8844 26.2534 50.7984 26.4313 50.7819H26.5168C26.6833 50.7845 26.8429 50.8489 26.9646 50.9627C27.0862 51.0764 27.1612 51.2313 27.175 51.3973L27.4101 54.124C28.6067 68.0568 29.8419 82.4597 30.4915 99.9355C30.495 100.048 30.5237 100.159 30.5755 100.26C30.6272 100.36 30.7007 100.448 30.7907 100.517C30.9058 100.6 30.9914 100.718 31.035 100.854C31.0786 100.989 31.078 101.135 31.0332 101.27C30.9885 101.405 30.902 101.523 30.7862 101.606C30.6704 101.688 30.5312 101.732 30.3889 101.73L30.3847 101.735Z" fill="#121728"/>
<path d="M32.3208 102.149C32.2497 102.154 32.1783 102.154 32.1071 102.149C31.7054 102.111 31.3464 102.068 30.9746 102.017C30.618 101.975 30.2789 101.839 29.9916 101.624C29.9204 101.574 29.86 101.511 29.8137 101.437C29.7675 101.364 29.7364 101.282 29.7223 101.196C29.7076 101.108 29.7106 101.019 29.7311 100.932C29.7517 100.845 29.7894 100.764 29.842 100.692C29.9046 100.607 29.9862 100.537 30.0805 100.489C30.1747 100.441 30.2789 100.415 30.3848 100.414C30.5273 100.415 30.6662 100.459 30.7822 100.542C30.8848 100.623 31.0076 100.673 31.137 100.688C31.5088 100.739 31.8507 100.782 32.2396 100.82H32.3166C32.4348 100.819 32.5513 100.792 32.6572 100.739C32.7631 100.686 32.8556 100.61 32.9277 100.517C33.0192 100.404 33.0757 100.268 33.0901 100.124C35.5775 76.8396 35.8254 57.3337 33.8594 40.4904C33.8562 40.4492 33.8562 40.4078 33.8594 40.3665C33.864 40.1954 33.9334 40.0325 34.0535 39.9106C34.1737 39.7887 34.3356 39.717 34.5066 39.7099C34.6776 39.7029 34.8449 39.761 34.9747 39.8726C35.1044 39.9841 35.187 40.1408 35.2057 40.3109C37.1887 57.2739 36.9409 76.878 34.4449 100.265C34.4071 100.657 34.2589 101.03 34.0175 101.342C33.815 101.597 33.5568 101.802 33.2627 101.942C32.9687 102.082 32.6465 102.153 32.3208 102.149Z" fill="#121728"/>
<path d="M14.7082 45.3243C14.5314 45.322 14.3624 45.2505 14.2377 45.125C14.1131 44.9996 14.0426 44.8302 14.0415 44.6533V44.5635C14.0415 43.8541 14.0714 43.1574 14.08 42.4266C14.0833 42.2494 14.1558 42.0804 14.2819 41.9559C14.4081 41.8313 14.578 41.761 14.7552 41.7599C14.8448 41.7597 14.9334 41.7778 15.0157 41.8131C15.098 41.8484 15.1723 41.9001 15.2339 41.965C15.297 42.0275 15.3465 42.1021 15.3796 42.1845C15.4127 42.2668 15.4286 42.355 15.4262 42.4437C15.4262 43.1959 15.4006 43.9267 15.3878 44.649C15.3844 44.8259 15.3118 44.9944 15.1855 45.1182C15.0592 45.2421 14.8894 45.3115 14.7125 45.3115L14.7082 45.3243Z" fill="#121728"/>
<path d="M13.6956 105.688H13.5032L12.6228 105.607C12.0592 105.562 11.5328 105.308 11.1483 104.893C10.9377 104.671 10.7739 104.408 10.6667 104.121C10.5595 103.834 10.5111 103.528 10.5244 103.222C10.8022 96.4394 11.3791 90.4817 11.9347 84.7205C12.3151 80.7971 12.6698 77.1002 12.8878 73.5358C13.4135 64.8599 13.7084 58.2483 13.8964 50.7049C13.901 50.5258 13.9765 50.3559 14.1063 50.2324C14.2361 50.109 14.4097 50.0422 14.5888 50.0468C14.7679 50.0513 14.9379 50.1268 15.0613 50.2566C15.1847 50.3865 15.2515 50.56 15.247 50.7391C15.0546 58.2996 14.7598 64.9283 14.2298 73.6171C14.0161 77.1943 13.6571 80.904 13.2767 84.8359C12.7211 90.5843 12.1442 96.5292 11.8706 103.278C11.8596 103.52 11.9421 103.758 12.1011 103.942C12.2602 104.125 12.4836 104.241 12.7254 104.265L13.5802 104.346H13.6956C13.7763 104.347 13.8568 104.337 13.9349 104.316C14.1062 104.271 14.2617 104.179 14.3839 104.051C14.5062 103.923 14.5904 103.763 14.6273 103.59C16.1488 96.324 17.4608 89.5713 18.619 83.6307C21.0209 71.369 23.098 60.7699 25.829 51.2904C26.0427 50.5596 26.2564 49.8672 26.453 49.1877C26.486 49.0744 26.5496 48.9723 26.6368 48.8928L28.3976 47.2431C28.5218 47.1243 28.6873 47.0584 28.8592 47.0593C28.9512 47.0605 29.0421 47.08 29.1265 47.1167C29.2109 47.1534 29.2871 47.2065 29.3507 47.273C29.4723 47.4041 29.537 47.578 29.5306 47.7566C29.5242 47.9353 29.4472 48.1041 29.3165 48.2261L27.6924 49.7519C27.5129 50.3374 27.3377 50.9314 27.1625 51.5255L27.1411 51.5982C24.4016 61.069 22.3416 71.6383 19.9568 83.8743C18.79 89.8577 17.4737 96.6061 15.9564 103.863C15.8703 104.281 15.6688 104.666 15.375 104.975C15.0812 105.284 14.7066 105.504 14.2939 105.611C14.0989 105.664 13.8976 105.69 13.6956 105.688Z" fill="#121728"/>
<path d="M11.0796 30.3357C11.0247 30.3368 10.97 30.3295 10.9172 30.3143C8.01956 29.6006 6.04076 27.9979 5.36122 25.8011C5.33309 25.7169 5.32184 25.628 5.3281 25.5395C5.33436 25.451 5.35801 25.3645 5.3977 25.2851C5.4374 25.2057 5.49236 25.135 5.55943 25.0768C5.62651 25.0187 5.70438 24.9744 5.78861 24.9464C5.85353 24.9257 5.92135 24.9156 5.98948 24.9164C6.13265 24.9156 6.27229 24.9608 6.38775 25.0455C6.50321 25.1302 6.58834 25.2497 6.63056 25.3866C7.33147 27.6047 9.52395 28.5749 11.242 28.998C11.4153 29.0414 11.5642 29.1517 11.6563 29.3046C11.7484 29.4576 11.7762 29.6409 11.7335 29.8143C11.7004 29.9627 11.6175 30.0954 11.4985 30.1903C11.3796 30.2851 11.2318 30.3364 11.0796 30.3357Z" fill="#121728"/>
<path d="M34.3551 27.7671C34.2469 27.7677 34.1401 27.742 34.0441 27.6921C33.948 27.6422 33.8656 27.5697 33.8038 27.4808C33.7008 27.3345 33.6601 27.1534 33.6905 26.9771C33.721 26.8008 33.8201 26.6438 33.9662 26.5405L34.3936 26.2371C36.0796 24.9922 37.8394 23.8505 39.6633 22.818C39.7621 22.7658 39.872 22.7379 39.9838 22.7368C40.1055 22.7373 40.2249 22.7705 40.3294 22.8329C40.4339 22.8953 40.5197 22.9846 40.5779 23.0915C40.6617 23.2493 40.68 23.4338 40.6288 23.605C40.5776 23.7761 40.461 23.9203 40.3044 24.0062C38.5283 25.0068 36.8155 26.1158 35.1757 27.3269L34.7483 27.6346C34.6351 27.7203 34.4971 27.7668 34.3551 27.7671Z" fill="#121728"/>
<path d="M17.3665 113.424C17.283 113.422 17.2 113.412 17.1186 113.394C14.6013 112.766 12.8234 111.86 11.3489 110.453C11.1508 110.263 10.9954 110.033 10.893 109.778C10.7906 109.523 10.7435 109.249 10.7548 108.975L10.9771 104.393C10.9847 104.221 11.0582 104.059 11.1823 103.939C11.3064 103.82 11.4716 103.753 11.6438 103.752C11.7352 103.753 11.8256 103.772 11.9095 103.809C11.9934 103.845 12.0692 103.898 12.1325 103.964C12.1958 104.03 12.2452 104.108 12.278 104.194C12.3108 104.279 12.3262 104.37 12.3233 104.462L12.1011 109.035C12.0971 109.118 12.111 109.201 12.142 109.278C12.173 109.356 12.2202 109.426 12.2806 109.483C13.5006 110.615 14.98 111.43 16.5886 111.855C15.0599 109.865 13.9928 107.56 13.4644 105.107C13.4262 104.932 13.4588 104.75 13.5549 104.599C13.651 104.449 13.8029 104.342 13.9773 104.303C14.0257 104.299 14.0743 104.299 14.1226 104.303C14.276 104.304 14.4246 104.357 14.5441 104.454C14.6636 104.55 14.747 104.684 14.7808 104.833C15.3467 107.375 16.5198 109.742 18.1999 111.731C18.3373 111.901 18.4175 112.11 18.429 112.328C18.4406 112.546 18.3828 112.762 18.264 112.945C18.1674 113.095 18.0343 113.217 17.8773 113.301C17.7202 113.385 17.5444 113.427 17.3665 113.424Z" fill="#121728"/>
<path d="M36.1245 108.56C35.9953 108.56 35.8673 108.534 35.7484 108.483C33.2311 107.445 31.6199 106.526 30.1924 105.312C29.9925 105.144 29.8338 104.932 29.7285 104.692C29.6233 104.453 29.5744 104.193 29.5855 103.931L29.7138 101.038C29.7301 100.869 29.8097 100.712 29.9367 100.599C30.0637 100.486 30.2287 100.425 30.3987 100.428C30.5688 100.431 30.7313 100.498 30.8539 100.616C30.9765 100.734 31.0501 100.894 31.06 101.064L30.9318 103.987C30.9294 104.043 30.9397 104.098 30.9619 104.149C30.9842 104.2 31.0177 104.246 31.06 104.282C32.3117 105.315 33.7085 106.159 35.2056 106.786C34.0264 105.054 33.2081 103.102 32.7995 101.047C32.7821 100.96 32.7822 100.87 32.7997 100.783C32.8172 100.696 32.8519 100.613 32.9015 100.54C32.9512 100.466 33.015 100.403 33.0892 100.355C33.1634 100.306 33.2465 100.272 33.3337 100.256H33.4619C33.6185 100.257 33.7699 100.312 33.8906 100.412C34.0113 100.511 34.0938 100.649 34.1244 100.803C34.5261 102.906 35.3723 104.748 36.9494 106.97C37.0563 107.122 37.1196 107.3 37.1324 107.486C37.1452 107.671 37.1071 107.856 37.0221 108.021C36.9371 108.186 36.8085 108.325 36.6503 108.422C36.4921 108.52 36.3103 108.572 36.1245 108.573V108.56Z" fill="#121728"/>
<path d="M25.6621 14.3131C25.4848 14.3121 25.315 14.2417 25.1888 14.1172C25.0626 13.9926 24.9902 13.8237 24.9868 13.6464V13.2746C24.9868 12.8002 24.9868 12.7916 24.9868 12.2061V12.0138C24.9892 11.92 25.0113 11.8277 25.0518 11.743C25.0924 11.6583 25.1503 11.5831 25.2219 11.5223C25.3413 11.4204 25.4923 11.3631 25.6493 11.3599H25.7305C25.8325 11.3731 25.9353 11.3802 26.0382 11.3813C26.2824 11.385 26.5245 11.3354 26.7476 11.236C26.9193 11.1504 27.073 11.0329 27.2007 10.8898C27.9571 10.035 28.2691 8.15879 28.0768 5.56029C28.065 5.3825 28.124 5.20726 28.2409 5.07277C28.3578 4.93827 28.5231 4.85543 28.7008 4.84229H28.7521C28.9217 4.84194 29.0852 4.90628 29.209 5.02221C29.3329 5.13815 29.4079 5.29695 29.4188 5.46627C29.5769 7.56473 29.4872 10.3684 28.2008 11.7916C27.9577 12.0707 27.6594 12.2963 27.3246 12.454C27.0038 12.6063 26.6574 12.6976 26.3032 12.7233C26.3032 12.8857 26.3032 12.9925 26.3032 13.2575V13.6336C26.3056 13.808 26.24 13.9764 26.1203 14.1033C26.0006 14.2301 25.8363 14.3054 25.6621 14.3131Z" fill="#121728"/>
<path d="M23.7046 18.2236C21.371 18.2236 19.6914 16.7534 18.7127 13.8557C18.6576 13.6853 18.6698 13.5003 18.7469 13.3386C18.8268 13.1791 18.9667 13.0577 19.1358 13.001C19.206 12.9771 19.2797 12.9656 19.3538 12.9668C19.4943 12.9672 19.6312 13.0116 19.7453 13.0935C19.8595 13.1755 19.9452 13.2911 19.9906 13.4241C20.7855 15.779 21.9651 16.8731 23.7046 16.8731C24.5427 16.8354 25.3331 16.4722 25.9078 15.8609C26.4824 15.2495 26.7959 14.4382 26.7817 13.5993C26.7794 13.0916 26.6641 12.5909 26.4441 12.1334C26.3682 11.9713 26.3599 11.7857 26.4208 11.6174C26.4817 11.4491 26.6069 11.3119 26.7689 11.2359C26.8584 11.1935 26.9562 11.1716 27.0553 11.1718C27.1827 11.1731 27.3072 11.2103 27.4145 11.2791C27.5218 11.3479 27.6076 11.4454 27.6621 11.5607C27.9685 12.1966 28.1277 12.8934 28.128 13.5993C28.128 16.1038 26.0894 18.2236 23.7046 18.2236Z" fill="#121728"/>
<path d="M43.6124 37.3664C43.1732 37.3676 42.7382 37.2808 42.333 37.1113C41.9279 36.9417 41.5607 36.6928 41.2533 36.3791L40.2361 35.3491C37.9935 33.1666 35.8665 30.8684 33.8638 28.4639C33.8075 28.3954 33.7654 28.3163 33.7398 28.2314C33.7143 28.1464 33.7058 28.0573 33.715 27.969C33.7241 27.8808 33.7507 27.7952 33.7931 27.7173C33.8355 27.6394 33.8929 27.5707 33.9621 27.5151C34.0825 27.4166 34.2339 27.3637 34.3895 27.3655C34.49 27.3654 34.5892 27.3876 34.6801 27.4305C34.771 27.4733 34.8513 27.5358 34.9151 27.6134C36.8884 29.9834 38.984 32.2488 41.1934 34.4003L42.2149 35.4303C42.3974 35.6172 42.6154 35.7656 42.8562 35.8669C43.0969 35.9682 43.3555 36.0203 43.6167 36.0201C43.8671 36.0208 44.1153 35.9729 44.3475 35.8791C48.0743 34.4003 50.707 32.7164 54.0406 30.5838L55.5878 29.6008C56.2286 29.1949 56.9361 28.9056 57.6777 28.746L62.1909 27.7416L58.8915 26.6988C58.6706 26.6273 58.4398 26.5912 58.2076 26.592C57.8629 26.5917 57.5225 26.6692 57.2118 26.8185C53.7244 28.481 50.3737 29.4127 46.4716 30.494L44.527 31.0368C44.4033 31.0723 44.2754 31.091 44.1467 31.0923C43.8993 31.0914 43.6566 31.0249 43.4433 30.8995C43.2301 30.7741 43.0539 30.5944 42.9329 30.3786C41.7319 28.199 40.5737 26.0236 39.4027 23.737C38.3684 21.7198 37.3769 19.7324 36.3725 17.6596C35.5796 16.0196 34.3533 14.6275 32.8265 13.6339C31.2996 12.6404 29.5301 12.0831 27.7094 12.0224C27.5307 12.0158 27.3618 11.939 27.2393 11.8087C27.1196 11.6768 27.0553 11.5038 27.0598 11.3258C27.0652 11.1545 27.136 10.9917 27.2575 10.8709C27.3791 10.7501 27.5423 10.6804 27.7137 10.6761H27.7607C29.8278 10.7478 31.836 11.3828 33.5684 12.5127C35.3008 13.6425 36.6916 15.2242 37.5906 17.0869C38.5821 19.1427 39.5694 21.1214 40.6036 23.1387C41.7704 25.4124 42.9201 27.5707 44.1125 29.7375C44.1173 29.7443 44.1238 29.7498 44.1312 29.7535C44.1386 29.7572 44.1469 29.7591 44.1552 29.7589L46.1126 29.2161C50.1044 28.1049 53.2542 27.2331 56.6349 25.6175C57.4685 25.2215 58.4208 25.1543 59.3017 25.4295L63.6995 26.8014C63.918 26.8687 64.1076 27.007 64.2385 27.1944C64.3693 27.3817 64.4339 27.6074 64.4218 27.8357C64.4138 28.0644 64.3289 28.2838 64.1807 28.4583C64.0326 28.6328 63.8299 28.7522 63.6055 28.7973L57.9598 30.0495C57.3698 30.1806 56.8072 30.4134 56.2972 30.7376L54.7586 31.7163C51.3609 33.8917 48.6769 35.6055 44.8347 37.127C44.4436 37.2851 44.0257 37.3663 43.6039 37.3664H43.6124Z" fill="#121728"/>
</svg>
