<svg width="58" height="101" viewBox="0 0 58 101" fill="none" xmlns="http://www.w3.org/2000/svg">
<path d="M16.3672 92.2808V81.8918V71.4985V61.1095V50.7206V40.3273V30.8789L57.4378 7.1676V76.4375L16.3672 100.149V92.2808Z" fill="white"/>
<path d="M29.7066 86.7191C29.9343 86.7191 30.1189 86.5345 30.1189 86.3068C30.1189 86.0791 29.9343 85.8945 29.7066 85.8945C29.4789 85.8945 29.2943 86.0791 29.2943 86.3068C29.2943 86.5345 29.4789 86.7191 29.7066 86.7191Z" fill="#231F20"/>
<path d="M56.1967 70.5492C56.5691 70.5492 56.871 70.2474 56.871 69.875C56.871 69.5026 56.5691 69.2007 56.1967 69.2007C55.8243 69.2007 55.5225 69.5026 55.5225 69.875C55.5225 70.2474 55.8243 70.5492 56.1967 70.5492Z" fill="#231F20"/>
<path d="M52.7695 68.4234C52.8689 68.4234 52.966 68.4528 53.0487 68.5081C53.1313 68.5633 53.1957 68.6417 53.2337 68.7335C53.2718 68.8254 53.2817 68.9264 53.2623 69.0239C53.2429 69.1213 53.1951 69.2109 53.1248 69.2812C53.0545 69.3514 52.965 69.3993 52.8675 69.4187C52.7701 69.4381 52.669 69.4281 52.5772 69.3901C52.4854 69.352 52.4069 69.2876 52.3517 69.205C52.2965 69.1224 52.267 69.0252 52.267 68.9258C52.2664 68.8597 52.2791 68.7941 52.3041 68.7329C52.3292 68.6717 52.3661 68.616 52.4129 68.5693C52.4597 68.5225 52.5153 68.4855 52.5765 68.4604C52.6377 68.4354 52.7033 68.4228 52.7695 68.4234Z" fill="#231F20"/>
<path d="M55.952 61.8824C56.1584 61.8824 56.3257 61.7152 56.3257 61.5088C56.3257 61.3024 56.1584 61.1351 55.952 61.1351C55.7457 61.1351 55.5784 61.3024 55.5784 61.5088C55.5784 61.7152 55.7457 61.8824 55.952 61.8824Z" fill="#231F20"/>
<path d="M33.5333 89.3345C33.8535 89.3345 34.1131 89.0749 34.1131 88.7547C34.1131 88.4345 33.8535 88.1749 33.5333 88.1749C33.2131 88.1749 32.9535 88.4345 32.9535 88.7547C32.9535 89.0749 33.2131 89.3345 33.5333 89.3345Z" fill="#231F20"/>
<path d="M48.187 53.9802C48.2368 53.9802 48.2772 53.9398 48.2772 53.89C48.2772 53.8402 48.2368 53.7999 48.187 53.7999C48.1372 53.7999 48.0968 53.8402 48.0968 53.89C48.0968 53.9398 48.1372 53.9802 48.187 53.9802Z" fill="#231F20"/>
<path d="M54.3457 57.1282C54.3924 57.1282 54.4381 57.1421 54.477 57.168C54.5158 57.194 54.546 57.2309 54.5639 57.2741C54.5818 57.3172 54.5865 57.3647 54.5774 57.4105C54.5683 57.4563 54.5457 57.4984 54.5127 57.5315C54.4797 57.5645 54.4376 57.587 54.3918 57.5961C54.3459 57.6052 54.2985 57.6005 54.2553 57.5827C54.2121 57.5648 54.1752 57.5345 54.1493 57.4957C54.1233 57.4568 54.1095 57.4112 54.1095 57.3644C54.1095 57.3018 54.1344 57.2417 54.1787 57.1974C54.223 57.1531 54.283 57.1282 54.3457 57.1282Z" fill="#231F20"/>
<path d="M42.7113 82.8881C42.8501 82.8873 42.986 82.9277 43.1018 83.0043C43.2176 83.0809 43.308 83.1902 43.3615 83.3183C43.415 83.4464 43.4292 83.5875 43.4023 83.7237C43.3755 83.8599 43.3087 83.985 43.2106 84.0832C43.1124 84.1813 42.9873 84.2481 42.8511 84.275C42.7149 84.3018 42.5738 84.2876 42.4457 84.2341C42.3176 84.1806 42.2083 84.0902 42.1317 83.9744C42.0551 83.8586 42.0147 83.7227 42.0155 83.5839C42.0166 83.3997 42.0903 83.2234 42.2206 83.0932C42.3508 82.9629 42.5271 82.8893 42.7113 82.8881Z" fill="#231F20"/>
<path d="M39.7306 84.9152C39.8716 84.9152 40.0095 84.957 40.1267 85.0354C40.244 85.1137 40.3353 85.225 40.3893 85.3553C40.4432 85.4856 40.4574 85.6289 40.4298 85.7672C40.4023 85.9055 40.3344 86.0325 40.2347 86.1322C40.135 86.2319 40.008 86.2999 39.8697 86.3274C39.7314 86.3549 39.5881 86.3408 39.4578 86.2868C39.3275 86.2328 39.2162 86.1415 39.1379 86.0242C39.0595 85.907 39.0177 85.7691 39.0177 85.6281C39.0177 85.4391 39.0928 85.2577 39.2265 85.124C39.3602 84.9903 39.5416 84.9152 39.7306 84.9152Z" fill="#231F20"/>
<path d="M39.6062 81.3249C39.7149 81.3249 39.8212 81.3572 39.9116 81.4176C40.002 81.478 40.0724 81.5638 40.1141 81.6643C40.1557 81.7647 40.1665 81.8752 40.1453 81.9819C40.1241 82.0885 40.0718 82.1865 39.9949 82.2634C39.918 82.3402 39.8201 82.3926 39.7134 82.4138C39.6068 82.435 39.4962 82.4241 39.3958 82.3825C39.2953 82.3409 39.2095 82.2705 39.1491 82.1801C39.0886 82.0897 39.0564 81.9834 39.0564 81.8746C39.0558 81.8023 39.0697 81.7306 39.0971 81.6636C39.1245 81.5967 39.165 81.5358 39.2162 81.4846C39.2673 81.4335 39.3281 81.393 39.3951 81.3656C39.462 81.3382 39.5338 81.3243 39.6062 81.3249Z" fill="#231F20"/>
<path d="M45.4598 76.6522C45.5694 76.6522 45.6765 76.6847 45.7676 76.7456C45.8587 76.8065 45.9297 76.893 45.9717 76.9943C46.0136 77.0955 46.0246 77.2069 46.0032 77.3144C45.9818 77.4218 45.929 77.5205 45.8515 77.598C45.7741 77.6755 45.6754 77.7283 45.5679 77.7496C45.4604 77.771 45.349 77.76 45.2478 77.7181C45.1466 77.6762 45.06 77.6052 44.9991 77.5141C44.9383 77.423 44.9058 77.3159 44.9058 77.2063C44.9052 77.1334 44.9192 77.0611 44.9468 76.9936C44.9745 76.9261 45.0152 76.8648 45.0668 76.8132C45.1183 76.7617 45.1796 76.7209 45.2471 76.6933C45.3146 76.6656 45.3869 76.6517 45.4598 76.6522Z" fill="#231F20"/>
<path d="M47.5858 59.4861C47.6735 59.4861 47.7447 59.4149 47.7447 59.3272C47.7447 59.2394 47.6735 59.1683 47.5858 59.1683C47.498 59.1683 47.4269 59.2394 47.4269 59.3272C47.4269 59.4149 47.498 59.4861 47.5858 59.4861Z" fill="#231F20"/>
<path d="M30.6429 89.8456C30.7525 89.8456 30.8596 89.8781 30.9507 89.939C31.0418 89.9999 31.1128 90.0864 31.1547 90.1876C31.1967 90.2889 31.2077 90.4003 31.1863 90.5078C31.1649 90.6152 31.1121 90.7139 31.0346 90.7914C30.9572 90.8689 30.8585 90.9216 30.751 90.943C30.6435 90.9644 30.5321 90.9534 30.4309 90.9115C30.3297 90.8696 30.2431 90.7986 30.1822 90.7074C30.1214 90.6163 30.0889 90.5092 30.0889 90.3997C30.0889 90.2527 30.1473 90.1118 30.2512 90.0079C30.3551 89.904 30.496 89.8456 30.6429 89.8456Z" fill="#231F20"/>
<path d="M45.5243 81.3376C45.6747 81.3376 45.8216 81.3822 45.9466 81.4657C46.0716 81.5493 46.1691 81.668 46.2266 81.8069C46.2842 81.9458 46.2992 82.0987 46.2699 82.2461C46.2406 82.3936 46.1682 82.529 46.0619 82.6353C45.9556 82.7416 45.8201 82.814 45.6727 82.8434C45.5252 82.8727 45.3723 82.8577 45.2334 82.8001C45.0945 82.7426 44.9758 82.6452 44.8923 82.5201C44.8088 82.3951 44.7642 82.2482 44.7642 82.0978C44.7642 81.8962 44.8443 81.7029 44.9868 81.5603C45.1294 81.4177 45.3227 81.3376 45.5243 81.3376Z" fill="#231F20"/>
<path d="M51.7474 72.207C51.8706 72.207 51.991 72.2436 52.0934 72.312C52.1958 72.3804 52.2756 72.4777 52.3227 72.5914C52.3699 72.7052 52.3822 72.8305 52.3582 72.9513C52.3341 73.0721 52.2748 73.183 52.1877 73.2701C52.1006 73.3572 51.9897 73.4165 51.8689 73.4405C51.7481 73.4646 51.6229 73.4522 51.5091 73.4051C51.3953 73.358 51.298 73.2781 51.2296 73.1757C51.1612 73.0733 51.1246 72.9529 51.1246 72.8298C51.1246 72.6646 51.1903 72.5062 51.3071 72.3894C51.4239 72.2726 51.5822 72.207 51.7474 72.207Z" fill="#231F20"/>
<path d="M50.3945 78.9325C50.5582 78.9368 50.7171 78.989 50.8515 79.0826C50.9859 79.1762 51.0899 79.3072 51.1506 79.4593C51.2113 79.6115 51.2261 79.778 51.1931 79.9385C51.1601 80.0989 51.0808 80.2461 50.965 80.3619C50.8491 80.4777 50.7019 80.557 50.5415 80.59C50.381 80.623 50.2145 80.6083 50.0623 80.5476C49.9102 80.4869 49.7792 80.3829 49.6856 80.2485C49.592 80.1141 49.5398 79.9552 49.5356 79.7915C49.5326 79.6779 49.5528 79.5649 49.595 79.4593C49.6371 79.3538 49.7002 79.2579 49.7805 79.1775C49.8609 79.0972 49.9568 79.034 50.0623 78.9919C50.1679 78.9498 50.2809 78.9296 50.3945 78.9325Z" fill="#231F20"/>
<path d="M37.2184 65.9838C37.2422 65.9838 37.2654 65.9909 37.2852 66.0041C37.305 66.0173 37.3204 66.0361 37.3295 66.0581C37.3386 66.08 37.341 66.1042 37.3363 66.1275C37.3317 66.1509 37.3202 66.1723 37.3034 66.1891C37.2866 66.2059 37.2652 66.2174 37.2418 66.222C37.2185 66.2267 37.1944 66.2243 37.1724 66.2152C37.1504 66.2061 37.1316 66.1907 37.1184 66.1709C37.1052 66.1511 37.0981 66.1278 37.0981 66.1041C37.0981 66.0722 37.1108 66.0416 37.1334 66.019C37.1559 65.9965 37.1865 65.9838 37.2184 65.9838Z" fill="#231F20"/>
<path d="M36.4365 86.4741C36.5677 86.4733 36.6962 86.5115 36.8056 86.5838C36.915 86.6562 37.0004 86.7594 37.051 86.8804C37.1016 87.0015 37.1151 87.1348 37.0897 87.2635C37.0643 87.3922 37.0012 87.5105 36.9085 87.6032C36.8157 87.696 36.6975 87.759 36.5688 87.7844C36.4401 87.8098 36.3068 87.7963 36.1857 87.7458C36.0647 87.6952 35.9615 87.6097 35.8891 87.5003C35.8168 87.3909 35.7786 87.2624 35.7794 87.1312C35.7794 86.957 35.8487 86.7898 35.9719 86.6666C36.0951 86.5434 36.2623 86.4741 36.4365 86.4741Z" fill="#231F20"/>
<path d="M35.1867 75.4926C35.2192 75.492 35.2515 75.4979 35.2817 75.51C35.3119 75.522 35.3394 75.54 35.3626 75.5627C35.3858 75.5855 35.4042 75.6127 35.4168 75.6427C35.4294 75.6727 35.4358 75.7049 35.4358 75.7374C35.4358 75.8034 35.4096 75.8668 35.3629 75.9135C35.3161 75.9602 35.2528 75.9865 35.1867 75.9865C35.1542 75.9865 35.122 75.98 35.092 75.9674C35.062 75.9549 35.0349 75.9364 35.0121 75.9133C34.9893 75.8901 34.9714 75.8626 34.9593 75.8324C34.9473 75.8022 34.9414 75.7699 34.9419 75.7374C34.9414 75.7051 34.9473 75.673 34.9594 75.643C34.9715 75.6131 34.9895 75.5858 35.0123 75.563C35.0352 75.5401 35.0624 75.5221 35.0923 75.51C35.1223 75.4979 35.1544 75.492 35.1867 75.4926Z" fill="#231F20"/>
<path d="M52.0696 61.0407C52.1436 61.0407 52.2146 61.0701 52.267 61.1225C52.3193 61.1748 52.3487 61.2458 52.3487 61.3199C52.3487 61.3939 52.3193 61.4649 52.267 61.5173C52.2146 61.5696 52.1436 61.599 52.0696 61.599C51.9955 61.599 51.9245 61.5696 51.8722 61.5173C51.8198 61.4649 51.7904 61.3939 51.7904 61.3199C51.7904 61.2458 51.8198 61.1748 51.8722 61.1225C51.9245 61.0701 51.9955 61.0407 52.0696 61.0407Z" fill="#231F20"/>
<path d="M32.9751 84.052C33.066 84.052 33.1548 84.0789 33.2303 84.1294C33.3059 84.1799 33.3648 84.2517 33.3996 84.3357C33.4344 84.4196 33.4435 84.512 33.4258 84.6012C33.408 84.6903 33.3643 84.7722 33.3 84.8365C33.2357 84.9007 33.1539 84.9445 33.0647 84.9622C32.9756 84.98 32.8831 84.9709 32.7992 84.9361C32.7152 84.9013 32.6434 84.8424 32.5929 84.7668C32.5424 84.6913 32.5155 84.6024 32.5155 84.5115C32.5155 84.3897 32.5639 84.2728 32.6501 84.1866C32.7363 84.1004 32.8532 84.052 32.9751 84.052Z" fill="#231F20"/>
<path d="M32.872 68.999C32.9028 68.999 32.9323 69.0112 32.954 69.0329C32.9758 69.0547 32.988 69.0841 32.988 69.1149C32.988 69.1301 32.985 69.1452 32.9792 69.1593C32.9733 69.1733 32.9648 69.1861 32.954 69.1969C32.9432 69.2077 32.9305 69.2162 32.9164 69.222C32.9024 69.2279 32.8872 69.2309 32.872 69.2309C32.8568 69.2309 32.8417 69.2279 32.8277 69.222C32.8136 69.2162 32.8008 69.2077 32.79 69.1969C32.7793 69.1861 32.7707 69.1733 32.7649 69.1593C32.7591 69.1452 32.7561 69.1301 32.7561 69.1149C32.7561 69.0841 32.7683 69.0547 32.79 69.0329C32.8118 69.0112 32.8413 68.999 32.872 68.999Z" fill="#231F20"/>
<path d="M25.4634 84.7951C25.5173 84.7942 25.5702 84.8095 25.6154 84.8389C25.6605 84.8683 25.6959 84.9105 25.7169 84.9601C25.7379 85.0097 25.7436 85.0645 25.7333 85.1174C25.723 85.1702 25.6971 85.2188 25.6591 85.2569C25.621 85.295 25.5724 85.3209 25.5195 85.3312C25.4666 85.3415 25.4118 85.3358 25.3622 85.3148C25.3126 85.2937 25.2704 85.2584 25.241 85.2133C25.2116 85.1681 25.1963 85.1152 25.1972 85.0613C25.1983 84.9911 25.2267 84.924 25.2764 84.8743C25.3261 84.8246 25.3932 84.7962 25.4634 84.7951Z" fill="#231F20"/>
<path d="M45.391 63.8968C45.4953 63.8968 45.58 63.8122 45.58 63.7078C45.58 63.6035 45.4953 63.5189 45.391 63.5189C45.2866 63.5189 45.202 63.6035 45.202 63.7078C45.202 63.8122 45.2866 63.8968 45.391 63.8968Z" fill="#231F20"/>
<path d="M18.4287 93.4016C18.6114 93.4016 18.7594 93.2536 18.7594 93.0709C18.7594 92.8883 18.6114 92.7402 18.4287 92.7402C18.2461 92.7402 18.098 92.8883 18.098 93.0709C18.098 93.2536 18.2461 93.4016 18.4287 93.4016Z" fill="#231F20"/>
<path d="M25.1158 80.4014C25.1524 80.4014 25.1881 80.4123 25.2184 80.4325C25.2488 80.4528 25.2725 80.4817 25.2864 80.5154C25.3004 80.5492 25.3041 80.5863 25.297 80.6221C25.2899 80.6579 25.2723 80.6908 25.2464 80.7167C25.2206 80.7425 25.1877 80.7601 25.1519 80.7672C25.116 80.7744 25.0789 80.7707 25.0452 80.7567C25.0114 80.7427 24.9826 80.7191 24.9623 80.6887C24.942 80.6583 24.9312 80.6226 24.9312 80.5861C24.9322 80.5375 24.9521 80.4911 24.9865 80.4567C25.0209 80.4223 25.0672 80.4025 25.1158 80.4014Z" fill="#231F20"/>
<path d="M22.6978 91.6063C22.7743 91.6063 22.849 91.629 22.9126 91.6715C22.9761 91.7139 23.0257 91.7743 23.0549 91.8449C23.0842 91.9156 23.0918 91.9933 23.0769 92.0683C23.062 92.1433 23.0252 92.2121 22.9711 92.2662C22.9171 92.3202 22.8482 92.357 22.7732 92.372C22.6982 92.3869 22.6206 92.3792 22.5499 92.35C22.4793 92.3207 22.4189 92.2712 22.3764 92.2076C22.334 92.144 22.3113 92.0693 22.3113 91.9929C22.3113 91.9421 22.3213 91.8918 22.3407 91.8449C22.3601 91.798 22.3886 91.7554 22.4245 91.7195C22.4604 91.6836 22.503 91.6552 22.5499 91.6358C22.5968 91.6163 22.6471 91.6063 22.6978 91.6063Z" fill="#231F20"/>
<path d="M38.1245 78.2198C38.2103 78.2199 38.2941 78.2457 38.3652 78.2939C38.4362 78.3421 38.4911 78.4105 38.5229 78.4903C38.5546 78.57 38.5618 78.6574 38.5434 78.7413C38.525 78.8251 38.482 78.9015 38.4197 78.9606C38.3575 79.0197 38.279 79.0589 38.1943 79.0729C38.1096 79.087 38.0226 79.0754 37.9446 79.0395C37.8666 79.0037 37.8012 78.9453 37.7567 78.8719C37.7122 78.7985 37.6907 78.7135 37.695 78.6278C37.7005 78.5177 37.7482 78.4139 37.8281 78.3379C37.9081 78.2619 38.0142 78.2197 38.1245 78.2198Z" fill="#231F20"/>
<path d="M51.0086 64.7213C51.0776 64.7204 51.1453 64.7401 51.203 64.7778C51.2608 64.8155 51.3061 64.8695 51.3331 64.933C51.36 64.9965 51.3675 65.0666 51.3546 65.1343C51.3417 65.2021 51.3089 65.2645 51.2604 65.3136C51.212 65.3626 51.15 65.3962 51.0824 65.41C51.0148 65.4238 50.9446 65.4171 50.8808 65.3909C50.817 65.3647 50.7624 65.3202 50.724 65.2629C50.6855 65.2056 50.665 65.1381 50.665 65.0692C50.665 64.9776 50.7011 64.8898 50.7654 64.8247C50.8297 64.7595 50.9171 64.7224 51.0086 64.7213Z" fill="#231F20"/>
<path d="M19.3093 83.73C19.3454 83.7361 19.3781 83.7547 19.4017 83.7826C19.4253 83.8105 19.4382 83.8459 19.4382 83.8824C19.4382 83.919 19.4253 83.9544 19.4017 83.9823C19.3781 84.0102 19.3454 84.0288 19.3093 84.0349C19.2872 84.0386 19.2645 84.0375 19.2428 84.0315C19.2211 84.0256 19.201 84.015 19.1838 84.0005C19.1667 83.986 19.1529 83.9679 19.1434 83.9475C19.1339 83.9271 19.129 83.9049 19.129 83.8824C19.129 83.86 19.1339 83.8378 19.1434 83.8174C19.1529 83.797 19.1667 83.7789 19.1838 83.7644C19.201 83.7499 19.2211 83.7393 19.2428 83.7333C19.2645 83.7274 19.2872 83.7263 19.3093 83.73Z" fill="#231F20"/>
<path d="M54.4704 47.6326C54.4865 47.6326 54.5023 47.6374 54.5157 47.6464C54.5291 47.6553 54.5396 47.6681 54.5458 47.683C54.5519 47.6979 54.5536 47.7143 54.5504 47.7301C54.5473 47.746 54.5395 47.7605 54.5281 47.7719C54.5167 47.7833 54.5021 47.7911 54.4863 47.7943C54.4705 47.7974 54.4541 47.7958 54.4392 47.7896C54.4243 47.7834 54.4115 47.773 54.4025 47.7596C54.3936 47.7461 54.3888 47.7303 54.3888 47.7142C54.3882 47.7033 54.3898 47.6925 54.3937 47.6823C54.3976 47.6721 54.4036 47.6628 54.4113 47.6551C54.419 47.6474 54.4283 47.6414 54.4384 47.6376C54.4486 47.6337 54.4595 47.632 54.4704 47.6326Z" fill="#231F20"/>
<path d="M37.9056 72.0052C37.9524 72.0044 37.9985 72.0175 38.0379 72.0429C38.0773 72.0684 38.1083 72.1049 38.1268 72.148C38.1453 72.1911 38.1506 72.2387 38.142 72.2848C38.1334 72.3309 38.1113 72.3734 38.0784 72.4069C38.0455 72.4403 38.0034 72.4633 37.9575 72.4727C37.9116 72.4822 37.8639 72.4778 37.8205 72.46C37.7771 72.4423 37.7399 72.412 37.7137 72.3731C37.6876 72.3342 37.6736 72.2883 37.6736 72.2414C37.6731 72.2106 37.6786 72.18 37.69 72.1514C37.7014 72.1227 37.7184 72.0967 37.74 72.0747C37.7616 72.0527 37.7874 72.0352 37.8158 72.0233C37.8442 72.0113 37.8747 72.0052 37.9056 72.0052Z" fill="#231F20"/>
<path d="M47.3796 79.1517C47.5274 79.1517 47.6719 79.1955 47.7948 79.2776C47.9177 79.3598 48.0135 79.4765 48.07 79.613C48.1266 79.7496 48.1414 79.8998 48.1125 80.0448C48.0837 80.1897 48.0125 80.3229 47.908 80.4274C47.8035 80.5319 47.6704 80.6031 47.5254 80.6319C47.3805 80.6607 47.2302 80.646 47.0936 80.5894C46.9571 80.5328 46.8404 80.437 46.7583 80.3142C46.6762 80.1913 46.6323 80.0468 46.6323 79.899C46.6318 79.8007 46.6507 79.7032 46.6881 79.6123C46.7254 79.5214 46.7805 79.4388 46.85 79.3693C46.9195 79.2998 47.0021 79.2448 47.093 79.2074C47.1839 79.1701 47.2813 79.1511 47.3796 79.1517Z" fill="#231F20"/>
<path d="M30.7118 77.0473C30.8256 77.0473 30.9179 76.955 30.9179 76.8411C30.9179 76.7273 30.8256 76.635 30.7118 76.635C30.5979 76.635 30.5056 76.7273 30.5056 76.8411C30.5056 76.955 30.5979 77.0473 30.7118 77.0473Z" fill="#231F20"/>
<path d="M27.9759 72.3273C28.0234 72.3273 28.0618 72.2889 28.0618 72.2414C28.0618 72.194 28.0234 72.1555 27.9759 72.1555C27.9285 72.1555 27.89 72.194 27.89 72.2414C27.89 72.2889 27.9285 72.3273 27.9759 72.3273Z" fill="#231F20"/>
<path d="M42.548 79.0013C42.6604 79.0004 42.7706 79.0331 42.8645 79.095C42.9584 79.157 43.0317 79.2455 43.0751 79.3493C43.1186 79.453 43.1302 79.5674 43.1084 79.6777C43.0867 79.7881 43.0326 79.8895 42.9531 79.9691C42.8736 80.0486 42.7721 80.1027 42.6618 80.1244C42.5514 80.1461 42.4371 80.1345 42.3333 80.0911C42.2296 80.0477 42.1411 79.9743 42.0791 79.8805C42.0171 79.7866 41.9845 79.6764 41.9854 79.5639C41.9865 79.415 42.0461 79.2726 42.1514 79.1673C42.2567 79.0621 42.3991 79.0024 42.548 79.0013Z" fill="#231F20"/>
<path d="M36.4365 82.8408C36.5358 82.8408 36.633 82.8702 36.7156 82.9254C36.7983 82.9806 36.8627 83.0591 36.9007 83.1509C36.9387 83.2428 36.9487 83.3438 36.9293 83.4413C36.9099 83.5387 36.862 83.6283 36.7918 83.6986C36.7215 83.7688 36.632 83.8167 36.5345 83.8361C36.437 83.8555 36.336 83.8455 36.2442 83.8075C36.1523 83.7694 36.0739 83.705 36.0187 83.6224C35.9635 83.5398 35.934 83.4426 35.934 83.3432C35.934 83.21 35.9869 83.0822 36.0812 82.9879C36.1754 82.8937 36.3032 82.8408 36.4365 82.8408Z" fill="#231F20"/>
<path d="M42.8143 67.2167C42.8601 67.2167 42.905 67.2303 42.9431 67.2558C42.9813 67.2812 43.011 67.3175 43.0285 67.3599C43.0461 67.4022 43.0507 67.4488 43.0418 67.4938C43.0328 67.5388 43.0107 67.5801 42.9783 67.6126C42.9458 67.645 42.9045 67.6671 42.8595 67.6761C42.8145 67.685 42.7679 67.6804 42.7255 67.6628C42.6831 67.6453 42.6469 67.6156 42.6215 67.5774C42.596 67.5393 42.5824 67.4945 42.5824 67.4486C42.5824 67.3871 42.6068 67.3281 42.6503 67.2846C42.6938 67.2411 42.7528 67.2167 42.8143 67.2167Z" fill="#231F20"/>
<path d="M54.9855 53.4521C55.0193 53.4529 55.0521 53.4637 55.0798 53.4831C55.1074 53.5025 55.1288 53.5296 55.1411 53.561C55.1535 53.5925 55.1563 53.6269 55.1492 53.6599C55.1421 53.693 55.1254 53.7232 55.1012 53.7468C55.077 53.7704 55.0464 53.7863 55.0132 53.7926C54.98 53.7989 54.9457 53.7952 54.9145 53.7821C54.8834 53.769 54.8568 53.747 54.8381 53.7188C54.8194 53.6907 54.8095 53.6576 54.8094 53.6239C54.8094 53.6009 54.814 53.5782 54.8229 53.5571C54.8318 53.536 54.8448 53.5168 54.8612 53.5008C54.8777 53.4848 54.8971 53.4723 54.9184 53.4639C54.9398 53.4555 54.9626 53.4515 54.9855 53.4521Z" fill="#231F20"/>
<path d="M45.3867 73.1692C45.4717 73.1692 45.5548 73.1944 45.6254 73.2416C45.696 73.2888 45.7511 73.3558 45.7836 73.4343C45.8161 73.5128 45.8246 73.5992 45.808 73.6825C45.7914 73.7658 45.7505 73.8423 45.6905 73.9023C45.6304 73.9624 45.5539 74.0033 45.4706 74.0199C45.3873 74.0365 45.3009 74.028 45.2224 73.9955C45.1439 73.9629 45.0769 73.9079 45.0297 73.8373C44.9825 73.7667 44.9573 73.6836 44.9573 73.5987C44.9573 73.4848 45.0026 73.3755 45.0831 73.295C45.1636 73.2144 45.2728 73.1692 45.3867 73.1692Z" fill="#231F20"/>
<path d="M41.2811 75.2736C41.3609 75.2736 41.4389 75.2973 41.5053 75.3416C41.5717 75.386 41.6235 75.4491 41.654 75.5228C41.6846 75.5966 41.6926 75.6778 41.677 75.7561C41.6614 75.8344 41.623 75.9063 41.5665 75.9628C41.5101 76.0192 41.4381 76.0577 41.3598 76.0733C41.2815 76.0889 41.2003 76.0808 41.1266 76.0503C41.0528 76.0197 40.9897 75.968 40.9454 75.9016C40.901 75.8352 40.8773 75.7572 40.8773 75.6773C40.8784 75.5706 40.9213 75.4686 40.9968 75.3931C41.0723 75.3176 41.1743 75.2747 41.2811 75.2736Z" fill="#231F20"/>
<path d="M17.9605 98.3148C18.2001 98.3148 18.3943 98.1207 18.3943 97.8811C18.3943 97.6415 18.2001 97.4473 17.9605 97.4473C17.7209 97.4473 17.5267 97.6415 17.5267 97.8811C17.5267 98.1207 17.7209 98.3148 17.9605 98.3148Z" fill="#231F20"/>
<path d="M55.5094 65.3098C55.5767 65.3035 55.6445 65.3112 55.7086 65.3326C55.7727 65.354 55.8316 65.3886 55.8816 65.4341C55.9316 65.4795 55.9715 65.535 55.9988 65.5968C56.0262 65.6586 56.0403 65.7254 56.0403 65.793C56.0403 65.8606 56.0262 65.9274 55.9988 65.9892C55.9715 66.051 55.9316 66.1064 55.8816 66.1519C55.8316 66.1974 55.7727 66.2319 55.7086 66.2533C55.6445 66.2747 55.5767 66.2825 55.5094 66.2761C55.3891 66.2648 55.2774 66.209 55.196 66.1196C55.1147 66.0303 55.0697 65.9138 55.0697 65.793C55.0697 65.6722 55.1147 65.5557 55.196 65.4663C55.2774 65.377 55.3891 65.3212 55.5094 65.3098Z" fill="#231F20"/>
<path d="M33.6922 80.0106C33.7849 80.0106 33.8738 80.0471 33.9397 80.1122C34.0056 80.1773 34.0433 80.2658 34.0444 80.3584C34.0444 80.4047 34.0353 80.4505 34.0176 80.4932C33.9999 80.5359 33.9739 80.5748 33.9412 80.6075C33.9085 80.6402 33.8697 80.6661 33.827 80.6838C33.7843 80.7015 33.7385 80.7106 33.6922 80.7106C33.5996 80.7095 33.5111 80.6719 33.446 80.606C33.3808 80.54 33.3444 80.4511 33.3444 80.3584C33.3444 80.2662 33.381 80.1777 33.4462 80.1124C33.5115 80.0472 33.5999 80.0106 33.6922 80.0106Z" fill="#231F20"/>
<path d="M48.9001 75.2006C49.2203 75.2006 49.4799 74.941 49.4799 74.6208C49.4799 74.3006 49.2203 74.041 48.9001 74.041C48.5799 74.041 48.3203 74.3006 48.3203 74.6208C48.3203 74.941 48.5799 75.2006 48.9001 75.2006Z" fill="#231F20"/>
<path d="M48.1183 67.7878C48.3033 67.7878 48.4533 67.6378 48.4533 67.4528C48.4533 67.2678 48.3033 67.1178 48.1183 67.1178C47.9333 67.1178 47.7833 67.2678 47.7833 67.4528C47.7833 67.6378 47.9333 67.7878 48.1183 67.7878Z" fill="#231F20"/>
<path d="M19.3308 88.3297C19.3767 88.3297 19.4215 88.3433 19.4596 88.3687C19.4978 88.3942 19.5275 88.4304 19.5451 88.4728C19.5626 88.5152 19.5672 88.5618 19.5582 88.6068C19.5493 88.6518 19.5272 88.6931 19.4948 88.7256C19.4624 88.758 19.421 88.7801 19.3761 88.789C19.3311 88.798 19.2844 88.7934 19.2421 88.7758C19.1997 88.7583 19.1635 88.7286 19.138 88.6904C19.1125 88.6523 19.0989 88.6075 19.0989 88.5616C19.0989 88.5001 19.1233 88.4411 19.1668 88.3976C19.2103 88.3541 19.2693 88.3297 19.3308 88.3297Z" fill="#231F20"/>
<path d="M54.9168 72.207C55.0578 72.207 55.1956 72.2489 55.3129 72.3272C55.4301 72.4055 55.5215 72.5169 55.5754 72.6471C55.6294 72.7774 55.6435 72.9207 55.616 73.059C55.5885 73.1973 55.5206 73.3244 55.4209 73.4241C55.3212 73.5238 55.1942 73.5917 55.0559 73.6192C54.9176 73.6467 54.7742 73.6326 54.644 73.5786C54.5137 73.5247 54.4024 73.4333 54.324 73.3161C54.2457 73.1988 54.2039 73.061 54.2039 72.9199C54.2039 72.8263 54.2223 72.7336 54.2581 72.6471C54.2939 72.5606 54.3465 72.482 54.4127 72.4158C54.4789 72.3496 54.5575 72.2971 54.644 72.2613C54.7305 72.2255 54.8232 72.207 54.9168 72.207Z" fill="#231F20"/>
<path d="M47.8906 70.3089C47.9716 70.308 48.0511 70.3313 48.1188 70.3758C48.1866 70.4203 48.2396 70.484 48.271 70.5587C48.3024 70.6334 48.3108 70.7158 48.2952 70.7954C48.2796 70.8749 48.2406 70.948 48.1833 71.0053C48.126 71.0627 48.0529 71.1016 47.9734 71.1172C47.8938 71.1328 47.8114 71.1244 47.7367 71.0929C47.662 71.0615 47.5983 71.0086 47.5538 70.9408C47.5093 70.8731 47.486 70.7936 47.4868 70.7126C47.4868 70.6055 47.5294 70.5028 47.6051 70.4271C47.6808 70.3514 47.7835 70.3089 47.8906 70.3089Z" fill="#231F20"/>
<path d="M42.0583 71.1162C42.1156 71.1153 42.1718 71.1316 42.2198 71.1629C42.2678 71.1942 42.3054 71.2391 42.3277 71.2918C42.35 71.3446 42.356 71.4028 42.3451 71.459C42.3341 71.5152 42.3066 71.5669 42.2661 71.6074C42.2256 71.6479 42.174 71.6753 42.1177 71.6863C42.0615 71.6973 42.0033 71.6912 41.9506 71.6689C41.8978 71.6466 41.8529 71.6091 41.8216 71.5611C41.7903 71.5131 41.7741 71.4569 41.7749 71.3996C41.776 71.3248 41.8063 71.2533 41.8592 71.2004C41.9121 71.1475 41.9835 71.1173 42.0583 71.1162Z" fill="#231F20"/>
<path d="M56.3985 76.2356C56.8658 76.2356 57.2446 75.8568 57.2446 75.3895C57.2446 74.9222 56.8658 74.5435 56.3985 74.5435C55.9313 74.5435 55.5525 74.9222 55.5525 75.3895C55.5525 75.8568 55.9313 76.2356 56.3985 76.2356Z" fill="#231F20"/>
<path d="M29.376 81.1057C29.4504 81.1068 29.5214 81.1372 29.5736 81.1902C29.6259 81.2433 29.6551 81.3147 29.6551 81.3892C29.6551 81.4258 29.6479 81.4621 29.6339 81.496C29.6199 81.5299 29.5993 81.5606 29.5734 81.5866C29.5475 81.6125 29.5167 81.6331 29.4828 81.6471C29.4489 81.6611 29.4127 81.6683 29.376 81.6683C29.3016 81.6684 29.2301 81.6391 29.177 81.5868C29.124 81.5346 29.0937 81.4636 29.0925 81.3892C29.0936 81.3143 29.1239 81.2429 29.1768 81.19C29.2297 81.137 29.3012 81.1068 29.376 81.1057Z" fill="#231F20"/>
<path d="M27.8386 90.4812C27.9398 90.4803 28.039 90.5096 28.1236 90.5652C28.2083 90.6208 28.2745 90.7004 28.3138 90.7937C28.3531 90.887 28.3639 90.9899 28.3446 91.0893C28.3254 91.1887 28.277 91.2802 28.2057 91.3521C28.1344 91.424 28.0434 91.4731 27.9441 91.4932C27.8449 91.5132 27.7419 91.5034 27.6483 91.4648C27.5547 91.4262 27.4746 91.3608 27.4182 91.2766C27.3619 91.1925 27.3318 91.0935 27.3318 90.9922C27.3312 90.9253 27.3439 90.859 27.3691 90.797C27.3943 90.735 27.4316 90.6786 27.4787 90.6311C27.5258 90.5836 27.5819 90.5459 27.6436 90.5201C27.7054 90.4944 27.7716 90.4812 27.8386 90.4812Z" fill="#231F20"/>
<path d="M40.3706 60.4266C40.3831 60.4237 40.3962 60.4237 40.4088 60.4266C40.4214 60.4295 40.4331 60.4351 40.4432 60.4432C40.4533 60.4512 40.4614 60.4614 40.467 60.4731C40.4726 60.4847 40.4755 60.4974 40.4755 60.5103C40.4755 60.5232 40.4726 60.536 40.467 60.5476C40.4614 60.5592 40.4533 60.5694 40.4432 60.5775C40.4331 60.5855 40.4214 60.5912 40.4088 60.5941C40.3962 60.5969 40.3831 60.597 40.3706 60.5941C40.3493 60.5931 40.3291 60.5841 40.314 60.569C40.2989 60.5539 40.29 60.5338 40.2889 60.5125C40.2889 60.4904 40.2974 60.4692 40.3126 60.4532C40.3278 60.4372 40.3485 60.4277 40.3706 60.4266Z" fill="#231F20"/>
<path d="M50.8413 76.1625C50.9935 76.1617 51.1425 76.206 51.2695 76.29C51.3965 76.3739 51.4957 76.4937 51.5546 76.6341C51.6134 76.7745 51.6292 76.9292 51.6001 77.0786C51.5709 77.228 51.498 77.3654 51.3906 77.4734C51.2833 77.5813 51.1464 77.6549 50.9971 77.6849C50.8479 77.715 50.6931 77.7 50.5523 77.6419C50.4116 77.5839 50.2913 77.4853 50.2066 77.3588C50.122 77.2323 50.0768 77.0835 50.0768 76.9313C50.0768 76.7282 50.1572 76.5333 50.3004 76.3892C50.4437 76.2452 50.6381 76.1637 50.8413 76.1625Z" fill="#231F20"/>
<path d="M21.5123 77.1374C21.5313 77.1384 21.5493 77.1465 21.5627 77.1599C21.5762 77.1734 21.5843 77.1914 21.5853 77.2104C21.5853 77.2298 21.5776 77.2483 21.5639 77.262C21.5502 77.2757 21.5316 77.2834 21.5123 77.2834C21.5025 77.2841 21.4927 77.2826 21.4836 77.2792C21.4744 77.2757 21.4662 77.2704 21.4593 77.2634C21.4523 77.2565 21.447 77.2482 21.4435 77.2391C21.4401 77.2299 21.4386 77.2202 21.4392 77.2104C21.4392 77.2008 21.4411 77.1913 21.4448 77.1825C21.4485 77.1736 21.4538 77.1656 21.4606 77.1588C21.4674 77.152 21.4755 77.1466 21.4843 77.1429C21.4932 77.1393 21.5027 77.1374 21.5123 77.1374Z" fill="#231F20"/>
<path d="M25.6569 94.368C25.9415 94.368 26.1722 94.1373 26.1722 93.8527C26.1722 93.568 25.9415 93.3373 25.6569 93.3373C25.3722 93.3373 25.1415 93.568 25.1415 93.8527C25.1415 94.1373 25.3722 94.368 25.6569 94.368Z" fill="#231F20"/>
<path d="M54.0836 78.0521C54.5509 78.0521 54.9297 77.6733 54.9297 77.206C54.9297 76.7387 54.5509 76.3599 54.0836 76.3599C53.6163 76.3599 53.2375 76.7387 53.2375 77.206C53.2375 77.6733 53.6163 78.0521 54.0836 78.0521Z" fill="#231F20"/>
<path d="M21.4608 96.4164C21.7241 96.4164 21.9376 96.2029 21.9376 95.9397C21.9376 95.6764 21.7241 95.463 21.4608 95.463C21.1976 95.463 20.9841 95.6764 20.9841 95.9397C20.9841 96.2029 21.1976 96.4164 21.4608 96.4164Z" fill="#231F20"/>
<path d="M24.5917 88.2694C24.6588 88.2694 24.7244 88.2893 24.7802 88.3266C24.836 88.3639 24.8795 88.4169 24.9052 88.4789C24.9309 88.5408 24.9376 88.6091 24.9245 88.6749C24.9114 88.7407 24.8791 88.8011 24.8316 88.8486C24.7842 88.896 24.7237 88.9284 24.6579 88.9415C24.5921 88.9546 24.5239 88.9478 24.4619 88.9221C24.3999 88.8965 24.3469 88.853 24.3096 88.7972C24.2724 88.7414 24.2524 88.6758 24.2524 88.6087C24.2524 88.5187 24.2882 88.4324 24.3518 88.3688C24.4155 88.3052 24.5018 88.2694 24.5917 88.2694Z" fill="#231F20"/>
<path d="M57.4379 7.16752L16.3673 30.8788L5.80225 24.776L46.8643 1.0647L57.4379 7.16752Z" fill="#EAF0FF"/>
<path d="M16.3673 92.2809V100.149L5.80225 94.0417V92.9595C6.51624 93.1957 7.24896 93.3709 7.99255 93.4834C11.0676 93.9644 14.1985 93.4491 16.3673 92.2809Z" fill="#EAF0FF"/>
<path d="M16.3673 81.8917V92.2806C14.2199 93.4488 11.0676 93.9642 7.99255 93.4832C7.24896 93.3707 6.51624 93.1954 5.80225 92.9592V82.5659C6.51611 82.8036 7.24883 82.9803 7.99255 83.0942C11.0676 83.5709 14.1985 83.0555 16.3673 81.8917Z" fill="#EAF0FF"/>
<path d="M16.3673 71.4985V81.8918C14.2199 83.0557 11.0676 83.5711 7.99255 83.0943C7.24883 82.9805 6.51611 82.8038 5.80225 82.5661V72.1771C6.51611 72.4148 7.24883 72.5915 7.99255 72.7054C11.0676 73.1821 14.1985 72.6667 16.3673 71.4985Z" fill="#EAF0FF"/>
<path d="M16.3673 61.1096V71.4985C14.2199 72.6667 11.0676 73.1821 7.99255 72.7054C7.24883 72.5915 6.51611 72.4148 5.80225 72.1771V61.7881C6.51489 62.028 7.246 62.209 7.98825 62.3293C11.0676 62.7931 14.1985 62.2734 16.3673 61.1096Z" fill="#EAF0FF"/>
<path d="M16.3673 50.7335V61.1224C14.2199 62.2863 11.0676 62.806 7.99255 62.325C7.24934 62.2105 6.51679 62.0353 5.80225 61.801V51.4077C6.51611 51.6454 7.24883 51.8221 7.99255 51.936C11.0676 52.3998 14.1985 51.8845 16.3673 50.7335Z" fill="#EAF0FF"/>
<path d="M16.3673 40.3271V50.7333C14.2199 51.8972 11.0676 52.4125 7.99255 51.9358C7.24883 51.8219 6.51611 51.6452 5.80225 51.4076V41.0057C6.51624 41.2419 7.24896 41.4172 7.99255 41.5297C11.0676 42.0107 14.1985 41.4953 16.3673 40.3271Z" fill="#EAF0FF"/>
<path d="M16.3673 30.8788V40.3273C14.2199 41.4954 11.0676 42.0108 7.99255 41.5298C7.24896 41.4173 6.51624 41.242 5.80225 41.0058V24.776L16.3673 30.8788Z" fill="#EAF0FF"/>
<path d="M16.3673 100.686C16.2253 100.684 16.0894 100.628 15.9889 100.527C15.8885 100.427 15.8316 100.291 15.8304 100.149V30.8789C15.8305 30.784 15.8556 30.6907 15.9031 30.6086C15.9505 30.5264 16.0188 30.4582 16.101 30.4107L57.1673 6.70375C57.2491 6.65751 57.3415 6.63335 57.4355 6.63367C57.5295 6.63399 57.6217 6.65878 57.7032 6.70559C57.7847 6.75239 57.8526 6.8196 57.9002 6.90061C57.9478 6.98162 57.9735 7.07362 57.9747 7.16758V76.4374C57.9748 76.5318 57.9497 76.6245 57.9022 76.706C57.8546 76.7875 57.7863 76.8549 57.7042 76.9013L16.6379 100.613C16.5556 100.66 16.4623 100.685 16.3673 100.686ZM16.9041 31.1881V99.2168L56.9011 76.1282V8.09954L16.9041 31.1881Z" fill="#1F1F1F"/>
<path d="M16.3673 100.685C16.2738 100.684 16.1822 100.659 16.101 100.612L5.53165 94.5096C5.45084 94.461 5.38389 94.3924 5.33726 94.3104C5.29062 94.2284 5.26588 94.1358 5.26538 94.0415V24.7759C5.26588 24.6816 5.29062 24.589 5.33726 24.507C5.38389 24.4251 5.45084 24.3564 5.53165 24.3078L46.5937 0.600829C46.6748 0.552413 46.7676 0.526855 46.8621 0.526855C46.9566 0.526855 47.0494 0.552413 47.1305 0.600829L57.7042 6.70367C57.7696 6.7365 57.8275 6.78236 57.8746 6.83843C57.9216 6.89449 57.9567 6.95958 57.9776 7.02969C57.9986 7.0998 58.0049 7.17346 57.9964 7.24613C57.9878 7.31881 57.9645 7.38896 57.9279 7.4523C57.8912 7.51563 57.842 7.57081 57.7833 7.61444C57.7245 7.65806 57.6575 7.68921 57.5863 7.70597C57.515 7.72274 57.4411 7.72476 57.3691 7.71192C57.297 7.69909 57.2284 7.67167 57.1673 7.63133L46.8599 1.68311L6.33477 25.0852V93.7323L16.6421 99.6805C16.7651 99.7523 16.8547 99.8697 16.8917 100.007C16.9287 100.145 16.91 100.291 16.8397 100.415C16.7912 100.497 16.7222 100.565 16.6393 100.613C16.5565 100.66 16.4627 100.685 16.3673 100.685Z" fill="#1F1F1F"/>
<path d="M16.3672 31.407C16.2737 31.4055 16.1821 31.3804 16.1009 31.334L5.53158 25.2311C5.408 25.16 5.31772 25.0426 5.28067 24.9049C5.24362 24.7671 5.2628 24.6203 5.33399 24.4967C5.40518 24.3732 5.52256 24.2829 5.66029 24.2459C5.79801 24.2088 5.94484 24.228 6.06842 24.2992L16.6378 30.4063C16.6989 30.4411 16.7526 30.4876 16.7956 30.5432C16.8387 30.5988 16.8703 30.6623 16.8887 30.7302C16.9071 30.7981 16.9118 30.8689 16.9026 30.9386C16.8935 31.0084 16.8706 31.0756 16.8353 31.1364C16.7872 31.218 16.7189 31.2858 16.6368 31.3332C16.5548 31.3806 16.4619 31.406 16.3672 31.407Z" fill="#1F1F1F"/>
<path d="M10.3159 42.2472C9.51067 42.2479 8.70653 42.1862 7.91083 42.0625C7.13668 41.9431 6.37389 41.7592 5.63035 41.5128C4.96881 41.2914 4.33135 41.0036 3.72776 40.6538C2.64817 40.0842 1.76964 39.1967 1.21104 38.1113C0.985367 37.6438 0.863917 37.1329 0.855019 36.6138C0.846121 36.0948 0.949989 35.58 1.15951 35.105C1.79513 33.6233 3.42715 32.3478 5.63035 31.6048C5.69718 31.5822 5.76779 31.5731 5.83817 31.5778C5.90855 31.5825 5.97732 31.6011 6.04053 31.6324C6.10374 31.6637 6.16015 31.7071 6.20656 31.7603C6.25298 31.8134 6.28849 31.8751 6.31105 31.9419C6.33361 32.0088 6.34278 32.0794 6.33805 32.1498C6.33332 32.2202 6.31478 32.2889 6.28347 32.3521C6.25217 32.4153 6.20872 32.4718 6.15561 32.5182C6.10249 32.5646 6.04078 32.6001 5.97395 32.6227C4.0585 33.2669 2.66269 34.3405 2.14732 35.5302C1.99678 35.8646 1.92182 36.2281 1.92776 36.5948C1.9337 36.9615 2.02037 37.3224 2.18166 37.6518C2.6523 38.5357 3.38011 39.2561 4.2689 39.7176C4.81351 40.0301 5.38926 40.2848 5.98679 40.4777C6.67256 40.7063 7.3766 40.8758 8.09123 40.9845C10.9558 41.414 13.9621 40.9845 16.1267 39.8378C17.1069 39.374 17.9123 38.6077 18.4244 37.6518C18.4916 37.5396 18.5975 37.4558 18.7221 37.4162C18.8468 37.3765 18.9816 37.3837 19.1013 37.4365C19.221 37.4892 19.3173 37.5838 19.3722 37.7025C19.427 37.8213 19.4367 37.9559 19.3993 38.0813C18.7934 39.2501 17.8243 40.1906 16.6378 40.7612C14.682 41.7613 12.5125 42.2713 10.3159 42.2472Z" fill="#1F1F1F"/>
<path d="M10.3159 52.6361C9.51069 52.6368 8.70655 52.5751 7.91085 52.4514C7.13643 52.3354 6.37347 52.1529 5.63037 51.9059C4.96923 51.6835 4.33187 51.3958 3.72777 51.047C2.64849 50.479 1.76991 49.5929 1.21106 48.5088C0.98594 48.0411 0.864771 47.5302 0.855875 47.0113C0.846978 46.4923 0.950567 45.9776 1.15953 45.5025C1.79515 44.0208 3.42717 42.7453 5.63037 42.0023C5.76534 41.9567 5.91289 41.9666 6.04055 42.0299C6.16821 42.0931 6.26551 42.2044 6.31107 42.3394C6.35663 42.4744 6.34672 42.6219 6.28349 42.7496C6.22027 42.8773 6.10894 42.9746 5.97397 43.0201C4.05851 43.6643 2.66271 44.738 2.14734 45.9277C1.9968 46.2621 1.92184 46.6256 1.92778 46.9923C1.93372 47.359 2.02039 47.7199 2.18168 48.0493C2.65122 48.9341 3.37932 49.6547 4.26892 50.115C4.81391 50.4279 5.38955 50.6841 5.98681 50.8795C6.67299 51.1056 7.37694 51.2737 8.09125 51.382C10.9558 51.8115 13.9621 51.382 16.1267 50.2353C17.1075 49.7744 17.9134 49.0092 18.4244 48.0536C18.4462 47.9806 18.4832 47.9131 18.5331 47.8555C18.583 47.798 18.6445 47.7517 18.7136 47.7197C18.7827 47.6878 18.8579 47.6709 18.934 47.6703C19.0101 47.6696 19.0856 47.6851 19.1552 47.7158C19.2249 47.7465 19.2873 47.7916 19.3382 47.8483C19.3891 47.9049 19.4273 47.9718 19.4504 48.0443C19.4735 48.1169 19.4809 48.1936 19.472 48.2692C19.4632 48.3448 19.4384 48.4177 19.3993 48.483C18.7926 49.6524 17.8239 50.594 16.6378 51.1673C14.6798 52.1595 12.5108 52.6634 10.3159 52.6361Z" fill="#1F1F1F"/>
<path d="M10.3159 63.0292C9.51068 63.0298 8.70655 62.9681 7.91083 62.8445C7.13678 62.7246 6.37402 62.5407 5.63035 62.2948C4.97114 62.0709 4.33535 61.7833 3.73206 61.4358C2.6509 60.8649 1.77097 59.976 1.21104 58.8891C0.985367 58.4215 0.863917 57.9106 0.855019 57.3916C0.846121 56.8725 0.949989 56.3577 1.15951 55.8827C1.79513 54.4011 3.42715 53.1212 5.63035 52.3825C5.76119 52.3496 5.89962 52.3672 6.01809 52.4317C6.13656 52.4963 6.22637 52.603 6.26969 52.7308C6.313 52.8586 6.30661 52.998 6.25181 53.1213C6.197 53.2445 6.09782 53.3427 5.97395 53.3961C4.0585 54.0446 2.66269 55.114 2.14732 56.3079C1.99678 56.6423 1.92182 57.0059 1.92776 57.3726C1.9337 57.7393 2.02037 58.1001 2.18166 58.4295C2.65443 59.313 3.38156 60.0341 4.2689 60.4996C4.81541 60.8072 5.39081 61.0603 5.98679 61.2555C6.67281 61.4831 7.37678 61.6526 8.09123 61.7622C10.9558 62.1917 13.9621 61.7623 16.1267 60.6156C17.1069 60.1517 17.9123 59.3854 18.4244 58.4295C18.4916 58.3173 18.5975 58.2336 18.7221 58.1939C18.8468 58.1543 18.9816 58.1615 19.1013 58.2142C19.221 58.2669 19.3173 58.3615 19.3722 58.4803C19.427 58.599 19.4367 58.7337 19.3993 58.859C18.7911 60.0262 17.8227 60.966 16.6378 61.5389C14.6824 62.5405 12.5128 63.052 10.3159 63.0292Z" fill="#1F1F1F"/>
<path d="M10.3159 73.4182C9.51069 73.419 8.70655 73.3572 7.91085 73.2335C7.1367 73.1141 6.3739 72.9302 5.63037 72.6838C4.97115 72.46 4.33535 72.1723 3.73207 71.8249C2.65241 71.2519 1.77301 70.3635 1.21106 69.2781C0.98594 68.8104 0.864771 68.2995 0.855875 67.7806C0.846978 67.2616 0.950567 66.7469 1.15953 66.2718C1.79515 64.7901 3.42717 63.5146 5.63037 62.7716C5.76534 62.726 5.91289 62.7359 6.04055 62.7991C6.16821 62.8624 6.26551 62.9737 6.31107 63.1087C6.35663 63.2437 6.34672 63.3912 6.28349 63.5189C6.22027 63.6465 6.10894 63.7439 5.97397 63.7894C4.05851 64.4336 2.66271 65.5073 2.14734 66.6969C1.9968 67.0314 1.92184 67.3949 1.92778 67.7616C1.93372 68.1283 2.02039 68.4892 2.18168 68.8185C2.65207 69.7038 3.37983 70.4256 4.26892 70.8886C4.81528 71.1976 5.39067 71.4523 5.98681 71.6488C6.67299 71.8749 7.37694 72.043 8.09125 72.1513C10.9558 72.5807 13.9621 72.1513 16.1267 71.0046C17.1069 70.5407 17.9124 69.7745 18.4244 68.8185C18.454 68.7545 18.4959 68.697 18.5478 68.6492C18.5996 68.6014 18.6604 68.5642 18.7266 68.5399C18.7928 68.5156 18.8632 68.5045 18.9336 68.5074C19.0041 68.5103 19.0733 68.527 19.1373 68.5566C19.2013 68.5862 19.2589 68.6281 19.3067 68.68C19.3545 68.7318 19.3916 68.7926 19.416 68.8588C19.4403 68.925 19.4514 68.9953 19.4485 69.0658C19.4457 69.1363 19.4289 69.2055 19.3993 69.2695C18.7934 70.4383 17.8243 71.3788 16.6378 71.9494C14.6805 72.9436 12.5111 73.4476 10.3159 73.4182Z" fill="#1F1F1F"/>
<path d="M10.3159 83.8029C9.51062 83.8035 8.70649 83.7417 7.91078 83.6182C7.13646 83.5017 6.37354 83.3192 5.6303 83.0728C4.97109 82.8489 4.33529 82.5612 3.732 82.2138C2.6536 81.6431 1.77434 80.7579 1.21099 79.6756C0.987247 79.2075 0.866846 78.6968 0.857953 78.1781C0.849061 77.6593 0.951888 77.1448 1.15946 76.6693C1.79937 75.1876 3.42709 73.9121 5.6303 73.1691C5.69713 73.1465 5.76773 73.1373 5.83811 73.1421C5.90849 73.1468 5.97727 73.1654 6.04048 73.1967C6.10369 73.228 6.16009 73.2714 6.20651 73.3245C6.25293 73.3777 6.28844 73.4394 6.311 73.5062C6.33355 73.5731 6.34273 73.6437 6.33799 73.714C6.33326 73.7844 6.31472 73.8532 6.28342 73.9164C6.25211 73.9796 6.20866 74.036 6.15555 74.0824C6.10244 74.1289 6.04073 74.1644 5.9739 74.1869C4.05844 74.8311 2.66264 75.9048 2.14727 77.0945C1.99423 77.4328 1.91794 77.8008 1.92388 78.172C1.92982 78.5433 2.01783 78.9086 2.18161 79.2419C2.65591 80.1231 3.38276 80.8424 4.26884 81.3076C4.81536 81.6152 5.39075 81.8684 5.98674 82.0635C6.67291 82.2896 7.37687 82.4577 8.09117 82.566C10.9558 82.9955 13.9621 82.566 16.1266 81.4236C17.1065 80.9614 17.9121 80.1965 18.4243 79.2419C18.4916 79.1297 18.5974 79.0459 18.7221 79.0062C18.8467 78.9666 18.9815 78.9738 19.1012 79.0265C19.2209 79.0793 19.3172 79.1739 19.3721 79.2926C19.427 79.4113 19.4366 79.546 19.3992 79.6713C18.7906 80.8371 17.8221 81.7754 16.6377 82.3469C14.6786 83.3347 12.5097 83.8342 10.3159 83.8029Z" fill="#1F1F1F"/>
<path d="M10.3159 94.2004C9.51065 94.2012 8.70651 94.1395 7.91081 94.0158C7.13666 93.8964 6.37387 93.7125 5.63033 93.466C4.97111 93.2422 4.33532 92.9545 3.73204 92.6071C2.65301 92.0353 1.77367 91.1485 1.21103 90.0646C0.986458 89.5968 0.865626 89.086 0.856731 88.5671C0.847836 88.0482 0.951091 87.5336 1.15949 87.0583C1.79941 85.5766 3.42713 84.2968 5.63033 83.5581C5.69686 83.5352 5.76729 83.5257 5.83752 83.5301C5.90774 83.5346 5.97637 83.5529 6.03946 83.5841C6.10256 83.6152 6.15883 83.6586 6.20508 83.7116C6.25132 83.7646 6.28661 83.8263 6.30888 83.8931C6.35411 84.0281 6.34433 84.1755 6.28162 84.3033C6.21891 84.4311 6.10837 84.5291 5.97393 84.5759C4.05848 85.2201 2.66267 86.2938 2.1473 87.4835C1.99668 87.8186 1.92165 88.1828 1.92759 88.5502C1.93352 88.9176 2.02027 89.2792 2.18164 89.6094C2.65489 90.4914 3.38201 91.211 4.26888 91.6751C4.81451 91.9845 5.39008 92.2377 5.98678 92.431C6.67254 92.6596 7.37658 92.8291 8.09121 92.9378C10.9558 93.3673 13.9621 92.9378 16.1267 91.7911C17.1074 91.3301 17.9133 90.565 18.4244 89.6094C18.454 89.5454 18.4959 89.4878 18.5477 89.44C18.5996 89.3922 18.6604 89.3551 18.7266 89.3307C18.7928 89.3064 18.8631 89.2953 18.9336 89.2982C19.0041 89.3011 19.0733 89.3178 19.1373 89.3474C19.2013 89.377 19.2589 89.4189 19.3067 89.4708C19.3545 89.5226 19.3916 89.5834 19.4159 89.6496C19.4402 89.7158 19.4513 89.7861 19.4485 89.8566C19.4456 89.9271 19.4289 89.9963 19.3992 90.0603C18.7918 91.227 17.8231 92.1657 16.6378 92.7359C14.6801 93.7286 12.5107 94.2312 10.3159 94.2004Z" fill="#1F1F1F"/>
<path d="M25.7469 40.9328L27.7096 39.799C28.6029 39.2836 29.2514 39.0575 29.6551 39.1205C30.0588 39.1806 30.2606 39.5285 30.2606 40.1684C30.2624 40.5909 30.1715 41.0087 29.9944 41.3924C29.8367 41.7484 29.595 42.0608 29.29 42.3029V42.3501C29.688 42.227 29.9743 42.2527 30.149 42.4274C30.3564 42.7077 30.4514 43.0555 30.4152 43.4023C30.4087 44.0882 30.1913 44.7554 29.7925 45.3135C29.3518 45.946 28.7732 46.4703 28.1004 46.8467L25.7426 48.2081L25.7469 40.9328ZM27.0825 43.0416L27.8599 42.6121C28.1629 42.4511 28.4302 42.2305 28.6458 41.9636C28.8103 41.7366 28.8962 41.4622 28.8906 41.1819C28.8906 40.9028 28.8004 40.7525 28.6244 40.7525C28.3157 40.771 28.0183 40.8751 27.7654 41.0531L27.0611 41.4826L27.0825 43.0416ZM27.0825 44.2656V46.1638L27.9415 45.6613C28.2638 45.4884 28.5428 45.2446 28.7575 44.9484C28.9313 44.68 29.0224 44.3663 29.0194 44.0465C29.0194 43.4453 28.6458 43.3594 27.8985 43.7888L27.0825 44.2656Z" fill="black"/>
<path d="M33.0138 41.2205V44.0121L31.6781 44.7852V37.5099L33.512 36.4491C34.3709 35.9552 35.0022 35.7705 35.4145 35.895C35.8268 36.0196 36.0287 36.4448 36.0287 37.1835C36.0238 37.6399 35.9197 38.0898 35.7237 38.502C35.5095 38.9753 35.2193 39.4105 34.8648 39.7904C35.8153 40.8812 36.4338 41.5813 36.7201 41.8905L35.2384 42.7494L33.7352 40.8254L33.0138 41.2205ZM33.0138 39.9665L33.4432 39.7174C33.8076 39.5267 34.1268 39.2602 34.3795 38.9357C34.5787 38.6629 34.6842 38.3329 34.6801 37.9952C34.6801 37.6516 34.577 37.4626 34.3752 37.4368C34.0307 37.4526 33.6982 37.5674 33.4174 37.7675L33.0138 38.0038V39.9665Z" fill="black"/>
<path d="M37.5017 41.4225V34.1472L38.8417 33.3741V40.6494L37.5017 41.4225Z" fill="black"/>
<path d="M44.064 37.6386L40.4349 39.7345V32.4592L44.064 30.3633V31.6303L41.7706 32.9531V34.5507L43.918 33.3181V34.5808L41.7706 35.8134V37.6902L44.064 36.3631V37.6386Z" fill="black"/>
<path d="M46.6838 36.1313L45.3696 36.8872V29.6076L48.9772 27.5204V28.783L46.6838 30.1187V31.9955L48.8312 30.7629V32.0213L46.6838 33.2539V36.1313Z" fill="black"/>
</svg>
