<svg width="54" height="79" viewBox="0 0 54 79" fill="none" xmlns="http://www.w3.org/2000/svg">
<g style="mix-blend-mode:multiply">
<path d="M49.112 62.6943C43.127 59.2402 33.4256 59.2402 27.4406 62.6943C24.3033 64.5133 22.8045 66.9421 22.968 69.3061V77.7982H39.0257C42.6978 77.696 46.3188 76.8376 49.1256 75.2162C55.097 71.7519 55.097 66.1518 49.112 62.6943Z" fill="white"/>
</g>
<g filter="url(#filter0_d)">
<path d="M16.9898 43.7552C15.7432 40.2832 13.6855 37.1592 10.9877 34.6431C8.13377 31.9087 6.16339 28.3829 5.33019 24.5193C4.49698 20.6557 4.83908 16.6311 6.31244 12.9636C7.78581 9.29602 10.323 6.15332 13.5975 3.93992C16.8721 1.72651 20.7341 0.543701 24.6865 0.543701C28.6389 0.543701 32.5009 1.72651 35.7755 3.93992C39.05 6.15332 41.5872 9.29602 43.0606 12.9636C44.5339 16.6311 44.876 20.6557 44.0428 24.5193C43.2096 28.3829 41.2392 31.9087 38.3853 34.6431C36.3956 36.5228 34.7373 38.7247 33.4801 41.1561C33.0523 41.9921 32.6868 42.8585 32.3866 43.7483C32.3453 43.8475 32.3089 43.9487 32.2776 44.0515C31.9566 45.0359 31.6972 46.0393 31.501 47.0559C31.2293 48.4461 31.0766 49.8569 31.0445 51.273C31.0445 52.1178 30.4246 52.9762 29.1812 53.603C27.7668 54.2385 26.2337 54.5671 24.6831 54.5671C23.1325 54.5671 21.5994 54.2385 20.185 53.603C18.9416 52.9592 18.3217 52.1178 18.3217 51.273C18.2887 49.8525 18.136 48.4372 17.8652 47.0423C17.6718 46.0254 17.4135 45.0219 17.092 44.0379C17.0579 43.9493 17.0238 43.8505 16.9898 43.7552Z" fill="white"/>
</g>
<path d="M39.8841 68.6454C39.9113 70.9106 38.4261 73.1827 35.4319 74.9097C29.4946 78.34 19.8716 78.34 13.9308 74.9097C10.9605 73.2065 9.4787 70.9515 9.4787 68.7033V51.3103C9.4787 53.5551 10.9605 55.7999 13.9308 57.5167C19.8716 60.9436 29.4946 60.9436 35.4319 57.5167C37.721 56.1917 39.1313 54.5532 39.649 52.8364L39.8841 68.6454Z" fill="white"/>
<path d="M33.6027 66.2612C33.7374 66.2612 33.8691 66.3012 33.9812 66.376C34.0932 66.4509 34.1805 66.5573 34.2321 66.6818C34.2837 66.8063 34.2971 66.9433 34.2709 67.0754C34.2446 67.2076 34.1797 67.329 34.0844 67.4242C33.9891 67.5195 33.8677 67.5844 33.7356 67.6107C33.6034 67.637 33.4664 67.6235 33.342 67.5719C33.2175 67.5204 33.1111 67.433 33.0362 67.321C32.9613 67.209 32.9214 67.0773 32.9214 66.9425C32.9214 66.7618 32.9932 66.5885 33.1209 66.4608C33.2487 66.333 33.422 66.2612 33.6027 66.2612Z" fill="#121728"/>
<path d="M23.8877 62.7936C23.9987 62.7936 24.0887 62.7036 24.0887 62.5926C24.0887 62.4816 23.9987 62.3916 23.8877 62.3916C23.7767 62.3916 23.6867 62.4816 23.6867 62.5926C23.6867 62.7036 23.7767 62.7936 23.8877 62.7936Z" fill="#121728"/>
<path d="M38.7973 63.1473C39.1868 63.1473 39.5025 62.8316 39.5025 62.4422C39.5025 62.0528 39.1868 61.7371 38.7973 61.7371C38.4079 61.7371 38.0922 62.0528 38.0922 62.4422C38.0922 62.8316 38.4079 63.1473 38.7973 63.1473Z" fill="#121728"/>
<path d="M31.0581 61.7546C31.1847 61.7546 31.3086 61.7922 31.4139 61.8626C31.5192 61.9329 31.6013 62.0329 31.6497 62.15C31.6982 62.267 31.7109 62.3957 31.6862 62.52C31.6615 62.6442 31.6005 62.7583 31.5109 62.8479C31.4214 62.9374 31.3073 62.9984 31.183 63.0231C31.0588 63.0478 30.93 63.0352 30.813 62.9867C30.696 62.9382 30.596 62.8561 30.5256 62.7508C30.4553 62.6455 30.4177 62.5217 30.4177 62.395C30.4177 62.2252 30.4852 62.0623 30.6053 61.9422C30.7254 61.8221 30.8882 61.7546 31.0581 61.7546Z" fill="#121728"/>
<path d="M22.2731 72.5728C22.3879 72.5728 22.4809 72.4798 22.4809 72.365C22.4809 72.2503 22.3879 72.1572 22.2731 72.1572C22.1583 72.1572 22.0653 72.2503 22.0653 72.365C22.0653 72.4798 22.1583 72.5728 22.2731 72.5728Z" fill="#121728"/>
<path d="M35.9189 57.469C36.0536 57.469 36.1853 57.5089 36.2974 57.5838C36.4094 57.6587 36.4967 57.7651 36.5483 57.8896C36.5999 58.014 36.6134 58.151 36.5871 58.2832C36.5608 58.4153 36.4959 58.5367 36.4006 58.632C36.3053 58.7273 36.1839 58.7922 36.0518 58.8184C35.9196 58.8447 35.7827 58.8313 35.6582 58.7797C35.5337 58.7281 35.4273 58.6408 35.3524 58.5288C35.2776 58.4167 35.2376 58.285 35.2376 58.1503C35.2376 57.9696 35.3094 57.7963 35.4372 57.6685C35.5649 57.5408 35.7382 57.469 35.9189 57.469Z" fill="#121728"/>
<path d="M24.5723 75.8567C24.6931 75.8669 24.8057 75.922 24.8878 76.0113C24.9699 76.1006 25.0154 76.2174 25.0154 76.3387C25.0154 76.46 24.9699 76.5768 24.8878 76.6661C24.8057 76.7553 24.6931 76.8105 24.5723 76.8207C24.5056 76.8263 24.4384 76.818 24.3751 76.7963C24.3118 76.7747 24.2536 76.7401 24.2043 76.6948C24.1551 76.6495 24.1157 76.5944 24.0888 76.5331C24.0619 76.4718 24.048 76.4056 24.048 76.3387C24.048 76.2718 24.0619 76.2055 24.0888 76.1442C24.1157 76.0829 24.1551 76.0279 24.2043 75.9826C24.2536 75.9373 24.3118 75.9027 24.3751 75.881C24.4384 75.8594 24.5056 75.8511 24.5723 75.8567Z" fill="#121728"/>
<path d="M36.5117 60.2146C36.6512 60.2146 36.7875 60.256 36.9034 60.3334C37.0194 60.4109 37.1098 60.521 37.1632 60.6499C37.2165 60.7787 37.2305 60.9205 37.2033 61.0573C37.1761 61.1941 37.1089 61.3197 37.0103 61.4183C36.9117 61.5169 36.786 61.5841 36.6493 61.6113C36.5125 61.6385 36.3707 61.6245 36.2419 61.5712C36.113 61.5178 36.0029 61.4274 35.9254 61.3115C35.8479 61.1955 35.8066 61.0592 35.8066 60.9197C35.8066 60.7327 35.8809 60.5534 36.0131 60.4211C36.1453 60.2889 36.3247 60.2146 36.5117 60.2146Z" fill="#121728"/>
<path d="M35.9396 63.1238C36.0728 63.1272 36.2021 63.1695 36.3115 63.2457C36.4209 63.3218 36.5055 63.4283 36.555 63.5521C36.6044 63.6759 36.6165 63.8114 36.5896 63.942C36.5628 64.0725 36.4983 64.1923 36.404 64.2866C36.3098 64.3808 36.19 64.4453 36.0594 64.4722C35.9289 64.499 35.7934 64.487 35.6696 64.4375C35.5458 64.3881 35.4393 64.3034 35.3631 64.194C35.287 64.0846 35.2446 63.9553 35.2412 63.8221C35.2412 63.6369 35.3148 63.4593 35.4458 63.3283C35.5767 63.1974 35.7544 63.1238 35.9396 63.1238Z" fill="#121728"/>
<path d="M26.2415 68.9624C26.5012 68.9624 26.7116 68.7519 26.7116 68.4923C26.7116 68.2327 26.5012 68.0222 26.2415 68.0222C25.9819 68.0222 25.7715 68.2327 25.7715 68.4923C25.7715 68.7519 25.9819 68.9624 26.2415 68.9624Z" fill="#121728"/>
<path d="M32.7682 71.9431C32.9063 71.9431 33.0413 71.9841 33.1561 72.0608C33.271 72.1375 33.3605 72.2466 33.4133 72.3742C33.4662 72.5018 33.48 72.6422 33.4531 72.7777C33.4261 72.9131 33.3596 73.0375 33.2619 73.1352C33.1643 73.2329 33.0399 73.2994 32.9044 73.3263C32.7689 73.3533 32.6285 73.3394 32.5009 73.2866C32.3733 73.2337 32.2643 73.1442 32.1875 73.0294C32.1108 72.9145 32.0699 72.7795 32.0699 72.6414C32.0699 72.4562 32.1434 72.2786 32.2744 72.1477C32.4053 72.0167 32.583 71.9431 32.7682 71.9431Z" fill="#121728"/>
<path d="M39.0256 60.3714C39.415 60.3714 39.7307 60.0557 39.7307 59.6663C39.7307 59.2769 39.415 58.9612 39.0256 58.9612C38.6361 58.9612 38.3204 59.2769 38.3204 59.6663C38.3204 60.0557 38.6361 60.3714 39.0256 60.3714Z" fill="#121728"/>
<path d="M31.0309 69.3197C31.4015 69.3197 31.702 69.0192 31.702 68.6486C31.702 68.278 31.4015 67.9775 31.0309 67.9775C30.6603 67.9775 30.3599 68.278 30.3599 68.6486C30.3599 69.0192 30.6603 69.3197 31.0309 69.3197Z" fill="#121728"/>
<path d="M39.1823 54.1138C39.3218 54.1138 39.4581 54.1551 39.574 54.2326C39.69 54.3101 39.7804 54.4202 39.8337 54.549C39.8871 54.6779 39.9011 54.8197 39.8739 54.9564C39.8467 55.0932 39.7795 55.2189 39.6809 55.3175C39.5823 55.4161 39.4566 55.4833 39.3199 55.5105C39.1831 55.5377 39.0413 55.5237 38.9125 55.4703C38.7836 55.417 38.6735 55.3266 38.596 55.2106C38.5185 55.0947 38.4772 54.9583 38.4772 54.8189C38.4772 54.6319 38.5515 54.4525 38.6837 54.3203C38.8159 54.188 38.9953 54.1138 39.1823 54.1138Z" fill="#121728"/>
<path d="M27.1034 60.811C27.1822 60.811 27.2592 60.8344 27.3248 60.8782C27.3903 60.922 27.4414 60.9842 27.4716 61.0571C27.5017 61.1299 27.5096 61.21 27.4942 61.2873C27.4789 61.3646 27.4409 61.4357 27.3852 61.4914C27.3294 61.5471 27.2584 61.5851 27.1811 61.6005C27.1038 61.6158 27.0237 61.6079 26.9508 61.5778C26.878 61.5476 26.8158 61.4965 26.772 61.431C26.7282 61.3655 26.7048 61.2884 26.7048 61.2096C26.7048 61.1039 26.7468 61.0025 26.8215 60.9278C26.8963 60.853 26.9977 60.811 27.1034 60.811Z" fill="#121728"/>
<path d="M30.4688 65.0891C30.5961 65.0891 30.7206 65.1269 30.8264 65.1976C30.9323 65.2684 31.0148 65.3689 31.0636 65.4866C31.1123 65.6042 31.125 65.7336 31.1002 65.8585C31.0754 65.9834 31.014 66.0981 30.924 66.1882C30.834 66.2782 30.7192 66.3395 30.5944 66.3644C30.4695 66.3892 30.34 66.3764 30.2224 66.3277C30.1047 66.279 30.0042 66.1965 29.9335 66.0906C29.8627 65.9847 29.825 65.8603 29.825 65.7329C29.825 65.5622 29.8928 65.3984 30.0135 65.2777C30.1343 65.1569 30.298 65.0891 30.4688 65.0891Z" fill="#121728"/>
<path d="M33.3471 69.0578C33.4811 69.0612 33.6111 69.104 33.7209 69.1808C33.8307 69.2577 33.9153 69.3652 33.9643 69.49C34.0132 69.6147 34.0243 69.7511 33.9962 69.8821C33.968 70.0132 33.9018 70.1329 33.8059 70.2265C33.7099 70.3201 33.5886 70.3833 33.4569 70.4083C33.3252 70.4332 33.1891 70.4187 33.0656 70.3667C32.9421 70.3147 32.8367 70.2274 32.7626 70.1158C32.6884 70.0041 32.6489 69.8731 32.6488 69.7391C32.6488 69.6482 32.667 69.5582 32.7023 69.4744C32.7376 69.3906 32.7893 69.3147 32.8544 69.2512C32.9194 69.1878 32.9966 69.1379 33.0812 69.1047C33.1658 69.0715 33.2562 69.0556 33.3471 69.0578Z" fill="#121728"/>
<path d="M31.4363 74.9167C31.571 74.9167 31.7027 74.9567 31.8148 75.0316C31.9268 75.1064 32.0141 75.2128 32.0657 75.3373C32.1173 75.4618 32.1308 75.5988 32.1045 75.7309C32.0782 75.8631 32.0133 75.9845 31.918 76.0798C31.8227 76.175 31.7013 76.2399 31.5692 76.2662C31.437 76.2925 31.3001 76.279 31.1756 76.2274C31.0511 76.1759 30.9447 76.0886 30.8698 75.9765C30.795 75.8645 30.755 75.7328 30.755 75.598C30.755 75.4173 30.8268 75.2441 30.9545 75.1163C31.0823 74.9885 31.2556 74.9167 31.4363 74.9167Z" fill="#121728"/>
<path d="M28.5409 63.3997C28.646 63.3997 28.7487 63.4308 28.8361 63.4892C28.9235 63.5476 28.9916 63.6306 29.0318 63.7277C29.0721 63.8248 29.0826 63.9317 29.0621 64.0347C29.0416 64.1378 28.991 64.2325 28.9166 64.3068C28.8423 64.3811 28.7476 64.4317 28.6446 64.4522C28.5415 64.4727 28.4346 64.4622 28.3375 64.422C28.2404 64.3818 28.1574 64.3137 28.099 64.2263C28.0407 64.1389 28.0095 64.0362 28.0095 63.9311C28.0095 63.7901 28.0655 63.655 28.1651 63.5553C28.2648 63.4556 28.4 63.3997 28.5409 63.3997Z" fill="#121728"/>
<path d="M33.3405 58.7463C33.4752 58.7463 33.6069 58.7863 33.719 58.8611C33.831 58.936 33.9183 59.0424 33.9699 59.1669C34.0214 59.2914 34.0349 59.4284 34.0086 59.5605C33.9824 59.6927 33.9175 59.8141 33.8222 59.9093C33.7269 60.0046 33.6055 60.0695 33.4734 60.0958C33.3412 60.1221 33.2042 60.1086 33.0797 60.057C32.9553 60.0055 32.8489 59.9181 32.774 59.8061C32.6991 59.6941 32.6592 59.5624 32.6592 59.4276C32.6592 59.2469 32.731 59.0736 32.8587 58.9459C32.9865 58.8181 33.1598 58.7463 33.3405 58.7463Z" fill="#121728"/>
<path d="M38.9814 67.5318C39.1206 67.5331 39.2562 67.5756 39.3713 67.6539C39.4864 67.7322 39.5757 67.8428 39.628 67.9717C39.6803 68.1007 39.6933 68.2423 39.6654 68.3786C39.6374 68.5149 39.5697 68.6399 39.4708 68.7379C39.3719 68.8358 39.2463 68.9023 39.1097 68.9289C38.9731 68.9556 38.8317 68.9412 38.7032 68.8877C38.5748 68.8341 38.4651 68.7437 38.3879 68.6279C38.3107 68.5121 38.2695 68.3761 38.2695 68.2369C38.2695 68.1437 38.288 68.0515 38.3238 67.9655C38.3597 67.8795 38.4122 67.8014 38.4784 67.7359C38.5446 67.6703 38.6232 67.6185 38.7095 67.5835C38.7958 67.5484 38.8883 67.5309 38.9814 67.5318Z" fill="#121728"/>
<path d="M39.0223 64.4214C39.1617 64.4214 39.298 64.4627 39.414 64.5402C39.53 64.6177 39.6203 64.7278 39.6737 64.8567C39.7271 64.9855 39.741 65.1273 39.7138 65.2641C39.6866 65.4009 39.6195 65.5265 39.5208 65.6251C39.4222 65.7237 39.2966 65.7909 39.1598 65.8181C39.023 65.8453 38.8813 65.8313 38.7524 65.778C38.6236 65.7246 38.5134 65.6342 38.436 65.5183C38.3585 65.4023 38.3171 65.266 38.3171 65.1265C38.3171 65.0339 38.3354 64.9422 38.3708 64.8567C38.4062 64.7711 38.4582 64.6934 38.5237 64.6279C38.5891 64.5624 38.6669 64.5105 38.7524 64.4751C38.838 64.4396 38.9297 64.4214 39.0223 64.4214Z" fill="#121728"/>
<path d="M36.6957 65.4199C36.8352 65.4199 36.9715 65.4613 37.0875 65.5387C37.2034 65.6162 37.2938 65.7264 37.3472 65.8552C37.4005 65.984 37.4145 66.1258 37.3873 66.2626C37.3601 66.3994 37.2929 66.525 37.1943 66.6236C37.0957 66.7222 36.9701 66.7894 36.8333 66.8166C36.6965 66.8438 36.5547 66.8299 36.4259 66.7765C36.297 66.7231 36.1869 66.6327 36.1094 66.5168C36.032 66.4008 35.9906 66.2645 35.9906 66.125C35.9906 65.938 36.0649 65.7587 36.1971 65.6264C36.3294 65.4942 36.5087 65.4199 36.6957 65.4199Z" fill="#121728"/>
<path d="M38.3546 70.2332C38.494 70.2332 38.6304 70.2745 38.7463 70.352C38.8623 70.4295 38.9527 70.5396 39.006 70.6685C39.0594 70.7973 39.0733 70.9391 39.0461 71.0759C39.0189 71.2126 38.9518 71.3383 38.8532 71.4369C38.7546 71.5355 38.6289 71.6027 38.4921 71.6299C38.3554 71.6571 38.2136 71.6431 38.0847 71.5897C37.9559 71.5364 37.8458 71.446 37.7683 71.33C37.6908 71.2141 37.6494 71.0777 37.6494 70.9383C37.6494 70.7513 37.7237 70.5719 37.856 70.4397C37.9882 70.3075 38.1676 70.2332 38.3546 70.2332Z" fill="#121728"/>
<path d="M30.3598 72.1846C30.7304 72.1846 31.0308 71.8842 31.0308 71.5136C31.0308 71.143 30.7304 70.8425 30.3598 70.8425C29.9892 70.8425 29.6887 71.143 29.6887 71.5136C29.6887 71.8842 29.9892 72.1846 30.3598 72.1846Z" fill="#121728"/>
<path d="M26.1221 73.6665C26.2293 73.6665 26.334 73.6983 26.4231 73.7578C26.5121 73.8173 26.5815 73.9019 26.6225 74.0009C26.6635 74.0998 26.6743 74.2087 26.6534 74.3138C26.6325 74.4189 26.5809 74.5154 26.5051 74.5911C26.4294 74.6668 26.3329 74.7184 26.2278 74.7393C26.1228 74.7602 26.0139 74.7495 25.9149 74.7085C25.8159 74.6675 25.7313 74.5981 25.6718 74.509C25.6123 74.42 25.5805 74.3152 25.5805 74.2081C25.5805 74.0645 25.6376 73.9267 25.7392 73.8251C25.8407 73.7236 25.9785 73.6665 26.1221 73.6665Z" fill="#121728"/>
<path d="M30.2679 59.5881C30.3871 59.5881 30.5037 59.6235 30.6028 59.6898C30.702 59.756 30.7792 59.8502 30.8249 59.9603C30.8705 60.0705 30.8825 60.1917 30.8592 60.3087C30.8359 60.4257 30.7785 60.5331 30.6942 60.6174C30.6099 60.7017 30.5024 60.7592 30.3855 60.7824C30.2685 60.8057 30.1473 60.7937 30.0371 60.7481C29.9269 60.7025 29.8328 60.6252 29.7665 60.526C29.7003 60.4269 29.6649 60.3103 29.6649 60.1911C29.6649 60.0312 29.7284 59.8778 29.8415 59.7647C29.9546 59.6517 30.1079 59.5881 30.2679 59.5881Z" fill="#121728"/>
<path d="M27.9413 77.3009C28.2874 77.3009 28.5681 77.0203 28.5681 76.6741C28.5681 76.328 28.2874 76.0474 27.9413 76.0474C27.5951 76.0474 27.3145 76.328 27.3145 76.6741C27.3145 77.0203 27.5951 77.3009 27.9413 77.3009Z" fill="#121728"/>
<path d="M21.2749 75.6763C21.331 75.6763 21.3847 75.6985 21.4243 75.7381C21.4639 75.7777 21.4861 75.8315 21.4861 75.8875C21.4861 75.9435 21.4639 75.9972 21.4243 76.0368C21.3847 76.0764 21.331 76.0987 21.2749 76.0987C21.2189 76.0987 21.1652 76.0764 21.1256 76.0368C21.086 75.9972 21.0638 75.9435 21.0638 75.8875C21.0638 75.8315 21.086 75.7777 21.1256 75.7381C21.1652 75.6985 21.2189 75.6763 21.2749 75.6763Z" fill="#121728"/>
<path d="M36.6038 72.7329C36.7434 72.7322 36.88 72.773 36.9964 72.8501C37.1128 72.9272 37.2037 73.037 37.2576 73.1658C37.3115 73.2946 37.326 73.4365 37.2992 73.5735C37.2723 73.7105 37.2054 73.8365 37.107 73.9354C37.0085 74.0344 36.8829 74.1019 36.746 74.1294C36.6091 74.1568 36.4672 74.1431 36.3381 74.0898C36.2091 74.0365 36.0988 73.9462 36.0211 73.8301C35.9435 73.7141 35.902 73.5776 35.902 73.438C35.9016 73.3456 35.9194 73.254 35.9545 73.1685C35.9895 73.0829 36.0412 73.0052 36.1064 72.9396C36.1716 72.8741 36.2491 72.8221 36.3344 72.7867C36.4198 72.7512 36.5113 72.7329 36.6038 72.7329Z" fill="#121728"/>
<path d="M25.9214 64.8406C25.9935 64.8406 26.0639 64.8619 26.1239 64.902C26.1838 64.942 26.2305 64.999 26.2581 65.0656C26.2857 65.1322 26.2929 65.2055 26.2788 65.2762C26.2648 65.3469 26.2301 65.4118 26.1791 65.4628C26.1281 65.5138 26.0632 65.5485 25.9925 65.5625C25.9218 65.5766 25.8485 65.5694 25.7819 65.5418C25.7153 65.5142 25.6584 65.4675 25.6183 65.4075C25.5783 65.3476 25.5569 65.2771 25.5569 65.2051C25.5569 65.1084 25.5953 65.0157 25.6636 64.9473C25.732 64.879 25.8247 64.8406 25.9214 64.8406Z" fill="#121728"/>
<path d="M25.1615 70.8767C25.241 70.8767 25.3187 70.9003 25.3848 70.9444C25.4509 70.9886 25.5025 71.0514 25.5329 71.1248C25.5633 71.1983 25.5713 71.2791 25.5558 71.3571C25.5403 71.4351 25.502 71.5067 25.4458 71.5629C25.3896 71.6191 25.3179 71.6574 25.24 71.6729C25.162 71.6884 25.0812 71.6804 25.0077 71.65C24.9343 71.6196 24.8715 71.5681 24.8273 71.502C24.7832 71.4359 24.7596 71.3582 24.7596 71.2787C24.7596 71.1721 24.8019 71.0698 24.8773 70.9944C24.9527 70.9191 25.0549 70.8767 25.1615 70.8767Z" fill="#121728"/>
<path d="M33.9911 61.2126C34.1258 61.2126 34.2575 61.2526 34.3696 61.3275C34.4816 61.4023 34.5689 61.5087 34.6205 61.6332C34.672 61.7577 34.6855 61.8947 34.6592 62.0268C34.633 62.159 34.5681 62.2804 34.4728 62.3757C34.3775 62.4709 34.2561 62.5358 34.124 62.5621C33.9918 62.5884 33.8548 62.5749 33.7303 62.5233C33.6059 62.4718 33.4995 62.3845 33.4246 62.2724C33.3497 62.1604 33.3098 62.0287 33.3098 61.8939C33.3098 61.7132 33.3816 61.54 33.5093 61.4122C33.6371 61.2844 33.8104 61.2126 33.9911 61.2126Z" fill="#121728"/>
<path d="M35.4421 70.6072C35.5816 70.6072 35.7179 70.6485 35.8339 70.726C35.9498 70.8035 36.0402 70.9136 36.0936 71.0425C36.1469 71.1713 36.1609 71.3131 36.1337 71.4499C36.1065 71.5866 36.0393 71.7123 35.9407 71.8109C35.8421 71.9095 35.7165 71.9767 35.5797 72.0039C35.4429 72.0311 35.3011 72.0171 35.1723 71.9637C35.0434 71.9104 34.9333 71.82 34.8558 71.704C34.7784 71.5881 34.737 71.4518 34.737 71.3123C34.737 71.1253 34.8113 70.9459 34.9435 70.8137C35.0758 70.6815 35.2551 70.6072 35.4421 70.6072Z" fill="#121728"/>
<path d="M36.0826 67.7971C36.222 67.7971 36.3584 67.8385 36.4743 67.916C36.5903 67.9934 36.6806 68.1036 36.734 68.2324C36.7874 68.3613 36.8013 68.503 36.7741 68.6398C36.7469 68.7766 36.6798 68.9022 36.5812 69.0008C36.4825 69.0995 36.3569 69.1666 36.2201 69.1938C36.0833 69.221 35.9416 69.2071 35.8127 69.1537C35.6839 69.1003 35.5738 69.01 35.4963 68.894C35.4188 68.778 35.3774 68.6417 35.3774 68.5023C35.377 68.4095 35.3949 68.3176 35.4302 68.2319C35.4655 68.1461 35.5174 68.0682 35.583 68.0026C35.6485 67.9371 35.7264 67.8851 35.8122 67.8499C35.898 67.8146 35.9898 67.7967 36.0826 67.7971Z" fill="#121728"/>
<path d="M22.8385 67.7495C22.8764 67.7489 22.9136 67.7595 22.9454 67.78C22.9772 67.8006 23.0022 67.8301 23.0172 67.8649C23.0321 67.8997 23.0364 67.9382 23.0294 67.9754C23.0225 68.0126 23.0046 68.0469 22.978 68.0739C22.9515 68.101 22.9175 68.1195 22.8804 68.1271C22.8433 68.1347 22.8048 68.1312 22.7698 68.1168C22.7347 68.1025 22.7047 68.0781 22.6836 68.0466C22.6625 68.0152 22.6512 67.9782 22.6512 67.9403C22.6512 67.8903 22.6708 67.8423 22.7058 67.8066C22.7409 67.7709 22.7885 67.7504 22.8385 67.7495Z" fill="#121728"/>
<path d="M28.6123 67.5381C28.7275 67.5381 28.8402 67.5723 28.936 67.6363C29.0317 67.7003 29.1064 67.7912 29.1505 67.8977C29.1946 68.0041 29.2061 68.1212 29.1836 68.2342C29.1612 68.3472 29.1057 68.451 29.0242 68.5325C28.9428 68.6139 28.839 68.6694 28.726 68.6919C28.613 68.7144 28.4959 68.7028 28.3894 68.6587C28.283 68.6146 28.192 68.54 28.128 68.4442C28.064 68.3484 28.0298 68.2358 28.0298 68.1206C28.0298 67.9661 28.0912 67.8179 28.2005 67.7087C28.3097 67.5995 28.4578 67.5381 28.6123 67.5381Z" fill="#121728"/>
<path d="M27.8595 71.197C27.9755 71.197 28.0889 71.2315 28.1854 71.296C28.2818 71.3605 28.3569 71.4523 28.4011 71.5595C28.4454 71.6668 28.4568 71.7848 28.4339 71.8985C28.411 72.0122 28.3549 72.1166 28.2726 72.1984C28.1903 72.2802 28.0856 72.3358 27.9717 72.358C27.8578 72.3802 27.7399 72.3681 27.6329 72.3233C27.5259 72.2784 27.4347 72.2027 27.3707 72.1059C27.3067 72.0092 27.2729 71.8956 27.2736 71.7795C27.2736 71.7027 27.2888 71.6267 27.3183 71.5558C27.3477 71.4849 27.391 71.4206 27.4454 71.3664C27.4999 71.3123 27.5645 71.2695 27.6355 71.2404C27.7066 71.2113 27.7827 71.1966 27.8595 71.197Z" fill="#121728"/>
<path d="M34.0626 74.2288C34.202 74.2288 34.3383 74.2701 34.4543 74.3476C34.5703 74.4251 34.6606 74.5352 34.714 74.664C34.7674 74.7929 34.7813 74.9347 34.7541 75.0714C34.7269 75.2082 34.6598 75.3339 34.5612 75.4325C34.4625 75.5311 34.3369 75.5983 34.2001 75.6255C34.0633 75.6527 33.9216 75.6387 33.7927 75.5853C33.6639 75.532 33.5538 75.4416 33.4763 75.3256C33.3988 75.2097 33.3574 75.0734 33.3574 74.9339C33.357 74.8412 33.3749 74.7493 33.4102 74.6635C33.4455 74.5778 33.4974 74.4999 33.563 74.4343C33.6285 74.3687 33.7064 74.3168 33.7922 74.2815C33.8779 74.2462 33.9698 74.2283 34.0626 74.2288Z" fill="#121728"/>
<path d="M29.3243 73.6702C29.4537 73.6702 29.5801 73.7085 29.6877 73.7804C29.7952 73.8523 29.8791 73.9544 29.9286 74.0739C29.9781 74.1934 29.991 74.3249 29.9658 74.4518C29.9405 74.5786 29.8782 74.6952 29.7868 74.7867C29.6953 74.8781 29.5788 74.9404 29.4519 74.9656C29.325 74.9909 29.1935 74.9779 29.074 74.9284C28.9545 74.8789 28.8524 74.7951 28.7805 74.6875C28.7086 74.58 28.6703 74.4535 28.6703 74.3242C28.6703 74.1507 28.7392 73.9844 28.8618 73.8617C28.9845 73.7391 29.1508 73.6702 29.3243 73.6702Z" fill="#121728"/>
<path d="M32.9657 63.8254C33.1004 63.8254 33.2322 63.8654 33.3442 63.9403C33.4562 64.0151 33.5436 64.1215 33.5951 64.246C33.6467 64.3705 33.6602 64.5075 33.6339 64.6396C33.6076 64.7718 33.5427 64.8932 33.4474 64.9885C33.3522 65.0837 33.2308 65.1486 33.0986 65.1749C32.9665 65.2012 32.8295 65.1877 32.705 65.1361C32.5805 65.0846 32.4741 64.9972 32.3992 64.8852C32.3244 64.7732 32.2844 64.6415 32.2844 64.5067C32.2844 64.326 32.3562 64.1528 32.484 64.025C32.6117 63.8972 32.785 63.8254 32.9657 63.8254Z" fill="#121728"/>
<path d="M38.3682 56.4778C38.5077 56.4778 38.644 56.5191 38.76 56.5966C38.8759 56.6741 38.9663 56.7842 39.0197 56.9131C39.073 57.0419 39.087 57.1837 39.0598 57.3205C39.0326 57.4572 38.9654 57.5829 38.8668 57.6815C38.7682 57.7801 38.6426 57.8473 38.5058 57.8745C38.369 57.9017 38.2272 57.8877 38.0984 57.8343C37.9695 57.781 37.8594 57.6906 37.7819 57.5746C37.7044 57.4587 37.6631 57.3223 37.6631 57.1829C37.6631 57.0903 37.6813 56.9986 37.7168 56.9131C37.7522 56.8275 37.8041 56.7498 37.8696 56.6843C37.9351 56.6188 38.0128 56.5669 38.0984 56.5314C38.1839 56.496 38.2756 56.4778 38.3682 56.4778Z" fill="#121728"/>
<path d="M39.6047 49.6345C39.9598 50.67 39.9753 51.7917 39.649 52.8365L39.6047 49.6345Z" fill="white"/>
<path d="M39.6048 49.6342L39.649 52.8362C39.1313 54.5394 37.721 56.1915 35.4319 57.5166C29.4946 60.9434 19.8716 60.9434 13.9308 57.5166C10.9605 55.8134 9.4787 53.555 9.4787 51.3102C9.47968 50.7403 9.57286 50.1743 9.75461 49.6342C10.3133 47.9685 11.7065 46.3914 13.9308 45.1037C14.902 44.5431 15.9296 44.0864 16.9966 43.7412C17.0306 43.8366 17.0647 43.9353 17.0954 44.0307C17.4169 45.0147 17.6752 46.0182 17.8686 47.0352C18.1386 48.4324 18.2902 49.85 18.3217 51.2727C18.3217 52.1175 18.9416 52.9759 20.185 53.6027C21.5994 54.2382 23.1324 54.5668 24.6831 54.5668C26.2337 54.5668 27.7668 54.2382 29.1812 53.6027C30.4245 52.9589 31.0445 52.1175 31.0445 51.2727C31.0747 49.8521 31.2262 48.4367 31.4976 47.042C31.6938 46.0253 31.9531 45.0219 32.2742 44.0375C32.3055 43.9347 32.3418 43.8335 32.3832 43.7344C33.4398 44.0895 34.4596 44.5458 35.4285 45.0969C37.6563 46.3914 39.0461 47.9685 39.6048 49.6342Z" fill="#121728"/>
<path d="M24.6812 60.6134C20.5186 60.6134 16.6047 59.68 13.6616 57.9837C10.6197 56.2226 8.94031 53.8517 8.94031 51.3106C8.94291 50.6827 9.04642 50.0593 9.24688 49.4643C9.86344 47.6249 11.3895 45.9557 13.6752 44.6409C14.6764 44.0678 15.7347 43.6008 16.8329 43.2477C16.8856 43.2298 16.9408 43.2206 16.9964 43.2204C17.0689 43.2213 17.1405 43.2366 17.2072 43.2652C17.2738 43.2938 17.3342 43.3353 17.3847 43.3873C17.4342 43.4349 17.4736 43.4921 17.5006 43.5553C17.5275 43.6185 17.5414 43.6865 17.5414 43.7552C17.5421 43.8745 17.5029 43.9905 17.4301 44.0849C17.3573 44.1794 17.255 44.2468 17.1395 44.2764C16.1219 44.6054 15.1413 45.0392 14.2134 45.5708C12.1696 46.7494 10.807 48.2142 10.279 49.8049C10.1146 50.2899 10.0306 50.7985 10.0304 51.3106C10.0304 53.4532 11.5155 55.4936 14.2134 57.0537C17.01 58.6649 20.7298 59.554 24.6948 59.554C28.6599 59.554 32.383 58.6649 35.1763 57.0537C37.278 55.8376 38.6542 54.3286 39.1515 52.6833C39.4435 51.7436 39.428 50.7352 39.1072 49.8049C38.5758 48.2142 37.2167 46.7392 35.1763 45.5708C34.2355 45.0353 33.2453 44.5915 32.2195 44.2457L32.1582 44.2219C32.0677 44.1775 31.9913 44.1087 31.9377 44.0232C31.8842 43.9378 31.8555 43.839 31.8551 43.7382C31.8552 43.599 31.9103 43.4656 32.0083 43.3669C32.1123 43.2629 32.2531 43.2042 32.4001 43.2034C32.4687 43.2039 32.5368 43.2166 32.601 43.2408C33.6819 43.6079 34.7255 44.0767 35.7179 44.6409C37.9831 45.9523 39.5092 47.6214 40.1258 49.4643C40.5203 50.606 40.5382 51.8441 40.1768 52.9967C39.6012 54.9009 38.0581 56.6279 35.7145 57.9837C32.7611 59.68 28.8472 60.6134 24.6812 60.6134Z" fill="#121728"/>
<path d="M24.6814 55.1119C23.043 55.1438 21.4196 54.7939 19.9398 54.09C18.55 53.3712 17.7869 52.3868 17.7869 51.2831C17.7537 49.9109 17.6078 48.5438 17.3509 47.1955C17.3491 47.1762 17.3491 47.1568 17.3509 47.1375C17.1606 46.1428 16.9081 45.1609 16.5947 44.1978C16.5674 44.1093 16.5368 44.0241 16.5061 43.9355C15.2927 40.5357 13.2784 37.478 10.6335 35.021C7.70207 32.2127 5.6782 28.5913 4.82245 24.6229C3.9667 20.6546 4.31822 16.5209 5.83178 12.7541C7.34535 8.98719 9.95166 5.75952 13.3152 3.48653C16.6788 1.21354 20.6457 -0.000739085 24.7053 3.37496e-07C25.0221 3.37495e-07 25.3423 -4.93632e-07 25.6625 0.0204378C29.6349 0.207594 33.4652 1.55553 36.6792 3.8974C39.8933 6.23927 42.3501 9.47227 43.7455 13.1962C45.1409 16.9201 45.4136 20.9715 44.5299 24.8489C43.6462 28.7262 41.6449 32.2593 38.7737 35.0108C36.8185 36.85 35.1909 39.0087 33.9604 41.3944C33.5427 42.2057 33.1863 43.0471 32.8942 43.9117V43.9492C32.872 43.9991 32.8526 44.0503 32.8363 44.1025L32.7989 44.2183C32.486 45.178 32.2334 46.1565 32.0426 47.1478C32.0426 47.1716 32.0427 47.1955 32.0256 47.2159C31.7681 48.5641 31.6234 49.9313 31.593 51.3036C31.593 52.3868 30.83 53.3814 29.4402 54.1002C27.9543 54.8032 26.3248 55.1496 24.6814 55.1119ZM24.6814 1.08323C20.8399 1.08712 17.0873 2.2395 13.9057 4.39233C10.7241 6.54516 8.25887 9.6001 6.82667 13.1647C5.39448 16.7292 5.06076 20.6406 5.86841 24.3962C6.67605 28.1519 8.58817 31.5803 11.3591 34.241C14.1222 36.8124 16.2253 40.0115 17.4906 43.5676C17.5281 43.6698 17.5621 43.7686 17.5962 43.8674C17.914 44.855 18.1734 45.8605 18.3728 46.8786C18.3744 46.8968 18.3744 46.915 18.3728 46.9332C18.6555 48.3635 18.8162 49.8153 18.8531 51.2729C18.8531 51.9542 19.4118 52.615 20.4269 53.1396C21.7639 53.737 23.2119 54.0458 24.6763 54.0458C26.1408 54.0458 27.5888 53.737 28.9258 53.1396C29.9477 52.615 30.4996 51.9542 30.4996 51.2865C30.5307 49.8317 30.6856 48.3821 30.9628 46.9536C30.9669 46.9305 30.9726 46.9077 30.9799 46.8855C31.1791 45.8703 31.4396 44.8681 31.7599 43.8844L31.7974 43.7788C31.8246 43.6971 31.8519 43.6187 31.8825 43.537C32.1919 42.6311 32.5665 41.7488 33.0033 40.897C34.2854 38.4111 35.9796 36.1605 38.014 34.241C40.7276 31.6321 42.6178 28.2857 43.4513 24.6148C44.2848 20.944 44.025 17.1094 42.7042 13.5845C41.3833 10.0596 39.0592 6.9986 36.0186 4.77944C32.978 2.56027 29.3542 1.28007 25.5944 1.09687C25.2844 1.09005 24.9846 1.08323 24.6678 1.08323H24.6814Z" fill="#121728"/>
<path d="M30.0633 27.0602C29.97 27.0603 29.8783 27.0356 29.7976 26.9887C28.963 26.5084 28.5883 25.5307 28.2272 24.5804C27.9309 23.8071 27.6243 23.0066 27.1236 22.7171C27.0741 22.6808 27.017 22.6563 26.9567 22.6455C26.8715 22.6455 26.7455 22.7818 26.4968 23.1497C26.2481 23.5176 25.836 24.1171 25.1615 24.1171C24.9093 24.1102 24.6635 24.0361 24.4496 23.9025C23.615 23.4222 23.2403 22.4411 22.8792 21.4942C22.5829 20.7175 22.2763 19.9204 21.7721 19.6275C21.7233 19.593 21.6675 19.5697 21.6086 19.5594C21.5269 19.5594 21.4009 19.6956 21.1522 20.0601C20.9035 20.4246 20.4913 21.0275 19.8169 21.0275C19.5652 21.0204 19.3198 20.9476 19.1049 20.8163C18.2704 20.336 17.8957 19.355 17.5346 18.4046C17.2383 17.6313 16.9351 16.8342 16.4343 16.5447C16.3728 16.5101 16.3188 16.4635 16.2754 16.4078C16.2321 16.352 16.2003 16.2882 16.1819 16.22C16.1635 16.1518 16.1588 16.0806 16.1683 16.0106C16.1777 15.9406 16.201 15.8732 16.2368 15.8123C16.2843 15.7307 16.3524 15.6628 16.4343 15.6156C16.5161 15.5684 16.6089 15.5435 16.7034 15.5432C16.7966 15.5448 16.8878 15.5694 16.9691 15.6148C17.8003 16.0951 18.175 17.0761 18.5361 18.0231C18.8324 18.7963 19.1356 19.5934 19.6397 19.8829C19.6889 19.9198 19.7461 19.9443 19.8067 19.9545C19.8918 19.9545 20.0179 19.8182 20.2665 19.4538C20.5152 19.0893 20.9274 18.4863 21.5984 18.4863C21.8501 18.4935 22.0955 18.5663 22.3104 18.6975C23.1449 19.1812 23.5196 20.1623 23.8807 21.1093C24.1771 21.8825 24.4802 22.683 24.9844 22.9725C25.0338 23.0088 25.0909 23.0333 25.1513 23.0441C25.2364 23.0441 25.3625 22.9078 25.6111 22.5433C25.8598 22.1788 26.272 21.5759 26.9464 21.5759C27.1984 21.5815 27.4442 21.6544 27.6584 21.7871C28.4929 22.2674 28.8676 23.2485 29.2287 24.1954C29.5251 24.9687 29.8282 25.7692 30.3324 26.0587C30.4363 26.1168 30.5178 26.2079 30.5641 26.3176C30.6103 26.4273 30.6187 26.5493 30.5878 26.6642C30.5569 26.7792 30.4885 26.8806 30.3935 26.9523C30.2985 27.024 30.1823 27.062 30.0633 27.0602Z" fill="#005BF2"/>
<path d="M24.6812 78.0128C20.5186 78.0128 16.6047 77.0795 13.6616 75.3831C10.6197 73.622 8.94031 71.2512 8.94031 68.71V51.3102C8.94031 51.1674 8.99701 51.0306 9.09794 50.9296C9.19888 50.8287 9.33578 50.772 9.47852 50.772C9.62126 50.772 9.75816 50.8287 9.85909 50.9296C9.96002 51.0306 10.0167 51.1674 10.0167 51.3102V68.71C10.0167 70.8526 11.5019 72.893 14.1998 74.4531C16.9964 76.0644 20.7162 76.9534 24.6846 76.9534C28.653 76.9534 32.3694 76.0644 35.1626 74.4531C37.8878 72.8794 39.3729 70.8219 39.3491 68.6623L39.0664 49.6445C39.0605 49.5704 39.0699 49.4959 39.0942 49.4257C39.1185 49.3555 39.1571 49.2911 39.2075 49.2366C39.2579 49.182 39.319 49.1384 39.3871 49.1086C39.4551 49.0788 39.5286 49.0635 39.6029 49.0635C39.6772 49.0635 39.7506 49.0788 39.8187 49.1086C39.8867 49.1384 39.9479 49.182 39.9983 49.2366C40.0487 49.2911 40.0872 49.3555 40.1115 49.4257C40.1358 49.4959 40.1453 49.5704 40.1394 49.6445L40.4221 68.6589C40.4528 71.2307 38.7734 73.622 35.7009 75.4001C32.7611 77.0795 28.8472 78.0128 24.6812 78.0128Z" fill="#121728"/>
<defs>
<filter id="filter0_d" x="0.885193" y="0.543701" width="47.6026" height="62.0234" filterUnits="userSpaceOnUse" color-interpolation-filters="sRGB">
<feFlood flood-opacity="0" result="BackgroundImageFix"/>
<feColorMatrix in="SourceAlpha" type="matrix" values="0 0 0 0 0 0 0 0 0 0 0 0 0 0 0 0 0 0 127 0"/>
<feOffset dy="4"/>
<feGaussianBlur stdDeviation="2"/>
<feColorMatrix type="matrix" values="0 0 0 0 0 0 0 0 0 0 0 0 0 0 0 0 0 0 0.25 0"/>
<feBlend mode="normal" in2="BackgroundImageFix" result="effect1_dropShadow"/>
<feBlend mode="normal" in="SourceGraphic" in2="effect1_dropShadow" result="shape"/>
</filter>
</defs>
</svg>
