<svg width="36" height="52" viewBox="0 0 36 52" fill="none" xmlns="http://www.w3.org/2000/svg">
<path opacity="0.8" d="M7.34316 45.9873L5.17349 44.7347L7.34316 43.4792L9.51283 44.7347L7.34316 45.9873Z" fill="#005BF2"/>
<path d="M27.3065 23.4922C27.3065 24.5993 28.0842 25.0475 29.0429 24.4925C29.5484 24.1632 29.9691 23.7194 30.2708 23.1969C30.5725 22.6745 30.7467 22.0882 30.7792 21.4858C30.7792 20.3787 30.0016 19.9305 29.0429 20.4826C28.5383 20.8136 28.1183 21.2582 27.8168 21.7809C27.5152 22.3036 27.3405 22.8898 27.3065 23.4922ZM22.4508 14.1636C22.4508 13.0565 21.6761 12.6083 20.7174 13.1604C20.2161 13.4907 19.7993 13.934 19.5003 14.4546C19.2014 14.9752 19.0286 15.5587 18.9959 16.1581C18.9959 17.2652 19.7736 17.7164 20.7322 17.1613C21.2335 16.8312 21.6501 16.3879 21.9486 15.8672C22.2471 15.3465 22.4191 14.7629 22.4508 14.1636ZM34.9612 1.69762V29.5056C34.9612 30.6097 34.2875 31.88 33.4623 32.3698L2.02738 50.5018C1.19929 50.9796 0.528503 50.4721 0.528503 49.368V21.56C0.528503 20.4559 1.19929 19.1856 2.02738 18.6958L33.4623 0.548974C34.2875 0.0711127 34.9612 0.578654 34.9612 1.67981V1.69762ZM14.3449 27.9028V17.9152L5.71077 22.8986V32.8625L14.3449 27.9028Z" fill="white"/>
<path d="M28.0366 29.1583C28.0748 29.1578 28.1124 29.1686 28.1446 29.1894C28.1767 29.2102 28.2019 29.2402 28.2169 29.2754C28.232 29.3106 28.2362 29.3494 28.2291 29.3871C28.222 29.4247 28.2039 29.4593 28.177 29.4866C28.1502 29.5139 28.1158 29.5326 28.0783 29.5402C28.0408 29.5479 28.0018 29.5443 27.9664 29.5298C27.931 29.5153 27.9007 29.4905 27.8793 29.4588C27.858 29.427 27.8466 29.3896 27.8466 29.3513C27.8466 29.3006 27.8665 29.252 27.9021 29.2159C27.9376 29.1798 27.9859 29.1591 28.0366 29.1583Z" fill="#121728"/>
<path d="M31.0313 30.3634C31.0852 30.364 31.1377 30.3805 31.1822 30.4109C31.2267 30.4412 31.2612 30.4841 31.2814 30.534C31.3016 30.584 31.3066 30.6388 31.2958 30.6915C31.2849 30.7443 31.2587 30.7927 31.2204 30.8306C31.182 30.8685 31.1334 30.8942 31.0805 30.9045C31.0276 30.9148 30.9729 30.9092 30.9231 30.8885C30.8734 30.8677 30.8309 30.8327 30.8011 30.7879C30.7712 30.743 30.7553 30.6904 30.7552 30.6365C30.7552 30.6004 30.7624 30.5646 30.7763 30.5313C30.7902 30.498 30.8106 30.4677 30.8363 30.4423C30.8619 30.4169 30.8924 30.3969 30.9259 30.3833C30.9593 30.3698 30.9952 30.363 31.0313 30.3634Z" fill="#121728"/>
<path d="M33.8095 29.7282C33.8711 29.7282 33.9313 29.7465 33.9826 29.7807C34.0338 29.8149 34.0738 29.8636 34.0974 29.9206C34.121 29.9775 34.1271 30.0402 34.1151 30.1006C34.1031 30.1611 34.0734 30.2166 34.0298 30.2602C33.9862 30.3038 33.9307 30.3335 33.8702 30.3455C33.8098 30.3575 33.7471 30.3513 33.6902 30.3277C33.6332 30.3042 33.5846 30.2642 33.5503 30.213C33.5161 30.1617 33.4978 30.1015 33.4978 30.0398C33.4957 29.9983 33.5023 29.9569 33.5172 29.9181C33.5321 29.8793 33.555 29.8441 33.5843 29.8147C33.6137 29.7853 33.6489 29.7625 33.6877 29.7475C33.7265 29.7326 33.768 29.726 33.8095 29.7282Z" fill="#121728"/>
<path d="M29.2029 34.0082C29.2763 34.0082 29.348 34.0299 29.409 34.0707C29.4701 34.1115 29.5176 34.1694 29.5457 34.2372C29.5738 34.305 29.5811 34.3796 29.5668 34.4516C29.5525 34.5235 29.5171 34.5896 29.4653 34.6415C29.4134 34.6934 29.3473 34.7288 29.2753 34.7431C29.2033 34.7574 29.1287 34.75 29.0609 34.722C28.9931 34.6939 28.9352 34.6463 28.8944 34.5853C28.8537 34.5243 28.8319 34.4526 28.8319 34.3792C28.8319 34.2808 28.871 34.1864 28.9406 34.1168C29.0101 34.0473 29.1045 34.0082 29.2029 34.0082Z" fill="#121728"/>
<path d="M22.6615 36.3649C22.8205 36.3649 22.9494 36.236 22.9494 36.077C22.9494 35.918 22.8205 35.7891 22.6615 35.7891C22.5025 35.7891 22.3736 35.918 22.3736 36.077C22.3736 36.236 22.5025 36.3649 22.6615 36.3649Z" fill="#121728"/>
<path d="M25.1487 27.8405C25.1673 27.8376 25.1863 27.8389 25.2043 27.8441C25.2224 27.8492 25.2392 27.8583 25.2534 27.8705C25.2677 27.8828 25.2792 27.898 25.287 27.9151C25.2948 27.9322 25.2989 27.9508 25.2989 27.9696C25.2989 27.9884 25.2948 28.007 25.287 28.0241C25.2792 28.0412 25.2677 28.0564 25.2534 28.0686C25.2392 28.0809 25.2224 28.0899 25.2043 28.0951C25.1863 28.1003 25.1673 28.1015 25.1487 28.0987C25.1178 28.094 25.0896 28.0784 25.0693 28.0547C25.0489 28.031 25.0377 28.0008 25.0377 27.9696C25.0377 27.9384 25.0489 27.9082 25.0693 27.8845C25.0896 27.8608 25.1178 27.8452 25.1487 27.8405Z" fill="#121728"/>
<path d="M25.41 36.0265C25.4772 36.0259 25.543 36.0453 25.5991 36.0823C25.6552 36.1192 25.699 36.1721 25.725 36.234C25.751 36.2959 25.7579 36.3642 25.745 36.4301C25.732 36.496 25.6997 36.5566 25.6522 36.6041C25.6047 36.6516 25.5442 36.6839 25.4783 36.6969C25.4123 36.7098 25.3441 36.7029 25.2821 36.6769C25.2202 36.6509 25.1674 36.6071 25.1304 36.551C25.0935 36.4949 25.074 36.4291 25.0746 36.3619C25.0746 36.2729 25.11 36.1876 25.1729 36.1247C25.2358 36.0618 25.3211 36.0265 25.41 36.0265Z" fill="#121728"/>
<path d="M12.9706 39.045C13.0221 39.045 13.0714 39.0653 13.1081 39.1014C13.1447 39.1375 13.1657 39.1865 13.1665 39.238C13.1657 39.2897 13.1449 39.3391 13.1083 39.3756C13.0717 39.4122 13.0223 39.4331 12.9706 39.4339C12.9192 39.4331 12.8701 39.4121 12.834 39.3754C12.7979 39.3388 12.7777 39.2894 12.7777 39.238C12.7777 39.1868 12.798 39.1377 12.8342 39.1016C12.8704 39.0654 12.9194 39.045 12.9706 39.045Z" fill="#121728"/>
<path d="M2.40126 42.6869C2.43589 42.6869 2.46911 42.7006 2.4936 42.7251C2.51809 42.7496 2.53185 42.7828 2.53185 42.8175C2.5271 42.8491 2.51116 42.878 2.48692 42.8988C2.46268 42.9197 2.43176 42.9312 2.39977 42.9312C2.36779 42.9312 2.33687 42.9197 2.31264 42.8988C2.2884 42.878 2.27245 42.8491 2.2677 42.8175C2.26848 42.7826 2.28289 42.7494 2.30785 42.725C2.33282 42.7005 2.36634 42.6869 2.40126 42.6869Z" fill="#121728"/>
<path d="M28.0306 25.2939C28.054 25.2944 28.0766 25.3019 28.0958 25.3153C28.1149 25.3287 28.1296 25.3474 28.1382 25.3692C28.1467 25.3909 28.1486 25.4147 28.1437 25.4375C28.1388 25.4603 28.1273 25.4812 28.1106 25.4975C28.0938 25.5138 28.0727 25.5249 28.0497 25.5292C28.0268 25.5335 28.0031 25.531 27.9816 25.522C27.96 25.5129 27.9417 25.4977 27.9288 25.4782C27.9158 25.4588 27.9089 25.4359 27.9089 25.4126C27.9089 25.3967 27.9121 25.3811 27.9182 25.3665C27.9244 25.3519 27.9334 25.3386 27.9448 25.3276C27.9561 25.3165 27.9695 25.3078 27.9843 25.302C27.999 25.2962 28.0148 25.2935 28.0306 25.2939Z" fill="#121728"/>
<path d="M28.5381 32.0077C28.5933 32.0077 28.6472 32.0241 28.6931 32.0547C28.739 32.0854 28.7747 32.1289 28.7959 32.1799C28.817 32.2309 28.8225 32.287 28.8117 32.3411C28.801 32.3952 28.7744 32.445 28.7354 32.484C28.6964 32.523 28.6466 32.5496 28.5925 32.5603C28.5384 32.5711 28.4823 32.5656 28.4313 32.5445C28.3803 32.5233 28.3368 32.4876 28.3061 32.4417C28.2755 32.3958 28.2591 32.3419 28.2591 32.2867C28.2591 32.2127 28.2885 32.1417 28.3408 32.0894C28.3931 32.0371 28.4641 32.0077 28.5381 32.0077Z" fill="#121728"/>
<path d="M22.056 37.9082C22.1224 37.9082 22.1872 37.9279 22.2424 37.9647C22.2975 38.0016 22.3405 38.054 22.3659 38.1153C22.3913 38.1765 22.3979 38.244 22.385 38.309C22.372 38.3741 22.3401 38.4339 22.2932 38.4808C22.2463 38.5277 22.1865 38.5596 22.1215 38.5726C22.0564 38.5855 21.989 38.5789 21.9277 38.5535C21.8664 38.5281 21.814 38.4851 21.7772 38.4299C21.7403 38.3748 21.7206 38.3099 21.7206 38.2436C21.7202 38.1995 21.7286 38.1557 21.7454 38.1148C21.7621 38.0739 21.7868 38.0368 21.818 38.0056C21.8492 37.9743 21.8863 37.9497 21.9272 37.9329C21.9681 37.9162 22.0119 37.9078 22.056 37.9082Z" fill="#121728"/>
<path d="M9.27834 38.3505C9.31404 38.3512 9.348 38.366 9.37297 38.3915C9.39794 38.417 9.41191 38.4513 9.4119 38.487C9.4119 38.5224 9.39783 38.5564 9.37278 38.5814C9.34773 38.6065 9.31377 38.6206 9.27834 38.6206C9.24292 38.6206 9.20894 38.6065 9.1839 38.5814C9.15885 38.5564 9.14478 38.5224 9.14478 38.487C9.14477 38.4513 9.15874 38.417 9.18371 38.3915C9.20867 38.366 9.24265 38.3512 9.27834 38.3505Z" fill="#121728"/>
<path d="M10.3378 44.5686C10.3965 44.5686 10.4539 44.586 10.5027 44.6186C10.5515 44.6512 10.5895 44.6976 10.612 44.7518C10.6344 44.8061 10.6403 44.8657 10.6289 44.9233C10.6174 44.9809 10.5892 45.0338 10.5476 45.0753C10.5061 45.1168 10.4532 45.1451 10.3957 45.1565C10.3381 45.168 10.2784 45.1621 10.2242 45.1396C10.17 45.1172 10.1236 45.0791 10.091 45.0303C10.0584 44.9815 10.041 44.9241 10.041 44.8654C10.041 44.7867 10.0722 44.7112 10.1279 44.6555C10.1836 44.5999 10.259 44.5686 10.3378 44.5686Z" fill="#121728"/>
<path d="M32.3522 24.2936C32.3916 24.2936 32.4293 24.3092 32.4571 24.337C32.485 24.3649 32.5006 24.4026 32.5006 24.442C32.5006 24.4813 32.485 24.5191 32.4571 24.5469C32.4293 24.5747 32.3916 24.5904 32.3522 24.5904C32.3131 24.5896 32.2758 24.5737 32.2481 24.5461C32.2204 24.5184 32.2046 24.4811 32.2038 24.442C32.2038 24.4026 32.2194 24.3649 32.2473 24.337C32.2751 24.3092 32.3128 24.2936 32.3522 24.2936Z" fill="#121728"/>
<path d="M8.74399 41.9894C8.797 41.9902 8.84759 42.0118 8.8848 42.0495C8.92201 42.0873 8.94286 42.1382 8.94286 42.1912C8.94286 42.2439 8.9219 42.2945 8.88461 42.3318C8.84731 42.3691 8.79673 42.3901 8.74399 42.3901C8.69125 42.3901 8.64067 42.3691 8.60338 42.3318C8.56608 42.2945 8.54514 42.2439 8.54514 42.1912C8.54513 42.1382 8.56599 42.0873 8.6032 42.0495C8.64041 42.0118 8.69098 41.9902 8.74399 41.9894Z" fill="#121728"/>
<path d="M2.82272 38.3623C2.83623 38.3623 2.84942 38.3663 2.86065 38.3738C2.87188 38.3813 2.88063 38.392 2.88579 38.4044C2.89096 38.4169 2.89231 38.4306 2.88968 38.4439C2.88705 38.4571 2.88054 38.4693 2.87099 38.4788C2.86145 38.4884 2.84928 38.4949 2.83604 38.4975C2.8228 38.5002 2.80908 38.4988 2.7966 38.4936C2.78413 38.4885 2.77346 38.4797 2.76596 38.4685C2.75846 38.4573 2.75446 38.4441 2.75446 38.4306C2.75446 38.4125 2.76164 38.3951 2.77445 38.3823C2.78725 38.3695 2.80462 38.3623 2.82272 38.3623Z" fill="#121728"/>
<path d="M21.9936 27.1163C22.0107 27.1163 22.0273 27.1214 22.0415 27.1308C22.0556 27.1403 22.0666 27.1537 22.0732 27.1695C22.0797 27.1852 22.0814 27.2025 22.0781 27.2192C22.0747 27.2359 22.0665 27.2512 22.0545 27.2633C22.0425 27.2753 22.0271 27.2835 22.0104 27.2868C21.9937 27.2902 21.9764 27.2884 21.9607 27.2819C21.945 27.2754 21.9315 27.2644 21.9221 27.2502C21.9126 27.2361 21.9076 27.2194 21.9076 27.2024C21.9076 27.1796 21.9166 27.1577 21.9328 27.1415C21.9489 27.1254 21.9708 27.1163 21.9936 27.1163Z" fill="#121728"/>
<path d="M33.1029 21.6105C33.1174 21.608 33.1323 21.6087 33.1465 21.6125C33.1607 21.6163 33.1739 21.6232 33.1851 21.6327C33.1964 21.6422 33.2054 21.654 33.2116 21.6673C33.2178 21.6807 33.2211 21.6952 33.2211 21.7099C33.2211 21.7246 33.2178 21.7392 33.2116 21.7525C33.2054 21.7658 33.1964 21.7777 33.1851 21.7871C33.1739 21.7966 33.1607 21.8035 33.1465 21.8073C33.1323 21.8112 33.1174 21.8119 33.1029 21.8094C33.0884 21.8119 33.0735 21.8112 33.0593 21.8073C33.0451 21.8035 33.0319 21.7966 33.0207 21.7871C33.0094 21.7777 33.0004 21.7658 32.9942 21.7525C32.988 21.7392 32.9847 21.7246 32.9847 21.7099C32.9847 21.6952 32.988 21.6807 32.9942 21.6673C33.0004 21.654 33.0094 21.6422 33.0207 21.6327C33.0319 21.6232 33.0451 21.6163 33.0593 21.6125C33.0735 21.6087 33.0884 21.608 33.1029 21.6105Z" fill="#121728"/>
<path d="M18.1826 32.8031C18.2172 32.8031 18.2504 32.8169 18.2749 32.8414C18.2994 32.8658 18.3132 32.8991 18.3132 32.9337C18.3132 32.9683 18.2994 33.0016 18.2749 33.026C18.2504 33.0505 18.2172 33.0643 18.1826 33.0643C18.1479 33.0643 18.1147 33.0505 18.0902 33.026C18.0657 33.0016 18.052 32.9683 18.052 32.9337C18.052 32.8991 18.0657 32.8658 18.0902 32.8414C18.1147 32.8169 18.1479 32.8031 18.1826 32.8031Z" fill="#121728"/>
<path d="M6.64863 35.504C6.66096 35.504 6.67301 35.5077 6.68326 35.5145C6.69351 35.5214 6.7015 35.5311 6.70622 35.5425C6.71094 35.5539 6.71217 35.5664 6.70976 35.5785C6.70736 35.5906 6.70142 35.6017 6.69271 35.6104C6.68399 35.6192 6.67289 35.6251 6.6608 35.6275C6.6487 35.6299 6.63617 35.6287 6.62478 35.6239C6.61339 35.6192 6.60366 35.6112 6.59681 35.601C6.58996 35.5907 6.5863 35.5787 6.5863 35.5664C6.5863 35.5498 6.59287 35.534 6.60456 35.5223C6.61624 35.5106 6.6321 35.504 6.64863 35.504Z" fill="#121728"/>
<path d="M26.1786 34.4296C26.336 34.4296 26.4636 34.302 26.4636 34.1447C26.4636 33.9873 26.336 33.8597 26.1786 33.8597C26.0213 33.8597 25.8937 33.9873 25.8937 34.1447C25.8937 34.302 26.0213 34.4296 26.1786 34.4296Z" fill="#121728"/>
<path d="M11.3351 41.001C11.378 41.001 11.4199 41.0137 11.4555 41.0375C11.4911 41.0613 11.5189 41.0951 11.5353 41.1347C11.5517 41.1743 11.556 41.2179 11.5476 41.2599C11.5393 41.3019 11.5186 41.3406 11.4883 41.3709C11.458 41.4012 11.4194 41.4218 11.3774 41.4302C11.3354 41.4385 11.2918 41.4342 11.2522 41.4178C11.2126 41.4014 11.1788 41.3737 11.155 41.338C11.1312 41.3024 11.1184 41.2605 11.1184 41.2176C11.1184 41.1602 11.1413 41.1051 11.1819 41.0644C11.2225 41.0238 11.2776 41.001 11.3351 41.001Z" fill="#121728"/>
<path d="M13.0002 42.9273C13.0803 42.935 13.1546 42.9722 13.2087 43.0318C13.2628 43.0913 13.2928 43.1689 13.2928 43.2493C13.2928 43.3297 13.2628 43.4073 13.2087 43.4668C13.1546 43.5264 13.0803 43.5636 13.0002 43.5713C12.9553 43.5757 12.91 43.5705 12.8673 43.5563C12.8245 43.5421 12.7851 43.5191 12.7517 43.4888C12.7184 43.4584 12.6917 43.4215 12.6734 43.3802C12.6552 43.339 12.6458 43.2944 12.6458 43.2493C12.6458 43.2042 12.6552 43.1596 12.6734 43.1184C12.6917 43.0771 12.7184 43.0402 12.7517 43.0098C12.7851 42.9795 12.8245 42.9565 12.8673 42.9423C12.91 42.9281 12.9553 42.923 13.0002 42.9273Z" fill="#121728"/>
<path d="M10.9939 33.459C11.0316 33.459 11.0621 33.4285 11.0621 33.3908C11.0621 33.3531 11.0316 33.3225 10.9939 33.3225C10.9562 33.3225 10.9256 33.3531 10.9256 33.3908C10.9256 33.4285 10.9562 33.459 10.9939 33.459Z" fill="#121728"/>
<path d="M32.4116 32.7615C32.6083 32.7615 32.7678 32.6021 32.7678 32.4054C32.7678 32.2087 32.6083 32.0492 32.4116 32.0492C32.2149 32.0492 32.0554 32.2087 32.0554 32.4054C32.0554 32.6021 32.2149 32.7615 32.4116 32.7615Z" fill="#121728"/>
<path d="M25.202 31.0312C25.2392 31.0306 25.2758 31.0411 25.307 31.0614C25.3382 31.0817 25.3626 31.1109 25.3771 31.1452C25.3916 31.1795 25.3956 31.2173 25.3885 31.2539C25.3814 31.2904 25.3635 31.324 25.3371 31.3503C25.3108 31.3767 25.2772 31.3945 25.2407 31.4017C25.2041 31.4088 25.1663 31.4048 25.132 31.3903C25.0977 31.3758 25.0686 31.3514 25.0482 31.3202C25.0279 31.289 25.0174 31.2524 25.018 31.2152C25.0187 31.1666 25.0384 31.1202 25.0727 31.0859C25.1071 31.0516 25.1534 31.0319 25.202 31.0312Z" fill="#121728"/>
<path d="M17.6929 40.2827C17.7516 40.2827 17.809 40.3001 17.8578 40.3327C17.9066 40.3654 17.9447 40.4117 17.9671 40.4659C17.9896 40.5202 17.9955 40.5799 17.984 40.6374C17.9726 40.695 17.9443 40.7479 17.9028 40.7894C17.8613 40.8309 17.8084 40.8592 17.7508 40.8706C17.6933 40.8821 17.6336 40.8762 17.5793 40.8537C17.5251 40.8313 17.4788 40.7932 17.4461 40.7444C17.4135 40.6956 17.3961 40.6382 17.3961 40.5795C17.3961 40.5008 17.4274 40.4253 17.4831 40.3696C17.5387 40.314 17.6142 40.2827 17.6929 40.2827Z" fill="#121728"/>
<path d="M13.1695 35.9077C13.2065 35.9077 13.242 35.9224 13.2681 35.9486C13.2943 35.9747 13.309 36.0102 13.309 36.0472C13.309 36.0842 13.2943 36.1197 13.2681 36.1459C13.242 36.172 13.2065 36.1867 13.1695 36.1867C13.1325 36.1867 13.097 36.172 13.0709 36.1459C13.0447 36.1197 13.03 36.0842 13.03 36.0472C13.03 36.0102 13.0447 35.9747 13.0709 35.9486C13.097 35.9224 13.1325 35.9077 13.1695 35.9077Z" fill="#121728"/>
<path d="M5.68392 40.7398C5.70196 40.7394 5.7199 40.7426 5.73665 40.7493C5.7534 40.7561 5.76861 40.7661 5.78137 40.7789C5.79413 40.7916 5.80417 40.8068 5.81089 40.8236C5.8176 40.8403 5.82086 40.8583 5.82045 40.8763C5.82045 40.9125 5.80608 40.9473 5.78047 40.9729C5.75487 40.9985 5.72013 41.0128 5.68392 41.0128C5.64795 41.0121 5.61366 40.9975 5.58822 40.972C5.56278 40.9466 5.54815 40.9123 5.54739 40.8763C5.54739 40.8401 5.56178 40.8054 5.58738 40.7798C5.61299 40.7542 5.64771 40.7398 5.68392 40.7398Z" fill="#121728"/>
<path d="M33.6699 26.8165C33.7122 26.8165 33.7535 26.8291 33.7887 26.8525C33.8238 26.876 33.8512 26.9094 33.8674 26.9484C33.8835 26.9875 33.8878 27.0305 33.8795 27.0719C33.8713 27.1134 33.8509 27.1515 33.8211 27.1813C33.7912 27.2112 33.7531 27.2316 33.7116 27.2398C33.6702 27.2481 33.6272 27.2438 33.5882 27.2277C33.5491 27.2115 33.5157 27.1841 33.4923 27.149C33.4688 27.1138 33.4562 27.0725 33.4562 27.0302C33.4562 26.9736 33.4788 26.9192 33.5188 26.8791C33.5589 26.839 33.6133 26.8165 33.6699 26.8165Z" fill="#121728"/>
<path d="M1.90851 46.0704C1.96125 46.0704 2.01183 46.0914 2.04913 46.1287C2.08642 46.166 2.10738 46.2166 2.10738 46.2693C2.10738 46.322 2.08642 46.3726 2.04913 46.4099C2.01183 46.4472 1.96125 46.4682 1.90851 46.4682C1.85577 46.4682 1.80519 46.4472 1.7679 46.4099C1.7306 46.3726 1.70966 46.322 1.70966 46.2693C1.70966 46.2166 1.7306 46.166 1.7679 46.1287C1.80519 46.0914 1.85577 46.0704 1.90851 46.0704Z" fill="#121728"/>
<path d="M4.36602 47.9552C4.42473 47.9552 4.48211 47.9726 4.53092 48.0052C4.57973 48.0378 4.61778 48.0842 4.64024 48.1384C4.6627 48.1927 4.66859 48.2523 4.65713 48.3099C4.64568 48.3675 4.61741 48.4204 4.5759 48.4619C4.53439 48.5034 4.4815 48.5317 4.42393 48.5431C4.36635 48.5546 4.30668 48.5487 4.25245 48.5262C4.19821 48.5038 4.15185 48.4657 4.11924 48.4169C4.08663 48.3681 4.06921 48.3107 4.06921 48.252C4.06921 48.1733 4.10049 48.0978 4.15615 48.0421C4.21181 47.9865 4.2873 47.9552 4.36602 47.9552Z" fill="#121728"/>
<path d="M7.13826 44.4885C7.26284 44.4885 7.36383 44.3875 7.36383 44.2629C7.36383 44.1383 7.26284 44.0374 7.13826 44.0374C7.01368 44.0374 6.91269 44.1383 6.91269 44.2629C6.91269 44.3875 7.01368 44.4885 7.13826 44.4885Z" fill="#121728"/>
<path d="M15.3212 41.9745C15.4884 41.9745 15.624 41.839 15.624 41.6718C15.624 41.5046 15.4884 41.369 15.3212 41.369C15.154 41.369 15.0185 41.5046 15.0185 41.6718C15.0185 41.839 15.154 41.9745 15.3212 41.9745Z" fill="#121728"/>
<path d="M4.64218 45.085C4.6841 45.0844 4.72525 45.0963 4.76036 45.1193C4.79546 45.1422 4.82292 45.1751 4.83924 45.2137C4.85556 45.2523 4.85998 45.2949 4.85195 45.3361C4.84391 45.3772 4.82378 45.4151 4.79413 45.4447C4.76448 45.4744 4.72666 45.4945 4.68551 45.5025C4.64436 45.5106 4.60175 45.5061 4.56312 45.4898C4.52449 45.4735 4.49161 45.446 4.46868 45.4109C4.44575 45.3758 4.43382 45.3347 4.43441 45.2928C4.43441 45.2376 4.45629 45.1848 4.49526 45.1458C4.53422 45.1069 4.58707 45.085 4.64218 45.085Z" fill="#121728"/>
<path d="M25.1515 22.6285C25.1578 22.6285 25.1639 22.6298 25.1697 22.6322C25.1755 22.6345 25.1807 22.638 25.1851 22.6425C25.1895 22.6469 25.193 22.6521 25.1954 22.6579C25.1978 22.6636 25.199 22.6698 25.199 22.676C25.199 22.6823 25.1978 22.6884 25.1954 22.6942C25.193 22.7 25.1895 22.7052 25.1851 22.7096C25.1807 22.714 25.1755 22.7175 25.1697 22.7199C25.1639 22.7223 25.1578 22.7235 25.1515 22.7235C25.1453 22.7235 25.1391 22.7223 25.1334 22.7199C25.1276 22.7175 25.1224 22.714 25.1179 22.7096C25.1135 22.7052 25.11 22.7 25.1077 22.6942C25.1053 22.6884 25.104 22.6823 25.104 22.676C25.104 22.6698 25.1053 22.6636 25.1077 22.6579C25.11 22.6521 25.1135 22.6469 25.1179 22.6425C25.1224 22.638 25.1276 22.6345 25.1334 22.6322C25.1391 22.6298 25.1453 22.6285 25.1515 22.6285Z" fill="#121728"/>
<path d="M21.139 31.4615C21.1677 31.4615 21.1958 31.4701 21.2198 31.4861C21.2437 31.502 21.2623 31.5248 21.2733 31.5513C21.2843 31.5779 21.2872 31.6071 21.2816 31.6354C21.276 31.6636 21.2621 31.6895 21.2418 31.7098C21.2215 31.7302 21.1955 31.744 21.1673 31.7496C21.1391 31.7552 21.1099 31.7524 21.0833 31.7413C21.0567 31.7303 21.034 31.7117 21.018 31.6878C21.0021 31.6639 20.9935 31.6358 20.9935 31.607C20.9935 31.5684 21.0088 31.5314 21.0361 31.5041C21.0634 31.4769 21.1004 31.4615 21.139 31.4615Z" fill="#121728"/>
<path d="M14.6831 31.043C14.6919 31.0426 14.7007 31.044 14.709 31.0471C14.7172 31.0502 14.7248 31.055 14.7312 31.0611C14.7376 31.0672 14.7426 31.0745 14.7461 31.0826C14.7496 31.0908 14.7513 31.0995 14.7513 31.1083C14.7513 31.1172 14.7496 31.1259 14.7461 31.134C14.7426 31.1421 14.7376 31.1495 14.7312 31.1556C14.7248 31.1617 14.7172 31.1664 14.709 31.1695C14.7007 31.1726 14.6919 31.174 14.6831 31.1736C14.6657 31.1736 14.6491 31.1668 14.6369 31.1545C14.6246 31.1423 14.6178 31.1257 14.6178 31.1083C14.6178 31.091 14.6246 31.0744 14.6369 31.0622C14.6491 31.0499 14.6657 31.043 14.6831 31.043Z" fill="#121728"/>
<path d="M16.7875 35.6198C16.8223 35.6198 16.8562 35.6301 16.8851 35.6495C16.914 35.6689 16.9364 35.6964 16.9496 35.7286C16.9627 35.7608 16.966 35.7961 16.959 35.8302C16.952 35.8642 16.935 35.8954 16.9102 35.9198C16.8855 35.9441 16.854 35.9606 16.8198 35.967C16.7857 35.9734 16.7504 35.9695 16.7184 35.9558C16.6865 35.9421 16.6593 35.9192 16.6405 35.89C16.6216 35.8608 16.6118 35.8267 16.6124 35.7919C16.6124 35.7691 16.6169 35.7464 16.6258 35.7254C16.6346 35.7043 16.6476 35.6852 16.6639 35.6691C16.6802 35.6531 16.6995 35.6405 16.7207 35.632C16.7419 35.6235 16.7647 35.6194 16.7875 35.6198Z" fill="#121728"/>
<path d="M23.0353 33.3403C23.0758 33.3403 23.1154 33.3523 23.1491 33.3748C23.1828 33.3974 23.209 33.4293 23.2245 33.4668C23.24 33.5042 23.2441 33.5454 23.2362 33.5851C23.2283 33.6248 23.2088 33.6613 23.1801 33.6899C23.1515 33.7186 23.115 33.7381 23.0753 33.746C23.0356 33.7539 22.9944 33.7498 22.957 33.7343C22.9195 33.7188 22.8875 33.6926 22.865 33.6589C22.8425 33.6252 22.8305 33.5856 22.8305 33.5451C22.8305 33.4908 22.8521 33.4387 22.8905 33.4003C22.9289 33.3619 22.981 33.3403 23.0353 33.3403Z" fill="#121728"/>
<path d="M31.8505 18.0933C31.8616 18.0933 31.8721 18.0976 31.8799 18.1054C31.8877 18.1132 31.8921 18.1238 31.8921 18.1348C31.8921 18.1458 31.8877 18.1564 31.8799 18.1642C31.8721 18.172 31.8616 18.1764 31.8505 18.1764C31.8395 18.1764 31.8289 18.172 31.8212 18.1642C31.8134 18.1564 31.809 18.1458 31.809 18.1348C31.809 18.1238 31.8134 18.1132 31.8212 18.1054C31.8289 18.0976 31.8395 18.0933 31.8505 18.0933Z" fill="#121728"/>
<path d="M1.8671 49.1661C1.92229 49.1661 1.97622 49.1825 2.0221 49.2132C2.06798 49.2438 2.10375 49.2874 2.12486 49.3384C2.14598 49.3894 2.15151 49.4455 2.14074 49.4996C2.12998 49.5537 2.1034 49.6034 2.06438 49.6424C2.02537 49.6814 1.97565 49.708 1.92153 49.7188C1.86741 49.7295 1.81131 49.724 1.76033 49.7029C1.70935 49.6818 1.66578 49.646 1.63512 49.6001C1.60447 49.5543 1.5881 49.5003 1.5881 49.4451C1.5881 49.3711 1.61749 49.3002 1.66982 49.2479C1.72214 49.1955 1.79311 49.1661 1.8671 49.1661Z" fill="#121728"/>
<path d="M7.39355 46.3643C7.45581 46.3643 7.51661 46.383 7.56813 46.418C7.61965 46.4529 7.65953 46.5025 7.68262 46.5603C7.70571 46.6181 7.71095 46.6816 7.69768 46.7424C7.6844 46.8032 7.6532 46.8586 7.60812 46.9016C7.56304 46.9445 7.50613 46.973 7.44474 46.9833C7.38334 46.9936 7.32026 46.9852 7.26364 46.9594C7.20702 46.9335 7.15945 46.8912 7.12706 46.8381C7.09467 46.7849 7.07893 46.7233 7.0819 46.6611C7.08185 46.6208 7.08999 46.581 7.10583 46.5439C7.12166 46.5069 7.14486 46.4735 7.17402 46.4458C7.20317 46.418 7.23766 46.3965 7.2754 46.3824C7.31314 46.3684 7.35334 46.3623 7.39355 46.3643Z" fill="#121728"/>
<path d="M18.159 27.9473C18.1709 27.9468 18.1828 27.9498 18.193 27.9561C18.2032 27.9624 18.2113 27.9716 18.2161 27.9826C18.221 27.9935 18.2224 28.0057 18.2202 28.0175C18.218 28.0293 18.2123 28.0401 18.2038 28.0486C18.1954 28.0571 18.1845 28.0628 18.1727 28.065C18.161 28.0672 18.1488 28.0658 18.1378 28.0609C18.1269 28.056 18.1176 28.048 18.1113 28.0378C18.105 28.0276 18.102 28.0157 18.1026 28.0037C18.1033 27.989 18.1095 27.9751 18.1199 27.9647C18.1303 27.9542 18.1442 27.9481 18.159 27.9473Z" fill="#121728"/>
<path d="M19.4528 38.6829C19.5115 38.6829 19.5689 38.7003 19.6177 38.7329C19.6665 38.7655 19.7046 38.8118 19.727 38.8661C19.7495 38.9203 19.7554 38.98 19.7439 39.0376C19.7325 39.0951 19.7042 39.148 19.6627 39.1895C19.6212 39.2311 19.5683 39.2593 19.5107 39.2708C19.4531 39.2822 19.3935 39.2763 19.3392 39.2539C19.285 39.2314 19.2386 39.1934 19.206 39.1446C19.1734 39.0958 19.156 39.0384 19.156 38.9797C19.156 38.901 19.1873 38.8255 19.2429 38.7698C19.2986 38.7141 19.3741 38.6829 19.4528 38.6829Z" fill="#121728"/>
<path d="M19.833 35.8009C19.8959 35.8009 19.9563 35.8259 20.0009 35.8704C20.0454 35.915 20.0704 35.9754 20.0704 36.0384C20.0704 36.1013 20.0454 36.1617 20.0009 36.2063C19.9563 36.2508 19.8959 36.2758 19.833 36.2758C19.77 36.2758 19.7096 36.2508 19.6651 36.2063C19.6205 36.1617 19.5955 36.1013 19.5955 36.0384C19.5955 35.9754 19.6205 35.915 19.6651 35.8704C19.7096 35.8259 19.77 35.8009 19.833 35.8009Z" fill="#121728"/>
<path d="M15.9001 38.1338C15.9418 38.1338 15.9825 38.1461 16.0172 38.1693C16.0518 38.1925 16.0788 38.2254 16.0948 38.2639C16.1107 38.3024 16.1149 38.3448 16.1068 38.3856C16.0987 38.4265 16.0786 38.4641 16.0491 38.4935C16.0196 38.523 15.9821 38.5431 15.9412 38.5512C15.9003 38.5593 15.858 38.5552 15.8195 38.5392C15.781 38.5233 15.748 38.4963 15.7249 38.4616C15.7017 38.4269 15.6894 38.3862 15.6894 38.3445C15.6894 38.2886 15.7116 38.235 15.7511 38.1955C15.7906 38.156 15.8442 38.1338 15.9001 38.1338Z" fill="#121728"/>
<path d="M30.6098 27.422C30.6469 27.422 30.6831 27.4331 30.714 27.4538C30.7448 27.4744 30.7687 27.5038 30.7828 27.5382C30.7969 27.5725 30.8004 27.6102 30.7929 27.6466C30.7855 27.6829 30.7674 27.7163 30.7409 27.7423C30.7145 27.7683 30.6809 27.7859 30.6444 27.7928C30.6079 27.7996 30.5702 27.7955 30.5361 27.7809C30.502 27.7663 30.473 27.7419 30.4528 27.7107C30.4327 27.6796 30.4222 27.6431 30.4228 27.606C30.4228 27.5816 30.4276 27.5574 30.4371 27.5349C30.4465 27.5124 30.4603 27.492 30.4777 27.4749C30.4951 27.4577 30.5158 27.4442 30.5384 27.4352C30.5611 27.4261 30.5854 27.4216 30.6098 27.422Z" fill="#121728"/>
<path d="M30.7761 21.4858C30.7436 22.0882 30.5694 22.6745 30.2677 23.1969C29.966 23.7193 29.5453 24.1632 29.0397 24.4925C28.081 25.0475 27.3034 24.5993 27.3034 23.4922C27.3373 22.8897 27.5121 22.3036 27.8136 21.7809C28.1152 21.2582 28.5351 20.8135 29.0397 20.4826C29.9984 19.9305 30.7761 20.3787 30.7761 21.4858Z" fill="#FAD657"/>
<path d="M22.4508 14.1636C22.4188 14.7658 22.2452 15.3519 21.944 15.8744C21.6428 16.3968 21.2225 16.8408 20.7174 17.1702C19.7587 17.7253 18.9811 17.2741 18.9811 16.167C19.0141 15.5647 19.1884 14.9786 19.4901 14.4563C19.7918 13.9339 20.2122 13.49 20.7174 13.1604C21.6672 12.5994 22.4508 13.0476 22.4508 14.1636Z" fill="#005BF2"/>
<path d="M14.3448 17.9153V27.8851L10.0292 25.3919L14.3448 17.9153Z" fill="#005BF2"/>
<path d="M14.3447 17.9153L10.0291 25.3919L5.71057 22.8987L14.3447 17.9153Z" fill="white"/>
<path d="M14.3447 27.885L5.71057 32.8714L10.0291 25.3918L14.3447 27.885Z" fill="white"/>
<path d="M10.0291 25.3919L5.71057 32.8714V22.8987L10.0291 25.3919Z" fill="#FAD657"/>
<path d="M1.43072 51.0539C1.23072 51.0547 1.03407 51.0024 0.860844 50.9025C0.415631 50.6443 0.15741 50.0863 0.15741 49.368V21.56C0.15741 20.3194 0.89646 18.9214 1.84328 18.3753L33.2782 0.22842C33.4752 0.0945506 33.7047 0.0164271 33.9424 0.0023197C34.1802 -0.0117876 34.4173 0.038646 34.6287 0.148282C35.0769 0.406505 35.3322 0.964504 35.3322 1.67981V29.4878C35.3322 30.7284 34.5931 32.1264 33.6492 32.6725L2.21429 50.8223C1.9781 50.9673 1.70776 51.0472 1.43072 51.0539ZM34.0559 0.741898C33.9117 0.749299 33.7718 0.793216 33.6492 0.869526L2.21429 19.0193C1.50195 19.4289 0.89943 20.5924 0.89943 21.56V49.368C0.89943 49.8073 1.02409 50.1397 1.23185 50.2584C1.33224 50.2978 1.44097 50.3111 1.54789 50.2971C1.65481 50.2831 1.75644 50.2422 1.84328 50.1783L33.2782 32.0314C33.9906 31.6189 34.5901 30.4554 34.5901 29.4878V1.67981C34.5901 1.2435 34.4655 0.911079 34.2577 0.789387C34.1955 0.756757 34.1261 0.740419 34.0559 0.741898Z" fill="#121728"/>
<path d="M19.9427 17.7728C19.72 17.7744 19.5008 17.717 19.3075 17.6065C18.8563 17.3483 18.61 16.8319 18.61 16.1581C18.6424 15.4904 18.8339 14.8402 19.1684 14.2614C19.503 13.6827 19.9709 13.1922 20.5333 12.8309C21.1269 12.4955 21.6819 12.451 22.1301 12.7092C22.5783 12.9674 22.8217 13.4809 22.8217 14.1547C22.7909 14.8224 22.6007 15.4731 22.2672 16.0525C21.9336 16.6318 21.4663 17.1229 20.9043 17.4849C20.6141 17.6626 20.2827 17.7618 19.9427 17.7728ZM21.492 13.288C21.2811 13.2971 21.0764 13.3616 20.8984 13.475C20.4518 13.7711 20.0795 14.1661 19.8103 14.6293C19.5411 15.0926 19.3822 15.6117 19.3461 16.1462C19.3006 16.2982 19.3078 16.461 19.3665 16.6083C19.4251 16.7556 19.5319 16.8787 19.6693 16.9578C19.8068 17.0368 19.9669 17.0671 20.1237 17.0437C20.2806 17.0203 20.4249 16.9446 20.5333 16.8289C20.9789 16.5323 21.3502 16.1371 21.6184 15.6738C21.8866 15.2106 22.0444 14.6918 22.0797 14.1576C22.0986 14.0078 22.0791 13.8557 22.023 13.7155C21.9669 13.5753 21.8761 13.4517 21.7591 13.3563C21.6777 13.3101 21.5855 13.2866 21.492 13.288Z" fill="#121728"/>
<path d="M28.2623 25.1039C28.0396 25.1053 27.8206 25.048 27.6271 24.9377C27.1789 24.6795 26.9326 24.166 26.9326 23.4923C26.9648 22.8241 27.1561 22.1733 27.4907 21.5941C27.8252 21.0149 28.2933 20.5239 28.8559 20.1621C29.4495 19.8267 30.0075 19.7822 30.4527 20.0404C30.8979 20.2986 31.1473 20.8121 31.1473 21.4858C31.1161 22.1539 30.9255 22.8048 30.5914 23.3841C30.2574 23.9634 29.7895 24.4544 29.2269 24.816C28.9357 24.9939 28.6033 25.0931 28.2623 25.1039ZM29.8146 20.6192C29.6037 20.6283 29.399 20.6928 29.221 20.8062C28.7725 21.1037 28.399 21.5011 28.1297 21.9671C27.8604 22.4331 27.7026 22.9551 27.6687 23.4923C27.6243 23.6439 27.6324 23.8061 27.6914 23.9527C27.7505 24.0992 27.8572 24.2216 27.9943 24.3001C28.1315 24.3786 28.2911 24.4087 28.4474 24.3854C28.6036 24.3622 28.7476 24.287 28.8559 24.172C29.3024 23.876 29.6745 23.481 29.9432 23.0177C30.212 22.5543 30.3701 22.0352 30.4052 21.5007C30.4238 21.3506 30.4038 21.1983 30.3472 21.0581C30.2906 20.9179 30.1993 20.7944 30.0817 20.6993C30.0017 20.6486 29.9093 20.6209 29.8146 20.6192Z" fill="#121728"/>
<path d="M22.2399 26.4544C21.9277 26.4557 21.6206 26.3748 21.3495 26.22C20.7113 25.8519 20.3581 25.104 20.3581 24.1186C20.3581 22.219 21.6463 19.984 23.2906 19.0313L26.3626 17.2504C27.0367 16.809 27.5978 16.2153 28.0004 15.5172C28.4031 14.8192 28.6361 14.0363 28.6806 13.2316C28.6806 12.5994 28.4877 12.1364 28.1345 11.9316C27.7813 11.7268 27.2827 11.7921 26.7336 12.1067L22.6495 14.4634C22.6082 14.4937 22.5611 14.5151 22.5111 14.5263C22.4612 14.5375 22.4094 14.5382 22.3591 14.5285C22.3089 14.5187 22.2612 14.4986 22.2191 14.4695C22.1769 14.4404 22.1413 14.4029 22.1144 14.3593C22.0875 14.3157 22.0698 14.2671 22.0627 14.2164C22.0555 14.1657 22.0588 14.114 22.0726 14.0647C22.0863 14.0154 22.1101 13.9694 22.1425 13.9298C22.1749 13.8901 22.2151 13.8575 22.2607 13.8342L26.3507 11.4923C27.1402 11.0382 27.9 10.9759 28.4936 11.3172C29.0873 11.6586 29.4108 12.3501 29.4108 13.2584C29.4108 14.9976 28.2235 17.0456 26.7217 17.9182L23.6527 19.6991C22.2399 20.5153 21.0883 22.5099 21.0883 24.1512C21.0883 24.8606 21.3079 25.38 21.7086 25.6115C22.1093 25.843 22.6673 25.7718 23.2817 25.4186L27.1194 23.2044C27.2039 23.1619 27.3015 23.1534 27.3921 23.1805C27.4828 23.2076 27.5596 23.2682 27.607 23.3501C27.6544 23.432 27.6687 23.5289 27.6471 23.621C27.6254 23.713 27.5694 23.7934 27.4904 23.8455L23.6527 26.0359C23.2259 26.2954 22.7391 26.4396 22.2399 26.4544Z" fill="#121728"/>
<path d="M5.71075 33.2424C5.64588 33.2432 5.58209 33.2257 5.52673 33.1919C5.46918 33.1587 5.42169 33.1105 5.38929 33.0525C5.35689 32.9945 5.34079 32.9288 5.34271 32.8624V22.8897C5.343 22.8245 5.36042 22.7606 5.39325 22.7043C5.42607 22.6481 5.47314 22.6014 5.5297 22.5691L14.1639 17.5857C14.2202 17.5536 14.2839 17.5367 14.3488 17.5369C14.4136 17.537 14.4773 17.5542 14.5334 17.5866C14.5896 17.619 14.6363 17.6656 14.6688 17.7217C14.7013 17.7778 14.7186 17.8414 14.7189 17.9063V27.8761C14.7185 27.9412 14.7014 28.0052 14.6692 28.0619C14.637 28.1186 14.5907 28.166 14.5349 28.1996L5.90071 33.183C5.84439 33.2206 5.77845 33.2412 5.71075 33.2424ZM6.08176 23.1123V32.2302L13.9739 27.6713V18.5593L6.08176 23.1123Z" fill="#121728"/>
<path d="M5.71065 33.2423C5.64578 33.2432 5.58199 33.2257 5.52663 33.1919C5.48438 33.1679 5.44731 33.1357 5.41755 33.0973C5.38778 33.0589 5.36592 33.015 5.35323 32.968C5.34053 32.9211 5.33726 32.8722 5.34359 32.824C5.34992 32.7758 5.36573 32.7293 5.3901 32.6873L14.0243 17.7252C14.0486 17.6829 14.0811 17.6458 14.1198 17.6161C14.1584 17.5863 14.2026 17.5645 14.2497 17.5518C14.2969 17.5391 14.346 17.5359 14.3944 17.5422C14.4428 17.5485 14.4895 17.5643 14.5318 17.5887C14.5741 17.613 14.6112 17.6455 14.6409 17.6842C14.6707 17.7229 14.6925 17.767 14.7052 17.8142C14.7179 17.8613 14.7211 17.9105 14.7148 17.9589C14.7085 18.0072 14.6927 18.0539 14.6683 18.0962L6.03121 33.0524C5.99951 33.1097 5.95309 33.1575 5.89674 33.1909C5.84039 33.2243 5.77615 33.2421 5.71065 33.2423Z" fill="#121728"/>
<path d="M14.3447 28.256C14.2803 28.2564 14.2169 28.24 14.1607 28.2085L5.52655 23.2191C5.48401 23.1954 5.44665 23.1634 5.41666 23.125C5.38667 23.0867 5.36466 23.0427 5.35194 22.9956C5.33921 22.9486 5.33603 22.8995 5.34257 22.8513C5.34911 22.803 5.36525 22.7565 5.39003 22.7146C5.41433 22.6722 5.44675 22.6351 5.48543 22.6053C5.52412 22.5755 5.5683 22.5536 5.61545 22.5409C5.6626 22.5283 5.71179 22.525 5.7602 22.5314C5.80861 22.5377 5.8553 22.5536 5.89756 22.578L14.5436 27.5644C14.6141 27.6055 14.669 27.6686 14.7 27.7441C14.731 27.8195 14.7362 27.9031 14.7149 27.9818C14.6936 28.0605 14.647 28.1301 14.5822 28.1796C14.5175 28.2292 14.4382 28.256 14.3566 28.256H14.3447Z" fill="#121728"/>
<path d="M6.00755 38.5286C5.92625 38.5279 5.8474 38.5007 5.78312 38.4509C5.71884 38.4011 5.6727 38.3315 5.65179 38.253C5.63088 38.1744 5.63636 38.0911 5.6674 38.016C5.69843 37.9408 5.75328 37.8779 5.82353 37.837L13.8641 33.1919C13.9495 33.1427 14.0509 33.1295 14.1461 33.1551C14.1933 33.1678 14.2374 33.1896 14.2761 33.2194C14.3148 33.2491 14.3473 33.2862 14.3716 33.3285C14.396 33.3708 14.4118 33.4174 14.4181 33.4658C14.4244 33.5142 14.4211 33.5634 14.4085 33.6105C14.3958 33.6577 14.3739 33.7018 14.3442 33.7405C14.3144 33.7792 14.2774 33.8117 14.2351 33.836L6.19455 38.4781C6.13795 38.5116 6.07331 38.529 6.00755 38.5286Z" fill="#121728"/>
<path d="M6.00755 41.3186C5.92625 41.318 5.8474 41.2907 5.78312 41.2409C5.71884 41.1911 5.6727 41.1216 5.65179 41.043C5.63088 40.9644 5.63636 40.8811 5.6674 40.806C5.69843 40.7308 5.75328 40.6679 5.82353 40.627L13.8641 35.982C13.9486 35.9395 14.0462 35.931 14.1368 35.958C14.2274 35.9851 14.3043 36.0458 14.3517 36.1277C14.3991 36.2096 14.4134 36.3064 14.3917 36.3985C14.37 36.4906 14.314 36.5709 14.2351 36.6231L6.19455 41.2681C6.13795 41.3016 6.07331 41.319 6.00755 41.3186Z" fill="#121728"/>
<path d="M1.43072 51.0539C1.23072 51.0547 1.03407 51.0024 0.860844 50.9025C0.415631 50.6443 0.15741 50.0863 0.15741 49.368V21.56C0.15741 20.3194 0.89646 18.9214 1.84328 18.3753L33.2782 0.22842C33.4752 0.0945506 33.7047 0.0164271 33.9424 0.0023197C34.1802 -0.0117876 34.4173 0.038646 34.6287 0.148282C35.0769 0.406505 35.3322 0.964504 35.3322 1.67981V29.4878C35.3322 30.7284 34.5931 32.1264 33.6492 32.6725L2.21429 50.8223C1.9781 50.9673 1.70776 51.0472 1.43072 51.0539ZM34.0559 0.741898C33.9117 0.749299 33.7718 0.793216 33.6492 0.869526L2.21429 19.0193C1.50195 19.4289 0.89943 20.5924 0.89943 21.56V49.368C0.89943 49.8073 1.02409 50.1397 1.23185 50.2584C1.33224 50.2978 1.44097 50.3111 1.54789 50.2971C1.65481 50.2831 1.75644 50.2422 1.84328 50.1783L33.2782 32.0314C33.9906 31.6189 34.5901 30.4554 34.5901 29.4878V1.67981C34.5901 1.2435 34.4655 0.911079 34.2577 0.789387C34.1955 0.756757 34.1261 0.740419 34.0559 0.741898Z" fill="#121728"/>
<path d="M19.9427 17.7728C19.72 17.7744 19.5008 17.717 19.3075 17.6065C18.8563 17.3483 18.61 16.8319 18.61 16.1581C18.6424 15.4904 18.8339 14.8402 19.1684 14.2614C19.503 13.6827 19.9709 13.1922 20.5333 12.8309C21.1269 12.4955 21.6819 12.451 22.1301 12.7092C22.5783 12.9674 22.8217 13.4809 22.8217 14.1547C22.7909 14.8224 22.6007 15.4731 22.2672 16.0525C21.9336 16.6318 21.4663 17.1229 20.9043 17.4849C20.6141 17.6626 20.2827 17.7618 19.9427 17.7728ZM21.492 13.288C21.2811 13.2971 21.0764 13.3616 20.8984 13.475C20.4518 13.7711 20.0795 14.1661 19.8103 14.6293C19.5411 15.0926 19.3822 15.6117 19.3461 16.1462C19.3006 16.2982 19.3078 16.461 19.3665 16.6083C19.4251 16.7556 19.5319 16.8787 19.6693 16.9578C19.8068 17.0368 19.9669 17.0671 20.1237 17.0437C20.2806 17.0203 20.4249 16.9446 20.5333 16.8289C20.9789 16.5323 21.3502 16.1371 21.6184 15.6738C21.8866 15.2106 22.0444 14.6918 22.0797 14.1576C22.0986 14.0078 22.0791 13.8557 22.023 13.7155C21.9669 13.5753 21.8761 13.4517 21.7591 13.3563C21.6777 13.3101 21.5855 13.2866 21.492 13.288Z" fill="#121728"/>
<mask id="path-69-inside-1" fill="white">
<path d="M28.2623 25.1039C28.0396 25.1053 27.8206 25.048 27.6271 24.9377C27.1789 24.6795 26.9326 24.166 26.9326 23.4923C26.9648 22.8241 27.1561 22.1733 27.4907 21.5941C27.8252 21.0149 28.2933 20.5239 28.8559 20.1621C29.4495 19.8267 30.0075 19.7822 30.4527 20.0404C30.8979 20.2986 31.1473 20.8121 31.1473 21.4858C31.1161 22.1539 30.9255 22.8048 30.5914 23.3841C30.2574 23.9634 29.7895 24.4544 29.2269 24.816C28.9357 24.9939 28.6033 25.0931 28.2623 25.1039ZM29.8146 20.6192C29.6037 20.6283 29.399 20.6928 29.221 20.8062C28.7725 21.1037 28.399 21.5011 28.1297 21.9671C27.8604 22.4331 27.7026 22.9551 27.6687 23.4923C27.6243 23.6439 27.6324 23.8061 27.6914 23.9527C27.7505 24.0992 27.8572 24.2216 27.9943 24.3001C28.1315 24.3786 28.2911 24.4087 28.4474 24.3854C28.6036 24.3622 28.7476 24.287 28.8559 24.172C29.3024 23.876 29.6745 23.481 29.9432 23.0177C30.212 22.5543 30.3701 22.0352 30.4052 21.5007C30.4238 21.3506 30.4038 21.1983 30.3472 21.0581C30.2906 20.9179 30.1993 20.7944 30.0817 20.6993C30.0017 20.6486 29.9093 20.6209 29.8146 20.6192Z"/>
</mask>
<path d="M28.2623 25.1039C28.0396 25.1053 27.8206 25.048 27.6271 24.9377C27.1789 24.6795 26.9326 24.166 26.9326 23.4923C26.9648 22.8241 27.1561 22.1733 27.4907 21.5941C27.8252 21.0149 28.2933 20.5239 28.8559 20.1621C29.4495 19.8267 30.0075 19.7822 30.4527 20.0404C30.8979 20.2986 31.1473 20.8121 31.1473 21.4858C31.1161 22.1539 30.9255 22.8048 30.5914 23.3841C30.2574 23.9634 29.7895 24.4544 29.2269 24.816C28.9357 24.9939 28.6033 25.0931 28.2623 25.1039ZM29.8146 20.6192C29.6037 20.6283 29.399 20.6928 29.221 20.8062C28.7725 21.1037 28.399 21.5011 28.1297 21.9671C27.8604 22.4331 27.7026 22.9551 27.6687 23.4923C27.6243 23.6439 27.6324 23.8061 27.6914 23.9527C27.7505 24.0992 27.8572 24.2216 27.9943 24.3001C28.1315 24.3786 28.2911 24.4087 28.4474 24.3854C28.6036 24.3622 28.7476 24.287 28.8559 24.172C29.3024 23.876 29.6745 23.481 29.9432 23.0177C30.212 22.5543 30.3701 22.0352 30.4052 21.5007C30.4238 21.3506 30.4038 21.1983 30.3472 21.0581C30.2906 20.9179 30.1993 20.7944 30.0817 20.6993C30.0017 20.6486 29.9093 20.6209 29.8146 20.6192Z" fill="#121728"/>
<path d="M27.6271 24.9377L27.1279 25.8042L27.132 25.8066L27.6271 24.9377ZM26.9326 23.4923L25.9337 23.4441L25.9326 23.4682V23.4923H26.9326ZM28.8559 20.1621L28.364 19.2914L28.3391 19.3055L28.315 19.321L28.8559 20.1621ZM31.1473 21.4858L32.1462 21.5324L32.1473 21.5092V21.4858H31.1473ZM29.2269 24.816L29.7482 25.6694L29.758 25.6635L29.7676 25.6572L29.2269 24.816ZM29.221 20.8062L28.6839 19.9626L28.6759 19.9677L28.6681 19.9729L29.221 20.8062ZM27.6687 23.4923L28.6285 23.7729L28.6597 23.6662L28.6667 23.5553L27.6687 23.4923ZM28.8559 24.172L28.3035 23.3384L28.2072 23.4022L28.128 23.4863L28.8559 24.172ZM30.4052 21.5007L29.4128 21.378L29.4093 21.4064L29.4074 21.4351L30.4052 21.5007ZM30.0817 20.6993L30.7108 19.922L30.6659 19.8856L30.617 19.8546L30.0817 20.6993ZM28.2562 24.104C28.2092 24.1042 28.163 24.0921 28.1222 24.0689L27.132 25.8066C27.4781 26.0038 27.87 26.1063 28.2684 26.1039L28.2562 24.104ZM28.1263 24.0713C28.083 24.0463 27.9326 23.9335 27.9326 23.4923H25.9326C25.9326 24.3985 26.2749 25.3127 27.1279 25.8042L28.1263 24.0713ZM27.9314 23.5404C27.956 23.0314 28.1018 22.5356 28.3566 22.0942L26.6247 21.094C26.2105 21.8111 25.9736 22.6169 25.9337 23.4441L27.9314 23.5404ZM28.3566 22.0942C28.6115 21.6529 28.9681 21.2788 29.3968 21.0032L28.315 19.321C27.6184 19.7689 27.0389 20.3768 26.6247 21.094L28.3566 22.0942ZM29.3478 21.0327C29.751 20.8049 29.9144 20.8842 29.951 20.9054L30.9545 19.1754C30.1007 18.6802 29.148 18.8485 28.364 19.2914L29.3478 21.0327ZM29.951 20.9054C29.9962 20.9316 30.1473 21.0482 30.1473 21.4858H32.1473C32.1473 20.5759 31.7997 19.6656 30.9545 19.1754L29.951 20.9054ZM30.1484 21.4392C30.1246 21.9479 29.9795 22.4435 29.7252 22.8846L31.4577 23.8837C31.8715 23.1661 32.1076 22.3599 32.1462 21.5324L30.1484 21.4392ZM29.7252 22.8846C29.4708 23.3257 29.1146 23.6995 28.6862 23.9748L29.7676 25.6572C30.4644 25.2094 31.0439 24.6012 31.4577 23.8837L29.7252 22.8846ZM28.7057 23.9626C28.5622 24.0502 28.3985 24.0991 28.2305 24.1044L28.2941 26.1034C28.8082 26.0871 29.3092 25.9375 29.7482 25.6694L28.7057 23.9626ZM29.7713 19.6201C29.385 19.6368 29.01 19.755 28.6839 19.9626L29.7581 21.6497C29.788 21.6306 29.8224 21.6198 29.8579 21.6182L29.7713 19.6201ZM28.6681 19.9729C28.091 20.3558 27.6104 20.8671 27.2639 21.4667L28.9955 22.4675C29.1876 22.1351 29.454 21.8517 29.7739 21.6394L28.6681 19.9729ZM27.2639 21.4667C26.9173 22.0664 26.7143 22.7381 26.6707 23.4292L28.6667 23.5553C28.6909 23.1722 28.8034 22.7998 28.9955 22.4675L27.2639 21.4667ZM26.7089 23.2117C26.6015 23.579 26.6209 23.9717 26.764 24.3266L28.6189 23.5788C28.6438 23.6405 28.6472 23.7089 28.6285 23.7729L26.7089 23.2117ZM26.764 24.3266C26.907 24.6814 27.1654 24.9778 27.4975 25.168L28.4912 23.4323C28.549 23.4654 28.594 23.517 28.6189 23.5788L26.764 24.3266ZM27.4975 25.168C27.8296 25.3581 28.216 25.4309 28.5945 25.3745L28.3002 23.3963C28.3661 23.3865 28.4334 23.3992 28.4912 23.4323L27.4975 25.168ZM28.5945 25.3745C28.973 25.3182 29.3215 25.1361 29.5838 24.8576L28.128 23.4863C28.1736 23.4378 28.2343 23.4061 28.3002 23.3963L28.5945 25.3745ZM29.4084 25.0055C29.9832 24.6245 30.4623 24.1159 30.8083 23.5194L29.0782 22.5159C28.8867 22.8461 28.6216 23.1276 28.3035 23.3384L29.4084 25.0055ZM30.8083 23.5194C31.1543 22.9228 31.3578 22.2545 31.4031 21.5663L29.4074 21.4351C29.3824 21.8159 29.2697 22.1858 29.0782 22.5159L30.8083 23.5194ZM31.3977 21.6234C31.4371 21.3048 31.3947 20.9814 31.2745 20.6838L29.4199 21.4325C29.413 21.4152 29.4105 21.3965 29.4128 21.378L31.3977 21.6234ZM31.2745 20.6838C31.1543 20.3861 30.9604 20.1239 30.7108 19.922L29.4526 21.4766C29.4382 21.4649 29.4269 21.4497 29.4199 21.4325L31.2745 20.6838ZM30.617 19.8546C30.3821 19.7057 30.1107 19.6243 29.8327 19.6193L29.7965 21.619C29.7079 21.6174 29.6213 21.5914 29.5464 21.544L30.617 19.8546Z" fill="#121728" mask="url(#path-69-inside-1)"/>
<path d="M22.2399 26.4544C21.9277 26.4557 21.6206 26.3748 21.3495 26.22C20.7113 25.8519 20.3581 25.104 20.3581 24.1186C20.3581 22.219 21.6463 19.984 23.2906 19.0313L26.3626 17.2504C27.0367 16.809 27.5978 16.2153 28.0004 15.5172C28.4031 14.8192 28.6361 14.0363 28.6806 13.2316C28.6806 12.5994 28.4877 12.1364 28.1345 11.9316C27.7813 11.7268 27.2827 11.7921 26.7336 12.1067L22.6495 14.4634C22.6082 14.4937 22.5611 14.5151 22.5111 14.5263C22.4612 14.5375 22.4094 14.5382 22.3591 14.5285C22.3089 14.5187 22.2612 14.4986 22.2191 14.4695C22.1769 14.4404 22.1413 14.4029 22.1144 14.3593C22.0875 14.3157 22.0698 14.2671 22.0627 14.2164C22.0555 14.1657 22.0588 14.114 22.0726 14.0647C22.0863 14.0154 22.1101 13.9694 22.1425 13.9298C22.1749 13.8901 22.2151 13.8575 22.2607 13.8342L26.3507 11.4923C27.1402 11.0382 27.9 10.9759 28.4936 11.3172C29.0873 11.6586 29.4108 12.3501 29.4108 13.2584C29.4108 14.9976 28.2235 17.0456 26.7217 17.9182L23.6527 19.6991C22.2399 20.5153 21.0883 22.5099 21.0883 24.1512C21.0883 24.8606 21.3079 25.38 21.7086 25.6115C22.1093 25.843 22.6673 25.7718 23.2817 25.4186L27.1194 23.2044C27.2039 23.1619 27.3015 23.1534 27.3921 23.1805C27.4828 23.2076 27.5596 23.2682 27.607 23.3501C27.6544 23.432 27.6687 23.5289 27.6471 23.621C27.6254 23.713 27.5694 23.7934 27.4904 23.8455L23.6527 26.0359C23.2259 26.2954 22.7391 26.4396 22.2399 26.4544Z" fill="#121728"/>
<path d="M5.71075 33.2424C5.64588 33.2432 5.58209 33.2257 5.52673 33.1919C5.46918 33.1587 5.42169 33.1105 5.38929 33.0525C5.35689 32.9945 5.34079 32.9288 5.34271 32.8624V22.8897C5.343 22.8245 5.36042 22.7606 5.39325 22.7043C5.42607 22.6481 5.47314 22.6014 5.5297 22.5691L14.1639 17.5857C14.2202 17.5536 14.2839 17.5367 14.3488 17.5369C14.4136 17.537 14.4773 17.5542 14.5334 17.5866C14.5896 17.619 14.6363 17.6656 14.6688 17.7217C14.7013 17.7778 14.7186 17.8414 14.7189 17.9063V27.8761C14.7185 27.9412 14.7014 28.0052 14.6692 28.0619C14.637 28.1186 14.5907 28.166 14.5349 28.1996L5.90071 33.183C5.84439 33.2206 5.77845 33.2412 5.71075 33.2424ZM6.08176 23.1123V32.2302L13.9739 27.6713V18.5593L6.08176 23.1123Z" fill="#121728"/>
<path d="M5.71065 33.2423C5.64578 33.2432 5.58199 33.2257 5.52663 33.1919C5.48438 33.1679 5.44731 33.1357 5.41755 33.0973C5.38778 33.0589 5.36592 33.015 5.35323 32.968C5.34053 32.9211 5.33726 32.8722 5.34359 32.824C5.34992 32.7758 5.36573 32.7293 5.3901 32.6873L14.0243 17.7252C14.0486 17.6829 14.0811 17.6458 14.1198 17.6161C14.1584 17.5863 14.2026 17.5645 14.2497 17.5518C14.2969 17.5391 14.346 17.5359 14.3944 17.5422C14.4428 17.5485 14.4895 17.5643 14.5318 17.5887C14.5741 17.613 14.6112 17.6455 14.6409 17.6842C14.6707 17.7229 14.6925 17.767 14.7052 17.8142C14.7179 17.8613 14.7211 17.9105 14.7148 17.9589C14.7085 18.0072 14.6927 18.0539 14.6683 18.0962L6.03121 33.0524C5.99951 33.1097 5.95309 33.1575 5.89674 33.1909C5.84039 33.2243 5.77615 33.2421 5.71065 33.2423Z" fill="#121728"/>
<path d="M14.3447 28.256C14.2803 28.2564 14.2169 28.24 14.1607 28.2085L5.52655 23.2191C5.48401 23.1954 5.44665 23.1634 5.41666 23.125C5.38667 23.0867 5.36466 23.0427 5.35194 22.9956C5.33921 22.9486 5.33603 22.8995 5.34257 22.8513C5.34911 22.803 5.36525 22.7565 5.39003 22.7146C5.41433 22.6722 5.44675 22.6351 5.48543 22.6053C5.52412 22.5755 5.5683 22.5536 5.61545 22.5409C5.6626 22.5283 5.71179 22.525 5.7602 22.5314C5.80861 22.5377 5.8553 22.5536 5.89756 22.578L14.5436 27.5644C14.6141 27.6055 14.669 27.6686 14.7 27.7441C14.731 27.8195 14.7362 27.9031 14.7149 27.9818C14.6936 28.0605 14.647 28.1301 14.5822 28.1796C14.5175 28.2292 14.4382 28.256 14.3566 28.256H14.3447Z" fill="#121728"/>
<path d="M6.00755 38.5286C5.92625 38.5279 5.8474 38.5007 5.78312 38.4509C5.71884 38.4011 5.6727 38.3315 5.65179 38.253C5.63088 38.1744 5.63636 38.0911 5.6674 38.016C5.69843 37.9408 5.75328 37.8779 5.82353 37.837L13.8641 33.1919C13.9495 33.1427 14.0509 33.1295 14.1461 33.1551C14.1933 33.1678 14.2374 33.1896 14.2761 33.2194C14.3148 33.2491 14.3473 33.2862 14.3716 33.3285C14.396 33.3708 14.4118 33.4174 14.4181 33.4658C14.4244 33.5142 14.4211 33.5634 14.4085 33.6105C14.3958 33.6577 14.3739 33.7018 14.3442 33.7405C14.3144 33.7792 14.2774 33.8117 14.2351 33.836L6.19455 38.4781C6.13795 38.5116 6.07331 38.529 6.00755 38.5286Z" fill="#121728"/>
<path d="M6.00755 41.3186C5.92625 41.318 5.8474 41.2907 5.78312 41.2409C5.71884 41.1911 5.6727 41.1216 5.65179 41.043C5.63088 40.9644 5.63636 40.8811 5.6674 40.806C5.69843 40.7308 5.75328 40.6679 5.82353 40.627L13.8641 35.982C13.9486 35.9395 14.0462 35.931 14.1368 35.958C14.2274 35.9851 14.3043 36.0458 14.3517 36.1277C14.3991 36.2096 14.4134 36.3064 14.3917 36.3985C14.37 36.4906 14.314 36.5709 14.2351 36.6231L6.19455 41.2681C6.13795 41.3016 6.07331 41.319 6.00755 41.3186Z" fill="#121728"/>
</svg>
