<svg width="34" height="62" viewBox="0 0 34 62" fill="none" xmlns="http://www.w3.org/2000/svg">
<path d="M33.1621 40.3993V43.3877C33.1046 40.1266 31.6178 36.8719 28.7066 33.964C27.1227 32.4156 25.3437 31.0801 23.4147 29.9914C21.2499 28.757 18.9676 27.7411 16.6016 26.9586C16.5059 26.62 16.3726 26.2932 16.204 25.9844L15.8951 23.8634C15.8951 23.8174 15.8803 23.7746 15.8705 23.7319C18.4969 24.5471 21.0274 25.6438 23.418 27.003C29.8287 30.7061 33.0751 35.5445 33.1621 40.3993Z" fill="#121728"/>
<path d="M15.3465 22.8019C15.0498 22.9309 14.7792 23.1129 14.548 23.3392C13.6149 23.0741 12.6658 22.8364 11.7009 22.6262C11.7351 22.4875 11.802 22.359 11.896 22.2516C11.9901 22.1441 12.1085 22.0607 12.2414 22.0084C12.5534 21.8925 12.8205 21.6804 13.0041 21.4029C13.1878 21.1253 13.2786 20.7966 13.2633 20.4641C13.2505 19.8553 13.0426 19.2667 12.6702 18.785C12.9035 18.4823 13.0683 18.1325 13.1532 17.7598C13.1532 17.7598 11.903 16.7938 10.3077 17.8141L10.2453 17.8551C9.29565 18.5123 9.19707 20.7499 9.23486 22.1497C6.25316 21.6526 3.23645 21.3949 0.213627 21.3792V0.205322C8.62205 0.25461 17.0009 2.12917 23.4165 5.8323C25.3455 6.921 27.1244 8.25643 28.7083 9.80486C31.6195 12.7128 33.1064 15.9658 33.1639 19.2286V40.3992C33.0768 35.5444 29.8304 30.706 23.4165 27.0029C21.0259 25.6437 18.4953 24.547 15.8689 23.7318C15.8122 23.4797 15.7 23.2434 15.5404 23.0402L15.3465 22.8019ZM18.5354 16.8776V9.38427C18.2121 9.68312 17.7909 9.85371 17.3508 9.86401C16.3947 9.86401 15.5256 9.02941 14.3837 9.02941C12.1905 9.02941 11.783 11.9867 9.87231 11.9867C8.88656 11.9867 8.32304 10.8366 7.33565 10.8366C6.21519 10.8366 5.50216 12.5124 4.90414 13.301C4.85978 13.4439 4.8105 13.5836 4.76121 13.7265C9.6538 14.014 14.4412 15.0605 18.5354 16.8743V16.8776Z" fill="white"/>
<path d="M8.45593 8.67297C8.47868 8.67297 8.50091 8.67972 8.51982 8.69236C8.53874 8.70499 8.55348 8.72295 8.56218 8.74397C8.57088 8.76498 8.57316 8.78811 8.56872 8.81042C8.56429 8.83272 8.55333 8.85321 8.53725 8.8693C8.52117 8.88538 8.50067 8.89633 8.47836 8.90077C8.45606 8.90521 8.43294 8.90293 8.41192 8.89423C8.39091 8.88552 8.37295 8.87078 8.36031 8.85187C8.34767 8.83296 8.34093 8.81073 8.34093 8.78798C8.34093 8.75748 8.35304 8.72822 8.37461 8.70666C8.39618 8.68509 8.42543 8.67297 8.45593 8.67297Z" fill="#121728"/>
<path d="M0.969378 2.50378C1.01877 2.50378 1.06705 2.51843 1.10811 2.54587C1.14918 2.57331 1.18119 2.61231 1.20009 2.65794C1.21899 2.70357 1.22394 2.75378 1.2143 2.80222C1.20467 2.85067 1.18088 2.89516 1.14596 2.93009C1.11103 2.96501 1.06654 2.98879 1.0181 2.99843C0.969655 3.00806 0.919441 3.00312 0.873811 2.98422C0.82818 2.96532 0.789178 2.93331 0.761738 2.89224C0.734298 2.85117 0.719652 2.8029 0.719652 2.75351C0.719652 2.68727 0.745966 2.62376 0.792798 2.57693C0.83963 2.53009 0.903148 2.50378 0.969378 2.50378Z" fill="#121728"/>
<path d="M7.99432 18.4532C8.02569 18.4532 8.05578 18.4657 8.07797 18.4879C8.10015 18.5101 8.11261 18.5402 8.11261 18.5715C8.11261 18.6029 8.10015 18.633 8.07797 18.6552C8.05578 18.6774 8.02569 18.6898 7.99432 18.6898C7.96295 18.6898 7.93287 18.6774 7.91068 18.6552C7.8885 18.633 7.87604 18.6029 7.87604 18.5715C7.87604 18.5402 7.8885 18.5101 7.91068 18.4879C7.93287 18.4657 7.96295 18.4532 7.99432 18.4532Z" fill="#121728"/>
<path d="M1.117 6.8016C1.25219 6.8016 1.36179 6.692 1.36179 6.5568C1.36179 6.42161 1.25219 6.31201 1.117 6.31201C0.981802 6.31201 0.872206 6.42161 0.872206 6.5568C0.872206 6.692 0.981802 6.8016 1.117 6.8016Z" fill="#121728"/>
<path d="M8.43467 19.9368C8.45658 19.9365 8.47808 19.9427 8.49643 19.9546C8.51479 19.9666 8.52915 19.9838 8.53768 20.004C8.54622 20.0241 8.54853 20.0464 8.54434 20.0679C8.54014 20.0894 8.52963 20.1092 8.51413 20.1247C8.49864 20.1402 8.47888 20.1507 8.45737 20.1549C8.43587 20.1591 8.4136 20.1568 8.39342 20.1482C8.37324 20.1397 8.35607 20.1253 8.3441 20.107C8.33213 20.0886 8.32591 20.0671 8.32624 20.0452C8.32666 20.0166 8.33822 19.9893 8.35847 19.969C8.37871 19.9488 8.40604 19.9372 8.43467 19.9368Z" fill="#121728"/>
<path d="M9.04413 16.5409C9.0726 16.5413 9.09976 16.5529 9.11974 16.5732C9.13972 16.5935 9.15092 16.6208 9.15092 16.6493C9.14767 16.6756 9.13493 16.6997 9.11511 16.7172C9.09529 16.7348 9.06976 16.7444 9.04331 16.7444C9.01686 16.7444 8.99132 16.7348 8.9715 16.7172C8.95168 16.6997 8.93895 16.6756 8.9357 16.6493C8.9357 16.6351 8.9385 16.621 8.94395 16.6078C8.9494 16.5947 8.95738 16.5827 8.96745 16.5727C8.97752 16.5626 8.98948 16.5546 9.00263 16.5491C9.01579 16.5437 9.02989 16.5409 9.04413 16.5409Z" fill="#121728"/>
<path d="M5.11436 19.6427C5.14685 19.6427 5.17862 19.6523 5.20563 19.6704C5.23265 19.6884 5.25371 19.7141 5.26614 19.7441C5.27858 19.7741 5.28183 19.8072 5.27549 19.839C5.26916 19.8709 5.25351 19.9002 5.23053 19.9232C5.20755 19.9461 5.17828 19.9618 5.14641 19.9681C5.11454 19.9745 5.08151 19.9712 5.05149 19.9588C5.02147 19.9463 4.99581 19.9253 4.97776 19.8983C4.9597 19.8712 4.95007 19.8395 4.95007 19.807C4.95007 19.7634 4.96738 19.7216 4.99819 19.6908C5.029 19.66 5.07078 19.6427 5.11436 19.6427Z" fill="#121728"/>
<path d="M6.29898 14.4543C6.37792 14.4543 6.44192 14.3903 6.44192 14.3114C6.44192 14.2324 6.37792 14.1685 6.29898 14.1685C6.22004 14.1685 6.15605 14.2324 6.15605 14.3114C6.15605 14.3903 6.22004 14.4543 6.29898 14.4543Z" fill="#121728"/>
<path d="M7.45384 7.375C7.48869 7.375 7.52212 7.38885 7.54677 7.4135C7.57142 7.43814 7.58527 7.47157 7.58527 7.50643C7.58527 7.54129 7.57142 7.57472 7.54677 7.59937C7.52212 7.62402 7.48869 7.63787 7.45384 7.63787C7.41898 7.63787 7.38554 7.62402 7.36089 7.59937C7.33625 7.57472 7.3224 7.54129 7.3224 7.50643C7.3224 7.47157 7.33625 7.43814 7.36089 7.4135C7.38554 7.38885 7.41898 7.375 7.45384 7.375Z" fill="#121728"/>
<path d="M8.07323 3.46155C8.10722 3.46155 8.13981 3.47505 8.16384 3.49908C8.18788 3.52311 8.20138 3.55571 8.20138 3.58969C8.20138 3.62368 8.18788 3.65628 8.16384 3.68031C8.13981 3.70434 8.10722 3.71784 8.07323 3.71784C8.03924 3.71784 8.00665 3.70434 7.98262 3.68031C7.95858 3.65628 7.94508 3.62368 7.94508 3.58969C7.94508 3.55571 7.95858 3.52311 7.98262 3.49908C8.00665 3.47505 8.03924 3.46155 8.07323 3.46155Z" fill="#121728"/>
<path d="M4.79554 14.5612C4.82803 14.5612 4.85979 14.5708 4.88681 14.5888C4.91383 14.6069 4.93488 14.6326 4.94732 14.6626C4.95975 14.6926 4.96301 14.7256 4.95667 14.7575C4.95033 14.7894 4.93468 14.8186 4.91171 14.8416C4.88873 14.8646 4.85946 14.8802 4.82759 14.8866C4.79572 14.8929 4.76269 14.8897 4.73267 14.8772C4.70264 14.8648 4.67699 14.8437 4.65893 14.8167C4.64088 14.7897 4.63125 14.7579 4.63125 14.7254C4.63125 14.6819 4.64855 14.6401 4.67936 14.6093C4.71017 14.5785 4.75197 14.5612 4.79554 14.5612Z" fill="#121728"/>
<path d="M15.8541 22.5408C15.8593 22.5408 15.8644 22.5418 15.8692 22.5438C15.8739 22.5458 15.8783 22.5487 15.882 22.5523C15.8856 22.556 15.8885 22.5603 15.8905 22.5651C15.8925 22.5699 15.8935 22.575 15.8935 22.5802C15.8935 22.5907 15.8893 22.6007 15.882 22.6081C15.8746 22.6155 15.8645 22.6196 15.8541 22.6196C15.8436 22.6196 15.8336 22.6155 15.8262 22.6081C15.8188 22.6007 15.8146 22.5907 15.8146 22.5802C15.8146 22.575 15.8157 22.5699 15.8176 22.5651C15.8196 22.5603 15.8225 22.556 15.8262 22.5523C15.8299 22.5487 15.8342 22.5458 15.839 22.5438C15.8438 22.5418 15.8489 22.5408 15.8541 22.5408Z" fill="#121728"/>
<path d="M0.773807 19.3765C0.906281 19.3765 1.01367 19.2691 1.01367 19.1366C1.01367 19.0041 0.906281 18.8967 0.773807 18.8967C0.641333 18.8967 0.533943 19.0041 0.533943 19.1366C0.533943 19.2691 0.641333 19.3765 0.773807 19.3765Z" fill="#121728"/>
<path d="M18.9607 23.2736C18.9648 23.2735 18.9687 23.275 18.9718 23.2778C18.9748 23.2805 18.9767 23.2843 18.9771 23.2883C18.9771 23.2927 18.9754 23.2969 18.9723 23.3C18.9692 23.303 18.965 23.3048 18.9607 23.3048C18.9563 23.3048 18.9522 23.303 18.9491 23.3C18.946 23.2969 18.9443 23.2927 18.9443 23.2883C18.9447 23.2843 18.9466 23.2805 18.9496 23.2778C18.9527 23.275 18.9566 23.2735 18.9607 23.2736Z" fill="#121728"/>
<path d="M4.09561 11.3016C4.13207 11.3016 4.16771 11.3125 4.198 11.3328C4.2283 11.3531 4.25188 11.3819 4.26576 11.4156C4.27964 11.4493 4.28318 11.4864 4.27595 11.5222C4.26871 11.5579 4.25103 11.5907 4.22513 11.6163C4.19923 11.642 4.16629 11.6594 4.13049 11.6663C4.09469 11.6732 4.05764 11.6694 4.02405 11.6552C3.99045 11.641 3.96183 11.6172 3.94181 11.5867C3.92179 11.5562 3.91128 11.5205 3.9116 11.484C3.9116 11.4599 3.91637 11.4361 3.92564 11.4138C3.9349 11.3916 3.94849 11.3714 3.9656 11.3545C3.9827 11.3375 4.003 11.3241 4.02531 11.315C4.04763 11.306 4.07152 11.3014 4.09561 11.3016Z" fill="#121728"/>
<path d="M1.87622 11.9867C1.99871 11.9867 2.09802 11.8874 2.09802 11.7649C2.09802 11.6424 1.99871 11.5431 1.87622 11.5431C1.75373 11.5431 1.65443 11.6424 1.65443 11.7649C1.65443 11.8874 1.75373 11.9867 1.87622 11.9867Z" fill="#121728"/>
<path d="M13.5408 18.4401C13.5735 18.4401 13.6 18.4136 13.6 18.3809C13.6 18.3483 13.5735 18.3218 13.5408 18.3218C13.5082 18.3218 13.4817 18.3483 13.4817 18.3809C13.4817 18.4136 13.5082 18.4401 13.5408 18.4401Z" fill="#121728"/>
<path d="M5.84536 15.9017C5.87467 15.9014 5.90342 15.9098 5.92795 15.9259C5.95248 15.9419 5.97169 15.9649 5.98313 15.9919C5.99457 16.0189 5.99774 16.0486 5.99222 16.0774C5.9867 16.1062 5.97275 16.1327 5.95214 16.1536C5.93152 16.1744 5.90518 16.1887 5.87646 16.1945C5.84773 16.2003 5.81792 16.1975 5.7908 16.1864C5.76369 16.1752 5.7405 16.1563 5.72417 16.1319C5.70785 16.1076 5.69914 16.0789 5.69914 16.0496C5.69892 16.0303 5.70254 16.0111 5.70979 15.9931C5.71705 15.9752 5.72778 15.9589 5.74138 15.9451C5.75498 15.9314 5.77117 15.9205 5.78902 15.913C5.80687 15.9056 5.82602 15.9017 5.84536 15.9017Z" fill="#121728"/>
<path d="M5.19487 2.19495C5.22737 2.19495 5.25913 2.20458 5.28615 2.22263C5.31317 2.24068 5.33422 2.26634 5.34666 2.29636C5.35909 2.32639 5.36235 2.35942 5.35601 2.39129C5.34967 2.42315 5.33402 2.45243 5.31104 2.47541C5.28807 2.49838 5.25879 2.51403 5.22692 2.52037C5.19505 2.52671 5.16202 2.52345 5.132 2.51102C5.10198 2.49858 5.07632 2.47753 5.05827 2.45051C5.04022 2.4235 5.03058 2.39173 5.03058 2.35924C5.03058 2.31566 5.04789 2.27387 5.0787 2.24306C5.10951 2.21225 5.1513 2.19495 5.19487 2.19495Z" fill="#121728"/>
<path d="M12.5848 15.5009C12.5989 15.5005 12.6128 15.5045 12.6246 15.5121C12.6365 15.5197 12.6458 15.5307 12.6514 15.5437C12.6569 15.5567 12.6584 15.571 12.6558 15.5849C12.6531 15.5987 12.6463 15.6115 12.6364 15.6215C12.6264 15.6314 12.6136 15.6382 12.5998 15.6409C12.5859 15.6435 12.5716 15.642 12.5586 15.6365C12.5456 15.6309 12.5346 15.6216 12.527 15.6097C12.5194 15.5979 12.5155 15.584 12.5158 15.5699C12.5158 15.5516 12.523 15.534 12.536 15.5211C12.5489 15.5081 12.5665 15.5009 12.5848 15.5009Z" fill="#121728"/>
<path d="M14.3606 20.4231C14.3703 20.4231 14.3799 20.426 14.388 20.4314C14.3961 20.4368 14.4024 20.4445 14.4061 20.4536C14.4099 20.4626 14.4108 20.4725 14.4089 20.482C14.407 20.4916 14.4023 20.5004 14.3954 20.5073C14.3885 20.5142 14.3798 20.5189 14.3702 20.5208C14.3606 20.5227 14.3507 20.5217 14.3417 20.518C14.3327 20.5142 14.325 20.5079 14.3196 20.4998C14.3142 20.4917 14.3113 20.4822 14.3113 20.4724C14.3111 20.4659 14.3122 20.4594 14.3146 20.4533C14.317 20.4472 14.3206 20.4417 14.3252 20.4371C14.3299 20.4324 14.3354 20.4288 14.3415 20.4264C14.3475 20.424 14.3541 20.4229 14.3606 20.4231Z" fill="#121728"/>
<path d="M13.1138 22.3798C13.1465 22.3798 13.173 22.3533 13.173 22.3206C13.173 22.288 13.1465 22.2615 13.1138 22.2615C13.0812 22.2615 13.0547 22.288 13.0547 22.3206C13.0547 22.3533 13.0812 22.3798 13.1138 22.3798Z" fill="#121728"/>
<path d="M0.686587 1.4917C0.829949 1.4917 0.946165 1.37547 0.946165 1.23211C0.946165 1.08875 0.829949 0.972534 0.686587 0.972534C0.543225 0.972534 0.427004 1.08875 0.427004 1.23211C0.427004 1.37547 0.543225 1.4917 0.686587 1.4917Z" fill="#121728"/>
<path d="M2.1702 1.89917C2.21537 1.89917 2.25952 1.91257 2.29708 1.93766C2.33463 1.96275 2.3639 1.99842 2.38118 2.04015C2.39847 2.08188 2.40299 2.12779 2.39418 2.17209C2.38537 2.21639 2.36362 2.25708 2.33168 2.28902C2.29975 2.32095 2.25906 2.3427 2.21476 2.35151C2.17046 2.36032 2.12454 2.3558 2.08281 2.33852C2.04109 2.32123 2.00542 2.29197 1.98033 2.25441C1.95523 2.21686 1.94184 2.1727 1.94184 2.12754C1.94184 2.06697 1.9659 2.00889 2.00873 1.96606C2.05155 1.92323 2.10964 1.89917 2.1702 1.89917Z" fill="#121728"/>
<path d="M0.84294 3.74427C0.893306 3.74427 0.942542 3.7592 0.984419 3.78719C1.0263 3.81517 1.05894 3.85494 1.07821 3.90147C1.09749 3.948 1.10253 3.9992 1.0927 4.0486C1.08288 4.098 1.05862 4.14337 1.02301 4.17899C0.987396 4.2146 0.942019 4.23885 0.892622 4.24868C0.843224 4.2585 0.792024 4.25346 0.745493 4.23419C0.698961 4.21491 0.65919 4.18227 0.631209 4.1404C0.603227 4.09852 0.588291 4.04928 0.588291 3.99892C0.588073 3.96542 0.594513 3.9322 0.607233 3.90121C0.619953 3.87021 0.638699 3.84206 0.662389 3.81837C0.68608 3.79468 0.714238 3.77593 0.745232 3.76321C0.776226 3.75049 0.809438 3.74405 0.84294 3.74427Z" fill="#121728"/>
<path d="M2.78313 3.33351C2.9029 3.33351 2.99999 3.23642 2.99999 3.11665C2.99999 2.99688 2.9029 2.89978 2.78313 2.89978C2.66336 2.89978 2.56627 2.99688 2.56627 3.11665C2.56627 3.23642 2.66336 3.33351 2.78313 3.33351Z" fill="#121728"/>
<path d="M16.784 3.90687C16.8048 3.90687 16.8217 3.88996 16.8217 3.86909C16.8217 3.84822 16.8048 3.8313 16.784 3.8313C16.7631 3.8313 16.7462 3.84822 16.7462 3.86909C16.7462 3.88996 16.7631 3.90687 16.784 3.90687Z" fill="#121728"/>
<path d="M7.23701 5.41834C7.26405 5.41802 7.29057 5.42574 7.31321 5.44052C7.33585 5.4553 7.35359 5.47649 7.36416 5.50137C7.37473 5.52626 7.37767 5.55373 7.37259 5.58029C7.36752 5.60685 7.35466 5.6313 7.33566 5.65053C7.31665 5.66977 7.29236 5.68292 7.26587 5.68832C7.23937 5.69371 7.21187 5.69111 7.18686 5.68084C7.16185 5.67057 7.14045 5.65309 7.12539 5.63063C7.11034 5.60817 7.10229 5.58174 7.10229 5.5547C7.10229 5.51882 7.11643 5.48439 7.14165 5.45886C7.16687 5.43334 7.20113 5.41878 7.23701 5.41834Z" fill="#121728"/>
<path d="M4.85305 0.680176C4.88814 0.680176 4.92245 0.690581 4.95163 0.710078C4.98081 0.729575 5.00355 0.757285 5.01698 0.789707C5.03041 0.822129 5.03392 0.857804 5.02708 0.892223C5.02023 0.926642 5.00333 0.958258 4.97851 0.983073C4.9537 1.00789 4.92208 1.02479 4.88766 1.03164C4.85325 1.03848 4.81757 1.03497 4.78515 1.02154C4.75273 1.00811 4.72502 0.985368 4.70552 0.956189C4.68602 0.92701 4.67562 0.892701 4.67562 0.857608C4.67562 0.81055 4.69431 0.765419 4.72758 0.732144C4.76086 0.698868 4.80599 0.680176 4.85305 0.680176Z" fill="#121728"/>
<path d="M4.65096 18.1476C4.68345 18.1476 4.71522 18.1572 4.74223 18.1753C4.76925 18.1933 4.79031 18.219 4.80274 18.249C4.81518 18.279 4.81843 18.3121 4.81209 18.3439C4.80575 18.3758 4.7901 18.4051 4.76713 18.428C4.74415 18.451 4.71488 18.4667 4.68301 18.473C4.65114 18.4793 4.61811 18.4761 4.58809 18.4637C4.55807 18.4512 4.53241 18.4302 4.51435 18.4031C4.4963 18.3761 4.48667 18.3444 4.48667 18.3119C4.48667 18.2683 4.50397 18.2265 4.53478 18.1957C4.5656 18.1649 4.60739 18.1476 4.65096 18.1476Z" fill="#121728"/>
<path d="M2.57106 6.48792C2.61298 6.48792 2.65395 6.50035 2.6888 6.52363C2.72365 6.54692 2.75082 6.58002 2.76686 6.61874C2.7829 6.65747 2.7871 6.70008 2.77892 6.7412C2.77074 6.78231 2.75056 6.82007 2.72092 6.84971C2.69128 6.87935 2.65351 6.89954 2.6124 6.90771C2.57129 6.91589 2.52868 6.91169 2.48995 6.89565C2.45122 6.87961 2.41813 6.85245 2.39484 6.8176C2.37155 6.78274 2.35912 6.74176 2.35912 6.69985C2.35912 6.64364 2.38145 6.58973 2.4212 6.54999C2.46094 6.51024 2.51485 6.48792 2.57106 6.48792Z" fill="#121728"/>
<path d="M6.95119 2.47911C7.02922 2.47911 7.09248 2.41586 7.09248 2.33783C7.09248 2.25979 7.02922 2.19653 6.95119 2.19653C6.87316 2.19653 6.80989 2.25979 6.80989 2.33783C6.80989 2.41586 6.87316 2.47911 6.95119 2.47911Z" fill="#121728"/>
<path d="M11.9407 4.38818C11.9851 4.38818 12.0212 4.35213 12.0212 4.30767C12.0212 4.26321 11.9851 4.22717 11.9407 4.22717C11.8962 4.22717 11.8602 4.26321 11.8602 4.30767C11.8602 4.35213 11.8962 4.38818 11.9407 4.38818Z" fill="#121728"/>
<path d="M14.4527 8.07654C14.4598 8.07653 14.4667 8.07795 14.4732 8.08069C14.4797 8.08343 14.4856 8.08745 14.4905 8.09251C14.4954 8.09757 14.4992 8.10356 14.5018 8.11013C14.5043 8.1167 14.5055 8.12372 14.5053 8.13076C14.5031 8.14331 14.4965 8.15468 14.4868 8.16288C14.477 8.17108 14.4647 8.17557 14.4519 8.17557C14.4392 8.17557 14.4268 8.17108 14.4171 8.16288C14.4073 8.15468 14.4007 8.14331 14.3985 8.13076C14.3985 8.11638 14.4042 8.10258 14.4144 8.09242C14.4246 8.08225 14.4384 8.07654 14.4527 8.07654Z" fill="#121728"/>
<path d="M3.17402 16.8431C3.21164 16.8435 3.24833 16.8549 3.27945 16.8761C3.31058 16.8972 3.33475 16.9271 3.34892 16.9619C3.36309 16.9968 3.36664 17.035 3.3591 17.0719C3.35156 17.1088 3.33328 17.1426 3.30656 17.1691C3.27985 17.1955 3.24589 17.2135 3.20896 17.2207C3.17204 17.228 3.13381 17.2241 3.09908 17.2096C3.06435 17.1952 3.03468 17.1707 3.01381 17.1394C2.99294 17.1081 2.98181 17.0713 2.98181 17.0337C2.9818 17.0086 2.98679 16.9836 2.99647 16.9604C3.00615 16.9372 3.02033 16.9161 3.03821 16.8984C3.05608 16.8807 3.07728 16.8667 3.10059 16.8572C3.1239 16.8477 3.14886 16.8429 3.17402 16.8431Z" fill="#121728"/>
<path d="M6.02135 17.709C6.04987 17.7093 6.07766 17.7181 6.10122 17.7342C6.12478 17.7503 6.14305 17.773 6.15374 17.7994C6.16443 17.8258 6.16706 17.8549 6.1613 17.8828C6.15554 17.9107 6.14164 17.9363 6.12136 17.9564C6.10108 17.9765 6.07531 17.9901 6.04731 17.9955C6.01931 18.001 5.99033 17.998 5.96401 17.987C5.93768 17.976 5.9152 17.9575 5.89938 17.9337C5.88357 17.91 5.87513 17.8821 5.87513 17.8536C5.8749 17.8344 5.87854 17.8154 5.88583 17.7976C5.89312 17.7799 5.90391 17.7638 5.91755 17.7503C5.9312 17.7368 5.94742 17.7262 5.96526 17.7191C5.98309 17.712 6.00217 17.7086 6.02135 17.709Z" fill="#121728"/>
<path d="M1.97973 16.0217C2.02262 16.0217 2.06455 16.0344 2.10021 16.0583C2.13587 16.0821 2.16367 16.116 2.18008 16.1556C2.19649 16.1952 2.20079 16.2388 2.19242 16.2809C2.18406 16.323 2.1634 16.3616 2.13307 16.3919C2.10274 16.4223 2.0641 16.4429 2.02203 16.4513C1.97996 16.4597 1.93636 16.4554 1.89674 16.4389C1.85711 16.4225 1.82324 16.3947 1.79941 16.3591C1.77558 16.3234 1.76286 16.2815 1.76286 16.2386C1.76286 16.1811 1.78571 16.1259 1.82638 16.0852C1.86705 16.0446 1.92221 16.0217 1.97973 16.0217Z" fill="#121728"/>
<path d="M13.2927 2.47253C13.3107 2.47296 13.3278 2.48042 13.3404 2.49332C13.353 2.50621 13.3601 2.52351 13.3601 2.54153C13.3575 2.5578 13.3493 2.57262 13.3368 2.58333C13.3243 2.59404 13.3083 2.59992 13.2919 2.59992C13.2754 2.59992 13.2595 2.59404 13.247 2.58333C13.2345 2.57262 13.2262 2.5578 13.2237 2.54153C13.2237 2.52323 13.231 2.50569 13.2439 2.49274C13.2568 2.4798 13.2744 2.47253 13.2927 2.47253Z" fill="#121728"/>
<path d="M6.91998 9.16577C6.95629 9.1662 6.99097 9.18093 7.0165 9.20677C7.04203 9.2326 7.05634 9.26746 7.05634 9.30378C7.05634 9.33994 7.04197 9.37463 7.0164 9.4002C6.99083 9.42577 6.95614 9.44014 6.91998 9.44014C6.88366 9.44014 6.84881 9.42583 6.82297 9.4003C6.79714 9.37477 6.78241 9.34009 6.78197 9.30378C6.7824 9.26731 6.79708 9.23245 6.82287 9.20666C6.84866 9.18087 6.88351 9.1662 6.91998 9.16577Z" fill="#121728"/>
<path d="M0.791799 15.8279C0.926087 15.8279 1.03495 15.719 1.03495 15.5847C1.03495 15.4504 0.926087 15.3416 0.791799 15.3416C0.65751 15.3416 0.548651 15.4504 0.548651 15.5847C0.548651 15.719 0.65751 15.8279 0.791799 15.8279Z" fill="#121728"/>
<path d="M3.78693 1.79578C3.82593 1.79578 3.86404 1.80733 3.89647 1.829C3.92889 1.85066 3.95415 1.88145 3.96907 1.91748C3.984 1.9535 3.9879 1.99314 3.9803 2.03138C3.97269 2.06963 3.95391 2.10476 3.92634 2.13233C3.89877 2.1599 3.86364 2.17868 3.82539 2.18628C3.78715 2.19389 3.74751 2.18999 3.71149 2.17507C3.67546 2.16015 3.64467 2.13487 3.62301 2.10245C3.60135 2.07003 3.58978 2.03192 3.58978 1.99292C3.58978 1.94064 3.61055 1.89049 3.64753 1.85352C3.6845 1.81655 3.73465 1.79578 3.78693 1.79578Z" fill="#121728"/>
<path d="M0.829587 12.1805C0.878003 12.1805 0.92533 12.1949 0.965586 12.2218C1.00584 12.2487 1.03722 12.2869 1.05575 12.3317C1.07428 12.3764 1.07912 12.4256 1.06968 12.4731C1.06023 12.5206 1.03692 12.5642 1.00268 12.5984C0.968448 12.6327 0.924829 12.656 0.877344 12.6654C0.829858 12.6749 0.78064 12.67 0.73591 12.6515C0.69118 12.633 0.652947 12.6016 0.626048 12.5613C0.59915 12.5211 0.584795 12.4738 0.584795 12.4253C0.584795 12.3604 0.610584 12.2981 0.656492 12.2522C0.7024 12.2063 0.764664 12.1805 0.829587 12.1805Z" fill="#121728"/>
<path d="M9.59613 18.1689C9.65057 18.1689 9.6947 18.1248 9.6947 18.0704C9.6947 18.0159 9.65057 17.9718 9.59613 17.9718C9.54168 17.9718 9.49755 18.0159 9.49755 18.0704C9.49755 18.1248 9.54168 18.1689 9.59613 18.1689Z" fill="#121728"/>
<path d="M12.0129 9.42542C12.0282 9.42542 12.0431 9.42995 12.0558 9.43843C12.0685 9.44692 12.0784 9.45898 12.0843 9.47309C12.0901 9.4872 12.0916 9.50272 12.0886 9.5177C12.0857 9.53268 12.0783 9.54644 12.0675 9.55724C12.0567 9.56804 12.043 9.57539 12.028 9.57837C12.013 9.58134 11.9975 9.57982 11.9834 9.57397C11.9693 9.56813 11.9572 9.55823 11.9487 9.54553C11.9402 9.53284 11.9357 9.5179 11.9357 9.50263C11.9357 9.48215 11.9438 9.46251 11.9583 9.44803C11.9728 9.43355 11.9924 9.42542 12.0129 9.42542Z" fill="#121728"/>
<path d="M19.5145 9.09523C19.5245 9.09523 19.5325 9.08713 19.5325 9.07715C19.5325 9.06717 19.5245 9.05908 19.5145 9.05908C19.5045 9.05908 19.4964 9.06717 19.4964 9.07715C19.4964 9.08713 19.5045 9.09523 19.5145 9.09523Z" fill="#121728"/>
<path d="M3.60114 19.4834C3.70186 19.4834 3.78351 19.4017 3.78351 19.301C3.78351 19.2003 3.70186 19.1187 3.60114 19.1187C3.50043 19.1187 3.41878 19.2003 3.41878 19.301C3.41878 19.4017 3.50043 19.4834 3.60114 19.4834Z" fill="#121728"/>
<path d="M4.9107 7.1532C4.9432 7.1532 4.97496 7.16283 5.00198 7.18088C5.02899 7.19894 5.05005 7.2246 5.06249 7.25462C5.07492 7.28464 5.07817 7.31767 5.07183 7.34954C5.0655 7.38141 5.04985 7.41068 5.02688 7.43366C5.0039 7.45664 4.97462 7.47228 4.94275 7.47862C4.91089 7.48496 4.87785 7.48171 4.84783 7.46928C4.81781 7.45684 4.79215 7.43578 4.7741 7.40877C4.75605 7.38175 4.74641 7.34998 4.74641 7.31749C4.74641 7.27392 4.76372 7.23213 4.79453 7.20132C4.82534 7.17051 4.86713 7.1532 4.9107 7.1532Z" fill="#121728"/>
<path d="M1.00867 7.96153C1.14296 7.96153 1.25182 7.85266 1.25182 7.71837C1.25182 7.58408 1.14296 7.47522 1.00867 7.47522C0.874382 7.47522 0.765518 7.58408 0.765518 7.71837C0.765518 7.85266 0.874382 7.96153 1.00867 7.96153Z" fill="#121728"/>
<path d="M6.38438 3.41566C6.41506 3.41533 6.44514 3.42415 6.47079 3.441C6.49644 3.45784 6.51649 3.48194 6.52838 3.51023C6.54027 3.53851 6.54346 3.5697 6.53756 3.59981C6.53165 3.62992 6.51691 3.65759 6.49521 3.67928C6.47352 3.70098 6.44585 3.71572 6.41574 3.72163C6.38563 3.72753 6.35444 3.72434 6.32616 3.71245C6.29787 3.70056 6.27377 3.68051 6.25693 3.65486C6.24008 3.62921 6.23126 3.59913 6.23159 3.56845C6.23201 3.52806 6.24825 3.48944 6.27681 3.46088C6.30537 3.43232 6.34399 3.41609 6.38438 3.41566Z" fill="#121728"/>
<path d="M2.79113 18.353C2.90183 18.353 2.99157 18.2633 2.99157 18.1526C2.99157 18.0419 2.90183 17.9521 2.79113 17.9521C2.68043 17.9521 2.5907 18.0419 2.5907 18.1526C2.5907 18.2633 2.68043 18.353 2.79113 18.353Z" fill="#121728"/>
<path d="M11.4626 2.36093C11.5089 2.36093 11.5464 2.32342 11.5464 2.27715C11.5464 2.23087 11.5089 2.19336 11.4626 2.19336C11.4163 2.19336 11.3788 2.23087 11.3788 2.27715C11.3788 2.32342 11.4163 2.36093 11.4626 2.36093Z" fill="#121728"/>
<path d="M1.96483 20.6875C2.00674 20.6875 2.04772 20.6999 2.08257 20.7232C2.11742 20.7465 2.14459 20.7796 2.16063 20.8183C2.17667 20.8571 2.18087 20.8997 2.17269 20.9408C2.16451 20.9819 2.14433 21.0197 2.11469 21.0493C2.08505 21.0789 2.04728 21.0991 2.00617 21.1073C1.96506 21.1155 1.92245 21.1113 1.88372 21.0952C1.845 21.0792 1.8119 21.052 1.78861 21.0172C1.76532 20.9823 1.75289 20.9414 1.75289 20.8994C1.75289 20.8432 1.77522 20.7893 1.81497 20.7496C1.85471 20.7098 1.90862 20.6875 1.96483 20.6875Z" fill="#121728"/>
<path d="M6.60287 19.2599C6.62998 19.2596 6.65656 19.2673 6.67924 19.2822C6.70191 19.2971 6.71965 19.3183 6.73017 19.3433C6.74069 19.3683 6.74353 19.3958 6.73832 19.4224C6.73311 19.4491 6.72009 19.4735 6.70092 19.4927C6.68175 19.5118 6.6573 19.5249 6.6307 19.5301C6.6041 19.5353 6.57655 19.5324 6.55156 19.5219C6.52658 19.5114 6.5053 19.4937 6.49045 19.471C6.47559 19.4483 6.46782 19.4217 6.46815 19.3946C6.46815 19.3589 6.48234 19.3246 6.50761 19.2994C6.53287 19.2741 6.56714 19.2599 6.60287 19.2599Z" fill="#121728"/>
<path d="M14.6301 3.63745C14.6413 3.63746 14.6521 3.64078 14.6613 3.64699C14.6705 3.65321 14.6777 3.66203 14.6819 3.67233C14.6861 3.68263 14.6871 3.69395 14.6848 3.70483C14.6825 3.7157 14.677 3.72565 14.669 3.73339C14.661 3.74114 14.6509 3.74632 14.64 3.74829C14.6291 3.75025 14.6178 3.74891 14.6076 3.74443C14.5974 3.73995 14.5888 3.73254 14.5829 3.72314C14.5769 3.71374 14.574 3.70278 14.5743 3.69167C14.5747 3.67714 14.5808 3.66335 14.5912 3.65322C14.6016 3.6431 14.6156 3.63744 14.6301 3.63745Z" fill="#121728"/>
<path d="M3.15934 0.609497C3.20126 0.609497 3.24223 0.621922 3.27709 0.64521C3.31194 0.668498 3.3391 0.7016 3.35514 0.740326C3.37118 0.779053 3.37538 0.821666 3.3672 0.862778C3.35903 0.903889 3.33884 0.941651 3.3092 0.971291C3.27956 1.00093 3.2418 1.02112 3.20069 1.0293C3.15958 1.03747 3.11696 1.03327 3.07824 1.01723C3.03951 1.00119 3.00641 0.97403 2.98312 0.939178C2.95983 0.904325 2.94741 0.863346 2.94741 0.821429C2.94741 0.76522 2.96973 0.711313 3.00948 0.671568C3.04922 0.631822 3.10313 0.609497 3.15934 0.609497Z" fill="#121728"/>
<path d="M8.55126 10.4078C8.57368 10.4078 8.59559 10.4145 8.61424 10.4269C8.63288 10.4394 8.64741 10.4571 8.65599 10.4778C8.66457 10.4985 8.66681 10.5213 8.66244 10.5433C8.65806 10.5653 8.64727 10.5855 8.63142 10.6014C8.61556 10.6172 8.59536 10.628 8.57337 10.6324C8.55138 10.6368 8.52859 10.6345 8.50788 10.6259C8.48716 10.6174 8.46946 10.6028 8.457 10.5842C8.44455 10.5655 8.4379 10.5436 8.4379 10.5212C8.4379 10.4911 8.44984 10.4623 8.4711 10.441C8.49236 10.4198 8.52119 10.4078 8.55126 10.4078Z" fill="#121728"/>
<path d="M1.87294 15.0015C1.99362 15.0015 2.09144 14.9036 2.09144 14.783C2.09144 14.6623 1.99362 14.5645 1.87294 14.5645C1.75226 14.5645 1.65443 14.6623 1.65443 14.783C1.65443 14.9036 1.75226 15.0015 1.87294 15.0015Z" fill="#121728"/>
<path d="M15.8968 6.14608C15.9222 6.14608 15.9428 6.12548 15.9428 6.10008C15.9428 6.07467 15.9222 6.05408 15.8968 6.05408C15.8714 6.05408 15.8508 6.07467 15.8508 6.10008C15.8508 6.12548 15.8714 6.14608 15.8968 6.14608Z" fill="#121728"/>
<path d="M16.7347 8.51028C16.7547 8.51028 16.7708 8.49409 16.7708 8.47413C16.7708 8.45417 16.7547 8.43799 16.7347 8.43799C16.7147 8.43799 16.6986 8.45417 16.6986 8.47413C16.6986 8.49409 16.7147 8.51028 16.7347 8.51028Z" fill="#121728"/>
<path d="M2.93078 10.5294C2.97114 10.5294 3.01059 10.5414 3.04413 10.5639C3.07767 10.5863 3.10377 10.6183 3.11914 10.6556C3.13451 10.6929 3.13845 10.7339 3.13046 10.7735C3.12246 10.8131 3.10289 10.8494 3.07424 10.8778C3.04558 10.9062 3.00913 10.9255 2.96951 10.9332C2.92988 10.9408 2.88887 10.9366 2.85167 10.9209C2.81448 10.9052 2.78277 10.8788 2.76059 10.8451C2.7384 10.8114 2.72673 10.7719 2.72706 10.7315C2.72705 10.7048 2.73234 10.6784 2.74259 10.6538C2.75285 10.6292 2.76789 10.6068 2.78682 10.588C2.80576 10.5692 2.82823 10.5544 2.85294 10.5443C2.87765 10.5343 2.9041 10.5292 2.93078 10.5294Z" fill="#121728"/>
<path d="M4.63958 3.39918C4.67539 3.39885 4.71049 3.40917 4.74042 3.42883C4.77036 3.44849 4.79378 3.4766 4.80771 3.5096C4.82164 3.54259 4.82545 3.57897 4.81866 3.61414C4.81188 3.6493 4.7948 3.68165 4.76959 3.70709C4.74438 3.73253 4.71219 3.74991 4.67709 3.75702C4.64199 3.76412 4.60557 3.76064 4.57245 3.74701C4.53933 3.73338 4.51101 3.71022 4.49107 3.68047C4.47114 3.65072 4.4605 3.61571 4.4605 3.5799C4.46028 3.55624 4.46475 3.53278 4.47366 3.51086C4.48256 3.48895 4.49572 3.46901 4.51237 3.45221C4.52902 3.4354 4.54883 3.42207 4.57066 3.41297C4.5925 3.40386 4.61592 3.39918 4.63958 3.39918Z" fill="#121728"/>
<path d="M0.829723 5.22278C0.880088 5.22278 0.929324 5.23771 0.971201 5.2657C1.01308 5.29368 1.04571 5.33345 1.06499 5.37998C1.08426 5.42651 1.0893 5.47771 1.07948 5.52711C1.06965 5.57651 1.0454 5.62188 1.00979 5.6575C0.974174 5.69311 0.928802 5.71736 0.879404 5.72719C0.830007 5.73701 0.778801 5.73197 0.73227 5.7127C0.685739 5.69343 0.645968 5.66078 0.617986 5.61891C0.590005 5.57703 0.575073 5.52779 0.575073 5.47743C0.575073 5.40989 0.601902 5.34512 0.649658 5.29736C0.697415 5.24961 0.762185 5.22278 0.829723 5.22278Z" fill="#121728"/>
<path d="M10.242 5.05859C10.2615 5.05859 10.2806 5.06437 10.2968 5.0752C10.313 5.08604 10.3256 5.10143 10.3331 5.11945C10.3405 5.13746 10.3425 5.15728 10.3387 5.1764C10.3349 5.19552 10.3255 5.21309 10.3117 5.22687C10.2979 5.24066 10.2804 5.25005 10.2612 5.25385C10.2421 5.25765 10.2223 5.2557 10.2043 5.24824C10.1863 5.24078 10.1709 5.22815 10.16 5.21193C10.1492 5.19572 10.1434 5.17667 10.1434 5.15717C10.1434 5.13103 10.1538 5.10595 10.1723 5.08747C10.1908 5.06898 10.2159 5.05859 10.242 5.05859Z" fill="#121728"/>
<path d="M10.3486 7.17299C10.3679 7.17266 10.3868 7.17807 10.4029 7.18852C10.4191 7.19897 10.4318 7.21399 10.4394 7.23167C10.4469 7.24935 10.4491 7.26889 10.4456 7.2878C10.442 7.30671 10.4329 7.32414 10.4194 7.33786C10.4059 7.35158 10.3887 7.36097 10.3698 7.36485C10.351 7.36872 10.3314 7.36691 10.3136 7.35962C10.2958 7.35233 10.2805 7.33991 10.2698 7.32394C10.2591 7.30796 10.2534 7.28916 10.2534 7.26992C10.2533 7.24449 10.2633 7.22008 10.2812 7.20195C10.299 7.18382 10.3232 7.17342 10.3486 7.17299Z" fill="#121728"/>
<path d="M5.84722 4.68232C5.87727 4.68424 5.9061 4.69491 5.93017 4.71301C5.95424 4.7311 5.97249 4.75584 5.98268 4.78417C5.99287 4.8125 5.99456 4.8432 5.98753 4.87248C5.98051 4.90176 5.96507 4.92835 5.94314 4.94897C5.9212 4.96959 5.89371 4.98335 5.86405 4.98855C5.83439 4.99376 5.80386 4.99017 5.77621 4.97825C5.74856 4.96633 5.725 4.94658 5.70843 4.92144C5.69185 4.8963 5.68299 4.86687 5.68293 4.83676C5.68289 4.81562 5.68718 4.7947 5.69555 4.77529C5.70392 4.75588 5.71619 4.73839 5.73159 4.72392C5.74699 4.70944 5.7652 4.69828 5.78509 4.69113C5.80498 4.68397 5.82613 4.68097 5.84722 4.68232Z" fill="#121728"/>
<path d="M8.64019 4.98462C8.66359 4.98462 8.68646 4.99156 8.70591 5.00456C8.72536 5.01756 8.74053 5.03603 8.74948 5.05764C8.75843 5.07926 8.76077 5.10304 8.75621 5.12599C8.75164 5.14893 8.74038 5.17001 8.72383 5.18655C8.70729 5.2031 8.68621 5.21436 8.66327 5.21893C8.64032 5.22349 8.61654 5.22115 8.59492 5.21219C8.57331 5.20324 8.55484 5.18808 8.54184 5.16863C8.52884 5.14918 8.5219 5.1263 8.5219 5.10291C8.5219 5.08738 8.52496 5.072 8.53091 5.05764C8.53685 5.04329 8.54556 5.03025 8.55655 5.01927C8.56753 5.00829 8.58057 4.99957 8.59492 4.99362C8.60928 4.98768 8.62466 4.98462 8.64019 4.98462Z" fill="#121728"/>
<path d="M6.51421 10.7594C6.59224 10.7594 6.6555 10.6961 6.6555 10.6181C6.6555 10.5401 6.59224 10.4768 6.51421 10.4768C6.43618 10.4768 6.37292 10.5401 6.37292 10.6181C6.37292 10.6961 6.43618 10.7594 6.51421 10.7594Z" fill="#121728"/>
<path d="M7.23694 15.1526C7.2551 15.1505 7.27348 15.1523 7.2909 15.1578C7.30831 15.1634 7.32436 15.1726 7.33799 15.1847C7.35162 15.1969 7.36252 15.2118 7.36998 15.2285C7.37745 15.2452 7.38131 15.2633 7.38131 15.2815C7.38131 15.2998 7.37745 15.3179 7.36998 15.3345C7.36252 15.3512 7.35162 15.3661 7.33799 15.3783C7.32436 15.3905 7.30831 15.3996 7.2909 15.4052C7.27348 15.4107 7.2551 15.4125 7.23694 15.4105C7.21878 15.4125 7.20039 15.4107 7.18298 15.4052C7.16557 15.3996 7.14952 15.3905 7.13589 15.3783C7.12226 15.3661 7.11136 15.3512 7.10389 15.3345C7.09643 15.3179 7.09257 15.2998 7.09257 15.2815C7.09257 15.2633 7.09643 15.2452 7.10389 15.2285C7.11136 15.2118 7.12226 15.1969 7.13589 15.1847C7.14952 15.1726 7.16557 15.1634 7.18298 15.1578C7.20039 15.1523 7.21878 15.1505 7.23694 15.1526Z" fill="#121728"/>
<path d="M6.38278 0.913461C6.41379 0.913136 6.44419 0.922057 6.47011 0.939081C6.49602 0.956105 6.51629 0.980463 6.5283 1.00905C6.54032 1.03763 6.54355 1.06915 6.53758 1.09958C6.53161 1.13001 6.51671 1.15797 6.49478 1.17989C6.47285 1.20182 6.4449 1.21672 6.41447 1.22269C6.38404 1.22866 6.35252 1.22543 6.32394 1.21341C6.29535 1.20139 6.27099 1.18114 6.25397 1.15522C6.23694 1.1293 6.22802 1.0989 6.22835 1.06789C6.22835 1.02694 6.24462 0.987657 6.27358 0.958695C6.30254 0.929733 6.34182 0.913461 6.38278 0.913461Z" fill="#121728"/>
<path d="M2.72725 5.25574C2.76949 5.25574 2.81078 5.26826 2.84591 5.29173C2.88103 5.3152 2.9084 5.34855 2.92457 5.38758C2.94073 5.42661 2.94496 5.46955 2.93672 5.51098C2.92848 5.55241 2.90814 5.59047 2.87827 5.62034C2.8484 5.65021 2.81035 5.67055 2.76892 5.67879C2.72749 5.68703 2.68454 5.6828 2.64552 5.66664C2.60649 5.65047 2.57313 5.62309 2.54966 5.58797C2.5262 5.55285 2.51367 5.51156 2.51367 5.46931C2.51367 5.41267 2.53617 5.35834 2.57623 5.31829C2.61628 5.27824 2.6706 5.25574 2.72725 5.25574Z" fill="#121728"/>
<path d="M4.17956 8.67455C4.27937 8.67455 4.36028 8.59364 4.36028 8.49383C4.36028 8.39402 4.27937 8.31311 4.17956 8.31311C4.07975 8.31311 3.99884 8.39402 3.99884 8.49383C3.99884 8.59364 4.07975 8.67455 4.17956 8.67455Z" fill="#121728"/>
<path d="M11.7682 6.28259C11.8126 6.28259 11.8487 6.24654 11.8487 6.20208C11.8487 6.15762 11.8126 6.12158 11.7682 6.12158C11.7237 6.12158 11.6877 6.15762 11.6877 6.20208C11.6877 6.24654 11.7237 6.28259 11.7682 6.28259Z" fill="#121728"/>
<path d="M3.40738 3.948C3.46141 3.948 3.51322 3.96946 3.55143 4.00767C3.58963 4.04587 3.6111 4.09769 3.6111 4.15172C3.6111 4.20575 3.58963 4.25757 3.55143 4.29577C3.51322 4.33398 3.46141 4.35544 3.40738 4.35544C3.35335 4.35544 3.30153 4.33398 3.26333 4.29577C3.22512 4.25757 3.20366 4.20575 3.20366 4.15172C3.20366 4.09769 3.22512 4.04587 3.26333 4.00767C3.30153 3.96946 3.35335 3.948 3.40738 3.948Z" fill="#121728"/>
<path d="M4.04979 6.24146C4.0873 6.24114 4.12405 6.25198 4.15537 6.27262C4.18669 6.29325 4.21116 6.32274 4.22566 6.35733C4.24017 6.39192 4.24405 6.43004 4.23681 6.46685C4.22957 6.50365 4.21154 6.53746 4.18502 6.56398C4.1585 6.5905 4.12469 6.60853 4.08788 6.61577C4.05108 6.62301 4.01296 6.61913 3.97837 6.60462C3.94378 6.59012 3.91429 6.56565 3.89365 6.53433C3.87302 6.50301 3.86217 6.46626 3.86249 6.42875C3.86292 6.37921 3.8828 6.33182 3.91783 6.29679C3.95286 6.26176 4.00025 6.24189 4.04979 6.24146Z" fill="#121728"/>
<path d="M4.67065 16.5918C4.70314 16.5918 4.73491 16.6014 4.76193 16.6195C4.78894 16.6375 4.81 16.6632 4.82244 16.6932C4.83487 16.7232 4.83812 16.7563 4.83178 16.7881C4.82544 16.82 4.8098 16.8493 4.78682 16.8723C4.76384 16.8952 4.73457 16.9109 4.7027 16.9172C4.67083 16.9236 4.6378 16.9203 4.60778 16.9079C4.57776 16.8954 4.5521 16.8744 4.53405 16.8474C4.51599 16.8203 4.50636 16.7886 4.50636 16.7561C4.50636 16.7125 4.52367 16.6707 4.55448 16.6399C4.58529 16.6091 4.62708 16.5918 4.67065 16.5918Z" fill="#121728"/>
<path d="M19.6033 13.5376C19.6053 13.5373 19.6074 13.5375 19.6094 13.5382C19.6114 13.5388 19.6132 13.5399 19.6148 13.5413C19.6164 13.5427 19.6176 13.5444 19.6184 13.5463C19.6193 13.5482 19.6197 13.5503 19.6197 13.5524C19.62 13.5546 19.6197 13.5568 19.619 13.5589C19.6182 13.5611 19.617 13.563 19.6155 13.5646C19.6139 13.5661 19.612 13.5673 19.6099 13.5681C19.6077 13.5688 19.6055 13.569 19.6033 13.5688C19.6012 13.5688 19.5991 13.5684 19.5972 13.5675C19.5953 13.5667 19.5936 13.5654 19.5922 13.5639C19.5908 13.5623 19.5897 13.5605 19.5891 13.5585C19.5885 13.5565 19.5882 13.5544 19.5885 13.5524C19.5885 13.5484 19.59 13.5447 19.5928 13.5419C19.5956 13.5391 19.5993 13.5376 19.6033 13.5376Z" fill="#121728"/>
<path d="M12.4548 7.8302C12.4723 7.83283 12.4883 7.84166 12.4999 7.85507C12.5114 7.86849 12.5177 7.88561 12.5177 7.90331C12.5177 7.92101 12.5114 7.93813 12.4999 7.95154C12.4883 7.96496 12.4723 7.97379 12.4548 7.97642C12.4373 7.97379 12.4213 7.96496 12.4098 7.95154C12.3982 7.93813 12.3919 7.92101 12.3919 7.90331C12.3919 7.88561 12.3982 7.86849 12.4098 7.85507C12.4213 7.84166 12.4373 7.83283 12.4548 7.8302Z" fill="#121728"/>
<path d="M4.95158 21.0178C4.98408 21.0178 5.01584 21.0275 5.04286 21.0455C5.06988 21.0636 5.09093 21.0892 5.10337 21.1192C5.1158 21.1493 5.11905 21.1823 5.11271 21.2142C5.10638 21.246 5.09073 21.2753 5.06776 21.2983C5.04478 21.3213 5.0155 21.3369 4.98363 21.3432C4.95177 21.3496 4.91873 21.3463 4.88871 21.3339C4.85869 21.3215 4.83303 21.3004 4.81498 21.2734C4.79693 21.2464 4.78729 21.2146 4.78729 21.1821C4.78729 21.1385 4.8046 21.0968 4.83541 21.0659C4.86622 21.0351 4.90801 21.0178 4.95158 21.0178Z" fill="#121728"/>
<path d="M4.54927 5.05856C4.5936 5.06282 4.63474 5.08344 4.66468 5.1164C4.69463 5.14936 4.71121 5.19229 4.71121 5.23682C4.71121 5.28134 4.69463 5.32428 4.66468 5.35724C4.63474 5.39019 4.5936 5.41081 4.54927 5.41507C4.52442 5.41746 4.49935 5.41463 4.47566 5.40676C4.45198 5.39889 4.43019 5.38615 4.41172 5.36936C4.39324 5.35258 4.37848 5.33212 4.36838 5.30929C4.35828 5.28646 4.35306 5.26178 4.35306 5.23682C4.35306 5.21185 4.35828 5.18717 4.36838 5.16434C4.37848 5.14152 4.39324 5.12106 4.41172 5.10427C4.43019 5.08749 4.45198 5.07475 4.47566 5.06688C4.49935 5.05901 4.52442 5.05617 4.54927 5.05856Z" fill="#121728"/>
<path d="M9.99885 9.05908C10.0542 9.05908 10.0991 9.01421 10.0991 8.95886C10.0991 8.90351 10.0542 8.85864 9.99885 8.85864C9.9435 8.85864 9.89864 8.90351 9.89864 8.95886C9.89864 9.01421 9.9435 9.05908 9.99885 9.05908Z" fill="#121728"/>
<path d="M3.49774 15.5009C3.53615 15.5009 3.5737 15.5123 3.60561 15.5336C3.63753 15.555 3.66238 15.5854 3.677 15.6209C3.69162 15.6564 3.69536 15.6955 3.68775 15.7331C3.68013 15.7708 3.66151 15.8053 3.63423 15.8324C3.60695 15.8594 3.57226 15.8778 3.53454 15.8851C3.49683 15.8923 3.4578 15.8883 3.4224 15.8733C3.38701 15.8584 3.35685 15.8333 3.33575 15.8012C3.31464 15.7691 3.30355 15.7315 3.30387 15.6931C3.30431 15.6419 3.32492 15.5931 3.36123 15.5571C3.39754 15.5211 3.4466 15.5009 3.49774 15.5009Z" fill="#121728"/>
<path d="M8.36242 21.3923C8.38498 21.392 8.40712 21.3984 8.42601 21.4108C8.4449 21.4231 8.45969 21.4408 8.46847 21.4616C8.47725 21.4823 8.47963 21.5053 8.47531 21.5274C8.47099 21.5495 8.46016 21.5699 8.44421 21.5859C8.42826 21.6018 8.40791 21.6126 8.38577 21.617C8.36363 21.6213 8.3407 21.6189 8.31992 21.6101C8.29914 21.6013 8.28145 21.5865 8.26912 21.5677C8.25679 21.5488 8.25038 21.5266 8.25071 21.5041C8.25071 21.4744 8.26247 21.446 8.28343 21.4251C8.30438 21.4041 8.33279 21.3923 8.36242 21.3923Z" fill="#121728"/>
<path d="M3.42211 20.5511C3.45915 20.5511 3.49536 20.5621 3.52616 20.5827C3.55696 20.6033 3.58097 20.6325 3.59514 20.6668C3.60932 20.701 3.61303 20.7387 3.6058 20.775C3.59857 20.8113 3.58073 20.8447 3.55454 20.8709C3.52835 20.8971 3.49498 20.9149 3.45865 20.9221C3.42232 20.9294 3.38466 20.9257 3.35044 20.9115C3.31621 20.8973 3.28696 20.8733 3.26638 20.8425C3.2458 20.8117 3.23482 20.7755 3.23482 20.7384C3.23482 20.6888 3.25455 20.6411 3.28967 20.606C3.3248 20.5709 3.37243 20.5511 3.42211 20.5511Z" fill="#121728"/>
<path d="M0.736015 10.5065C0.785219 10.5062 0.833408 10.5205 0.874455 10.5476C0.915502 10.5747 0.947553 10.6135 0.966533 10.6589C0.985513 10.7043 0.990568 10.7543 0.981048 10.8025C0.971528 10.8508 0.947864 10.8952 0.913071 10.93C0.878278 10.9648 0.833926 10.9884 0.785651 10.9979C0.737376 11.0075 0.687359 11.0024 0.641961 10.9834C0.596564 10.9645 0.557835 10.9324 0.530701 10.8914C0.503567 10.8503 0.489253 10.8021 0.489578 10.7529C0.489578 10.6876 0.515545 10.6249 0.561761 10.5787C0.607977 10.5324 0.670656 10.5065 0.736015 10.5065Z" fill="#121728"/>
<path d="M2.09135 19.3158C2.13359 19.3158 2.17489 19.3283 2.21001 19.3518C2.24514 19.3753 2.27251 19.4086 2.28867 19.4476C2.30484 19.4867 2.30907 19.5296 2.30083 19.571C2.29259 19.6125 2.27225 19.6505 2.24238 19.6804C2.21251 19.7103 2.17445 19.7306 2.13302 19.7388C2.09159 19.7471 2.04865 19.7429 2.00962 19.7267C1.9706 19.7105 1.93724 19.6832 1.91377 19.648C1.8903 19.6129 1.87778 19.5716 1.87778 19.5294C1.87778 19.4727 1.90028 19.4184 1.94033 19.3784C1.98039 19.3383 2.03471 19.3158 2.09135 19.3158Z" fill="#121728"/>
<path d="M14.8355 16.2714C14.8419 16.2714 14.8482 16.2727 14.8541 16.2752C14.86 16.2777 14.8653 16.2813 14.8698 16.2859C14.8742 16.2905 14.8777 16.296 14.88 16.3019C14.8823 16.3079 14.8834 16.3143 14.8831 16.3207C14.8845 16.3278 14.8842 16.3351 14.8824 16.3421C14.8805 16.3491 14.8772 16.3556 14.8726 16.3612C14.8679 16.3667 14.8621 16.3712 14.8556 16.3743C14.849 16.3773 14.8419 16.3789 14.8347 16.3789C14.8274 16.3789 14.8203 16.3773 14.8137 16.3743C14.8072 16.3712 14.8014 16.3667 14.7968 16.3612C14.7922 16.3556 14.7888 16.3491 14.787 16.3421C14.7852 16.3351 14.7849 16.3278 14.7862 16.3207C14.786 16.3141 14.7871 16.3076 14.7895 16.3015C14.7919 16.2955 14.7955 16.2899 14.8001 16.2853C14.8048 16.2807 14.8103 16.2771 14.8164 16.2747C14.8224 16.2723 14.829 16.2712 14.8355 16.2714Z" fill="#121728"/>
<path d="M6.59798 20.939C6.63371 20.939 6.66797 20.9532 6.69324 20.9784C6.7185 21.0037 6.7327 21.038 6.7327 21.0737C6.73226 21.1091 6.71788 21.143 6.69266 21.1679C6.66744 21.1928 6.63342 21.2068 6.59798 21.2068C6.56268 21.2068 6.52883 21.1927 6.50388 21.1678C6.47892 21.1428 6.4649 21.109 6.4649 21.0737C6.4649 21.0382 6.47887 21.0042 6.50378 20.979C6.52869 20.9538 6.56253 20.9394 6.59798 20.939Z" fill="#121728"/>
<path d="M8.81261 6.70143C8.83471 6.70143 8.8563 6.70798 8.87468 6.72026C8.89305 6.73253 8.90737 6.74998 8.91582 6.77039C8.92428 6.79081 8.92649 6.81327 8.92218 6.83494C8.91787 6.85661 8.90723 6.87652 8.89161 6.89214C8.87598 6.90777 8.85608 6.91841 8.83441 6.92272C8.81273 6.92703 8.79027 6.92481 8.76986 6.91636C8.74945 6.9079 8.732 6.89359 8.71972 6.87522C8.70745 6.85684 8.70089 6.83524 8.70089 6.81315C8.70067 6.79841 8.70341 6.78379 8.70895 6.77013C8.71448 6.75648 8.7227 6.74408 8.73312 6.73366C8.74354 6.72324 8.75594 6.71502 8.7696 6.70948C8.78325 6.70394 8.79788 6.70121 8.81261 6.70143Z" fill="#121728"/>
<path d="M15.9164 18.1625C15.9382 18.1625 15.9558 18.1448 15.9558 18.123C15.9558 18.1013 15.9382 18.0836 15.9164 18.0836C15.8946 18.0836 15.877 18.1013 15.877 18.123C15.877 18.1448 15.8946 18.1625 15.9164 18.1625Z" fill="#121728"/>
<path d="M4.35027 13.1088C4.38544 13.1088 4.41981 13.1192 4.44902 13.1388C4.47823 13.1584 4.50097 13.1862 4.51435 13.2187C4.52773 13.2512 4.53115 13.287 4.52417 13.3214C4.51719 13.3559 4.50012 13.3875 4.47515 13.4122C4.45017 13.437 4.4184 13.4538 4.38387 13.4604C4.34934 13.4671 4.31362 13.4633 4.28123 13.4497C4.24884 13.436 4.22124 13.413 4.20194 13.3836C4.18264 13.3542 4.17251 13.3197 4.17284 13.2846C4.17327 13.2378 4.19216 13.1931 4.22538 13.1602C4.25861 13.1272 4.3035 13.1088 4.35027 13.1088Z" fill="#121728"/>
<path d="M0.739264 20.4608C0.78638 20.4608 0.832437 20.4748 0.871612 20.501C0.910788 20.5271 0.941318 20.5643 0.959348 20.6079C0.977379 20.6514 0.982097 20.6993 0.972906 20.7455C0.963714 20.7917 0.941028 20.8342 0.907712 20.8675C0.874396 20.9008 0.831947 20.9235 0.785737 20.9327C0.739526 20.9419 0.691628 20.9372 0.648098 20.9191C0.604569 20.9011 0.567361 20.8706 0.541185 20.8314C0.515009 20.7922 0.50104 20.7462 0.50104 20.699C0.50104 20.6359 0.526136 20.5753 0.570811 20.5306C0.615487 20.4859 0.676083 20.4608 0.739264 20.4608Z" fill="#121728"/>
<path d="M19.2204 5.56286C19.2322 5.56286 19.2417 5.5533 19.2417 5.5415C19.2417 5.5297 19.2322 5.52014 19.2204 5.52014C19.2086 5.52014 19.199 5.5297 19.199 5.5415C19.199 5.5533 19.2086 5.56286 19.2204 5.56286Z" fill="#121728"/>
<path d="M19.0957 17.7862C19.098 17.786 19.1003 17.7862 19.1025 17.787C19.1047 17.7877 19.1067 17.7889 19.1084 17.7904C19.1101 17.792 19.1115 17.7938 19.1124 17.796C19.1133 17.7981 19.1138 17.8003 19.1138 17.8026C19.1138 17.8074 19.1119 17.812 19.1085 17.8154C19.1051 17.8188 19.1005 17.8207 19.0957 17.8207C19.0909 17.8207 19.0863 17.8188 19.0829 17.8154C19.0795 17.812 19.0776 17.8074 19.0776 17.8026C19.0776 17.8003 19.0781 17.7981 19.079 17.796C19.0799 17.7938 19.0813 17.792 19.083 17.7904C19.0847 17.7889 19.0867 17.7877 19.0889 17.787C19.0911 17.7862 19.0934 17.786 19.0957 17.7862Z" fill="#121728"/>
<path d="M6.1379 6.42872C6.16761 6.4284 6.19674 6.43693 6.22158 6.45323C6.24641 6.46953 6.26583 6.49287 6.27735 6.52025C6.28886 6.54764 6.29197 6.57783 6.28625 6.60698C6.28053 6.63614 6.26626 6.66292 6.24525 6.68393C6.22425 6.70494 6.19745 6.71921 6.1683 6.72493C6.13915 6.73064 6.10895 6.72755 6.08157 6.71603C6.05418 6.70451 6.03086 6.68509 6.01455 6.66026C5.99825 6.63542 5.98972 6.60629 5.99004 6.57658C5.99004 6.53737 6.00562 6.49976 6.03335 6.47203C6.06108 6.4443 6.09869 6.42872 6.1379 6.42872Z" fill="#121728"/>
<path d="M5.80595 8.30493C5.8365 8.30493 5.86635 8.31399 5.89175 8.33096C5.91715 8.34793 5.93694 8.37204 5.94863 8.40026C5.96032 8.42848 5.96338 8.45954 5.95742 8.48949C5.95146 8.51945 5.93675 8.54697 5.91515 8.56857C5.89356 8.59016 5.86604 8.60487 5.83608 8.61083C5.80612 8.61679 5.77507 8.61373 5.74685 8.60204C5.71863 8.59035 5.69452 8.57056 5.67755 8.54516C5.66058 8.51977 5.65152 8.48991 5.65152 8.45937C5.65152 8.41841 5.66779 8.37912 5.69675 8.35016C5.72571 8.3212 5.765 8.30493 5.80595 8.30493Z" fill="#121728"/>
<path d="M0.795136 9.21185C0.933054 9.21185 1.04486 9.10005 1.04486 8.96213C1.04486 8.82421 0.933054 8.7124 0.795136 8.7124C0.657218 8.7124 0.54541 8.82421 0.54541 8.96213C0.54541 9.10005 0.657218 9.21185 0.795136 9.21185Z" fill="#121728"/>
<path d="M1.02158 13.9555C1.04329 13.8221 0.952715 13.6963 0.819273 13.6746C0.685832 13.6529 0.560059 13.7435 0.538351 13.8769C0.516642 14.0104 0.607219 14.1361 0.74066 14.1578C0.874102 14.1795 0.999874 14.089 1.02158 13.9555Z" fill="#121728"/>
<path d="M10.7331 10.5984C10.7563 10.5988 10.7785 10.6084 10.7948 10.625C10.811 10.6416 10.8202 10.6639 10.8202 10.6871C10.8201 10.7047 10.8149 10.722 10.8051 10.7366C10.7953 10.7512 10.7813 10.7626 10.765 10.7692C10.7487 10.7759 10.7308 10.7776 10.7135 10.774C10.6963 10.7704 10.6805 10.7618 10.6681 10.7492C10.6558 10.7367 10.6475 10.7207 10.6442 10.7034C10.641 10.6861 10.643 10.6682 10.65 10.652C10.6569 10.6358 10.6685 10.6221 10.6834 10.6125C10.6982 10.603 10.7155 10.5981 10.7331 10.5984Z" fill="#121728"/>
<path d="M13.6131 5.66635C13.6222 5.66487 13.6316 5.66539 13.6405 5.66789C13.6495 5.67039 13.6578 5.67479 13.6648 5.68081C13.6719 5.68682 13.6776 5.69431 13.6815 5.70273C13.6853 5.71115 13.6874 5.72032 13.6874 5.7296C13.6874 5.73888 13.6853 5.74805 13.6815 5.75647C13.6776 5.7649 13.6719 5.77237 13.6648 5.77839C13.6578 5.7844 13.6495 5.78881 13.6405 5.79131C13.6316 5.79381 13.6222 5.79433 13.6131 5.79285C13.598 5.79042 13.5844 5.78272 13.5745 5.77113C13.5646 5.75954 13.5592 5.74482 13.5592 5.7296C13.5592 5.71438 13.5646 5.69965 13.5745 5.68806C13.5844 5.67647 13.598 5.66878 13.6131 5.66635Z" fill="#121728"/>
<path d="M8.20131 1.38C8.22601 1.38 8.25015 1.38733 8.27068 1.40105C8.29122 1.41477 8.30722 1.43427 8.31667 1.45709C8.32612 1.4799 8.32859 1.50501 8.32377 1.52923C8.31896 1.55345 8.30707 1.5757 8.28961 1.59316C8.27214 1.61062 8.2499 1.62251 8.22568 1.62733C8.20145 1.63215 8.17635 1.62968 8.15353 1.62022C8.13072 1.61077 8.11122 1.59477 8.0975 1.57424C8.08378 1.55371 8.07645 1.52956 8.07645 1.50487C8.07645 1.47175 8.08961 1.44 8.11303 1.41658C8.13644 1.39316 8.1682 1.38 8.20131 1.38Z" fill="#121728"/>
<path d="M11.5463 16.7939C11.5615 16.7939 11.5765 16.7985 11.5892 16.807C11.6019 16.8154 11.6118 16.8275 11.6176 16.8416C11.6235 16.8557 11.625 16.8713 11.622 16.8862C11.619 16.9012 11.6117 16.915 11.6009 16.9258C11.5901 16.9366 11.5763 16.9439 11.5613 16.9469C11.5464 16.9499 11.5308 16.9483 11.5167 16.9425C11.5026 16.9367 11.4906 16.9268 11.4821 16.9141C11.4736 16.9014 11.4691 16.8864 11.4691 16.8712C11.4691 16.8507 11.4772 16.831 11.4917 16.8166C11.5062 16.8021 11.5258 16.7939 11.5463 16.7939Z" fill="#121728"/>
<path d="M1.63153 9.86402C1.6763 9.86434 1.71997 9.87792 1.75704 9.90303C1.7941 9.92814 1.8229 9.96366 1.83981 10.0051C1.85672 10.0466 1.86098 10.0921 1.85205 10.136C1.84311 10.1798 1.82139 10.2201 1.78962 10.2516C1.75785 10.2832 1.71745 10.3046 1.67351 10.3132C1.62958 10.3218 1.58407 10.3172 1.54274 10.3C1.50141 10.2828 1.4661 10.2538 1.44126 10.2165C1.41642 10.1793 1.40316 10.1355 1.40316 10.0907C1.40316 10.0608 1.40908 10.0312 1.42058 10.0036C1.43207 9.97598 1.44892 9.95092 1.47015 9.92984C1.49137 9.90877 1.51656 9.8921 1.54426 9.88081C1.57195 9.86951 1.60161 9.8638 1.63153 9.86402Z" fill="#121728"/>
<path d="M7.37837 16.9647C7.39512 16.9645 7.41175 16.9676 7.42729 16.9739C7.44283 16.9801 7.45696 16.9894 7.46889 17.0012C7.48081 17.013 7.49027 17.027 7.49673 17.0424C7.50319 17.0579 7.50652 17.0745 7.50652 17.0912C7.50652 17.1252 7.49301 17.1578 7.46898 17.1818C7.44495 17.2059 7.41235 17.2194 7.37837 17.2194C7.36162 17.2194 7.34503 17.2161 7.32958 17.2096C7.31412 17.2031 7.3001 17.1937 7.28833 17.1818C7.27656 17.1698 7.26728 17.1557 7.26102 17.1402C7.25476 17.1246 7.25165 17.108 7.25186 17.0912C7.25164 17.0746 7.25477 17.058 7.26105 17.0426C7.26732 17.0271 7.27663 17.0131 7.28843 17.0013C7.30022 16.9895 7.31425 16.9802 7.3297 16.9739C7.34515 16.9676 7.36169 16.9645 7.37837 16.9647Z" fill="#121728"/>
<path d="M17.4328 20.3196C17.4401 20.32 17.447 20.323 17.4521 20.3282C17.4573 20.3333 17.4604 20.3402 17.4608 20.3475C17.4608 20.3551 17.4579 20.3624 17.4527 20.3679C17.4475 20.3734 17.4404 20.3767 17.4328 20.3771C17.425 20.3771 17.4175 20.374 17.4119 20.3684C17.4064 20.3629 17.4033 20.3553 17.4033 20.3475C17.4037 20.34 17.407 20.3328 17.4125 20.3277C17.418 20.3225 17.4253 20.3196 17.4328 20.3196Z" fill="#121728"/>
<path d="M5.01241 9.95276C5.0449 9.95276 5.07666 9.96239 5.10368 9.98044C5.1307 9.9985 5.15176 10.0242 5.16419 10.0542C5.17663 10.0842 5.17988 10.1172 5.17354 10.1491C5.1672 10.181 5.15156 10.2102 5.12858 10.2332C5.1056 10.2562 5.07633 10.2718 5.04446 10.2782C5.01259 10.2845 4.97956 10.2813 4.94954 10.2688C4.91952 10.2564 4.89386 10.2353 4.87581 10.2083C4.85775 10.1813 4.84811 10.1495 4.84811 10.1171C4.84811 10.0735 4.86543 10.0317 4.89624 10.0009C4.92705 9.97007 4.96883 9.95276 5.01241 9.95276Z" fill="#121728"/>
<path d="M2.08308 13.1647C2.12637 13.1647 2.16868 13.1775 2.20464 13.2016C2.24061 13.2257 2.26862 13.2599 2.2851 13.2999C2.30159 13.34 2.30582 13.384 2.29726 13.4264C2.28869 13.4688 2.26772 13.5078 2.237 13.5383C2.20627 13.5688 2.16719 13.5894 2.12469 13.5977C2.0822 13.6059 2.03821 13.6014 1.99832 13.5846C1.95842 13.5678 1.9244 13.5395 1.90059 13.5034C1.87678 13.4672 1.86424 13.4248 1.86457 13.3815C1.865 13.3239 1.88822 13.2687 1.92915 13.2281C1.97008 13.1875 2.02541 13.1647 2.08308 13.1647Z" fill="#121728"/>
<path d="M1.88454 4.27003C1.92978 4.27003 1.97399 4.28346 2.01158 4.30863C2.04917 4.33379 2.07844 4.36955 2.09567 4.41138C2.11291 4.4532 2.11734 4.4992 2.10839 4.54355C2.09944 4.58789 2.07753 4.62858 2.04543 4.66045C2.01333 4.69232 1.97249 4.71394 1.92808 4.72256C1.88367 4.73119 1.83771 4.72643 1.79601 4.7089C1.75431 4.69136 1.71876 4.66183 1.69386 4.62406C1.66897 4.58629 1.65585 4.54198 1.65618 4.49674C1.65618 4.46683 1.66209 4.43722 1.67359 4.4096C1.68509 4.38199 1.70193 4.35692 1.72316 4.33585C1.74439 4.31477 1.76958 4.2981 1.79728 4.28681C1.82497 4.27551 1.85463 4.26981 1.88454 4.27003Z" fill="#121728"/>
<path d="M9.83788 3.24147C9.85842 3.24147 9.8785 3.24758 9.89555 3.25903C9.91261 3.27048 9.92587 3.28674 9.93365 3.30575C9.94144 3.32476 9.94339 3.34565 9.93926 3.36577C9.93513 3.3859 9.92511 3.40433 9.91047 3.41874C9.89583 3.43315 9.87723 3.44288 9.85705 3.44668C9.83686 3.45049 9.816 3.44821 9.79712 3.44012C9.77824 3.43203 9.76219 3.41851 9.75102 3.40127C9.73984 3.38404 9.73405 3.36387 9.73438 3.34333C9.73438 3.32981 9.73707 3.31643 9.74229 3.30396C9.74751 3.2915 9.75516 3.28019 9.76479 3.27071C9.77442 3.26123 9.78585 3.25376 9.7984 3.24874C9.81094 3.24372 9.82437 3.24125 9.83788 3.24147Z" fill="#121728"/>
<path d="M9.74749 1.5641C9.7681 1.56378 9.78834 1.56961 9.80561 1.58086C9.82288 1.5921 9.8364 1.60825 9.84444 1.62723C9.85247 1.64621 9.85466 1.66715 9.85072 1.68738C9.84678 1.70761 9.83689 1.7262 9.82232 1.74078C9.80774 1.75535 9.78915 1.76524 9.76892 1.76918C9.74869 1.77312 9.72774 1.77094 9.70876 1.7629C9.68979 1.75486 9.67364 1.74134 9.66239 1.72407C9.65114 1.7068 9.64531 1.68657 9.64564 1.66596C9.64606 1.63908 9.65693 1.61341 9.67594 1.5944C9.69495 1.57539 9.72061 1.56452 9.74749 1.5641Z" fill="#121728"/>
<path d="M5.31473 12.0541C5.40365 12.0541 5.47573 11.982 5.47573 11.8931C5.47573 11.8041 5.40365 11.7321 5.31473 11.7321C5.22581 11.7321 5.15372 11.8041 5.15372 11.8931C5.15372 11.982 5.22581 12.0541 5.31473 12.0541Z" fill="#121728"/>
<path d="M1.70211 0.591436C1.74955 0.591436 1.79592 0.605506 1.83537 0.631862C1.87481 0.658219 1.90556 0.695678 1.92371 0.739508C1.94187 0.783338 1.94662 0.831569 1.93736 0.878099C1.92811 0.924628 1.90526 0.967365 1.87172 1.00091C1.83817 1.03446 1.79543 1.0573 1.7489 1.06656C1.70237 1.07581 1.65414 1.07106 1.61031 1.05291C1.56648 1.03475 1.52902 1.00401 1.50267 0.964566C1.47631 0.925121 1.46224 0.878741 1.46224 0.8313C1.46202 0.79974 1.46808 0.768453 1.48006 0.739252C1.49203 0.710052 1.50969 0.68352 1.53201 0.661203C1.55433 0.638886 1.58086 0.621227 1.61006 0.60925C1.63926 0.597273 1.67055 0.591218 1.70211 0.591436Z" fill="#121728"/>
<path d="M2.80108 7.65756C2.85386 7.66222 2.90298 7.68648 2.93876 7.72556C2.97453 7.76463 2.99438 7.81569 2.99438 7.86867C2.99438 7.92166 2.97453 7.97272 2.93876 8.01179C2.90298 8.05087 2.85386 8.07513 2.80108 8.07979C2.77179 8.08238 2.74229 8.07884 2.71444 8.0694C2.68659 8.05997 2.66101 8.04484 2.63932 8.02498C2.61764 8.00513 2.60032 7.98098 2.58847 7.95407C2.57662 7.92716 2.57051 7.89808 2.57051 7.86867C2.57051 7.83927 2.57662 7.81019 2.58847 7.78328C2.60032 7.75636 2.61764 7.73222 2.63932 7.71236C2.66101 7.6925 2.68659 7.67738 2.71444 7.66794C2.74229 7.65851 2.77179 7.65497 2.80108 7.65756Z" fill="#121728"/>
<path d="M1.01908 17.1888C1.04064 17.0562 0.950672 16.9313 0.818126 16.9098C0.68558 16.8882 0.560648 16.9782 0.539085 17.1107C0.517522 17.2433 0.607494 17.3682 0.74004 17.3898C0.872586 17.4113 0.997513 17.3213 1.01908 17.1888Z" fill="#121728"/>
<path d="M1.52134 17.7582C1.56611 17.7585 1.60978 17.7721 1.64685 17.7972C1.68392 17.8223 1.71273 17.8578 1.72963 17.8993C1.74654 17.9407 1.7508 17.9863 1.74186 18.0301C1.73293 18.074 1.71121 18.1143 1.67944 18.1458C1.64766 18.1773 1.60727 18.1988 1.56333 18.2074C1.5194 18.216 1.4739 18.2114 1.43256 18.1942C1.39123 18.177 1.35592 18.1479 1.33108 18.1107C1.30624 18.0735 1.29298 18.0297 1.29298 17.9849C1.29298 17.955 1.2989 17.9254 1.31039 17.8978C1.32189 17.8701 1.33874 17.8451 1.35996 17.824C1.38119 17.8029 1.40638 17.7863 1.43408 17.775C1.46177 17.7637 1.49143 17.758 1.52134 17.7582Z" fill="#121728"/>
<path d="M3.27264 14.1669C3.31098 14.1669 3.34846 14.1782 3.38034 14.1995C3.41222 14.2208 3.43707 14.2511 3.45174 14.2865C3.46642 14.322 3.47025 14.361 3.46277 14.3986C3.45529 14.4362 3.43683 14.4707 3.40972 14.4978C3.38261 14.5249 3.34807 14.5434 3.31046 14.5509C3.27285 14.5584 3.23387 14.5545 3.19845 14.5398C3.16302 14.5252 3.13275 14.5003 3.11144 14.4684C3.09014 14.4366 3.07877 14.3991 3.07877 14.3607C3.07877 14.3093 3.0992 14.26 3.13555 14.2237C3.17191 14.1873 3.22122 14.1669 3.27264 14.1669Z" fill="#121728"/>
<path d="M2.23758 8.78626C2.28054 8.78594 2.32262 8.79838 2.3585 8.82201C2.39438 8.84564 2.42243 8.87939 2.4391 8.91899C2.45577 8.95859 2.4603 9.00224 2.45211 9.04442C2.44393 9.08659 2.42341 9.12539 2.39315 9.15588C2.36289 9.18637 2.32424 9.20719 2.28213 9.2157C2.24002 9.2242 2.19634 9.22 2.15661 9.20363C2.11689 9.18727 2.08292 9.15948 2.05902 9.12378C2.03512 9.08808 2.02236 9.04609 2.02235 9.00313C2.02235 8.94589 2.04497 8.89098 2.08529 8.85036C2.1256 8.80973 2.18034 8.78669 2.23758 8.78626Z" fill="#121728"/>
<path d="M8.67948 14.9817C8.70158 14.9817 8.72318 14.9882 8.74155 15.0005C8.75992 15.0128 8.77424 15.0302 8.7827 15.0507C8.79115 15.0711 8.79337 15.0935 8.78906 15.1152C8.78475 15.1369 8.77411 15.1568 8.75848 15.1724C8.74286 15.188 8.72295 15.1987 8.70128 15.203C8.67961 15.2073 8.65715 15.2051 8.63673 15.1966C8.61632 15.1882 8.59887 15.1738 8.58659 15.1555C8.57432 15.1371 8.56777 15.1155 8.56777 15.0934C8.56777 15.0638 8.57954 15.0354 8.60049 15.0144C8.62144 14.9935 8.64986 14.9817 8.67948 14.9817Z" fill="#121728"/>
<path d="M3.08876 12.7014C3.19946 12.7014 3.2892 12.6117 3.2892 12.501C3.2892 12.3903 3.19946 12.3005 3.08876 12.3005C2.97807 12.3005 2.88833 12.3903 2.88833 12.501C2.88833 12.6117 2.97807 12.7014 3.08876 12.7014Z" fill="#121728"/>
<path d="M10.5805 15.1903C10.5981 15.19 10.6154 15.1949 10.6302 15.2045C10.645 15.214 10.6566 15.2278 10.6636 15.2439C10.6706 15.2601 10.6726 15.278 10.6693 15.2953C10.6661 15.3126 10.6578 15.3286 10.6454 15.3412C10.6331 15.3537 10.6173 15.3624 10.6 15.3659C10.5828 15.3695 10.5649 15.3678 10.5486 15.3611C10.5323 15.3545 10.5183 15.3431 10.5085 15.3285C10.4987 15.3139 10.4934 15.2967 10.4934 15.279C10.4934 15.2558 10.5025 15.2335 10.5188 15.2169C10.5351 15.2003 10.5572 15.1908 10.5805 15.1903Z" fill="#121728"/>
<path d="M3.67507 9.39417C3.71309 9.39417 3.75025 9.40544 3.78186 9.42656C3.81347 9.44768 3.83811 9.4777 3.85266 9.51283C3.8672 9.54795 3.87101 9.5866 3.8636 9.62389C3.85618 9.66117 3.83787 9.69542 3.81099 9.72231C3.7841 9.74919 3.74985 9.76749 3.71257 9.77491C3.67528 9.78233 3.63663 9.77852 3.60151 9.76397C3.56638 9.74942 3.53636 9.72479 3.51524 9.69318C3.49412 9.66157 3.48285 9.6244 3.48285 9.58638C3.48285 9.5354 3.5031 9.48651 3.53914 9.45046C3.57519 9.41442 3.62409 9.39417 3.67507 9.39417Z" fill="#121728"/>
<path d="M18.5353 9.38431V16.8743C14.4412 15.0671 9.65371 14.014 4.76112 13.7331C4.81041 13.5902 4.85969 13.4505 4.90405 13.3076C5.50207 12.5141 6.21838 10.8432 7.33556 10.8432C8.32131 10.8432 8.8914 11.9933 9.87222 11.9933C11.7829 11.9933 12.1904 9.03601 14.3837 9.03601C15.5255 9.03601 16.3946 9.87061 17.3508 9.87061C17.7917 9.85852 18.213 9.68555 18.5353 9.38431Z" fill="#005BF2"/>
<path d="M14.3146 30.2361C14.3343 31.6375 14.3524 33.5548 14.3294 34.7706C14.2965 35.5493 14.2642 36.3127 14.2324 37.0608C13.4019 37.7156 12.3991 38.1152 11.3458 38.2108C8.22429 38.4573 7.0151 36.8571 6.0885 35.735C6.123 35.6446 6.90996 33.6731 5.56934 28.8347C5.48555 28.5275 4.81524 26.2061 5.50198 24.6371C5.96199 23.5873 7.03317 22.8808 9.30204 23.3523C9.43676 24.1163 9.61255 24.6272 10.7708 24.6272C11.209 24.6409 11.6417 24.5267 12.0161 24.2986C12.1061 24.2413 12.1898 24.1747 12.2658 24.0998C12.9477 24.3233 13.526 24.4629 14.0238 24.5927C15.0243 24.8572 15.6946 25.102 16.1908 25.9777C16.3643 26.288 16.5021 26.6171 16.6015 26.9585C16.9301 28.0346 17.1699 29.666 17.4016 32.2158C17.4016 32.2487 17.4016 32.2816 17.4016 32.3144C17.3997 32.5837 17.2984 32.8428 17.1169 33.0418C16.9355 33.2408 16.6869 33.3657 16.4189 33.3924C16.151 33.4192 15.8826 33.3458 15.6655 33.1865C15.4483 33.0272 15.2978 32.7933 15.2428 32.5296L14.3146 30.2361Z" fill="white"/>
<path d="M15.8919 23.8633L16.2008 25.9843C15.7079 25.1086 15.0343 24.8638 14.0338 24.5993C14.0238 24.3643 14.0644 24.1299 14.1529 23.912C14.2413 23.694 14.3755 23.4976 14.5464 23.3359C14.7776 23.1097 15.0482 22.9276 15.3449 22.7987L15.5371 23.0402C15.6967 23.2434 15.809 23.4797 15.8657 23.7319C15.8772 23.7746 15.8854 23.8173 15.8919 23.8633Z" fill="white"/>
<path d="M15.9444 58.5124C15.9887 58.5617 16.0282 58.6093 16.0659 58.6603C16.0659 59.3618 14.3294 61.3267 13.1498 61.3267C13.0288 61.3281 12.9087 61.305 12.7968 61.2589C12.6849 61.2129 12.5834 61.1447 12.4985 61.0585C12.4135 60.9723 12.3468 60.8699 12.3023 60.7573C12.2578 60.6447 12.2365 60.5244 12.2396 60.4034C12.2412 60.1554 12.3342 59.9167 12.5008 59.7331C12.5008 59.7331 12.5008 59.7429 12.5008 59.7495C12.5554 59.8713 12.649 59.9715 12.7668 60.0342C12.8846 60.097 13.0199 60.1188 13.1514 60.0962C13.2949 60.0776 13.4265 60.0068 13.5211 59.8974C13.6161 59.7885 13.6691 59.6492 13.6706 59.5047C13.6706 59.4144 13.6706 59.324 13.6706 59.2353C14.3425 58.9511 15.1048 58.5091 15.8064 58.5091C15.854 58.5075 15.8984 58.5108 15.9444 58.5124Z" fill="white"/>
<path d="M14.5463 23.336C14.3754 23.4976 14.2412 23.694 14.1528 23.912C14.0643 24.1299 14.0237 24.3644 14.0337 24.5994C13.5408 24.4663 12.9576 24.3266 12.2758 24.1065C12.1608 24.0703 12.0425 24.0293 11.9226 23.9849C11.8253 23.6695 11.7469 23.3485 11.6876 23.0238C11.6636 22.8918 11.6687 22.7561 11.7024 22.6262C12.6684 22.8343 13.6164 23.0709 14.5463 23.336Z" fill="#121728"/>
<path d="M9.45823 42.3527H9.43194C8.93907 44.9961 8.45441 47.5229 8.03711 49.8871C7.66417 52.0031 7.35038 53.9944 7.14666 55.8016C7.14666 55.8656 7.13187 55.9297 7.12694 55.9921C7.10394 56.1845 7.01366 56.3626 6.87206 56.4949C6.73046 56.6272 6.54665 56.7051 6.35313 56.715C6.15981 56.7249 5.96936 56.6652 5.81626 56.5467C5.66316 56.4283 5.55754 56.2589 5.51853 56.0694C4.9928 53.5146 5.05687 50.835 5.27045 48.2902C5.5596 44.8828 6.12148 41.7185 5.91776 39.3971C5.75347 37.4404 5.58096 37.0379 6.09519 35.7268C7.01522 36.8489 8.23098 38.4491 11.3525 38.2027C12.4058 38.107 13.4086 37.7075 14.2391 37.0526C14.0091 42.7519 13.8547 47.7316 13.7594 53.1811C13.7265 55.1197 13.6969 57.1143 13.6772 59.2254C13.6772 59.3141 13.6772 59.4045 13.6772 59.4948C13.6758 59.6394 13.6228 59.7786 13.5277 59.8875C13.4332 60.002 13.2988 60.0766 13.1515 60.0961C13.0222 60.1153 12.8903 60.0918 12.7756 60.0293C12.6608 59.9667 12.5696 59.8685 12.5157 59.7495C12.5157 59.7495 12.5157 59.7396 12.5157 59.733C11.4757 57.4182 10.3799 54.3821 10.2945 51.1899C10.2846 50.817 10.2863 50.4424 10.3076 50.0645C10.444 47.0908 10.0891 44.4737 9.45823 42.3527Z" fill="#121728"/>
<path d="M11.6992 22.6229C11.6654 22.7528 11.6604 22.8884 11.6844 23.0205C11.7436 23.3452 11.8221 23.6661 11.9193 23.9816C11.9506 24.0867 11.9834 24.1935 12.0228 24.3019C11.6484 24.53 11.2157 24.6442 10.7775 24.6305C9.61926 24.6305 9.44347 24.1196 9.30875 23.3556C9.30875 23.3425 9.30875 23.3293 9.30054 23.3178C9.29232 23.3063 9.25454 22.871 9.23482 22.2302C9.58476 22.4093 9.91006 22.5473 10.168 22.4832C10.7233 22.3436 11.5086 19.9844 11.5086 19.9844C11.9453 19.6367 12.3347 19.2336 12.6669 18.785C13.0393 19.2667 13.2472 19.8553 13.26 20.4641C13.2752 20.7966 13.1845 21.1253 13.0008 21.4029C12.8172 21.6805 12.5501 21.8925 12.2381 22.0084C12.1059 22.0606 11.988 22.1436 11.8943 22.2505C11.8006 22.3573 11.7337 22.485 11.6992 22.6229Z" fill="white"/>
<path d="M9.23317 22.1448C9.19538 20.745 9.29395 18.5008 10.2436 17.8502L10.306 17.8091C11.9013 16.7889 13.1515 17.7549 13.1515 17.7549C13.0666 18.1276 12.9018 18.4774 12.6685 18.7801C12.3363 19.2286 11.9469 19.6318 11.5102 19.9794C11.5102 19.9794 10.7249 22.3386 10.1696 22.4783C9.91169 22.5424 9.5864 22.4044 9.23646 22.2253C9.23481 22.2006 9.23481 22.1727 9.23317 22.1448Z" fill="#121728"/>
<path d="M12.2742 24.1033C12.1982 24.1781 12.1145 24.2447 12.0245 24.3021C11.9851 24.1936 11.9522 24.0868 11.921 23.9817C12.0409 24.026 12.1658 24.0671 12.2742 24.1033Z" fill="white"/>
<path d="M9.30222 23.3146C9.30222 23.3261 9.30222 23.3393 9.31043 23.3524C7.04157 22.8809 5.97039 23.5873 5.51038 24.6372C3.75739 24.4647 1.98797 24.3743 0.213627 24.3644V21.376C3.23585 21.3913 6.25201 21.6484 9.23322 22.1449C9.23322 22.1711 9.23322 22.1991 9.23322 22.2254C9.25622 22.8677 9.30222 23.3146 9.30222 23.3146Z" fill="#121728"/>
<path d="M9.14436 55.3777C9.18379 55.427 9.21829 55.4796 9.25608 55.5321C9.19365 56.2304 7.31744 58.0557 6.13454 57.9653C6.01418 57.9573 5.89666 57.9252 5.78892 57.8709C5.68118 57.8167 5.58541 57.7414 5.50729 57.6495C5.42917 57.5576 5.37027 57.4509 5.33409 57.3359C5.29792 57.2208 5.28518 57.0996 5.29666 56.9795C5.3177 56.7324 5.42948 56.5018 5.61045 56.3322C5.6869 56.4574 5.79548 56.5599 5.92491 56.6289C6.05435 56.698 6.19991 56.7311 6.34648 56.7249C6.54 56.715 6.72381 56.637 6.86541 56.5048C7.00701 56.3725 7.09729 56.1944 7.12029 56.002C7.12029 55.9396 7.13343 55.8755 7.14001 55.8114C7.74788 55.588 8.40833 55.3185 9.00142 55.3678L9.14436 55.3777Z" fill="white"/>
<path d="M13.0594 60.3064C12.9044 60.3048 12.7531 60.2593 12.6228 60.1753C12.4926 60.0913 12.3888 59.9721 12.3234 59.8316C12.3183 59.821 12.3139 59.81 12.3102 59.7988C10.8776 56.6082 10.1482 53.7939 10.0775 51.1932C10.066 50.7841 10.0775 50.4095 10.0907 50.0431C10.2254 47.3258 9.93952 44.6807 9.26921 42.397C9.16899 42.0586 9.05892 41.7201 8.94063 41.3932C8.69419 40.718 8.4379 40.0049 8.24568 39.3264C8.23623 39.2999 8.23232 39.2718 8.2342 39.2437C8.23607 39.2157 8.24369 39.1883 8.25657 39.1633C8.26946 39.1383 8.28734 39.1162 8.30911 39.0984C8.33088 39.0806 8.35607 39.0675 8.38312 39.0598C8.41018 39.0522 8.43852 39.0501 8.46639 39.0539C8.49426 39.0576 8.52106 39.067 8.54514 39.0816C8.56922 39.0961 8.59006 39.1154 8.60638 39.1383C8.62269 39.1612 8.63413 39.1872 8.63998 39.2147C8.83056 39.8719 9.08356 40.5849 9.32671 41.2519C9.44993 41.5805 9.56494 41.9354 9.66515 42.282C10.3552 44.6084 10.6509 47.2995 10.5096 50.0645C10.4915 50.4144 10.4866 50.7775 10.4981 51.1751C10.5671 53.7249 11.2884 56.4932 12.7013 59.641C12.7043 59.6469 12.707 59.6529 12.7095 59.6591C12.7478 59.7409 12.8128 59.8073 12.8938 59.8474C12.9747 59.8875 13.0669 59.8989 13.1552 59.8799C13.2435 59.8608 13.3228 59.8123 13.38 59.7424C13.4372 59.6724 13.469 59.5852 13.4701 59.4948V59.3617C13.4701 59.3157 13.4701 59.2697 13.4701 59.2237C13.4882 57.3278 13.5145 55.3497 13.5523 53.1811C13.6443 47.9796 13.7922 43.0049 14.0337 37.0477C14.0556 36.5307 14.0775 36.0061 14.0994 35.4738L14.129 34.7558C14.147 33.8194 14.1421 32.2915 14.1142 30.2345C14.1141 30.18 14.1355 30.1277 14.1735 30.0887C14.2116 30.0497 14.2634 30.0272 14.3179 30.0259C14.3446 30.0257 14.3712 30.0307 14.396 30.0408C14.4208 30.0508 14.4434 30.0656 14.4624 30.0844C14.4815 30.1032 14.4967 30.1255 14.5071 30.1501C14.5176 30.1748 14.523 30.2012 14.5232 30.228C14.5512 32.2948 14.5561 33.8227 14.538 34.769L14.5085 35.4919C14.4855 36.0231 14.463 36.5477 14.4411 37.0658C14.2012 43.018 14.0534 47.9911 13.9614 53.1877C13.9236 55.3563 13.8973 57.3327 13.8792 59.2303V59.503C13.876 59.6958 13.805 59.8814 13.6788 60.0271C13.5518 60.1722 13.3769 60.2667 13.1859 60.2933C13.1441 60.3006 13.1018 60.305 13.0594 60.3064Z" fill="#121728"/>
<path d="M6.32021 56.9235C6.14366 56.924 5.96998 56.8789 5.81599 56.7925C5.662 56.7062 5.53292 56.5815 5.44125 56.4307C5.38136 56.3333 5.33961 56.2258 5.31803 56.1136C4.74465 53.3305 4.88266 50.4636 5.06502 48.2769C5.15538 47.2238 5.27039 46.197 5.38046 45.2063C5.62361 43.0426 5.85198 41.0004 5.70905 39.4183C5.68112 39.0782 5.65319 38.7841 5.6269 38.5262C5.50697 37.294 5.4626 36.7831 5.89962 35.6544C5.98176 35.4441 6.65536 33.4874 5.37553 28.8889V28.8659C5.14881 28.0444 4.69208 25.9957 5.3246 24.5549C5.92098 23.1913 7.27803 22.7197 9.35467 23.1518C9.38166 23.1565 9.40742 23.1666 9.43042 23.1815C9.45341 23.1964 9.47317 23.2158 9.48851 23.2385C9.50385 23.2612 9.51445 23.2867 9.51968 23.3136C9.52491 23.3405 9.52467 23.3682 9.51896 23.395C9.50861 23.4487 9.47738 23.4962 9.43212 23.527C9.38686 23.5578 9.33125 23.5694 9.27745 23.5593C7.41603 23.1715 6.21506 23.5593 5.70576 24.7257C5.12745 26.0401 5.56282 27.9869 5.77804 28.7607V28.7854C7.06609 33.4118 6.43521 35.4457 6.29063 35.8072C5.88319 36.8471 5.92262 37.2612 6.04256 38.4917C6.06884 38.7513 6.09677 39.047 6.12634 39.3887C6.26763 41.0103 6.03762 43.0738 5.79776 45.2572C5.68604 46.243 5.57268 47.2681 5.48232 48.3163C5.3016 50.4751 5.16524 53.3042 5.72876 56.038C5.74103 56.1036 5.76495 56.1665 5.7994 56.2237C5.85685 56.3179 5.9385 56.3951 6.03587 56.4471C6.13324 56.4991 6.24277 56.524 6.35306 56.5194C6.49762 56.5122 6.63493 56.4539 6.74053 56.3549C6.84613 56.2559 6.91318 56.1227 6.92973 55.9789L6.95109 55.7916C7.13016 54.1815 7.41439 52.2971 7.84319 49.859C8.11591 48.3147 8.41492 46.7194 8.732 45.0305C8.89958 44.1433 9.06825 43.2408 9.23802 42.323C9.24298 42.2964 9.25312 42.2711 9.26786 42.2485C9.2826 42.2259 9.30165 42.2064 9.32392 42.1911C9.3462 42.1759 9.37126 42.1652 9.39768 42.1596C9.42409 42.154 9.45135 42.1537 9.47789 42.1587C9.50442 42.1636 9.52972 42.1738 9.55234 42.1885C9.57496 42.2033 9.59445 42.2223 9.60971 42.2446C9.62497 42.2669 9.63568 42.2919 9.64126 42.3183C9.64683 42.3448 9.64714 42.372 9.64218 42.3985C9.47789 43.3153 9.30209 44.2189 9.13616 45.1077C8.81908 46.795 8.51842 48.3935 8.24734 49.9313C7.82018 52.3595 7.5376 54.2357 7.35853 55.8343L7.33881 56.0216C7.31081 56.2629 7.19828 56.4865 7.02116 56.6528C6.84404 56.8191 6.61376 56.9174 6.37114 56.9301L6.32021 56.9235Z" fill="#121728"/>
<path d="M10.715 38.4376C8.04366 38.4376 6.88047 37.0149 6.01301 35.9552L5.9358 35.8599C5.91531 35.8397 5.89931 35.8154 5.8888 35.7887C5.8783 35.7619 5.87354 35.7332 5.87483 35.7044C5.87612 35.6757 5.88344 35.6476 5.8963 35.6218C5.90916 35.5961 5.92728 35.5734 5.94949 35.5551C5.97171 35.5368 5.99751 35.5234 6.02523 35.5157C6.05296 35.5081 6.08198 35.5063 6.11043 35.5106C6.13887 35.5148 6.16611 35.525 6.19037 35.5405C6.21462 35.5559 6.23536 35.5763 6.25124 35.6003L6.3301 35.694C7.25506 36.8259 8.40345 38.2323 11.3278 37.994C12.3413 37.9009 13.3064 37.5176 14.1076 36.89C14.1428 36.8624 14.1862 36.8474 14.2309 36.8473C14.2855 36.8473 14.3379 36.8689 14.3767 36.9073C14.4154 36.9458 14.4374 36.998 14.4379 37.0527C14.4383 37.088 14.4294 37.1229 14.4121 37.1537C14.3948 37.1846 14.3697 37.2103 14.3393 37.2284C13.4811 37.9001 12.4476 38.3102 11.3623 38.4097C11.1373 38.4294 10.9204 38.4376 10.715 38.4376Z" fill="#121728"/>
<path d="M12.0245 24.5073C12.0017 24.5073 11.979 24.504 11.9571 24.4974C11.9282 24.487 11.902 24.4704 11.8801 24.4489C11.8583 24.4273 11.8414 24.4013 11.8306 24.3725C11.7928 24.269 11.7616 24.1672 11.732 24.067L11.7222 24.0423C11.6232 23.7187 11.5431 23.3895 11.4823 23.0566C11.4529 22.8956 11.4591 22.7302 11.5004 22.5719C11.5425 22.4026 11.624 22.2457 11.7382 22.1138C11.8523 21.9819 11.996 21.8788 12.1576 21.8129C12.4308 21.7118 12.6647 21.5262 12.8251 21.283C12.9856 21.0398 13.0642 20.7518 13.0497 20.4608C13.0373 19.8977 12.8443 19.3534 12.4993 18.9082C12.4659 18.8646 12.4513 18.8096 12.4585 18.7552C12.4658 18.7009 12.4943 18.6516 12.5379 18.6182C12.5815 18.5849 12.6365 18.5703 12.6909 18.5775C12.7452 18.5847 12.7945 18.6133 12.8279 18.6569C13.2307 19.1741 13.4539 19.8085 13.4637 20.4641C13.4776 20.8372 13.3742 21.2054 13.1679 21.5166C12.9615 21.8278 12.6628 22.0665 12.3136 22.199C12.2111 22.2396 12.1199 22.3042 12.0475 22.3874C11.9752 22.4706 11.9239 22.5699 11.898 22.6771C11.872 22.778 11.8681 22.8833 11.8865 22.9859C11.9432 23.2943 12.0172 23.5993 12.1083 23.8994L12.1181 23.9273L12.128 23.9618C12.1469 23.9413 12.1698 23.9249 12.1953 23.9135C12.2208 23.9022 12.2483 23.8961 12.2762 23.8958C12.3041 23.8954 12.3318 23.9007 12.3576 23.9114C12.3834 23.9221 12.4067 23.938 12.4261 23.958C12.4456 23.978 12.4608 24.0017 12.4707 24.0278C12.4807 24.0539 12.4852 24.0817 12.4841 24.1096C12.4829 24.1375 12.4761 24.1648 12.464 24.19C12.452 24.2151 12.4349 24.2376 12.4138 24.2559C12.3277 24.3405 12.233 24.4159 12.1313 24.481C12.0988 24.4994 12.0618 24.5085 12.0245 24.5073Z" fill="#121728"/>
<path d="M13.1513 61.532C13.0036 61.5324 12.8572 61.5035 12.7208 61.4467C12.5844 61.39 12.4607 61.3067 12.3568 61.2016C12.253 61.0965 12.1711 60.9718 12.116 60.8348C12.0609 60.6977 12.0336 60.551 12.0358 60.4033C12.0382 60.1054 12.1492 59.8186 12.3479 59.5966C12.3841 59.5559 12.435 59.5312 12.4893 59.528C12.5437 59.5247 12.5972 59.5432 12.6379 59.5794C12.6786 59.6156 12.7033 59.6664 12.7066 59.7208C12.7098 59.7752 12.6913 59.8286 12.6552 59.8694C12.5219 60.0154 12.4476 60.2056 12.4465 60.4033C12.4436 60.4973 12.4598 60.5908 12.494 60.6784C12.5282 60.7659 12.5798 60.8456 12.6457 60.9127C12.7115 60.9798 12.7903 61.0329 12.8772 61.0687C12.9641 61.1045 13.0573 61.1224 13.1513 61.1213C14.1699 61.1213 15.7438 59.3617 15.8555 58.7226H15.8161C15.3117 58.7226 14.7564 58.9789 14.2176 59.227C14.0615 59.2993 13.9071 59.3699 13.7576 59.4324C13.7328 59.4434 13.7059 59.449 13.6787 59.4488C13.6241 59.4488 13.5717 59.4272 13.5329 59.3887C13.4941 59.3503 13.4721 59.298 13.4717 59.2434C13.4713 59.2 13.4849 59.1577 13.5103 59.1225C13.5357 59.0873 13.5717 59.0612 13.613 59.0479C13.7543 58.9888 13.8988 58.9214 14.0467 58.854C14.6234 58.5879 15.2214 58.3119 15.8161 58.3119C15.8605 58.3119 15.9016 58.3119 15.9443 58.3119H15.9623C15.9903 58.313 16.0176 58.3199 16.0428 58.332C16.0679 58.3442 16.0903 58.3614 16.1086 58.3825C16.1546 58.4351 16.1956 58.486 16.2384 58.5468C16.2655 58.5834 16.2799 58.6278 16.2794 58.6733C16.2729 59.5161 14.4147 61.532 13.1513 61.532Z" fill="#121728"/>
<path d="M6.2217 58.1739H6.1264C5.97843 58.1636 5.83402 58.1238 5.70175 58.0566C5.56949 57.9895 5.45205 57.8964 5.35643 57.783C5.26081 57.6696 5.18895 57.5382 5.14511 57.3965C5.10127 57.2548 5.08635 57.1057 5.10123 56.9581C5.12729 56.6605 5.26176 56.3828 5.4791 56.1778C5.49905 56.1594 5.52243 56.1452 5.54788 56.1359C5.57334 56.1266 5.60038 56.1224 5.62746 56.1235C5.65454 56.1247 5.68113 56.1311 5.70571 56.1426C5.73029 56.154 5.75238 56.1701 5.77072 56.1901C5.78906 56.21 5.80328 56.2334 5.81259 56.2589C5.82189 56.2843 5.82609 56.3114 5.82495 56.3384C5.82381 56.3655 5.81734 56.3921 5.80592 56.4167C5.7945 56.4413 5.77835 56.4634 5.75839 56.4817C5.6137 56.6167 5.52414 56.8004 5.50703 56.9976C5.49637 57.0913 5.50493 57.1863 5.53218 57.2767C5.55943 57.367 5.60479 57.4509 5.66552 57.5231C5.72624 57.5954 5.80104 57.6545 5.88537 57.6969C5.96969 57.7393 6.06177 57.7641 6.15598 57.7697C7.2058 57.8502 8.87335 56.2303 9.03764 55.5896L9.02943 55.5781H8.98836C8.48399 55.5387 7.90568 55.7539 7.34545 55.9609L7.21401 56.0102C7.16281 56.0289 7.10627 56.0265 7.05682 56.0036C7.00737 55.9806 6.96906 55.939 6.95033 55.8878C6.93159 55.8366 6.93396 55.78 6.95691 55.7306C6.97987 55.6811 7.02152 55.6428 7.07272 55.6241L7.20251 55.5764C7.80382 55.353 8.42484 55.1214 9.02121 55.169C9.06886 55.169 9.11486 55.1789 9.15922 55.1854C9.21492 55.1922 9.26599 55.2198 9.30216 55.2627C9.33994 55.3103 9.37444 55.3596 9.40894 55.4089L9.42045 55.4269C9.44851 55.4659 9.46136 55.5139 9.45659 55.5617C9.38595 56.3798 7.48345 58.1739 6.2217 58.1739Z" fill="#121728"/>
<path d="M16.3157 33.6107C16.0204 33.6093 15.7344 33.5078 15.5043 33.3228C15.2742 33.1378 15.1137 32.8802 15.049 32.5921L14.1257 30.3134C14.125 30.3079 14.125 30.3024 14.1257 30.297L13.9828 29.9454C13.9623 29.8948 13.9627 29.8382 13.984 29.788C14.0052 29.7378 14.0456 29.6981 14.0961 29.6776C14.1467 29.6571 14.2033 29.6575 14.2535 29.6788C14.3037 29.7001 14.3434 29.7404 14.3639 29.7909L14.5118 30.1573C14.5124 30.1628 14.5124 30.1683 14.5118 30.1737L15.4367 32.4541C15.4413 32.4665 15.4452 32.4791 15.4482 32.4919C15.4905 32.708 15.6119 32.9006 15.7886 33.0319C15.9654 33.1633 16.1849 33.2238 16.404 33.2019C16.6231 33.1799 16.8261 33.0769 16.9733 32.913C17.1204 32.7492 17.2011 32.5363 17.1996 32.3161C17.2013 32.292 17.2013 32.2679 17.1996 32.2438C16.9597 29.6151 16.7231 28.0527 16.4077 27.0177C16.3155 26.6935 16.1876 26.3806 16.0265 26.0845C15.5632 25.2631 14.9455 25.0511 13.986 24.7965L13.7035 24.7226C13.273 24.6108 12.7851 24.4843 12.2248 24.302H12.2117C12.0934 24.2642 11.9718 24.2231 11.8503 24.1788C11.7991 24.16 11.7574 24.1217 11.7344 24.0723C11.7115 24.0228 11.7091 23.9663 11.7279 23.9151C11.7466 23.8639 11.7849 23.8222 11.8344 23.7993C11.8838 23.7763 11.9404 23.7739 11.9915 23.7927C12.1033 23.8337 12.2166 23.8715 12.3201 23.9077H12.3349C12.8837 24.0884 13.3683 24.2149 13.7971 24.325L14.0813 24.4006C15.0835 24.6651 15.8327 24.9263 16.3732 25.8792C16.5504 26.2012 16.6904 26.5424 16.7905 26.8961C17.1191 27.9575 17.3557 29.5429 17.5972 32.1962C17.6027 32.2348 17.6054 32.2738 17.6054 32.3128C17.605 32.631 17.4876 32.938 17.2755 33.1752C17.0634 33.4124 16.7715 33.5633 16.4553 33.5992C16.4091 33.6061 16.3624 33.6099 16.3157 33.6107Z" fill="#121728"/>
<path d="M16.1992 26.1896C16.15 26.1893 16.1026 26.1714 16.0655 26.1392C16.0285 26.1069 16.0042 26.0624 15.9971 26.0138L15.6882 23.8928C15.6838 23.854 15.6767 23.8156 15.6669 23.7778C15.6172 23.5556 15.5184 23.3473 15.3777 23.1683L14.4018 21.9377C14.3849 21.9166 14.3724 21.8924 14.3649 21.8664C14.3574 21.8404 14.3551 21.8132 14.3582 21.7863C14.3613 21.7595 14.3696 21.7335 14.3827 21.7098C14.3958 21.6862 14.4135 21.6654 14.4347 21.6486C14.4557 21.6317 14.4798 21.6192 14.5056 21.6118C14.5315 21.6043 14.5586 21.602 14.5853 21.6051C14.612 21.6081 14.6379 21.6165 14.6614 21.6296C14.6849 21.6427 14.7055 21.6603 14.7222 21.6814L15.6997 22.9136C15.8786 23.1408 16.0044 23.4053 16.0677 23.6874C16.08 23.7361 16.0894 23.7855 16.0957 23.8353L16.4029 25.9546C16.4068 25.9812 16.4055 26.0083 16.399 26.0343C16.3924 26.0603 16.3808 26.0848 16.3648 26.1063C16.3488 26.1278 16.3286 26.146 16.3056 26.1597C16.2825 26.1734 16.257 26.1825 16.2304 26.1863L16.1992 26.1896Z" fill="#121728"/>
<path d="M14.0337 24.8047C13.981 24.8043 13.9305 24.7839 13.8923 24.7476C13.8541 24.7113 13.8313 24.6618 13.8283 24.6092C13.8163 24.3457 13.8612 24.0826 13.9598 23.838C14.0585 23.5934 14.2086 23.3728 14.4001 23.1913C14.4386 23.1528 14.4909 23.1311 14.5455 23.1311C14.6 23.1311 14.6523 23.1528 14.6909 23.1913C14.7294 23.2299 14.7511 23.2822 14.7511 23.3367C14.7511 23.3913 14.7294 23.4436 14.6909 23.4821C14.5402 23.6229 14.4218 23.7946 14.3438 23.9854C14.2658 24.1763 14.2301 24.3818 14.2391 24.5878C14.2404 24.6148 14.2364 24.6418 14.2273 24.6672C14.2182 24.6926 14.2041 24.716 14.186 24.736C14.1678 24.756 14.1459 24.7722 14.1214 24.7837C14.097 24.7952 14.0705 24.8018 14.0436 24.803L14.0337 24.8047Z" fill="#121728"/>
<path d="M14.5479 23.5413C14.5073 23.5413 14.4677 23.5294 14.4339 23.5069C14.4001 23.4845 14.3737 23.4525 14.3581 23.4151C14.3424 23.3777 14.3382 23.3364 14.346 23.2966C14.3537 23.2568 14.3731 23.2201 14.4017 23.1913C14.6515 22.9467 14.9438 22.7496 15.2642 22.6097C15.2891 22.598 15.316 22.5913 15.3435 22.5901C15.371 22.589 15.3984 22.5934 15.4242 22.603C15.4499 22.6127 15.4735 22.6274 15.4934 22.6463C15.5134 22.6652 15.5293 22.6879 15.5404 22.7131C15.5514 22.7383 15.5572 22.7655 15.5575 22.793C15.5578 22.8205 15.5526 22.8478 15.5422 22.8732C15.5317 22.8987 15.5163 22.9218 15.4968 22.9411C15.4773 22.9605 15.454 22.9757 15.4285 22.986C15.1554 23.1045 14.906 23.2714 14.6925 23.4788C14.6737 23.4983 14.6513 23.5139 14.6265 23.5246C14.6017 23.5353 14.5749 23.541 14.5479 23.5413Z" fill="#121728"/>
<path d="M10.779 24.8326C9.47284 24.8326 9.24776 24.1837 9.10976 23.3984C9.10976 23.3803 9.10976 23.3639 9.0999 23.3474C9.09004 23.331 9.05062 22.8743 9.0309 22.2335V22.1629C8.98654 20.4871 9.14097 18.3612 10.1316 17.6827C10.1537 17.6671 10.1786 17.6562 10.2049 17.6504C10.2312 17.6447 10.2584 17.6442 10.2848 17.6491C10.3113 17.654 10.3365 17.6642 10.359 17.6789C10.3815 17.6937 10.4009 17.7129 10.4159 17.7352C10.4312 17.7574 10.442 17.7825 10.4477 17.8089C10.4533 17.8353 10.4537 17.8625 10.4489 17.8891C10.444 17.9156 10.4339 17.9409 10.4192 17.9636C10.4045 17.9863 10.3855 18.0058 10.3633 18.0211C9.71928 18.4614 9.37756 19.9647 9.44163 22.1415C9.44163 22.1415 9.44163 22.1645 9.44163 22.181V22.2122C9.4597 22.8463 9.5057 23.2883 9.50734 23.2932C9.50899 23.2981 9.50734 23.3096 9.50734 23.3179C9.63056 24.0227 9.74885 24.4219 10.7724 24.4219C11.1704 24.4362 11.564 24.3352 11.906 24.1311C11.9285 24.114 11.9542 24.1018 11.9816 24.0952C12.0091 24.0885 12.0376 24.0876 12.0653 24.0924C12.0931 24.0973 12.1196 24.1078 12.1432 24.1233C12.1667 24.1388 12.1868 24.1591 12.2022 24.1827C12.2176 24.2064 12.228 24.2329 12.2326 24.2608C12.2373 24.2886 12.2362 24.3171 12.2293 24.3444C12.2225 24.3718 12.2101 24.3975 12.1929 24.4199C12.1757 24.4422 12.1541 24.4608 12.1294 24.4745C11.7236 24.7224 11.2543 24.8469 10.779 24.8326Z" fill="#121728"/>
<path d="M10.0299 22.7001C9.71437 22.6717 9.40938 22.5723 9.13778 22.4093C9.09271 22.3826 9.05951 22.3398 9.04497 22.2895C9.03044 22.2392 9.03566 22.1852 9.05958 22.1387C9.0835 22.0921 9.1243 22.0564 9.17364 22.0389C9.22299 22.0214 9.27716 22.0234 9.32507 22.0446C9.62079 22.1957 9.92145 22.3271 10.1153 22.2795C10.3815 22.2138 10.9483 21.0029 11.3097 19.9153C11.3232 19.8763 11.3477 19.842 11.3804 19.8168C11.8002 19.4826 12.1757 19.0961 12.4975 18.6667C12.6839 18.4196 12.8252 18.1415 12.9148 17.8453C12.5994 17.6563 11.6202 17.2062 10.411 17.98L10.3568 18.0161C10.3122 18.0475 10.2569 18.0598 10.2031 18.0504C10.1493 18.0411 10.1015 18.0107 10.0701 17.966C10.0388 17.9214 10.0264 17.8661 10.0358 17.8123C10.0452 17.7585 10.0756 17.7107 10.1202 17.6793L10.1597 17.6547L10.1827 17.6383C10.4977 17.4205 10.8537 17.2692 11.2291 17.1935C11.6045 17.1178 11.9913 17.1193 12.3661 17.198C12.6918 17.2663 13.0003 17.3998 13.273 17.5906C13.3028 17.6138 13.3256 17.6448 13.339 17.6802C13.3523 17.7156 13.3556 17.7539 13.3486 17.7911C13.2591 18.1935 13.0824 18.5715 12.831 18.8984C12.4994 19.3457 12.113 19.7497 11.681 20.101C11.4641 20.7384 10.8119 22.5243 10.2155 22.6754C10.1549 22.691 10.0925 22.6993 10.0299 22.7001Z" fill="#121728"/>
<path d="M33.1621 43.593C33.1082 43.593 33.0565 43.5719 33.018 43.5341C32.9796 43.4963 32.9576 43.4449 32.9568 43.391C32.8993 40.1331 31.3796 36.9245 28.562 34.1102C26.9884 32.5729 25.221 31.2473 23.3046 30.1672C21.1504 28.9401 18.8797 27.9297 16.526 27.1508C16.4744 27.1333 16.4318 27.0961 16.4076 27.0473C16.3834 26.9984 16.3796 26.942 16.397 26.8904C16.4144 26.8387 16.4517 26.7961 16.5005 26.772C16.5493 26.7478 16.6058 26.744 16.6574 26.7614C19.0371 27.5487 21.3326 28.5707 23.51 29.8123C25.4547 30.91 27.2479 32.2565 28.8445 33.8177C30.9163 35.8861 32.3062 38.1698 32.9518 40.5356V40.3976C32.9518 40.3431 32.9735 40.2909 33.012 40.2524C33.0505 40.2139 33.1027 40.1922 33.1572 40.1922C33.2117 40.1922 33.2639 40.2139 33.3024 40.2524C33.3409 40.2909 33.3626 40.3431 33.3626 40.3976V43.3877C33.3626 43.4419 33.3411 43.4938 33.303 43.5323C33.2648 43.5708 33.213 43.5926 33.1588 43.593H33.1621Z" fill="#121728"/>
<path d="M33.1622 40.6046C33.1077 40.6046 33.0555 40.583 33.017 40.5444C32.9785 40.5059 32.9568 40.4537 32.9568 40.3992V19.2287C32.8993 15.974 31.3796 12.7638 28.562 9.95112C26.9885 8.41383 25.2211 7.08832 23.3047 6.00813C17.1881 2.47587 9.06559 0.491231 0.410728 0.410728V21.3743C0.410728 21.4288 0.389091 21.481 0.350578 21.5195C0.312065 21.558 0.25983 21.5797 0.205364 21.5797C0.150898 21.5797 0.0986634 21.558 0.0601502 21.5195C0.021637 21.481 0 21.4288 0 21.3743V0.205364C8.31545e-05 0.150494 0.0219465 0.0979047 0.060787 0.0591475C0.100797 0.0224412 0.152725 0.00143294 0.207004 0C9.00809 0.0509303 17.2834 2.05857 23.5101 5.65491C25.4569 6.75162 27.2525 8.09756 28.8512 9.65869C31.746 12.5486 33.3084 15.8558 33.3675 19.2237V40.3992C33.3675 40.4537 33.3459 40.5059 33.3074 40.5444C33.2689 40.583 33.2167 40.6046 33.1622 40.6046Z" fill="#121728"/>
<path d="M5.5086 24.8424H5.48888C3.75725 24.6782 1.98126 24.5796 0.211845 24.5697C0.157379 24.5697 0.105145 24.5481 0.0666314 24.5096C0.0281182 24.4711 0.00648117 24.4188 0.00648117 24.3644V21.3759C0.00648117 21.3214 0.0281182 21.2692 0.0666314 21.2307C0.105145 21.1922 0.157379 21.1705 0.211845 21.1705C0.266311 21.1705 0.318546 21.1922 0.357059 21.2307C0.395572 21.2692 0.417209 21.3214 0.417209 21.3759V24.1606C2.13241 24.1771 3.8509 24.2674 5.52831 24.4334C5.5797 24.4397 5.62679 24.4653 5.66013 24.5049C5.69347 24.5446 5.71061 24.5953 5.70812 24.647C5.70563 24.6988 5.68369 24.7476 5.64669 24.7839C5.60969 24.8201 5.56037 24.841 5.5086 24.8424Z" fill="#121728"/>
<path d="M33.162 40.6046C33.1081 40.6046 33.0564 40.5834 33.018 40.5456C32.9796 40.5078 32.9575 40.4564 32.9567 40.4025C32.868 35.4163 29.4425 30.7208 23.3111 27.1803C20.9337 25.8283 18.4169 24.7376 15.8047 23.9274C15.7526 23.9108 15.7092 23.8742 15.6841 23.8257C15.659 23.7772 15.6542 23.7207 15.6708 23.6686C15.6873 23.6165 15.7239 23.5732 15.7724 23.5481C15.8209 23.523 15.8775 23.5182 15.9295 23.5347C18.5694 24.3538 21.1131 25.4555 23.5165 26.8205C29.7776 30.4349 33.2754 35.2553 33.374 40.391C33.3744 40.418 33.3695 40.4448 33.3596 40.4698C33.3497 40.4949 33.3349 40.5178 33.3162 40.5372C33.2974 40.5566 33.275 40.572 33.2502 40.5828C33.2255 40.5935 33.1989 40.5992 33.1719 40.5996L33.162 40.6046Z" fill="#121728"/>
<path d="M14.5479 23.5412C14.5288 23.5437 14.5095 23.5437 14.4904 23.5412C13.5588 23.2767 12.6076 23.0369 11.6613 22.8315C11.6149 22.8217 11.5733 22.7963 11.5434 22.7595C11.5135 22.7228 11.4971 22.6768 11.497 22.6294C11.4978 22.5988 11.5053 22.5688 11.519 22.5414C11.5327 22.514 11.5521 22.4899 11.5761 22.4708C11.6 22.4517 11.6278 22.4381 11.6576 22.4309C11.6873 22.4236 11.7183 22.423 11.7483 22.429C12.7012 22.636 13.6623 22.8775 14.6021 23.1437C14.6503 23.1561 14.6923 23.1857 14.7203 23.2268C14.7483 23.268 14.7605 23.3179 14.7544 23.3673C14.7484 23.4167 14.7247 23.4623 14.6876 23.4955C14.6505 23.5287 14.6026 23.5473 14.5528 23.5478L14.5479 23.5412Z" fill="#121728"/>
<path d="M9.23472 22.3518C9.22328 22.3534 9.21167 22.3534 9.20022 22.3518C6.22943 21.8562 3.22366 21.5996 0.211845 21.5846C0.157379 21.5846 0.105145 21.5629 0.0666314 21.5244C0.0281182 21.4859 0.00648117 21.4337 0.00648117 21.3792C0.00648117 21.3247 0.0281182 21.2725 0.0666314 21.234C0.105145 21.1955 0.157379 21.1738 0.211845 21.1738C3.24407 21.1894 6.27016 21.4482 9.26101 21.9476C9.31092 21.9565 9.3558 21.9834 9.38703 22.0234C9.41825 22.0633 9.4336 22.1133 9.43014 22.1639C9.42667 22.2145 9.40463 22.262 9.36825 22.2973C9.33187 22.3326 9.28373 22.3532 9.23308 22.3551L9.23472 22.3518Z" fill="#121728"/>
<path d="M28.4865 17.9948C28.4581 17.995 28.43 17.9892 28.4039 17.9779C28.3779 17.9666 28.3545 17.9499 28.3353 17.9291C27.1843 16.709 25.8608 15.664 24.4071 14.8272C24.363 14.7983 24.3318 14.7534 24.3199 14.702C24.308 14.6507 24.3163 14.5967 24.3431 14.5512C24.37 14.5058 24.4133 14.4725 24.464 14.4581C24.5148 14.4437 24.5691 14.4494 24.6157 14.474C26.1045 15.3308 27.4596 16.4013 28.6376 17.6514C28.6742 17.6914 28.6936 17.7442 28.6914 17.7984C28.6893 17.8525 28.6658 17.9036 28.6261 17.9406C28.5878 17.9752 28.5381 17.9945 28.4865 17.9948Z" fill="#121728"/>
<path d="M28.4865 20.2686C28.458 20.2685 28.4298 20.2624 28.4038 20.2508C28.3778 20.2392 28.3544 20.2223 28.3353 20.2012C27.1841 18.9818 25.8607 17.9374 24.4071 17.101C24.363 17.0721 24.3318 17.0272 24.3199 16.9758C24.308 16.9245 24.3163 16.8705 24.3431 16.825C24.37 16.7796 24.4133 16.7463 24.464 16.7319C24.5148 16.7175 24.5691 16.7232 24.6157 16.7478C26.1045 17.604 27.4595 18.674 28.6376 19.9236C28.6743 19.9638 28.6937 20.0169 28.6916 20.0713C28.6894 20.1258 28.6659 20.1772 28.6261 20.2144C28.5878 20.249 28.5381 20.2683 28.4865 20.2686Z" fill="#FAD657"/>
<path d="M28.4865 22.5407C28.4581 22.5409 28.43 22.5352 28.404 22.5238C28.3779 22.5125 28.3546 22.4959 28.3353 22.475C27.1847 21.255 25.8612 20.2105 24.4071 19.3748C24.3601 19.3472 24.3259 19.3019 24.3122 19.2491C24.2985 19.1963 24.3064 19.1401 24.334 19.0931C24.3617 19.046 24.4069 19.0119 24.4598 18.9982C24.5126 18.9845 24.5687 18.9923 24.6158 19.02C26.1042 19.8773 27.4592 20.9477 28.6376 22.1974C28.6743 22.2373 28.6936 22.2901 28.6915 22.3443C28.6893 22.3985 28.6658 22.4496 28.6261 22.4865C28.5878 22.5211 28.5381 22.5404 28.4865 22.5407Z" fill="#121728"/>
<path d="M18.5353 17.0798C18.5066 17.0801 18.4781 17.0745 18.4515 17.0634C14.4888 15.3055 9.7441 14.2261 4.74801 13.9418C4.71645 13.9401 4.68574 13.931 4.6583 13.9153C4.63087 13.8996 4.60746 13.8777 4.58993 13.8514C4.5724 13.8251 4.56123 13.7951 4.5573 13.7638C4.55337 13.7324 4.55678 13.7006 4.56728 13.6708L4.58043 13.6297C4.62478 13.5032 4.6675 13.3783 4.70857 13.2502C4.71596 13.228 4.72647 13.207 4.73979 13.1877C4.87286 13.012 5.0158 12.7852 5.16695 12.5437C5.69925 11.6943 6.36135 10.6379 7.33559 10.6379C7.89747 10.6379 8.32134 10.9517 8.73042 11.254C9.10008 11.5284 9.45002 11.788 9.88046 11.788C10.7019 11.788 11.2424 11.1423 11.8092 10.4589C12.4434 9.69491 13.1614 8.8291 14.3919 8.8291C15.031 8.8291 15.5699 9.06403 16.0923 9.2924C16.531 9.48298 16.945 9.6637 17.359 9.6637C17.7509 9.65255 18.1253 9.49894 18.4121 9.23161C18.4419 9.20623 18.4783 9.18995 18.517 9.18471C18.5558 9.17946 18.5952 9.18548 18.6306 9.20204C18.6661 9.21885 18.696 9.24537 18.7169 9.27853C18.7379 9.31169 18.749 9.35011 18.7489 9.38933V16.8794C18.7488 16.9136 18.7402 16.9473 18.7238 16.9774C18.7075 17.0075 18.6839 17.0331 18.6553 17.0519C18.6193 17.0738 18.5773 17.0835 18.5353 17.0798ZM5.04373 13.5443C9.87389 13.8498 14.4543 14.8898 18.33 16.5606V9.78363C18.0348 9.96974 17.6931 10.0688 17.3442 10.0695C16.8513 10.0695 16.393 9.87235 15.9132 9.6637C15.4335 9.45505 14.9275 9.2349 14.3771 9.2349C13.3388 9.2349 12.7424 9.9545 12.1099 10.7135C11.5069 11.4397 10.8843 12.1921 9.86568 12.1921C9.30873 12.1921 8.87993 11.88 8.47906 11.5777C8.10776 11.3033 7.75618 11.0421 7.32902 11.0421C6.5815 11.0421 5.98676 11.9917 5.50868 12.7557C5.36081 12.9922 5.21952 13.2157 5.08316 13.4013C5.07495 13.449 5.05851 13.4966 5.04373 13.5443Z" fill="#121728"/>
</svg>
