<svg width="44" height="52" viewBox="0 0 44 52" fill="none" xmlns="http://www.w3.org/2000/svg">
<path d="M10.4657 44.2852C9.54306 44.2479 8.64297 43.9887 7.84173 43.5296L7.68786 43.4417C5.70679 42.208 4.48682 39.6801 4.48682 36.1191V33.0225C4.48682 25.7192 9.61397 16.8388 15.9418 13.1871L31.3288 4.2984C34.4282 2.50966 37.2418 2.30909 39.297 3.43014C41.1297 4.4248 42.3689 6.45257 42.6904 9.3651C42.7466 9.87973 42.7741 10.3971 42.7728 10.9148V14.0059C42.7728 16.7838 42.0337 19.776 40.7698 22.6446C38.7063 27.3156 35.2442 31.58 31.3233 33.8441L19.9919 40.3835C19.349 45.0546 15.9171 49.3904 13.065 51.649C14.252 48.9727 14.9362 45.7745 14.928 43.2576C13.3233 44.0215 11.8149 44.3512 10.4657 44.2852ZM30.8287 21.5043C31.3194 21.1838 31.728 20.7525 32.0215 20.2452C32.315 19.7379 32.4853 19.1687 32.5185 18.5835C32.5185 17.5065 31.7602 17.0696 30.8287 17.6081C30.339 17.9287 29.9317 18.3603 29.64 18.8677C29.3483 19.3752 29.1804 19.9443 29.1499 20.5289C29.1499 21.606 29.8945 22.0429 30.826 21.5043H30.8287ZM23.6353 25.656C24.1261 25.3359 24.5346 24.9046 24.8277 24.3972C25.1208 23.8897 25.2903 23.3204 25.3224 22.7353C25.3224 21.6582 24.5668 21.2213 23.6353 21.7598C23.1447 22.0802 22.7363 22.5115 22.4432 23.0189C22.1501 23.5263 21.9806 24.0955 21.9482 24.6806C21.9455 25.7577 22.6984 26.1918 23.6326 25.656H23.6353ZM16.4364 29.8078C16.9276 29.4873 17.3363 29.0556 17.6294 28.5477C17.9226 28.0397 18.0918 27.4698 18.1235 26.8842C18.1235 25.8099 17.3679 25.373 16.4392 25.9116C15.9481 26.2314 15.5393 26.6626 15.2462 27.1701C14.9531 27.6776 14.7838 28.2471 14.7521 28.8323C14.7521 29.9039 15.505 30.3408 16.4364 29.8078Z" fill="#EAF0FF"/>
<path d="M34.6591 29.7004C34.7635 29.6999 34.8658 29.7304 34.9529 29.788C35.04 29.8457 35.1081 29.9279 35.1484 30.0242C35.1888 30.1205 35.1996 30.2267 35.1796 30.3292C35.1595 30.4317 35.1095 30.526 35.0358 30.6001C34.9622 30.6741 34.8682 30.7246 34.7658 30.7452C34.6634 30.7658 34.5571 30.7555 34.4606 30.7157C34.364 30.6758 34.2815 30.6082 34.2234 30.5214C34.1653 30.4346 34.1343 30.3325 34.1343 30.228C34.1343 30.0886 34.1895 29.9548 34.2878 29.8559C34.3862 29.7571 34.5196 29.7012 34.6591 29.7004Z" fill="#121728"/>
<path d="M14.145 32.7668C14.1756 32.7668 14.2049 32.779 14.2266 32.8006C14.2482 32.8223 14.2604 32.8516 14.2604 32.8822C14.2604 32.9128 14.2482 32.9422 14.2266 32.9638C14.2049 32.9855 14.1756 32.9976 14.145 32.9976C14.1143 32.9976 14.085 32.9855 14.0634 32.9638C14.0417 32.9422 14.0295 32.9128 14.0295 32.8822C14.0295 32.8516 14.0417 32.8223 14.0634 32.8006C14.085 32.779 14.1143 32.7668 14.145 32.7668Z" fill="#121728"/>
<path d="M25.2728 30.926C25.3272 30.926 25.3803 30.9421 25.4255 30.9723C25.4706 31.0025 25.5059 31.0454 25.5267 31.0956C25.5475 31.1458 25.5529 31.2011 25.5423 31.2544C25.5317 31.3077 25.5055 31.3567 25.4671 31.3951C25.4287 31.4335 25.3797 31.4597 25.3264 31.4703C25.2731 31.4809 25.2179 31.4754 25.1677 31.4546C25.1175 31.4338 25.0745 31.3986 25.0444 31.3534C25.0142 31.3083 24.998 31.2551 24.998 31.2008C24.998 31.1279 25.027 31.058 25.0785 31.0065C25.1301 30.955 25.1999 30.926 25.2728 30.926Z" fill="#121728"/>
<path d="M6.8223 36.8995C6.83816 36.8989 6.85383 36.9031 6.86729 36.9115C6.88075 36.92 6.89139 36.9322 6.89785 36.9467C6.9043 36.9612 6.90627 36.9773 6.90351 36.9929C6.90076 37.0086 6.89339 37.023 6.88237 37.0344C6.87134 37.0459 6.85716 37.0537 6.84163 37.057C6.8261 37.0603 6.80994 37.0589 6.79522 37.053C6.7805 37.0471 6.76789 37.0368 6.759 37.0237C6.75012 37.0105 6.74537 36.995 6.74536 36.9791C6.74535 36.9585 6.75337 36.9386 6.76772 36.9237C6.78208 36.9089 6.80164 36.9002 6.8223 36.8995Z" fill="#121728"/>
<path d="M32.9966 27.5325C33.0744 27.5319 33.1507 27.5545 33.2156 27.5974C33.2806 27.6402 33.3314 27.7014 33.3616 27.7731C33.3917 27.8449 33.3999 27.924 33.3851 28.0004C33.3702 28.0768 33.333 28.147 33.2782 28.2023C33.2233 28.2575 33.1533 28.2952 33.077 28.3106C33.0007 28.3259 32.9216 28.3183 32.8496 28.2887C32.7777 28.259 32.7162 28.2087 32.6729 28.144C32.6296 28.0793 32.6064 28.0032 32.6064 27.9254C32.6064 27.8217 32.6475 27.7221 32.7206 27.6485C32.7936 27.5749 32.8929 27.5332 32.9966 27.5325Z" fill="#121728"/>
<path d="M32.3812 13.3327C32.4131 13.3327 32.4389 13.3069 32.4389 13.275C32.4389 13.2431 32.4131 13.2173 32.3812 13.2173C32.3493 13.2173 32.3235 13.2431 32.3235 13.275C32.3235 13.3069 32.3493 13.3327 32.3812 13.3327Z" fill="#121728"/>
<path d="M22.5197 34.77C22.5833 34.77 22.6455 34.7889 22.6983 34.8242C22.7512 34.8595 22.7924 34.9097 22.8167 34.9685C22.8411 35.0272 22.8474 35.0919 22.835 35.1542C22.8226 35.2166 22.792 35.2739 22.747 35.3188C22.7021 35.3638 22.6448 35.3944 22.5824 35.4068C22.5201 35.4192 22.4554 35.4128 22.3967 35.3885C22.3379 35.3642 22.2877 35.323 22.2524 35.2701C22.2171 35.2172 22.1982 35.1551 22.1982 35.0915C22.1982 35.0062 22.2321 34.9245 22.2924 34.8642C22.3527 34.8039 22.4345 34.77 22.5197 34.77Z" fill="#121728"/>
<path d="M29.3395 16.6188C29.3487 16.6169 29.3582 16.617 29.3674 16.6192C29.3765 16.6214 29.3851 16.6256 29.3924 16.6315C29.3997 16.6375 29.4056 16.6449 29.4096 16.6534C29.4137 16.6619 29.4158 16.6712 29.4158 16.6806C29.4158 16.69 29.4137 16.6993 29.4096 16.7078C29.4056 16.7163 29.3997 16.7238 29.3924 16.7297C29.3851 16.7356 29.3765 16.7399 29.3674 16.7421C29.3582 16.7443 29.3487 16.7444 29.3395 16.7425C29.3303 16.7444 29.3208 16.7443 29.3116 16.7421C29.3024 16.7399 29.2939 16.7356 29.2866 16.7297C29.2793 16.7238 29.2734 16.7163 29.2693 16.7078C29.2653 16.6993 29.2632 16.69 29.2632 16.6806C29.2632 16.6712 29.2653 16.6619 29.2693 16.6534C29.2734 16.6449 29.2793 16.6375 29.2866 16.6315C29.2939 16.6256 29.3024 16.6214 29.3116 16.6192C29.3208 16.617 29.3303 16.6169 29.3395 16.6188Z" fill="#121728"/>
<path d="M39.7641 18.5341C39.9129 18.5341 40.0334 18.4136 40.0334 18.2649C40.0334 18.1162 39.9129 17.9956 39.7641 17.9956C39.6154 17.9956 39.4949 18.1162 39.4949 18.2649C39.4949 18.4136 39.6154 18.5341 39.7641 18.5341Z" fill="#121728"/>
<path d="M41.2973 19.4077C41.3674 19.4077 41.436 19.4285 41.4943 19.4675C41.5525 19.5064 41.598 19.5618 41.6248 19.6265C41.6516 19.6913 41.6587 19.7626 41.645 19.8313C41.6313 19.9001 41.5975 19.9632 41.548 20.0128C41.4984 20.0624 41.4352 20.0961 41.3665 20.1098C41.2977 20.1235 41.2265 20.1165 41.1617 20.0896C41.0969 20.0628 41.0416 20.0174 41.0026 19.9591C40.9637 19.9008 40.9429 19.8323 40.9429 19.7622C40.9425 19.7155 40.9514 19.6693 40.9691 19.6261C40.9868 19.5829 41.0129 19.5437 41.0459 19.5107C41.0789 19.4777 41.1181 19.4516 41.1613 19.434C41.2044 19.4163 41.2507 19.4074 41.2973 19.4077Z" fill="#121728"/>
<path d="M20.8906 36.7703C20.9563 36.7703 21.0206 36.7898 21.0753 36.8263C21.13 36.8628 21.1726 36.9147 21.1977 36.9755C21.2229 37.0363 21.2295 37.1031 21.2167 37.1676C21.2038 37.2321 21.1722 37.2913 21.1257 37.3378C21.0792 37.3843 21.0199 37.416 20.9554 37.4288C20.891 37.4416 20.8241 37.4351 20.7633 37.4099C20.7026 37.3847 20.6507 37.3421 20.6141 37.2874C20.5776 37.2328 20.5581 37.1685 20.5581 37.1027C20.5581 37.0591 20.5667 37.0158 20.5834 36.9755C20.6001 36.9352 20.6246 36.8985 20.6555 36.8676C20.6864 36.8368 20.723 36.8123 20.7633 36.7956C20.8037 36.7789 20.8469 36.7703 20.8906 36.7703Z" fill="#121728"/>
<path d="M37.1677 22.293C37.234 22.293 37.2988 22.3126 37.354 22.3495C37.4091 22.3863 37.4521 22.4386 37.4774 22.4999C37.5028 22.5612 37.5094 22.6286 37.4965 22.6936C37.4836 22.7586 37.4516 22.8183 37.4048 22.8652C37.3579 22.9121 37.2982 22.944 37.2331 22.9569C37.1681 22.9699 37.1007 22.9632 37.0394 22.9379C36.9782 22.9125 36.9258 22.8695 36.889 22.8144C36.8522 22.7593 36.8325 22.6945 36.8325 22.6282C36.8325 22.5842 36.8412 22.5406 36.858 22.4999C36.8749 22.4592 36.8996 22.4223 36.9307 22.3911C36.9618 22.36 36.9988 22.3353 37.0394 22.3185C37.0801 22.3016 37.1237 22.293 37.1677 22.293Z" fill="#121728"/>
<path d="M41.7893 13.3438C41.8286 13.3432 41.8671 13.3544 41.9 13.3758C41.9329 13.3972 41.9587 13.4279 41.9741 13.464C41.9895 13.5001 41.9938 13.5399 41.9865 13.5785C41.9791 13.617 41.9605 13.6525 41.933 13.6805C41.9054 13.7084 41.8702 13.7276 41.8317 13.7354C41.7933 13.7433 41.7533 13.7395 41.717 13.7246C41.6807 13.7097 41.6497 13.6844 41.6278 13.6518C41.6059 13.6192 41.5943 13.5808 41.5943 13.5416C41.5939 13.5157 41.5987 13.4901 41.6083 13.4661C41.618 13.4421 41.6323 13.4203 41.6504 13.4019C41.6686 13.3835 41.6902 13.3689 41.714 13.3589C41.7379 13.3489 41.7635 13.3438 41.7893 13.3438Z" fill="#121728"/>
<path d="M6.66024 40.2244C6.68426 40.2244 6.70774 40.2315 6.72768 40.245C6.74761 40.2584 6.76311 40.2774 6.77217 40.2997C6.78123 40.3219 6.78346 40.3464 6.77857 40.3699C6.77368 40.3934 6.76189 40.4149 6.74471 40.4317C6.72752 40.4485 6.70573 40.4598 6.6821 40.4642C6.65847 40.4685 6.63408 40.4657 6.61204 40.4561C6.59 40.4466 6.57131 40.4307 6.55836 40.4104C6.54542 40.3902 6.53879 40.3666 6.53934 40.3425C6.54006 40.3109 6.55311 40.2809 6.5757 40.2588C6.5983 40.2367 6.62864 40.2244 6.66024 40.2244Z" fill="#121728"/>
<path d="M26.6963 27.9175C26.7408 27.9175 26.7844 27.9307 26.8214 27.9554C26.8585 27.9802 26.8874 28.0154 26.9044 28.0566C26.9215 28.0977 26.9259 28.143 26.9172 28.1867C26.9085 28.2305 26.8871 28.2706 26.8556 28.3021C26.8241 28.3336 26.7839 28.3551 26.7402 28.3638C26.6965 28.3725 26.6512 28.368 26.61 28.3509C26.5689 28.3339 26.5337 28.305 26.5089 28.268C26.4842 28.2309 26.4709 28.1874 26.4709 28.1428C26.4709 28.1132 26.4768 28.0839 26.4881 28.0566C26.4994 28.0292 26.516 28.0044 26.5369 27.9835C26.5579 27.9626 26.5827 27.946 26.61 27.9346C26.6374 27.9233 26.6667 27.9175 26.6963 27.9175Z" fill="#121728"/>
<path d="M20.6156 39.0481C20.6961 39.0481 20.7747 39.0719 20.8416 39.1166C20.9084 39.1613 20.9606 39.2248 20.9913 39.2991C21.0221 39.3734 21.0302 39.4552 21.0145 39.5341C20.9988 39.613 20.9601 39.6854 20.9032 39.7423C20.8463 39.7992 20.7739 39.8379 20.695 39.8536C20.6161 39.8693 20.5343 39.8612 20.46 39.8305C20.3857 39.7997 20.3222 39.7476 20.2775 39.6807C20.2328 39.6138 20.209 39.5352 20.209 39.4548C20.2086 39.4013 20.2189 39.3482 20.2392 39.2987C20.2595 39.2492 20.2894 39.2042 20.3273 39.1664C20.3651 39.1286 20.4101 39.0986 20.4596 39.0783C20.5091 39.058 20.5621 39.0477 20.6156 39.0481Z" fill="#121728"/>
<path d="M10.0399 38.875C10.0704 38.875 10.1003 38.8841 10.1256 38.9012C10.151 38.9182 10.1707 38.9424 10.1823 38.9707C10.1938 38.9989 10.1967 39.03 10.1906 39.0599C10.1844 39.0899 10.1695 39.1173 10.1477 39.1387C10.1259 39.1601 10.0982 39.1745 10.0682 39.1801C10.0381 39.1858 10.0071 39.1823 9.97906 39.1703C9.951 39.1582 9.92717 39.138 9.9106 39.1124C9.89402 39.0867 9.88547 39.0567 9.88601 39.0261C9.88601 39.0061 9.89 38.9862 9.89777 38.9677C9.90553 38.9491 9.91691 38.9324 9.93123 38.9183C9.94556 38.9042 9.96255 38.8932 9.9812 38.8857C9.99985 38.8783 10.0198 38.8747 10.0399 38.875Z" fill="#121728"/>
<path d="M9.29514 33.0831C9.3021 33.0827 9.30907 33.0838 9.31558 33.0863C9.3221 33.0887 9.32801 33.0926 9.33294 33.0975C9.33787 33.1024 9.3417 33.1083 9.34418 33.1149C9.34667 33.1214 9.34774 33.1283 9.34734 33.1353C9.34735 33.142 9.34599 33.1487 9.34334 33.1549C9.34068 33.1611 9.33679 33.1667 9.3319 33.1713C9.32701 33.1759 9.32123 33.1795 9.31491 33.1818C9.30859 33.1841 9.30186 33.1851 9.29514 33.1848C9.28202 33.1848 9.26945 33.1796 9.26017 33.1703C9.2509 33.161 9.24568 33.1484 9.24568 33.1353C9.24531 33.1286 9.24631 33.1218 9.24863 33.1155C9.25094 33.1092 9.25453 33.1034 9.25916 33.0985C9.26379 33.0936 9.26937 33.0898 9.27556 33.0871C9.28175 33.0844 9.28841 33.0831 9.29514 33.0831Z" fill="#121728"/>
<path d="M36.0876 25.2575C36.2955 25.2575 36.464 25.089 36.464 24.8811C36.464 24.6732 36.2955 24.5046 36.0876 24.5046C35.8797 24.5046 35.7112 24.6732 35.7112 24.8811C35.7112 25.089 35.8797 25.2575 36.0876 25.2575Z" fill="#121728"/>
<path d="M19.9013 34.4431C19.9503 34.4431 19.9981 34.4576 20.0387 34.4848C20.0794 34.512 20.1111 34.5506 20.1298 34.5958C20.1485 34.641 20.1534 34.6907 20.1439 34.7386C20.1343 34.7866 20.1108 34.8307 20.0762 34.8653C20.0416 34.8998 19.9976 34.9234 19.9496 34.9329C19.9016 34.9425 19.8519 34.9376 19.8067 34.9189C19.7615 34.9002 19.7229 34.8685 19.6957 34.8278C19.6686 34.7871 19.6541 34.7393 19.6541 34.6904C19.6541 34.6248 19.6801 34.5619 19.7265 34.5155C19.7729 34.4692 19.8358 34.4431 19.9013 34.4431Z" fill="#121728"/>
<path d="M30.0181 31.022C30.2396 31.022 30.4193 30.8424 30.4193 30.6209C30.4193 30.3993 30.2396 30.2197 30.0181 30.2197C29.7965 30.2197 29.6169 30.3993 29.6169 30.6209C29.6169 30.8424 29.7965 31.022 30.0181 31.022Z" fill="#121728"/>
<path d="M23.105 37.5178C23.1917 37.5173 23.2765 37.5425 23.3488 37.5903C23.421 37.6381 23.4775 37.7063 23.5109 37.7863C23.5443 37.8662 23.5532 37.9543 23.5364 38.0393C23.5196 38.1243 23.478 38.2024 23.4167 38.2636C23.3554 38.3249 23.2773 38.3666 23.1923 38.3833C23.1073 38.4001 23.0193 38.3912 22.9393 38.3578C22.8594 38.3244 22.7912 38.268 22.7434 38.1957C22.6956 38.1234 22.6704 38.0386 22.6709 37.952C22.6716 37.8371 22.7176 37.727 22.7989 37.6458C22.8801 37.5645 22.9901 37.5186 23.105 37.5178Z" fill="#121728"/>
<path d="M33.1642 31.0605C33.2658 31.0605 33.3652 31.0907 33.4497 31.1471C33.5342 31.2036 33.6 31.2838 33.6389 31.3777C33.6778 31.4716 33.688 31.5749 33.6682 31.6746C33.6483 31.7743 33.5994 31.8658 33.5275 31.9377C33.4557 32.0095 33.3641 32.0585 33.2644 32.0783C33.1648 32.0981 33.0615 32.088 32.9676 32.0491C32.8737 32.0102 32.7935 31.9443 32.737 31.8598C32.6805 31.7753 32.6504 31.676 32.6504 31.5744C32.6504 31.4381 32.7045 31.3074 32.8009 31.211C32.8972 31.1147 33.0279 31.0605 33.1642 31.0605Z" fill="#121728"/>
<path d="M40.0333 6.98014C40.0651 6.98014 40.091 6.95432 40.091 6.92245C40.091 6.89059 40.0651 6.86475 40.0333 6.86475C40.0014 6.86475 39.9756 6.89059 39.9756 6.92245C39.9756 6.95432 40.0014 6.98014 40.0333 6.98014Z" fill="#121728"/>
<path d="M36.5548 10.162C36.5866 10.162 36.6125 10.1362 36.6125 10.1043C36.6125 10.0725 36.5866 10.0466 36.5548 10.0466C36.5229 10.0466 36.4971 10.0725 36.4971 10.1043C36.4971 10.1362 36.5229 10.162 36.5548 10.162Z" fill="#121728"/>
<path d="M34.486 22.5596C34.537 22.5596 34.5869 22.5747 34.6295 22.6028C34.6721 22.6309 34.7055 22.6709 34.7256 22.7178C34.7457 22.7647 34.7516 22.8165 34.7426 22.8667C34.7336 22.9169 34.71 22.9634 34.6749 23.0004C34.6397 23.0374 34.5945 23.0633 34.5448 23.0748C34.4951 23.0864 34.4431 23.0832 34.3953 23.0655C34.3474 23.0478 34.3057 23.0165 34.2755 22.9754C34.2452 22.9343 34.2277 22.8853 34.225 22.8343C34.2231 22.7989 34.2285 22.7635 34.2408 22.7302C34.253 22.697 34.272 22.6665 34.2964 22.6408C34.3208 22.6151 34.3502 22.5946 34.3828 22.5807C34.4154 22.5667 34.4505 22.5595 34.486 22.5596Z" fill="#121728"/>
<path d="M18.9478 42.6614C19.1981 42.6614 19.4011 42.4584 19.4011 42.208C19.4011 41.9576 19.1981 41.7546 18.9478 41.7546C18.6974 41.7546 18.4944 41.9576 18.4944 42.208C18.4944 42.4584 18.6974 42.6614 18.9478 42.6614Z" fill="#121728"/>
<path d="M23.6133 29.1648C23.6504 29.1643 23.6868 29.1748 23.7179 29.195C23.7489 29.2152 23.7733 29.2441 23.7879 29.2782C23.8025 29.3123 23.8065 29.35 23.7996 29.3864C23.7927 29.4228 23.7752 29.4564 23.7491 29.4828C23.7231 29.5092 23.6899 29.5273 23.6535 29.5347C23.6172 29.5421 23.5795 29.5386 23.5452 29.5245C23.5109 29.5105 23.4816 29.4865 23.4609 29.4557C23.4403 29.425 23.4292 29.3887 23.4292 29.3517C23.4289 29.3273 23.4333 29.303 23.4424 29.2804C23.4515 29.2577 23.465 29.2371 23.4822 29.2197C23.4993 29.2023 23.5197 29.1885 23.5422 29.1791C23.5647 29.1697 23.5889 29.1648 23.6133 29.1648Z" fill="#121728"/>
<path d="M38.8079 21.2295C38.9869 21.2295 39.1321 21.0843 39.1321 20.9053C39.1321 20.7262 38.9869 20.5811 38.8079 20.5811C38.6288 20.5811 38.4836 20.7262 38.4836 20.9053C38.4836 21.0843 38.6288 21.2295 38.8079 21.2295Z" fill="#121728"/>
<path d="M36.7472 19.361C36.8625 19.361 36.956 19.2675 36.956 19.1522C36.956 19.0368 36.8625 18.9434 36.7472 18.9434C36.6318 18.9434 36.5383 19.0368 36.5383 19.1522C36.5383 19.2675 36.6318 19.361 36.7472 19.361Z" fill="#121728"/>
<path d="M20.5114 31.3684C20.5348 31.3684 20.558 31.373 20.5797 31.382C20.6014 31.391 20.6211 31.4041 20.6377 31.4207C20.6542 31.4373 20.6674 31.457 20.6764 31.4787C20.6853 31.5003 20.69 31.5236 20.69 31.547C20.69 31.5705 20.6853 31.5937 20.6764 31.6154C20.6674 31.637 20.6542 31.6567 20.6377 31.6733C20.6211 31.6899 20.6014 31.703 20.5797 31.712C20.558 31.721 20.5348 31.7256 20.5114 31.7256C20.4879 31.7256 20.4647 31.721 20.443 31.712C20.4214 31.703 20.4017 31.6899 20.3851 31.6733C20.3685 31.6567 20.3553 31.637 20.3464 31.6154C20.3374 31.5937 20.3328 31.5705 20.3328 31.547C20.3328 31.5236 20.3374 31.5003 20.3464 31.4787C20.3553 31.457 20.3685 31.4373 20.3851 31.4207C20.4017 31.4041 20.4214 31.391 20.443 31.382C20.4647 31.373 20.4879 31.3684 20.5114 31.3684Z" fill="#121728"/>
<path d="M31.5733 32.0308C31.6722 32.0308 31.7689 32.0601 31.8511 32.115C31.9334 32.17 31.9975 32.2481 32.0353 32.3395C32.0732 32.4308 32.0831 32.5314 32.0638 32.6284C32.0445 32.7254 31.9969 32.8145 31.9269 32.8844C31.857 32.9544 31.7679 33.002 31.6709 33.0213C31.5739 33.0406 31.4733 33.0307 31.382 32.9928C31.2906 32.955 31.2125 32.8909 31.1575 32.8087C31.1026 32.7264 31.0732 32.6297 31.0732 32.5308C31.0732 32.3982 31.1259 32.271 31.2197 32.1772C31.3135 32.0834 31.4407 32.0308 31.5733 32.0308Z" fill="#121728"/>
<path d="M13.6365 29.0274C13.6434 29.0274 13.6502 29.0288 13.6565 29.0314C13.6628 29.034 13.6686 29.0379 13.6734 29.0427C13.6783 29.0476 13.6821 29.0533 13.6847 29.0597C13.6874 29.066 13.6887 29.0728 13.6887 29.0796C13.6881 29.0933 13.6823 29.1062 13.6727 29.1158C13.663 29.1255 13.6501 29.1312 13.6365 29.1318C13.6297 29.1318 13.6229 29.1305 13.6165 29.1279C13.6102 29.1252 13.6045 29.1214 13.5996 29.1166C13.5948 29.1117 13.5909 29.106 13.5883 29.0996C13.5857 29.0933 13.5843 29.0865 13.5843 29.0796C13.5839 29.0727 13.585 29.0657 13.5875 29.0592C13.59 29.0527 13.5938 29.0468 13.5987 29.0418C13.6036 29.0369 13.6096 29.0331 13.6161 29.0306C13.6226 29.0281 13.6296 29.027 13.6365 29.0274Z" fill="#121728"/>
<path d="M24.5284 36.0615C24.6133 36.061 24.6965 36.0857 24.7673 36.1324C24.8382 36.1792 24.8935 36.246 24.9264 36.3242C24.9593 36.4025 24.9681 36.4888 24.9519 36.5721C24.9357 36.6554 24.8951 36.732 24.8352 36.7923C24.7754 36.8525 24.699 36.8936 24.6158 36.9104C24.5326 36.9271 24.4463 36.9188 24.3678 36.8864C24.2893 36.8541 24.2222 36.7991 24.175 36.7286C24.1277 36.658 24.1025 36.5751 24.1025 36.4902C24.1025 36.377 24.1473 36.2684 24.2271 36.188C24.3069 36.1077 24.4152 36.0623 24.5284 36.0615Z" fill="#121728"/>
<path d="M27.776 29.9837C27.8386 29.9837 27.8998 30.0023 27.9518 30.0371C28.0038 30.0719 28.0443 30.1215 28.0681 30.1793C28.092 30.2372 28.0981 30.3009 28.0857 30.3623C28.0732 30.4237 28.0429 30.48 27.9984 30.524C27.9539 30.5681 27.8974 30.598 27.8359 30.6099C27.7744 30.6218 27.7108 30.6151 27.6531 30.5908C27.5954 30.5664 27.5463 30.5255 27.5119 30.4732C27.4775 30.4209 27.4594 30.3595 27.46 30.2969C27.46 30.2555 27.4682 30.2146 27.4841 30.1764C27.5 30.1382 27.5233 30.1035 27.5527 30.0744C27.5821 30.0453 27.6169 30.0223 27.6552 30.0067C27.6936 29.9911 27.7346 29.9833 27.776 29.9837Z" fill="#121728"/>
<path d="M10.8751 43.4033C10.9509 43.4033 11.0236 43.4334 11.0772 43.487C11.1308 43.5406 11.1609 43.6133 11.1609 43.6891C11.1609 43.7649 11.1308 43.8375 11.0772 43.8911C11.0236 43.9447 10.9509 43.9748 10.8751 43.9748C10.7993 43.9748 10.7266 43.9447 10.673 43.8911C10.6195 43.8375 10.5894 43.7649 10.5894 43.6891C10.5894 43.6133 10.6195 43.5406 10.673 43.487C10.7266 43.4334 10.7993 43.4033 10.8751 43.4033Z" fill="#121728"/>
<path d="M22.715 32.2942C22.765 32.2942 22.8138 32.309 22.8554 32.3368C22.897 32.3646 22.9294 32.404 22.9485 32.4502C22.9676 32.4964 22.9726 32.5473 22.9629 32.5963C22.9531 32.6453 22.929 32.6904 22.8937 32.7257C22.8583 32.7611 22.8133 32.7852 22.7643 32.7949C22.7152 32.8047 22.6644 32.7996 22.6182 32.7805C22.572 32.7614 22.5325 32.729 22.5048 32.6874C22.477 32.6459 22.4622 32.597 22.4622 32.547C22.4629 32.4801 22.4897 32.4163 22.537 32.369C22.5842 32.3218 22.6481 32.2949 22.715 32.2942Z" fill="#121728"/>
<path d="M31.6119 22.5182C31.7151 22.5182 31.7987 22.4346 31.7987 22.3314C31.7987 22.2282 31.7151 22.1445 31.6119 22.1445C31.5087 22.1445 31.425 22.2282 31.425 22.3314C31.425 22.4346 31.5087 22.5182 31.6119 22.5182Z" fill="#121728"/>
<path d="M11.7106 41.021C11.7696 41.021 11.8262 41.0444 11.868 41.0862C11.9097 41.1279 11.9332 41.1845 11.9332 41.2436C11.9332 41.3026 11.9097 41.3592 11.868 41.4009C11.8262 41.4427 11.7696 41.4661 11.7106 41.4661C11.6516 41.4661 11.595 41.4427 11.5532 41.4009C11.5115 41.3592 11.488 41.3026 11.488 41.2436C11.488 41.1845 11.5115 41.1279 11.5532 41.0862C11.595 41.0444 11.6516 41.021 11.7106 41.021Z" fill="#121728"/>
<path d="M38.9095 24.3125C38.9975 24.3125 39.0836 24.3386 39.1568 24.3875C39.23 24.4364 39.287 24.5059 39.3207 24.5873C39.3544 24.6686 39.3632 24.7581 39.346 24.8445C39.3289 24.9308 39.2865 25.0101 39.2242 25.0724C39.162 25.1346 39.0827 25.177 38.9963 25.1942C38.91 25.2114 38.8205 25.2026 38.7391 25.1689C38.6578 25.1352 38.5883 25.0781 38.5394 25.0049C38.4905 24.9317 38.4644 24.8457 38.4644 24.7576C38.4644 24.6396 38.5113 24.5264 38.5947 24.4429C38.6782 24.3594 38.7914 24.3125 38.9095 24.3125Z" fill="#121728"/>
<path d="M17.8736 44.3898C18.1377 44.3898 18.3517 44.1757 18.3517 43.9117C18.3517 43.6476 18.1377 43.4336 17.8736 43.4336C17.6096 43.4336 17.3955 43.6476 17.3955 43.9117C17.3955 44.1757 17.6096 44.3898 17.8736 44.3898Z" fill="#121728"/>
<path d="M17.269 45.4915C17.3777 45.4915 17.484 45.5237 17.5743 45.5841C17.6647 45.6444 17.7351 45.7303 17.7767 45.8307C17.8183 45.9311 17.8292 46.0416 17.808 46.1482C17.7868 46.2548 17.7344 46.3527 17.6576 46.4296C17.5807 46.5064 17.4828 46.5588 17.3762 46.58C17.2696 46.6012 17.1591 46.5903 17.0587 46.5487C16.9583 46.5071 16.8725 46.4367 16.8121 46.3463C16.7517 46.2559 16.7195 46.1497 16.7195 46.041C16.7195 45.8952 16.7774 45.7555 16.8804 45.6524C16.9835 45.5493 17.1233 45.4915 17.269 45.4915Z" fill="#121728"/>
<path d="M25.2537 34.0367C25.4449 34.0367 25.5999 33.8817 25.5999 33.6904C25.5999 33.4992 25.4449 33.3442 25.2537 33.3442C25.0625 33.3442 24.9075 33.4992 24.9075 33.6904C24.9075 33.8817 25.0625 34.0367 25.2537 34.0367Z" fill="#121728"/>
<path d="M18.563 37.6304C18.6234 37.6304 18.6823 37.6483 18.7325 37.6818C18.7826 37.7153 18.8217 37.7629 18.8448 37.8187C18.8679 37.8744 18.8739 37.9357 18.8622 37.9949C18.8504 38.054 18.8214 38.1084 18.7787 38.151C18.7361 38.1937 18.6817 38.2227 18.6225 38.2345C18.5634 38.2463 18.5021 38.2402 18.4463 38.2172C18.3906 38.1941 18.343 38.155 18.3095 38.1048C18.2759 38.0547 18.2581 37.9957 18.2581 37.9354C18.2581 37.8545 18.2902 37.7769 18.3474 37.7197C18.4046 37.6625 18.4822 37.6304 18.563 37.6304Z" fill="#121728"/>
<path d="M13.3537 39.2294C13.4721 39.2294 13.568 39.1335 13.568 39.0151C13.568 38.8967 13.4721 38.8008 13.3537 38.8008C13.2354 38.8008 13.1394 38.8967 13.1394 39.0151C13.1394 39.1335 13.2354 39.2294 13.3537 39.2294Z" fill="#121728"/>
<path d="M11.5787 36.0366C11.6026 36.0366 11.626 36.0437 11.6458 36.057C11.6657 36.0703 11.6812 36.0892 11.6904 36.1112C11.6995 36.1333 11.7019 36.1577 11.6972 36.1811C11.6926 36.2046 11.6811 36.2261 11.6641 36.243C11.6472 36.2599 11.6257 36.2714 11.6022 36.2761C11.5788 36.2808 11.5545 36.2784 11.5324 36.2692C11.5103 36.2601 11.4914 36.2446 11.4781 36.2247C11.4649 36.2048 11.4578 36.1814 11.4578 36.1575C11.4578 36.1255 11.4705 36.0947 11.4932 36.072C11.5158 36.0494 11.5466 36.0366 11.5787 36.0366Z" fill="#121728"/>
<path d="M23.9292 21.5647C23.9434 21.5647 23.9573 21.569 23.9691 21.577C23.9809 21.5849 23.9901 21.5963 23.9954 21.6095C24.0007 21.6227 24.0019 21.6372 23.999 21.6511C23.996 21.665 23.9889 21.6778 23.9786 21.6876C23.9683 21.6975 23.9554 21.7041 23.9413 21.7065C23.9273 21.709 23.9129 21.7071 23.8999 21.7013C23.8869 21.6955 23.8759 21.6859 23.8684 21.6738C23.8609 21.6617 23.8572 21.6476 23.8577 21.6334C23.8584 21.6149 23.8663 21.5974 23.8796 21.5846C23.8929 21.5718 23.9107 21.5647 23.9292 21.5647Z" fill="#121728"/>
<path d="M14.6726 36.2207C14.7622 36.2207 14.8347 36.1481 14.8347 36.0586C14.8347 35.9691 14.7622 35.8965 14.6726 35.8965C14.5831 35.8965 14.5105 35.9691 14.5105 36.0586C14.5105 36.1481 14.5831 36.2207 14.6726 36.2207Z" fill="#121728"/>
<path d="M36.5383 28.1592C36.6405 28.1592 36.7403 28.1895 36.8253 28.2462C36.9102 28.303 36.9764 28.3837 37.0155 28.4781C37.0546 28.5725 37.0649 28.6763 37.0449 28.7765C37.025 28.8767 36.9758 28.9688 36.9036 29.041C36.8313 29.1132 36.7393 29.1624 36.6391 29.1824C36.5389 29.2023 36.435 29.1921 36.3406 29.153C36.2462 29.1139 36.1655 29.0477 36.1088 28.9627C36.052 28.8778 36.0217 28.7779 36.0217 28.6757C36.0217 28.5387 36.0762 28.4074 36.173 28.3105C36.2699 28.2136 36.4013 28.1592 36.5383 28.1592Z" fill="#121728"/>
<path d="M13.9856 49.6514C14.0943 49.6514 14.2005 49.6836 14.2909 49.744C14.3812 49.8044 14.4517 49.8902 14.4933 49.9906C14.5349 50.091 14.5457 50.2015 14.5245 50.3081C14.5033 50.4147 14.451 50.5126 14.3742 50.5895C14.2973 50.6663 14.1994 50.7187 14.0928 50.7399C13.9862 50.7611 13.8757 50.7502 13.7753 50.7086C13.6749 50.667 13.589 50.5966 13.5286 50.5062C13.4683 50.4158 13.436 50.3096 13.436 50.2009C13.436 50.0552 13.4939 49.9154 13.597 49.8123C13.7001 49.7093 13.8398 49.6514 13.9856 49.6514Z" fill="#121728"/>
<path d="M17.9916 40.1445C18.0633 40.1445 18.1335 40.1658 18.1931 40.2057C18.2527 40.2455 18.2992 40.3022 18.3267 40.3684C18.3541 40.4347 18.3613 40.5076 18.3473 40.578C18.3333 40.6483 18.2988 40.713 18.2481 40.7637C18.1973 40.8144 18.1327 40.8489 18.0624 40.8629C17.992 40.8769 17.9191 40.8698 17.8528 40.8423C17.7865 40.8149 17.7299 40.7684 17.69 40.7087C17.6502 40.6491 17.6289 40.579 17.6289 40.5072C17.6289 40.411 17.6671 40.3188 17.7351 40.2508C17.8031 40.1827 17.8954 40.1445 17.9916 40.1445Z" fill="#121728"/>
<path d="M26.3693 35.3748C26.4608 35.3742 26.5504 35.4009 26.6267 35.4514C26.7031 35.5019 26.7627 35.574 26.798 35.6585C26.8332 35.7429 26.8426 35.8359 26.8249 35.9257C26.8071 36.0155 26.7631 36.0981 26.6984 36.1628C26.6337 36.2275 26.5512 36.2715 26.4614 36.2892C26.3716 36.307 26.2785 36.2976 26.1941 36.2623C26.1096 36.227 26.0376 36.1674 25.987 36.0911C25.9365 36.0148 25.9099 35.9251 25.9104 35.8336C25.9111 35.7121 25.9597 35.5958 26.0456 35.51C26.1315 35.4241 26.2478 35.3755 26.3693 35.3748Z" fill="#121728"/>
<path d="M16.1315 39.0675C16.2787 39.0675 16.398 38.9481 16.398 38.8009C16.398 38.6537 16.2787 38.5344 16.1315 38.5344C15.9843 38.5344 15.865 38.6537 15.865 38.8009C15.865 38.9481 15.9843 39.0675 16.1315 39.0675Z" fill="#121728"/>
<path d="M15.4114 40.9001C15.4739 40.9001 15.535 40.9187 15.587 40.9534C15.639 40.9881 15.6795 41.0375 15.7034 41.0952C15.7273 41.1529 15.7336 41.2165 15.7214 41.2778C15.7092 41.3391 15.6791 41.3954 15.6349 41.4396C15.5907 41.4838 15.5344 41.5138 15.4731 41.526C15.4118 41.5382 15.3483 41.532 15.2905 41.5081C15.2328 41.4841 15.1834 41.4437 15.1487 41.3917C15.114 41.3397 15.0955 41.2786 15.0955 41.2161C15.0962 41.1326 15.1297 41.0526 15.1888 40.9935C15.2479 40.9344 15.3279 40.9009 15.4114 40.9001Z" fill="#121728"/>
<path d="M17.3349 35.3525C17.3891 35.3525 17.4411 35.3739 17.4797 35.4119C17.5182 35.45 17.5403 35.5017 17.541 35.5559C17.5403 35.6103 17.5183 35.6623 17.4798 35.7008C17.4414 35.7393 17.3893 35.7612 17.3349 35.7619C17.2807 35.7612 17.229 35.7392 17.191 35.7006C17.1529 35.6621 17.1316 35.61 17.1316 35.5559C17.1316 35.5019 17.153 35.4502 17.1911 35.4121C17.2293 35.374 17.281 35.3525 17.3349 35.3525Z" fill="#121728"/>
<path d="M24.9599 25.8072C24.9894 25.8072 25.0182 25.8159 25.0426 25.8324C25.0671 25.8488 25.0861 25.8721 25.0972 25.8994C25.1084 25.9267 25.1112 25.9567 25.1052 25.9855C25.0992 26.0144 25.0849 26.0408 25.0638 26.0614C25.0428 26.0821 25.0161 26.096 24.9871 26.1014C24.9582 26.1068 24.9283 26.1035 24.9012 26.0918C24.8741 26.0801 24.8512 26.0607 24.8352 26.036C24.8192 26.0112 24.811 25.9822 24.8115 25.9528C24.8115 25.9334 24.8154 25.9143 24.8229 25.8964C24.8304 25.8786 24.8414 25.8624 24.8552 25.8488C24.869 25.8353 24.8854 25.8246 24.9034 25.8174C24.9213 25.8103 24.9406 25.8068 24.9599 25.8072Z" fill="#121728"/>
<path d="M15.7439 43.395C15.8255 43.3945 15.9055 43.4182 15.9736 43.4632C16.0417 43.5081 16.095 43.5723 16.1266 43.6475C16.1582 43.7228 16.1668 43.8058 16.1512 43.8859C16.1356 43.966 16.0966 44.0397 16.039 44.0976C15.9815 44.1555 15.9081 44.1951 15.8281 44.2112C15.748 44.2273 15.665 44.2193 15.5896 44.1882C15.5141 44.1571 15.4495 44.1043 15.4041 44.0364C15.3587 43.9686 15.3345 43.8888 15.3345 43.8072C15.3345 43.6983 15.3775 43.5939 15.4542 43.5167C15.5309 43.4395 15.6351 43.3958 15.7439 43.395Z" fill="#121728"/>
<path d="M29.6031 27.2634C29.6575 27.2634 29.7106 27.2795 29.7558 27.3097C29.801 27.3399 29.8362 27.3828 29.857 27.433C29.8778 27.4833 29.8832 27.5385 29.8726 27.5918C29.862 27.6451 29.8358 27.6941 29.7974 27.7325C29.759 27.7709 29.71 27.7971 29.6567 27.8077C29.6034 27.8183 29.5482 27.8128 29.498 27.792C29.4478 27.7713 29.4049 27.736 29.3747 27.6909C29.3445 27.6457 29.3284 27.5925 29.3284 27.5382C29.3284 27.4653 29.3573 27.3954 29.4088 27.3439C29.4604 27.2924 29.5303 27.2634 29.6031 27.2634Z" fill="#121728"/>
<path d="M17.453 32.3382C17.4909 32.3382 17.5272 32.3532 17.554 32.38C17.5808 32.4068 17.5959 32.4431 17.5959 32.481C17.5962 32.5 17.5928 32.5189 17.5858 32.5366C17.5788 32.5542 17.5683 32.5703 17.555 32.5838C17.5417 32.5974 17.5258 32.6082 17.5083 32.6155C17.4908 32.6229 17.472 32.6267 17.453 32.6267C17.4144 32.6267 17.3773 32.6113 17.35 32.584C17.3227 32.5567 17.3074 32.5197 17.3074 32.481C17.3074 32.462 17.3111 32.4432 17.3185 32.4257C17.3258 32.4082 17.3366 32.3923 17.3502 32.379C17.3637 32.3657 17.3798 32.3553 17.3975 32.3482C17.4151 32.3412 17.434 32.3378 17.453 32.3382Z" fill="#121728"/>
<path d="M28.136 35.2232C28.3985 35.2232 28.6113 35.0103 28.6113 34.7478C28.6113 34.4853 28.3985 34.2725 28.136 34.2725C27.8735 34.2725 27.6606 34.4853 27.6606 34.7478C27.6606 35.0103 27.8735 35.2232 28.136 35.2232Z" fill="#121728"/>
<path d="M37.6514 27.041C37.92 27.041 38.1377 26.8233 38.1377 26.5547C38.1377 26.2861 37.92 26.0684 37.6514 26.0684C37.3828 26.0684 37.165 26.2861 37.165 26.5547C37.165 26.8233 37.3828 27.041 37.6514 27.041Z" fill="#121728"/>
<path d="M18.5824 29.0358C18.5973 29.0334 18.6126 29.0342 18.6272 29.0382C18.6418 29.0423 18.6553 29.0495 18.6669 29.0593C18.6784 29.0691 18.6877 29.0813 18.6941 29.095C18.7004 29.1087 18.7037 29.1237 18.7037 29.1388C18.7037 29.154 18.7004 29.1689 18.6941 29.1827C18.6877 29.1964 18.6784 29.2086 18.6669 29.2184C18.6553 29.2282 18.6418 29.2354 18.6272 29.2394C18.6126 29.2435 18.5973 29.2443 18.5824 29.2419C18.558 29.2379 18.5357 29.2253 18.5197 29.2064C18.5037 29.1876 18.4949 29.1636 18.4949 29.1388C18.4949 29.1141 18.5037 29.0901 18.5197 29.0712C18.5357 29.0524 18.558 29.0398 18.5824 29.0358Z" fill="#121728"/>
<path d="M21.5719 27.2278C21.605 27.2285 21.6364 27.2421 21.6595 27.2658C21.6827 27.2894 21.6956 27.3211 21.6956 27.3542C21.6911 27.3842 21.6761 27.4115 21.6531 27.4313C21.6302 27.4511 21.6009 27.462 21.5706 27.462C21.5403 27.462 21.511 27.4511 21.488 27.4313C21.4651 27.4115 21.45 27.3842 21.4456 27.3542C21.4456 27.3207 21.4589 27.2885 21.4826 27.2648C21.5063 27.2411 21.5384 27.2278 21.5719 27.2278Z" fill="#121728"/>
<path d="M8.40499 42.675C8.51121 42.675 8.59733 42.5888 8.59733 42.4826C8.59733 42.3764 8.51121 42.2903 8.40499 42.2903C8.29876 42.2903 8.21265 42.3764 8.21265 42.4826C8.21265 42.5888 8.29876 42.675 8.40499 42.675Z" fill="#121728"/>
<path d="M13.5568 42.6807C13.6242 42.6807 13.69 42.7006 13.7461 42.7381C13.8021 42.7755 13.8458 42.8287 13.8716 42.891C13.8973 42.9533 13.9041 43.0218 13.8909 43.0879C13.8778 43.1539 13.8453 43.2146 13.7977 43.2623C13.75 43.3099 13.6893 43.3424 13.6232 43.3555C13.5571 43.3687 13.4886 43.3619 13.4264 43.3362C13.3641 43.3104 13.3109 43.2667 13.2735 43.2107C13.236 43.1546 13.2161 43.0888 13.2161 43.0214C13.2168 42.9312 13.2529 42.845 13.3167 42.7813C13.3804 42.7175 13.4666 42.6814 13.5568 42.6807Z" fill="#121728"/>
<path d="M28.6992 22.584C28.7388 22.5847 28.7765 22.6009 28.8043 22.6292C28.832 22.6575 28.8476 22.6955 28.8476 22.7351C28.8427 22.7713 28.8248 22.8045 28.7973 22.8286C28.7697 22.8526 28.7344 22.8659 28.6978 22.8659C28.6613 22.8659 28.626 22.8526 28.5984 22.8286C28.5709 22.8045 28.553 22.7713 28.5481 22.7351C28.5481 22.695 28.564 22.6566 28.5924 22.6282C28.6207 22.5999 28.6591 22.584 28.6992 22.584Z" fill="#121728"/>
<path d="M33.5215 24.9004C33.584 24.9004 33.6451 24.9189 33.6971 24.9536C33.7491 24.9884 33.7896 25.0377 33.8135 25.0954C33.8374 25.1532 33.8436 25.2167 33.8315 25.278C33.8193 25.3393 33.7892 25.3956 33.745 25.4398C33.7008 25.484 33.6445 25.5141 33.5832 25.5263C33.5219 25.5385 33.4584 25.5322 33.4006 25.5083C33.3429 25.4844 33.2935 25.4439 33.2588 25.3919C33.2241 25.34 33.2056 25.2789 33.2056 25.2164C33.2056 25.1326 33.2388 25.0522 33.2981 24.9929C33.3574 24.9337 33.4377 24.9004 33.5215 24.9004Z" fill="#121728"/>
<path d="M27.8806 32.1516C27.9583 32.1489 28.0351 32.1694 28.1013 32.2104C28.1674 32.2514 28.2198 32.3111 28.252 32.382C28.2841 32.4529 28.2945 32.5317 28.2818 32.6084C28.2691 32.6852 28.2339 32.7565 28.1806 32.8132C28.1273 32.8699 28.0584 32.9096 27.9826 32.9271C27.9068 32.9446 27.8275 32.9392 27.7547 32.9116C27.682 32.884 27.6191 32.8355 27.574 32.7721C27.5289 32.7087 27.5036 32.6333 27.5014 32.5555C27.4984 32.4517 27.5366 32.351 27.6077 32.2754C27.6787 32.1997 27.7768 32.1552 27.8806 32.1516Z" fill="#121728"/>
<path d="M15.5571 47.7859C15.6658 47.7859 15.772 47.8181 15.8624 47.8785C15.9528 47.9389 16.0232 48.0247 16.0648 48.1251C16.1064 48.2255 16.1173 48.336 16.0961 48.4426C16.0749 48.5492 16.0225 48.6472 15.9457 48.724C15.8688 48.8009 15.7709 48.8532 15.6643 48.8744C15.5577 48.8956 15.4472 48.8847 15.3468 48.8431C15.2464 48.8015 15.1606 48.7311 15.1002 48.6407C15.0398 48.5504 15.0076 48.4441 15.0076 48.3354C15.0076 48.1897 15.0655 48.0499 15.1685 47.9469C15.2716 47.8438 15.4114 47.7859 15.5571 47.7859Z" fill="#121728"/>
<path d="M41.3386 10.4175C41.4099 10.4175 41.4678 10.3597 41.4678 10.2883C41.4678 10.217 41.4099 10.1592 41.3386 10.1592C41.2673 10.1592 41.2095 10.217 41.2095 10.2883C41.2095 10.3597 41.2673 10.4175 41.3386 10.4175Z" fill="#121728"/>
<path d="M41.6904 16.6493C41.8376 16.6493 41.9569 16.5299 41.9569 16.3827C41.9569 16.2355 41.8376 16.1162 41.6904 16.1162C41.5432 16.1162 41.4238 16.2355 41.4238 16.3827C41.4238 16.5299 41.5432 16.6493 41.6904 16.6493Z" fill="#121728"/>
<path d="M40.1957 22.2515C40.2822 22.2515 40.3668 22.2772 40.4387 22.3253C40.5106 22.3734 40.5666 22.4418 40.5996 22.5218C40.6326 22.6018 40.641 22.6898 40.624 22.7746C40.6069 22.8594 40.565 22.9373 40.5036 22.9982C40.4422 23.0592 40.3641 23.1006 40.2792 23.1172C40.1943 23.1337 40.1064 23.1247 40.0266 23.0912C39.9468 23.0577 39.8788 23.0013 39.8311 22.9291C39.7834 22.8569 39.7583 22.7721 39.7588 22.6856C39.7588 22.6284 39.7701 22.5717 39.7921 22.5188C39.8141 22.466 39.8463 22.418 39.8869 22.3777C39.9275 22.3373 39.9757 22.3054 40.0287 22.2837C40.0817 22.2621 40.1384 22.2511 40.1957 22.2515Z" fill="#121728"/>
<path d="M19.2774 24.4113C19.3093 24.4113 19.3351 24.3855 19.3351 24.3536C19.3351 24.3217 19.3093 24.2959 19.2774 24.2959C19.2456 24.2959 19.2197 24.3217 19.2197 24.3536C19.2197 24.3855 19.2456 24.4113 19.2774 24.4113Z" fill="#121728"/>
<path d="M30.1555 34.292C30.4363 34.292 30.6639 34.0644 30.6639 33.7837C30.6639 33.503 30.4363 33.2754 30.1555 33.2754C29.8748 33.2754 29.6472 33.503 29.6472 33.7837C29.6472 34.0644 29.8748 34.292 30.1555 34.292Z" fill="#121728"/>
<path d="M27.9905 25.4995C28.0922 25.4995 28.1746 25.4171 28.1746 25.3155C28.1746 25.2138 28.0922 25.1313 27.9905 25.1313C27.8888 25.1313 27.8064 25.2138 27.8064 25.3155C27.8064 25.4171 27.8888 25.4995 27.9905 25.4995Z" fill="#121728"/>
<path d="M31.752 28.8652C31.8298 28.8647 31.906 28.8873 31.971 28.9301C32.036 28.973 32.0868 29.0341 32.117 29.1059C32.1471 29.1776 32.1553 29.2567 32.1404 29.3331C32.1256 29.4095 32.0884 29.4798 32.0335 29.535C31.9787 29.5902 31.9087 29.6279 31.8324 29.6433C31.7561 29.6587 31.677 29.6511 31.605 29.6214C31.5331 29.5918 31.4715 29.5414 31.4282 29.4767C31.3849 29.4121 31.3618 29.336 31.3618 29.2582C31.3618 29.1544 31.4028 29.0549 31.4759 28.9813C31.549 28.9077 31.6482 28.866 31.752 28.8652Z" fill="#121728"/>
<path d="M35.6152 14.6763C35.6458 14.6763 35.6751 14.6884 35.6968 14.7101C35.7184 14.7317 35.7306 14.7611 35.7306 14.7917C35.7306 14.8223 35.7184 14.8516 35.6968 14.8733C35.6751 14.8949 35.6458 14.9071 35.6152 14.9071C35.5846 14.9071 35.5552 14.8949 35.5336 14.8733C35.5119 14.8516 35.4998 14.8223 35.4998 14.7917C35.4998 14.7611 35.5119 14.7317 35.5336 14.7101C35.5552 14.6884 35.5846 14.6763 35.6152 14.6763Z" fill="#121728"/>
<path d="M38.8796 13.2065C38.916 13.2065 38.951 13.221 38.9767 13.2468C39.0025 13.2725 39.017 13.3075 39.017 13.3439C39.017 13.3804 39.0025 13.4153 38.9767 13.4411C38.951 13.4668 38.916 13.4813 38.8796 13.4813C38.8431 13.4813 38.8082 13.4668 38.7824 13.4411C38.7567 13.4153 38.7422 13.3804 38.7422 13.3439C38.7422 13.3075 38.7567 13.2725 38.7824 13.2468C38.8082 13.221 38.8431 13.2065 38.8796 13.2065Z" fill="#121728"/>
<path d="M26.8171 19.5397C26.8581 19.5397 26.8913 19.5065 26.8913 19.4655C26.8913 19.4246 26.8581 19.3914 26.8171 19.3914C26.7761 19.3914 26.7429 19.4246 26.7429 19.4655C26.7429 19.5065 26.7761 19.5397 26.8171 19.5397Z" fill="#121728"/>
<path d="M31.2493 25.7138C31.398 25.7138 31.5185 25.5933 31.5185 25.4446C31.5185 25.2958 31.398 25.1753 31.2493 25.1753C31.1005 25.1753 30.98 25.2958 30.98 25.4446C30.98 25.5933 31.1005 25.7138 31.2493 25.7138Z" fill="#121728"/>
<path d="M35.071 26.9583C35.1542 26.9583 35.2355 26.9829 35.3046 27.0291C35.3737 27.0753 35.4276 27.141 35.4594 27.2178C35.4913 27.2946 35.4996 27.3791 35.4833 27.4607C35.4671 27.5422 35.4271 27.6171 35.3683 27.6759C35.3095 27.7347 35.2346 27.7747 35.1531 27.791C35.0715 27.8072 34.987 27.7989 34.9101 27.767C34.8333 27.7352 34.7677 27.6813 34.7215 27.6122C34.6753 27.5431 34.6506 27.4618 34.6506 27.3786C34.6503 27.3233 34.6609 27.2685 34.6819 27.2173C34.7029 27.1662 34.7338 27.1197 34.773 27.0806C34.8121 27.0415 34.8586 27.0105 34.9097 26.9895C34.9609 26.9685 35.0157 26.9579 35.071 26.9583Z" fill="#121728"/>
<path d="M34.1287 20.2209C34.1829 20.2217 34.2346 20.2437 34.2726 20.2823C34.3107 20.3208 34.332 20.3728 34.332 20.427C34.332 20.4809 34.3106 20.5327 34.2725 20.5708C34.2343 20.6089 34.1826 20.6303 34.1287 20.6303C34.0745 20.6304 34.0225 20.609 33.9839 20.571C33.9454 20.5329 33.9233 20.4812 33.9226 20.427C33.9233 20.3726 33.9453 20.3206 33.9838 20.2821C34.0222 20.2436 34.0742 20.2217 34.1287 20.2209Z" fill="#121728"/>
<path d="M33.7989 17.5039C33.8267 17.5039 33.8539 17.5122 33.877 17.5277C33.9001 17.5433 33.9181 17.5653 33.9286 17.5911C33.9391 17.6168 33.9417 17.6452 33.9361 17.6724C33.9304 17.6997 33.9168 17.7246 33.8969 17.7441C33.8771 17.7636 33.8518 17.7767 33.8245 17.7818C33.7971 17.7869 33.7688 17.7837 33.7433 17.7727C33.7177 17.7617 33.6961 17.7433 33.681 17.7199C33.6659 17.6965 33.6582 17.6691 33.6587 17.6413C33.6594 17.6046 33.6745 17.5697 33.7007 17.544C33.7269 17.5183 33.7622 17.5039 33.7989 17.5039Z" fill="#121728"/>
<path d="M15.2522 45.9172C15.3506 45.9172 15.4467 45.9464 15.5285 46.0011C15.6103 46.0557 15.674 46.1334 15.7117 46.2242C15.7493 46.3151 15.7592 46.4151 15.74 46.5116C15.7208 46.6081 15.6734 46.6967 15.6039 46.7662C15.5343 46.8358 15.4457 46.8831 15.3492 46.9023C15.2528 46.9215 15.1528 46.9117 15.0619 46.874C14.971 46.8364 14.8933 46.7726 14.8387 46.6909C14.7841 46.6091 14.7549 46.5129 14.7549 46.4146C14.7549 46.2827 14.8073 46.1562 14.9006 46.0629C14.9938 45.9696 15.1203 45.9172 15.2522 45.9172Z" fill="#121728"/>
<path d="M38.2421 16.1409C38.2897 16.1416 38.3351 16.161 38.3685 16.1949C38.4019 16.2289 38.4207 16.2746 38.4207 16.3222C38.4207 16.3457 38.4161 16.3689 38.4071 16.3906C38.3981 16.4122 38.3849 16.4319 38.3684 16.4485C38.3518 16.4651 38.3321 16.4782 38.3104 16.4872C38.2888 16.4962 38.2655 16.5008 38.2421 16.5008C38.2186 16.5008 38.1954 16.4962 38.1737 16.4872C38.1521 16.4782 38.1324 16.4651 38.1158 16.4485C38.0992 16.4319 38.0861 16.4122 38.0771 16.3906C38.0681 16.3689 38.0635 16.3457 38.0635 16.3222C38.0635 16.2746 38.0822 16.2289 38.1156 16.1949C38.149 16.161 38.1945 16.1416 38.2421 16.1409Z" fill="#121728"/>
<path d="M39.3165 3.4304C37.2557 2.30935 34.4421 2.50992 31.3483 4.29865L15.9613 13.1874C9.64167 16.839 4.50628 25.7195 4.50628 33.0228V36.1277C4.50628 39.6996 5.72624 42.2165 7.70731 43.4502L3.72869 41.1531C1.6542 39.9579 0.373779 37.3916 0.373779 33.7344V30.6323C0.373779 23.329 5.50094 14.4485 11.8261 10.7941L26.2019 2.49618L27.2185 1.90819C27.6229 1.67237 28.0393 1.45775 28.4659 1.26523C31.1284 0.0617535 33.5189 0.0699945 35.3131 1.10861L39.3165 3.4304Z" fill="white"/>
<path d="M32.5157 18.5837C32.4825 19.1689 32.3122 19.7381 32.0187 20.2454C31.7252 20.7527 31.3166 21.184 30.8259 21.5045C29.8945 22.054 29.1416 21.6062 29.1416 20.5291C29.1727 19.944 29.3415 19.3746 29.6342 18.8671C29.9269 18.3596 30.3352 17.9283 30.8259 17.6083C31.7574 17.0697 32.5157 17.5066 32.5157 18.5837Z" fill="#121728"/>
<path d="M14.9336 43.2712C14.9336 45.7881 14.2577 48.9864 13.0707 51.6626L8.94922 49.2749C9.64639 47.676 10.1554 46.0015 10.4659 44.2851C11.815 44.3511 13.3235 44.0214 14.9336 43.2712Z" fill="white"/>
<path d="M13.0707 51.9981C12.9935 51.9975 12.9185 51.9725 12.8564 51.9266C12.7945 51.8783 12.7507 51.8106 12.7317 51.7344C12.7128 51.6582 12.7199 51.5779 12.7519 51.5062C13.8192 49.0729 14.4364 46.4663 14.5736 43.8128C13.2805 44.3979 11.8708 44.6798 10.4521 44.6371C9.4738 44.5967 8.51937 44.3225 7.66875 43.8375C7.64282 43.8221 7.61884 43.8036 7.59731 43.7825C7.56455 43.7728 7.53316 43.759 7.50389 43.7413C5.32774 42.3867 4.14624 39.6803 4.14624 36.1275V33.0227C4.14624 25.6205 9.36681 16.5861 15.7771 12.8823L31.1641 3.99629C34.2662 2.20481 37.2089 1.89433 39.4785 3.12254C41.4596 4.19962 42.729 6.40051 43.0505 9.32403C43.1076 9.8524 43.136 10.3835 43.1357 10.9149V14.0088C43.1357 16.7565 42.4322 19.7789 41.0996 22.8013C38.9317 27.6977 35.346 31.9456 31.5075 34.1602L20.3245 40.6172C19.6348 45.1371 16.3129 49.5471 13.296 51.9376C13.2295 51.9818 13.1504 52.0031 13.0707 51.9981ZM14.9336 42.906C14.9989 42.9065 15.0628 42.9255 15.1177 42.961C15.1678 42.9921 15.2091 43.0354 15.238 43.0868C15.2668 43.1382 15.2821 43.196 15.2825 43.255C15.237 45.7097 14.78 48.1393 13.9307 50.4429C16.5465 47.9947 19.1183 44.1919 19.6513 40.337C19.6584 40.2842 19.6774 40.2337 19.7069 40.1894C19.7364 40.1452 19.7757 40.1082 19.8217 40.0814L31.1531 33.542C34.8679 31.3961 38.3437 27.2718 40.4539 22.5046C41.7481 19.5838 42.4295 16.6438 42.4295 14.0088V10.9149C42.4304 10.4101 42.4038 9.90562 42.3498 9.4037C42.0503 6.71373 40.9073 4.69969 39.1351 3.73801C37.0963 2.63894 34.3871 2.93845 31.502 4.60353L16.1151 13.4895C9.89711 17.0807 4.84964 25.854 4.84964 33.0227V36.1275C4.84964 39.4247 5.92673 41.9334 7.88581 43.1533C7.90867 43.1674 7.92987 43.184 7.94901 43.2028C7.97667 43.2109 8.00338 43.222 8.0287 43.2358C8.784 43.6671 9.63242 43.9094 10.5016 43.9419C11.8342 44.0106 13.2767 43.6671 14.8017 42.95C14.8419 42.9259 14.8869 42.9109 14.9336 42.906Z" fill="#121728"/>
<path d="M15.6865 30.3874C15.4706 30.3888 15.2582 30.3328 15.071 30.2253C14.6396 29.9752 14.4033 29.4807 14.4033 28.8322C14.4339 28.1853 14.619 27.5551 14.9431 26.9943C15.2672 26.4336 15.7209 25.9586 16.2662 25.6092C16.8158 25.2822 17.3653 25.241 17.8077 25.4883C18.25 25.7356 18.4781 26.2329 18.4781 26.8841C18.4472 27.5317 18.2617 28.1624 17.9371 28.7236C17.6125 29.2848 17.1583 29.7601 16.6124 30.1099C16.3334 30.2818 16.0141 30.3774 15.6865 30.3874ZM17.1949 26.0296C16.99 26.0403 16.7912 26.1037 16.6179 26.2137C16.1804 26.5035 15.816 26.8908 15.5533 27.3451C15.2907 27.7994 15.1368 28.3084 15.104 28.8322C15.0609 28.9803 15.0687 29.1386 15.1262 29.2817C15.1837 29.4249 15.2875 29.5446 15.421 29.6218C15.5545 29.699 15.7101 29.7292 15.8628 29.7076C16.0155 29.686 16.1566 29.6139 16.2635 29.5026C16.7013 29.2131 17.0659 28.8259 17.3286 28.3715C17.5914 27.9171 17.745 27.408 17.7774 26.8841C17.7956 26.7362 17.7756 26.586 17.7193 26.448C17.663 26.31 17.5724 26.1886 17.456 26.0955C17.3757 26.0499 17.2845 26.0271 17.1922 26.0296H17.1949Z" fill="#121728"/>
<path d="M22.8771 26.236C22.6621 26.2374 22.4506 26.1814 22.2644 26.0739C21.833 25.8266 21.5967 25.332 21.5967 24.6808C21.6274 24.0342 21.8123 23.4044 22.1359 22.8437C22.4594 22.2831 22.9124 21.8079 23.4569 21.4578C24.0201 21.1308 24.5559 21.0896 25.001 21.3397C25.4462 21.5897 25.6687 22.0843 25.6687 22.7355C25.6388 23.3829 25.454 24.0138 25.1298 24.5751C24.8057 25.1363 24.3516 25.6117 23.8058 25.9612C23.5255 26.1323 23.2053 26.227 22.8771 26.236ZM24.3856 21.881C24.18 21.8908 23.9804 21.9533 23.8058 22.0623C23.3696 22.353 23.0065 22.7406 22.7448 23.1948C22.4831 23.6491 22.33 24.1576 22.2973 24.6808C22.2543 24.8289 22.2621 24.9872 22.3196 25.1303C22.377 25.2735 22.4808 25.3932 22.6144 25.4704C22.7479 25.5477 22.9035 25.5779 23.0562 25.5563C23.2089 25.5347 23.35 25.4625 23.4569 25.3513C23.8939 25.0616 24.2579 24.6747 24.5206 24.2209C24.7832 23.7671 24.9373 23.2587 24.9708 22.7355C24.9889 22.5871 24.9689 22.4366 24.9126 22.2981C24.8564 22.1597 24.7658 22.0379 24.6493 21.9441C24.5687 21.8998 24.4776 21.878 24.3856 21.881Z" fill="#121728"/>
<path d="M13.0706 51.9981C13.0097 51.9985 12.9499 51.9824 12.8975 51.9514L8.77598 49.5664C8.70083 49.5235 8.64431 49.4542 8.61739 49.3719C8.59048 49.2896 8.5951 49.2003 8.63035 49.1213C9.31792 47.5536 9.82136 45.9114 10.1306 44.2277C10.1415 44.1387 10.1863 44.0573 10.2557 44.0005C10.325 43.9436 10.4136 43.9157 10.503 43.9224C10.5925 43.9291 10.6759 43.97 10.736 44.0365C10.796 44.1031 10.8282 44.1902 10.8257 44.2799C10.8271 44.3028 10.8271 44.3257 10.8257 44.3486C10.5239 45.9845 10.0457 47.5829 9.39969 49.1158L13.2629 51.3469C13.3431 51.3935 13.4017 51.4698 13.4259 51.5594C13.4501 51.6489 13.4379 51.7444 13.3921 51.825C13.359 51.8801 13.3117 51.9252 13.2551 51.9557C13.1985 51.9862 13.1348 52.0008 13.0706 51.9981Z" fill="#121728"/>
<path d="M7.8391 43.8814C7.77707 43.8812 7.71627 43.8641 7.66324 43.8319L7.50937 43.744L3.53076 41.4469C1.25569 40.1335 0 37.3941 0 33.7342V30.6321C0 23.2299 5.22057 14.1956 11.6309 10.4917L27.0178 1.60573C27.4329 1.36385 27.8603 1.14375 28.2982 0.9463C30.9827 -0.265421 33.5188 -0.314882 35.4642 0.806167L39.5857 3.18839C39.6662 3.23466 39.725 3.31103 39.7493 3.40069C39.7735 3.49035 39.7611 3.58596 39.7148 3.66648C39.6685 3.74701 39.5922 3.80586 39.5025 3.83008C39.4128 3.8543 39.3172 3.84191 39.2367 3.79563L35.1152 1.41066C33.3814 0.407758 31.0734 0.473692 28.6005 1.58925C28.2021 1.77059 27.7927 1.97942 27.3833 2.21572L26.3694 2.80371L11.9936 11.1044C5.77285 14.6956 0.714396 23.4689 0.714396 30.6376V33.7342C0.714396 37.1331 1.84368 39.6582 3.89344 40.8424L8.02869 43.2274C8.0946 43.2666 8.14589 43.3263 8.17474 43.3974C8.2036 43.4684 8.20843 43.547 8.18852 43.621C8.1686 43.6951 8.12503 43.7606 8.06443 43.8076C8.00383 43.8546 7.92952 43.8805 7.85283 43.8814H7.8391Z" fill="#121728"/>
<path d="M25.3199 22.7356C25.2878 23.3207 25.1184 23.89 24.8253 24.3975C24.5322 24.9049 24.1237 25.3362 23.6329 25.6563C22.6986 26.2059 21.9458 25.758 21.9458 24.6809C21.9781 24.0959 22.1477 23.5266 22.4407 23.0192C22.7338 22.5118 23.1422 22.0805 23.6329 21.7602C24.5643 21.2216 25.3199 21.6585 25.3199 22.7356Z" fill="#121728"/>
<path d="M18.1238 26.8843C18.0922 27.4699 17.9229 28.0397 17.6298 28.5477C17.3367 29.0556 16.9279 29.4873 16.4368 29.8078C15.5053 30.3408 14.7524 29.904 14.7524 28.8324C14.7841 28.2471 14.9534 27.6776 15.2465 27.1701C15.5397 26.6626 15.9484 26.2314 16.4395 25.9116C17.3682 25.373 18.1238 25.8099 18.1238 26.8843Z" fill="#121728"/>
<path d="M30.0731 22.0869C29.8582 22.0879 29.6468 22.032 29.4604 21.9248C29.029 21.6775 28.7927 21.1802 28.7927 20.529C28.8228 19.8822 29.0074 19.2521 29.331 18.6913C29.6547 18.1306 30.1079 17.6555 30.6529 17.3059C31.2024 16.979 31.752 16.9378 32.1943 17.1878C32.6367 17.4378 32.8648 17.9324 32.8648 18.5836C32.8331 19.2303 32.6475 19.8601 32.3235 20.4206C31.9995 20.9812 31.5464 21.4563 31.0018 21.8066C30.7223 21.9802 30.402 22.0769 30.0731 22.0869ZM31.5816 17.7181C31.376 17.7276 31.1763 17.7901 31.0018 17.8994C30.565 18.1897 30.2012 18.5771 29.9391 19.0314C29.6769 19.4857 29.5234 19.9945 29.4906 20.518C29.4481 20.6663 29.4564 20.8246 29.5141 20.9677C29.5718 21.1108 29.6757 21.2305 29.8092 21.3078C29.9428 21.3852 30.0983 21.4157 30.2511 21.3945C30.404 21.3734 30.5454 21.3018 30.6529 21.1912C31.0892 20.8997 31.4525 20.5116 31.7146 20.057C31.9767 19.6024 32.1305 19.0935 32.1641 18.5699C32.1823 18.4222 32.1626 18.2723 32.1068 18.1343C32.0511 17.9964 31.9611 17.8749 31.8454 17.7813C31.7647 17.737 31.6736 17.7152 31.5816 17.7181Z" fill="#121728"/>
</svg>
