<svg width="141" height="192" viewBox="0 0 141 192" fill="none" xmlns="http://www.w3.org/2000/svg">
<path d="M139.423 69.7734V140.096L89.0312 109.819V100.212L139.423 69.7734Z" fill="#121728"/>
<path d="M139.423 69.7734L89.0316 100.212L73.6549 109.511L66.0545 114.102L60.3944 117.514L53.3065 121.79L0.916016 91.5863L24.8011 77.7986L31.003 74.218C33.4999 75.9754 35.9528 77.6375 37.798 78.8603C39.7959 80.1941 41.8939 81.3716 44.0732 82.3823L47.7343 84.0884C47.9687 84.1999 48.2312 84.2385 48.4878 84.199C48.7444 84.1596 48.9832 84.0441 49.1734 83.8673C49.3635 83.6906 49.4962 83.4608 49.5543 83.2078C49.6123 82.9548 49.593 82.6901 49.4989 82.4482L48.1443 78.8896L49.023 78.2599C49.103 78.2064 49.1686 78.1339 49.214 78.049C49.2594 77.9641 49.2831 77.8693 49.2831 77.773C49.2831 77.6767 49.2594 77.5819 49.214 77.4969C49.1686 77.412 49.103 77.3396 49.023 77.286C44.9665 74.6793 41.5983 72.4314 38.3472 69.9638L43.9926 66.6908L52.0031 62.0705L55.1004 60.2839L63.8871 65.9805C64.3526 66.2839 64.9002 66.4368 65.4555 66.4184C66.0109 66.4001 66.5472 66.2114 66.9917 65.878L67.4603 65.5266L72.2784 67.4523C72.3781 67.4889 72.4865 67.4949 72.5897 67.4696C72.6929 67.4443 72.7862 67.3888 72.8577 67.3102C72.9292 67.2316 72.9756 67.1335 72.9911 67.0284C73.0066 66.9233 72.9905 66.816 72.9447 66.7201L71.3264 63.7912C71.0704 63.327 70.7185 62.9226 70.294 62.605L61.8588 56.3518L89.0169 40.675L139.423 69.7734ZM100.037 79.4241L105.06 61.3016L86.8642 71.8163L83.8621 70.081L58.8201 84.5424L74.9876 93.8782L100.037 79.4241Z" fill="white"/>
<path d="M105.082 61.3018L100.037 79.4243L74.9873 93.8856L80.0396 75.7631L86.8639 71.8238L105.082 61.3018Z" fill="#005BF2"/>
<path d="M86.8644 71.8238L80.0401 75.7631L74.9878 93.8856L58.8203 84.5498L83.8623 70.0884L86.8644 71.8238Z" fill="white"/>
<path d="M77.6158 131.375C77.7424 131.593 77.7966 131.845 77.7705 132.095C77.7444 132.345 77.6394 132.581 77.4707 132.768C77.3019 132.954 77.0782 133.082 76.8318 133.133C76.5855 133.185 76.3292 133.156 76.1001 133.052L67.3135 129.105L67.7162 124.456L67.9212 124.368C68.2093 124.87 68.621 125.291 69.1173 125.589C69.6136 125.888 70.1779 126.055 70.7568 126.074C71.3356 126.093 71.9097 125.964 72.4245 125.698C72.9394 125.433 73.3779 125.041 73.6985 124.558L77.6158 131.375Z" fill="white"/>
<path d="M74.2331 122.523C74.2678 123.284 74.0456 124.035 73.6022 124.654C73.1588 125.274 72.52 125.727 71.7884 125.94C71.0568 126.152 70.2748 126.113 69.5682 125.828C68.8615 125.543 68.2712 125.029 67.8921 124.368C67.6834 124.014 67.5442 123.624 67.482 123.218L66.0176 114.102L73.618 109.511L74.2331 122.523Z" fill="white"/>
<path d="M72.9076 66.6908C72.9534 66.7867 72.9696 66.894 72.9541 66.9991C72.9386 67.1042 72.8921 67.2024 72.8206 67.2809C72.7491 67.3595 72.6558 67.415 72.5526 67.4403C72.4494 67.4656 72.341 67.4596 72.2413 67.423L67.4233 65.4973L66.9546 65.8488C66.5101 66.1822 65.9738 66.3708 65.4185 66.3891C64.8631 66.4075 64.3156 66.2546 63.85 65.9513L55.0634 60.2546L51.1826 57.7284C51.124 56.5715 51.0361 55.4073 51.0361 54.243C51.0361 50.5014 52.3468 47.9899 53.5476 45.6394L54.4044 49.6227C54.6131 50.5696 55.1565 51.4094 55.9347 51.9878L61.8364 56.3445L70.2204 62.5318C70.6448 62.8494 70.9967 63.2538 71.2528 63.718L72.9076 66.6908Z" fill="white"/>
<path d="M64.5533 137.079C64.6783 137.296 64.7315 137.547 64.7053 137.796C64.6791 138.045 64.5749 138.279 64.4075 138.465C64.2401 138.651 64.0182 138.779 63.7735 138.832C63.5288 138.884 63.2738 138.857 63.045 138.756L54.2583 134.809L54.661 130.167C54.9777 130.66 55.4168 131.062 55.9353 131.335C56.4539 131.608 57.0342 131.741 57.6198 131.723C58.2054 131.704 58.7762 131.535 59.2765 131.23C59.7769 130.925 60.1898 130.496 60.4749 129.984L64.5533 137.079Z" fill="white"/>
<path d="M60.8851 128.198C60.9175 128.832 60.7676 129.462 60.4531 130.013C60.1058 130.625 59.5775 131.114 58.9409 131.414C58.3043 131.713 57.5906 131.808 56.898 131.685C56.2054 131.562 55.5677 131.228 55.0728 130.728C54.5779 130.228 54.2499 129.587 54.134 128.893L53.2993 123.658V121.82L60.3872 117.544L60.8851 128.198Z" fill="white"/>
<path d="M55.1005 60.2619L52.0032 62.0485C51.7323 61.2138 51.4833 60.3791 51.271 59.5297C51.271 58.9366 51.271 58.3362 51.2124 57.7357L55.1005 60.2619Z" fill="white"/>
<path d="M29.0332 49.5496C25.8766 49.3472 22.7911 48.5235 19.9536 47.126C20.3344 43.853 20.7591 40.7483 21.0373 38.3979C21.7109 32.6134 23.0363 29.0108 25.4746 26.5213C26.6175 27.3516 28.0015 27.7838 29.4139 27.7514C31.0948 27.7737 32.7535 27.3653 34.2319 26.5652C37.0144 30.5558 41.9642 36.7651 45.2153 35.8278C48.6054 34.8466 45.6985 25.9135 43.8021 20.993L43.8826 20.6928C45.0669 20.9854 46.1917 21.4808 47.2069 22.1572C49.8063 24.2953 49.8429 27.9345 51.1609 30.8487C52.4789 33.7629 55.5542 35.3738 55.5542 39.467C55.5542 41.8394 54.639 43.6992 53.6358 45.6615C52.435 48.012 51.1243 50.5235 51.1243 54.2651C51.1243 55.4294 51.2122 56.5936 51.2707 57.7505C51.2707 58.3509 51.3293 58.9514 51.3293 59.5445C51.5343 60.3939 51.7833 61.2286 52.0615 62.0633L43.9925 66.691C42.2379 67.0666 40.4489 67.258 38.6546 67.2621C37.2223 67.2662 35.7929 67.1338 34.3857 66.8667C32.8261 65.5926 31.2445 64.216 29.575 62.6857C29.2328 62.3711 28.9622 61.9867 28.7816 61.5584C28.6009 61.1302 28.5144 60.6681 28.5279 60.2035C28.6304 56.1836 28.7769 52.8227 29.0332 49.5496Z" fill="white"/>
<path d="M53.2992 123.628V190.971L0.916016 160.723V91.5499L53.2992 121.791V123.628Z" fill="white"/>
<path d="M51.359 186.446C51.6486 186.446 51.9317 186.532 52.1726 186.693C52.4134 186.853 52.6011 187.082 52.7119 187.35C52.8228 187.617 52.8518 187.912 52.7953 188.196C52.7388 188.48 52.5993 188.741 52.3945 188.946C52.1897 189.15 51.9287 189.29 51.6447 189.346C51.3606 189.403 51.0661 189.374 50.7986 189.263C50.531 189.152 50.3022 188.965 50.1413 188.724C49.9804 188.483 49.8945 188.2 49.8945 187.91C49.8945 187.522 50.0488 187.149 50.3235 186.875C50.5981 186.6 50.9706 186.446 51.359 186.446Z" fill="#121728"/>
<path d="M37.2192 127.714C37.308 127.716 37.3926 127.752 37.4553 127.815C37.5181 127.878 37.5542 127.962 37.5561 128.051C37.5561 128.14 37.5206 128.226 37.4574 128.289C37.3942 128.352 37.3086 128.388 37.2192 128.388C37.1747 128.389 37.1305 128.381 37.0892 128.364C37.0478 128.348 37.0103 128.323 36.9788 128.291C36.9474 128.26 36.9226 128.222 36.906 128.181C36.8894 128.14 36.8814 128.096 36.8824 128.051C36.8824 127.962 36.9179 127.876 36.9811 127.813C37.0442 127.75 37.1299 127.714 37.2192 127.714Z" fill="#121728"/>
<path d="M19.0824 131.39C19.1524 131.39 19.2194 131.418 19.2688 131.467C19.3183 131.517 19.346 131.584 19.346 131.654C19.3461 131.724 19.3185 131.792 19.2693 131.843C19.2201 131.893 19.153 131.923 19.0824 131.925C19.0112 131.923 18.9433 131.894 18.8929 131.843C18.8425 131.793 18.8134 131.725 18.8115 131.654C18.8134 131.583 18.8428 131.516 18.8934 131.467C18.944 131.418 19.0118 131.39 19.0824 131.39Z" fill="#121728"/>
<path d="M47.046 183.678C47.3356 183.678 47.6188 183.764 47.8596 183.925C48.1004 184.086 48.2881 184.314 48.3989 184.582C48.5098 184.85 48.5388 185.144 48.4823 185.428C48.4258 185.712 48.2863 185.973 48.0815 186.178C47.8767 186.383 47.6158 186.522 47.3317 186.579C47.0476 186.635 46.7532 186.606 46.4856 186.495C46.218 186.384 45.9893 186.197 45.8283 185.956C45.6674 185.715 45.5815 185.432 45.5815 185.142C45.5815 184.754 45.7358 184.381 46.0105 184.107C46.2851 183.832 46.6576 183.678 47.046 183.678Z" fill="#121728"/>
<path d="M20.2904 151.629C20.3947 151.629 20.4966 151.659 20.5833 151.717C20.67 151.775 20.7375 151.858 20.7775 151.954C20.8174 152.05 20.8278 152.156 20.8075 152.259C20.7871 152.361 20.7369 152.455 20.6632 152.529C20.5894 152.602 20.4955 152.652 20.3932 152.673C20.291 152.693 20.185 152.683 20.0886 152.643C19.9923 152.603 19.91 152.535 19.852 152.449C19.7941 152.362 19.7632 152.26 19.7632 152.156C19.7632 152.087 19.7768 152.018 19.8033 151.954C19.8298 151.89 19.8686 151.832 19.9176 151.783C19.9666 151.734 20.0247 151.695 20.0886 151.669C20.1526 151.642 20.2212 151.629 20.2904 151.629Z" fill="#121728"/>
<path d="M30.2269 158.987C30.3717 158.987 30.5132 159.03 30.6337 159.111C30.7541 159.191 30.8479 159.306 30.9033 159.439C30.9588 159.573 30.9733 159.72 30.945 159.862C30.9168 160.005 30.847 160.135 30.7446 160.237C30.6422 160.34 30.5117 160.41 30.3697 160.438C30.2277 160.466 30.0804 160.452 29.9466 160.396C29.8128 160.341 29.6985 160.247 29.618 160.126C29.5376 160.006 29.4946 159.864 29.4946 159.72C29.4946 159.525 29.5718 159.339 29.7091 159.202C29.8464 159.065 30.0327 158.987 30.2269 158.987Z" fill="#121728"/>
<path d="M28.323 166.376C28.4921 166.377 28.657 166.428 28.797 166.523C28.9369 166.618 29.0455 166.753 29.1093 166.909C29.173 167.066 29.1889 167.238 29.155 167.404C29.1211 167.57 29.039 167.722 28.9189 167.841C28.7988 167.96 28.6461 168.041 28.4801 168.073C28.3142 168.105 28.1423 168.088 27.9862 168.023C27.83 167.958 27.6967 167.848 27.6029 167.707C27.5091 167.567 27.459 167.401 27.459 167.232C27.459 167.119 27.4814 167.007 27.5249 166.903C27.5684 166.798 27.6322 166.704 27.7125 166.624C27.7928 166.544 27.8881 166.481 27.9929 166.439C28.0977 166.396 28.2099 166.375 28.323 166.376Z" fill="#121728"/>
<path d="M17.9764 159.083C18.097 159.083 18.2147 159.119 18.3148 159.186C18.4149 159.253 18.4928 159.348 18.5386 159.46C18.5844 159.571 18.596 159.694 18.5719 159.812C18.5479 159.93 18.4893 160.038 18.4035 160.123C18.3178 160.207 18.2088 160.265 18.0904 160.287C17.9721 160.31 17.8497 160.297 17.7387 160.25C17.6278 160.203 17.5334 160.124 17.4675 160.023C17.4017 159.922 17.3672 159.804 17.3687 159.683C17.3706 159.523 17.4355 159.37 17.5493 159.258C17.663 159.146 17.8165 159.083 17.9764 159.083Z" fill="#121728"/>
<path d="M42.506 180.852C42.7811 180.852 43.0501 180.933 43.2789 181.086C43.5077 181.239 43.686 181.456 43.7913 181.71C43.8966 181.965 43.9241 182.244 43.8705 182.514C43.8168 182.784 43.6843 183.032 43.4897 183.227C43.2951 183.421 43.0473 183.554 42.7774 183.607C42.5075 183.661 42.2278 183.633 41.9736 183.528C41.7194 183.423 41.5021 183.245 41.3492 183.016C41.1963 182.787 41.1147 182.518 41.1147 182.243C41.1147 181.874 41.2613 181.52 41.5222 181.259C41.7831 180.998 42.137 180.852 42.506 180.852Z" fill="#121728"/>
<path d="M47.2145 177.637C47.4893 177.639 47.7576 177.721 47.9854 177.875C48.2132 178.029 48.3904 178.247 48.4946 178.501C48.5987 178.755 48.6252 179.035 48.5707 179.304C48.5162 179.574 48.3832 179.821 48.1883 180.015C47.9934 180.208 47.7455 180.34 47.4759 180.393C47.2062 180.446 46.9268 180.418 46.6731 180.313C46.4193 180.207 46.2024 180.029 46.0499 179.8C45.8973 179.572 45.8159 179.303 45.8159 179.028C45.8159 178.845 45.8521 178.663 45.9225 178.494C45.9929 178.325 46.096 178.171 46.226 178.042C46.3559 177.913 46.5102 177.81 46.6798 177.741C46.8495 177.671 47.0312 177.636 47.2145 177.637Z" fill="#121728"/>
<path d="M43.9779 131.024C44.0372 131.024 44.0959 131.036 44.1505 131.059C44.2052 131.081 44.2548 131.115 44.2963 131.157C44.3379 131.2 44.3707 131.25 44.3927 131.305C44.4147 131.36 44.4255 131.419 44.4246 131.478C44.4246 131.537 44.413 131.595 44.3906 131.649C44.3681 131.703 44.3352 131.752 44.2937 131.794C44.2523 131.835 44.203 131.868 44.1488 131.891C44.0946 131.913 44.0366 131.925 43.9779 131.925C43.9186 131.925 43.8598 131.915 43.8047 131.893C43.7497 131.871 43.6996 131.838 43.6573 131.796C43.6151 131.755 43.5815 131.705 43.5586 131.65C43.5357 131.596 43.5239 131.537 43.5239 131.478C43.5239 131.357 43.5717 131.242 43.6569 131.157C43.742 131.072 43.8575 131.024 43.9779 131.024Z" fill="#121728"/>
<path d="M34.4294 170.461C34.6322 170.461 34.8303 170.522 34.9989 170.634C35.1675 170.747 35.2989 170.907 35.3765 171.094C35.4541 171.282 35.4744 171.488 35.4348 171.687C35.3953 171.885 35.2976 172.068 35.1543 172.211C35.0109 172.355 34.8282 172.452 34.6294 172.492C34.4305 172.532 34.2244 172.511 34.0371 172.434C33.8498 172.356 33.6897 172.225 33.5771 172.056C33.4644 171.887 33.4043 171.689 33.4043 171.487C33.4043 171.352 33.4308 171.219 33.4823 171.094C33.5338 170.97 33.6094 170.857 33.7045 170.762C33.7997 170.666 33.9127 170.591 34.0371 170.539C34.1615 170.488 34.2948 170.461 34.4294 170.461Z" fill="#121728"/>
<path d="M8.83834 124.287C8.8673 124.287 8.89561 124.296 8.9197 124.312C8.94378 124.328 8.96256 124.351 8.97364 124.378C8.98472 124.405 8.98762 124.434 8.98197 124.462C8.97632 124.491 8.96237 124.517 8.94189 124.537C8.92141 124.558 8.89531 124.572 8.86691 124.578C8.8385 124.583 8.80905 124.58 8.78229 124.569C8.75553 124.558 8.73267 124.539 8.71658 124.515C8.70048 124.491 8.69189 124.463 8.69189 124.434C8.69189 124.395 8.70732 124.358 8.73479 124.33C8.76225 124.303 8.7995 124.287 8.83834 124.287Z" fill="#121728"/>
<path d="M22.6556 169.326C22.8224 169.326 22.9855 169.376 23.1241 169.469C23.2628 169.562 23.3707 169.694 23.4342 169.848C23.4977 170.002 23.514 170.172 23.4809 170.335C23.4478 170.499 23.3669 170.649 23.2484 170.766C23.1299 170.884 22.9791 170.963 22.8153 170.995C22.6515 171.027 22.4819 171.009 22.3282 170.944C22.1745 170.879 22.0435 170.77 21.9519 170.631C21.8602 170.491 21.8121 170.328 21.8135 170.161C21.8135 170.051 21.8353 169.942 21.8777 169.84C21.9201 169.738 21.9823 169.646 22.0606 169.568C22.1389 169.491 22.2318 169.429 22.3339 169.388C22.436 169.346 22.5453 169.325 22.6556 169.326Z" fill="#121728"/>
<path d="M36.1067 154.557C36.2516 154.557 36.3931 154.6 36.5135 154.681C36.6339 154.761 36.7278 154.876 36.7832 155.009C36.8386 155.143 36.8531 155.29 36.8249 155.433C36.7966 155.575 36.7269 155.705 36.6245 155.807C36.5221 155.91 36.3916 155.98 36.2496 156.008C36.1075 156.036 35.9603 156.022 35.8265 155.966C35.6927 155.911 35.5784 155.817 35.4979 155.696C35.4175 155.576 35.3745 155.434 35.3745 155.29C35.3745 155.095 35.4517 154.909 35.589 154.772C35.7263 154.635 35.9125 154.557 36.1067 154.557Z" fill="#121728"/>
<path d="M45.164 121.505C45.35 121.505 45.5008 121.354 45.5008 121.168C45.5008 120.982 45.35 120.831 45.164 120.831C44.9779 120.831 44.8271 120.982 44.8271 121.168C44.8271 121.354 44.9779 121.505 45.164 121.505Z" fill="#121728"/>
<path d="M45.7497 167.364C45.9745 167.364 46.1942 167.431 46.381 167.556C46.5678 167.681 46.7133 167.858 46.7989 168.066C46.8846 168.274 46.9067 168.503 46.8623 168.723C46.8179 168.943 46.7091 169.146 46.5496 169.304C46.3902 169.462 46.1873 169.57 45.9666 169.613C45.746 169.656 45.5175 169.632 45.3103 169.545C45.103 169.458 44.9263 169.312 44.8025 169.124C44.6786 168.936 44.6133 168.716 44.6148 168.492C44.6167 168.192 44.7371 167.905 44.9498 167.694C45.1624 167.483 45.45 167.364 45.7497 167.364Z" fill="#121728"/>
<path d="M38.8597 144.079C39.0151 144.079 39.1641 144.141 39.2739 144.251C39.3838 144.361 39.4455 144.51 39.4455 144.665C39.4455 144.82 39.3838 144.969 39.2739 145.079C39.1641 145.189 39.0151 145.251 38.8597 145.251C38.7043 145.251 38.5554 145.189 38.4455 145.079C38.3356 144.969 38.2739 144.82 38.2739 144.665C38.2739 144.51 38.3356 144.361 38.4455 144.251C38.5554 144.141 38.7043 144.079 38.8597 144.079Z" fill="#121728"/>
<path d="M51.4025 170.959C51.6635 170.959 51.9186 171.037 52.1355 171.182C52.3524 171.327 52.5213 171.533 52.6208 171.774C52.7204 172.016 52.7461 172.281 52.6946 172.537C52.6432 172.793 52.5169 173.028 52.3318 173.212C52.1468 173.396 51.9112 173.521 51.6551 173.571C51.399 173.621 51.1337 173.594 50.893 173.493C50.6523 173.392 50.447 173.222 50.303 173.004C50.1591 172.786 50.083 172.531 50.0845 172.27C50.0864 171.922 50.2261 171.588 50.4731 171.343C50.7201 171.097 51.0542 170.959 51.4025 170.959Z" fill="#121728"/>
<path d="M41.4739 150.662C41.6187 150.662 41.7603 150.705 41.8807 150.786C42.0011 150.866 42.095 150.98 42.1504 151.114C42.2058 151.248 42.2203 151.395 42.1921 151.537C42.1638 151.679 42.0941 151.81 41.9917 151.912C41.8893 152.015 41.7588 152.084 41.6168 152.112C41.4747 152.141 41.3275 152.126 41.1937 152.071C41.0599 152.015 40.9456 151.922 40.8651 151.801C40.7846 151.681 40.7417 151.539 40.7417 151.394C40.7417 151.2 40.8188 151.014 40.9562 150.877C41.0935 150.739 41.2797 150.662 41.4739 150.662Z" fill="#121728"/>
<path d="M43.7727 156.293C43.9442 156.291 44.1123 156.341 44.2555 156.435C44.3987 156.53 44.5106 156.665 44.5769 156.823C44.6432 156.981 44.6609 157.155 44.6278 157.324C44.5947 157.492 44.5123 157.647 44.391 157.768C44.2697 157.889 44.1151 157.972 43.9468 158.005C43.7785 158.038 43.6042 158.02 43.446 157.954C43.2878 157.887 43.153 157.776 43.0586 157.632C42.9642 157.489 42.9146 157.321 42.916 157.15C42.916 157.037 42.9382 156.926 42.9813 156.822C43.0243 156.718 43.0874 156.623 43.167 156.544C43.2465 156.464 43.341 156.401 43.4449 156.358C43.5488 156.315 43.6602 156.293 43.7727 156.293Z" fill="#121728"/>
<path d="M45.3763 139.276C45.4893 139.276 45.5997 139.31 45.6936 139.372C45.7875 139.435 45.8607 139.524 45.904 139.629C45.9472 139.733 45.9585 139.848 45.9365 139.959C45.9144 140.069 45.86 140.171 45.7802 140.251C45.7003 140.331 45.5985 140.385 45.4877 140.407C45.3769 140.429 45.2621 140.418 45.1577 140.375C45.0534 140.332 44.9642 140.258 44.9014 140.164C44.8387 140.071 44.8052 139.96 44.8052 139.847C44.8052 139.696 44.8653 139.55 44.9725 139.443C45.0796 139.336 45.2248 139.276 45.3763 139.276Z" fill="#121728"/>
<path d="M50.5164 151.724C50.6864 151.722 50.8531 151.771 50.9951 151.865C51.1371 151.959 51.248 152.092 51.3138 152.249C51.3795 152.406 51.3971 152.579 51.3643 152.746C51.3315 152.913 51.2497 153.066 51.1295 153.186C51.0092 153.306 50.8559 153.388 50.689 153.421C50.5222 153.454 50.3493 153.436 50.1925 153.37C50.0356 153.305 49.9019 153.194 49.8083 153.052C49.7148 152.91 49.6656 152.743 49.667 152.573C49.667 152.462 49.689 152.351 49.7317 152.248C49.7744 152.145 49.8369 152.051 49.9158 151.972C49.9947 151.894 50.0883 151.831 50.1914 151.788C50.2944 151.746 50.4049 151.724 50.5164 151.724Z" fill="#121728"/>
<path d="M33.097 148.29C33.2143 148.29 33.329 148.324 33.4265 148.39C33.524 148.455 33.6001 148.547 33.645 148.656C33.6898 148.764 33.7016 148.883 33.6787 148.998C33.6558 149.113 33.5993 149.219 33.5164 149.302C33.4334 149.385 33.3278 149.441 33.2127 149.464C33.0977 149.487 32.9784 149.475 32.87 149.431C32.7617 149.386 32.669 149.31 32.6039 149.212C32.5387 149.115 32.5039 149 32.5039 148.883C32.5039 148.725 32.5664 148.574 32.6776 148.463C32.7888 148.352 32.9397 148.29 33.097 148.29Z" fill="#121728"/>
<path d="M44.6365 162.341C44.8388 162.339 45.0368 162.398 45.2055 162.51C45.3741 162.622 45.5057 162.781 45.5834 162.968C45.6611 163.154 45.6814 163.36 45.6418 163.558C45.6022 163.756 45.5043 163.938 45.3608 164.081C45.2173 164.223 45.0346 164.32 44.836 164.358C44.6374 164.396 44.432 164.374 44.2458 164.295C44.0597 164.216 43.9013 164.084 43.7909 163.914C43.6806 163.745 43.6232 163.546 43.6261 163.344C43.628 163.077 43.7353 162.822 43.9246 162.634C44.1139 162.446 44.3698 162.341 44.6365 162.341Z" fill="#121728"/>
<path d="M12.1552 156.183C12.2569 156.182 12.3567 156.21 12.4419 156.266C12.5272 156.321 12.594 156.401 12.6339 156.494C12.6738 156.588 12.685 156.691 12.6661 156.791C12.6472 156.891 12.5989 156.983 12.5275 157.055C12.4562 157.128 12.3649 157.177 12.2652 157.198C12.1656 157.218 12.0622 157.208 11.9681 157.17C11.874 157.131 11.7935 157.065 11.7369 156.981C11.6802 156.897 11.65 156.797 11.65 156.696C11.649 156.629 11.6613 156.562 11.6863 156.5C11.7113 156.438 11.7483 156.381 11.7953 156.334C11.8423 156.286 11.8984 156.248 11.9601 156.222C12.0219 156.196 12.0882 156.183 12.1552 156.183Z" fill="#121728"/>
<path d="M51.7467 178.962C52.0363 178.962 52.3194 179.048 52.5603 179.209C52.8011 179.37 52.9888 179.599 53.0996 179.866C53.2105 180.134 53.2395 180.428 53.183 180.713C53.1265 180.997 52.987 181.258 52.7822 181.462C52.5774 181.667 52.3164 181.807 52.0324 181.863C51.7483 181.92 51.4538 181.891 51.1863 181.78C50.9187 181.669 50.6899 181.481 50.529 181.24C50.3681 181 50.2822 180.716 50.2822 180.427C50.2822 180.038 50.4365 179.666 50.7112 179.391C50.9858 179.117 51.3583 178.962 51.7467 178.962Z" fill="#121728"/>
<path d="M46.2769 146.84C46.4352 146.879 46.5757 146.971 46.6761 147.1C46.7765 147.228 46.8311 147.387 46.8311 147.55C46.8311 147.713 46.7765 147.872 46.6761 148C46.5757 148.129 46.4352 148.221 46.2769 148.26C46.1185 148.221 45.978 148.129 45.8776 148C45.7772 147.872 45.7227 147.713 45.7227 147.55C45.7227 147.387 45.7772 147.228 45.8776 147.1C45.978 146.971 46.1185 146.879 46.2769 146.84Z" fill="#121728"/>
<path d="M12.9536 112.982C12.9763 112.984 12.9977 112.993 13.0138 113.009C13.03 113.026 13.0398 113.047 13.0415 113.07C13.0396 113.092 13.0295 113.112 13.0133 113.127C12.997 113.142 12.9757 113.15 12.9536 113.15C12.943 113.15 12.9325 113.148 12.9228 113.144C12.913 113.14 12.9041 113.134 12.8966 113.127C12.8892 113.119 12.8832 113.11 12.8792 113.101C12.8751 113.091 12.873 113.08 12.873 113.07C12.873 113.048 12.8812 113.026 12.8961 113.01C12.9111 112.994 12.9316 112.984 12.9536 112.982Z" fill="#121728"/>
<path d="M5.10439 151.365C5.18288 151.364 5.26003 151.386 5.32601 151.428C5.39199 151.471 5.44381 151.532 5.47486 151.604C5.50592 151.676 5.51479 151.756 5.50037 151.833C5.48595 151.91 5.44889 151.981 5.3939 152.037C5.3389 152.093 5.26847 152.132 5.19158 152.148C5.11468 152.164 5.03481 152.156 4.96213 152.126C4.88946 152.097 4.82726 152.046 4.78348 151.981C4.7397 151.916 4.71632 151.839 4.71631 151.76C4.71629 151.657 4.75694 151.557 4.82951 151.483C4.90209 151.41 5.00079 151.367 5.10439 151.365Z" fill="#121728"/>
<path d="M30.6147 125.269C30.6911 125.27 30.7637 125.302 30.8171 125.357C30.8704 125.412 30.9003 125.485 30.9002 125.561C30.8893 125.63 30.8541 125.693 30.8011 125.738C30.7481 125.783 30.6807 125.808 30.611 125.808C30.5413 125.808 30.4739 125.783 30.4209 125.738C30.3679 125.693 30.3328 125.63 30.3218 125.561C30.3218 125.484 30.3526 125.409 30.4076 125.354C30.4625 125.299 30.537 125.269 30.6147 125.269Z" fill="#121728"/>
<path d="M11.3353 163.74C11.5004 163.74 11.6587 163.805 11.7754 163.922C11.8921 164.039 11.9577 164.197 11.9577 164.362C11.9577 164.527 11.8921 164.685 11.7754 164.802C11.6587 164.919 11.5004 164.984 11.3353 164.984C11.1702 164.984 11.0119 164.919 10.8952 164.802C10.7785 164.685 10.7129 164.527 10.7129 164.362C10.7129 164.197 10.7785 164.039 10.8952 163.922C11.0119 163.805 11.1702 163.74 11.3353 163.74Z" fill="#121728"/>
<path d="M37.6073 137.153C37.858 137.153 38.0613 136.949 38.0613 136.699C38.0613 136.448 37.858 136.245 37.6073 136.245C37.3566 136.245 37.1533 136.448 37.1533 136.699C37.1533 136.949 37.3566 137.153 37.6073 137.153Z" fill="#121728"/>
<path d="M51.0366 164.076C51.1958 164.064 51.3559 164.084 51.5068 164.136C51.6577 164.188 51.7961 164.271 51.9135 164.38C52.0308 164.488 52.1244 164.619 52.1884 164.766C52.2525 164.912 52.2855 165.07 52.2855 165.23C52.2855 165.389 52.2525 165.547 52.1884 165.694C52.1244 165.84 52.0308 165.971 51.9135 166.08C51.7961 166.188 51.6577 166.271 51.5068 166.323C51.3559 166.375 51.1958 166.396 51.0366 166.383C50.7466 166.36 50.476 166.228 50.2786 166.015C50.0813 165.801 49.9717 165.521 49.9717 165.23C49.9717 164.939 50.0813 164.658 50.2786 164.445C50.476 164.231 50.7466 164.1 51.0366 164.076Z" fill="#121728"/>
<path d="M37.3732 178.787C37.6252 178.787 37.8715 178.861 38.081 179.001C38.2905 179.141 38.4538 179.34 38.5503 179.573C38.6467 179.806 38.6719 180.062 38.6228 180.309C38.5736 180.556 38.4523 180.783 38.2741 180.962C38.0959 181.14 37.8689 181.261 37.6217 181.31C37.3746 181.359 37.1184 181.334 36.8856 181.238C36.6528 181.141 36.4538 180.978 36.3138 180.769C36.1738 180.559 36.0991 180.313 36.0991 180.061C36.0991 179.893 36.1321 179.728 36.1961 179.573C36.2601 179.419 36.354 179.278 36.4723 179.16C36.5906 179.042 36.731 178.948 36.8856 178.884C37.0402 178.82 37.2059 178.787 37.3732 178.787Z" fill="#121728"/>
<path d="M27.2026 112.045C27.2414 112.045 27.2787 112.06 27.3061 112.087C27.3336 112.115 27.349 112.152 27.349 112.191C27.349 112.23 27.3336 112.267 27.3061 112.295C27.2787 112.322 27.2414 112.337 27.2026 112.337C27.1638 112.337 27.1265 112.322 27.099 112.295C27.0716 112.267 27.0562 112.23 27.0562 112.191C27.0562 112.152 27.0716 112.115 27.099 112.087C27.1265 112.06 27.1638 112.045 27.2026 112.045Z" fill="#121728"/>
<path d="M26.0238 146.65C26.1558 146.65 26.2825 146.702 26.3759 146.795C26.4692 146.889 26.5217 147.015 26.5217 147.147C26.5217 147.28 26.4692 147.406 26.3759 147.5C26.2825 147.593 26.1558 147.645 26.0238 147.645C25.8917 147.645 25.7651 147.593 25.6717 147.5C25.5783 147.406 25.5259 147.28 25.5259 147.147C25.5259 147.015 25.5783 146.889 25.6717 146.795C25.7651 146.702 25.8917 146.65 26.0238 146.65Z" fill="#121728"/>
<path d="M14.3891 139.393C14.451 139.395 14.5112 139.414 14.562 139.45C14.6128 139.485 14.652 139.535 14.6747 139.593C14.6974 139.65 14.7026 139.713 14.6896 139.774C14.6767 139.834 14.6461 139.89 14.6018 139.933C14.5575 139.976 14.5014 140.006 14.4405 140.017C14.3797 140.029 14.3167 140.022 14.2596 139.998C14.2025 139.974 14.1538 139.934 14.1195 139.882C14.0852 139.831 14.0669 139.77 14.0669 139.708C14.0669 139.666 14.0753 139.625 14.0915 139.586C14.1078 139.547 14.1317 139.512 14.1617 139.483C14.1917 139.453 14.2273 139.43 14.2663 139.415C14.3054 139.4 14.3471 139.392 14.3891 139.393Z" fill="#121728"/>
<path d="M40.7194 174.51C40.9641 174.51 41.2034 174.583 41.4069 174.719C41.6104 174.855 41.769 175.048 41.8626 175.274C41.9563 175.5 41.9808 175.749 41.9331 175.989C41.8853 176.229 41.7675 176.45 41.5944 176.623C41.4213 176.796 41.2008 176.914 40.9608 176.962C40.7208 177.009 40.4719 176.985 40.2458 176.891C40.0197 176.797 39.8265 176.639 39.6905 176.435C39.5545 176.232 39.4819 175.993 39.4819 175.748C39.4819 175.42 39.6123 175.105 39.8444 174.873C40.0764 174.641 40.3912 174.51 40.7194 174.51Z" fill="#121728"/>
<path d="M22.1284 122.201C22.1704 122.201 22.2114 122.213 22.2463 122.236C22.2812 122.26 22.3085 122.293 22.3245 122.332C22.3406 122.37 22.3448 122.413 22.3366 122.454C22.3284 122.496 22.3082 122.533 22.2785 122.563C22.2488 122.593 22.211 122.613 22.1698 122.621C22.1286 122.629 22.0859 122.625 22.0471 122.609C22.0083 122.593 21.9751 122.566 21.9518 122.531C21.9285 122.496 21.916 122.455 21.916 122.413C21.916 122.357 21.9384 122.303 21.9782 122.263C22.018 122.223 22.072 122.201 22.1284 122.201Z" fill="#121728"/>
<path d="M23.5633 161.103C23.6994 161.103 23.8325 161.144 23.9457 161.219C24.0589 161.295 24.1471 161.403 24.1992 161.528C24.2513 161.654 24.2649 161.792 24.2384 161.926C24.2118 162.06 24.1462 162.182 24.05 162.278C23.9537 162.375 23.8311 162.44 23.6976 162.467C23.5641 162.493 23.4257 162.48 23.2999 162.428C23.1741 162.376 23.0666 162.287 22.991 162.174C22.9154 162.061 22.875 161.928 22.875 161.792C22.875 161.609 22.9475 161.434 23.0766 161.305C23.2057 161.176 23.3807 161.103 23.5633 161.103Z" fill="#121728"/>
<path d="M38.4275 160.913C38.6013 160.913 38.7712 160.965 38.9157 161.061C39.0602 161.158 39.1728 161.295 39.2393 161.456C39.3058 161.616 39.3232 161.793 39.2893 161.963C39.2554 162.134 39.1717 162.29 39.0488 162.413C38.9259 162.536 38.7694 162.62 38.5989 162.654C38.4285 162.688 38.2518 162.67 38.0912 162.604C37.9307 162.537 37.7935 162.425 37.6969 162.28C37.6004 162.136 37.5488 161.966 37.5488 161.792C37.5488 161.559 37.6414 161.335 37.8062 161.171C37.971 161.006 38.1945 160.913 38.4275 160.913Z" fill="#121728"/>
<path d="M37.5123 117.331C37.5763 117.331 37.6378 117.357 37.6831 117.402C37.7284 117.447 37.7539 117.509 37.7539 117.573C37.7539 117.604 37.7476 117.635 37.7354 117.664C37.7232 117.693 37.7052 117.719 37.6827 117.741C37.6602 117.763 37.6335 117.78 37.6042 117.792C37.5749 117.803 37.5436 117.808 37.5123 117.807C37.4501 117.807 37.3905 117.783 37.3466 117.739C37.3026 117.695 37.2779 117.635 37.2779 117.573C37.277 117.542 37.2823 117.51 37.2936 117.481C37.305 117.452 37.3221 117.425 37.3439 117.403C37.3658 117.38 37.392 117.362 37.4209 117.35C37.4498 117.338 37.4809 117.331 37.5123 117.331Z" fill="#121728"/>
<path d="M51.2488 143.42C51.3951 143.421 51.538 143.465 51.6591 143.547C51.7802 143.629 51.8739 143.746 51.928 143.882C51.9822 144.017 51.9944 144.167 51.9631 144.309C51.9317 144.452 51.8583 144.583 51.7522 144.683C51.6461 144.784 51.5122 144.851 51.3678 144.875C51.2235 144.899 51.0752 144.879 50.9423 144.818C50.8093 144.757 50.6976 144.657 50.6218 144.532C50.5459 144.407 50.5092 144.262 50.5165 144.116C50.5164 144.021 50.5355 143.928 50.5728 143.841C50.61 143.754 50.6645 143.676 50.7331 143.611C50.8016 143.546 50.8826 143.495 50.9713 143.462C51.06 143.43 51.1544 143.415 51.2488 143.42Z" fill="#121728"/>
<path d="M4.74553 158.951C4.84111 158.951 4.93455 158.979 5.01403 159.032C5.0935 159.085 5.15543 159.161 5.19201 159.249C5.22859 159.337 5.23816 159.435 5.21952 159.528C5.20087 159.622 5.15484 159.708 5.08725 159.776C5.01967 159.843 4.93355 159.889 4.83981 159.908C4.74606 159.927 4.64891 159.917 4.5606 159.881C4.4723 159.844 4.39682 159.782 4.34371 159.703C4.29061 159.623 4.26226 159.53 4.26226 159.434C4.26128 159.37 4.27311 159.307 4.29705 159.248C4.32098 159.189 4.35654 159.135 4.40161 159.09C4.44669 159.045 4.50035 159.01 4.55943 158.986C4.61851 158.962 4.6818 158.95 4.74553 158.951Z" fill="#121728"/>
<path d="M50.7655 134.143C50.8755 134.143 50.9831 134.176 51.0746 134.237C51.1662 134.298 51.2375 134.385 51.2796 134.487C51.3217 134.588 51.3327 134.7 51.3113 134.808C51.2898 134.916 51.2368 135.015 51.159 135.093C51.0811 135.171 50.982 135.224 50.874 135.245C50.7661 135.267 50.6542 135.256 50.5525 135.214C50.4508 135.172 50.3639 135.1 50.3028 135.009C50.2416 134.917 50.209 134.81 50.209 134.7C50.209 134.552 50.2676 134.411 50.372 134.306C50.4763 134.202 50.6179 134.143 50.7655 134.143Z" fill="#121728"/>
<path d="M50.37 126.279C50.6046 126.279 50.7947 126.089 50.7947 125.854C50.7947 125.62 50.6046 125.43 50.37 125.43C50.1355 125.43 49.9453 125.62 49.9453 125.854C49.9453 126.089 50.1355 126.279 50.37 126.279Z" fill="#121728"/>
<path d="M34.0564 166.171C34.5578 166.171 34.9644 165.764 34.9644 165.263C34.9644 164.761 34.5578 164.355 34.0564 164.355C33.5549 164.355 33.1484 164.761 33.1484 165.263C33.1484 165.764 33.5549 166.171 34.0564 166.171Z" fill="#121728"/>
<path d="M39.9284 168.353C40.1427 168.353 40.3523 168.416 40.5305 168.535C40.7087 168.654 40.8476 168.824 40.9296 169.022C41.0116 169.22 41.0331 169.437 40.9913 169.648C40.9495 169.858 40.8462 170.051 40.6947 170.203C40.5431 170.354 40.35 170.457 40.1398 170.499C39.9296 170.541 39.7117 170.519 39.5137 170.437C39.3157 170.355 39.1464 170.217 39.0274 170.038C38.9083 169.86 38.8447 169.651 38.8447 169.436C38.8447 169.149 38.9589 168.873 39.1621 168.67C39.3654 168.467 39.641 168.353 39.9284 168.353Z" fill="#121728"/>
<path d="M50.3918 157.677C50.5833 157.675 50.7709 157.731 50.9308 157.836C51.0907 157.941 51.2157 158.092 51.29 158.268C51.3643 158.445 51.3845 158.639 51.348 158.827C51.3115 159.015 51.2201 159.188 51.0852 159.324C50.9503 159.46 50.7781 159.553 50.5904 159.591C50.4027 159.629 50.208 159.61 50.031 159.537C49.854 159.464 49.7026 159.34 49.596 159.181C49.4895 159.022 49.4326 158.835 49.4326 158.643C49.4326 158.388 49.5334 158.143 49.7131 157.962C49.8928 157.781 50.1368 157.679 50.3918 157.677Z" fill="#121728"/>
<path d="M32.965 177.769C33.5999 177.769 34.1146 177.254 34.1146 176.619C34.1146 175.984 33.5999 175.47 32.965 175.47C32.3301 175.47 31.8154 175.984 31.8154 176.619C31.8154 177.254 32.3301 177.769 32.965 177.769Z" fill="#121728"/>
<path d="M17.596 166.844C17.7408 166.844 17.8824 166.887 18.0028 166.968C18.1232 167.048 18.2171 167.162 18.2725 167.296C18.3279 167.43 18.3424 167.577 18.3141 167.719C18.2859 167.861 18.2162 167.992 18.1138 168.094C18.0113 168.197 17.8809 168.266 17.7388 168.294C17.5968 168.323 17.4496 168.308 17.3158 168.253C17.182 168.197 17.0676 168.104 16.9872 167.983C16.9067 167.863 16.8638 167.721 16.8638 167.576C16.8638 167.382 16.9409 167.196 17.0782 167.059C17.2155 166.921 17.4018 166.844 17.596 166.844Z" fill="#121728"/>
<path d="M27.1371 134.751C27.3312 134.751 27.4886 134.593 27.4886 134.399C27.4886 134.205 27.3312 134.048 27.1371 134.048C26.943 134.048 26.7856 134.205 26.7856 134.399C26.7856 134.593 26.943 134.751 27.1371 134.751Z" fill="#121728"/>
<path d="M46.3209 172.665C46.5769 172.667 46.8268 172.744 47.039 172.887C47.2511 173.03 47.4161 173.233 47.5131 173.47C47.6101 173.707 47.6347 173.968 47.5838 174.219C47.533 174.469 47.409 174.7 47.2275 174.88C47.0459 175.061 46.815 175.183 46.5638 175.233C46.3126 175.282 46.0524 175.256 45.816 175.158C45.5796 175.06 45.3776 174.893 45.2355 174.681C45.0934 174.468 45.0176 174.217 45.0176 173.961C45.0176 173.79 45.0513 173.621 45.1169 173.464C45.1825 173.306 45.2786 173.163 45.3998 173.042C45.5209 172.922 45.6646 172.826 45.8227 172.762C45.9808 172.697 46.1501 172.664 46.3209 172.665Z" fill="#121728"/>
<path d="M27.7298 153.686C27.8529 153.686 27.9732 153.723 28.0756 153.791C28.1779 153.859 28.2577 153.957 28.3048 154.07C28.3519 154.184 28.3643 154.309 28.3402 154.43C28.3162 154.551 28.257 154.662 28.1699 154.749C28.0829 154.836 27.972 154.895 27.8512 154.919C27.7305 154.943 27.6054 154.931 27.4916 154.884C27.3779 154.836 27.2807 154.757 27.2123 154.654C27.1439 154.552 27.1074 154.432 27.1074 154.308C27.1074 154.143 27.173 153.985 27.2897 153.868C27.4064 153.752 27.5647 153.686 27.7298 153.686Z" fill="#121728"/>
<path d="M31.3764 140.14C31.4682 140.139 31.5584 140.165 31.6354 140.215C31.7124 140.265 31.7726 140.337 31.8084 140.421C31.8443 140.506 31.854 140.599 31.8364 140.69C31.8189 140.78 31.7748 140.863 31.7098 140.928C31.6449 140.992 31.562 141.037 31.4719 141.054C31.3817 141.072 31.2884 141.062 31.2038 141.026C31.1192 140.99 31.0472 140.93 30.9971 140.853C30.947 140.776 30.921 140.686 30.9224 140.594C30.9243 140.474 30.9727 140.36 31.0575 140.275C31.1422 140.19 31.2566 140.142 31.3764 140.14Z" fill="#121728"/>
<path d="M27.5764 172.922C27.7777 172.922 27.9745 172.981 28.1419 173.093C28.3092 173.205 28.4397 173.364 28.5167 173.55C28.5938 173.736 28.6139 173.941 28.5746 174.138C28.5354 174.335 28.4384 174.517 28.2961 174.659C28.1538 174.801 27.9724 174.898 27.775 174.938C27.5775 174.977 27.3729 174.957 27.1869 174.88C27.0009 174.803 26.842 174.672 26.7302 174.505C26.6183 174.337 26.5586 174.141 26.5586 173.939C26.5576 173.805 26.5833 173.673 26.6341 173.549C26.6849 173.425 26.7598 173.312 26.8546 173.218C26.9493 173.123 27.0618 173.048 27.1858 172.997C27.3097 172.946 27.4425 172.921 27.5764 172.922Z" fill="#121728"/>
<path d="M21.5136 141.626C21.5932 141.626 21.6711 141.65 21.7373 141.694C21.8035 141.739 21.8551 141.801 21.8856 141.875C21.9161 141.949 21.9241 142.03 21.9085 142.108C21.893 142.186 21.8546 142.258 21.7983 142.314C21.742 142.37 21.6702 142.409 21.5921 142.424C21.514 142.44 21.433 142.432 21.3594 142.401C21.2859 142.371 21.223 142.319 21.1787 142.253C21.1345 142.187 21.1108 142.109 21.1108 142.029C21.1108 141.922 21.1533 141.82 21.2288 141.744C21.3043 141.669 21.4067 141.626 21.5136 141.626Z" fill="#121728"/>
<path d="M6.56899 133.784C6.61765 133.793 6.66156 133.819 6.69317 133.857C6.72477 133.896 6.74207 133.943 6.74207 133.993C6.74207 134.042 6.72477 134.09 6.69317 134.129C6.66156 134.167 6.61765 134.193 6.56899 134.202C6.53832 134.207 6.50675 134.206 6.47653 134.199C6.44631 134.191 6.4182 134.176 6.39417 134.156C6.37015 134.136 6.35081 134.112 6.33754 134.083C6.32427 134.055 6.31738 134.024 6.31738 133.993C6.31738 133.962 6.32427 133.931 6.33754 133.903C6.35081 133.874 6.37015 133.849 6.39417 133.83C6.4182 133.81 6.44631 133.795 6.47653 133.787C6.50675 133.78 6.53832 133.779 6.56899 133.784Z" fill="#121728"/>
<path d="M13.5907 148.165C13.6707 148.164 13.7492 148.186 13.8164 148.229C13.8836 148.273 13.9364 148.335 13.968 148.409C13.9996 148.482 14.0086 148.563 13.9939 148.642C13.9792 148.721 13.9414 148.793 13.8854 148.85C13.8294 148.907 13.7577 148.946 13.6793 148.962C13.601 148.978 13.5197 148.971 13.4457 148.941C13.3716 148.91 13.3083 148.859 13.2637 148.792C13.2192 148.726 13.1953 148.648 13.1953 148.568C13.1953 148.462 13.2367 148.361 13.3107 148.286C13.3846 148.21 13.4852 148.167 13.5907 148.165Z" fill="#121728"/>
<path d="M6.03409 143.34C6.11438 143.342 6.19074 143.375 6.24684 143.433C6.30294 143.49 6.33433 143.567 6.33431 143.647C6.32302 143.72 6.28619 143.786 6.23047 143.834C6.17474 143.881 6.1038 143.908 6.03044 143.908C5.95708 143.908 5.88613 143.881 5.8304 143.834C5.77468 143.786 5.73785 143.72 5.72656 143.647C5.72656 143.566 5.75896 143.488 5.81664 143.43C5.87431 143.372 5.95253 143.34 6.03409 143.34Z" fill="#121728"/>
<path d="M49.5062 82.4116C49.6003 82.6536 49.6195 82.9182 49.5615 83.1712C49.5035 83.4243 49.3708 83.654 49.1806 83.8308C48.9905 84.0075 48.7516 84.1231 48.495 84.1625C48.2384 84.2019 47.9759 84.1633 47.7415 84.0518L44.0804 82.3457C41.9011 81.3351 39.8032 80.1576 37.8052 78.8238C35.96 77.6009 33.5071 75.9388 31.0102 74.1815C28.1692 72.1825 25.2769 70.0444 23.1681 68.2798C22.1337 67.4639 21.1931 66.5356 20.3637 65.512C18.4819 62.854 19.1043 54.5286 19.961 47.1259C22.7985 48.5234 25.884 49.347 29.0405 49.5495C28.7843 52.8226 28.6378 56.1834 28.5353 60.1887C28.5218 60.6533 28.6083 61.1154 28.789 61.5437C28.9696 61.9719 29.2402 62.3564 29.5824 62.6709C31.2519 64.2013 32.8335 65.5998 34.3931 66.8519C35.7111 67.9429 37.0144 68.9681 38.3324 69.9492C41.5835 72.3949 44.9224 74.6428 49.0082 77.2714C49.0883 77.325 49.1539 77.3974 49.1993 77.4823C49.2446 77.5673 49.2684 77.6621 49.2684 77.7584C49.2684 77.8547 49.2446 77.9495 49.1993 78.0344C49.1539 78.1193 49.0883 78.1918 49.0082 78.2453L48.1296 78.875L49.5062 82.4116Z" fill="white"/>
<path d="M49.3085 7.24901C47.0085 10.0754 43.7422 11.9486 40.1411 12.5064V12.8139C40.1411 20.3924 37.6735 24.6978 34.2321 26.6016C32.7536 27.4017 31.095 27.8101 29.4141 27.7878C28.0017 27.8202 26.6177 27.388 25.4747 26.5577C25.0754 26.3017 24.7373 25.9611 24.4842 25.56C24.2312 25.1589 24.0694 24.7071 24.0103 24.2366C24.0103 21.5273 29.8314 19.4112 30.959 17.3976C34.752 10.6245 32.8482 0.929932 44.4026 0.929932C48.5177 0.929932 50.7071 1.57429 50.7071 3.67576C50.6279 4.98419 50.1385 6.23444 49.3085 7.24901Z" fill="#121728"/>
<path d="M49.3084 7.2491C49.4182 11.4447 48.7958 20.7366 43.9119 20.0996L43.7581 20.6707H43.8533L43.7728 20.9709C45.6692 25.8915 48.5761 34.8246 45.186 35.8057C41.9642 36.743 37.0144 30.5337 34.2026 26.5431C37.6441 24.6394 40.1117 20.3339 40.1117 12.7554V12.5064C43.7233 11.9556 47.0012 10.0818 49.3084 7.2491Z" fill="white"/>
<path d="M43.9925 66.6908L38.3251 69.9638C37.0071 68.9827 35.7037 67.9575 34.3857 66.8665C35.7929 67.1337 37.2223 67.2661 38.6546 67.2619C40.4489 67.2578 42.2379 67.0664 43.9925 66.6908Z" fill="white"/>
<path d="M31.0029 74.1816L24.801 77.7621C23.5384 75.7781 22.8913 73.4647 22.9412 71.1135C22.9485 70.165 23.0219 69.2182 23.1608 68.2798C25.2476 70.0445 28.1765 72.1826 31.0029 74.1816Z" fill="#121728"/>
<path d="M53.2989 191.901C53.1389 191.903 52.9815 191.86 52.8449 191.776L0.46178 161.514C0.32173 161.434 0.205225 161.32 0.124171 161.181C0.0431182 161.042 0.000434274 160.884 0.000488333 160.723V91.5864C0.00118387 91.4257 0.0441772 91.268 0.125155 91.1292C0.206132 90.9904 0.322231 90.8753 0.46178 90.7956L30.5488 73.4273C30.6522 73.3662 30.7669 73.3264 30.886 73.3102C31.005 73.2941 31.1262 73.3019 31.2422 73.3333C31.3582 73.3647 31.4667 73.419 31.5614 73.493C31.6561 73.567 31.735 73.6592 31.7936 73.7641C31.8542 73.868 31.8937 73.9827 31.91 74.1019C31.9262 74.221 31.9188 74.3422 31.8882 74.4585C31.8576 74.5747 31.8044 74.6838 31.7316 74.7795C31.6588 74.8752 31.5679 74.9557 31.4641 75.0162L1.8164 92.077V160.174L52.3397 189.367V121.791C52.3397 121.548 52.4361 121.315 52.6078 121.143C52.7794 120.972 53.0122 120.875 53.255 120.875C53.4977 120.875 53.7305 120.972 53.9022 121.143C54.0738 121.315 54.1702 121.548 54.1702 121.791V190.971C54.1722 191.092 54.1499 191.212 54.1046 191.323C54.0593 191.435 53.992 191.537 53.9066 191.622C53.8212 191.708 53.7195 191.775 53.6076 191.82C53.4956 191.866 53.3757 191.888 53.255 191.886L53.2989 191.901Z" fill="#121728"/>
<path d="M139.423 70.6887C139.264 70.6897 139.108 70.6494 138.969 70.5716L89.0316 41.7367L62.3348 57.1133C62.2308 57.1821 62.1137 57.2289 61.9909 57.2508C61.8681 57.2726 61.7421 57.2692 61.6206 57.2406C61.4992 57.212 61.3849 57.1589 61.2847 57.0845C61.1845 57.0102 61.1006 56.9161 61.0381 56.8081C60.9756 56.7001 60.9359 56.5805 60.9213 56.4566C60.9067 56.3327 60.9176 56.2071 60.9534 56.0876C60.9891 55.9681 61.0489 55.8571 61.1291 55.7615C61.2092 55.6659 61.3081 55.5877 61.4196 55.5317L88.5777 39.8549C88.7173 39.776 88.8749 39.7345 89.0353 39.7345C89.1957 39.7345 89.3533 39.776 89.4929 39.8549L139.884 68.9534C139.988 69.0139 140.079 69.0943 140.152 69.19C140.225 69.2858 140.278 69.3949 140.309 69.5112C140.339 69.6274 140.347 69.7486 140.33 69.8677C140.314 69.9869 140.275 70.1016 140.214 70.2055C140.138 70.3496 140.024 70.4705 139.885 70.5556C139.746 70.6406 139.586 70.6866 139.423 70.6887Z" fill="#121728"/>
<path d="M38.325 70.8645C38.1244 70.863 37.9298 70.7956 37.7713 70.6728C37.6127 70.55 37.4989 70.3784 37.4473 70.1846C37.3957 69.9907 37.4092 69.7853 37.4858 69.5999C37.5623 69.4145 37.6977 69.2594 37.871 69.1584L51.5489 61.265C51.6532 61.2049 51.7684 61.166 51.8877 61.1504C52.0071 61.1348 52.1284 61.1429 52.2447 61.1741C52.361 61.2054 52.4699 61.2593 52.5654 61.3327C52.6608 61.4061 52.7409 61.4975 52.801 61.6019C52.8611 61.7062 52.9001 61.8213 52.9156 61.9407C52.9312 62.0601 52.9232 62.1814 52.8919 62.2977C52.8606 62.4139 52.8068 62.5229 52.7334 62.6184C52.66 62.7138 52.5685 62.7939 52.4642 62.854L38.7863 70.74C38.6467 70.8226 38.4872 70.8656 38.325 70.8645Z" fill="#121728"/>
<path d="M52.0032 62.9638C51.8026 62.9623 51.6081 62.895 51.4495 62.7721C51.2909 62.6493 51.1771 62.4778 51.1255 62.2839C51.0739 62.0901 51.0875 61.8847 51.164 61.6993C51.2406 61.5139 51.3759 61.3587 51.5492 61.2577L54.6465 59.4711C54.8551 59.3664 55.0957 59.3453 55.3193 59.4121C55.5429 59.4789 55.7325 59.6286 55.8494 59.8306C55.9663 60.0326 56.0017 60.2716 55.9482 60.4988C55.8947 60.7259 55.7565 60.9241 55.5618 61.0527L52.4645 62.8393C52.3253 62.923 52.1655 62.9661 52.0032 62.9638Z" fill="#121728"/>
<path d="M139.423 141.011C139.258 141.011 139.096 140.965 138.954 140.879L88.563 110.624C88.4262 110.544 88.3129 110.43 88.2345 110.292C88.1561 110.155 88.1153 109.999 88.1163 109.841V101.837L53.8044 122.574C53.6633 122.656 53.5028 122.7 53.3395 122.7C53.1761 122.7 53.0156 122.656 52.8745 122.574L0.462054 92.3185C0.357094 92.26 0.264908 92.181 0.190924 92.0863C0.116939 91.9916 0.0626524 91.8831 0.0312641 91.7671C-0.000124123 91.6511 -0.00797978 91.53 0.00815874 91.4109C0.0242973 91.2918 0.0641083 91.1772 0.125239 91.0737C0.185187 90.9692 0.265173 90.8776 0.360605 90.8041C0.456037 90.7306 0.56503 90.6766 0.681354 90.6454C0.797679 90.6141 0.91904 90.606 1.03847 90.6217C1.1579 90.6374 1.27305 90.6766 1.37733 90.7369L53.2919 120.707L88.5483 99.4137L138.933 68.9826C139.071 68.8974 139.229 68.8509 139.392 68.8479C139.554 68.845 139.714 68.8856 139.856 68.9656C139.997 69.0457 140.114 69.1621 140.195 69.3029C140.276 69.4437 140.318 69.6036 140.316 69.7661V140.059C140.317 140.18 140.294 140.299 140.249 140.411C140.203 140.522 140.136 140.624 140.051 140.709C139.965 140.794 139.864 140.861 139.753 140.907C139.641 140.953 139.522 140.976 139.401 140.975L139.423 141.011ZM89.9469 109.306L138.508 138.448V71.3989L89.9469 100.732V109.306Z" fill="#121728"/>
<path d="M44.388 21.0515C44.1895 21.0509 43.9913 21.0362 43.7949 21.0075C43.6757 20.9922 43.5606 20.9535 43.4564 20.8937C43.3521 20.8338 43.2606 20.754 43.1872 20.6588C43.1137 20.5636 43.0598 20.4549 43.0284 20.3388C42.997 20.2228 42.9887 20.1017 43.0041 19.9824C43.0405 19.7441 43.1673 19.5289 43.3582 19.3816C43.5491 19.2343 43.7895 19.1663 44.0292 19.1916C44.36 19.2433 44.6982 19.2188 45.018 19.1198C45.3378 19.0208 45.6307 18.85 45.8744 18.6205C47.7782 16.9071 48.5104 11.6864 48.3933 7.27839L50.2238 7.24178C50.2824 9.49702 50.2238 17.1487 47.1046 19.9751C46.3697 20.6676 45.3978 21.0527 44.388 21.0515Z" fill="#121728"/>
<path d="M29.4138 28.6665C27.802 28.6924 26.225 28.1967 24.918 27.2533C24.4088 26.9111 23.9827 26.4593 23.671 25.9309C23.3593 25.4026 23.1699 24.8111 23.1167 24.1999C23.1167 22.1058 25.3134 20.5901 27.51 19.133C28.6596 18.3495 29.8458 17.544 30.1973 16.9363C31.1577 15.008 31.8947 12.9764 32.3939 10.8808C33.9096 5.52827 35.4766 0 44.4024 0C46.7455 0 51.6221 0 51.6221 3.66111C51.5498 5.18404 50.9873 6.64285 50.0185 7.82013C47.753 10.6146 44.5833 12.5309 41.0561 13.2386C40.9463 22.0618 37.5415 25.7962 34.6785 27.3851C33.0612 28.2533 31.2491 28.6943 29.4138 28.6665ZM44.4244 1.80859C36.8825 1.80859 35.689 6.02619 34.1733 11.3275C33.6314 13.5644 32.8277 15.7296 31.7789 17.7783C31.2224 18.7815 29.9117 19.6748 28.5205 20.612C26.9316 21.6957 24.9473 23.043 24.9473 24.1706C25.0081 24.497 25.1358 24.8073 25.3223 25.082C25.5088 25.3567 25.7501 25.5899 26.0309 25.7669C27.0159 26.4714 28.2032 26.8363 29.4138 26.8066C30.9458 26.8339 32.459 26.4657 33.8071 25.7376C37.3584 23.7679 39.2402 19.2794 39.2402 12.748V12.5063C39.2393 12.2947 39.3118 12.0893 39.4453 11.9251C39.5788 11.7609 39.7651 11.648 39.9724 11.6057C43.339 11.1005 46.399 9.36572 48.5614 6.73644C49.2843 5.87104 49.7172 4.80043 49.7989 3.67576C49.8135 3.04605 49.8135 1.80859 44.4244 1.80859Z" fill="#121728"/>
<path d="M52.0029 62.9712C51.7985 62.9719 51.5998 62.9036 51.439 62.7774C51.2782 62.6511 51.1648 62.4743 51.1169 62.2756C50.8094 61.3237 50.5751 60.5182 50.3847 59.7494C50.3737 59.6766 50.3737 59.6025 50.3847 59.5297C50.3847 58.9513 50.3847 58.3655 50.3261 57.7797L50.2822 56.9304C50.231 56.059 50.1797 55.151 50.1797 54.2504C50.1797 50.3404 51.5416 47.6604 52.7425 45.332L52.7937 45.2295C53.687 43.4868 54.6096 41.6782 54.6096 39.4522C54.6096 37.2263 53.5479 35.7911 52.3105 34.2315C51.5239 33.3125 50.8549 32.2991 50.3188 31.2147C49.8838 30.1778 49.524 29.1109 49.2425 28.0222C48.6787 26.016 48.1441 24.1268 46.6577 22.8967C45.7379 22.2973 44.7227 21.859 43.6556 21.6007C43.4126 21.5445 43.2007 21.3965 43.0642 21.1877C42.9278 20.9789 42.8773 20.7255 42.9234 20.4804C42.9458 20.3646 42.9915 20.2546 43.0577 20.1569C43.1239 20.0593 43.2092 19.9762 43.3084 19.9125C43.4077 19.8489 43.5188 19.806 43.6352 19.7866C43.7515 19.7671 43.8705 19.7715 43.9851 19.7994L43.7654 20.6854L44.0144 19.8067H44.0803C45.3646 20.1216 46.5855 20.654 47.6901 21.381L47.7707 21.4396C49.7257 23.0505 50.3701 25.3203 50.9925 27.5243C51.2469 28.5235 51.5748 29.5024 51.9736 30.4532C52.4473 31.4017 53.0376 32.2872 53.731 33.0892C54.9977 34.6928 56.4255 36.5014 56.4255 39.4449C56.4255 42.1102 55.3565 44.2043 54.4119 46.0349L54.3607 46.1301C53.1965 48.4073 51.9956 50.7504 51.9956 54.1845C51.9956 55.0339 52.0469 55.9126 52.0981 56.7619L52.1421 57.626C52.1421 58.2044 52.2006 58.7829 52.2006 59.354C52.3764 60.0862 52.596 60.8185 52.8816 61.7044C52.911 61.7943 52.9258 61.8882 52.9255 61.9827C52.9346 62.1093 52.9174 62.2364 52.8752 62.356C52.8329 62.4757 52.7664 62.5853 52.6798 62.6781C52.5932 62.7709 52.4884 62.8448 52.3719 62.8952C52.2555 62.9456 52.1298 62.9715 52.0029 62.9712Z" fill="#121728"/>
<path d="M48.2983 85.0916C47.9714 85.0937 47.6483 85.0211 47.3537 84.8792L43.6926 83.1805C41.4732 82.1471 39.3361 80.9452 37.3003 79.5853C36.0189 78.7432 33.4342 77.0079 30.4833 74.9284C28.2061 73.3321 24.9843 70.9963 22.5827 68.9827C21.4993 68.1197 20.5168 67.1372 19.6538 66.0538C17.9916 63.6961 17.8232 57.9994 19.0899 47.0161C19.3023 45.1636 19.5366 43.355 19.7416 41.7294C19.9027 40.47 20.0565 39.3058 20.1736 38.288C20.9059 32.2252 22.2824 28.5128 24.8672 25.8768C24.9423 25.7632 25.0418 25.6679 25.1584 25.5976C25.275 25.5273 25.4059 25.484 25.5414 25.4707C25.6769 25.4574 25.8136 25.4745 25.9417 25.5208C26.0698 25.5671 26.1859 25.6413 26.2816 25.7382C26.3773 25.835 26.4502 25.952 26.495 26.0806C26.5398 26.2091 26.5553 26.3461 26.5405 26.4814C26.5256 26.6168 26.4808 26.7471 26.4092 26.8629C26.3376 26.9787 26.241 27.0771 26.1266 27.1509C23.8567 29.472 22.6046 32.8622 21.9456 38.493C21.8285 39.5181 21.6747 40.6897 21.5136 41.9564C21.3086 43.5893 21.0816 45.3759 20.8619 47.2211C20.4372 50.8822 19.1339 62.1877 21.1036 64.9701C21.8843 65.9356 22.7737 66.8078 23.7542 67.5695C26.1046 69.5392 29.2825 71.8384 31.5304 73.4273C34.4593 75.4922 37.0294 77.2129 38.3035 78.0549C40.2645 79.363 42.3233 80.5185 44.4614 81.511L48.1225 83.2171C48.1919 83.2489 48.2692 83.2595 48.3446 83.2477C48.42 83.2358 48.4902 83.202 48.5465 83.1504C48.6028 83.0988 48.6426 83.0318 48.6609 82.9577C48.6793 82.8836 48.6754 82.8057 48.6497 82.7338L47.2878 79.1752C47.2161 78.9865 47.2087 78.7793 47.267 78.5859C47.3253 78.3926 47.4459 78.2239 47.61 78.1062L48.1006 77.7547C44.7397 75.5947 41.1811 73.2443 37.7689 70.6742C36.4363 69.6857 35.1329 68.6605 33.793 67.5549C32.2407 66.2808 30.6517 64.9042 28.953 63.3373C28.5132 62.9355 28.1653 62.4437 27.9328 61.8953C27.7003 61.3469 27.5887 60.7549 27.6057 60.1595C27.7155 55.832 27.8766 52.5297 28.1182 49.469C28.3965 46.0056 28.8065 42.7253 29.3923 39.1447C29.4312 38.9049 29.5637 38.6903 29.7607 38.5482C29.9578 38.406 30.2032 38.348 30.4431 38.3868C30.6829 38.4257 30.8975 38.5582 31.0396 38.7553C31.1817 38.9523 31.2397 39.1977 31.2009 39.4376C30.6151 42.9669 30.2197 46.2033 29.9415 49.6155C29.6998 52.6395 29.5461 55.9126 29.4362 60.2034C29.4239 60.5362 29.4828 60.8678 29.6091 61.1759C29.7354 61.484 29.9261 61.7616 30.1685 61.99C31.8526 63.5277 33.4122 64.9189 34.9426 66.1344C36.2606 67.2327 37.5419 68.2359 38.8526 69.2097C42.36 71.8457 46.0284 74.262 49.4772 76.4733C49.6833 76.6064 49.8539 76.7877 49.9741 77.0016C50.0943 77.2155 50.1605 77.4555 50.167 77.7007C50.1735 77.946 50.1201 78.1892 50.0113 78.4091C49.9026 78.629 49.7419 78.8191 49.5431 78.9629L49.2355 79.1826L50.3412 82.1115C50.5001 82.5232 50.5312 82.9732 50.4307 83.4029C50.3301 83.8326 50.1025 84.222 49.7774 84.5205C49.3726 84.8883 48.8452 85.092 48.2983 85.0916Z" fill="#121728"/>
<path d="M44.5051 36.8381C41.7007 36.8381 37.9956 33.5651 33.4851 27.0923C33.3521 26.8931 33.3025 26.6497 33.3469 26.4143C33.3913 26.179 33.5262 25.9704 33.7227 25.8334C33.9191 25.6963 34.1615 25.6418 34.3977 25.6814C34.6339 25.721 34.8452 25.8516 34.9862 26.0452C39.2038 32.0934 43.0406 35.5128 44.9298 34.949C45.0637 34.911 45.1873 34.8432 45.2912 34.7506C45.3952 34.658 45.4769 34.5431 45.5302 34.4145C46.3869 32.6791 45.413 27.8245 42.9235 21.3224C42.8478 21.0988 42.8614 20.8546 42.9615 20.6408C43.0616 20.427 43.2404 20.2601 43.4606 20.1751C43.6808 20.09 43.9254 20.0933 44.1432 20.1843C44.361 20.2753 44.5353 20.4469 44.6295 20.6634C47.4632 27.9856 48.2907 32.9134 47.1704 35.2273C47.0011 35.5789 46.7598 35.891 46.4621 36.1433C46.1644 36.3956 45.8169 36.5824 45.4423 36.6917C45.1385 36.785 44.8229 36.8343 44.5051 36.8381Z" fill="#121728"/>
<path d="M24.8012 78.6774C24.6546 78.6715 24.5116 78.6306 24.3842 78.558C24.2567 78.4853 24.1486 78.3831 24.069 78.26C22.6961 76.1215 21.9855 73.6251 22.0261 71.0842C22.034 70.1039 22.1099 69.1252 22.253 68.1553C22.2893 67.9146 22.4185 67.6978 22.6129 67.5513C22.8073 67.4048 23.0514 67.3404 23.2928 67.3719C23.4122 67.3889 23.527 67.4293 23.6306 67.4909C23.7343 67.5524 23.8248 67.6338 23.8969 67.7304C23.9691 67.827 24.0214 67.937 24.0509 68.0539C24.0804 68.1708 24.0866 68.2923 24.069 68.4116C23.9366 69.3064 23.8657 70.2091 23.8566 71.1135C23.8032 73.2918 24.4025 75.4364 25.5773 77.2715C25.6421 77.3733 25.6862 77.4869 25.7069 77.6058C25.7276 77.7247 25.7246 77.8466 25.6981 77.9643C25.6715 78.082 25.622 78.1933 25.5522 78.2918C25.4825 78.3903 25.394 78.4741 25.2918 78.5382C25.1449 78.6305 24.9746 78.6788 24.8012 78.6774Z" fill="#121728"/>
<path d="M38.6545 68.1552C37.1658 68.1585 35.6801 68.0213 34.2172 67.7452C34.0989 67.7232 33.9861 67.6781 33.8852 67.6124C33.7843 67.5467 33.6974 67.4618 33.6294 67.3625C33.5614 67.2632 33.5136 67.1515 33.4888 67.0337C33.4641 66.9159 33.4628 66.7944 33.485 66.6761C33.5329 66.4375 33.6725 66.2272 33.8737 66.0903C34.0749 65.9534 34.3218 65.9008 34.5614 65.9439C37.6223 66.5009 40.7634 66.4436 43.802 65.7755C44.0399 65.725 44.2881 65.7711 44.492 65.9036C44.696 66.0361 44.8389 66.2442 44.8894 66.4821C44.9399 66.72 44.8938 66.9682 44.7613 67.1721C44.6288 67.376 44.4207 67.519 44.1828 67.5695C42.365 67.9542 40.5125 68.1505 38.6545 68.1552Z" fill="#121728"/>
<path d="M29.0334 50.4647H28.9602C25.6869 50.2489 22.4877 49.3931 19.5438 47.9459C19.4359 47.892 19.3397 47.8173 19.2607 47.726C19.1818 47.6348 19.1217 47.5289 19.0838 47.4143C19.046 47.2998 19.0311 47.1789 19.0402 47.0586C19.0492 46.9383 19.0819 46.821 19.1364 46.7134C19.191 46.6058 19.2662 46.51 19.3579 46.4316C19.4496 46.3532 19.5558 46.2937 19.6706 46.2565C19.7853 46.2193 19.9063 46.2051 20.0265 46.2148C20.1468 46.2245 20.2639 46.2579 20.3712 46.313C23.1024 47.6537 26.0704 48.4448 29.1066 48.6415C29.335 48.6691 29.5447 48.7817 29.6938 48.9569C29.843 49.1321 29.9207 49.357 29.9115 49.5869C29.9022 49.8168 29.8067 50.0348 29.644 50.1975C29.4813 50.3601 29.2633 50.4556 29.0334 50.4647Z" fill="#121728"/>
<path d="M70.8212 126.997C70.0607 126.995 69.3145 126.79 68.6594 126.404C68.0043 126.018 67.464 125.464 67.0942 124.8C66.8308 124.349 66.6568 123.852 66.5816 123.335L65.1172 114.219C65.0793 113.979 65.1382 113.734 65.281 113.538C65.4239 113.342 65.6388 113.21 65.8787 113.172C66.1185 113.134 66.3635 113.193 66.5599 113.336C66.7563 113.479 66.8879 113.694 66.9258 113.934L68.3902 123.05C68.4321 123.34 68.5317 123.619 68.6831 123.87C68.9246 124.305 69.2928 124.657 69.7387 124.878C70.1847 125.099 70.6874 125.179 71.18 125.107C71.5283 125.06 71.8625 124.938 72.1604 124.751C72.4583 124.564 72.7132 124.316 72.908 124.024C73.1982 123.592 73.342 123.079 73.318 122.559L72.7176 109.548C72.706 109.305 72.7912 109.068 72.9546 108.888C73.118 108.708 73.3462 108.6 73.589 108.589C73.8317 108.577 74.0691 108.662 74.249 108.826C74.4289 108.989 74.5365 109.217 74.5482 109.46L75.1486 122.471C75.1989 123.547 74.8451 124.602 74.1568 125.43C73.4685 126.258 72.4955 126.798 71.4289 126.945C71.2279 126.977 71.0247 126.994 70.8212 126.997Z" fill="#121728"/>
<path d="M57.4654 132.642C56.7384 132.645 56.0223 132.466 55.3826 132.121C54.743 131.775 54.2002 131.275 53.8043 130.665C53.4796 130.166 53.2626 129.605 53.1672 129.017L52.3984 123.804C52.3797 123.685 52.3845 123.564 52.4126 123.447C52.4407 123.33 52.4916 123.22 52.5623 123.123C52.633 123.026 52.7222 122.943 52.8247 122.88C52.9273 122.818 53.0412 122.776 53.1599 122.757C53.2787 122.738 53.4 122.743 53.5168 122.771C53.6337 122.799 53.7439 122.85 53.8412 122.921C53.9384 122.992 54.0208 123.081 54.0835 123.183C54.1463 123.286 54.1882 123.4 54.207 123.518L55.0417 128.754C55.0932 129.092 55.2182 129.414 55.4078 129.698C55.6634 130.096 56.0274 130.412 56.4569 130.609C56.8864 130.807 57.3634 130.877 57.8315 130.811C58.211 130.762 58.5737 130.625 58.8904 130.41C59.207 130.195 59.4688 129.908 59.6547 129.574C59.8864 129.17 59.9958 128.707 59.9696 128.241L59.4717 117.587C59.4617 117.345 59.5475 117.109 59.7106 116.929C59.8737 116.75 60.1008 116.642 60.343 116.628C60.4637 116.62 60.5847 116.637 60.6989 116.677C60.8131 116.717 60.9181 116.779 61.0076 116.86C61.0971 116.942 61.1693 117.04 61.2199 117.15C61.2706 117.26 61.2985 117.379 61.3022 117.5L61.8001 128.153C61.8401 128.964 61.6497 129.768 61.251 130.475C60.9236 131.052 60.4681 131.546 59.9197 131.919C59.3713 132.292 58.7446 132.534 58.0878 132.627C57.881 132.648 57.6729 132.653 57.4654 132.642Z" fill="#121728"/>
<path d="M63.5501 139.781C63.2445 139.782 62.9423 139.717 62.6641 139.591L53.8775 135.644C53.7037 135.567 53.5587 135.437 53.4628 135.273C53.3669 135.108 53.325 134.918 53.3429 134.729L53.7457 130.087C53.7705 129.848 53.8884 129.628 54.0737 129.475C54.2591 129.322 54.4972 129.248 54.7366 129.27C54.9759 129.291 55.1974 129.405 55.3531 129.588C55.5088 129.771 55.5863 130.008 55.5689 130.248L55.2174 134.238L63.4403 137.899C63.4897 137.929 63.5485 137.94 63.6053 137.929C63.662 137.918 63.7128 137.887 63.7478 137.841C63.7901 137.8 63.8169 137.745 63.8236 137.686C63.8302 137.628 63.8164 137.568 63.7844 137.519L59.684 130.423C59.6152 130.319 59.5684 130.202 59.5466 130.08C59.5247 129.957 59.5281 129.831 59.5567 129.709C59.5853 129.588 59.6384 129.473 59.7128 129.373C59.7872 129.273 59.8812 129.189 59.9892 129.127C60.0972 129.064 60.2168 129.025 60.3407 129.01C60.4646 128.995 60.5902 129.006 60.7097 129.042C60.8292 129.078 60.9402 129.137 61.0358 129.218C61.1314 129.298 61.2096 129.397 61.2656 129.508L65.366 136.603C65.5503 136.921 65.6481 137.281 65.6497 137.649C65.6514 138.016 65.5567 138.377 65.3752 138.696C65.1937 139.016 64.9318 139.282 64.6154 139.468C64.299 139.655 63.9393 139.755 63.5721 139.759L63.5501 139.781Z" fill="#121728"/>
<path d="M76.6053 134.055C76.3021 134.056 76.0023 133.991 75.7266 133.865L66.94 129.918C66.7662 129.841 66.6212 129.711 66.5253 129.547C66.4294 129.382 66.3875 129.192 66.4054 129.003L66.8082 124.353C66.833 124.114 66.9509 123.895 67.1362 123.742C67.3216 123.589 67.5597 123.515 67.7991 123.536C68.0384 123.557 68.2599 123.672 68.4156 123.855C68.5713 124.038 68.6488 124.275 68.6314 124.514L68.2799 128.512L76.5028 132.173C76.5542 132.203 76.6147 132.213 76.6728 132.201C76.7308 132.188 76.7824 132.155 76.8176 132.108C76.8607 132.068 76.8881 132.015 76.8948 131.957C76.9015 131.899 76.8871 131.841 76.8543 131.793L72.9076 124.976C72.8388 124.872 72.792 124.755 72.7701 124.632C72.7483 124.509 72.7517 124.383 72.7803 124.262C72.8089 124.14 72.862 124.026 72.9364 123.926C73.0107 123.825 73.1048 123.742 73.2128 123.679C73.3208 123.617 73.4404 123.577 73.5643 123.562C73.6882 123.548 73.8138 123.559 73.9333 123.594C74.0528 123.63 74.1638 123.69 74.2594 123.77C74.355 123.85 74.4332 123.949 74.4892 124.06L78.4359 130.877C78.6204 131.196 78.7182 131.557 78.7195 131.925C78.7208 132.292 78.6255 132.654 78.4432 132.974C78.2608 133.293 77.9978 133.559 77.6804 133.745C77.3631 133.931 77.0024 134.03 76.6346 134.033L76.6053 134.055Z" fill="#121728"/>
<path d="M74.9875 94.8008C74.8286 94.8018 74.6721 94.7614 74.5335 94.6836L58.3661 85.3478C58.226 85.2669 58.1096 85.1505 58.0286 85.0105C57.9476 84.8704 57.9049 84.7115 57.9048 84.5497C57.9055 84.389 57.9485 84.2312 58.0295 84.0924C58.1104 83.9536 58.2265 83.8386 58.3661 83.7589L83.4081 69.2975C83.5477 69.2186 83.7053 69.1771 83.8657 69.1771C84.0261 69.1771 84.1837 69.2186 84.3233 69.2975L87.3254 71.0328C87.5202 71.1615 87.6584 71.3596 87.7118 71.5868C87.7653 71.814 87.73 72.053 87.6131 72.2549C87.4962 72.4569 87.3066 72.6066 87.083 72.6735C86.8594 72.7403 86.6187 72.7192 86.4102 72.6144L83.862 71.15L60.6506 84.5497L75.4488 93.0947C75.5527 93.1552 75.6436 93.2357 75.7164 93.3314C75.7892 93.4271 75.8424 93.5362 75.873 93.6525C75.9036 93.7688 75.911 93.8899 75.8947 94.009C75.8785 94.1282 75.8389 94.2429 75.7783 94.3468C75.6983 94.4855 75.5829 94.6005 75.444 94.6802C75.3051 94.76 75.1476 94.8016 74.9875 94.8008Z" fill="#121728"/>
<path d="M74.9875 94.8008C74.7861 94.8003 74.5905 94.7334 74.431 94.6104C74.2852 94.5014 74.1762 94.3503 74.1186 94.1776C74.061 94.0048 74.0576 93.8186 74.1088 93.6439L79.1611 75.5214C79.1917 75.4061 79.245 75.2982 79.318 75.2039C79.3909 75.1095 79.482 75.0308 79.5858 74.9722L104.628 60.5108C104.785 60.4206 104.966 60.3787 105.147 60.3904C105.328 60.4021 105.501 60.4669 105.646 60.5767C105.788 60.6902 105.895 60.8427 105.952 61.0157C106.009 61.1886 106.015 61.3745 105.968 61.5506L100.923 79.6731C100.855 79.9028 100.703 80.0987 100.498 80.2223L75.4488 94.6836C75.3076 94.7617 75.1487 94.8021 74.9875 94.8008ZM80.8452 76.3708L76.5032 91.9744L99.2826 78.7944L103.595 63.2201L80.8452 76.3708Z" fill="#121728"/>
<path d="M72.4463 68.3895C72.2635 68.3874 72.0825 68.3527 71.9118 68.287L67.5624 66.5443L67.5038 66.5882C66.9074 67.0293 66.191 67.2788 65.4496 67.3036C64.7082 67.3285 63.9768 67.1275 63.3521 66.7274L50.7213 58.5045C50.5174 58.3725 50.3743 58.1648 50.3235 57.9273C50.2727 57.6897 50.3183 57.4417 50.4504 57.2378C50.5824 57.0339 50.7901 56.8908 51.0276 56.84C51.2652 56.7892 51.5132 56.8348 51.7171 56.9669L64.3479 65.2263C64.6569 65.4268 65.0202 65.5274 65.3883 65.5143C65.7564 65.5012 66.1115 65.3751 66.4055 65.1531L66.8741 64.8016C67.0009 64.708 67.1494 64.6481 67.3056 64.6276C67.4619 64.6071 67.6208 64.6267 67.7674 64.6845L71.6043 66.2221L70.4913 64.1939C70.2973 63.8476 70.0329 63.5458 69.7151 63.3079L55.4295 52.7639C54.4658 52.05 53.7964 51.0083 53.5477 49.835L52.691 45.8517C52.6586 45.732 52.651 45.6069 52.6685 45.4841C52.686 45.3613 52.7282 45.2434 52.7927 45.1374C52.8572 45.0314 52.9425 44.9397 53.0435 44.8677C53.1445 44.7957 53.2591 44.7451 53.3803 44.7187C53.5015 44.6924 53.6268 44.691 53.7486 44.7146C53.8704 44.7381 53.9861 44.7862 54.0887 44.8559C54.1913 44.9256 54.2787 45.0154 54.3456 45.1198C54.4124 45.2243 54.4573 45.3413 54.4776 45.4636L55.3343 49.4469C55.4981 50.1773 55.9191 50.8244 56.5205 51.2702L70.7988 61.8142C71.3276 62.2052 71.7669 62.7044 72.0875 63.2786L73.7131 66.2075C73.8326 66.4289 73.8931 66.6775 73.8887 66.9291C73.8842 67.1808 73.815 67.427 73.6877 67.6441C73.5604 67.8612 73.3793 68.0418 73.1618 68.1685C72.9444 68.2952 72.698 68.3638 72.4463 68.3676V68.3895Z" fill="#121728"/>
<path d="M53.2989 191.901C53.1389 191.903 52.9815 191.86 52.8449 191.776L0.46178 161.514C0.32173 161.434 0.205225 161.32 0.124171 161.181C0.0431182 161.042 0.000434274 160.884 0.000488333 160.723V91.5864C0.00118387 91.4257 0.0441772 91.268 0.125155 91.1292C0.206132 90.9904 0.322231 90.8753 0.46178 90.7956L30.5488 73.4273C30.6522 73.3662 30.7669 73.3264 30.886 73.3102C31.005 73.2941 31.1262 73.3019 31.2422 73.3333C31.3582 73.3647 31.4667 73.419 31.5614 73.493C31.6561 73.567 31.735 73.6592 31.7936 73.7641C31.8542 73.868 31.8937 73.9827 31.91 74.1019C31.9262 74.221 31.9188 74.3422 31.8882 74.4585C31.8576 74.5747 31.8044 74.6838 31.7316 74.7795C31.6588 74.8752 31.5679 74.9557 31.4641 75.0162L1.8164 92.077V160.174L52.3397 189.367V121.791C52.3397 121.548 52.4361 121.315 52.6078 121.143C52.7794 120.972 53.0122 120.875 53.255 120.875C53.4977 120.875 53.7305 120.972 53.9022 121.143C54.0738 121.315 54.1702 121.548 54.1702 121.791V190.971C54.1722 191.092 54.1499 191.212 54.1046 191.323C54.0593 191.435 53.992 191.537 53.9066 191.622C53.8212 191.708 53.7195 191.775 53.6076 191.82C53.4956 191.866 53.3757 191.888 53.255 191.886L53.2989 191.901Z" fill="#121728"/>
<path d="M139.423 70.6887C139.264 70.6897 139.108 70.6494 138.969 70.5716L89.0316 41.7367L62.3348 57.1133C62.2308 57.1821 62.1137 57.2289 61.9909 57.2508C61.8681 57.2726 61.7421 57.2692 61.6206 57.2406C61.4992 57.212 61.3849 57.1589 61.2847 57.0845C61.1845 57.0102 61.1006 56.9161 61.0381 56.8081C60.9756 56.7001 60.9359 56.5805 60.9213 56.4566C60.9067 56.3327 60.9176 56.2071 60.9534 56.0876C60.9891 55.9681 61.0489 55.8571 61.1291 55.7615C61.2092 55.6659 61.3081 55.5877 61.4196 55.5317L88.5777 39.8549C88.7173 39.776 88.8749 39.7345 89.0353 39.7345C89.1957 39.7345 89.3533 39.776 89.4929 39.8549L139.884 68.9534C139.988 69.0139 140.079 69.0943 140.152 69.19C140.225 69.2858 140.278 69.3949 140.309 69.5112C140.339 69.6274 140.347 69.7486 140.33 69.8677C140.314 69.9869 140.275 70.1016 140.214 70.2055C140.138 70.3496 140.024 70.4705 139.885 70.5556C139.746 70.6406 139.586 70.6866 139.423 70.6887Z" fill="#121728"/>
<path d="M38.325 70.8645C38.1244 70.863 37.9298 70.7956 37.7713 70.6728C37.6127 70.55 37.4989 70.3784 37.4473 70.1846C37.3957 69.9907 37.4092 69.7853 37.4858 69.5999C37.5623 69.4145 37.6977 69.2594 37.871 69.1584L51.5489 61.265C51.6532 61.2049 51.7684 61.166 51.8877 61.1504C52.0071 61.1348 52.1284 61.1429 52.2447 61.1741C52.361 61.2054 52.4699 61.2593 52.5654 61.3327C52.6608 61.4061 52.7409 61.4975 52.801 61.6019C52.8611 61.7062 52.9001 61.8213 52.9156 61.9407C52.9312 62.0601 52.9232 62.1814 52.8919 62.2977C52.8606 62.4139 52.8068 62.5229 52.7334 62.6184C52.66 62.7138 52.5685 62.7939 52.4642 62.854L38.7863 70.74C38.6467 70.8226 38.4872 70.8656 38.325 70.8645Z" fill="#121728"/>
<path d="M52.0032 62.9638C51.8026 62.9623 51.6081 62.895 51.4495 62.7721C51.2909 62.6493 51.1771 62.4778 51.1255 62.2839C51.0739 62.0901 51.0875 61.8847 51.164 61.6993C51.2406 61.5139 51.3759 61.3587 51.5492 61.2577L54.6465 59.4711C54.8551 59.3664 55.0957 59.3453 55.3193 59.4121C55.5429 59.4789 55.7325 59.6286 55.8494 59.8306C55.9663 60.0326 56.0017 60.2716 55.9482 60.4988C55.8947 60.7259 55.7565 60.9241 55.5618 61.0527L52.4645 62.8393C52.3253 62.923 52.1655 62.9661 52.0032 62.9638Z" fill="#121728"/>
<path d="M139.423 141.011C139.258 141.011 139.096 140.965 138.954 140.879L88.563 110.624C88.4262 110.544 88.3129 110.43 88.2345 110.292C88.1561 110.155 88.1153 109.999 88.1163 109.841V101.837L53.8044 122.574C53.6633 122.656 53.5028 122.7 53.3395 122.7C53.1761 122.7 53.0156 122.656 52.8745 122.574L0.462054 92.3185C0.357094 92.26 0.264908 92.181 0.190924 92.0863C0.116939 91.9916 0.0626524 91.8831 0.0312641 91.7671C-0.000124123 91.6511 -0.00797978 91.53 0.00815874 91.4109C0.0242973 91.2918 0.0641083 91.1772 0.125239 91.0737C0.185187 90.9692 0.265173 90.8776 0.360605 90.8041C0.456037 90.7306 0.56503 90.6766 0.681354 90.6454C0.797679 90.6141 0.91904 90.606 1.03847 90.6217C1.1579 90.6374 1.27305 90.6766 1.37733 90.7369L53.2919 120.707L88.5483 99.4137L138.933 68.9826C139.071 68.8974 139.229 68.8509 139.392 68.8479C139.554 68.845 139.714 68.8856 139.856 68.9656C139.997 69.0457 140.114 69.1621 140.195 69.3029C140.276 69.4437 140.318 69.6036 140.316 69.7661V140.059C140.317 140.18 140.294 140.299 140.249 140.411C140.203 140.522 140.136 140.624 140.051 140.709C139.965 140.794 139.864 140.861 139.753 140.907C139.641 140.953 139.522 140.976 139.401 140.975L139.423 141.011ZM89.9469 109.306L138.508 138.448V71.3989L89.9469 100.732V109.306Z" fill="#121728"/>
<path d="M44.388 21.0515C44.1895 21.0509 43.9913 21.0362 43.7949 21.0075C43.6757 20.9922 43.5606 20.9535 43.4564 20.8937C43.3521 20.8338 43.2606 20.754 43.1872 20.6588C43.1137 20.5636 43.0598 20.4549 43.0284 20.3388C42.997 20.2228 42.9887 20.1017 43.0041 19.9824C43.0405 19.7441 43.1673 19.5289 43.3582 19.3816C43.5491 19.2343 43.7895 19.1663 44.0292 19.1916C44.36 19.2433 44.6982 19.2188 45.018 19.1198C45.3378 19.0208 45.6307 18.85 45.8744 18.6205C47.7782 16.9071 48.5104 11.6864 48.3933 7.27839L50.2238 7.24178C50.2824 9.49702 50.2238 17.1487 47.1046 19.9751C46.3697 20.6676 45.3978 21.0527 44.388 21.0515Z" fill="#121728"/>
<path d="M29.4138 28.6665C27.802 28.6924 26.225 28.1967 24.918 27.2533C24.4088 26.9111 23.9827 26.4593 23.671 25.9309C23.3593 25.4026 23.1699 24.8111 23.1167 24.1999C23.1167 22.1058 25.3134 20.5901 27.51 19.133C28.6596 18.3495 29.8458 17.544 30.1973 16.9363C31.1577 15.008 31.8947 12.9764 32.3939 10.8808C33.9096 5.52827 35.4766 0 44.4024 0C46.7455 0 51.6221 0 51.6221 3.66111C51.5498 5.18404 50.9873 6.64285 50.0185 7.82013C47.753 10.6146 44.5833 12.5309 41.0561 13.2386C40.9463 22.0618 37.5415 25.7962 34.6785 27.3851C33.0612 28.2533 31.2491 28.6943 29.4138 28.6665ZM44.4244 1.80859C36.8825 1.80859 35.689 6.02619 34.1733 11.3275C33.6314 13.5644 32.8277 15.7296 31.7789 17.7783C31.2224 18.7815 29.9117 19.6748 28.5205 20.612C26.9316 21.6957 24.9473 23.043 24.9473 24.1706C25.0081 24.497 25.1358 24.8073 25.3223 25.082C25.5088 25.3567 25.7501 25.5899 26.0309 25.7669C27.0159 26.4714 28.2032 26.8363 29.4138 26.8066C30.9458 26.8339 32.459 26.4657 33.8071 25.7376C37.3584 23.7679 39.2402 19.2794 39.2402 12.748V12.5063C39.2393 12.2947 39.3118 12.0893 39.4453 11.9251C39.5788 11.7609 39.7651 11.648 39.9724 11.6057C43.339 11.1005 46.399 9.36572 48.5614 6.73644C49.2843 5.87104 49.7172 4.80043 49.7989 3.67576C49.8135 3.04605 49.8135 1.80859 44.4244 1.80859Z" fill="#121728"/>
<path d="M52.0029 62.9712C51.7985 62.9719 51.5998 62.9036 51.439 62.7774C51.2782 62.6511 51.1648 62.4743 51.1169 62.2756C50.8094 61.3237 50.5751 60.5182 50.3847 59.7494C50.3737 59.6766 50.3737 59.6025 50.3847 59.5297C50.3847 58.9513 50.3847 58.3655 50.3261 57.7797L50.2822 56.9304C50.231 56.059 50.1797 55.151 50.1797 54.2504C50.1797 50.3404 51.5416 47.6604 52.7425 45.332L52.7937 45.2295C53.687 43.4868 54.6096 41.6782 54.6096 39.4522C54.6096 37.2263 53.5479 35.7911 52.3105 34.2315C51.5239 33.3125 50.8549 32.2991 50.3188 31.2147C49.8838 30.1778 49.524 29.1109 49.2425 28.0222C48.6787 26.016 48.1441 24.1268 46.6577 22.8967C45.7379 22.2973 44.7227 21.859 43.6556 21.6007C43.4126 21.5445 43.2007 21.3965 43.0642 21.1877C42.9278 20.9789 42.8773 20.7255 42.9234 20.4804C42.9458 20.3646 42.9915 20.2546 43.0577 20.1569C43.1239 20.0593 43.2092 19.9762 43.3084 19.9125C43.4077 19.8489 43.5188 19.806 43.6352 19.7866C43.7515 19.7671 43.8705 19.7715 43.9851 19.7994L43.7654 20.6854L44.0144 19.8067H44.0803C45.3646 20.1216 46.5855 20.654 47.6901 21.381L47.7707 21.4396C49.7257 23.0505 50.3701 25.3203 50.9925 27.5243C51.2469 28.5235 51.5748 29.5024 51.9736 30.4532C52.4473 31.4017 53.0376 32.2872 53.731 33.0892C54.9977 34.6928 56.4255 36.5014 56.4255 39.4449C56.4255 42.1102 55.3565 44.2043 54.4119 46.0349L54.3607 46.1301C53.1965 48.4073 51.9956 50.7504 51.9956 54.1845C51.9956 55.0339 52.0469 55.9126 52.0981 56.7619L52.1421 57.626C52.1421 58.2044 52.2006 58.7829 52.2006 59.354C52.3764 60.0862 52.596 60.8185 52.8816 61.7044C52.911 61.7943 52.9258 61.8882 52.9255 61.9827C52.9346 62.1093 52.9174 62.2364 52.8752 62.356C52.8329 62.4757 52.7664 62.5853 52.6798 62.6781C52.5932 62.7709 52.4884 62.8448 52.3719 62.8952C52.2555 62.9456 52.1298 62.9715 52.0029 62.9712Z" fill="#121728"/>
<path d="M48.2983 85.0916C47.9714 85.0937 47.6483 85.0211 47.3537 84.8792L43.6926 83.1805C41.4732 82.1471 39.3361 80.9452 37.3003 79.5853C36.0189 78.7432 33.4342 77.0079 30.4833 74.9284C28.2061 73.3321 24.9843 70.9963 22.5827 68.9827C21.4993 68.1197 20.5168 67.1372 19.6538 66.0538C17.9916 63.6961 17.8232 57.9994 19.0899 47.0161C19.3023 45.1636 19.5366 43.355 19.7416 41.7294C19.9027 40.47 20.0565 39.3058 20.1736 38.288C20.9059 32.2252 22.2824 28.5128 24.8672 25.8768C24.9423 25.7632 25.0418 25.6679 25.1584 25.5976C25.275 25.5273 25.4059 25.484 25.5414 25.4707C25.6769 25.4574 25.8136 25.4745 25.9417 25.5208C26.0698 25.5671 26.1859 25.6413 26.2816 25.7382C26.3773 25.835 26.4502 25.952 26.495 26.0806C26.5398 26.2091 26.5553 26.3461 26.5405 26.4814C26.5256 26.6168 26.4808 26.7471 26.4092 26.8629C26.3376 26.9787 26.241 27.0771 26.1266 27.1509C23.8567 29.472 22.6046 32.8622 21.9456 38.493C21.8285 39.5181 21.6747 40.6897 21.5136 41.9564C21.3086 43.5893 21.0816 45.3759 20.8619 47.2211C20.4372 50.8822 19.1339 62.1877 21.1036 64.9701C21.8843 65.9356 22.7737 66.8078 23.7542 67.5695C26.1046 69.5392 29.2825 71.8384 31.5304 73.4273C34.4593 75.4922 37.0294 77.2129 38.3035 78.0549C40.2645 79.363 42.3233 80.5185 44.4614 81.511L48.1225 83.2171C48.1919 83.2489 48.2692 83.2595 48.3446 83.2477C48.42 83.2358 48.4902 83.202 48.5465 83.1504C48.6028 83.0988 48.6426 83.0318 48.6609 82.9577C48.6793 82.8836 48.6754 82.8057 48.6497 82.7338L47.2878 79.1752C47.2161 78.9865 47.2087 78.7793 47.267 78.5859C47.3253 78.3926 47.4459 78.2239 47.61 78.1062L48.1006 77.7547C44.7397 75.5947 41.1811 73.2443 37.7689 70.6742C36.4363 69.6857 35.1329 68.6605 33.793 67.5549C32.2407 66.2808 30.6517 64.9042 28.953 63.3373C28.5132 62.9355 28.1653 62.4437 27.9328 61.8953C27.7003 61.3469 27.5887 60.7549 27.6057 60.1595C27.7155 55.832 27.8766 52.5297 28.1182 49.469C28.3965 46.0056 28.8065 42.7253 29.3923 39.1447C29.4312 38.9049 29.5637 38.6903 29.7607 38.5482C29.9578 38.406 30.2032 38.348 30.4431 38.3868C30.6829 38.4257 30.8975 38.5582 31.0396 38.7553C31.1817 38.9523 31.2397 39.1977 31.2009 39.4376C30.6151 42.9669 30.2197 46.2033 29.9415 49.6155C29.6998 52.6395 29.5461 55.9126 29.4362 60.2034C29.4239 60.5362 29.4828 60.8678 29.6091 61.1759C29.7354 61.484 29.9261 61.7616 30.1685 61.99C31.8526 63.5277 33.4122 64.9189 34.9426 66.1344C36.2606 67.2327 37.5419 68.2359 38.8526 69.2097C42.36 71.8457 46.0284 74.262 49.4772 76.4733C49.6833 76.6064 49.8539 76.7877 49.9741 77.0016C50.0943 77.2155 50.1605 77.4555 50.167 77.7007C50.1735 77.946 50.1201 78.1892 50.0113 78.4091C49.9026 78.629 49.7419 78.8191 49.5431 78.9629L49.2355 79.1826L50.3412 82.1115C50.5001 82.5232 50.5312 82.9732 50.4307 83.4029C50.3301 83.8326 50.1025 84.222 49.7774 84.5205C49.3726 84.8883 48.8452 85.092 48.2983 85.0916Z" fill="#121728"/>
<path d="M44.5051 36.8381C41.7007 36.8381 37.9956 33.5651 33.4851 27.0923C33.3521 26.8931 33.3025 26.6497 33.3469 26.4143C33.3913 26.179 33.5262 25.9704 33.7227 25.8334C33.9191 25.6963 34.1615 25.6418 34.3977 25.6814C34.6339 25.721 34.8452 25.8516 34.9862 26.0452C39.2038 32.0934 43.0406 35.5128 44.9298 34.949C45.0637 34.911 45.1873 34.8432 45.2912 34.7506C45.3952 34.658 45.4769 34.5431 45.5302 34.4145C46.3869 32.6791 45.413 27.8245 42.9235 21.3224C42.8478 21.0988 42.8614 20.8546 42.9615 20.6408C43.0616 20.427 43.2404 20.2601 43.4606 20.1751C43.6808 20.09 43.9254 20.0933 44.1432 20.1843C44.361 20.2753 44.5353 20.4469 44.6295 20.6634C47.4632 27.9856 48.2907 32.9134 47.1704 35.2273C47.0011 35.5789 46.7598 35.891 46.4621 36.1433C46.1644 36.3956 45.8169 36.5824 45.4423 36.6917C45.1385 36.785 44.8229 36.8343 44.5051 36.8381Z" fill="#121728"/>
<path d="M24.8012 78.6774C24.6546 78.6715 24.5116 78.6306 24.3842 78.558C24.2567 78.4853 24.1486 78.3831 24.069 78.26C22.6961 76.1215 21.9855 73.6251 22.0261 71.0842C22.034 70.1039 22.1099 69.1252 22.253 68.1553C22.2893 67.9146 22.4185 67.6978 22.6129 67.5513C22.8073 67.4048 23.0514 67.3404 23.2928 67.3719C23.4122 67.3889 23.527 67.4293 23.6306 67.4909C23.7343 67.5524 23.8248 67.6338 23.8969 67.7304C23.9691 67.827 24.0214 67.937 24.0509 68.0539C24.0804 68.1708 24.0866 68.2923 24.069 68.4116C23.9366 69.3064 23.8657 70.2091 23.8566 71.1135C23.8032 73.2918 24.4025 75.4364 25.5773 77.2715C25.6421 77.3733 25.6862 77.4869 25.7069 77.6058C25.7276 77.7247 25.7246 77.8466 25.6981 77.9643C25.6715 78.082 25.622 78.1933 25.5522 78.2918C25.4825 78.3903 25.394 78.4741 25.2918 78.5382C25.1449 78.6305 24.9746 78.6788 24.8012 78.6774Z" fill="#121728"/>
<path d="M38.6545 68.1552C37.1658 68.1585 35.6801 68.0213 34.2172 67.7452C34.0989 67.7232 33.9861 67.6781 33.8852 67.6124C33.7843 67.5467 33.6974 67.4618 33.6294 67.3625C33.5614 67.2632 33.5136 67.1515 33.4888 67.0337C33.4641 66.9159 33.4628 66.7944 33.485 66.6761C33.5329 66.4375 33.6725 66.2272 33.8737 66.0903C34.0749 65.9534 34.3218 65.9008 34.5614 65.9439C37.6223 66.5009 40.7634 66.4436 43.802 65.7755C44.0399 65.725 44.2881 65.7711 44.492 65.9036C44.696 66.0361 44.8389 66.2442 44.8894 66.4821C44.9399 66.72 44.8938 66.9682 44.7613 67.1721C44.6288 67.376 44.4207 67.519 44.1828 67.5695C42.365 67.9542 40.5125 68.1505 38.6545 68.1552Z" fill="#121728"/>
<path d="M29.0334 50.4647H28.9602C25.6869 50.2489 22.4877 49.3931 19.5438 47.9459C19.4359 47.892 19.3397 47.8173 19.2607 47.726C19.1818 47.6348 19.1217 47.5289 19.0838 47.4143C19.046 47.2998 19.0311 47.1789 19.0402 47.0586C19.0492 46.9383 19.0819 46.821 19.1364 46.7134C19.191 46.6058 19.2662 46.51 19.3579 46.4316C19.4496 46.3532 19.5558 46.2937 19.6706 46.2565C19.7853 46.2193 19.9063 46.2051 20.0265 46.2148C20.1468 46.2245 20.2639 46.2579 20.3712 46.313C23.1024 47.6537 26.0704 48.4448 29.1066 48.6415C29.335 48.6691 29.5447 48.7817 29.6938 48.9569C29.843 49.1321 29.9207 49.357 29.9115 49.5869C29.9022 49.8168 29.8067 50.0348 29.644 50.1975C29.4813 50.3601 29.2633 50.4556 29.0334 50.4647Z" fill="#121728"/>
<path d="M70.8212 126.997C70.0607 126.995 69.3145 126.79 68.6594 126.404C68.0043 126.018 67.464 125.464 67.0942 124.8C66.8308 124.349 66.6568 123.852 66.5816 123.335L65.1172 114.219C65.0793 113.979 65.1382 113.734 65.281 113.538C65.4239 113.342 65.6388 113.21 65.8787 113.172C66.1185 113.134 66.3635 113.193 66.5599 113.336C66.7563 113.479 66.8879 113.694 66.9258 113.934L68.3902 123.05C68.4321 123.34 68.5317 123.619 68.6831 123.87C68.9246 124.305 69.2928 124.657 69.7387 124.878C70.1847 125.099 70.6874 125.179 71.18 125.107C71.5283 125.06 71.8625 124.938 72.1604 124.751C72.4583 124.564 72.7132 124.316 72.908 124.024C73.1982 123.592 73.342 123.079 73.318 122.559L72.7176 109.548C72.706 109.305 72.7912 109.068 72.9546 108.888C73.118 108.708 73.3462 108.6 73.589 108.589C73.8317 108.577 74.0691 108.662 74.249 108.826C74.4289 108.989 74.5365 109.217 74.5482 109.46L75.1486 122.471C75.1989 123.547 74.8451 124.602 74.1568 125.43C73.4685 126.258 72.4955 126.798 71.4289 126.945C71.2279 126.977 71.0247 126.994 70.8212 126.997Z" fill="#121728"/>
<path d="M57.4654 132.642C56.7384 132.645 56.0223 132.466 55.3826 132.121C54.743 131.775 54.2002 131.275 53.8043 130.665C53.4796 130.166 53.2626 129.605 53.1672 129.017L52.3984 123.804C52.3797 123.685 52.3845 123.564 52.4126 123.447C52.4407 123.33 52.4916 123.22 52.5623 123.123C52.633 123.026 52.7222 122.943 52.8247 122.88C52.9273 122.818 53.0412 122.776 53.1599 122.757C53.2787 122.738 53.4 122.743 53.5168 122.771C53.6337 122.799 53.7439 122.85 53.8412 122.921C53.9384 122.992 54.0208 123.081 54.0835 123.183C54.1463 123.286 54.1882 123.4 54.207 123.518L55.0417 128.754C55.0932 129.092 55.2182 129.414 55.4078 129.698C55.6634 130.096 56.0274 130.412 56.4569 130.609C56.8864 130.807 57.3634 130.877 57.8315 130.811C58.211 130.762 58.5737 130.625 58.8904 130.41C59.207 130.195 59.4688 129.908 59.6547 129.574C59.8864 129.17 59.9958 128.707 59.9696 128.241L59.4717 117.587C59.4617 117.345 59.5475 117.109 59.7106 116.929C59.8737 116.75 60.1008 116.642 60.343 116.628C60.4637 116.62 60.5847 116.637 60.6989 116.677C60.8131 116.717 60.9181 116.779 61.0076 116.86C61.0971 116.942 61.1693 117.04 61.2199 117.15C61.2706 117.26 61.2985 117.379 61.3022 117.5L61.8001 128.153C61.8401 128.964 61.6497 129.768 61.251 130.475C60.9236 131.052 60.4681 131.546 59.9197 131.919C59.3713 132.292 58.7446 132.534 58.0878 132.627C57.881 132.648 57.6729 132.653 57.4654 132.642Z" fill="#121728"/>
<path d="M63.5501 139.781C63.2445 139.782 62.9423 139.717 62.6641 139.591L53.8775 135.644C53.7037 135.567 53.5587 135.437 53.4628 135.273C53.3669 135.108 53.325 134.918 53.3429 134.729L53.7457 130.087C53.7705 129.848 53.8884 129.628 54.0737 129.475C54.2591 129.322 54.4972 129.248 54.7366 129.27C54.9759 129.291 55.1974 129.405 55.3531 129.588C55.5088 129.771 55.5863 130.008 55.5689 130.248L55.2174 134.238L63.4403 137.899C63.4897 137.929 63.5485 137.94 63.6053 137.929C63.662 137.918 63.7128 137.887 63.7478 137.841C63.7901 137.8 63.8169 137.745 63.8236 137.686C63.8302 137.628 63.8164 137.568 63.7844 137.519L59.684 130.423C59.6152 130.319 59.5684 130.202 59.5466 130.08C59.5247 129.957 59.5281 129.831 59.5567 129.709C59.5853 129.588 59.6384 129.473 59.7128 129.373C59.7872 129.273 59.8812 129.189 59.9892 129.127C60.0972 129.064 60.2168 129.025 60.3407 129.01C60.4646 128.995 60.5902 129.006 60.7097 129.042C60.8292 129.078 60.9402 129.137 61.0358 129.218C61.1314 129.298 61.2096 129.397 61.2656 129.508L65.366 136.603C65.5503 136.921 65.6481 137.281 65.6497 137.649C65.6514 138.016 65.5567 138.377 65.3752 138.696C65.1937 139.016 64.9318 139.282 64.6154 139.468C64.299 139.655 63.9393 139.755 63.5721 139.759L63.5501 139.781Z" fill="#121728"/>
<path d="M76.6053 134.055C76.3021 134.056 76.0023 133.991 75.7266 133.865L66.94 129.918C66.7662 129.841 66.6212 129.711 66.5253 129.547C66.4294 129.382 66.3875 129.192 66.4054 129.003L66.8082 124.353C66.833 124.114 66.9509 123.895 67.1362 123.742C67.3216 123.589 67.5597 123.515 67.7991 123.536C68.0384 123.557 68.2599 123.672 68.4156 123.855C68.5713 124.038 68.6488 124.275 68.6314 124.514L68.2799 128.512L76.5028 132.173C76.5542 132.203 76.6147 132.213 76.6728 132.201C76.7308 132.188 76.7824 132.155 76.8176 132.108C76.8607 132.068 76.8881 132.015 76.8948 131.957C76.9015 131.899 76.8871 131.841 76.8543 131.793L72.9076 124.976C72.8388 124.872 72.792 124.755 72.7701 124.632C72.7483 124.509 72.7517 124.383 72.7803 124.262C72.8089 124.14 72.862 124.026 72.9364 123.926C73.0107 123.825 73.1048 123.742 73.2128 123.679C73.3208 123.617 73.4404 123.577 73.5643 123.562C73.6882 123.548 73.8138 123.559 73.9333 123.594C74.0528 123.63 74.1638 123.69 74.2594 123.77C74.355 123.85 74.4332 123.949 74.4892 124.06L78.4359 130.877C78.6204 131.196 78.7182 131.557 78.7195 131.925C78.7208 132.292 78.6255 132.654 78.4432 132.974C78.2608 133.293 77.9978 133.559 77.6804 133.745C77.3631 133.931 77.0024 134.03 76.6346 134.033L76.6053 134.055Z" fill="#121728"/>
<path d="M74.9875 94.8008C74.8286 94.8018 74.6721 94.7614 74.5335 94.6836L58.3661 85.3478C58.226 85.2669 58.1096 85.1505 58.0286 85.0105C57.9476 84.8704 57.9049 84.7115 57.9048 84.5497C57.9055 84.389 57.9485 84.2312 58.0295 84.0924C58.1104 83.9536 58.2265 83.8386 58.3661 83.7589L83.4081 69.2975C83.5477 69.2186 83.7053 69.1771 83.8657 69.1771C84.0261 69.1771 84.1837 69.2186 84.3233 69.2975L87.3254 71.0328C87.5202 71.1615 87.6584 71.3596 87.7118 71.5868C87.7653 71.814 87.73 72.053 87.6131 72.2549C87.4962 72.4569 87.3066 72.6066 87.083 72.6735C86.8594 72.7403 86.6187 72.7192 86.4102 72.6144L83.862 71.15L60.6506 84.5497L75.4488 93.0947C75.5527 93.1552 75.6436 93.2357 75.7164 93.3314C75.7892 93.4271 75.8424 93.5362 75.873 93.6525C75.9036 93.7688 75.911 93.8899 75.8947 94.009C75.8785 94.1282 75.8389 94.2429 75.7783 94.3468C75.6983 94.4855 75.5829 94.6005 75.444 94.6802C75.3051 94.76 75.1476 94.8016 74.9875 94.8008Z" fill="#121728"/>
<path d="M74.9875 94.8008C74.7861 94.8003 74.5905 94.7334 74.431 94.6104C74.2852 94.5014 74.1762 94.3503 74.1186 94.1776C74.061 94.0048 74.0576 93.8186 74.1088 93.6439L79.1611 75.5214C79.1917 75.4061 79.245 75.2982 79.318 75.2039C79.3909 75.1095 79.482 75.0308 79.5858 74.9722L104.628 60.5108C104.785 60.4206 104.966 60.3787 105.147 60.3904C105.328 60.4021 105.501 60.4669 105.646 60.5767C105.788 60.6902 105.895 60.8427 105.952 61.0157C106.009 61.1886 106.015 61.3745 105.968 61.5506L100.923 79.6731C100.855 79.9028 100.703 80.0987 100.498 80.2223L75.4488 94.6836C75.3076 94.7617 75.1487 94.8021 74.9875 94.8008ZM80.8452 76.3708L76.5032 91.9744L99.2826 78.7944L103.595 63.2201L80.8452 76.3708Z" fill="#121728"/>
<path d="M72.4463 68.3895C72.2635 68.3874 72.0825 68.3527 71.9118 68.287L67.5624 66.5443L67.5038 66.5882C66.9074 67.0293 66.191 67.2788 65.4496 67.3036C64.7082 67.3285 63.9768 67.1275 63.3521 66.7274L50.7213 58.5045C50.5174 58.3725 50.3743 58.1648 50.3235 57.9273C50.2727 57.6897 50.3183 57.4417 50.4504 57.2378C50.5824 57.0339 50.7901 56.8908 51.0276 56.84C51.2652 56.7892 51.5132 56.8348 51.7171 56.9669L64.3479 65.2263C64.6569 65.4268 65.0202 65.5274 65.3883 65.5143C65.7564 65.5012 66.1115 65.3751 66.4055 65.1531L66.8741 64.8016C67.0009 64.708 67.1494 64.6481 67.3056 64.6276C67.4619 64.6071 67.6208 64.6267 67.7674 64.6845L71.6043 66.2221L70.4913 64.1939C70.2973 63.8476 70.0329 63.5458 69.7151 63.3079L55.4295 52.7639C54.4658 52.05 53.7964 51.0083 53.5477 49.835L52.691 45.8517C52.6586 45.732 52.651 45.6069 52.6685 45.4841C52.686 45.3613 52.7282 45.2434 52.7927 45.1374C52.8572 45.0314 52.9425 44.9397 53.0435 44.8677C53.1445 44.7957 53.2591 44.7451 53.3803 44.7187C53.5015 44.6924 53.6268 44.691 53.7486 44.7146C53.8704 44.7381 53.9861 44.7862 54.0887 44.8559C54.1913 44.9256 54.2787 45.0154 54.3456 45.1198C54.4124 45.2243 54.4573 45.3413 54.4776 45.4636L55.3343 49.4469C55.4981 50.1773 55.9191 50.8244 56.5205 51.2702L70.7988 61.8142C71.3276 62.2052 71.7669 62.7044 72.0875 63.2786L73.7131 66.2075C73.8326 66.4289 73.8931 66.6775 73.8887 66.9291C73.8842 67.1808 73.815 67.427 73.6877 67.6441C73.5604 67.8612 73.3793 68.0418 73.1618 68.1685C72.9444 68.2952 72.698 68.3638 72.4463 68.3676V68.3895Z" fill="#121728"/>
</svg>
