<svg width="65" height="50" viewBox="0 0 65 50" fill="none" xmlns="http://www.w3.org/2000/svg">
<ellipse opacity="0.2" cx="32.5" cy="25" rx="25.5" ry="25" fill="#005BF2"/>
<ellipse cx="32.5" cy="25" rx="18.5" ry="18" fill="#005BF2"/>
<path d="M32.5209 30.24C34.7769 30.24 36.6489 29.136 36.6489 26.864C36.6489 25.344 35.8169 24.448 34.4249 24.112V24.08C35.5129 23.728 36.2969 23.008 36.2969 21.776C36.2969 19.952 34.8249 18.816 32.5369 18.816C29.9929 18.816 28.6329 20.272 28.5529 22.432H30.6329C30.6809 21.296 31.2889 20.48 32.5369 20.48C33.4969 20.48 34.0889 21.056 34.0889 21.92C34.0889 22.848 33.3529 23.376 32.3129 23.376H31.6889V25.024H32.3609C33.7049 25.024 34.3769 25.664 34.3769 26.72C34.3769 27.84 33.6569 28.496 32.4409 28.496C30.9369 28.496 30.3609 27.584 30.2809 26.272H28.2009C28.2329 28.672 29.6889 30.24 32.5209 30.24Z" fill="white"/>
</svg>
