<svg width="64" height="77" viewBox="0 0 64 77" fill="none" xmlns="http://www.w3.org/2000/svg">
<path d="M15.2962 65.5218C13.9477 65.4672 12.6322 65.0884 11.4611 64.4174L11.2362 64.2889C8.34079 62.4858 6.55774 58.7912 6.55774 53.5866V49.0608C6.55774 38.3867 14.0513 25.4074 23.2998 20.0703L45.7886 7.07905C50.3185 4.46473 54.4307 4.17158 57.4346 5.81005C60.1132 7.26379 61.9243 10.2275 62.3942 14.4843C62.4763 15.2364 62.5165 15.9926 62.5146 16.7492V21.2671C62.5146 25.3271 61.4344 29.7004 59.5871 33.8929C56.5712 40.7199 51.5112 46.9525 45.7806 50.2615L29.2192 59.8193C28.2795 66.6462 23.2637 72.9832 19.0952 76.2843C20.8301 72.3728 21.83 67.6984 21.818 64.0198C19.4727 65.1363 17.268 65.6182 15.2962 65.5218ZM45.0577 32.2263C45.7749 31.7579 46.3721 31.1275 46.8011 30.3861C47.23 29.6446 47.4789 28.8127 47.5275 27.9575C47.5275 26.3833 46.4191 25.7447 45.0577 26.5318C44.3419 27.0004 43.7467 27.6312 43.3204 28.3729C42.8941 29.1146 42.6487 29.9464 42.604 30.8007C42.604 32.3749 43.6923 33.0135 45.0537 32.2263H45.0577ZM34.5442 38.2943C35.2616 37.8263 35.8586 37.196 36.287 36.4544C36.7154 35.7127 36.963 34.8806 37.01 34.0254C37.01 32.4512 35.9056 31.8127 34.5442 32.5998C33.8271 33.068 33.2302 33.6984 32.8019 34.44C32.3735 35.1816 32.1257 36.0136 32.0785 36.8687C32.0745 38.4429 33.1748 39.0774 34.5402 38.2943H34.5442ZM24.0227 44.3622C24.7405 43.8939 25.3379 43.2629 25.7663 42.5205C26.1947 41.7782 26.4421 40.9452 26.4884 40.0894C26.4884 38.5192 25.3841 37.8807 24.0267 38.6678C23.3089 39.1352 22.7115 39.7654 22.2831 40.5072C21.8547 41.2489 21.6072 42.0813 21.561 42.9366C21.561 44.5028 22.6613 45.1413 24.0227 44.3622Z" fill="#EAF0FF"/>
<path d="M50.6561 44.2053C50.8087 44.2045 50.9582 44.2491 51.0855 44.3333C51.2128 44.4176 51.3123 44.5377 51.3713 44.6785C51.4302 44.8193 51.4461 44.9745 51.4168 45.1243C51.3875 45.2741 51.3144 45.4119 51.2067 45.5202C51.099 45.6284 50.9617 45.7022 50.812 45.7323C50.6623 45.7624 50.5071 45.7474 50.3659 45.6891C50.2248 45.6309 50.1042 45.532 50.0193 45.4052C49.9344 45.2783 49.889 45.1291 49.889 44.9764C49.889 44.7726 49.9697 44.5771 50.1134 44.4326C50.2572 44.2881 50.4523 44.2064 50.6561 44.2053Z" fill="#121728"/>
<path d="M20.6737 48.687C20.7184 48.687 20.7613 48.7048 20.793 48.7364C20.8246 48.768 20.8423 48.8109 20.8423 48.8557C20.8423 48.9004 20.8246 48.9433 20.793 48.9749C20.7613 49.0066 20.7184 49.0243 20.6737 49.0243C20.629 49.0243 20.586 49.0066 20.5544 48.9749C20.5228 48.9433 20.505 48.9004 20.505 48.8557C20.505 48.8109 20.5228 48.768 20.5544 48.7364C20.586 48.7048 20.629 48.687 20.6737 48.687Z" fill="#121728"/>
<path d="M36.9378 45.9966C37.0173 45.9966 37.0949 46.0201 37.1609 46.0643C37.227 46.1084 37.2785 46.1711 37.3089 46.2445C37.3393 46.3179 37.3472 46.3986 37.3317 46.4765C37.3162 46.5544 37.278 46.626 37.2218 46.6821C37.1656 46.7383 37.0941 46.7765 37.0162 46.792C36.9383 46.8075 36.8575 46.7996 36.7842 46.7692C36.7108 46.7388 36.6481 46.6873 36.6039 46.6213C36.5598 46.5552 36.5363 46.4776 36.5363 46.3982C36.5363 46.2917 36.5786 46.1895 36.6539 46.1142C36.7292 46.0389 36.8313 45.9966 36.9378 45.9966Z" fill="#121728"/>
<path d="M9.97145 54.7271C9.99464 54.7263 10.0175 54.7325 10.0372 54.7448C10.0569 54.7571 10.0724 54.775 10.0819 54.7962C10.0913 54.8174 10.0942 54.8409 10.0902 54.8637C10.0861 54.8866 10.0754 54.9077 10.0592 54.9244C10.0431 54.9411 10.0224 54.9526 9.99971 54.9574C9.97702 54.9623 9.95339 54.9602 9.93188 54.9515C9.91036 54.9428 9.89193 54.9279 9.87895 54.9087C9.86597 54.8894 9.85902 54.8668 9.85901 54.8436C9.85899 54.8134 9.87071 54.7843 9.89169 54.7626C9.91267 54.7409 9.94127 54.7282 9.97145 54.7271Z" fill="#121728"/>
<path d="M48.2265 41.0369C48.3402 41.0361 48.4517 41.0691 48.5466 41.1317C48.6416 41.1943 48.7158 41.2837 48.7599 41.3886C48.804 41.4935 48.8159 41.609 48.7942 41.7207C48.7725 41.8324 48.7182 41.9351 48.638 42.0158C48.5579 42.0965 48.4555 42.1516 48.344 42.1741C48.2325 42.1966 48.1168 42.1854 48.0117 42.1421C47.9065 42.0988 47.8166 42.0251 47.7533 41.9306C47.69 41.8361 47.6563 41.7249 47.6563 41.6112C47.6562 41.4596 47.7162 41.3141 47.823 41.2065C47.9299 41.0989 48.0749 41.0379 48.2265 41.0369Z" fill="#121728"/>
<path d="M47.3268 20.2829C47.3733 20.2829 47.4111 20.2452 47.4111 20.1986C47.4111 20.152 47.3733 20.1143 47.3268 20.1143C47.2802 20.1143 47.2424 20.152 47.2424 20.1986C47.2424 20.2452 47.2802 20.2829 47.3268 20.2829Z" fill="#121728"/>
<path d="M32.9139 51.6147C33.0069 51.6147 33.0977 51.6423 33.175 51.6939C33.2522 51.7456 33.3125 51.819 33.348 51.9048C33.3836 51.9907 33.3929 52.0851 33.3748 52.1763C33.3566 52.2674 33.3119 52.3511 33.2462 52.4168C33.1805 52.4825 33.0968 52.5273 33.0056 52.5454C32.9145 52.5636 32.82 52.5542 32.7341 52.5187C32.6483 52.4831 32.5749 52.4229 32.5233 52.3456C32.4716 52.2684 32.4441 52.1775 32.4441 52.0846C32.4441 51.96 32.4936 51.8405 32.5817 51.7524C32.6698 51.6643 32.7893 51.6147 32.9139 51.6147Z" fill="#121728"/>
<path d="M42.8813 25.086C42.8948 25.0831 42.9087 25.0833 42.9221 25.0866C42.9354 25.0898 42.9479 25.0959 42.9586 25.1046C42.9693 25.1133 42.9779 25.1242 42.9838 25.1366C42.9897 25.149 42.9928 25.1626 42.9928 25.1763C42.9928 25.1901 42.9897 25.2037 42.9838 25.2161C42.9779 25.2285 42.9693 25.2394 42.9586 25.2481C42.9479 25.2568 42.9354 25.2629 42.9221 25.2661C42.9087 25.2694 42.8948 25.2696 42.8813 25.2667C42.8678 25.2696 42.8539 25.2694 42.8405 25.2661C42.8272 25.2629 42.8147 25.2568 42.804 25.2481C42.7933 25.2394 42.7847 25.2285 42.7788 25.2161C42.7729 25.2037 42.7698 25.1901 42.7698 25.1763C42.7698 25.1626 42.7729 25.149 42.7788 25.1366C42.7847 25.1242 42.7933 25.1133 42.804 25.1046C42.8147 25.0959 42.8272 25.0898 42.8405 25.0866C42.8539 25.0833 42.8678 25.0831 42.8813 25.086Z" fill="#121728"/>
<path d="M58.1175 27.8852C58.3349 27.8852 58.5111 27.709 58.5111 27.4917C58.5111 27.2743 58.3349 27.0981 58.1175 27.0981C57.9002 27.0981 57.724 27.2743 57.724 27.4917C57.724 27.709 57.9002 27.8852 58.1175 27.8852Z" fill="#121728"/>
<path d="M60.3584 29.1621C60.4609 29.1621 60.561 29.1925 60.6462 29.2494C60.7314 29.3064 60.7978 29.3873 60.837 29.4819C60.8762 29.5766 60.8865 29.6807 60.8665 29.7812C60.8465 29.8817 60.7972 29.974 60.7247 30.0465C60.6523 30.1189 60.56 30.1683 60.4595 30.1882C60.359 30.2082 60.2548 30.198 60.1601 30.1588C60.0655 30.1196 59.9846 30.0532 59.9277 29.968C59.8707 29.8828 59.8403 29.7826 59.8403 29.6802C59.8398 29.612 59.8529 29.5444 59.8787 29.4813C59.9046 29.4182 59.9427 29.3609 59.9909 29.3126C60.0391 29.2644 60.0964 29.2263 60.1595 29.2005C60.2226 29.1746 60.2902 29.1616 60.3584 29.1621Z" fill="#121728"/>
<path d="M30.5327 54.5383C30.6288 54.5383 30.7227 54.5668 30.8026 54.6202C30.8826 54.6736 30.9448 54.7495 30.9816 54.8383C31.0184 54.9271 31.028 55.0248 31.0093 55.119C30.9905 55.2133 30.9442 55.2999 30.8763 55.3678C30.8083 55.4358 30.7217 55.4821 30.6275 55.5008C30.5332 55.5196 30.4355 55.51 30.3467 55.4732C30.2579 55.4364 30.182 55.3741 30.1286 55.2942C30.0753 55.2143 30.0468 55.1203 30.0468 55.0242C30.0468 54.9604 30.0593 54.8972 30.0837 54.8383C30.1082 54.7793 30.144 54.7258 30.1891 54.6806C30.2342 54.6355 30.2878 54.5997 30.3467 54.5753C30.4057 54.5509 30.4689 54.5383 30.5327 54.5383Z" fill="#121728"/>
<path d="M54.3224 33.3789C54.4193 33.3789 54.5141 33.4076 54.5946 33.4615C54.6752 33.5153 54.738 33.5918 54.7751 33.6813C54.8122 33.7709 54.8219 33.8694 54.803 33.9644C54.7841 34.0595 54.7374 34.1467 54.6689 34.2153C54.6004 34.2838 54.5131 34.3304 54.418 34.3493C54.323 34.3682 54.2245 34.3586 54.135 34.3215C54.0454 34.2844 53.9689 34.2216 53.9151 34.141C53.8612 34.0605 53.8325 33.9657 53.8325 33.8688C53.8325 33.8045 53.8452 33.7408 53.8698 33.6813C53.8944 33.6219 53.9305 33.5679 53.976 33.5224C54.0215 33.4769 54.0755 33.4408 54.135 33.4162C54.1944 33.3916 54.2581 33.3789 54.3224 33.3789Z" fill="#121728"/>
<path d="M61.0773 20.2991C61.1346 20.2983 61.1909 20.3146 61.239 20.3459C61.2871 20.3771 61.3248 20.422 61.3473 20.4748C61.3698 20.5275 61.3761 20.5858 61.3654 20.6422C61.3547 20.6985 61.3274 20.7504 61.2872 20.7912C61.2469 20.8321 61.1954 20.86 61.1392 20.8715C61.083 20.883 61.0247 20.8775 60.9716 20.8557C60.9185 20.834 60.8731 20.7969 60.8412 20.7493C60.8092 20.7017 60.7921 20.6456 60.7921 20.5882C60.7916 20.5505 60.7986 20.5129 60.8127 20.4779C60.8268 20.4428 60.8477 20.4109 60.8742 20.384C60.9008 20.3571 60.9324 20.3358 60.9672 20.3212C61.0021 20.3066 61.0395 20.2991 61.0773 20.2991Z" fill="#121728"/>
<path d="M9.73448 59.5864C9.7696 59.5864 9.80392 59.5969 9.83305 59.6165C9.86219 59.6361 9.88483 59.664 9.89808 59.6965C9.91133 59.729 9.91458 59.7647 9.90743 59.7991C9.90028 59.8335 9.88306 59.865 9.85794 59.8895C9.83283 59.914 9.80097 59.9305 9.76643 59.9369C9.7319 59.9433 9.69625 59.9392 9.66404 59.9252C9.63183 59.9112 9.60452 59.8879 9.58559 59.8583C9.56667 59.8288 9.55699 59.7942 9.55778 59.7591C9.55883 59.713 9.57791 59.669 9.61094 59.6368C9.64396 59.6045 9.68831 59.5864 9.73448 59.5864Z" fill="#121728"/>
<path d="M39.0181 41.5994C39.0833 41.5994 39.1469 41.6187 39.2011 41.6549C39.2552 41.691 39.2975 41.7425 39.3224 41.8027C39.3473 41.8628 39.3538 41.929 39.3411 41.9929C39.3284 42.0568 39.2971 42.1155 39.251 42.1615C39.2049 42.2076 39.1463 42.2389 39.0824 42.2516C39.0185 42.2644 38.9523 42.2578 38.8921 42.2329C38.832 42.208 38.7805 42.1658 38.7443 42.1116C38.7082 42.0575 38.6888 41.9938 38.6888 41.9287C38.6888 41.8854 38.6974 41.8426 38.7139 41.8027C38.7305 41.7627 38.7547 41.7264 38.7853 41.6958C38.8159 41.6652 38.8522 41.641 38.8921 41.6244C38.9321 41.6079 38.9749 41.5994 39.0181 41.5994Z" fill="#121728"/>
<path d="M30.131 57.8674C30.2485 57.8674 30.3634 57.9023 30.4612 57.9676C30.5589 58.0329 30.6351 58.1257 30.6801 58.2343C30.725 58.343 30.7368 58.4625 30.7139 58.5777C30.691 58.693 30.6344 58.7989 30.5512 58.882C30.4681 58.9652 30.3622 59.0218 30.2469 59.0447C30.1316 59.0677 30.0121 59.0559 29.9035 59.0109C29.7949 58.9659 29.7021 58.8897 29.6368 58.792C29.5715 58.6943 29.5366 58.5793 29.5366 58.4618C29.5361 58.3836 29.5511 58.3061 29.5808 58.2337C29.6105 58.1614 29.6542 58.0956 29.7095 58.0403C29.7648 57.985 29.8305 57.9413 29.9029 57.9116C29.9753 57.8819 30.0528 57.8669 30.131 57.8674Z" fill="#121728"/>
<path d="M14.674 57.6145C14.7187 57.6145 14.7623 57.6278 14.7994 57.6527C14.8364 57.6776 14.8652 57.713 14.8821 57.7543C14.899 57.7957 14.9032 57.8411 14.8942 57.8848C14.8852 57.9285 14.8634 57.9686 14.8316 57.9999C14.7997 58.0312 14.7593 58.0522 14.7154 58.0605C14.6715 58.0687 14.6261 58.0637 14.5851 58.046C14.5441 58.0284 14.5093 57.9989 14.4851 57.9614C14.4608 57.9239 14.4483 57.88 14.4491 57.8354C14.4491 57.8061 14.455 57.777 14.4663 57.7499C14.4777 57.7229 14.4943 57.6984 14.5152 57.6778C14.5362 57.6572 14.561 57.641 14.5883 57.6302C14.6155 57.6193 14.6447 57.614 14.674 57.6145Z" fill="#121728"/>
<path d="M13.5858 49.1493C13.596 49.1487 13.6062 49.1503 13.6157 49.1539C13.6252 49.1575 13.6339 49.1631 13.6411 49.1703C13.6483 49.1775 13.6539 49.1862 13.6575 49.1957C13.6611 49.2052 13.6627 49.2154 13.6621 49.2256C13.6621 49.2354 13.6601 49.2452 13.6563 49.2542C13.6524 49.2633 13.6467 49.2714 13.6395 49.2782C13.6324 49.285 13.624 49.2902 13.6147 49.2936C13.6055 49.297 13.5956 49.2984 13.5858 49.2979C13.5667 49.2979 13.5483 49.2903 13.5347 49.2767C13.5212 49.2632 13.5135 49.2448 13.5135 49.2256C13.513 49.2158 13.5145 49.2059 13.5178 49.1967C13.5212 49.1875 13.5265 49.179 13.5332 49.1719C13.54 49.1647 13.5482 49.159 13.5572 49.1551C13.5662 49.1513 13.576 49.1493 13.5858 49.1493Z" fill="#121728"/>
<path d="M52.7443 37.7119C53.0481 37.7119 53.2944 37.4656 53.2944 37.1617C53.2944 36.8579 53.0481 36.6116 52.7443 36.6116C52.4404 36.6116 52.1941 36.8579 52.1941 37.1617C52.1941 37.4656 52.4404 37.7119 52.7443 37.7119Z" fill="#121728"/>
<path d="M29.0869 51.137C29.1584 51.137 29.2283 51.1582 29.2877 51.1979C29.3471 51.2376 29.3935 51.294 29.4208 51.3601C29.4482 51.4261 29.4553 51.4988 29.4414 51.5689C29.4274 51.639 29.393 51.7034 29.3425 51.7539C29.2919 51.8045 29.2275 51.8389 29.1574 51.8529C29.0873 51.8668 29.0146 51.8597 28.9486 51.8323C28.8825 51.805 28.8261 51.7586 28.7864 51.6992C28.7467 51.6398 28.7255 51.5699 28.7255 51.4984C28.7255 51.4025 28.7635 51.3106 28.8313 51.2428C28.8991 51.175 28.991 51.137 29.0869 51.137Z" fill="#121728"/>
<path d="M43.8733 46.137C44.1971 46.137 44.4596 45.8745 44.4596 45.5507C44.4596 45.2269 44.1971 44.9644 43.8733 44.9644C43.5495 44.9644 43.287 45.2269 43.287 45.5507C43.287 45.8745 43.5495 46.137 43.8733 46.137Z" fill="#121728"/>
<path d="M33.7694 55.6309C33.896 55.6301 34.02 55.667 34.1257 55.7368C34.2313 55.8067 34.3137 55.9064 34.3626 56.0232C34.4114 56.14 34.4244 56.2687 34.3999 56.393C34.3753 56.5172 34.3145 56.6314 34.2249 56.7209C34.1354 56.8104 34.0212 56.8713 33.897 56.8958C33.7728 56.9203 33.6441 56.9073 33.5272 56.8585C33.4104 56.8097 33.3107 56.7272 33.2408 56.6216C33.171 56.516 33.1341 56.392 33.1349 56.2654C33.136 56.0974 33.2032 55.9367 33.3219 55.8179C33.4407 55.6991 33.6015 55.6319 33.7694 55.6309Z" fill="#121728"/>
<path d="M48.4714 46.1934C48.6199 46.1934 48.7651 46.2374 48.8886 46.3199C49.0121 46.4024 49.1084 46.5197 49.1652 46.6569C49.2221 46.7942 49.2369 46.9452 49.208 47.0908C49.179 47.2365 49.1075 47.3703 49.0024 47.4753C48.8974 47.5804 48.7636 47.6519 48.6179 47.6808C48.4722 47.7098 48.3213 47.695 48.1841 47.6381C48.0468 47.5813 47.9295 47.485 47.847 47.3615C47.7645 47.238 47.7205 47.0928 47.7205 46.9443C47.7205 46.7452 47.7996 46.5542 47.9404 46.4133C48.0813 46.2725 48.2723 46.1934 48.4714 46.1934Z" fill="#121728"/>
<path d="M58.5111 10.9985C58.5577 10.9985 58.5954 10.9608 58.5954 10.9142C58.5954 10.8676 58.5577 10.8298 58.5111 10.8298C58.4645 10.8298 58.4268 10.8676 58.4268 10.9142C58.4268 10.9608 58.4645 10.9985 58.5111 10.9985Z" fill="#121728"/>
<path d="M53.4269 15.6491C53.4734 15.6491 53.5112 15.6114 53.5112 15.5648C53.5112 15.5182 53.4734 15.4805 53.4269 15.4805C53.3803 15.4805 53.3425 15.5182 53.3425 15.5648C53.3425 15.6114 53.3803 15.6491 53.4269 15.6491Z" fill="#121728"/>
<path d="M50.403 33.7686C50.4776 33.7687 50.5505 33.7906 50.6127 33.8317C50.675 33.8728 50.7238 33.9313 50.7532 33.9998C50.7825 34.0684 50.7912 34.144 50.778 34.2174C50.7649 34.2908 50.7305 34.3588 50.6791 34.4128C50.6277 34.4669 50.5617 34.5047 50.489 34.5216C50.4164 34.5385 50.3404 34.5338 50.2704 34.508C50.2005 34.4822 50.1396 34.4364 50.0954 34.3764C50.0511 34.3163 50.0254 34.2446 50.0215 34.1701C50.0188 34.1184 50.0267 34.0666 50.0446 34.018C50.0626 33.9693 50.0902 33.9249 50.1259 33.8873C50.1616 33.8497 50.2046 33.8198 50.2522 33.7994C50.2999 33.779 50.3512 33.7685 50.403 33.7686Z" fill="#121728"/>
<path d="M27.6934 63.1485C28.0593 63.1485 28.356 62.8518 28.356 62.4859C28.356 62.1199 28.0593 61.8232 27.6934 61.8232C27.3274 61.8232 27.0308 62.1199 27.0308 62.4859C27.0308 62.8518 27.3274 63.1485 27.6934 63.1485Z" fill="#121728"/>
<path d="M34.5124 43.4224C34.5665 43.4216 34.6197 43.4369 34.6652 43.4665C34.7106 43.496 34.7462 43.5383 34.7675 43.5882C34.7888 43.638 34.7948 43.693 34.7847 43.7463C34.7746 43.7995 34.7489 43.8485 34.7109 43.8871C34.6729 43.9257 34.6243 43.9521 34.5712 43.963C34.5181 43.9738 34.463 43.9687 34.4128 43.9481C34.3627 43.9276 34.3198 43.8926 34.2896 43.8476C34.2595 43.8026 34.2433 43.7497 34.2433 43.6955C34.2428 43.6598 34.2493 43.6244 34.2626 43.5913C34.2759 43.5582 34.2957 43.528 34.3207 43.5026C34.3457 43.4772 34.3756 43.457 34.4085 43.4433C34.4414 43.4295 34.4767 43.4224 34.5124 43.4224Z" fill="#121728"/>
<path d="M56.72 31.8247C56.9817 31.8247 57.1939 31.6125 57.1939 31.3508C57.1939 31.0891 56.9817 30.877 56.72 30.877C56.4583 30.877 56.2461 31.0891 56.2461 31.3508C56.2461 31.6125 56.4583 31.8247 56.72 31.8247Z" fill="#121728"/>
<path d="M53.708 29.0938C53.8766 29.0938 54.0132 28.9571 54.0132 28.7886C54.0132 28.62 53.8766 28.4834 53.708 28.4834C53.5395 28.4834 53.4028 28.62 53.4028 28.7886C53.4028 28.9571 53.5395 29.0938 53.708 29.0938Z" fill="#121728"/>
<path d="M29.9783 46.6433C30.0126 46.6433 30.0465 46.6501 30.0782 46.6632C30.1099 46.6763 30.1387 46.6955 30.1629 46.7198C30.1871 46.744 30.2064 46.7728 30.2195 46.8044C30.2326 46.8361 30.2394 46.8701 30.2394 46.9044C30.2394 46.9386 30.2326 46.9726 30.2195 47.0042C30.2064 47.0359 30.1871 47.0647 30.1629 47.0889C30.1387 47.1132 30.1099 47.1324 30.0782 47.1455C30.0465 47.1586 30.0126 47.1654 29.9783 47.1654C29.944 47.1654 29.9101 47.1586 29.8784 47.1455C29.8468 47.1324 29.818 47.1132 29.7938 47.0889C29.7695 47.0647 29.7503 47.0359 29.7372 47.0042C29.724 46.9726 29.7173 46.9386 29.7173 46.9044C29.7173 46.8701 29.724 46.8361 29.7372 46.8044C29.7503 46.7728 29.7695 46.744 29.7938 46.7198C29.818 46.6955 29.8468 46.6763 29.8784 46.6632C29.9101 46.6501 29.944 46.6433 29.9783 46.6433Z" fill="#121728"/>
<path d="M46.1462 47.6113C46.2907 47.6113 46.432 47.6542 46.5522 47.7345C46.6724 47.8148 46.7661 47.9289 46.8214 48.0625C46.8767 48.1961 46.8912 48.343 46.863 48.4848C46.8348 48.6266 46.7652 48.7568 46.663 48.859C46.5608 48.9612 46.4305 49.0308 46.2888 49.059C46.147 49.0872 46 49.0728 45.8665 49.0174C45.7329 48.9621 45.6188 48.8685 45.5385 48.7483C45.4581 48.6281 45.4153 48.4867 45.4153 48.3422C45.4153 48.1483 45.4923 47.9624 45.6294 47.8254C45.7664 47.6883 45.9523 47.6113 46.1462 47.6113Z" fill="#121728"/>
<path d="M19.9307 43.2218C19.9407 43.2218 19.9506 43.2238 19.9599 43.2276C19.9691 43.2314 19.9776 43.2371 19.9846 43.2442C19.9917 43.2512 19.9973 43.2596 20.0012 43.2689C20.005 43.2782 20.007 43.2881 20.007 43.2981C20.006 43.318 19.9976 43.3369 19.9835 43.351C19.9694 43.3651 19.9506 43.3734 19.9307 43.3744C19.9206 43.3744 19.9107 43.3724 19.9015 43.3686C19.8922 43.3648 19.8838 43.3592 19.8767 43.3521C19.8696 43.345 19.864 43.3366 19.8602 43.3273C19.8563 43.3181 19.8544 43.3081 19.8544 43.2981C19.8538 43.2879 19.8554 43.2778 19.859 43.2682C19.8626 43.2587 19.8682 43.2501 19.8754 43.2429C19.8826 43.2356 19.8913 43.2301 19.9008 43.2264C19.9103 43.2228 19.9205 43.2212 19.9307 43.2218Z" fill="#121728"/>
<path d="M35.8496 53.5022C35.9737 53.5014 36.0952 53.5375 36.1988 53.6058C36.3023 53.6742 36.3832 53.7717 36.4313 53.8861C36.4793 54.0005 36.4923 54.1266 36.4686 54.2484C36.4449 54.3702 36.3855 54.4822 36.2981 54.5702C36.2106 54.6582 36.099 54.7183 35.9774 54.7428C35.8557 54.7673 35.7295 54.7551 35.6148 54.7078C35.5001 54.6606 35.4021 54.5803 35.333 54.4772C35.264 54.374 35.2272 54.2528 35.2272 54.1287C35.2272 53.9632 35.2926 53.8045 35.4092 53.6871C35.5259 53.5697 35.6842 53.5033 35.8496 53.5022Z" fill="#121728"/>
<path d="M40.5962 44.6192C40.6878 44.6192 40.7772 44.6463 40.8532 44.6973C40.9293 44.7482 40.9884 44.8206 41.0233 44.9052C41.0581 44.9898 41.067 45.0829 41.0489 45.1726C41.0307 45.2623 40.9864 45.3445 40.9214 45.4089C40.8564 45.4734 40.7737 45.5171 40.6839 45.5344C40.594 45.5518 40.501 45.542 40.4167 45.5065C40.3324 45.4709 40.2606 45.4111 40.2103 45.3346C40.16 45.2582 40.1336 45.1685 40.1344 45.077C40.1344 45.0165 40.1464 44.9566 40.1697 44.9008C40.1929 44.845 40.227 44.7944 40.2699 44.7518C40.3129 44.7092 40.3638 44.6756 40.4198 44.6528C40.4758 44.6301 40.5358 44.6186 40.5962 44.6192Z" fill="#121728"/>
<path d="M15.8948 64.2327C16.0056 64.2327 16.1118 64.2767 16.1901 64.355C16.2685 64.4333 16.3125 64.5396 16.3125 64.6503C16.3125 64.7611 16.2685 64.8673 16.1901 64.9456C16.1118 65.024 16.0056 65.068 15.8948 65.068C15.784 65.068 15.6778 65.024 15.5995 64.9456C15.5212 64.8673 15.4772 64.7611 15.4772 64.6503C15.4772 64.5396 15.5212 64.4333 15.5995 64.355C15.6778 64.2767 15.784 64.2327 15.8948 64.2327Z" fill="#121728"/>
<path d="M33.1992 47.9963C33.2723 47.9963 33.3437 48.018 33.4044 48.0586C33.4652 48.0992 33.5126 48.1569 33.5405 48.2244C33.5685 48.2919 33.5758 48.3662 33.5615 48.4379C33.5473 48.5095 33.5121 48.5754 33.4604 48.6271C33.4088 48.6787 33.3429 48.7139 33.2712 48.7282C33.1996 48.7424 33.1253 48.7351 33.0578 48.7071C32.9903 48.6792 32.9326 48.6318 32.892 48.5711C32.8514 48.5103 32.8297 48.4389 32.8297 48.3658C32.8308 48.2681 32.87 48.1748 32.9391 48.1057C33.0081 48.0366 33.1015 47.9974 33.1992 47.9963Z" fill="#121728"/>
<path d="M46.2024 33.708C46.3532 33.708 46.4755 33.5858 46.4755 33.4349C46.4755 33.2841 46.3532 33.1619 46.2024 33.1619C46.0516 33.1619 45.9293 33.2841 45.9293 33.4349C45.9293 33.5858 46.0516 33.708 46.2024 33.708Z" fill="#121728"/>
<path d="M17.1157 60.751C17.202 60.751 17.2847 60.7852 17.3457 60.8463C17.4067 60.9073 17.441 60.99 17.441 61.0763C17.441 61.1625 17.4067 61.2453 17.3457 61.3063C17.2847 61.3673 17.202 61.4015 17.1157 61.4015C17.0294 61.4015 16.9467 61.3673 16.8857 61.3063C16.8247 61.2453 16.7904 61.1625 16.7904 61.0763C16.7904 60.99 16.8247 60.9073 16.8857 60.8463C16.9467 60.7852 17.0294 60.751 17.1157 60.751Z" fill="#121728"/>
<path d="M56.8686 36.3306C56.9973 36.3306 57.123 36.3687 57.23 36.4402C57.337 36.5117 57.4204 36.6133 57.4696 36.7322C57.5189 36.8511 57.5318 36.9819 57.5066 37.108C57.4815 37.2342 57.4196 37.3502 57.3286 37.4412C57.2376 37.5321 57.1217 37.5941 56.9955 37.6192C56.8693 37.6443 56.7385 37.6314 56.6196 37.5822C56.5007 37.5329 56.3991 37.4496 56.3277 37.3426C56.2562 37.2356 56.218 37.1098 56.218 36.9811C56.218 36.8086 56.2866 36.6431 56.4086 36.5211C56.5306 36.3991 56.696 36.3306 56.8686 36.3306Z" fill="#121728"/>
<path d="M26.1231 65.6744C26.509 65.6744 26.8219 65.3615 26.8219 64.9756C26.8219 64.5897 26.509 64.2769 26.1231 64.2769C25.7372 64.2769 25.4243 64.5897 25.4243 64.9756C25.4243 65.3615 25.7372 65.6744 26.1231 65.6744Z" fill="#121728"/>
<path d="M25.2397 67.2847C25.3985 67.2847 25.5538 67.3318 25.6859 67.42C25.818 67.5083 25.9209 67.6337 25.9817 67.7805C26.0425 67.9272 26.0584 68.0887 26.0274 68.2445C25.9964 68.4003 25.9199 68.5434 25.8076 68.6558C25.6953 68.7681 25.5522 68.8446 25.3964 68.8756C25.2406 68.9066 25.0791 68.8906 24.9323 68.8299C24.7856 68.7691 24.6601 68.6661 24.5719 68.5341C24.4836 68.402 24.4365 68.2467 24.4365 68.0878C24.4365 67.8748 24.5211 67.6705 24.6718 67.5199C24.8224 67.3693 25.0267 67.2847 25.2397 67.2847Z" fill="#121728"/>
<path d="M36.9097 50.5428C37.1891 50.5428 37.4157 50.3162 37.4157 50.0368C37.4157 49.7573 37.1891 49.5308 36.9097 49.5308C36.6302 49.5308 36.4037 49.7573 36.4037 50.0368C36.4037 50.3162 36.6302 50.5428 36.9097 50.5428Z" fill="#121728"/>
<path d="M27.1312 55.7952C27.2193 55.7952 27.3055 55.8213 27.3788 55.8703C27.4521 55.9193 27.5093 55.9889 27.543 56.0703C27.5767 56.1518 27.5856 56.2414 27.5684 56.3279C27.5512 56.4144 27.5087 56.4938 27.4464 56.5561C27.384 56.6185 27.3046 56.6609 27.2181 56.6781C27.1317 56.6953 27.0421 56.6865 26.9606 56.6528C26.8792 56.619 26.8095 56.5619 26.7606 56.4886C26.7116 56.4153 26.6854 56.3291 26.6854 56.2409C26.6854 56.1227 26.7324 56.0093 26.816 55.9257C26.8996 55.8421 27.013 55.7952 27.1312 55.7952Z" fill="#121728"/>
<path d="M19.5172 58.1326C19.6902 58.1326 19.8305 57.9923 19.8305 57.8194C19.8305 57.6464 19.6902 57.5061 19.5172 57.5061C19.3442 57.5061 19.204 57.6464 19.204 57.8194C19.204 57.9923 19.3442 58.1326 19.5172 58.1326Z" fill="#121728"/>
<path d="M16.9228 53.4661C16.9577 53.4661 16.9919 53.4764 17.021 53.4958C17.05 53.5153 17.0727 53.5429 17.086 53.5751C17.0994 53.6074 17.1029 53.643 17.0961 53.6772C17.0893 53.7115 17.0724 53.743 17.0477 53.7677C17.023 53.7924 16.9915 53.8093 16.9573 53.8161C16.923 53.8229 16.8875 53.8194 16.8552 53.806C16.8229 53.7926 16.7953 53.77 16.7759 53.7409C16.7565 53.7119 16.7461 53.6777 16.7461 53.6428C16.7461 53.5959 16.7647 53.551 16.7978 53.5178C16.831 53.4847 16.8759 53.4661 16.9228 53.4661Z" fill="#121728"/>
<path d="M34.9741 32.3147C34.9949 32.3147 35.0153 32.321 35.0325 32.3326C35.0498 32.3443 35.0631 32.3608 35.0709 32.3801C35.0787 32.3995 35.0805 32.4206 35.0761 32.441C35.0718 32.4614 35.0614 32.4799 35.0464 32.4944C35.0314 32.5088 35.0124 32.5184 34.9919 32.522C34.9714 32.5255 34.9503 32.5229 34.9313 32.5144C34.9123 32.5058 34.8963 32.4919 34.8853 32.4742C34.8743 32.4565 34.8689 32.4359 34.8697 32.4151C34.8707 32.3881 34.8822 32.3626 34.9017 32.3438C34.9211 32.3251 34.9471 32.3147 34.9741 32.3147Z" fill="#121728"/>
<path d="M21.4448 53.7351C21.5757 53.7351 21.6818 53.629 21.6818 53.4982C21.6818 53.3673 21.5757 53.2612 21.4448 53.2612C21.314 53.2612 21.2079 53.3673 21.2079 53.4982C21.2079 53.629 21.314 53.7351 21.4448 53.7351Z" fill="#121728"/>
<path d="M53.4028 41.9526C53.5521 41.9526 53.6981 41.9969 53.8222 42.0799C53.9464 42.1628 54.0432 42.2808 54.1003 42.4187C54.1575 42.5567 54.1724 42.7085 54.1433 42.8549C54.1142 43.0014 54.0422 43.1359 53.9367 43.2415C53.8311 43.3471 53.6965 43.419 53.5501 43.4481C53.4036 43.4772 53.2518 43.4623 53.1139 43.4051C52.9759 43.348 52.858 43.2512 52.7751 43.1271C52.6921 43.0029 52.6478 42.8569 52.6478 42.7076C52.6478 42.5074 52.7274 42.3154 52.869 42.1738C53.0106 42.0322 53.2026 41.9526 53.4028 41.9526Z" fill="#121728"/>
<path d="M20.4406 73.3647C20.5995 73.3647 20.7548 73.4119 20.8868 73.5001C21.0189 73.5884 21.1219 73.7138 21.1827 73.8606C21.2435 74.0073 21.2593 74.1688 21.2284 74.3246C21.1974 74.4804 21.1209 74.6235 21.0086 74.7359C20.8962 74.8482 20.7531 74.9247 20.5973 74.9557C20.4415 74.9867 20.28 74.9707 20.1333 74.91C19.9865 74.8492 19.8611 74.7462 19.7728 74.6141C19.6845 74.4821 19.6375 74.3268 19.6375 74.1679C19.6375 73.9549 19.7221 73.7506 19.8727 73.6C20.0233 73.4494 20.2276 73.3647 20.4406 73.3647Z" fill="#121728"/>
<path d="M26.2958 59.47C26.4007 59.47 26.5032 59.5011 26.5903 59.5593C26.6775 59.6176 26.7454 59.7004 26.7856 59.7972C26.8257 59.8941 26.8362 60.0006 26.8157 60.1035C26.7953 60.2063 26.7448 60.3008 26.6707 60.3749C26.5965 60.449 26.5021 60.4995 26.3993 60.52C26.2964 60.5404 26.1899 60.5299 26.093 60.4898C25.9961 60.4497 25.9133 60.3817 25.8551 60.2946C25.7968 60.2074 25.7657 60.1049 25.7657 60.0001C25.7657 59.8595 25.8216 59.7246 25.921 59.6252C26.0204 59.5258 26.1553 59.47 26.2958 59.47Z" fill="#121728"/>
<path d="M38.5402 52.4985C38.6739 52.4978 38.8049 52.5367 38.9165 52.6106C39.028 52.6844 39.1151 52.7897 39.1667 52.9132C39.2183 53.0366 39.2319 53.1726 39.206 53.3038C39.1801 53.4351 39.1158 53.5557 39.0212 53.6503C38.9266 53.7449 38.806 53.8092 38.6748 53.8351C38.5436 53.861 38.4076 53.8473 38.2841 53.7957C38.1607 53.7442 38.0554 53.6571 37.9815 53.5455C37.9077 53.434 37.8687 53.303 37.8695 53.1692C37.8706 52.9916 37.9416 52.8217 38.0671 52.6961C38.1926 52.5706 38.3626 52.4996 38.5402 52.4985Z" fill="#121728"/>
<path d="M23.5771 57.8955C23.7923 57.8955 23.9667 57.7211 23.9667 57.506C23.9667 57.2908 23.7923 57.1165 23.5771 57.1165C23.362 57.1165 23.1876 57.2908 23.1876 57.506C23.1876 57.7211 23.362 57.8955 23.5771 57.8955Z" fill="#121728"/>
<path d="M22.5249 60.5742C22.6163 60.5742 22.7056 60.6013 22.7815 60.652C22.8575 60.7028 22.9166 60.7749 22.9516 60.8593C22.9866 60.9437 22.9957 61.0365 22.9779 61.1261C22.9601 61.2157 22.9161 61.298 22.8515 61.3626C22.7869 61.4272 22.7046 61.4712 22.615 61.489C22.5255 61.5068 22.4326 61.4977 22.3482 61.4627C22.2638 61.4278 22.1917 61.3686 22.141 61.2926C22.0902 61.2167 22.0631 61.1274 22.0631 61.0361C22.0642 60.9139 22.1132 60.797 22.1995 60.7106C22.2859 60.6243 22.4028 60.5753 22.5249 60.5742Z" fill="#121728"/>
<path d="M25.3361 52.4663C25.4153 52.4663 25.4913 52.4975 25.5477 52.5531C25.6041 52.6087 25.6362 52.6843 25.6373 52.7635C25.6363 52.843 25.6042 52.919 25.5479 52.9753C25.4917 53.0316 25.4157 53.0636 25.3361 53.0647C25.2569 53.0636 25.1814 53.0314 25.1257 52.9751C25.0701 52.9187 25.0389 52.8427 25.0389 52.7635C25.0389 52.6847 25.0702 52.6091 25.126 52.5533C25.1817 52.4976 25.2573 52.4663 25.3361 52.4663Z" fill="#121728"/>
<path d="M36.4801 38.5152C36.5231 38.5152 36.5652 38.528 36.601 38.552C36.6367 38.576 36.6645 38.6101 36.6808 38.65C36.6971 38.6899 36.7011 38.7337 36.6924 38.7758C36.6837 38.818 36.6627 38.8566 36.6319 38.8868C36.6012 38.917 36.5622 38.9373 36.5198 38.9452C36.4775 38.9531 36.4338 38.9482 36.3943 38.9312C36.3547 38.9142 36.3211 38.8858 36.2978 38.8496C36.2744 38.8134 36.2624 38.7711 36.2632 38.728C36.2632 38.6997 36.2688 38.6717 36.2798 38.6456C36.2907 38.6195 36.3068 38.5959 36.327 38.5761C36.3472 38.5563 36.3711 38.5407 36.3974 38.5302C36.4237 38.5197 36.4518 38.5146 36.4801 38.5152Z" fill="#121728"/>
<path d="M23.0109 64.2207C23.1302 64.2199 23.247 64.2546 23.3466 64.3203C23.4462 64.386 23.524 64.4798 23.5702 64.5898C23.6164 64.6998 23.6289 64.821 23.6062 64.9381C23.5834 65.0552 23.5263 65.163 23.4422 65.2476C23.3581 65.3322 23.2508 65.39 23.1339 65.4136C23.0169 65.4372 22.8956 65.4255 22.7853 65.38C22.675 65.3345 22.5807 65.2573 22.5143 65.1582C22.4479 65.059 22.4125 64.9424 22.4125 64.8231C22.4125 64.664 22.4754 64.5114 22.5875 64.3986C22.6996 64.2857 22.8518 64.2218 23.0109 64.2207Z" fill="#121728"/>
<path d="M43.2668 40.6436C43.3462 40.6436 43.4239 40.6671 43.4899 40.7112C43.556 40.7554 43.6074 40.8181 43.6378 40.8915C43.6682 40.9648 43.6762 41.0456 43.6607 41.1235C43.6452 41.2014 43.6069 41.2729 43.5508 41.3291C43.4946 41.3853 43.4231 41.4235 43.3452 41.439C43.2673 41.4545 43.1865 41.4466 43.1131 41.4162C43.0398 41.3858 42.977 41.3343 42.9329 41.2683C42.8888 41.2022 42.8652 41.1246 42.8652 41.0451C42.8652 40.9386 42.9075 40.8365 42.9828 40.7612C43.0581 40.6859 43.1603 40.6436 43.2668 40.6436Z" fill="#121728"/>
<path d="M25.5087 48.0606C25.5641 48.0606 25.6172 48.0826 25.6564 48.1217C25.6955 48.1609 25.7176 48.214 25.7176 48.2694C25.7181 48.2972 25.7131 48.3247 25.7028 48.3505C25.6926 48.3763 25.6773 48.3999 25.6578 48.4197C25.6384 48.4395 25.6152 48.4552 25.5896 48.466C25.564 48.4767 25.5365 48.4823 25.5087 48.4822C25.4523 48.4822 25.3981 48.4598 25.3582 48.4199C25.3183 48.38 25.2959 48.3258 25.2959 48.2694C25.2959 48.2416 25.3014 48.2142 25.3121 48.1886C25.3229 48.163 25.3387 48.1397 25.3585 48.1203C25.3783 48.1008 25.4018 48.0856 25.4276 48.0753C25.4534 48.0651 25.481 48.0601 25.5087 48.0606Z" fill="#121728"/>
<path d="M41.1222 52.2772C41.5059 52.2772 41.817 51.9661 41.817 51.5824C41.817 51.1987 41.5059 50.8877 41.1222 50.8877C40.7385 50.8877 40.4275 51.1987 40.4275 51.5824C40.4275 51.9661 40.7385 52.2772 41.1222 52.2772Z" fill="#121728"/>
<path d="M55.0294 40.3183C55.422 40.3183 55.7402 40.0001 55.7402 39.6075C55.7402 39.215 55.422 38.8967 55.0294 38.8967C54.6369 38.8967 54.3186 39.215 54.3186 39.6075C54.3186 40.0001 54.6369 40.3183 55.0294 40.3183Z" fill="#121728"/>
<path d="M27.1593 43.2339C27.1811 43.2304 27.2035 43.2316 27.2248 43.2375C27.2461 43.2434 27.2659 43.2539 27.2828 43.2682C27.2996 43.2826 27.3132 43.3004 27.3225 43.3205C27.3318 43.3405 27.3366 43.3624 27.3366 43.3845C27.3366 43.4067 27.3318 43.4285 27.3225 43.4486C27.3132 43.4687 27.2996 43.4865 27.2828 43.5008C27.2659 43.5152 27.2461 43.5257 27.2248 43.5316C27.2035 43.5375 27.1811 43.5387 27.1593 43.5351C27.1236 43.5293 27.0911 43.5109 27.0677 43.4833C27.0442 43.4558 27.0314 43.4207 27.0314 43.3845C27.0314 43.3483 27.0442 43.3133 27.0677 43.2857C27.0911 43.2581 27.1236 43.2398 27.1593 43.2339Z" fill="#121728"/>
<path d="M31.5285 40.5913C31.5768 40.5924 31.6227 40.6123 31.6565 40.6468C31.6903 40.6814 31.7092 40.7277 31.7092 40.776C31.7027 40.8199 31.6806 40.8599 31.6471 40.8888C31.6136 40.9177 31.5707 40.9336 31.5265 40.9336C31.4822 40.9336 31.4394 40.9177 31.4058 40.8888C31.3723 40.8599 31.3503 40.8199 31.3438 40.776C31.3438 40.7271 31.3632 40.6801 31.3978 40.6454C31.4325 40.6108 31.4795 40.5913 31.5285 40.5913Z" fill="#121728"/>
<path d="M12.2847 63.1682C12.4399 63.1682 12.5658 63.0423 12.5658 62.8871C12.5658 62.7318 12.4399 62.606 12.2847 62.606C12.1294 62.606 12.0035 62.7318 12.0035 62.8871C12.0035 63.0423 12.1294 63.1682 12.2847 63.1682Z" fill="#121728"/>
<path d="M19.8142 63.1765C19.9127 63.1765 20.009 63.2057 20.0909 63.2604C20.1728 63.3152 20.2366 63.3929 20.2743 63.4839C20.312 63.5749 20.3219 63.675 20.3026 63.7716C20.2834 63.8682 20.236 63.957 20.1664 64.0266C20.0967 64.0962 20.008 64.1437 19.9114 64.1629C19.8148 64.1821 19.7147 64.1722 19.6237 64.1345C19.5327 64.0969 19.4549 64.033 19.4002 63.9512C19.3455 63.8693 19.3163 63.773 19.3163 63.6745C19.3173 63.5428 19.3701 63.4167 19.4633 63.3235C19.5565 63.2304 19.6825 63.1776 19.8142 63.1765Z" fill="#121728"/>
<path d="M41.9456 33.8044C42.0035 33.8055 42.0586 33.8292 42.0992 33.8705C42.1397 33.9118 42.1625 33.9674 42.1625 34.0253C42.1553 34.0783 42.1291 34.1268 42.0889 34.162C42.0486 34.1971 41.997 34.2165 41.9436 34.2165C41.8902 34.2165 41.8386 34.1971 41.7983 34.162C41.7581 34.1268 41.7319 34.0783 41.7247 34.0253C41.7247 33.9667 41.748 33.9105 41.7894 33.8691C41.8308 33.8277 41.887 33.8044 41.9456 33.8044Z" fill="#121728"/>
<path d="M48.9933 37.1899C49.0846 37.1899 49.1739 37.217 49.2499 37.2678C49.3258 37.3185 49.385 37.3906 49.42 37.475C49.4549 37.5594 49.4641 37.6523 49.4463 37.7419C49.4284 37.8314 49.3844 37.9137 49.3199 37.9783C49.2553 38.0429 49.173 38.0869 49.0834 38.1047C48.9938 38.1225 48.901 38.1134 48.8166 38.0784C48.7322 38.0435 48.6601 37.9843 48.6093 37.9083C48.5586 37.8324 48.5315 37.7431 48.5315 37.6517C48.5315 37.5293 48.5801 37.4118 48.6667 37.3252C48.7534 37.2386 48.8708 37.1899 48.9933 37.1899Z" fill="#121728"/>
<path d="M40.7489 47.7877C40.8625 47.7838 40.9748 47.8137 41.0714 47.8736C41.1681 47.9336 41.2448 48.0209 41.2917 48.1244C41.3387 48.228 41.3539 48.3432 41.3353 48.4554C41.3167 48.5676 41.2652 48.6717 41.1874 48.7546C41.1096 48.8376 41.0089 48.8955 40.8981 48.9211C40.7873 48.9467 40.6713 48.9389 40.565 48.8985C40.4587 48.8582 40.3667 48.7872 40.3008 48.6945C40.2349 48.6019 40.1979 48.4917 40.1947 48.378C40.1904 48.2264 40.2462 48.0792 40.35 47.9686C40.4539 47.858 40.5973 47.7929 40.7489 47.7877Z" fill="#121728"/>
<path d="M22.7379 70.6379C22.8967 70.6379 23.052 70.6851 23.1841 70.7733C23.3161 70.8616 23.4191 70.987 23.4799 71.1337C23.5407 71.2805 23.5566 71.442 23.5256 71.5978C23.4946 71.7536 23.4181 71.8967 23.3058 72.0091C23.1935 72.1214 23.0503 72.1978 22.8945 72.2288C22.7387 72.2598 22.5773 72.2439 22.4305 72.1832C22.2837 72.1224 22.1583 72.0194 22.07 71.8873C21.9818 71.7552 21.9347 71.6 21.9347 71.4411C21.9347 71.2281 22.0193 71.0238 22.1699 70.8732C22.3205 70.7226 22.5248 70.6379 22.7379 70.6379Z" fill="#121728"/>
<path d="M60.4186 16.0223C60.5228 16.0223 60.6073 15.9378 60.6073 15.8335C60.6073 15.7293 60.5228 15.6448 60.4186 15.6448C60.3144 15.6448 60.2299 15.7293 60.2299 15.8335C60.2299 15.9378 60.3144 16.0223 60.4186 16.0223Z" fill="#121728"/>
<path d="M60.9326 25.1304C61.1478 25.1304 61.3222 24.956 61.3222 24.7409C61.3222 24.5257 61.1478 24.3513 60.9326 24.3513C60.7175 24.3513 60.5431 24.5257 60.5431 24.7409C60.5431 24.956 60.7175 25.1304 60.9326 25.1304Z" fill="#121728"/>
<path d="M58.748 33.3184C58.8745 33.3184 58.9981 33.3559 59.1032 33.4263C59.2083 33.4966 59.2901 33.5966 59.3383 33.7135C59.3865 33.8304 59.3989 33.959 59.374 34.0829C59.349 34.2069 59.2878 34.3207 59.1981 34.4098C59.1084 34.499 58.9943 34.5594 58.8701 34.5836C58.746 34.6078 58.6175 34.5946 58.5009 34.5457C58.3843 34.4967 58.2849 34.4142 58.2152 34.3087C58.1455 34.2032 58.1087 34.0793 58.1095 33.9529C58.1095 33.8692 58.1261 33.7864 58.1582 33.7091C58.1903 33.6319 58.2374 33.5618 58.2968 33.5028C58.3561 33.4438 58.4265 33.3972 58.504 33.3655C58.5814 33.3339 58.6644 33.3178 58.748 33.3184Z" fill="#121728"/>
<path d="M28.1753 36.4751C28.2219 36.4751 28.2596 36.4373 28.2596 36.3907C28.2596 36.3442 28.2219 36.3064 28.1753 36.3064C28.1287 36.3064 28.0909 36.3442 28.0909 36.3907C28.0909 36.4373 28.1287 36.4751 28.1753 36.4751Z" fill="#121728"/>
<path d="M44.0741 50.9163C44.4844 50.9163 44.817 50.5837 44.817 50.1733C44.817 49.763 44.4844 49.4304 44.0741 49.4304C43.6638 49.4304 43.3312 49.763 43.3312 50.1733C43.3312 50.5837 43.6638 50.9163 44.0741 50.9163Z" fill="#121728"/>
<path d="M40.9096 38.0655C41.0582 38.0655 41.1786 37.945 41.1786 37.7964C41.1786 37.6478 41.0582 37.5273 40.9096 37.5273C40.761 37.5273 40.6405 37.6478 40.6405 37.7964C40.6405 37.945 40.761 38.0655 40.9096 38.0655Z" fill="#121728"/>
<path d="M46.4072 42.9846C46.5209 42.9838 46.6323 43.0168 46.7273 43.0795C46.8223 43.1421 46.8965 43.2315 46.9406 43.3363C46.9847 43.4412 46.9966 43.5568 46.9749 43.6685C46.9532 43.7801 46.8988 43.8828 46.8187 43.9635C46.7385 44.0442 46.6362 44.0993 46.5247 44.1218C46.4132 44.1443 46.2975 44.1332 46.1924 44.0898C46.0872 44.0465 45.9973 43.9729 45.934 43.8783C45.8707 43.7838 45.8369 43.6726 45.8369 43.5589C45.8369 43.4073 45.8969 43.2618 46.0037 43.1542C46.1105 43.0467 46.2556 42.9857 46.4072 42.9846Z" fill="#121728"/>
<path d="M52.0536 22.2468C52.0983 22.2468 52.1412 22.2646 52.1728 22.2962C52.2044 22.3279 52.2222 22.3708 52.2222 22.4155C52.2222 22.4602 52.2044 22.5031 52.1728 22.5348C52.1412 22.5664 52.0983 22.5842 52.0536 22.5842C52.0088 22.5842 51.9659 22.5664 51.9343 22.5348C51.9027 22.5031 51.8849 22.4602 51.8849 22.4155C51.8849 22.3708 51.9027 22.3279 51.9343 22.2962C51.9659 22.2646 52.0088 22.2468 52.0536 22.2468Z" fill="#121728"/>
<path d="M56.8243 20.0986C56.8776 20.0986 56.9287 20.1198 56.9663 20.1574C57.004 20.1951 57.0251 20.2462 57.0251 20.2994C57.0251 20.3527 57.004 20.4037 56.9663 20.4414C56.9287 20.479 56.8776 20.5002 56.8243 20.5002C56.7711 20.5002 56.72 20.479 56.6824 20.4414C56.6447 20.4037 56.6235 20.3527 56.6235 20.2994C56.6235 20.2462 56.6447 20.1951 56.6824 20.1574C56.72 20.1198 56.7711 20.0986 56.8243 20.0986Z" fill="#121728"/>
<path d="M39.1949 29.355C39.2547 29.355 39.3033 29.3065 39.3033 29.2466C39.3033 29.1867 39.2547 29.1382 39.1949 29.1382C39.135 29.1382 39.0864 29.1867 39.0864 29.2466C39.0864 29.3065 39.135 29.355 39.1949 29.355Z" fill="#121728"/>
<path d="M45.6724 38.3786C45.8897 38.3786 46.0659 38.2025 46.0659 37.9851C46.0659 37.7677 45.8897 37.5916 45.6724 37.5916C45.455 37.5916 45.2788 37.7677 45.2788 37.9851C45.2788 38.2025 45.455 38.3786 45.6724 38.3786Z" fill="#121728"/>
<path d="M51.2582 40.1975C51.3797 40.1975 51.4985 40.2336 51.5996 40.3011C51.7006 40.3686 51.7794 40.4646 51.8259 40.5768C51.8724 40.6891 51.8846 40.8126 51.8608 40.9318C51.8371 41.051 51.7786 41.1605 51.6927 41.2464C51.6068 41.3323 51.4973 41.3909 51.3781 41.4146C51.2589 41.4383 51.1354 41.4261 51.0231 41.3796C50.9108 41.3331 50.8149 41.2543 50.7473 41.1533C50.6798 41.0523 50.6438 40.9335 50.6438 40.8119C50.6433 40.7311 50.6588 40.651 50.6895 40.5762C50.7202 40.5014 50.7654 40.4334 50.8226 40.3763C50.8797 40.3191 50.9477 40.2739 51.0225 40.2432C51.0973 40.2125 51.1774 40.197 51.2582 40.1975Z" fill="#121728"/>
<path d="M49.881 30.3506C49.9602 30.3516 50.0358 30.3839 50.0914 30.4402C50.147 30.4966 50.1782 30.5726 50.1782 30.6518C50.1782 30.7306 50.1469 30.8062 50.0912 30.8619C50.0354 30.9176 49.9598 30.9489 49.881 30.9489C49.8018 30.949 49.7258 30.9178 49.6695 30.8622C49.6131 30.8065 49.5809 30.731 49.5798 30.6518C49.5809 30.5722 49.6129 30.4962 49.6692 30.44C49.7255 30.3837 49.8015 30.3516 49.881 30.3506Z" fill="#121728"/>
<path d="M49.3992 26.3794C49.4399 26.3794 49.4796 26.3915 49.5134 26.4142C49.5471 26.4369 49.5734 26.4691 49.5888 26.5068C49.6042 26.5445 49.608 26.5858 49.5997 26.6257C49.5915 26.6655 49.5716 26.702 49.5425 26.7305C49.5135 26.7589 49.4766 26.7781 49.4366 26.7856C49.3967 26.793 49.3553 26.7884 49.318 26.7723C49.2806 26.7561 49.2489 26.7293 49.2269 26.6951C49.2049 26.6609 49.1936 26.6209 49.1944 26.5802C49.1954 26.5266 49.2175 26.4755 49.2558 26.438C49.2941 26.4004 49.3456 26.3794 49.3992 26.3794Z" fill="#121728"/>
<path d="M22.2921 67.907C22.4358 67.907 22.5764 67.9496 22.6959 68.0295C22.8154 68.1094 22.9086 68.2229 22.9636 68.3557C23.0186 68.4885 23.033 68.6346 23.005 68.7756C22.9769 68.9166 22.9077 69.0462 22.806 69.1478C22.7044 69.2495 22.5749 69.3187 22.4339 69.3467C22.2929 69.3748 22.1467 69.3604 22.0139 69.3054C21.8811 69.2504 21.7676 69.1572 21.6877 69.0377C21.6078 68.9181 21.5652 68.7776 21.5652 68.6339C21.5652 68.4411 21.6418 68.2562 21.7781 68.1199C21.9144 67.9836 22.0993 67.907 22.2921 67.907Z" fill="#121728"/>
<path d="M55.8929 24.3875C55.9625 24.3885 56.0288 24.4169 56.0777 24.4665C56.1265 24.5161 56.1539 24.5829 56.1539 24.6525C56.1539 24.6868 56.1472 24.7207 56.134 24.7524C56.1209 24.7841 56.1017 24.8128 56.0774 24.8371C56.0532 24.8613 56.0244 24.8805 55.9928 24.8936C55.9611 24.9068 55.9272 24.9135 55.8929 24.9135C55.8586 24.9135 55.8246 24.9068 55.793 24.8936C55.7613 24.8805 55.7325 24.8613 55.7083 24.8371C55.684 24.8128 55.6648 24.7841 55.6517 24.7524C55.6386 24.7207 55.6318 24.6868 55.6318 24.6525C55.6318 24.5829 55.6592 24.5161 55.708 24.4665C55.7569 24.4169 55.8233 24.3885 55.8929 24.3875Z" fill="#121728"/>
<path d="M57.463 5.81017C54.4511 4.1717 50.3388 4.46485 45.817 7.07917L23.3282 20.0705C14.0917 25.4075 6.58611 38.3868 6.58611 49.0609V53.5988C6.58611 58.8194 8.36915 62.498 11.2646 64.3011L5.44963 60.9438C2.41766 59.1969 0.546265 55.4461 0.546265 50.101V45.5671C0.546265 34.893 8.03986 21.9137 17.2843 16.5727L38.2953 4.44477L39.7811 3.5854C40.3722 3.24073 40.9807 2.92706 41.6044 2.64568C45.4957 0.886733 48.9895 0.898777 51.6119 2.41677L57.463 5.81017Z" fill="white"/>
<path d="M47.5235 27.9575C47.4749 28.8128 47.2261 29.6446 46.7971 30.3861C46.3681 31.1276 45.771 31.7579 45.0538 32.2264C43.6924 33.0295 42.592 32.3749 42.592 30.8007C42.6376 29.9457 42.8842 29.1134 43.312 28.3717C43.7398 27.6299 44.3365 26.9995 45.0538 26.5319C46.4151 25.7448 47.5235 26.3833 47.5235 27.9575Z" fill="#121728"/>
<path d="M21.8262 64.0398C21.8262 67.7183 20.8383 72.3928 19.1035 76.3042L13.0797 72.8144C14.0987 70.4776 14.8426 68.0302 15.2965 65.5216C17.2682 65.618 19.473 65.1361 21.8262 64.0398Z" fill="white"/>
<path d="M19.1034 76.7943C18.9906 76.7935 18.881 76.757 18.7902 76.6899C18.6998 76.6192 18.6357 76.5203 18.6081 76.409C18.5804 76.2976 18.5908 76.1803 18.6376 76.0755C20.1974 72.5191 21.0995 68.7094 21.3001 64.8311C19.4101 65.6863 17.3498 66.0983 15.2763 66.0359C13.8464 65.9768 12.4515 65.5761 11.2083 64.8673C11.1704 64.8448 11.1353 64.8178 11.1038 64.7869C11.056 64.7727 11.0101 64.7525 10.9673 64.7267C7.78675 62.7469 6.05994 58.7913 6.05994 53.5988V49.0609C6.05994 38.2422 13.6901 25.038 23.059 19.6247L45.5478 6.63738C50.0817 4.01905 54.3827 3.56526 57.6998 5.36034C60.5952 6.93456 62.4506 10.1513 62.9204 14.4241C63.0039 15.1964 63.0454 15.9726 63.0449 16.7493V21.2712C63.0449 25.287 62.0168 29.7044 60.0691 34.1219C56.9006 41.2781 51.66 47.4867 46.0498 50.7234L29.7053 60.1607C28.6973 66.7668 23.8421 73.2122 19.4327 76.706C19.3356 76.7706 19.2199 76.8017 19.1034 76.7943ZM21.8262 63.5059C21.9217 63.5065 22.015 63.5344 22.0952 63.5862C22.1684 63.6316 22.2289 63.6949 22.271 63.77C22.3132 63.8452 22.3356 63.9298 22.3362 64.0159C22.2696 67.6036 21.6017 71.1546 20.3604 74.5214C24.1835 70.9432 27.9423 65.3853 28.7214 59.7511C28.7317 59.6739 28.7594 59.6002 28.8026 59.5355C28.8458 59.4707 28.9031 59.4167 28.9704 59.3776L45.5317 49.8199C50.9612 46.6835 56.0413 40.6557 59.1254 33.6882C61.0169 29.4193 62.0128 25.1224 62.0128 21.2712V16.7493C62.0141 16.0115 61.9752 15.2742 61.8964 14.5406C61.4586 10.6091 59.788 7.66544 57.1978 6.25989C54.2181 4.65355 50.2584 5.09129 46.0418 7.5249L23.553 20.5122C14.4651 25.7609 7.08799 38.5835 7.08799 49.0609V53.5988C7.08799 58.4178 8.6622 62.0843 11.5255 63.8673C11.5589 63.8879 11.5899 63.9121 11.6179 63.9396C11.6583 63.9515 11.6973 63.9676 11.7343 63.9878C12.8383 64.6182 14.0783 64.9723 15.3486 65.0199C17.2963 65.1203 19.4046 64.6183 21.6334 63.5701C21.6922 63.5349 21.758 63.513 21.8262 63.5059Z" fill="#121728"/>
<path d="M22.9265 45.2093C22.611 45.2113 22.3006 45.1296 22.027 44.9724C21.3965 44.607 21.0511 43.8841 21.0511 42.9364C21.0959 41.9908 21.3664 41.0697 21.8401 40.2502C22.3138 39.4307 22.9769 38.7365 23.7739 38.2258C24.5771 37.7479 25.3802 37.6877 26.0268 38.0491C26.6733 38.4105 27.0066 39.1374 27.0066 40.0891C26.9614 41.0356 26.6903 41.9574 26.2159 42.7776C25.7416 43.5978 25.0777 44.2926 24.2799 44.8037C23.872 45.055 23.4054 45.1948 22.9265 45.2093ZM25.1312 38.8402C24.8317 38.8558 24.5412 38.9485 24.2879 39.1092C23.6485 39.5328 23.1159 40.0988 22.732 40.7629C22.348 41.4269 22.1232 42.1709 22.0752 42.9364C22.0122 43.1528 22.0237 43.3842 22.1077 43.5934C22.1917 43.8026 22.3433 43.9776 22.5385 44.0904C22.7337 44.2033 22.9611 44.2474 23.1843 44.2159C23.4075 44.1843 23.6137 44.0788 23.7699 43.9162C24.4097 43.4931 24.9427 42.9272 25.3266 42.2631C25.7106 41.599 25.9352 40.8548 25.9826 40.0891C26.0091 39.8729 25.9798 39.6535 25.8976 39.4517C25.8154 39.25 25.6829 39.0726 25.5128 38.9366C25.3955 38.8698 25.2621 38.8365 25.1272 38.8402H25.1312Z" fill="#121728"/>
<path d="M33.436 39.1417C33.1217 39.1438 32.8126 39.062 32.5404 38.9048C31.9099 38.5433 31.5646 37.8205 31.5646 36.8687C31.6095 35.9237 31.8797 35.0031 32.3526 34.1837C32.8255 33.3643 33.4875 32.6698 34.2833 32.1581C35.1066 31.6802 35.8897 31.62 36.5402 31.9854C37.1908 32.3509 37.5161 33.0738 37.5161 34.0255C37.4723 34.9718 37.2022 35.8938 36.7284 36.7142C36.2547 37.5345 35.5911 38.2293 34.7933 38.7401C34.3836 38.9901 33.9157 39.1285 33.436 39.1417ZM35.6407 32.7766C35.3402 32.791 35.0485 32.8823 34.7933 33.0416C34.1558 33.4665 33.6251 34.033 33.2426 34.6969C32.8602 35.3608 32.6364 36.1041 32.5886 36.8687C32.5257 37.0852 32.5371 37.3165 32.6211 37.5257C32.7051 37.7349 32.8568 37.91 33.052 38.0228C33.2471 38.1357 33.4745 38.1798 33.6977 38.1482C33.9209 38.1167 34.1271 38.0112 34.2833 37.8486C34.922 37.4252 35.4541 36.8598 35.838 36.1965C36.2219 35.5333 36.4471 34.7903 36.496 34.0255C36.5225 33.8087 36.4932 33.5887 36.411 33.3863C36.3288 33.184 36.1963 33.0059 36.0262 32.8689C35.9083 32.8042 35.7751 32.7723 35.6407 32.7766Z" fill="#121728"/>
<path d="M19.1034 76.7942C19.0144 76.7949 18.927 76.7713 18.8504 76.726L12.8266 73.2402C12.7168 73.1775 12.6342 73.0762 12.5949 72.9559C12.5555 72.8357 12.5623 72.7052 12.6138 72.5896C13.6187 70.2983 14.3545 67.8982 14.8064 65.4374C14.8225 65.3073 14.8879 65.1884 14.9893 65.1053C15.0907 65.0222 15.2201 64.9814 15.3508 64.9912C15.4815 65.001 15.6034 65.0607 15.6912 65.158C15.7791 65.2553 15.826 65.3827 15.8225 65.5137C15.8244 65.5471 15.8244 65.5807 15.8225 65.6141C15.3813 68.005 14.6824 70.3412 13.7382 72.5816L19.3845 75.8425C19.5018 75.9105 19.5874 76.0221 19.6227 76.153C19.6581 76.2839 19.6403 76.4234 19.5733 76.5412C19.525 76.6218 19.4558 76.6878 19.3731 76.7323C19.2904 76.7768 19.1972 76.7982 19.1034 76.7942Z" fill="#121728"/>
<path d="M11.4572 64.9314C11.3666 64.9311 11.2777 64.9062 11.2002 64.8591L10.9753 64.7306L5.16037 61.3734C1.83525 59.4538 0 55.45 0 50.1009V45.567C0 34.7483 7.63012 21.5441 16.9991 16.1308L39.4879 3.14349C40.0945 2.78996 40.7192 2.46827 41.3593 2.1797C45.2828 0.408704 48.9894 0.336415 51.8326 1.97488L57.8564 5.45662C57.9741 5.52425 58.0601 5.63586 58.0955 5.7669C58.1309 5.89795 58.1128 6.03768 58.0451 6.15538C57.9775 6.27307 57.8659 6.35908 57.7349 6.39448C57.6038 6.42987 57.4641 6.41177 57.3464 6.34413L51.3226 2.85838C48.7886 1.39259 45.4153 1.48896 41.801 3.11939C41.2187 3.38444 40.6204 3.68965 40.022 4.03502L38.5401 4.89439L17.5292 17.0263C8.43731 22.275 1.04412 35.0976 1.04412 45.575V50.1009C1.04412 55.0685 2.69463 58.759 5.69046 60.4899L11.7343 63.9756C11.8307 64.033 11.9056 64.1202 11.9478 64.224C11.99 64.3279 11.997 64.4426 11.9679 64.5509C11.9388 64.6591 11.8751 64.7549 11.7866 64.8236C11.698 64.8923 11.5894 64.9301 11.4773 64.9314H11.4572Z" fill="#121728"/>
<path d="M37.0062 34.0256C36.9592 34.8808 36.7116 35.7129 36.2832 36.4546C35.8548 37.1962 35.2578 37.8265 34.5404 38.2945C33.175 39.0976 32.0747 38.4431 32.0747 36.8688C32.1219 36.0137 32.3697 35.1817 32.7981 34.4401C33.2264 33.6985 33.8233 33.0682 34.5404 32.6C35.9018 31.8129 37.0062 32.4514 37.0062 34.0256Z" fill="#121728"/>
<path d="M26.4886 40.0893C26.4423 40.9452 26.1949 41.7781 25.7665 42.5205C25.3381 43.2629 24.7407 43.8939 24.0229 44.3622C22.6615 45.1413 21.5612 44.5028 21.5612 42.9366C21.6074 42.0812 21.8549 41.2489 22.2833 40.5071C22.7117 39.7654 23.3091 39.1352 24.0269 38.6677C25.3843 37.8806 26.4886 38.5191 26.4886 40.0893Z" fill="#121728"/>
<path d="M43.9534 33.0776C43.6392 33.0791 43.3302 32.9973 43.0579 32.8407C42.4274 32.4792 42.082 31.7524 42.082 30.8006C42.126 29.8553 42.3958 28.9344 42.8688 28.1148C43.3418 27.2953 44.0043 26.6009 44.8007 26.09C45.6039 25.6121 46.4071 25.5519 47.0537 25.9173C47.7002 26.2828 48.0335 27.0056 48.0335 27.9574C47.9872 28.9026 47.7159 29.823 47.2424 30.6423C46.7688 31.4616 46.1066 32.156 45.3108 32.668C44.9023 32.9216 44.434 33.063 43.9534 33.0776ZM46.1581 26.6924C45.8575 26.7063 45.5657 26.7976 45.3108 26.9574C44.6723 27.3817 44.1406 27.9479 43.7575 28.6119C43.3743 29.2758 43.15 30.0195 43.102 30.7845C43.0399 31.0013 43.052 31.2327 43.1364 31.4418C43.2208 31.6509 43.3726 31.8259 43.5677 31.939C43.7629 32.052 43.9902 32.0966 44.2135 32.0657C44.4369 32.0348 44.6436 31.9302 44.8007 31.7684C45.4385 31.3424 45.9695 30.7752 46.3525 30.1108C46.7356 29.4464 46.9604 28.7026 47.0095 27.9373C47.036 27.7214 47.0072 27.5024 46.9257 27.3007C46.8442 27.0991 46.7127 26.9215 46.5436 26.7847C46.4257 26.72 46.2926 26.6881 46.1581 26.6924Z" fill="#121728"/>
</svg>
