<svg width="35" height="54" viewBox="0 0 35 54" fill="none" xmlns="http://www.w3.org/2000/svg">
<path d="M34.4434 26.1019V31.1338L27.1736 35.3295L23.8878 37.2266V37.2285L21.9926 38.3207V33.2906L23.8878 32.1966L27.1736 30.2976L34.4434 26.1019Z" fill="white"/>
<path d="M27.1736 30.2977L23.8878 32.1966V16.3992C23.8878 14.8299 22.9337 13.0083 21.7568 12.3287L4.53005 2.38276C4.01065 2.08254 3.53362 2.05491 3.16525 2.25199L6.42347 0.375155C6.79184 0.161502 7.2836 0.181761 7.81773 0.489348L25.0426 10.4353C26.2196 11.1149 27.1736 12.9383 27.1736 14.5076V30.2977Z" fill="#005BF2"/>
<path d="M27.1737 35.3296V49.9096C27.1737 50.7679 26.8882 51.372 26.4369 51.6317L23.1511 53.5306C23.6023 53.2691 23.8878 52.6631 23.8878 51.8067V37.2285L27.1737 35.3296Z" fill="#005BF2"/>
<path d="M13.2937 32.0658C15.211 28.9347 16.6661 23.9617 16.6661 19.8507L5.24667 13.1262C5.24667 16.1376 4.02553 20.1546 2.40656 23.5749V3.99432C2.40656 3.11945 2.70308 2.50612 3.17091 2.25379C3.53928 2.05671 4.01632 2.08433 4.53572 2.38455L21.7625 12.3305C22.9394 13.0101 23.8934 14.8317 23.8934 16.401V32.1984L21.9982 33.2925L17.762 35.7347V40.7648L21.9982 38.3225L23.8934 37.2303V48.9426L2.40656 36.5341V28.71L11.6489 34.1544C12.2891 33.5358 12.8424 32.8332 13.2937 32.0658Z" fill="white"/>
<path d="M21.9925 38.3207L17.7636 40.763V35.7329L21.9925 33.2906V38.3207Z" fill="#FAD657"/>
<path d="M2.40086 23.5823C4.01984 20.162 5.24098 16.145 5.24098 13.1335L16.6604 19.8581C16.6604 23.9709 15.2053 28.9439 13.288 32.0732C12.8379 32.8377 12.2865 33.5378 11.6487 34.1545L2.40271 28.71L0.22934 27.4299C1.05246 26.206 1.77851 24.9195 2.40086 23.5823Z" fill="#005BF2"/>
<path d="M13.1444 44.6383C13.3839 44.795 13.5833 45.0058 13.7263 45.2538C13.8693 45.5017 13.952 45.7799 13.9677 46.0657C13.9677 46.5906 13.5993 46.8024 13.1444 46.539C12.9041 46.3834 12.7041 46.1731 12.5607 45.9253C12.4173 45.6775 12.3345 45.3993 12.3192 45.1135C12.3192 44.5885 12.6876 44.3767 13.1444 44.6383Z" fill="white"/>
<path d="M22.6041 53.9045C22.2639 53.8951 21.9322 53.7959 21.6426 53.6172L4.41404 43.6712C3.17633 42.9584 2.17068 41.0429 2.17068 39.4037V28.71C2.17068 28.6489 2.19495 28.5903 2.23812 28.5472C2.2813 28.504 2.33985 28.4797 2.40091 28.4797C2.46198 28.4797 2.52054 28.504 2.56372 28.5472C2.60689 28.5903 2.63114 28.6489 2.63114 28.71V39.4018C2.63114 40.8956 3.53364 42.6306 4.64427 43.2697L21.8728 53.2156C22.3112 53.4698 22.7238 53.5103 23.035 53.3298C23.431 53.1014 23.6576 52.5452 23.6576 51.8048V37.2285C23.6576 37.1674 23.6819 37.1089 23.725 37.0657C23.7682 37.0225 23.8267 36.9982 23.8878 36.9982C23.9489 36.9982 24.0074 37.0225 24.0506 37.0657C24.0938 37.1089 24.118 37.1674 24.118 37.2285V51.8066C24.118 52.7165 23.8086 53.4164 23.2671 53.7295C23.0659 53.8466 22.8368 53.9071 22.6041 53.9045Z" fill="#121728"/>
<path d="M23.8878 32.4231C23.8267 32.4231 23.7682 32.3989 23.725 32.3557C23.6819 32.3125 23.6576 32.2539 23.6576 32.1929V16.3991C23.6576 14.9072 22.7532 13.1685 21.6426 12.5312L4.41404 2.58531C3.98674 2.33851 3.58154 2.2943 3.27396 2.46007C2.86507 2.67925 2.63114 3.23917 2.63114 3.99616V23.5823C2.63115 23.6435 2.60695 23.7023 2.56383 23.7457C2.52071 23.7892 2.46214 23.8139 2.40091 23.8144C2.37077 23.8146 2.34087 23.8089 2.31295 23.7975C2.28503 23.7861 2.25964 23.7693 2.23824 23.7481C2.21683 23.7269 2.19984 23.7016 2.18824 23.6738C2.17665 23.646 2.17068 23.6161 2.17068 23.586V3.99432C2.17068 3.06235 2.49301 2.35508 3.05661 2.05118C3.5097 1.80806 4.07515 1.8541 4.64427 2.18379L21.8728 12.1297C23.1106 12.8444 24.118 14.7599 24.118 16.3991V32.1966C24.1171 32.257 24.0924 32.3146 24.0493 32.357C24.0063 32.3994 23.9482 32.4231 23.8878 32.4231Z" fill="#121728"/>
<path d="M23.8879 49.171C23.8478 49.1704 23.8085 49.1596 23.7737 49.1397L2.28493 36.7331C2.23193 36.7025 2.19324 36.6522 2.17735 36.5931C2.16146 36.5341 2.16969 36.4711 2.20022 36.4181C2.23075 36.3651 2.28108 36.3264 2.34014 36.3105C2.39921 36.2946 2.46216 36.3029 2.51516 36.3334L24.0039 48.7419C24.0565 48.7723 24.0949 48.8223 24.1108 48.881C24.1267 48.9396 24.1187 49.0022 24.0886 49.055C24.068 49.09 24.0387 49.1191 24.0035 49.1394C23.9683 49.1597 23.9285 49.1706 23.8879 49.171Z" fill="#121728"/>
<path d="M13.5147 46.8815C13.3431 46.877 13.1756 46.8281 13.0285 46.7397C12.7535 46.5632 12.5248 46.3235 12.3614 46.0405C12.198 45.7576 12.1046 45.4397 12.0891 45.1134C12.0733 44.971 12.0994 44.8271 12.1641 44.6993C12.2288 44.5715 12.3294 44.4654 12.4535 44.3938C12.5776 44.3223 12.7198 44.2885 12.8628 44.2966C13.0059 44.3046 13.1434 44.3542 13.2587 44.4392C13.5336 44.6158 13.7624 44.8555 13.9258 45.1384C14.0892 45.4213 14.1825 45.7392 14.198 46.0656C14.211 46.2093 14.1846 46.3538 14.1217 46.4836C14.0587 46.6134 13.9616 46.7236 13.8407 46.8023C13.7411 46.8574 13.6285 46.8847 13.5147 46.8815ZM12.778 44.756C12.7427 44.755 12.7077 44.7632 12.6767 44.78C12.6293 44.8204 12.593 44.8722 12.5711 44.9305C12.5492 44.9888 12.5424 45.0517 12.5514 45.1134C12.567 45.3587 12.6391 45.5971 12.7621 45.8099C12.8851 46.0227 13.0557 46.2041 13.2605 46.34C13.3094 46.3788 13.3673 46.4046 13.4288 46.4149C13.4903 46.4252 13.5535 46.4197 13.6123 46.399C13.66 46.3587 13.6967 46.307 13.7189 46.2487C13.7411 46.1904 13.7482 46.1274 13.7394 46.0656C13.724 45.82 13.6519 45.5813 13.5289 45.3682C13.4059 45.155 13.2352 44.9733 13.0303 44.8371C12.9531 44.7916 12.8657 44.7663 12.7761 44.7634L12.778 44.756Z" fill="#121728"/>
<path d="M27.1738 30.5279C27.1127 30.5279 27.0542 30.5036 27.011 30.4605C26.9678 30.4173 26.9436 30.3587 26.9436 30.2977V14.5039C26.9436 13.0102 26.0392 11.2733 24.9286 10.636L7.70184 0.690105C7.25795 0.435931 6.8546 0.395413 6.5378 0.577755L3.24459 2.47853C3.21787 2.49475 3.18811 2.50536 3.15716 2.5097C3.1262 2.51405 3.09467 2.51204 3.06451 2.50381C3.03435 2.49557 3.0062 2.48128 2.98174 2.46181C2.95728 2.44233 2.93705 2.41808 2.92227 2.39053C2.90749 2.36298 2.89848 2.3327 2.89579 2.30156C2.89309 2.27041 2.89677 2.23904 2.90659 2.20936C2.91641 2.17968 2.93218 2.15232 2.95293 2.12893C2.97367 2.10554 2.99896 2.08662 3.02726 2.07333L3.05672 2.05675L6.30757 0.172548C6.76803 -0.0908349 7.34452 -0.0521533 7.93207 0.284903L25.1588 10.2308C26.3965 10.9455 27.404 12.861 27.404 14.5021V30.2958C27.4043 30.3262 27.3985 30.3564 27.387 30.3845C27.3756 30.4127 27.3586 30.4382 27.3372 30.4598C27.3158 30.4814 27.2903 30.4985 27.2623 30.5102C27.2342 30.5219 27.2042 30.5279 27.1738 30.5279Z" fill="#121728"/>
<path d="M23.1512 53.7609C23.1108 53.7607 23.0711 53.7499 23.0362 53.7295C23.0013 53.7092 22.9723 53.6799 22.9523 53.6448C22.9372 53.6188 22.9274 53.5899 22.9234 53.56C22.9195 53.5301 22.9215 53.4998 22.9294 53.4706C22.9373 53.4415 22.9509 53.4143 22.9693 53.3904C22.9878 53.3666 23.0108 53.3466 23.037 53.3317L26.321 51.4328C26.717 51.2044 26.9436 50.65 26.9436 49.9096V35.3296C26.9436 35.2685 26.9678 35.21 27.011 35.1668C27.0542 35.1236 27.1127 35.0994 27.1738 35.0994C27.2349 35.0994 27.2934 35.1236 27.3366 35.1668C27.3798 35.21 27.404 35.2685 27.404 35.3296V49.9096C27.404 50.8195 27.0946 51.5194 26.5513 51.8306L23.2672 53.7296C23.2318 53.7496 23.1919 53.7603 23.1512 53.7609Z" fill="#121728"/>
<path d="M11.6488 34.3847C11.608 34.3855 11.5677 34.3746 11.5328 34.3534L0.113402 27.627C0.0860807 27.6115 0.0624043 27.5903 0.0439736 27.5649C0.0255429 27.5395 0.0127851 27.5104 0.00657251 27.4796C-0.00119944 27.4482 -0.0020866 27.4155 0.00395319 27.3837C0.00999298 27.3519 0.0228177 27.3218 0.0415679 27.2955C0.859467 26.079 1.58121 24.8006 2.20021 23.4718C3.96469 19.7458 5.01822 15.8779 5.01822 13.1225C5.01802 13.0817 5.02865 13.0416 5.04904 13.0063C5.06942 12.971 5.09882 12.9417 5.13423 12.9214C5.16964 12.9012 5.20978 12.8907 5.25057 12.8911C5.29135 12.8915 5.3313 12.9027 5.36633 12.9236L16.7857 19.6481C16.8203 19.6687 16.8489 19.6978 16.8689 19.7326C16.8889 19.7675 16.8996 19.8069 16.8999 19.8471C16.8999 23.8365 15.4983 28.9089 13.4944 32.1874C13.0313 32.9732 12.4637 33.6925 11.8072 34.3258C11.7638 34.3648 11.7072 34.3858 11.6488 34.3847ZM0.553605 27.3562L11.6157 33.869C12.1872 33.2904 12.6858 32.644 13.1002 31.9443C15.0434 28.7745 16.4155 23.8752 16.4358 19.9815L5.4658 13.524C5.37371 16.3107 4.32016 20.0644 2.61094 23.6726C2.01484 24.9488 1.32663 26.1799 0.551761 27.3562H0.553605Z" fill="#121728"/>
<path d="M14.2918 21.5084C14.2508 21.5082 14.2107 21.4967 14.1758 21.4752L6.97237 17.239C6.91961 17.208 6.88135 17.1573 6.86598 17.098C6.85061 17.0388 6.8594 16.9759 6.89042 16.9231C6.92144 16.8704 6.97213 16.8321 7.03137 16.8167C7.0906 16.8014 7.15353 16.8101 7.20629 16.8412L14.4079 21.0774C14.4516 21.1029 14.4857 21.1421 14.5049 21.1889C14.5242 21.2357 14.5274 21.2876 14.5142 21.3364C14.501 21.3853 14.4721 21.4284 14.4319 21.4592C14.3917 21.4899 14.3425 21.5066 14.2918 21.5065V21.5084Z" fill="#121728"/>
<path d="M13.8977 24.1201C13.8569 24.1206 13.8167 24.1098 13.7817 24.0887L6.32959 19.7033C6.28019 19.6708 6.24518 19.6206 6.23183 19.563C6.21849 19.5053 6.22782 19.4448 6.25789 19.3939C6.28797 19.343 6.33648 19.3056 6.39338 19.2895C6.45027 19.2734 6.5112 19.2798 6.56351 19.3073L14.0156 23.6909C14.0595 23.7165 14.0937 23.7558 14.1128 23.8028C14.132 23.8498 14.1351 23.9019 14.1217 23.9508C14.1082 23.9998 14.079 24.0429 14.0385 24.0735C13.998 24.1041 13.9485 24.1205 13.8977 24.1201Z" fill="#121728"/>
<path d="M13.2714 26.5956C13.2299 26.5955 13.1891 26.584 13.1536 26.5624L5.5136 22.0683C5.46084 22.0373 5.42258 21.9866 5.40721 21.9274C5.39184 21.8681 5.40063 21.8052 5.43165 21.7525C5.46267 21.6997 5.51338 21.6614 5.57262 21.6461C5.63186 21.6307 5.69476 21.6395 5.74752 21.6705L13.3875 26.1609C13.4136 26.1761 13.4365 26.1964 13.4548 26.2204C13.4731 26.2445 13.4865 26.272 13.4942 26.3012C13.5019 26.3305 13.5037 26.3609 13.4996 26.3909C13.4955 26.4209 13.4856 26.4497 13.4704 26.4759C13.4505 26.5114 13.4217 26.5411 13.3868 26.5621C13.3519 26.5831 13.3122 26.5947 13.2714 26.5956Z" fill="#121728"/>
<path d="M12.4296 28.944C12.3887 28.9436 12.3486 28.9321 12.3136 28.9108L4.55578 24.3467C4.5282 24.3322 4.50387 24.3122 4.48425 24.288C4.46463 24.2638 4.45014 24.2358 4.44164 24.2058C4.43314 24.1758 4.43082 24.1444 4.43483 24.1135C4.43883 24.0826 4.44907 24.0528 4.46492 24.026C4.48078 23.9991 4.50191 23.9758 4.52705 23.9574C4.5522 23.9389 4.58082 23.9258 4.61119 23.9188C4.64155 23.9117 4.67303 23.911 4.70372 23.9164C4.7344 23.9219 4.76365 23.9336 4.78969 23.9507L12.5475 28.5148C12.5914 28.5404 12.6256 28.5797 12.6448 28.6267C12.664 28.6737 12.6671 28.7258 12.6536 28.7747C12.6402 28.8237 12.6109 28.8668 12.5704 28.8974C12.5299 28.928 12.4804 28.9444 12.4296 28.944Z" fill="#121728"/>
<path d="M11.321 31.1339C11.2802 31.1341 11.2401 31.1233 11.205 31.1025L3.45635 26.544C3.42878 26.5295 3.40444 26.5095 3.38482 26.4852C3.3652 26.461 3.3507 26.4331 3.34221 26.4031C3.33371 26.3731 3.3314 26.3417 3.3354 26.3108C3.33941 26.2799 3.34964 26.2501 3.3655 26.2232C3.38135 26.1964 3.40249 26.1731 3.42763 26.1546C3.45277 26.1362 3.4814 26.1231 3.51176 26.116C3.54213 26.109 3.57361 26.1082 3.60429 26.1137C3.63498 26.1192 3.66422 26.1309 3.69026 26.148L11.4389 30.7047C11.4827 30.7303 11.5169 30.7696 11.5361 30.8166C11.5553 30.8636 11.5584 30.9157 11.545 30.9646C11.5315 31.0136 11.5023 31.0567 11.4618 31.0873C11.4213 31.1179 11.3718 31.1343 11.321 31.1339Z" fill="#121728"/>
<path d="M13.3729 32.3384C13.3338 32.3384 13.2952 32.3289 13.2606 32.3107L13.1814 32.2665C13.1285 32.2363 13.0896 32.1866 13.0731 32.128C13.0566 32.0695 13.0637 32.0068 13.0929 31.9534C13.1075 31.9269 13.1273 31.9035 13.151 31.8847C13.1747 31.8658 13.2019 31.8519 13.231 31.8437C13.2602 31.8355 13.2906 31.8331 13.3207 31.8368C13.3507 31.8404 13.3798 31.85 13.4061 31.865L13.4853 31.9074C13.5296 31.9323 13.5645 31.9712 13.5844 32.018C13.6044 32.0648 13.6082 32.117 13.5954 32.1662C13.5825 32.2154 13.5537 32.259 13.5135 32.2902C13.4732 32.3213 13.4238 32.3383 13.3729 32.3384Z" fill="#121728"/>
<path d="M17.7637 40.9932C17.7235 40.9938 17.6839 40.9829 17.6495 40.9619C17.6143 40.942 17.585 40.9131 17.5646 40.8782C17.5442 40.8432 17.5335 40.8035 17.5335 40.763V35.7385C17.5337 35.698 17.5445 35.6584 17.5648 35.6235C17.5852 35.5885 17.6144 35.5596 17.6495 35.5396L27.0595 30.1043L34.3292 25.9086C34.3642 25.8882 34.4039 25.8774 34.4443 25.8774C34.4848 25.8774 34.5245 25.8882 34.5595 25.9086C34.5941 25.929 34.6228 25.9581 34.6428 25.9929C34.6629 26.0278 34.6735 26.0673 34.6736 26.1075V31.1339C34.6734 31.1743 34.6628 31.214 34.6428 31.2492C34.6228 31.2844 34.5941 31.3138 34.5595 31.3346L24.0278 37.4127C24.0211 37.4198 24.0129 37.4255 24.0039 37.4293L17.8797 40.9638C17.8446 40.9842 17.8044 40.9944 17.7637 40.9932ZM17.9939 35.8656V40.3633L23.7478 37.048C23.7555 37.0412 23.7642 37.0356 23.7736 37.0314L34.2132 31.0049V26.5016L27.2897 30.4966L17.9939 35.8656Z" fill="#121728"/>
<path d="M21.9927 38.5509C21.9316 38.5509 21.8731 38.5267 21.8299 38.4835C21.7867 38.4403 21.7625 38.3818 21.7625 38.3207V33.2907C21.7625 33.2296 21.7867 33.171 21.8299 33.1279C21.8731 33.0847 21.9316 33.0604 21.9927 33.0604C22.0537 33.0604 22.1123 33.0847 22.1555 33.1279C22.1986 33.171 22.2229 33.2296 22.2229 33.2907V38.317C22.2234 38.3476 22.2178 38.3779 22.2065 38.4063C22.1951 38.4346 22.1782 38.4605 22.1568 38.4822C22.1354 38.504 22.1098 38.5213 22.0816 38.5331C22.0535 38.5449 22.0232 38.551 21.9927 38.5509Z" fill="#121728"/>
<path d="M19.3514 38.6854C19.3106 38.686 19.2704 38.6751 19.2354 38.6541C19.2093 38.6389 19.1864 38.6186 19.1681 38.5945C19.1499 38.5704 19.1366 38.5429 19.129 38.5135C19.1215 38.4842 19.1199 38.4537 19.1242 38.4238C19.1286 38.3939 19.1388 38.3651 19.1544 38.3391L20.044 36.8325L19.2428 36.4015C19.216 36.3874 19.1924 36.3681 19.1731 36.3448C19.1539 36.3214 19.1395 36.2945 19.1308 36.2655C19.122 36.2366 19.1191 36.2061 19.1222 36.1761C19.1253 36.146 19.1344 36.1168 19.1489 36.0902C19.1777 36.0366 19.2267 35.9965 19.2851 35.9789C19.3434 35.9613 19.4064 35.9676 19.4601 35.9963L20.4731 36.5489C20.5005 36.5632 20.5246 36.5831 20.5439 36.6071C20.5632 36.6312 20.5774 36.659 20.5855 36.6888C20.5944 36.7195 20.5969 36.7517 20.5928 36.7834C20.5886 36.8151 20.578 36.8456 20.5616 36.873L19.5504 38.5859C19.5281 38.6177 19.4982 38.6435 19.4635 38.6608C19.4288 38.6782 19.3903 38.6866 19.3514 38.6854Z" fill="#121728"/>
</svg>
