<svg width="1110" height="124" viewBox="0 0 1110 124" fill="none" xmlns="http://www.w3.org/2000/svg">
<line x1="189.996" y1="33.5" x2="350.001" y2="33.5" stroke="black"/>
<line x1="475" y1="33.5" x2="635.005" y2="33.5" stroke="black"/>
<line x1="760" y1="33.5" x2="920.005" y2="33.5" stroke="black"/>
<path d="M83.5431 115H86.9259V109.812H89.7697C93.4494 109.812 95.59 107.617 95.59 104.422C95.59 101.242 93.4884 99 89.8556 99H83.5431V115ZM86.9259 107.102V101.766H89.2072C91.1603 101.766 92.1056 102.828 92.1056 104.422C92.1056 106.008 91.1603 107.102 89.2228 107.102H86.9259ZM97.9448 115H101.273V108.211C101.273 106.734 102.351 105.719 103.82 105.719C104.281 105.719 104.914 105.797 105.226 105.898V102.945C104.929 102.875 104.515 102.828 104.179 102.828C102.835 102.828 101.734 103.609 101.296 105.094H101.171V103H97.9448V115ZM112.03 115.234C115.671 115.234 117.936 112.742 117.936 109.047C117.936 105.328 115.671 102.844 112.03 102.844C108.389 102.844 106.124 105.328 106.124 109.047C106.124 112.742 108.389 115.234 112.03 115.234ZM112.046 112.656C110.366 112.656 109.507 111.117 109.507 109.023C109.507 106.93 110.366 105.383 112.046 105.383C113.694 105.383 114.553 106.93 114.553 109.023C114.553 111.117 113.694 112.656 112.046 112.656ZM120.383 115H123.664V113.078H123.813C124.273 114.078 125.281 115.195 127.219 115.195C129.953 115.195 132.086 113.031 132.086 109.016C132.086 104.891 129.859 102.844 127.227 102.844C125.219 102.844 124.258 104.039 123.813 105.016H123.711V99H120.383V115ZM123.641 109C123.641 106.859 124.547 105.492 126.164 105.492C127.813 105.492 128.688 106.922 128.688 109C128.688 111.094 127.797 112.547 126.164 112.547C124.563 112.547 123.641 111.141 123.641 109ZM137.855 99H134.527V115H137.855V99ZM146.21 115.234C149.178 115.234 151.178 113.789 151.647 111.562L148.569 111.359C148.233 112.273 147.374 112.75 146.264 112.75C144.6 112.75 143.545 111.648 143.545 109.859V109.852H151.717V108.937C151.717 104.859 149.249 102.844 146.077 102.844C142.545 102.844 140.256 105.352 140.256 109.055C140.256 112.859 142.514 115.234 146.21 115.234ZM143.545 107.789C143.616 106.422 144.655 105.328 146.131 105.328C147.577 105.328 148.577 106.359 148.585 107.789H143.545ZM154.109 115H157.437V107.797C157.437 106.469 158.281 105.586 159.39 105.586C160.484 105.586 161.219 106.336 161.219 107.516V115H164.445V107.672C164.445 106.43 165.156 105.586 166.367 105.586C167.43 105.586 168.226 106.25 168.226 107.586V115H171.547V106.93C171.547 104.328 170 102.844 167.765 102.844C166.008 102.844 164.64 103.742 164.148 105.117H164.023C163.64 103.727 162.414 102.844 160.765 102.844C159.148 102.844 157.922 103.703 157.422 105.117H157.281V103H154.109V115Z" fill="#1D2D35"/>
<ellipse opacity="0.2" cx="127.5" cy="34" rx="25.5" ry="25" fill="#005BF2"/>
<ellipse cx="127.5" cy="34" rx="18.5" ry="18" fill="#005BF2"/>
<path d="M127.279 39H129.471V27.96H127.567C127.343 29.368 126.143 29.864 124.799 29.912V31.352H127.279V39Z" fill="white"/>
<path d="M362.751 115H366.133V109.328H368.602L371.633 115H375.368L371.969 108.781C373.79 108 374.797 106.414 374.797 104.227C374.797 101.047 372.696 99 369.063 99H362.751V115ZM366.133 106.609V101.766H368.415C370.368 101.766 371.313 102.633 371.313 104.227C371.313 105.812 370.368 106.609 368.43 106.609H366.133ZM382.621 115.234C385.59 115.234 387.59 113.789 388.058 111.562L384.98 111.359C384.644 112.273 383.785 112.75 382.676 112.75C381.012 112.75 379.957 111.648 379.957 109.859V109.852H388.129V108.937C388.129 104.859 385.66 102.844 382.488 102.844C378.957 102.844 376.668 105.352 376.668 109.055C376.668 112.859 378.926 115.234 382.621 115.234ZM379.957 107.789C380.027 106.422 381.066 105.328 382.543 105.328C383.988 105.328 384.988 106.359 384.996 107.789H379.957ZM400.505 106.422C400.208 104.211 398.427 102.844 395.396 102.844C392.325 102.844 390.302 104.266 390.31 106.578C390.302 108.375 391.435 109.539 393.778 110.008L395.857 110.422C396.903 110.633 397.38 111.016 397.396 111.617C397.38 112.328 396.607 112.836 395.442 112.836C394.255 112.836 393.466 112.328 393.263 111.352L389.989 111.523C390.302 113.82 392.255 115.234 395.435 115.234C398.544 115.234 400.771 113.648 400.778 111.281C400.771 109.547 399.638 108.508 397.31 108.031L395.138 107.594C394.021 107.352 393.607 106.969 393.614 106.391C393.607 105.672 394.419 105.203 395.45 105.203C396.607 105.203 397.294 105.836 397.458 106.609L400.505 106.422ZM408.563 115.234C411.532 115.234 413.532 113.789 414 111.562L410.922 111.359C410.586 112.273 409.727 112.75 408.618 112.75C406.953 112.75 405.899 111.648 405.899 109.859V109.852H414.071V108.937C414.071 104.859 411.602 102.844 408.43 102.844C404.899 102.844 402.61 105.352 402.61 109.055C402.61 112.859 404.868 115.234 408.563 115.234ZM405.899 107.789C405.969 106.422 407.008 105.328 408.485 105.328C409.93 105.328 410.93 106.359 410.938 107.789H405.899ZM419.884 115.227C421.658 115.227 422.806 114.453 423.392 113.336H423.486V115H426.642V106.906C426.642 104.047 424.22 102.844 421.548 102.844C418.673 102.844 416.783 104.219 416.322 106.406L419.4 106.656C419.627 105.859 420.338 105.273 421.533 105.273C422.666 105.273 423.314 105.844 423.314 106.828V106.875C423.314 107.648 422.494 107.75 420.408 107.953C418.033 108.172 415.9 108.969 415.9 111.648C415.9 114.023 417.595 115.227 419.884 115.227ZM420.838 112.93C419.814 112.93 419.08 112.453 419.08 111.539C419.08 110.602 419.853 110.141 421.025 109.977C421.752 109.875 422.939 109.703 423.338 109.438V110.711C423.338 111.969 422.298 112.93 420.838 112.93ZM429.444 115H432.772V108.211C432.772 106.734 433.85 105.719 435.319 105.719C435.78 105.719 436.413 105.797 436.725 105.898V102.945C436.429 102.875 436.015 102.828 435.679 102.828C434.335 102.828 433.233 103.609 432.796 105.094H432.671V103H429.444V115ZM443.529 115.234C446.725 115.234 448.733 113.359 448.889 110.602H445.748C445.553 111.883 444.709 112.602 443.569 112.602C442.014 112.602 441.006 111.297 441.006 109C441.006 106.734 442.022 105.437 443.569 105.437C444.787 105.437 445.569 106.242 445.748 107.438H448.889C448.748 104.664 446.647 102.844 443.514 102.844C439.873 102.844 437.623 105.367 437.623 109.047C437.623 112.695 439.834 115.234 443.529 115.234ZM454.568 108.063C454.576 106.516 455.521 105.609 456.88 105.609C458.232 105.609 459.029 106.477 459.021 107.953V115H462.349V107.359C462.357 104.547 460.701 102.844 458.201 102.844C456.38 102.844 455.162 103.703 454.615 105.117H454.474V99H451.24V115H454.568V108.063Z" fill="#1D2D35"/>
<ellipse opacity="0.2" cx="412.5" cy="34" rx="25.5" ry="25" fill="#005BF2"/>
<ellipse cx="412.5" cy="34" rx="18.5" ry="18" fill="#005BF2"/>
<path d="M408.541 39H416.413V37.208H411.357C411.725 36.504 412.717 35.8 413.565 35.256C414.909 34.36 416.317 33.384 416.317 31.32C416.317 29.432 414.973 27.816 412.589 27.816C409.981 27.816 408.701 29.4 408.701 31.896H410.749C410.781 30.472 411.437 29.672 412.541 29.672C413.517 29.672 414.061 30.36 414.061 31.384C414.061 32.792 412.557 33.56 411.181 34.648C409.933 35.624 408.621 36.904 408.541 39Z" fill="white"/>
<path d="M616.227 99H612.844V115H616.227V99ZM619.168 115H622.496V107.797C622.496 106.469 623.34 105.586 624.449 105.586C625.543 105.586 626.277 106.336 626.277 107.516V115H629.504V107.672C629.504 106.43 630.215 105.586 631.426 105.586C632.488 105.586 633.285 106.25 633.285 107.586V115H636.605V106.93C636.605 104.328 635.059 102.844 632.824 102.844C631.066 102.844 629.699 103.742 629.207 105.117H629.082C628.699 103.727 627.473 102.844 625.824 102.844C624.207 102.844 622.98 103.703 622.48 105.117H622.34V103H619.168V115ZM639.454 119.5H642.782V113.078H642.884C643.345 114.078 644.353 115.195 646.29 115.195C649.025 115.195 651.157 113.031 651.157 109.016C651.157 104.891 648.931 102.844 646.298 102.844C644.29 102.844 643.329 104.039 642.884 105.016H642.736V103H639.454V119.5ZM642.712 109C642.712 106.859 643.618 105.492 645.236 105.492C646.884 105.492 647.759 106.922 647.759 109C647.759 111.094 646.868 112.547 645.236 112.547C643.634 112.547 642.712 111.141 642.712 109ZM656.924 99H653.596V115H656.924V99ZM665.279 115.234C668.248 115.234 670.248 113.789 670.717 111.562L667.638 111.359C667.303 112.273 666.443 112.75 665.334 112.75C663.67 112.75 662.615 111.648 662.615 109.859V109.852H670.787V108.937C670.787 104.859 668.318 102.844 665.146 102.844C661.615 102.844 659.326 105.352 659.326 109.055C659.326 112.859 661.584 115.234 665.279 115.234ZM662.615 107.789C662.685 106.422 663.724 105.328 665.201 105.328C666.646 105.328 667.646 106.359 667.654 107.789H662.615ZM673.179 115H676.507V107.797C676.507 106.469 677.351 105.586 678.46 105.586C679.554 105.586 680.288 106.336 680.288 107.516V115H683.515V107.672C683.515 106.43 684.226 105.586 685.437 105.586C686.499 105.586 687.296 106.25 687.296 107.586V115H690.616V106.93C690.616 104.328 689.069 102.844 686.835 102.844C685.077 102.844 683.71 103.742 683.218 105.117H683.093C682.71 103.727 681.483 102.844 679.835 102.844C678.218 102.844 676.991 103.703 676.491 105.117H676.351V103H673.179V115ZM698.934 115.234C701.903 115.234 703.903 113.789 704.371 111.562L701.293 111.359C700.957 112.273 700.098 112.75 698.989 112.75C697.325 112.75 696.27 111.648 696.27 109.859V109.852H704.442V108.937C704.442 104.859 701.973 102.844 698.801 102.844C695.27 102.844 692.981 105.352 692.981 109.055C692.981 112.859 695.239 115.234 698.934 115.234ZM696.27 107.789C696.34 106.422 697.379 105.328 698.856 105.328C700.301 105.328 701.301 106.359 701.309 107.789H696.27ZM710.162 108.063C710.17 106.516 711.091 105.609 712.435 105.609C713.771 105.609 714.576 106.484 714.568 107.953V115H717.896V107.359C717.896 104.562 716.256 102.844 713.756 102.844C711.974 102.844 710.685 103.719 710.146 105.117H710.006V103H706.834V115H710.162V108.063ZM727.122 103H724.864V100.125H721.536V103H719.895V105.5H721.536V111.75C721.52 114.102 723.122 115.266 725.536 115.164C726.395 115.133 727.005 114.961 727.341 114.852L726.817 112.375C726.653 112.406 726.302 112.484 725.989 112.484C725.325 112.484 724.864 112.234 724.864 111.312V105.5H727.122V103ZM732.932 115.227C734.705 115.227 735.854 114.453 736.44 113.336H736.533V115H739.69V106.906C739.69 104.047 737.268 102.844 734.596 102.844C731.721 102.844 729.83 104.219 729.369 106.406L732.447 106.656C732.674 105.859 733.385 105.273 734.58 105.273C735.713 105.273 736.362 105.844 736.362 106.828V106.875C736.362 107.648 735.541 107.75 733.455 107.953C731.08 108.172 728.947 108.969 728.947 111.648C728.947 114.023 730.643 115.227 732.932 115.227ZM733.885 112.93C732.862 112.93 732.127 112.453 732.127 111.539C732.127 110.602 732.901 110.141 734.072 109.977C734.799 109.875 735.987 109.703 736.385 109.438V110.711C736.385 111.969 735.346 112.93 733.885 112.93ZM748.874 103H746.617V100.125H743.289V103H741.648V105.5H743.289V111.75C743.273 114.102 744.874 115.266 747.289 115.164C748.148 115.133 748.757 114.961 749.093 114.852L748.57 112.375C748.406 112.406 748.054 112.484 747.742 112.484C747.078 112.484 746.617 112.234 746.617 111.312V105.5H748.874V103ZM751.262 115H754.591V103H751.262V115ZM752.934 101.453C753.927 101.453 754.739 100.695 754.739 99.7656C754.739 98.8438 753.927 98.0859 752.934 98.0859C751.95 98.0859 751.137 98.8438 751.137 99.7656C751.137 100.695 751.95 101.453 752.934 101.453ZM762.898 115.234C766.539 115.234 768.805 112.742 768.805 109.047C768.805 105.328 766.539 102.844 762.898 102.844C759.258 102.844 756.992 105.328 756.992 109.047C756.992 112.742 759.258 115.234 762.898 115.234ZM762.914 112.656C761.234 112.656 760.375 111.117 760.375 109.023C760.375 106.93 761.234 105.383 762.914 105.383C764.563 105.383 765.422 106.93 765.422 109.023C765.422 111.117 764.563 112.656 762.914 112.656ZM774.517 108.063C774.525 106.516 775.447 105.609 776.79 105.609C778.126 105.609 778.931 106.484 778.923 107.953V115H782.251V107.359C782.251 104.562 780.611 102.844 778.111 102.844C776.329 102.844 775.04 103.719 774.501 105.117H774.361V103H771.189V115H774.517V108.063Z" fill="#1D2D35"/>
<ellipse opacity="0.2" cx="697.5" cy="34" rx="25.5" ry="25" fill="#005BF2"/>
<ellipse cx="697.5" cy="34" rx="18.5" ry="18" fill="#005BF2"/>
<path d="M697.521 39.24C699.777 39.24 701.649 38.136 701.649 35.864C701.649 34.344 700.817 33.448 699.425 33.112V33.08C700.513 32.728 701.297 32.008 701.297 30.776C701.297 28.952 699.825 27.816 697.537 27.816C694.993 27.816 693.633 29.272 693.553 31.432H695.633C695.681 30.296 696.289 29.48 697.537 29.48C698.497 29.48 699.089 30.056 699.089 30.92C699.089 31.848 698.353 32.376 697.313 32.376H696.689V34.024H697.361C698.705 34.024 699.377 34.664 699.377 35.72C699.377 36.84 698.657 37.496 697.441 37.496C695.937 37.496 695.361 36.584 695.281 35.272H693.201C693.233 37.672 694.689 39.24 697.521 39.24Z" fill="white"/>
<path d="M910.182 115H920.424V112.211H913.564V99H910.182V115ZM926.243 115.227C928.017 115.227 929.165 114.453 929.751 113.336H929.845V115H933.001V106.906C933.001 104.047 930.579 102.844 927.907 102.844C925.032 102.844 923.142 104.219 922.681 106.406L925.759 106.656C925.986 105.859 926.697 105.273 927.892 105.273C929.025 105.273 929.673 105.844 929.673 106.828V106.875C929.673 107.648 928.853 107.75 926.767 107.953C924.392 108.172 922.259 108.969 922.259 111.648C922.259 114.023 923.954 115.227 926.243 115.227ZM927.197 112.93C926.173 112.93 925.439 112.453 925.439 111.539C925.439 110.602 926.212 110.141 927.384 109.977C928.111 109.875 929.298 109.703 929.697 109.438V110.711C929.697 111.969 928.657 112.93 927.197 112.93ZM943.499 109.891C943.506 111.5 942.405 112.344 941.209 112.344C939.952 112.344 939.139 111.461 939.131 110.047V103H935.803V110.641C935.811 113.445 937.452 115.156 939.866 115.156C941.67 115.156 942.967 114.227 943.506 112.82H943.631V115H946.827V103H943.499V109.891ZM953.037 108.063C953.045 106.516 953.967 105.609 955.31 105.609C956.646 105.609 957.451 106.484 957.443 107.953V115H960.771V107.359C960.771 104.562 959.131 102.844 956.631 102.844C954.849 102.844 953.56 103.719 953.021 105.117H952.881V103H949.709V115H953.037V108.063ZM969.036 115.234C972.232 115.234 974.239 113.359 974.396 110.602H971.255C971.06 111.883 970.216 112.602 969.075 112.602C967.521 112.602 966.513 111.297 966.513 109C966.513 106.734 967.528 105.437 969.075 105.437C970.294 105.437 971.075 106.242 971.255 107.438H974.396C974.255 104.664 972.153 102.844 969.021 102.844C965.38 102.844 963.13 105.367 963.13 109.047C963.13 112.695 965.341 115.234 969.036 115.234ZM980.075 108.063C980.082 106.516 981.028 105.609 982.387 105.609C983.739 105.609 984.536 106.477 984.528 107.953V115H987.856V107.359C987.864 104.547 986.207 102.844 983.707 102.844C981.887 102.844 980.668 103.703 980.121 105.117H979.981V99H976.746V115H980.075V108.063ZM997.664 98.25H994.797L989.64 117.406H992.507L997.664 98.25ZM1009.47 106.422C1009.17 104.211 1007.39 102.844 1004.36 102.844C1001.29 102.844 999.268 104.266 999.276 106.578C999.268 108.375 1000.4 109.539 1002.75 110.008L1004.82 110.422C1005.87 110.633 1006.35 111.016 1006.36 111.617C1006.35 112.328 1005.57 112.836 1004.41 112.836C1003.22 112.836 1002.43 112.328 1002.23 111.352L998.956 111.523C999.268 113.82 1001.22 115.234 1004.4 115.234C1007.51 115.234 1009.74 113.648 1009.75 111.281C1009.74 109.547 1008.6 108.508 1006.28 108.031L1004.1 107.594C1002.99 107.352 1002.57 106.969 1002.58 106.391C1002.57 105.672 1003.39 105.203 1004.42 105.203C1005.57 105.203 1006.26 105.836 1006.42 106.609L1009.47 106.422ZM1017.48 115.234C1020.68 115.234 1022.69 113.359 1022.84 110.602H1019.7C1019.51 111.883 1018.66 112.602 1017.52 112.602C1015.97 112.602 1014.96 111.297 1014.96 109C1014.96 106.734 1015.97 105.437 1017.52 105.437C1018.74 105.437 1019.52 106.242 1019.7 107.438H1022.84C1022.7 104.664 1020.6 102.844 1017.47 102.844C1013.83 102.844 1011.58 105.367 1011.58 109.047C1011.58 112.695 1013.79 115.234 1017.48 115.234ZM1028.61 115.227C1030.39 115.227 1031.54 114.453 1032.12 113.336H1032.22V115H1035.37V106.906C1035.37 104.047 1032.95 102.844 1030.28 102.844C1027.4 102.844 1025.51 104.219 1025.05 106.406L1028.13 106.656C1028.36 105.859 1029.07 105.273 1030.26 105.273C1031.4 105.273 1032.04 105.844 1032.04 106.828V106.875C1032.04 107.648 1031.22 107.75 1029.14 107.953C1026.76 108.172 1024.63 108.969 1024.63 111.648C1024.63 114.023 1026.33 115.227 1028.61 115.227ZM1029.57 112.93C1028.54 112.93 1027.81 112.453 1027.81 111.539C1027.81 110.602 1028.58 110.141 1029.76 109.977C1030.48 109.875 1031.67 109.703 1032.07 109.438V110.711C1032.07 111.969 1031.03 112.93 1029.57 112.93ZM1041.5 99H1038.17V115H1041.5V99ZM1049.86 115.234C1052.83 115.234 1054.83 113.789 1055.29 111.562L1052.22 111.359C1051.88 112.273 1051.02 112.75 1049.91 112.75C1048.25 112.75 1047.19 111.648 1047.19 109.859V109.852H1055.37V108.937C1055.37 104.859 1052.9 102.844 1049.72 102.844C1046.19 102.844 1043.9 105.352 1043.9 109.055C1043.9 112.859 1046.16 115.234 1049.86 115.234ZM1047.19 107.789C1047.26 106.422 1048.3 105.328 1049.78 105.328C1051.22 105.328 1052.22 106.359 1052.23 107.789H1047.19Z" fill="#38476C"/>
<ellipse opacity="0.2" cx="982.5" cy="34" rx="25.5" ry="25" fill="#005BF2"/>
<ellipse cx="982.5" cy="34" rx="18.5" ry="18" fill="#005BF2"/>
<path d="M983.182 39H985.31V36.616H986.974V34.872H985.31V27.912H983.102L978.126 34.264V36.616H983.182V39ZM979.886 34.824L983.15 30.616H983.182V34.872H979.886V34.824Z" fill="white"/>
<path d="M247.997 12.36C247.957 12.4133 247.937 12.48 247.937 12.56C247.937 12.64 247.963 12.6867 248.017 12.7C247.99 12.78 247.943 12.9267 247.877 13.14C247.81 13.3533 247.737 13.58 247.657 13.82C247.617 14.3 247.457 14.8933 247.177 15.6C246.91 16.2933 246.657 16.8467 246.417 17.26C246.35 17.26 246.297 17.2733 246.257 17.3C246.217 17.3133 246.223 17.3267 246.277 17.34C246.277 17.4067 246.203 17.5333 246.057 17.72C246.017 17.7467 245.93 17.8467 245.797 18.02C245.677 18.18 245.59 18.28 245.537 18.32C245.523 18.4133 245.483 18.4933 245.417 18.56C245.35 18.6133 245.29 18.64 245.237 18.64C245.237 18.64 245.223 18.6467 245.197 18.66C245.183 18.66 245.177 18.68 245.177 18.72C244.937 19.0667 244.457 19.54 243.737 20.14C243.03 20.7533 242.43 21.16 241.937 21.36C241.803 21.4533 241.643 21.54 241.457 21.62C241.283 21.7 241.163 21.7533 241.097 21.78C241.003 21.86 240.503 21.94 239.597 22.02C239.463 22.0333 239.317 22.0467 239.157 22.06C238.997 22.0733 238.837 22.0933 238.677 22.12C238.597 22.1333 238.463 22.14 238.277 22.14C237.85 22.14 237.29 22.0533 236.597 21.88C236.423 21.8267 236.297 21.7667 236.217 21.7C236.137 21.6333 236.043 21.5333 235.937 21.4C235.843 21.28 235.77 21.1867 235.717 21.12C235.543 20.8667 235.457 20.58 235.457 20.26C235.457 20.0333 235.503 19.8467 235.597 19.7C235.703 19.54 235.863 19.44 236.077 19.4H236.137C236.19 19.4 236.297 19.4267 236.457 19.48C236.457 19.0933 236.503 18.74 236.597 18.42C236.717 17.8733 237.09 16.7 237.717 14.9L237.957 14.22C238.05 13.9933 238.183 13.5667 238.357 12.94C238.503 12.4467 238.663 11.94 238.837 11.42C239.023 10.9 239.157 10.5733 239.237 10.44C239.277 10.3333 239.317 10.1867 239.357 10C239.557 9.32 239.757 8.73333 239.957 8.24L240.097 7.58L239.877 7.48C239.757 7.52 239.65 7.54 239.557 7.54C239.49 7.54 239.417 7.52 239.337 7.48C239.217 7.52 239.05 7.45333 238.837 7.28C238.637 7.10667 238.523 6.95333 238.497 6.82C238.47 6.78 238.45 6.72 238.437 6.64C238.437 6.56 238.437 6.50667 238.437 6.48C238.45 6.38667 238.61 6.28667 238.917 6.18C239.223 6.06 239.603 5.96 240.057 5.88C240.51 5.8 240.943 5.76 241.357 5.76C241.543 5.76 241.683 5.76667 241.777 5.78C242.11 5.80667 242.523 5.88667 243.017 6.02C243.51 6.14 243.957 6.27333 244.357 6.42C244.797 6.58 245.263 6.86 245.757 7.26C246.263 7.66 246.71 8.12667 247.097 8.66C247.497 9.19333 247.763 9.74 247.897 10.3C247.937 10.4733 247.977 10.7133 248.017 11.02C248.057 11.3267 248.077 11.6 248.077 11.84C248.077 12.12 248.05 12.2933 247.997 12.36ZM245.977 13.54C246.097 12.98 246.157 12.46 246.157 11.98C246.157 10.6067 245.663 9.5 244.677 8.66C244.397 8.42 243.937 8.16 243.297 7.88C242.67 7.6 242.31 7.47333 242.217 7.5C242.15 7.51333 241.977 7.88667 241.697 8.62C241.43 9.35333 241.143 10.1667 240.837 11.06L239.937 13.58C239.883 13.7933 239.823 13.9933 239.757 14.18C239.69 14.3667 239.637 14.5333 239.597 14.68C239.423 15.1733 239.337 15.4533 239.337 15.52C238.95 16.12 238.663 17.1333 238.477 18.56C238.45 18.64 238.377 18.9467 238.257 19.48C238.163 19.92 238.097 20.1333 238.057 20.12L238.037 20.3C238.277 20.4067 238.51 20.4467 238.737 20.42C238.817 20.4067 238.923 20.3933 239.057 20.38C239.203 20.3667 239.31 20.36 239.377 20.36C239.777 20.3333 240.07 20.3 240.257 20.26C240.457 20.2333 240.623 20.1667 240.757 20.06C241.343 19.66 241.817 19.32 242.177 19.04C242.55 18.7467 242.777 18.56 242.857 18.48C242.883 18.4133 243.023 18.3333 243.277 18.24L243.837 17.66C244.17 17.3 244.383 17.0867 244.477 17.02C244.49 16.9267 244.51 16.8333 244.537 16.74C244.577 16.6333 244.597 16.5533 244.597 16.5C244.757 16.3267 244.997 15.9133 245.317 15.26C245.637 14.5933 245.857 14.02 245.977 13.54ZM251.488 11.64C251.355 11.5467 251.248 11.4267 251.168 11.28C251.088 11.1333 251.041 10.9933 251.028 10.86C251.015 10.7267 251.028 10.6467 251.068 10.62C251.148 10.5267 251.228 10.4 251.308 10.24C251.388 10.08 251.448 9.96667 251.488 9.9C251.595 9.66 251.681 9.48667 251.748 9.38C251.841 9.19333 251.928 9.09333 252.008 9.08C252.115 9.02667 252.201 9 252.268 9C252.441 9 252.628 9.06 252.828 9.18C253.041 9.3 253.201 9.44 253.308 9.6C253.401 9.81333 253.448 10 253.448 10.16C253.448 10.48 253.295 10.8333 252.988 11.22C252.855 11.3933 252.695 11.5267 252.508 11.62C252.321 11.7133 252.135 11.76 251.948 11.76C251.761 11.76 251.608 11.72 251.488 11.64ZM249.328 19.66C249.141 19.4733 249.048 19.14 249.048 18.66C249.048 18.4067 249.081 18.2133 249.148 18.08C249.148 18.0133 249.161 17.9333 249.188 17.84C249.215 17.7467 249.228 17.6867 249.228 17.66C249.215 17.58 249.268 17.36 249.388 17C249.548 16.64 249.748 16.0867 249.988 15.34C250.241 14.5933 250.415 14.06 250.508 13.74C250.508 13.6733 250.535 13.62 250.588 13.58C250.641 13.5267 250.721 13.4933 250.828 13.48C250.975 13.4267 251.161 13.4933 251.388 13.68C251.615 13.8533 251.801 14.0533 251.948 14.28C252.028 14.36 252.068 14.4667 252.068 14.6C252.068 14.8 251.981 15.08 251.808 15.44C251.741 15.5867 251.675 15.7667 251.608 15.98C251.555 16.1933 251.508 16.3933 251.468 16.58C251.308 16.94 251.181 17.2733 251.088 17.58C251.048 17.7533 251.021 17.8867 251.008 17.98C250.915 18.4733 250.828 18.7933 250.748 18.94C250.668 19.2733 250.555 19.5267 250.408 19.7C250.261 19.86 250.095 19.94 249.908 19.94C249.681 19.94 249.488 19.8467 249.328 19.66ZM255.994 20.3C255.674 20.3 255.34 20.2333 254.994 20.1C254.66 19.9667 254.374 19.8067 254.134 19.62C253.907 19.42 253.794 19.24 253.794 19.08C253.794 18.92 253.867 18.82 254.014 18.78L254.114 18.7C254.14 18.6867 254.194 18.68 254.274 18.68C254.327 18.6667 254.394 18.6733 254.474 18.7C254.554 18.7133 254.62 18.72 254.674 18.72C254.767 18.7467 254.907 18.7733 255.094 18.8L255.614 18.86C255.88 18.86 256.127 18.8333 256.354 18.78C256.594 18.7267 256.714 18.6667 256.714 18.6C256.714 18.56 256.66 18.4933 256.554 18.4C256.447 18.3067 256.334 18.26 256.214 18.26C256.214 18.2067 256.007 18.0267 255.594 17.72C255.367 17.5467 255.147 17.3733 254.934 17.2C254.734 17.0267 254.634 16.9 254.634 16.82L254.654 16.78V16.68C254.56 16.68 254.474 16.5533 254.394 16.3C254.314 16.0467 254.274 15.8 254.274 15.56C254.274 15.1067 254.474 14.6067 254.874 14.06C255.274 13.5133 255.767 13.02 256.354 12.58C256.954 12.14 257.52 11.84 258.054 11.68C258.254 11.5867 258.547 11.54 258.934 11.54C259.187 11.54 259.36 11.5667 259.454 11.62L259.614 11.58C259.774 11.58 259.98 11.7133 260.234 11.98C260.487 12.2467 260.647 12.46 260.714 12.62C260.714 13.06 260.7 13.4133 260.674 13.68C260.647 13.9467 260.58 14.08 260.474 14.08C260.46 14.08 260.44 14.0867 260.414 14.1C260.387 14.1133 260.374 14.1467 260.374 14.2C260.374 14.3867 260.207 14.5933 259.874 14.82C259.554 15.0467 259.26 15.16 258.994 15.16L258.914 15.14C258.834 15.1267 258.714 15.0467 258.554 14.9C258.407 14.7533 258.334 14.6067 258.334 14.46C258.334 14.42 258.414 14.3133 258.574 14.14C258.734 13.9667 258.867 13.8 258.974 13.64C259.094 13.4667 259.154 13.2867 259.154 13.1C259.154 13.0333 259.127 12.9933 259.074 12.98C259.034 12.9533 258.947 12.94 258.814 12.94C258.08 13.2733 257.554 13.5867 257.234 13.88C257.194 13.96 257.154 14.02 257.114 14.06C257.087 14.1 257.047 14.12 256.994 14.12C256.994 14.1067 256.987 14.1 256.974 14.1C256.947 14.1 256.86 14.18 256.714 14.34C256.567 14.4867 256.427 14.66 256.294 14.86C256.174 15.06 256.1 15.2467 256.074 15.42L256.034 15.48V15.58C256.02 15.6067 256.014 15.66 256.014 15.74C256.014 15.86 256.067 15.9867 256.174 16.12C256.28 16.24 256.494 16.4133 256.814 16.64C257.414 17.0933 257.82 17.4333 258.034 17.66C258.26 17.8733 258.4 18.0667 258.454 18.24C258.574 18.48 258.634 18.6933 258.634 18.88C258.634 19.3333 258.394 19.6867 257.914 19.94C257.447 20.18 256.807 20.3 255.994 20.3ZM263.546 19.84C263.146 19.84 262.886 19.82 262.766 19.78C262.646 19.7267 262.499 19.62 262.326 19.46C262.286 19.3667 262.199 19.24 262.066 19.08C261.946 18.92 261.846 18.8 261.766 18.72C261.726 18.5733 261.706 18.4 261.706 18.2C261.706 17.8533 261.753 17.4467 261.846 16.98C261.953 16.5133 262.079 16.0867 262.226 15.7C262.279 15.5933 262.319 15.4933 262.346 15.4C262.386 15.3067 262.413 15.2467 262.426 15.22C262.426 15.1267 262.593 14.84 262.926 14.36C263.273 13.8667 263.546 13.5267 263.746 13.34C263.839 13.2333 263.979 13.12 264.166 13C264.366 12.88 264.539 12.7933 264.686 12.74C264.726 12.7267 264.886 12.6667 265.166 12.56C265.459 12.4533 265.726 12.4 265.966 12.4C266.179 12.4 266.386 12.4467 266.586 12.54C266.799 12.62 266.973 12.7533 267.106 12.94C267.453 13.2867 267.626 13.74 267.626 14.3C267.626 14.4067 267.613 14.5267 267.586 14.66C267.519 14.9267 267.379 15.1467 267.166 15.32C266.966 15.48 266.753 15.56 266.526 15.56C266.299 15.56 266.106 15.4733 265.946 15.3C265.893 15.1667 265.866 15.08 265.866 15.04C265.866 15 265.893 14.8867 265.946 14.7C265.999 14.46 266.026 14.3067 266.026 14.24C266.026 14.0667 265.966 13.98 265.846 13.98C265.686 13.98 265.559 14.02 265.466 14.1C265.373 14.18 265.199 14.3533 264.946 14.62C264.773 14.8067 264.566 15.08 264.326 15.44C264.099 15.7867 263.919 16.12 263.786 16.44C263.666 16.8 263.579 17.06 263.526 17.22C263.486 17.3667 263.466 17.4533 263.466 17.48C263.466 17.5333 263.459 17.5867 263.446 17.64C263.433 17.68 263.426 17.7267 263.426 17.78C263.426 17.8733 263.446 17.9467 263.486 18C263.526 18.0533 263.599 18.1067 263.706 18.16C263.733 18.1733 263.779 18.2 263.846 18.24C263.913 18.28 263.979 18.3 264.046 18.3C264.126 18.3 264.239 18.2667 264.386 18.2C264.533 18.1333 264.626 18.0933 264.666 18.08C264.839 18 265.086 17.8267 265.406 17.56L265.886 17.2C265.979 17.1333 266.059 17.08 266.126 17.04C266.206 16.9867 266.266 16.9533 266.306 16.94C266.346 16.9133 266.366 16.9133 266.366 16.94C266.366 16.9933 266.386 17.02 266.426 17.02C266.466 17.02 266.513 16.9933 266.566 16.94C266.619 16.86 266.713 16.82 266.846 16.82C266.953 16.82 267.059 16.8533 267.166 16.92C267.286 16.9733 267.346 17.02 267.346 17.06L267.326 17.16C267.326 17.2267 267.359 17.2933 267.426 17.36C267.426 17.4133 267.406 17.4867 267.366 17.58C267.339 17.66 267.299 17.7267 267.246 17.78C267.113 17.98 266.959 18.1867 266.786 18.4C266.626 18.6133 266.513 18.76 266.446 18.84H266.426C266.359 18.84 266.266 18.9 266.146 19.02C265.946 19.2067 265.773 19.3 265.626 19.3C265.573 19.3267 265.513 19.36 265.446 19.4C265.379 19.4267 265.346 19.46 265.346 19.5C265.119 19.7267 264.519 19.84 263.546 19.84ZM271.693 19.84C271.626 19.8533 271.54 19.86 271.433 19.86C271.26 19.86 271.12 19.8333 271.013 19.78C270.906 19.7133 270.78 19.6067 270.633 19.46C270.326 19.3133 270.06 19.0667 269.833 18.72C269.606 18.3733 269.506 18.1 269.533 17.9C269.6 17.26 269.78 16.5667 270.073 15.82C270.366 15.06 270.746 14.38 271.213 13.78C271.693 13.1667 272.2 12.74 272.733 12.5C272.973 12.4067 273.193 12.36 273.393 12.36C273.806 12.36 274.08 12.4933 274.213 12.76C274.306 12.9467 274.353 13.0867 274.353 13.18C274.353 13.34 274.26 13.4467 274.073 13.5C274.033 13.5 273.986 13.52 273.933 13.56C273.88 13.6 273.853 13.64 273.853 13.68C273.866 13.6933 273.926 13.7 274.033 13.7C274.26 13.7 274.54 13.6667 274.873 13.6C275.206 13.5333 275.42 13.46 275.513 13.38C275.593 13.34 275.66 13.32 275.713 13.32L275.993 13.36C276.22 13.4267 276.333 13.5067 276.333 13.6C276.333 13.6667 276.353 13.7533 276.393 13.86C276.446 13.9667 276.493 14.02 276.533 14.02C276.6 14.02 276.633 14.0667 276.633 14.16C276.633 14.24 276.586 14.3467 276.493 14.48C276.413 14.6 276.293 14.72 276.133 14.84C276.066 14.88 275.966 14.94 275.833 15.02C275.713 15.1 275.64 15.1667 275.613 15.22C275.6 15.2733 275.606 15.3467 275.633 15.44C275.686 15.5467 275.713 15.68 275.713 15.84C275.713 16.2933 275.493 16.8267 275.053 17.44C274.613 18.04 274.073 18.5733 273.433 19.04C272.806 19.5067 272.226 19.7733 271.693 19.84ZM271.753 18.16C271.833 18.16 272.033 18.08 272.353 17.92C272.526 17.7467 272.666 17.64 272.773 17.6C272.813 17.6 272.846 17.5667 272.873 17.5C272.913 17.42 272.973 17.3067 273.053 17.16C273.146 17 273.293 16.7933 273.493 16.54C273.706 16.3 273.853 16.1067 273.933 15.96C274.026 15.8133 274.073 15.6667 274.073 15.52C274.073 15.4667 274.06 15.3733 274.033 15.24C274.02 15.2 273.973 15.1667 273.893 15.14C273.826 15.1 273.76 15.0667 273.693 15.04C273.626 15.04 273.56 15.06 273.493 15.1C273.426 15.1267 273.38 15.14 273.353 15.14C273.286 15.14 273.213 15.1067 273.133 15.04L272.813 14.64L272.473 14.98C272.166 15.2867 271.906 15.7 271.693 16.22C271.493 16.74 271.373 17.2133 271.333 17.64C271.32 17.8267 271.346 17.96 271.413 18.04C271.493 18.1067 271.606 18.1467 271.753 18.16ZM279.919 19.66C279.799 19.6867 279.592 19.6267 279.299 19.48C279.019 19.3333 278.799 19.18 278.639 19.02C278.492 18.82 278.372 18.4133 278.279 17.8C278.186 17.1733 278.139 16.5867 278.139 16.04C278.152 15.6133 278.206 15.1 278.299 14.5C278.406 13.8867 278.492 13.42 278.559 13.1C278.692 12.9533 278.859 12.8267 279.059 12.72C279.272 12.6133 279.459 12.56 279.619 12.56C279.766 12.56 279.866 12.6067 279.919 12.7C280.039 12.7533 280.126 12.86 280.179 13.02C280.246 13.1667 280.279 13.3333 280.279 13.52C280.279 13.7467 280.239 13.9533 280.159 14.14C280.159 14.2067 280.139 14.3067 280.099 14.44C280.072 14.5733 280.052 14.6667 280.039 14.72C279.932 14.9067 279.872 15.0733 279.859 15.22C279.859 15.3133 279.866 15.4067 279.879 15.5C279.906 15.5933 279.919 15.6933 279.919 15.8C279.919 15.96 279.886 16.08 279.819 16.16V16.14C279.766 16.3533 279.739 16.5667 279.739 16.78C279.739 16.9933 279.779 17.16 279.859 17.28C279.886 17.44 279.946 17.52 280.039 17.52C280.119 17.52 280.246 17.4533 280.419 17.32C280.739 17.0133 281.052 16.6267 281.359 16.16C281.666 15.6933 281.792 15.4067 281.739 15.3C281.726 15.2867 281.719 15.26 281.719 15.22C281.719 15.14 281.772 15.0667 281.879 15C281.999 14.92 282.079 14.86 282.119 14.82C282.159 14.7667 282.199 14.68 282.239 14.56C282.279 14.44 282.312 14.3533 282.339 14.3C282.406 14.2333 282.459 14.14 282.499 14.02L282.479 13.96C282.479 13.8933 282.526 13.82 282.619 13.74C282.712 13.6467 282.766 13.58 282.779 13.54C282.819 13.34 282.906 13.1867 283.039 13.08C283.186 12.9733 283.346 12.92 283.519 12.92C283.706 12.92 283.872 12.98 284.019 13.1C284.166 13.22 284.239 13.3867 284.239 13.6C284.239 13.8267 284.119 14.2267 283.879 14.8C283.652 15.36 283.392 15.8533 283.099 16.28C283.046 16.3733 282.959 16.5267 282.839 16.74C282.719 16.9533 282.472 17.3 282.099 17.78C282.019 17.86 281.912 17.9667 281.779 18.1C281.659 18.2333 281.552 18.34 281.459 18.42C280.739 19.2333 280.226 19.6467 279.919 19.66ZM286.6 19.82C286.16 19.6467 285.833 19.38 285.62 19.02C285.42 18.6467 285.32 18.1667 285.32 17.58C285.32 17.4467 285.333 17.2067 285.36 16.86C285.373 16.7533 285.38 16.6267 285.38 16.48C285.38 16.2533 285.353 16.0867 285.3 15.98C285.247 15.86 285.153 15.74 285.02 15.62C284.98 15.58 284.887 15.4933 284.74 15.36C284.593 15.2267 284.527 15.1267 284.54 15.06V15C284.54 14.9067 284.56 14.8067 284.6 14.7C284.653 14.58 284.7 14.5067 284.74 14.48C284.78 14.4667 284.86 14.4267 284.98 14.36C285.1 14.2933 285.193 14.2733 285.26 14.3C285.313 14.3 285.393 14.3333 285.5 14.4C285.62 14.4667 285.68 14.5267 285.68 14.58C285.76 14.74 285.967 14.48 286.3 13.8C286.487 13.52 286.74 13.2467 287.06 12.98C287.38 12.7 287.673 12.4867 287.94 12.34C288.033 12.3 288.24 12.2467 288.56 12.18C288.893 12.1 289.153 12.06 289.34 12.06C289.553 12.06 289.8 12.1467 290.08 12.32C290.373 12.4933 290.613 12.68 290.8 12.88C291.08 13.08 291.22 13.46 291.22 14.02C291.22 14.3533 291.167 14.64 291.06 14.88C291.007 15.08 290.74 15.3867 290.26 15.8C289.793 16.2 289.413 16.46 289.12 16.58C288.827 16.6467 288.5 16.68 288.14 16.68C287.78 16.68 287.533 16.6467 287.4 16.58C287.307 16.5267 287.227 16.5533 287.16 16.66C287.107 16.7533 287.06 16.9733 287.02 17.32L287 17.52C287 17.6667 287.033 17.8067 287.1 17.94C287.193 18.1 287.28 18.2133 287.36 18.28C287.44 18.3467 287.56 18.38 287.72 18.38L287.9 18.36C288.047 18.3467 288.2 18.2733 288.36 18.14C288.533 18.0067 288.733 17.8267 288.96 17.6C289.2 17.3733 289.34 17.24 289.38 17.2C289.447 17.0667 289.627 17 289.92 17C290.04 17 290.193 17.02 290.38 17.06C290.513 17.1667 290.58 17.3 290.58 17.46C290.58 17.6867 290.473 17.9933 290.26 18.38C290.193 18.5133 289.987 18.74 289.64 19.06C289.307 19.38 289.04 19.6 288.84 19.72C288.48 19.92 288.08 20.02 287.64 20.02C287.307 20.02 286.96 19.9533 286.6 19.82ZM288.08 15.32C288.4 15.24 288.647 15.1467 288.82 15.04C289.007 14.92 289.22 14.6933 289.46 14.36C289.567 14.04 289.587 13.8467 289.52 13.78C289.44 13.7 289.347 13.66 289.24 13.66C289.107 13.66 288.947 13.7333 288.76 13.88C288.627 13.92 288.44 14.0467 288.2 14.26C287.973 14.46 287.78 14.66 287.62 14.86C287.46 15.0467 287.413 15.16 287.48 15.2C287.453 15.24 287.52 15.2733 287.68 15.3C287.84 15.3133 287.973 15.32 288.08 15.32ZM293.12 19.46C292.933 19.3133 292.787 19.1733 292.68 19.04C292.573 18.9067 292.54 18.72 292.58 18.48C292.62 18.0267 292.72 17.5 292.88 16.9L292.98 16.5C293.02 16.14 293.227 15.4333 293.6 14.38C293.987 13.3133 294.307 12.5933 294.56 12.22C294.693 12.0867 294.92 12.02 295.24 12.02C295.507 12.02 295.693 12.0733 295.8 12.18C295.907 12.26 295.96 12.3933 295.96 12.58C295.96 12.8867 295.767 13.4267 295.38 14.2L295.18 14.62C295.087 14.7933 295.007 14.9533 294.94 15.1C294.887 15.2467 294.893 15.3133 294.96 15.3C295.107 15.0467 295.46 14.7 296.02 14.26C296.593 13.82 296.987 13.5467 297.2 13.44C297.293 13.3867 297.413 13.3333 297.56 13.28C297.707 13.2267 297.807 13.1867 297.86 13.16C298.1 13.04 298.373 12.98 298.68 12.98C298.893 12.98 299.073 13.0133 299.22 13.08C299.38 13.1333 299.487 13.22 299.54 13.34C299.553 13.4333 299.587 13.5067 299.64 13.56C299.707 13.6133 299.753 13.6467 299.78 13.66C299.82 13.66 299.847 13.68 299.86 13.72C299.873 13.7467 299.88 13.7667 299.88 13.78C299.88 13.8867 299.787 14.0267 299.6 14.2C299.413 14.36 299.22 14.4467 299.02 14.46C298.873 14.4733 298.72 14.5067 298.56 14.56C298.4 14.6133 298.24 14.68 298.08 14.76L297.56 15.06C297.107 15.2867 296.72 15.5133 296.4 15.74C296.093 15.9533 295.78 16.2333 295.46 16.58C295.393 16.6467 295.293 16.74 295.16 16.86C295.04 16.98 294.933 17.12 294.84 17.28C294.747 17.3733 294.647 17.62 294.54 18.02C294.447 18.4067 294.4 18.6467 294.4 18.74C294.387 18.78 294.36 18.86 294.32 18.98C294.28 19.1 294.22 19.2067 294.14 19.3C294.02 19.4467 293.92 19.5533 293.84 19.62C293.76 19.6867 293.673 19.72 293.58 19.72C293.447 19.72 293.293 19.6333 293.12 19.46ZM306.767 12.58C306.887 12.82 306.947 13.0933 306.947 13.4C306.947 13.7867 306.86 14.1067 306.687 14.36C306.554 14.5467 306.434 14.8267 306.327 15.2C306.234 15.5733 306.14 16.0733 306.047 16.7C305.927 17.2067 305.78 17.9867 305.607 19.04C305.394 19.6 305.26 20.02 305.207 20.3C305.194 20.38 305.127 20.5467 305.007 20.8C304.9 21.0533 304.814 21.2533 304.747 21.4C304.147 22.6133 303.434 23.5267 302.607 24.14C301.794 24.7533 300.96 25.0867 300.107 25.14C299.894 25.1667 299.767 25.18 299.727 25.18C299.607 25.18 299.494 25.16 299.387 25.12C299.294 25.08 299.187 25.0267 299.067 24.96C298.8 24.7733 298.647 24.64 298.607 24.56C298.54 24.4267 298.507 24.2933 298.507 24.16C298.507 23.96 298.6 23.82 298.787 23.74C298.974 23.6733 299.187 23.64 299.427 23.64C299.52 23.6933 299.68 23.72 299.907 23.72C300.134 23.72 300.267 23.6933 300.307 23.64C300.334 23.6133 300.414 23.5667 300.547 23.5C300.68 23.4467 300.834 23.4 301.007 23.36C301.447 23.1467 301.78 22.9333 302.007 22.72C302.247 22.5067 302.507 22.1667 302.787 21.7C303.12 21.1933 303.34 20.7333 303.447 20.32C303.62 19.88 303.827 19.2267 304.067 18.36L304.047 18.38C303.98 18.46 303.814 18.58 303.547 18.74C303.28 18.8867 303.12 18.96 303.067 18.96C303.054 18.96 303.034 18.9667 303.007 18.98C302.98 18.9933 302.967 19.02 302.967 19.06C302.967 19.1133 302.794 19.2 302.447 19.32C302.1 19.4267 301.88 19.48 301.787 19.48C301.654 19.48 301.507 19.4067 301.347 19.26C301.2 19.1133 301.094 18.98 301.027 18.86C300.974 18.74 300.874 18.62 300.727 18.5C300.567 18.34 300.447 18.2 300.367 18.08C300.287 17.9467 300.247 17.7933 300.247 17.62C300.247 17.5267 300.254 17.4533 300.267 17.4C300.427 16.8 300.72 15.88 301.147 14.64C301.587 13.3867 301.907 12.6067 302.107 12.3C302.16 12.22 302.26 12.1533 302.407 12.1C302.554 12.0467 302.7 12.02 302.847 12.02C303.114 12.02 303.294 12.1 303.387 12.26C303.547 12.4867 303.627 12.68 303.627 12.84C303.627 13.0267 303.534 13.3 303.347 13.66C303.294 13.8067 303.227 13.9667 303.147 14.14C303.067 14.3133 303.027 14.42 303.027 14.46C303.014 14.5133 302.974 14.68 302.907 14.96C302.84 15.2267 302.78 15.36 302.727 15.36C302.647 15.44 302.554 15.72 302.447 16.2C302.354 16.6667 302.307 17.04 302.307 17.32C302.307 17.48 302.327 17.56 302.367 17.56C302.727 17.56 303.074 17.4667 303.407 17.28C303.74 17.08 304.087 16.7667 304.447 16.34C304.5 16.0067 304.574 15.6467 304.667 15.26C304.774 14.8733 304.847 14.6133 304.887 14.48C305.127 13.6533 305.287 12.9867 305.367 12.48C305.447 12.2933 305.507 12.1867 305.547 12.16C305.587 12.12 305.674 12.1 305.807 12.1C305.967 12.1 306.14 12.1467 306.327 12.24C306.527 12.3333 306.674 12.4467 306.767 12.58Z" fill="#18293E"/>
<path d="M526.13 63.24C525.956 63.2533 525.796 63.2133 525.65 63.12C525.516 63.04 525.423 62.9333 525.37 62.8C525.303 62.7333 525.21 62.5867 525.09 62.36C524.983 62.1333 524.916 61.9467 524.89 61.8C524.836 61.16 524.81 60.6933 524.81 60.4C524.81 60.0267 524.83 59.52 524.87 58.88C524.923 58.2133 525.016 57.6333 525.15 57.14C525.296 56.6467 525.47 56.12 525.67 55.56C525.723 55.44 525.763 55.34 525.79 55.26C525.816 55.18 525.816 55.14 525.79 55.14C525.696 55.1533 525.53 55.4333 525.29 55.98C525.25 56.06 525.196 56.1667 525.13 56.3C525.076 56.4333 525.003 56.58 524.91 56.74C524.536 57.5667 523.85 58.82 522.85 60.5C522.73 60.6467 522.563 60.88 522.35 61.2C521.936 61.8267 521.596 62.26 521.33 62.5C520.956 62.86 520.563 63.04 520.15 63.04C519.976 63.04 519.783 62.9933 519.57 62.9C519.356 62.8733 519.15 62.7267 518.95 62.46C518.75 62.1933 518.676 61.94 518.73 61.7C518.69 61.3667 518.723 60.6867 518.83 59.66C518.95 58.62 519.07 57.7533 519.19 57.06C519.283 56.42 519.49 55.3667 519.81 53.9L520.25 51.74C520.33 51.54 520.456 51.14 520.63 50.54L520.81 49.88C520.823 49.6667 520.89 49.5133 521.01 49.42C521.143 49.3133 521.303 49.26 521.49 49.26C521.65 49.26 521.803 49.2933 521.95 49.36C522.096 49.4133 522.203 49.4867 522.27 49.58C522.55 49.8867 522.69 50.22 522.69 50.58C522.69 50.7933 522.643 51.02 522.55 51.26C521.95 52.7267 521.47 54.66 521.11 57.06C520.976 57.8867 520.856 58.6667 520.75 59.4C520.656 60.1333 520.636 60.5067 520.69 60.52C520.89 60.5733 521.143 60.28 521.45 59.64C522.33 58.1867 523.336 56.3533 524.47 54.14C524.496 54.1 524.79 53.5533 525.35 52.5L525.83 51.6L526.15 51.02C526.496 50.3933 526.77 49.92 526.97 49.6C527.17 49.28 527.316 49.1 527.41 49.06C527.743 49.06 527.996 49.1467 528.17 49.32C528.356 49.48 528.516 49.7133 528.65 50.02C528.676 50.1267 528.69 50.2533 528.69 50.4C528.69 50.5333 528.67 50.66 528.63 50.78C528.603 50.86 528.536 51.06 528.43 51.38C528.336 51.7 528.256 52.02 528.19 52.34C527.936 53.0067 527.75 53.6533 527.63 54.28C527.576 54.5333 527.523 54.78 527.47 55.02C527.416 55.26 527.37 55.4867 527.33 55.7C527.103 56.7 526.93 57.5333 526.81 58.2C526.703 58.8667 526.643 59.46 526.63 59.98C526.616 60.3267 526.616 60.56 526.63 60.68C526.656 60.8 526.696 60.9267 526.75 61.06C526.763 61.1267 526.796 61.16 526.85 61.16C526.93 61.16 527.05 61.06 527.21 60.86C527.396 60.6067 527.543 60.36 527.65 60.12C527.77 59.88 527.85 59.72 527.89 59.64C528.05 59.2533 528.216 58.9067 528.39 58.6C528.856 57.72 529.356 56.7067 529.89 55.56C530.436 54.4133 530.903 53.3867 531.29 52.48C531.676 51.3733 531.976 50.5867 532.19 50.12C532.416 49.64 532.63 49.34 532.83 49.22C532.91 49.1667 533.036 49.14 533.21 49.14C533.463 49.14 533.65 49.1933 533.77 49.3C533.796 49.3133 533.883 49.3867 534.03 49.52C534.176 49.6533 534.243 49.8067 534.23 49.98C534.11 50.3933 533.783 51.26 533.25 52.58C532.716 53.9 532.303 54.88 532.01 55.52C531.956 55.6133 531.85 55.7933 531.69 56.06C531.663 56.1 531.603 56.2 531.51 56.36C531.43 56.5067 531.39 56.62 531.39 56.7C531.39 56.8333 531.036 57.5333 530.33 58.8C529.636 60.0533 529.123 60.8933 528.79 61.32C528.483 61.7067 528.143 62.04 527.77 62.32C527.396 62.6133 527.056 62.84 526.75 63C526.443 63.16 526.236 63.24 526.13 63.24ZM536.09 53.64C535.956 53.5467 535.85 53.4267 535.77 53.28C535.69 53.1333 535.643 52.9933 535.63 52.86C535.616 52.7267 535.63 52.6467 535.67 52.62C535.75 52.5267 535.83 52.4 535.91 52.24C535.99 52.08 536.05 51.9667 536.09 51.9C536.196 51.66 536.283 51.4867 536.35 51.38C536.443 51.1933 536.53 51.0933 536.61 51.08C536.716 51.0267 536.803 51 536.87 51C537.043 51 537.23 51.06 537.43 51.18C537.643 51.3 537.803 51.44 537.91 51.6C538.003 51.8133 538.05 52 538.05 52.16C538.05 52.48 537.896 52.8333 537.59 53.22C537.456 53.3933 537.296 53.5267 537.11 53.62C536.923 53.7133 536.736 53.76 536.55 53.76C536.363 53.76 536.21 53.72 536.09 53.64ZM533.93 61.66C533.743 61.4733 533.65 61.14 533.65 60.66C533.65 60.4067 533.683 60.2133 533.75 60.08C533.75 60.0133 533.763 59.9333 533.79 59.84C533.816 59.7467 533.83 59.6867 533.83 59.66C533.816 59.58 533.87 59.36 533.99 59C534.15 58.64 534.35 58.0867 534.59 57.34C534.843 56.5933 535.016 56.06 535.11 55.74C535.11 55.6733 535.136 55.62 535.19 55.58C535.243 55.5267 535.323 55.4933 535.43 55.48C535.576 55.4267 535.763 55.4933 535.99 55.68C536.216 55.8533 536.403 56.0533 536.55 56.28C536.63 56.36 536.67 56.4667 536.67 56.6C536.67 56.8 536.583 57.08 536.41 57.44C536.343 57.5867 536.276 57.7667 536.21 57.98C536.156 58.1933 536.11 58.3933 536.07 58.58C535.91 58.94 535.783 59.2733 535.69 59.58C535.65 59.7533 535.623 59.8867 535.61 59.98C535.516 60.4733 535.43 60.7933 535.35 60.94C535.27 61.2733 535.156 61.5267 535.01 61.7C534.863 61.86 534.696 61.94 534.51 61.94C534.283 61.94 534.09 61.8467 533.93 61.66ZM538.975 61.46C538.789 61.3133 538.642 61.1733 538.535 61.04C538.429 60.9067 538.395 60.72 538.435 60.48C538.475 60.0267 538.575 59.5 538.735 58.9L538.835 58.5C538.875 58.14 539.082 57.4333 539.455 56.38C539.842 55.3133 540.162 54.5933 540.415 54.22C540.549 54.0867 540.775 54.02 541.095 54.02C541.362 54.02 541.549 54.0733 541.655 54.18C541.762 54.26 541.815 54.3933 541.815 54.58C541.815 54.8867 541.622 55.4267 541.235 56.2L541.035 56.62C540.942 56.7933 540.862 56.9533 540.795 57.1C540.742 57.2467 540.749 57.3133 540.815 57.3C540.962 57.0467 541.315 56.7 541.875 56.26C542.449 55.82 542.842 55.5467 543.055 55.44C543.149 55.3867 543.269 55.3333 543.415 55.28C543.562 55.2267 543.662 55.1867 543.715 55.16C543.955 55.04 544.229 54.98 544.535 54.98C544.749 54.98 544.929 55.0133 545.075 55.08C545.235 55.1333 545.342 55.22 545.395 55.34C545.409 55.4333 545.442 55.5067 545.495 55.56C545.562 55.6133 545.609 55.6467 545.635 55.66C545.675 55.66 545.702 55.68 545.715 55.72C545.729 55.7467 545.735 55.7667 545.735 55.78C545.735 55.8867 545.642 56.0267 545.455 56.2C545.269 56.36 545.075 56.4467 544.875 56.46C544.729 56.4733 544.575 56.5067 544.415 56.56C544.255 56.6133 544.095 56.68 543.935 56.76L543.415 57.06C542.962 57.2867 542.575 57.5133 542.255 57.74C541.949 57.9533 541.635 58.2333 541.315 58.58C541.249 58.6467 541.149 58.74 541.015 58.86C540.895 58.98 540.789 59.12 540.695 59.28C540.602 59.3733 540.502 59.62 540.395 60.02C540.302 60.4067 540.255 60.6467 540.255 60.74C540.242 60.78 540.215 60.86 540.175 60.98C540.135 61.1 540.075 61.2067 539.995 61.3C539.875 61.4467 539.775 61.5533 539.695 61.62C539.615 61.6867 539.529 61.72 539.435 61.72C539.302 61.72 539.149 61.6333 538.975 61.46ZM548.622 62.36C547.102 62.36 546.342 61.4933 546.342 59.76C546.342 59.1333 546.496 58.4267 546.802 57.64C547.122 56.84 547.516 56.1267 547.982 55.5C548.462 54.86 548.936 54.4333 549.402 54.22C549.656 54.0867 549.949 54.02 550.282 54.02C550.882 54.02 551.402 54.1533 551.842 54.42C552.296 54.6733 552.522 55.16 552.522 55.88C552.522 56.2933 552.382 56.7467 552.102 57.24C551.822 57.7333 551.469 58.1533 551.042 58.5C550.629 58.8333 550.222 59 549.822 59C549.222 59 548.716 58.8067 548.302 58.42C548.076 58.8733 547.962 59.3067 547.962 59.72C547.962 60.0533 548.002 60.3133 548.082 60.5C548.162 60.6733 548.349 60.76 548.642 60.76C548.922 60.76 549.149 60.72 549.322 60.64C549.496 60.56 549.656 60.4667 549.802 60.36C549.949 60.2533 550.062 60.1733 550.142 60.12L550.222 60.08H550.202C550.442 59.9467 550.616 59.8467 550.722 59.78C550.842 59.7 550.942 59.6467 551.022 59.62C551.222 59.62 551.409 59.68 551.582 59.8C551.756 59.92 551.842 60.0667 551.842 60.24C551.842 60.3733 551.722 60.5933 551.482 60.9C551.242 61.1933 550.996 61.4 550.742 61.52L550.502 61.64H550.522C550.402 61.8 550.282 61.88 550.162 61.88H550.002C549.949 61.9867 549.769 62.0933 549.462 62.2C549.169 62.3067 548.889 62.36 548.622 62.36ZM549.662 57.54C550.036 57.54 550.342 57.38 550.582 57.06C550.836 56.74 550.962 56.42 550.962 56.1C550.962 55.9533 550.922 55.82 550.842 55.7C550.776 55.58 550.682 55.52 550.562 55.52C550.336 55.52 550.082 55.6267 549.802 55.84C549.522 56.0533 549.276 56.3333 549.062 56.68L548.802 57.1C548.856 57.0733 548.896 57.06 548.922 57.06C549.029 57.06 549.109 57.1067 549.162 57.2C549.216 57.2933 549.276 57.3733 549.342 57.44C549.409 57.5067 549.516 57.54 549.662 57.54ZM555.062 63.74C554.889 63.7533 554.715 63.6467 554.542 63.42C554.369 63.1933 554.222 62.8867 554.102 62.5C553.995 62.1267 553.942 61.7267 553.942 61.3C553.929 61.1933 553.922 61.0333 553.922 60.82C553.922 59.8733 554.195 58.4467 554.742 56.54C554.929 55.8733 555.282 54.94 555.802 53.74C556.322 52.54 556.635 51.8933 556.742 51.8H556.782C556.835 51.8 556.862 51.74 556.862 51.62C556.862 51.5933 556.915 51.4933 557.022 51.32C557.129 51.1333 557.229 50.9467 557.322 50.76C557.602 50.36 557.969 49.9467 558.422 49.52C558.889 49.08 559.275 48.8 559.582 48.68C559.782 48.6 559.982 48.56 560.182 48.56C560.435 48.56 560.715 48.6467 561.022 48.82C561.329 48.98 561.589 49.1867 561.802 49.44C562.015 49.6933 562.122 49.94 562.122 50.18C562.122 50.3933 562.075 50.6 561.982 50.8C561.915 51.0667 561.789 51.3867 561.602 51.76C561.415 52.1333 561.255 52.4133 561.122 52.6C560.829 52.8267 560.555 52.94 560.302 52.94C560.182 52.94 560.089 52.9133 560.022 52.86C559.969 52.8067 559.962 52.7533 560.002 52.7C560.015 52.6067 560.035 52.4933 560.062 52.36C560.102 52.2133 560.129 52.0733 560.142 51.94C560.142 51.9133 560.169 51.8333 560.222 51.7C560.289 51.5533 560.322 51.42 560.322 51.3C560.442 50.8333 560.502 50.5267 560.502 50.38C560.502 50.22 560.435 50.14 560.302 50.14C560.182 50.1267 560.055 50.1667 559.922 50.26C559.802 50.34 559.742 50.4267 559.742 50.52V50.6C559.675 50.5867 559.449 50.8267 559.062 51.32C558.689 51.8133 558.382 52.26 558.142 52.66C557.929 53.1133 557.635 53.8067 557.262 54.74L557.102 55.22L557.422 55.26C557.529 55.2733 557.855 55.2267 558.402 55.12C558.482 55.1067 558.595 55.1 558.742 55.1C559.022 55.1 559.229 55.16 559.362 55.28C559.509 55.4 559.629 55.5733 559.722 55.8C559.775 55.9333 559.802 56.0267 559.802 56.08C559.802 56.28 559.635 56.4267 559.302 56.52C558.969 56.6 558.369 56.66 557.502 56.7C557.382 56.6867 557.229 56.68 557.042 56.68C556.829 56.68 556.695 56.7067 556.642 56.76C556.562 56.8 556.435 57.0867 556.262 57.62C556.102 58.1533 555.982 58.6533 555.902 59.12C555.755 59.6933 555.682 60.3667 555.682 61.14C555.682 61.8333 555.729 62.3533 555.822 62.7C555.835 62.7533 555.842 62.82 555.842 62.9C555.842 63.2733 555.582 63.5533 555.062 63.74ZM561.478 61.7C561.385 61.7 561.258 61.6333 561.098 61.5C560.951 61.3667 560.865 61.2467 560.838 61.14C560.825 61.1133 560.818 61.0533 560.818 60.96C560.818 60.7867 560.898 60.4467 561.058 59.94L561.198 59.3C561.331 58.7133 561.451 58.22 561.558 57.82C561.598 57.74 561.678 57.5133 561.798 57.14C561.878 56.8467 561.985 56.56 562.118 56.28C562.278 55.68 562.531 55.0867 562.878 54.5C562.918 54.4333 562.985 54.3533 563.078 54.26C563.171 54.1667 563.238 54.12 563.278 54.12C563.358 54.04 563.471 54 563.618 54C563.831 54 564.025 54.0733 564.198 54.22C564.371 54.42 564.458 54.6333 564.458 54.86C564.458 55.1133 564.365 55.4267 564.178 55.8C564.071 56.0933 563.898 56.4667 563.658 56.92C563.471 57.2533 563.358 57.4733 563.318 57.58C563.478 57.3667 563.825 56.9667 564.358 56.38C564.518 56.2067 564.671 56.0667 564.818 55.96C564.965 55.84 565.185 55.6867 565.478 55.5C565.771 55.2867 566.005 55.14 566.178 55.06C566.351 54.9667 566.551 54.92 566.778 54.92C566.885 54.92 566.965 54.9267 567.018 54.94C567.191 54.9267 567.371 55.04 567.558 55.28C567.758 55.52 567.858 55.7933 567.858 56.1C567.858 56.22 567.838 56.34 567.798 56.46C567.638 56.4333 567.525 56.42 567.458 56.42C567.191 56.42 566.951 56.4733 566.738 56.58C566.538 56.6867 566.371 56.7933 566.238 56.9C566.105 56.9933 566.018 57.0533 565.978 57.08C565.511 57.3867 564.958 57.8 564.318 58.32C563.998 58.5867 563.758 58.82 563.598 59.02C563.438 59.22 563.311 59.4333 563.218 59.66C563.191 59.74 563.065 60.0533 562.838 60.6C562.611 61.1333 562.438 61.4467 562.318 61.54C562.251 61.6867 562.078 61.76 561.798 61.76C561.651 61.76 561.545 61.74 561.478 61.7ZM570.065 61.64C569.838 61.6933 569.565 61.5733 569.245 61.28C568.925 60.9867 568.738 60.7133 568.685 60.46C568.658 60.3267 568.645 60.2133 568.645 60.12C568.645 59.6 568.812 58.9733 569.145 58.24C569.478 57.4933 569.925 56.7933 570.485 56.14C571.058 55.4867 571.685 55.0133 572.365 54.72C572.645 54.5733 572.825 54.5 572.905 54.5C572.985 54.5 573.165 54.5733 573.445 54.72C573.712 54.7867 573.925 54.86 574.085 54.94C574.245 55.02 574.392 55.1467 574.525 55.32C574.698 55.6667 574.825 56.0933 574.905 56.6C574.985 56.88 575.025 57.08 575.025 57.2C575.025 57.3067 574.985 57.4 574.905 57.48C574.892 57.4933 574.865 57.52 574.825 57.56C574.798 57.6 574.785 57.6333 574.785 57.66C574.785 57.6733 574.798 57.68 574.825 57.68C574.825 57.6933 574.818 57.7267 574.805 57.78C574.792 57.82 574.765 57.88 574.725 57.96C574.565 58.4667 574.485 58.86 574.485 59.14C574.485 59.2333 574.498 59.3467 574.525 59.48C574.658 59.8267 574.825 60 575.025 60C575.212 60 575.425 59.88 575.665 59.64C575.865 59.5067 576.065 59.44 576.265 59.44C576.385 59.44 576.445 59.4733 576.445 59.54C576.458 59.5533 576.485 59.5733 576.525 59.6C576.565 59.6267 576.605 59.64 576.645 59.64C576.698 59.64 576.725 59.7 576.725 59.82C576.725 59.9267 576.698 60.0667 576.645 60.24C576.605 60.4133 576.552 60.5533 576.485 60.66C576.392 60.7533 576.318 60.8333 576.265 60.9C576.212 60.9667 576.185 61.02 576.185 61.06L575.885 61.34C575.632 61.4867 575.332 61.56 574.985 61.56C574.625 61.56 574.338 61.4867 574.125 61.34C573.912 61.1933 573.712 61.0133 573.525 60.8C573.338 60.5733 573.218 60.3733 573.165 60.2L573.065 60L572.485 60.38L571.985 60.9C571.878 61.0333 571.785 61.1 571.705 61.1H571.505C571.505 61.1933 571.318 61.3067 570.945 61.44C570.572 61.5733 570.278 61.64 570.065 61.64ZM570.485 59.96C570.632 59.96 570.932 59.7933 571.385 59.46C571.852 59.1133 572.165 58.84 572.325 58.64C572.378 58.5733 572.445 58.48 572.525 58.36C572.618 58.2267 572.698 58.1267 572.765 58.06C572.978 57.8067 573.132 57.6067 573.225 57.46C573.332 57.3 573.385 57.1467 573.385 57C573.385 56.8933 573.338 56.7467 573.245 56.56C573.192 56.4 573.112 56.32 573.005 56.32C572.952 56.32 572.798 56.3667 572.545 56.46C572.292 56.6067 571.992 56.9067 571.645 57.36C571.312 57.8133 571.018 58.2733 570.765 58.74C570.512 59.2067 570.385 59.5467 570.385 59.76C570.385 59.8 570.398 59.84 570.425 59.88C570.452 59.92 570.472 59.9467 570.485 59.96ZM587.644 61.54C587.471 61.54 587.337 61.5133 587.244 61.46C587.137 61.42 586.997 61.3267 586.824 61.18C586.664 61.02 586.517 60.8 586.384 60.52C586.264 60.2267 586.204 59.88 586.204 59.48C586.204 59.2267 586.217 59.0067 586.244 58.82C586.284 58.62 586.304 58.4933 586.304 58.44C586.304 58.3733 586.284 58.34 586.244 58.34C585.897 58.34 585.144 58.9733 583.984 60.24C583.944 60.2667 583.911 60.3 583.884 60.34C583.724 60.46 583.577 60.5867 583.444 60.72C583.244 60.9067 583.077 61.0467 582.944 61.14C582.824 61.22 582.691 61.2667 582.544 61.28C582.451 61.28 582.351 61.24 582.244 61.16L582.024 60.98C581.957 60.94 581.897 60.8667 581.844 60.76C581.791 60.6533 581.764 60.5533 581.764 60.46V60.4V60.36L582.224 59.02C582.557 58.2867 582.724 57.8533 582.724 57.72C582.724 57.6933 582.717 57.68 582.704 57.68C582.584 57.6667 582.404 57.7733 582.164 58C581.937 58.2133 581.611 58.5533 581.184 59.02L580.284 59.96C580.177 60.0667 579.891 60.3867 579.424 60.92C579.131 61.28 578.977 61.46 578.964 61.46C578.671 61.46 578.404 61.3467 578.164 61.12C577.937 60.8933 577.824 60.62 577.824 60.3C577.824 60.14 577.851 59.9267 577.904 59.66C577.957 59.3933 578.017 59.1133 578.084 58.82C578.111 58.7133 578.137 58.5933 578.164 58.46C578.204 58.3267 578.244 58.1733 578.284 58C578.311 57.8667 578.337 57.72 578.364 57.56C578.404 57.4 578.477 57.1933 578.584 56.94C578.691 56.6733 578.844 56.3067 579.044 55.84C579.097 55.6667 579.124 55.4867 579.124 55.3C579.124 55.2067 579.117 55.12 579.104 55.04C579.091 54.9467 579.084 54.8867 579.084 54.86C579.084 54.66 579.177 54.4933 579.364 54.36C579.564 54.2133 579.784 54.14 580.024 54.14C580.371 54.14 580.631 54.2667 580.804 54.52C580.977 54.76 581.064 55.0133 581.064 55.28C581.064 55.5067 581.011 55.7267 580.904 55.94L580.684 56.48C580.631 56.6 580.531 56.82 580.384 57.14C580.251 57.4467 580.184 57.6333 580.184 57.7C580.184 57.74 580.197 57.76 580.224 57.76H580.244C580.311 57.76 580.417 57.6867 580.564 57.54C580.991 57.14 581.504 56.7267 582.104 56.3C582.717 55.86 583.157 55.6 583.424 55.52C583.531 55.52 583.671 55.5733 583.844 55.68C584.017 55.7867 584.171 55.9333 584.304 56.12C584.437 56.2933 584.504 56.4867 584.504 56.7L584.484 56.86C584.471 56.9133 584.411 57.14 584.304 57.54C584.211 57.94 584.137 58.1733 584.084 58.24C584.337 57.9467 584.777 57.5867 585.404 57.16C586.031 56.72 586.491 56.4933 586.784 56.48C587.224 56.48 587.511 56.66 587.644 57.02C587.777 57.38 587.871 57.9067 587.924 58.6C587.977 59.2533 588.051 59.6933 588.144 59.92C588.171 60 588.264 60.0667 588.424 60.12C588.584 60.1733 588.711 60.24 588.804 60.32C588.911 60.3867 588.964 60.5267 588.964 60.74C588.964 61.0333 588.831 61.24 588.564 61.36C588.311 61.48 588.004 61.54 587.644 61.54ZM592.711 62C591.951 62 591.337 61.7867 590.871 61.36C590.404 60.9333 590.171 60.3267 590.171 59.54C590.171 59.2333 590.191 58.8933 590.231 58.52C590.257 58.2 590.384 57.76 590.611 57.2C590.851 56.64 591.171 56.0933 591.571 55.56C591.984 55.0267 592.464 54.6333 593.011 54.38C593.264 54.26 593.477 54.18 593.651 54.14C593.824 54.0867 594.024 54.06 594.251 54.06C594.797 54.06 595.237 54.16 595.571 54.36C595.917 54.56 596.157 54.7867 596.291 55.04C596.437 55.2933 596.511 55.5133 596.511 55.7V55.8V55.86C596.511 56.02 596.417 56.3133 596.231 56.74C596.044 57.1667 595.744 57.5667 595.331 57.94C594.931 58.3133 594.411 58.52 593.771 58.56C593.451 58.56 593.137 58.5333 592.831 58.48C592.537 58.4133 592.351 58.38 592.271 58.38C592.071 58.38 591.944 58.4533 591.891 58.6C591.837 58.7467 591.811 58.9933 591.811 59.34C591.851 59.7133 591.951 59.9733 592.111 60.12C592.284 60.2667 592.531 60.34 592.851 60.34C593.011 60.34 593.197 60.2933 593.411 60.2C593.624 60.0933 593.877 59.9267 594.171 59.7C594.331 59.5667 594.457 59.4733 594.551 59.42C594.644 59.3667 594.757 59.34 594.891 59.34C595.011 59.34 595.151 59.42 595.311 59.58C595.471 59.74 595.557 59.8933 595.571 60.04C595.544 60.2 595.397 60.44 595.131 60.76C594.864 61.08 594.517 61.3667 594.091 61.62C593.664 61.8733 593.204 62 592.711 62ZM593.411 57.18C593.664 57.18 593.837 57.1533 593.931 57.1C594.064 57.0333 594.264 56.8667 594.531 56.6C594.811 56.32 594.957 56.1267 594.971 56.02C594.971 55.8867 594.911 55.78 594.791 55.7C594.684 55.6067 594.531 55.5467 594.331 55.52H594.111C593.937 55.52 593.684 55.6667 593.351 55.96C593.031 56.24 592.751 56.5667 592.511 56.94C592.524 57.0067 592.624 57.0667 592.811 57.12C592.997 57.16 593.197 57.18 593.411 57.18Z" fill="#18293E"/>
<path d="M812.476 9.98C812.476 10.4467 812.41 11.0333 812.276 11.74C812.156 12.4333 811.996 13.04 811.796 13.56C811.61 14.08 811.43 14.34 811.256 14.34C811.243 14.34 811.216 14.3467 811.176 14.36C811.15 14.3733 811.136 14.4067 811.136 14.46C811.163 14.5667 811.13 14.7867 811.036 15.12C810.956 15.4533 810.823 15.8 810.636 16.16C810.103 17.64 809.423 18.86 808.596 19.82L808.836 20.24C808.863 20.3333 808.943 20.4867 809.076 20.7C809.236 20.94 809.336 21.1267 809.376 21.26C809.63 21.6467 809.756 21.9467 809.756 22.16C809.756 22.4267 809.543 22.5467 809.116 22.52C808.876 22.5333 808.616 22.4867 808.336 22.38C808.07 22.2733 807.916 22.1333 807.876 21.96C807.796 21.88 807.75 21.8 807.736 21.72C807.723 21.6533 807.71 21.6067 807.696 21.58C807.643 21.5533 807.57 21.4867 807.476 21.38C807.396 21.2733 807.336 21.1533 807.296 21.02C806.616 21.5 805.943 21.74 805.276 21.74C805.156 21.74 805.063 21.7333 804.996 21.72C804.69 21.6667 804.303 21.4667 803.836 21.12C803.37 20.7867 803.07 20.4733 802.936 20.18C802.563 19.42 802.376 18.5933 802.376 17.7C802.376 17.0067 802.476 16.18 802.676 15.22C802.81 14.7133 803.03 14.0133 803.336 13.12C803.643 12.2133 803.823 11.76 803.876 11.76C803.916 11.72 803.936 11.6067 803.936 11.42C803.936 11.2733 804.143 10.8733 804.556 10.22C804.97 9.56667 805.336 9.1 805.656 8.82C805.95 8.43333 806.263 8.08 806.596 7.76C806.943 7.42667 807.27 7.18 807.576 7.02C807.683 6.95333 807.93 6.86667 808.316 6.76C808.716 6.64 809.023 6.57333 809.236 6.56C809.89 6.52 810.43 6.62 810.856 6.86C811.296 7.1 811.65 7.48667 811.916 8.02C812.103 8.23333 812.223 8.44667 812.276 8.66C812.343 8.87333 812.396 9.16667 812.436 9.54C812.436 9.62 812.45 9.76667 812.476 9.98ZM810.676 10.02C810.703 9.72667 810.716 9.54 810.716 9.46C810.716 9.12667 810.65 8.88 810.516 8.72C810.396 8.54667 810.196 8.39333 809.916 8.26C809.69 8.19333 809.496 8.16 809.336 8.16C808.736 8.16 808.143 8.46 807.556 9.06C806.97 9.64667 806.436 10.52 805.956 11.68C805.316 13.0533 804.85 14.2067 804.556 15.14C804.276 16.06 804.136 16.8933 804.136 17.64C804.136 18.1067 804.183 18.5267 804.276 18.9C804.343 19.66 804.59 20.04 805.016 20.04C805.136 20.04 805.23 20.0267 805.296 20C805.723 19.9333 806.123 19.7467 806.496 19.44L806.036 18.58C805.73 17.9667 805.55 17.6333 805.496 17.58C805.456 17.54 805.436 17.4867 805.436 17.42C805.436 17.3267 805.47 17.2467 805.536 17.18C805.603 17.0333 805.716 16.9 805.876 16.78C806.05 16.66 806.236 16.6 806.436 16.6C806.53 16.6 806.603 16.6067 806.656 16.62C806.963 16.62 807.243 16.94 807.496 17.58C807.523 17.7 807.583 17.86 807.676 18.06C808.29 17.1 808.903 15.7467 809.516 14C809.596 13.7867 809.696 13.5467 809.816 13.28C810.083 12.68 810.29 12.1267 810.436 11.62C810.583 11.1133 810.663 10.58 810.676 10.02ZM812.16 20.66C812.014 20.58 811.907 20.5067 811.84 20.44C811.787 20.3733 811.76 20.2867 811.76 20.18C811.76 20.0467 811.814 19.86 811.92 19.62C812.04 19.3667 812.24 18.9733 812.52 18.44C812.6 18.2667 812.754 17.96 812.98 17.52C813.554 16.4267 813.84 15.62 813.84 15.1C813.827 15.0733 813.82 15.0333 813.82 14.98C813.82 14.8467 813.927 14.7267 814.14 14.62C814.18 14.58 814.32 14.4667 814.56 14.28C814.814 14.0933 815.014 13.88 815.16 13.64C815.334 13.24 815.554 12.8 815.82 12.32C816.087 11.8267 816.547 11.0267 817.2 9.92C817.84 8.74667 818.52 7.68667 819.24 6.74C819.374 6.55333 819.52 6.40667 819.68 6.3C819.854 6.19333 820 6.14 820.12 6.14C820.534 6.14 820.954 6.3 821.38 6.62C821.82 6.94 822.107 7.26 822.24 7.58C822.294 7.67333 822.32 7.87333 822.32 8.18C822.32 8.59333 822.274 9.29333 822.18 10.28C822.154 10.4533 822.127 10.7267 822.1 11.1C822.06 11.7 822 12.34 821.92 13.02C821.774 14.5133 821.667 15.68 821.6 16.52C821.534 17.36 821.5 18.1467 821.5 18.88C821.5 19.2533 821.507 19.5267 821.52 19.7V19.84L821.5 20.3C821.42 20.38 821.26 20.42 821.02 20.42C820.754 20.42 820.487 20.3733 820.22 20.28C819.954 20.2 819.807 20.1 819.78 19.98C819.767 19.9667 819.747 19.9533 819.72 19.94C819.694 19.9267 819.68 19.8667 819.68 19.76L819.7 19.32L819.76 18.2L819.86 15.14L819.6 15.16C819.334 15.16 818.767 15.2133 817.9 15.32C817.047 15.4267 816.507 15.5133 816.28 15.58C816.16 15.58 816.014 15.66 815.84 15.82C815.667 15.98 815.514 16.1867 815.38 16.44C815.34 16.5733 815.247 16.7667 815.1 17.02C814.954 17.26 814.88 17.4 814.88 17.44C814.8 17.4933 814.727 17.5667 814.66 17.66C814.607 17.74 814.574 17.7933 814.56 17.82C814.56 17.9667 814.427 18.3467 814.16 18.96C813.907 19.56 813.654 20.0533 813.4 20.44L812.86 21.2L812.16 20.66ZM816.94 13.78C817.034 13.7667 817.22 13.74 817.5 13.7C817.78 13.6467 818.027 13.6133 818.24 13.6C818.88 13.44 819.32 13.36 819.56 13.36C819.694 13.36 819.787 13.3733 819.84 13.4C819.88 13.4533 819.92 13.4933 819.96 13.52C820.014 13.5333 820.047 13.54 820.06 13.54C820.087 13.4333 820.194 12.7067 820.38 11.36C820.567 10.0133 820.66 9.18667 820.66 8.88C820.66 8.66667 820.654 8.48667 820.64 8.34C820.627 8.18 820.614 8.08 820.6 8.04C820.48 8.04 820.207 8.36 819.78 9C819.354 9.62667 818.94 10.34 818.54 11.14C818.234 11.6867 818.02 11.96 817.9 11.96C817.807 12.0533 817.607 12.3667 817.3 12.9C816.994 13.4333 816.874 13.7267 816.94 13.78ZM831.019 20.02C830.805 19.98 830.565 19.8133 830.299 19.52C830.032 19.2133 829.865 18.9533 829.799 18.74C829.799 18.7133 829.785 18.6867 829.759 18.66C829.732 18.62 829.712 18.5933 829.699 18.58C829.645 18.54 829.619 18.32 829.619 17.92C829.619 17.6 829.632 17.2667 829.659 16.92C829.699 16.5733 829.745 16.2933 829.799 16.08L830.159 15.02L830.439 14.22L830.979 13.06L830.179 12.84C830.085 12.8267 830.005 12.78 829.939 12.7C829.885 12.62 829.859 12.5467 829.859 12.48C829.859 12.3733 829.912 12.22 830.019 12.02C830.139 11.82 830.232 11.72 830.299 11.72C830.339 11.7333 830.445 11.74 830.619 11.74C831.019 11.74 831.319 11.72 831.519 11.68C831.652 11.6267 831.745 11.52 831.799 11.36C831.865 11.2133 831.932 11.0933 831.999 11C832.065 10.8933 832.132 10.78 832.199 10.66C832.239 10.58 832.299 10.46 832.379 10.3C832.472 10.1267 832.585 9.93333 832.719 9.72C832.745 9.68 832.805 9.58667 832.899 9.44C832.992 9.28 833.105 9.14667 833.239 9.04C833.319 8.97333 833.425 8.92 833.559 8.88C833.692 8.82667 833.825 8.8 833.959 8.8C834.199 8.8 834.392 8.86667 834.539 9C834.659 9.18667 834.719 9.32667 834.719 9.42C834.719 9.52667 834.665 9.66667 834.559 9.84C834.479 10 834.345 10.2133 834.159 10.48C833.999 10.72 833.879 10.9133 833.799 11.06C833.665 11.2333 833.599 11.3667 833.599 11.46C833.599 11.5533 833.685 11.6 833.859 11.6C834.045 11.6 834.359 11.56 834.799 11.48C834.865 11.4667 834.959 11.46 835.079 11.46C835.399 11.46 835.625 11.5533 835.759 11.74C835.892 11.9267 835.959 12.16 835.959 12.44C835.959 12.6267 835.892 12.74 835.759 12.78C835.639 12.82 835.359 12.84 834.919 12.84C834.492 12.9067 834.052 12.94 833.599 12.94C833.519 12.94 833.425 12.9467 833.319 12.96C833.225 12.96 833.125 12.9733 833.019 13C832.912 13.0267 832.832 13.0667 832.779 13.12C832.739 13.1733 832.692 13.26 832.639 13.38C832.599 13.42 832.505 13.5733 832.359 13.84C832.172 14.2267 832.052 14.46 831.999 14.54C831.652 15.5533 831.385 16.6 831.199 17.68C831.185 17.76 831.179 17.86 831.179 17.98C831.179 18.1533 831.232 18.28 831.339 18.36C831.459 18.4267 831.685 18.46 832.019 18.46C832.392 18.46 832.745 18.4133 833.079 18.32C833.479 18.1467 833.779 18 833.979 17.88C834.099 17.8133 834.205 17.7533 834.299 17.7C834.405 17.6333 834.479 17.5867 834.519 17.56C834.572 17.4533 834.659 17.4667 834.779 17.6C834.912 17.7333 835.012 17.8867 835.079 18.06C835.079 18.3 835.032 18.52 834.939 18.72C834.845 18.9067 834.612 19.1067 834.239 19.32C833.812 19.5867 833.372 19.78 832.919 19.9C832.465 20.02 832.039 20.08 831.639 20.08C831.412 20.08 831.205 20.06 831.019 20.02ZM839.48 20C838.72 20 838.107 19.7867 837.64 19.36C837.173 18.9333 836.94 18.3267 836.94 17.54C836.94 17.2333 836.96 16.8933 837 16.52C837.027 16.2 837.153 15.76 837.38 15.2C837.62 14.64 837.94 14.0933 838.34 13.56C838.753 13.0267 839.233 12.6333 839.78 12.38C840.033 12.26 840.247 12.18 840.42 12.14C840.593 12.0867 840.793 12.06 841.02 12.06C841.567 12.06 842.007 12.16 842.34 12.36C842.687 12.56 842.927 12.7867 843.06 13.04C843.207 13.2933 843.28 13.5133 843.28 13.7V13.8V13.86C843.28 14.02 843.187 14.3133 843 14.74C842.813 15.1667 842.513 15.5667 842.1 15.94C841.7 16.3133 841.18 16.52 840.54 16.56C840.22 16.56 839.907 16.5333 839.6 16.48C839.307 16.4133 839.12 16.38 839.04 16.38C838.84 16.38 838.713 16.4533 838.66 16.6C838.607 16.7467 838.58 16.9933 838.58 17.34C838.62 17.7133 838.72 17.9733 838.88 18.12C839.053 18.2667 839.3 18.34 839.62 18.34C839.78 18.34 839.967 18.2933 840.18 18.2C840.393 18.0933 840.647 17.9267 840.94 17.7C841.1 17.5667 841.227 17.4733 841.32 17.42C841.413 17.3667 841.527 17.34 841.66 17.34C841.78 17.34 841.92 17.42 842.08 17.58C842.24 17.74 842.327 17.8933 842.34 18.04C842.313 18.2 842.167 18.44 841.9 18.76C841.633 19.08 841.287 19.3667 840.86 19.62C840.433 19.8733 839.973 20 839.48 20ZM840.18 15.18C840.433 15.18 840.607 15.1533 840.7 15.1C840.833 15.0333 841.033 14.8667 841.3 14.6C841.58 14.32 841.727 14.1267 841.74 14.02C841.74 13.8867 841.68 13.78 841.56 13.7C841.453 13.6067 841.3 13.5467 841.1 13.52H840.88C840.707 13.52 840.453 13.6667 840.12 13.96C839.8 14.24 839.52 14.5667 839.28 14.94C839.293 15.0067 839.393 15.0667 839.58 15.12C839.767 15.16 839.967 15.18 840.18 15.18ZM846.38 20.12C845.966 20.12 845.58 20.0267 845.22 19.84C844.86 19.6533 844.573 19.42 844.36 19.14C844.146 18.8467 844.04 18.56 844.04 18.28C844.04 18.0533 844.133 17.94 844.32 17.94C844.44 17.9667 844.58 18.04 844.74 18.16C844.94 18.28 845.106 18.3733 845.24 18.44C845.386 18.5067 845.533 18.54 845.68 18.54C845.906 18.54 846.1 18.5067 846.26 18.44C846.433 18.36 846.533 18.2467 846.56 18.1C846.56 18.0467 846.533 17.9333 846.48 17.76C846.426 17.5733 846.36 17.4067 846.28 17.26C845.986 16.82 845.786 16.3933 845.68 15.98C845.586 15.5533 845.526 15.06 845.5 14.5C845.5 14.1933 845.72 13.8267 846.16 13.4C846.613 12.9733 847.133 12.5933 847.72 12.26C848.32 11.9267 848.806 11.74 849.18 11.7C849.913 11.7 850.353 11.76 850.5 11.88C850.686 12.0267 850.86 12.2667 851.02 12.6C851.18 12.9333 851.26 13.2133 851.26 13.44C851.26 13.5333 851.213 13.6533 851.12 13.8C851.04 13.9333 850.986 14.02 850.96 14.06L850.78 14.34L850.64 14.64C850.613 14.7067 850.566 14.8067 850.5 14.94C850.446 15.0733 850.393 15.1533 850.34 15.18C850.3 15.2067 850.233 15.2133 850.14 15.2C849.913 15.2 849.706 15.1 849.52 14.9C849.333 14.7 849.24 14.48 849.24 14.24C849.24 14.0667 849.3 13.8933 849.42 13.72C849.54 13.5467 849.6 13.4467 849.6 13.42C849.6 13.3667 849.54 13.34 849.42 13.34C849.246 13.34 848.98 13.4267 848.62 13.6C848.26 13.7733 847.94 14.0067 847.66 14.3C847.38 14.58 847.24 14.8933 847.24 15.24C847.24 15.4267 847.273 15.6467 847.34 15.9C847.42 16.14 847.506 16.34 847.6 16.5C847.706 16.6067 847.86 16.9267 848.06 17.46C848.273 17.98 848.38 18.3933 848.38 18.7C848.38 19.1667 848.2 19.52 847.84 19.76C847.493 20 847.006 20.12 846.38 20.12ZM854.152 21.2C853.632 21.1867 853.258 21.06 853.032 20.82C852.818 20.5933 852.712 20.2667 852.712 19.84C852.712 19.7333 852.725 19.56 852.752 19.32C852.805 19.1333 852.845 18.9467 852.872 18.76C852.938 18.4667 853.005 18.2933 853.072 18.24C853.085 18.2267 853.098 18.2 853.112 18.16C853.125 18.12 853.112 18.0867 853.072 18.06C853.072 17.8867 853.132 17.6467 853.252 17.34C853.278 17.2467 853.312 17.1533 853.352 17.06C853.392 16.9667 853.418 16.9067 853.432 16.88C853.405 16.8533 853.392 16.8133 853.392 16.76C853.392 16.6933 853.425 16.6267 853.492 16.56C853.572 16.4933 853.625 16.4333 853.652 16.38C853.692 16.3267 853.692 16.2733 853.652 16.22C853.625 16.1533 853.752 15.8533 854.032 15.32C854.205 14.9733 854.298 14.78 854.312 14.74C854.298 14.7 854.392 14.4533 854.592 14C854.805 13.5467 854.972 13.2067 855.092 12.98C855.212 12.9133 855.165 12.8667 854.952 12.84C854.738 12.8133 854.478 12.8067 854.172 12.82C853.732 12.8067 853.392 12.7867 853.152 12.76C852.912 12.72 852.718 12.66 852.572 12.58C852.478 12.4867 852.432 12.3667 852.432 12.22C852.432 12.0467 852.492 11.8867 852.612 11.74C852.745 11.5933 852.905 11.5133 853.092 11.5C853.438 11.4867 853.972 11.44 854.692 11.36L855.712 11.28L855.772 10.94C855.838 10.82 855.898 10.72 855.952 10.64C856.018 10.5467 856.058 10.4667 856.072 10.4C856.098 10.3333 856.118 10.2333 856.132 10.1C856.172 10.0467 856.238 9.91333 856.332 9.7C856.438 9.48667 856.505 9.28 856.532 9.08C856.678 8.82667 856.812 8.58667 856.932 8.36C857.065 8.12 857.145 7.98 857.172 7.94C857.412 7.58 857.678 7.4 857.972 7.4C858.132 7.4 858.298 7.45333 858.472 7.56C858.645 7.68 858.778 7.78667 858.872 7.88C858.965 7.97333 859.012 8.1 859.012 8.26C859.012 8.38 858.952 8.55333 858.832 8.78C858.778 8.88667 858.698 9.1 858.592 9.42C858.498 9.54 858.398 9.70667 858.292 9.92C858.185 10.12 858.112 10.3133 858.072 10.5C858.045 10.5667 858.005 10.66 857.952 10.78C857.898 10.8867 857.858 10.9533 857.832 10.98C857.818 10.9933 857.792 11 857.752 11C857.765 11.08 857.792 11.1333 857.832 11.16C857.872 11.1867 857.938 11.2 858.032 11.2C858.098 11.2 858.178 11.1933 858.272 11.18C858.378 11.1667 858.505 11.16 858.652 11.16C858.785 11.1467 858.898 11.1267 858.992 11.1C859.098 11.0733 859.198 11.06 859.292 11.06C859.345 11.06 859.425 11.08 859.532 11.12C859.598 11.2 859.632 11.3533 859.632 11.58C859.632 11.7533 859.605 11.92 859.552 12.08C859.498 12.2267 859.432 12.32 859.352 12.36C859.285 12.3733 859.138 12.4133 858.912 12.48C858.685 12.5467 858.438 12.5867 858.172 12.6L857.112 12.7L856.772 13.38C856.678 13.54 856.598 13.6933 856.532 13.84C856.465 13.9867 856.418 14.0733 856.392 14.1C856.392 14.1667 856.338 14.3 856.232 14.5C856.125 14.7 856.045 14.86 855.992 14.98C855.925 15.1667 855.845 15.3533 855.752 15.54C855.658 15.7133 855.598 15.8267 855.572 15.88C855.532 15.88 855.505 15.8933 855.492 15.92C855.492 15.9333 855.492 15.96 855.492 16L855.532 16.16C855.532 16.2267 855.498 16.2933 855.432 16.36C855.378 16.3867 855.325 16.4333 855.272 16.5C855.232 16.5667 855.205 16.6133 855.192 16.64C855.218 16.6667 855.232 16.7 855.232 16.74C855.232 16.8333 855.185 16.9533 855.092 17.1C855.092 17.3267 854.998 17.6667 854.812 18.12C854.825 18.36 854.838 18.5133 854.852 18.58C854.865 18.6467 854.898 18.6733 854.952 18.66H855.052L855.492 18.64C855.585 18.6 855.605 18.7 855.552 18.94C855.512 19.18 855.398 19.5467 855.212 20.04C855.012 20.3467 854.798 20.6133 854.572 20.84C854.358 21.08 854.218 21.2 854.152 21.2ZM862.973 11.68C862.933 11.72 862.893 11.74 862.853 11.74C862.8 11.74 862.713 11.7 862.593 11.62C862.46 11.6067 862.28 11.4933 862.053 11.28C861.84 11.0667 861.733 10.9267 861.733 10.86C861.72 10.7 861.733 10.4733 861.773 10.18C861.813 9.87333 861.886 9.6 861.993 9.36C862.113 9.12 862.266 8.99333 862.453 8.98C862.546 8.99333 862.673 9.02667 862.833 9.08C862.993 9.12 863.173 9.18 863.373 9.26C863.626 9.76667 863.753 10.2 863.753 10.56C863.753 11.0933 863.493 11.4667 862.973 11.68ZM861.133 19.98C860.813 19.98 860.533 19.8133 860.293 19.48C860.066 19.1467 859.926 18.7333 859.873 18.24C859.926 17.7467 859.966 17.3867 859.993 17.16C860.14 16.5067 860.32 15.74 860.533 14.86C860.76 13.9667 860.893 13.4733 860.933 13.38C861 13.26 861.106 13.2 861.253 13.2C861.4 13.2 861.56 13.26 861.733 13.38C861.92 13.4867 862.073 13.64 862.193 13.84C862.3 13.9867 862.353 14.1533 862.353 14.34C862.353 14.62 862.22 15.2067 861.953 16.1C861.766 16.7667 861.646 17.24 861.593 17.52C861.54 17.8 861.52 18.1 861.533 18.42C861.48 19.02 861.426 19.4333 861.373 19.66C861.32 19.8867 861.24 19.9933 861.133 19.98ZM871.279 19.52C870.439 19.4933 870.019 19.02 870.019 18.1C870.019 17.8467 870.039 17.6 870.079 17.36C870.105 17.0667 870.119 16.86 870.119 16.74V16.64V16.42C870.079 16.1533 869.992 16.02 869.859 16.02C869.619 16.02 869.172 16.2533 868.519 16.72C867.879 17.1733 867.205 17.72 866.499 18.36C866.285 18.5867 866.105 18.8 865.959 19C865.825 19.1733 865.725 19.28 865.659 19.32C865.592 19.36 865.485 19.38 865.339 19.38C865.152 19.3533 864.939 19.2133 864.699 18.96C864.459 18.7067 864.299 18.48 864.219 18.28C864.219 17.9067 864.285 17.5533 864.419 17.22C864.552 16.8733 864.752 16.44 865.019 15.92C865.139 15.52 865.292 15.12 865.479 14.72C865.679 14.2533 865.819 13.9 865.899 13.66C865.992 13.4067 866.052 13.1467 866.079 12.88C866.079 12.8667 866.072 12.86 866.059 12.86C866.059 12.8067 866.079 12.76 866.119 12.72C866.159 12.68 866.205 12.66 866.259 12.66C866.285 12.62 866.365 12.6 866.499 12.6C866.845 12.6 867.145 12.6933 867.399 12.88C867.652 13.0667 867.779 13.3533 867.779 13.74C867.779 13.94 867.739 14.1333 867.659 14.32C867.592 14.4933 867.459 14.7867 867.259 15.2L867.039 15.64C866.999 15.72 866.939 15.84 866.859 16C866.779 16.1467 866.739 16.24 866.739 16.28C867.072 16.0533 867.465 15.7533 867.919 15.38C868.585 14.8467 869.132 14.4333 869.559 14.14C869.985 13.8467 870.299 13.7 870.499 13.7C870.672 13.7 870.912 13.8 871.219 14C871.539 14.1867 871.725 14.36 871.779 14.52C871.779 14.6133 871.765 14.7533 871.739 14.94C871.725 15.1267 871.712 15.2933 871.699 15.44L871.719 16.06C871.732 16.1667 871.739 16.3267 871.739 16.54C871.739 16.9667 871.712 17.2667 871.659 17.44C871.672 17.4533 871.685 17.4733 871.699 17.5C871.712 17.5267 871.719 17.5467 871.719 17.56L871.699 17.6C871.712 17.7333 871.785 17.9467 871.919 18.24C872.052 18.5333 872.119 18.6933 872.119 18.72C872.119 18.8667 872.019 19.0333 871.819 19.22C871.632 19.3933 871.452 19.4933 871.279 19.52ZM876.118 23.9C875.732 23.9 875.345 23.7933 874.958 23.58C874.572 23.38 874.252 23.1267 873.998 22.82C873.745 22.5133 873.618 22.2333 873.618 21.98C873.618 21.7267 873.672 21.54 873.778 21.42C873.885 21.3133 874.018 21.26 874.178 21.26C874.298 21.26 874.425 21.3067 874.558 21.4C874.692 21.5067 874.845 21.6533 875.018 21.84C875.192 22.0133 875.345 22.1467 875.478 22.24C875.612 22.3467 875.738 22.4 875.858 22.4C876.312 22.4 876.658 22.1133 876.898 21.54C877.138 20.9667 877.385 20.1533 877.638 19.1L877.918 17.9L877.958 17.76C877.958 17.7467 877.952 17.7467 877.938 17.76C877.925 17.76 877.912 17.7533 877.898 17.74C877.685 17.9 877.265 18.08 876.638 18.28C876.012 18.48 875.485 18.58 875.058 18.58C874.805 18.58 874.578 18.4467 874.378 18.18C874.192 17.9133 874.098 17.5667 874.098 17.14V17.02C874.125 16.9667 874.278 16.5667 874.558 15.82C874.838 15.0733 875.045 14.7133 875.178 14.74C875.218 14.74 875.278 14.6667 875.358 14.52C875.452 14.36 875.498 14.2533 875.498 14.2C875.512 14.16 875.585 14.0867 875.718 13.98C875.865 13.86 875.978 13.7667 876.058 13.7L876.578 13.3C877.058 12.86 877.485 12.5333 877.858 12.32C878.232 12.0933 878.572 11.9667 878.878 11.94L879.078 11.96C879.118 11.96 879.192 11.9667 879.298 11.98C879.418 11.98 879.625 12.0333 879.918 12.14C880.212 12.26 880.512 12.5533 880.818 13.02C881.125 13.4867 881.292 13.8933 881.318 14.24C881.292 14.5467 881.225 14.8467 881.118 15.14C881.012 15.42 880.905 15.56 880.798 15.56C880.612 15.56 880.472 15.6067 880.378 15.7C880.285 15.7933 880.198 15.9467 880.118 16.16C879.972 16.4667 879.872 16.6533 879.818 16.72L879.498 18.26L879.218 19.54C879.058 20.1667 878.892 20.7 878.718 21.14C878.652 21.62 878.472 22.0667 878.178 22.48C877.898 22.9067 877.565 23.2467 877.178 23.5C876.805 23.7533 876.452 23.8867 876.118 23.9ZM876.058 17C876.312 17 876.692 16.9 877.198 16.7C877.718 16.4867 878.038 16.2933 878.158 16.12C878.225 16.04 878.352 15.8667 878.538 15.6C878.738 15.32 878.958 15.1067 879.198 14.96C879.278 14.92 879.352 14.8467 879.418 14.74C879.498 14.6333 879.538 14.5333 879.538 14.44V14.4C879.525 14.3467 879.485 14.2533 879.418 14.12C879.352 13.9867 879.252 13.86 879.118 13.74C878.998 13.62 878.858 13.56 878.698 13.56C878.565 13.5867 878.252 13.8267 877.758 14.28C877.278 14.7333 876.825 15.2133 876.398 15.72C875.985 16.2267 875.778 16.58 875.778 16.78C875.778 16.9267 875.872 17 876.058 17Z" fill="#18293E"/>
</svg>
