<svg width="65" height="50" viewBox="0 0 65 50" fill="none" xmlns="http://www.w3.org/2000/svg">
<ellipse opacity="0.2" cx="32.5" cy="25" rx="25.5" ry="25" fill="#005BF2"/>
<ellipse cx="32.5" cy="25" rx="18.5" ry="18" fill="#005BF2"/>
<path d="M28.541 30H36.413V28.208H31.357C31.725 27.504 32.717 26.8 33.565 26.256C34.909 25.36 36.317 24.384 36.317 22.32C36.317 20.432 34.973 18.816 32.589 18.816C29.981 18.816 28.701 20.4 28.701 22.896H30.749C30.781 21.472 31.437 20.672 32.541 20.672C33.517 20.672 34.061 21.36 34.061 22.384C34.061 23.792 32.557 24.56 31.181 25.648C29.933 26.624 28.621 27.904 28.541 30Z" fill="white"/>
</svg>
