<svg width="201" height="428" viewBox="0 0 201 428" fill="none" xmlns="http://www.w3.org/2000/svg">
<path d="M521.907 60.0474C536.122 102.256 496.658 161.851 459.665 201.578C423.028 241.427 389.218 261.529 365.112 294.653C340.651 327.653 325.896 373.675 288.749 401.26C251.247 428.722 190.704 438.214 157.696 414.385C124.186 390.728 117.916 334.339 85.6653 290.74C53.2672 247.435 -5.11077 216.92 0.995479 193.125C7.10173 169.33 77.8398 151.96 124.839 137.101C172.193 122.366 195.453 110.018 232.6 82.4335C269.392 54.7261 320.071 11.7809 379.254 2.51026C438.792 -6.6379 507.189 18.011 521.907 60.0474Z" fill="#005BF2" fill-opacity="0.05"/>
</svg>
