<svg width="120" height="120" viewBox="0 0 120 120" fill="none" xmlns="http://www.w3.org/2000/svg">
<circle cx="60" cy="60" r="60" fill="#EAF0FF"/>
<circle cx="60" cy="60" r="45.7297" fill="#005BF2"/>
<path d="M70.5822 75.1755V80.0195L65.9296 82.6115V77.7654L70.5822 75.1755Z" fill="#121728"/>
<path d="M70.5822 54.304V59.148L66.6967 61.3146L65.9296 61.74V56.8959L70.5822 54.304Z" fill="#121728"/>
<path d="M70.5823 54.3039L65.9296 56.8959L50.2083 48.1378L54.4136 45.7939C55.3947 47.2807 56.6718 48.559 58.0679 49.3389C59.6216 50.2043 61.0263 50.2856 62.0441 49.7184L62.1176 49.6767L62.1932 49.635L70.5823 54.3039Z" fill="#EAF0FF"/>
<path d="M70.5823 75.1754L65.9296 77.7654L62.0441 75.6008L66.6968 73.0088L70.5823 75.1754Z" fill="#EAF0FF"/>
<path d="M68.3455 43.6086C68.3455 45.3394 67.7166 46.5551 66.6988 47.1223L62.1952 49.6246C63.1266 49.0241 63.7079 47.8417 63.7079 46.1965C63.7079 42.7349 61.1904 38.5289 58.0893 36.7981C56.5355 35.9328 55.1309 35.8514 54.113 36.4186L58.7354 33.8287C59.7533 33.2615 61.1601 33.3428 62.7139 34.2082C65.8279 35.939 68.3455 40.1471 68.3455 43.6086Z" fill="#EAF0FF"/>
<path d="M66.472 43.9338C66.5432 43.9334 66.6128 43.9534 66.6721 43.9913C66.7314 44.0292 66.7777 44.0832 66.8052 44.1465C66.8326 44.2099 66.8399 44.2796 66.8261 44.347C66.8123 44.4143 66.7781 44.4762 66.7278 44.5247C66.6775 44.5733 66.6134 44.6063 66.5436 44.6195C66.4738 44.6328 66.4015 44.6258 66.3359 44.5994C66.2703 44.5729 66.2143 44.5282 66.175 44.471C66.1358 44.4137 66.1151 44.3465 66.1155 44.2779C66.1155 44.2327 66.1247 44.188 66.1426 44.1462C66.1605 44.1045 66.1868 44.0666 66.2199 44.0346C66.253 44.0027 66.2923 43.9773 66.3356 43.96C66.3788 43.9427 66.4252 43.9338 66.472 43.9338Z" fill="#121728"/>
<path d="M65.5449 42.7058C65.5987 42.7058 65.6514 42.7212 65.6961 42.7501C65.7409 42.7789 65.7758 42.82 65.7964 42.868C65.817 42.916 65.8224 42.9688 65.8119 43.0198C65.8014 43.0707 65.7755 43.1175 65.7374 43.1543C65.6993 43.191 65.6508 43.216 65.598 43.2262C65.5452 43.2363 65.4904 43.2311 65.4407 43.2112C65.3909 43.1913 65.3484 43.1577 65.3185 43.1145C65.2886 43.0713 65.2726 43.0205 65.2726 42.9685C65.2726 42.8988 65.3013 42.832 65.3523 42.7828C65.4034 42.7335 65.4727 42.7058 65.5449 42.7058Z" fill="#121728"/>
<path d="M65.5168 45.231C65.5985 45.2305 65.6785 45.2536 65.7466 45.2971C65.8148 45.3406 65.868 45.4027 65.8996 45.4754C65.9312 45.5481 65.9397 45.6283 65.924 45.7057C65.9083 45.7831 65.8692 45.8543 65.8115 45.9102C65.7539 45.9661 65.6804 46.0042 65.6002 46.0198C65.5201 46.0353 65.437 46.0276 65.3615 45.9975C65.2859 45.9674 65.2214 45.9163 65.1759 45.8508C65.1305 45.7852 65.1062 45.7081 65.1062 45.6293C65.1059 45.5771 65.1163 45.5253 65.1368 45.477C65.1573 45.4287 65.1875 45.3848 65.2257 45.3478C65.2638 45.3107 65.3092 45.2814 65.3591 45.2613C65.4091 45.2413 65.4627 45.231 65.5168 45.231Z" fill="#121728"/>
<path d="M67.5437 42.6368C67.6101 42.6364 67.6751 42.655 67.7304 42.6903C67.7858 42.7256 67.829 42.7759 67.8547 42.8349C67.8804 42.894 67.8874 42.959 67.8747 43.0219C67.862 43.0847 67.8303 43.1425 67.7835 43.1879C67.7368 43.2333 67.6771 43.2643 67.6121 43.277C67.547 43.2896 67.4796 43.2833 67.4182 43.2589C67.3569 43.2345 67.3045 43.1931 67.2675 43.1399C67.2306 43.0867 67.2109 43.0241 67.2109 42.9601C67.2109 42.8747 67.2459 42.7928 67.3083 42.7323C67.3706 42.6717 67.4553 42.6374 67.5437 42.6368Z" fill="#121728"/>
<path d="M63.8118 42.541C63.8541 42.5411 63.8954 42.5531 63.9306 42.5756C63.9659 42.598 63.9935 42.63 64.0102 42.6675C64.0268 42.705 64.0317 42.7464 64.0242 42.7865C64.0167 42.8266 63.9971 42.8638 63.968 42.8933C63.9388 42.9228 63.9014 42.9435 63.8602 42.9527C63.819 42.9618 63.7759 42.9592 63.7363 42.945C63.6967 42.9308 63.6623 42.9057 63.6373 42.8728C63.6123 42.8399 63.5978 42.8007 63.5957 42.7599C63.5943 42.7317 63.5988 42.7035 63.609 42.6769C63.6192 42.6504 63.6348 42.6262 63.6551 42.6057C63.6753 42.5852 63.6996 42.5689 63.7265 42.5578C63.7535 42.5467 63.7825 42.541 63.8118 42.541Z" fill="#121728"/>
<path d="M65.506 40.8436C65.5462 40.8436 65.5854 40.8551 65.6188 40.8767C65.6522 40.8982 65.6783 40.9288 65.6936 40.9646C65.709 41.0004 65.713 41.0398 65.7052 41.0778C65.6974 41.1159 65.678 41.1508 65.6496 41.1782C65.6212 41.2056 65.585 41.2243 65.5456 41.2318C65.5062 41.2394 65.4654 41.2355 65.4282 41.2207C65.3911 41.2058 65.3594 41.1807 65.3371 41.1485C65.3148 41.1163 65.3029 41.0784 65.3029 41.0396C65.3029 40.9876 65.3243 40.9378 65.3624 40.901C65.4004 40.8643 65.4521 40.8436 65.506 40.8436Z" fill="#121728"/>
<path d="M67.7188 45.3811C67.9539 45.3811 68.1445 45.1972 68.1445 44.9703C68.1445 44.7434 67.9539 44.5594 67.7188 44.5594C67.4837 44.5594 67.2931 44.7434 67.2931 44.9703C67.2931 45.1972 67.4837 45.3811 67.7188 45.3811Z" fill="#121728"/>
<path d="M66.9106 46.8845C67.1457 46.8845 67.3363 46.7006 67.3363 46.4737C67.3363 46.2468 67.1457 46.0629 66.9106 46.0629C66.6755 46.0629 66.4849 46.2468 66.4849 46.4737C66.4849 46.7006 66.6755 46.8845 66.9106 46.8845Z" fill="#121728"/>
<path d="M66.3207 39.0586C66.4042 39.0586 66.4719 38.9933 66.4719 38.9127C66.4719 38.8321 66.4042 38.7667 66.3207 38.7667C66.2371 38.7667 66.1694 38.8321 66.1694 38.9127C66.1694 38.9933 66.2371 39.0586 66.3207 39.0586Z" fill="#121728"/>
<path d="M62.742 40.6663C62.77 40.6659 62.7975 40.6735 62.8209 40.6883C62.8443 40.703 62.8626 40.7241 62.8735 40.749C62.8844 40.7738 62.8874 40.8013 62.882 40.8278C62.8767 40.8542 62.8633 40.8786 62.8435 40.8977C62.8237 40.9168 62.7985 40.9297 62.7711 40.9349C62.7436 40.94 62.7152 40.9372 62.6895 40.9267C62.6637 40.9161 62.6418 40.8984 62.6265 40.8758C62.6113 40.8532 62.6033 40.8267 62.6038 40.7997C62.6043 40.7645 62.6191 40.7309 62.6449 40.706C62.6707 40.681 62.7055 40.6668 62.742 40.6663Z" fill="#121728"/>
<path d="M64.1597 46.4092C64.2452 46.4092 64.3287 46.4336 64.3998 46.4795C64.4709 46.5253 64.5263 46.5904 64.559 46.6666C64.5917 46.7428 64.6003 46.8267 64.5836 46.9076C64.5669 46.9885 64.5258 47.0628 64.4653 47.1211C64.4049 47.1795 64.3278 47.2192 64.244 47.2353C64.1601 47.2514 64.0732 47.2431 63.9943 47.2115C63.9153 47.18 63.8478 47.1265 63.8003 47.0579C63.7528 46.9894 63.7274 46.9087 63.7274 46.8262C63.7274 46.7156 63.773 46.6095 63.854 46.5313C63.9351 46.4531 64.045 46.4092 64.1597 46.4092Z" fill="#121728"/>
<path d="M67.3796 40.8832C67.4285 40.8828 67.4764 40.8964 67.5172 40.9224C67.5581 40.9483 67.59 40.9855 67.6089 41.029C67.6278 41.0725 67.6329 41.1205 67.6234 41.1668C67.614 41.2131 67.5905 41.2556 67.5559 41.289C67.5213 41.3224 67.4772 41.3451 67.4292 41.3542C67.3813 41.3633 67.3315 41.3584 67.2864 41.3401C67.2414 41.3219 67.2029 41.2911 67.176 41.2517C67.1491 41.2123 67.135 41.166 67.1354 41.1188C67.1354 41.0563 67.1611 40.9964 67.2069 40.9522C67.2527 40.908 67.3148 40.8832 67.3796 40.8832Z" fill="#121728"/>
<path d="M64.0753 39.1003C64.0906 39.1003 64.1058 39.1033 64.12 39.1089C64.1341 39.1146 64.147 39.1229 64.1578 39.1333C64.1687 39.1438 64.1773 39.1562 64.1831 39.1698C64.189 39.1835 64.192 39.1981 64.192 39.2129C64.192 39.2427 64.1797 39.2714 64.1578 39.2925C64.136 39.3136 64.1063 39.3254 64.0753 39.3254C64.0444 39.3254 64.0147 39.3136 63.9928 39.2925C63.9709 39.2714 63.9586 39.2427 63.9586 39.2129C63.9586 39.1981 63.9616 39.1835 63.9675 39.1698C63.9734 39.1562 63.982 39.1438 63.9928 39.1333C64.0036 39.1229 64.0165 39.1146 64.0307 39.1089C64.0448 39.1033 64.06 39.1003 64.0753 39.1003Z" fill="#121728"/>
<path d="M64.1986 36.6302C64.2332 36.6302 64.2612 36.6029 64.2612 36.5693C64.2612 36.5356 64.2332 36.5083 64.1986 36.5083C64.1639 36.5083 64.1359 36.5356 64.1359 36.5693C64.1359 36.6029 64.1639 36.6302 64.1986 36.6302Z" fill="#121728"/>
<path d="M61.2725 37.8721C61.3011 37.8721 61.3243 37.8496 61.3243 37.822C61.3243 37.7943 61.3011 37.7719 61.2725 37.7719C61.2439 37.7719 61.2207 37.7943 61.2207 37.822C61.2207 37.8496 61.2439 37.8721 61.2725 37.8721Z" fill="#121728"/>
<path d="M63.2348 49.2054C63.4699 49.2054 63.6605 49.0215 63.6605 48.7947C63.6605 48.5678 63.4699 48.3839 63.2348 48.3839C62.9997 48.3839 62.8091 48.5678 62.8091 48.7947C62.8091 49.0215 62.9997 49.2054 63.2348 49.2054Z" fill="#121728"/>
<path d="M64.1597 44.3948C64.2208 44.3948 64.2806 44.4123 64.3314 44.445C64.3822 44.4778 64.4218 44.5244 64.4452 44.5789C64.4686 44.6334 64.4747 44.6933 64.4628 44.7512C64.4509 44.809 64.4215 44.8622 64.3782 44.9039C64.335 44.9456 64.28 44.974 64.22 44.9855C64.1601 44.997 64.0979 44.9911 64.0415 44.9685C63.985 44.9459 63.9367 44.9077 63.9028 44.8587C63.8688 44.8096 63.8507 44.752 63.8507 44.693C63.8507 44.6538 63.8587 44.6151 63.8742 44.5789C63.8898 44.5427 63.9125 44.5098 63.9412 44.4821C63.9699 44.4544 64.004 44.4325 64.0415 44.4175C64.079 44.4025 64.1191 44.3948 64.1597 44.3948Z" fill="#121728"/>
<path d="M65.2488 47.9564C65.484 47.9564 65.6746 47.7725 65.6746 47.5456C65.6746 47.3187 65.484 47.1348 65.2488 47.1348C65.0137 47.1348 64.8231 47.3187 64.8231 47.5456C64.8231 47.7725 65.0137 47.9564 65.2488 47.9564Z" fill="#121728"/>
<path d="M66.6968 61.3147V73.0088L62.0441 75.6008V59.5756L65.9296 61.7401L66.6968 61.3147Z" fill="#121728"/>
<path d="M65.9296 77.7654V82.6116L50.2083 73.8534V69.0072L54.0959 71.1718V66.8427V55.1464L50.2083 52.9819V48.1357L65.9296 56.896V61.7401L62.0441 59.5756V75.6009L65.9296 77.7654Z" fill="white"/>
<path d="M63.6929 46.2007C63.6929 47.846 63.1224 49.0283 62.1802 49.6289L62.1088 49.6727L62.0354 49.7144C61.0175 50.2816 59.6129 50.2002 58.0591 49.3349C56.6631 48.5591 55.3859 47.2809 54.4048 45.7899C53.199 43.9694 52.434 41.8279 52.434 39.9303C52.434 38.1995 53.0628 36.9838 54.0828 36.4186C55.1028 35.8535 56.5053 35.9328 58.0591 36.7982C61.1753 38.5352 63.6929 42.7391 63.6929 46.2007Z" fill="white"/>
<path d="M62.1931 49.6309L62.1176 49.6731L62.1888 49.6288L62.1931 49.6309Z" fill="white"/>
<path d="M54.0959 66.8428V71.1718L50.2083 69.0073L54.0959 66.8428Z" fill="white"/>
<path d="M65.9296 82.8723C65.882 82.8727 65.8351 82.8612 65.7934 82.8389L50.0721 74.0808C50.0314 74.0571 49.9978 74.0238 49.9743 73.984C49.9508 73.9442 49.9384 73.8993 49.9381 73.8535V69.0073C49.9383 68.9617 49.9509 68.917 49.9746 68.8776C49.9983 68.8382 50.0323 68.8055 50.0731 68.7827C50.114 68.7599 50.1604 68.7478 50.2076 68.7477C50.2548 68.7476 50.3012 68.7595 50.3422 68.7821L53.8258 70.7214V55.2903L50.0721 53.205C50.0313 53.182 49.9975 53.1492 49.974 53.1096C49.9505 53.0701 49.9381 53.0254 49.9381 52.9798V48.1273C49.9381 48.0818 49.9505 48.037 49.974 47.9975C49.9975 47.958 50.0313 47.9251 50.0721 47.9021C50.1129 47.8786 50.1596 47.8662 50.2072 47.8662C50.2547 47.8662 50.3014 47.8786 50.3422 47.9021L66.0636 56.6603C66.1049 56.6829 66.1393 56.7156 66.1632 56.7552C66.1871 56.7947 66.1997 56.8397 66.1997 56.8855V61.7296C66.1997 61.7754 66.1871 61.8204 66.1632 61.86C66.1393 61.8996 66.1049 61.9323 66.0636 61.9548C66.0227 61.9784 65.9761 61.9908 65.9285 61.9908C65.8809 61.9908 65.8343 61.9784 65.7934 61.9548L62.3142 60.0155V75.4466L66.0636 77.5319C66.1047 77.5546 66.139 77.5874 66.1629 77.6269C66.1868 77.6664 66.1995 77.7113 66.1997 77.7571V82.6033C66.1997 82.6494 66.1871 82.6946 66.1632 82.7345C66.1393 82.7744 66.1049 82.8076 66.0636 82.8306C66.0235 82.8557 65.9773 82.8701 65.9296 82.8723ZM50.4784 73.6971L65.6508 82.1612V77.9177L61.8993 75.8324C61.8582 75.8093 61.8242 75.776 61.8006 75.7361C61.7771 75.6962 61.7649 75.651 61.7653 75.6051V59.5755C61.7655 59.53 61.7781 59.4853 61.8018 59.4459C61.8255 59.4065 61.8595 59.3737 61.9003 59.3509C61.9412 59.3282 61.9876 59.3161 62.0348 59.316C62.082 59.3159 62.1284 59.3277 62.1694 59.3503L65.6508 61.2876V57.0461L50.4697 48.5882V52.8317L54.2234 54.917C54.2642 54.94 54.298 54.9729 54.3215 55.0124C54.345 55.0519 54.3574 55.0967 54.3574 55.1422V71.1676C54.3576 71.2134 54.3452 71.2583 54.3217 71.298C54.2982 71.3377 54.2642 71.3707 54.2233 71.3938C54.1823 71.4168 54.1358 71.429 54.0884 71.4292C54.041 71.4294 53.9944 71.4176 53.9533 71.3949L50.4697 69.4556L50.4784 73.6971Z" fill="#121728"/>
<path d="M60.5811 50.3378C59.6435 50.3056 58.7309 50.0375 57.9338 49.56C56.5551 48.7947 55.2261 47.506 54.1867 45.9337C52.9074 44.0027 52.1748 41.8153 52.1748 39.9344C52.1748 38.1619 52.808 36.8336 53.9598 36.1955C55.1116 35.5574 56.6156 35.6909 58.204 36.575C61.3785 38.3454 63.963 42.6619 63.963 46.2006C63.963 47.8688 63.386 49.17 62.3423 49.8456L62.2645 49.8915C62.2498 49.9012 62.2338 49.9089 62.2169 49.9145C62.2061 49.9246 62.1937 49.9331 62.1802 49.9395C61.6934 50.2072 61.1413 50.3447 60.5811 50.3378ZM55.5589 36.3206C55.0927 36.3172 54.6339 36.4338 54.2299 36.6584C53.2531 37.1985 52.7172 38.3663 52.7172 39.9448C52.7172 41.7277 53.4195 43.813 54.6448 45.6647C55.6367 47.1682 56.903 48.3943 58.2061 49.12C59.6216 49.9061 60.9376 50.0417 61.9122 49.4995L61.949 49.4828L61.9771 49.462L62.0484 49.4182C62.9344 48.8468 63.4249 47.7062 63.4249 46.211C63.4249 42.8391 60.9636 38.7228 57.936 37.0359C57.2216 36.6019 56.4023 36.3554 55.5589 36.3206Z" fill="#121728"/>
<path d="M62.0462 49.9748C61.9867 49.9753 61.9286 49.9568 61.8811 49.9221C61.8335 49.8875 61.7992 49.8386 61.7834 49.7832C61.7677 49.7278 61.7713 49.6689 61.7938 49.6157C61.8163 49.5624 61.8565 49.5179 61.9079 49.489L62.0614 49.4035L66.5628 46.9012C67.5374 46.359 68.0755 45.1913 68.0755 43.6148C68.0755 40.2409 65.6141 36.1267 62.5865 34.4397C61.1732 33.6494 59.8571 33.5159 58.8803 34.0602L54.2277 36.6459C54.1655 36.6805 54.0916 36.6898 54.0223 36.6718C53.953 36.6538 53.894 36.61 53.8581 36.55C53.8223 36.49 53.8127 36.4187 53.8313 36.3518C53.85 36.2849 53.8954 36.228 53.9576 36.1934L58.6102 33.6035C59.7599 32.9633 61.2683 33.0968 62.8588 33.983C66.0333 35.7513 68.6157 40.0699 68.6157 43.6085C68.6157 45.3789 67.9825 46.7072 66.8329 47.3474L62.1932 49.9394C62.1489 49.9648 62.0978 49.9771 62.0462 49.9748Z" fill="#121728"/>
<path d="M65.9294 57.1566C65.8701 57.1566 65.8123 57.1378 65.7652 57.103C65.718 57.0681 65.684 57.0193 65.6685 56.964C65.653 56.9087 65.6569 56.85 65.6794 56.797C65.702 56.7439 65.742 56.6996 65.7933 56.6707L70.446 54.0767C70.4768 54.0596 70.5108 54.0485 70.546 54.0441C70.5813 54.0396 70.6171 54.0419 70.6514 54.0508C70.6857 54.0597 70.7179 54.0751 70.746 54.096C70.7742 54.1169 70.7978 54.1429 70.8156 54.1726C70.8333 54.2024 70.8448 54.2351 70.8494 54.2691C70.854 54.3031 70.8516 54.3377 70.8424 54.3708C70.8332 54.4039 70.8173 54.4349 70.7956 54.4621C70.7739 54.4893 70.7469 54.5121 70.7162 54.5292L66.0634 57.1211C66.0231 57.1449 65.9767 57.1572 65.9294 57.1566Z" fill="#121728"/>
<path d="M65.9295 62.0006C65.8701 62.0006 65.8124 61.9818 65.7652 61.9469C65.7181 61.9121 65.6841 61.8633 65.6686 61.808C65.6531 61.7527 65.6569 61.694 65.6795 61.6409C65.7021 61.5879 65.7421 61.5436 65.7934 61.5147L70.312 58.9978V54.454L62.0613 49.856C62.0001 49.8222 61.9548 49.7668 61.9351 49.7015C61.9153 49.6361 61.9226 49.5659 61.9555 49.5057C61.9882 49.446 62.0438 49.401 62.1104 49.3803C62.177 49.3597 62.2494 49.365 62.312 49.3951L70.7162 54.0766C70.7575 54.0996 70.7919 54.1327 70.8157 54.1726C70.8396 54.2125 70.8522 54.2578 70.8523 54.3039V59.1479C70.8521 59.1937 70.8394 59.2386 70.8155 59.2782C70.7916 59.3177 70.7573 59.3504 70.7162 59.3731L66.0635 61.9651C66.0232 61.9889 65.9768 62.0012 65.9295 62.0006Z" fill="#121728"/>
<path d="M50.2081 48.3963C50.1487 48.3964 50.091 48.3775 50.0438 48.3427C49.9967 48.3079 49.9627 48.259 49.9472 48.2037C49.9317 48.1484 49.9355 48.0897 49.9581 48.0367C49.9807 47.9837 50.0207 47.9393 50.072 47.9105L54.2774 45.5688C54.3081 45.5492 54.3426 45.5359 54.3789 45.5297C54.4151 45.5234 54.4523 45.5244 54.4882 45.5326C54.524 45.5407 54.5577 45.5558 54.5873 45.577C54.6169 45.5982 54.6416 45.625 54.6601 45.6557C54.6785 45.6865 54.6903 45.7205 54.6946 45.7558C54.6989 45.7911 54.6956 45.8269 54.6851 45.8609C54.6746 45.895 54.6569 45.9266 54.6333 45.9538C54.6096 45.981 54.5804 46.0033 54.5475 46.0192L50.3421 48.3609C50.3018 48.3847 50.2554 48.3969 50.2081 48.3963Z" fill="#121728"/>
<path d="M50.2081 69.2678C50.1487 69.2678 50.091 69.249 50.0438 69.2142C49.9967 69.1794 49.9627 69.1305 49.9472 69.0752C49.9317 69.0199 49.9355 68.9612 49.9581 68.9082C49.9807 68.8552 50.0207 68.8108 50.072 68.7819L53.9618 66.6174C54.0233 66.5876 54.0944 66.5816 54.1604 66.6006C54.2264 66.6197 54.2823 66.6623 54.3168 66.7198C54.3513 66.7773 54.3617 66.8454 54.346 66.9101C54.3302 66.9748 54.2894 67.0312 54.2319 67.0679L50.3421 69.2345C50.3012 69.2566 50.255 69.2681 50.2081 69.2678Z" fill="#121728"/>
<path d="M70.5821 80.2803C70.5105 80.2803 70.4417 80.2528 70.3911 80.2039C70.3404 80.155 70.312 80.0887 70.312 80.0196V75.3256L66.5605 73.2404C66.5194 73.2177 66.4853 73.1849 66.4618 73.1453C66.4382 73.1057 66.4261 73.0608 66.4265 73.0151V61.3146C66.4265 61.2455 66.455 61.1792 66.5056 61.1303C66.5563 61.0814 66.625 61.054 66.6966 61.054C66.7683 61.054 66.837 61.0814 66.8876 61.1303C66.9383 61.1792 66.9668 61.2455 66.9668 61.3146V72.8587L70.7161 74.944C70.7574 74.9666 70.7918 74.9993 70.8157 75.0389C70.8396 75.0784 70.8522 75.1234 70.8522 75.1692V80.0134C70.8531 80.0481 70.8467 80.0827 70.8335 80.115C70.8204 80.1474 70.8006 80.1769 70.7754 80.2017C70.7503 80.2266 70.7202 80.2464 70.687 80.2599C70.6538 80.2733 70.6181 80.2803 70.5821 80.2803Z" fill="#121728"/>
<path d="M65.9295 78.0261C65.8823 78.0263 65.8358 78.0145 65.7948 77.9918C65.7538 77.9691 65.7198 77.9363 65.6961 77.8968C65.6782 77.8673 65.6666 77.8346 65.6618 77.8006C65.657 77.7667 65.6592 77.7322 65.6682 77.6991C65.6772 77.666 65.6929 77.6349 65.7144 77.6076C65.7359 77.5804 65.7627 77.5575 65.7934 77.5402L70.4461 74.9502C70.4768 74.9306 70.5114 74.9173 70.5476 74.911C70.5839 74.9048 70.621 74.9058 70.6569 74.9139C70.6927 74.9221 70.7265 74.9372 70.756 74.9584C70.7856 74.9796 70.8103 75.0063 70.8288 75.0371C70.8472 75.0678 70.859 75.1019 70.8633 75.1372C70.8676 75.1725 70.8643 75.2083 70.8538 75.2423C70.8433 75.2763 70.8256 75.3079 70.802 75.3352C70.7783 75.3624 70.7491 75.3847 70.7162 75.4006L66.0635 77.9928C66.0226 78.0149 65.9764 78.0264 65.9295 78.0261Z" fill="#121728"/>
<path d="M62.0441 75.8614C61.9847 75.8615 61.9269 75.8426 61.8798 75.8078C61.8326 75.773 61.7987 75.7241 61.7832 75.6688C61.7677 75.6135 61.7715 75.5548 61.794 75.5018C61.8166 75.4488 61.8566 75.4044 61.9079 75.3756L66.5606 72.7837C66.5913 72.7641 66.6258 72.7508 66.6621 72.7445C66.6983 72.7383 66.7355 72.7393 66.7714 72.7474C66.8072 72.7556 66.841 72.7707 66.8705 72.7919C66.9001 72.813 66.9248 72.8398 66.9433 72.8706C66.9617 72.9013 66.9735 72.9354 66.9778 72.9707C66.9821 73.006 66.9788 73.0417 66.9683 73.0758C66.9578 73.1098 66.9401 73.1414 66.9164 73.1686C66.8928 73.1959 66.8636 73.2181 66.8307 73.2341L62.178 75.8281C62.1371 75.8501 62.0909 75.8616 62.0441 75.8614Z" fill="#121728"/>
<path d="M65.9295 82.8722C65.8823 82.8724 65.8358 82.8606 65.7948 82.8379C65.7538 82.8152 65.7198 82.7824 65.6961 82.7429C65.6782 82.7133 65.6666 82.6806 65.6618 82.6467C65.657 82.6128 65.6592 82.5783 65.6682 82.5452C65.6772 82.512 65.6929 82.481 65.7144 82.4537C65.7359 82.4265 65.7627 82.4036 65.7934 82.3863L70.4461 79.7943C70.4768 79.7747 70.5114 79.7614 70.5476 79.7551C70.5839 79.7489 70.621 79.7499 70.6569 79.758C70.6927 79.7662 70.7265 79.7813 70.756 79.8025C70.7856 79.8237 70.8103 79.8505 70.8288 79.8812C70.8472 79.912 70.859 79.946 70.8633 79.9813C70.8676 80.0166 70.8643 80.0524 70.8538 80.0864C70.8433 80.1204 70.8256 80.152 70.802 80.1793C70.7783 80.2065 70.7491 80.2288 70.7162 80.2447L66.0635 82.8388C66.0226 82.861 65.9764 82.8725 65.9295 82.8722Z" fill="#121728"/>
</svg>
