<svg width="22" height="22" viewBox="0 0 22 22" fill="none" xmlns="http://www.w3.org/2000/svg">
<g clip-path="url(#clip0)">
<path d="M21.9578 4.18801C21.1466 4.54459 20.2803 4.78751 19.3682 4.89843C20.2977 4.33834 21.0127 3.45559 21.351 2.40234C20.4792 2.91109 19.5131 3.28143 18.4846 3.48768C17.6632 2.60859 16.4927 2.05859 15.1928 2.05859C12.7022 2.05859 10.6828 4.07801 10.6828 6.56584C10.6828 6.92334 10.7241 7.26709 10.7992 7.59618C7.05008 7.41926 3.72717 5.61893 1.50333 2.89734C1.11192 3.55918 0.892833 4.32826 0.892833 5.16609C0.892833 6.73359 1.69033 8.11134 2.8985 8.92076C2.15875 8.89693 1.463 8.69343 0.856167 8.35609V8.41201C0.856167 10.5983 2.40808 12.4215 4.47333 12.8368C4.09475 12.9385 3.69508 12.9935 3.28533 12.9935C2.9975 12.9935 2.72158 12.966 2.44567 12.9147C3.02408 14.7049 4.68692 16.0103 6.666 16.0469C5.126 17.256 3.17442 17.9765 1.0725 17.9765C0.715 17.9765 0.358417 17.9554 0 17.9151C2.00658 19.1929 4.37067 19.94 6.92725 19.94C15.2267 19.94 19.7597 13.0687 19.7597 7.11951C19.7597 6.92793 19.7597 6.73451 19.7459 6.54201C20.6268 5.91043 21.3959 5.11201 22.0009 4.20634L21.9578 4.18801Z" fill="white"/>
</g>
<defs>
<clipPath id="clip0">
<rect width="22" height="22" fill="white"/>
</clipPath>
</defs>
</svg>
