<svg width="34" height="46" viewBox="0 0 34 46" fill="none" xmlns="http://www.w3.org/2000/svg">
<path d="M29.5945 19.7534V44.3294C29.6065 44.4351 29.5909 44.5421 29.5491 44.6399C29.5072 44.7377 29.4407 44.823 29.3559 44.8873C29.2842 44.9226 29.2042 44.938 29.1244 44.9318C29.0446 44.9255 28.968 44.8979 28.9026 44.8518L27.3886 43.9766L24.7254 42.4389L20.5167 40.0084L17.8496 38.4688L13.6409 36.0382L10.9757 34.5006L6.76107 32.066L4.65574 30.8498L0.935927 28.703C0.726739 28.5505 0.556243 28.351 0.43813 28.1206C0.320018 27.8902 0.257579 27.6353 0.255831 27.3764V2.81217C0.243172 2.70643 0.258548 2.59922 0.300415 2.5013C0.342281 2.40338 0.409164 2.31819 0.494355 2.25429C0.565682 2.21848 0.645448 2.20286 0.725016 2.20911C0.804584 2.21536 0.880925 2.24326 0.945781 2.28978L28.9085 18.4326C29.285 18.6534 29.5945 19.2448 29.5945 19.7534ZM23.8403 23.7472C23.8403 22.5901 23.0261 21.1845 22.0247 20.605C21.0233 20.0254 20.2111 20.4966 20.2111 21.6517C20.2111 22.8069 21.0233 24.2144 22.0247 24.8058C23.0261 25.3972 23.8403 24.9044 23.8403 23.7472ZM13.3452 21.837L7.96355 10.857L6.26628 11.4227L10.5893 20.2482L6.26628 24.0784L7.96355 26.6056L13.3452 21.837Z" fill="white"/>
<path d="M7.96358 26.8521H7.93204C7.89718 26.8478 7.86363 26.8361 7.83369 26.8178C7.80376 26.7994 7.77814 26.7748 7.75857 26.7456L6.06129 24.2224C6.02778 24.173 6.01348 24.1131 6.02111 24.0539C6.02873 23.9947 6.05775 23.9403 6.10268 23.9011L10.2858 20.195L6.04552 11.5372C6.02994 11.5057 6.02132 11.4712 6.02027 11.4361C6.01921 11.401 6.02573 11.3661 6.03938 11.3337C6.05304 11.3013 6.07351 11.2723 6.0994 11.2485C6.12529 11.2248 6.15599 11.2069 6.18942 11.1961L7.88671 10.6304C7.94294 10.6114 8.00416 10.6136 8.05893 10.6364C8.1137 10.6593 8.15828 10.7012 8.18436 10.7546L13.566 21.7346C13.59 21.7831 13.5974 21.8381 13.5871 21.8912C13.5768 21.9442 13.5492 21.9924 13.5088 22.0283L8.1272 26.7851C8.08273 26.8267 8.02449 26.8506 7.96358 26.8521ZM6.58368 24.1199L8.00301 26.2351L13.0337 21.778L7.82953 11.1587L6.6034 11.5687L10.8022 20.1398C10.8263 20.1883 10.8337 20.2433 10.8233 20.2964C10.813 20.3495 10.7855 20.3977 10.7451 20.4336L6.58368 24.1199Z" fill="#121728"/>
<path d="M23.8403 35.4291C23.7975 35.4294 23.7554 35.4185 23.718 35.3976L14.725 30.2072C14.6683 30.1745 14.6269 30.1206 14.6099 30.0574C14.5929 29.9942 14.6017 29.9268 14.6344 29.8701C14.667 29.8134 14.7209 29.7719 14.7841 29.7549C14.8473 29.7379 14.9147 29.7467 14.9715 29.7794L23.9645 34.9698C23.9924 34.9861 24.0169 35.0078 24.0365 35.0335C24.0561 35.0593 24.0704 35.0887 24.0786 35.12C24.0869 35.1513 24.0889 35.1839 24.0845 35.216C24.0801 35.248 24.0695 35.2789 24.0532 35.3069C24.0316 35.3442 24.0006 35.3752 23.9632 35.3967C23.9258 35.4181 23.8834 35.4293 23.8403 35.4291Z" fill="#121728"/>
<path d="M22.8349 25.2907C22.505 25.28 22.1837 25.1835 21.9024 25.0108C20.8163 24.382 19.9647 22.9055 19.9647 21.6596C19.9647 21.0091 20.1973 20.5183 20.6191 20.2797C21.041 20.0412 21.5851 20.0826 22.1488 20.4059C23.235 21.0347 24.0866 22.5093 24.0866 23.7571C24.0866 24.4096 23.854 24.9024 23.4322 25.137C23.2504 25.2408 23.0441 25.2939 22.8349 25.2907ZM21.2164 20.605C21.0939 20.6023 20.9728 20.6322 20.8655 20.6917C20.6034 20.8435 20.4575 21.1845 20.4575 21.6517C20.4575 22.7281 21.2164 24.0429 22.1488 24.583C22.553 24.8176 22.9216 24.861 23.1857 24.7092C23.4499 24.5574 23.5938 24.2144 23.5938 23.7472C23.5938 22.6729 22.8349 21.358 21.9024 20.8179C21.6959 20.689 21.4596 20.6157 21.2164 20.605Z" fill="#121728"/>
<path d="M29.3559 45.1298C29.3019 45.1294 29.2495 45.1113 29.2069 45.0782C29.1642 45.0451 29.1335 44.9989 29.1196 44.9467C29.1057 44.8946 29.1094 44.8393 29.13 44.7893C29.1506 44.7394 29.187 44.6977 29.2337 44.6705L32.6263 42.711C32.6835 42.6775 32.7426 42.5711 32.7426 42.366V17.794C32.7389 17.5785 32.6859 17.3667 32.5874 17.175C32.489 16.9832 32.3478 16.8166 32.1749 16.6881L4.21217 0.543252C4.16289 0.513683 4.06827 0.470314 4.01505 0.505797L0.620492 2.46526C0.592468 2.48377 0.560956 2.49636 0.527889 2.50225C0.494823 2.50814 0.4609 2.50721 0.428206 2.49952C0.395512 2.49182 0.364736 2.47752 0.337769 2.4575C0.310802 2.43748 0.288213 2.41216 0.27139 2.38308C0.254567 2.35401 0.243863 2.32181 0.239939 2.28845C0.236015 2.25509 0.238949 2.22129 0.248566 2.18911C0.258183 2.15692 0.274279 2.12705 0.295863 2.10132C0.317447 2.07558 0.344066 2.05453 0.374081 2.03946L3.76864 0.0799989C3.87686 0.0219809 3.99887 -0.0053784 4.1215 0.000874922C4.24414 0.00712824 4.36273 0.0467582 4.46449 0.115484L32.4292 16.2603C32.8865 16.5245 33.2433 17.1986 33.2433 17.794V42.3582C33.2566 42.5077 33.2298 42.6582 33.1657 42.794C33.1016 42.9298 33.0025 43.0461 32.8786 43.1309L29.488 45.0904C29.4485 45.1155 29.4028 45.1292 29.3559 45.1298Z" fill="#121728"/>
<path d="M32.989 42.098V42.3582C33.0012 42.4641 32.9854 42.5714 32.9432 42.6693C32.901 42.7671 32.8339 42.8523 32.7485 42.9161L30.6234 44.1442L29.3559 44.8755C29.4406 44.8112 29.5072 44.726 29.549 44.6282C29.5908 44.5304 29.6065 44.4233 29.5944 44.3177V19.7535C29.5944 19.2449 29.2849 18.6535 28.9025 18.4327L0.939799 2.28985C0.874943 2.24333 0.798602 2.21544 0.719034 2.20918C0.639466 2.20293 0.5597 2.21855 0.488373 2.25437L3.88293 0.294908C3.95437 0.25952 4.03405 0.244134 4.11353 0.250381C4.19301 0.256629 4.26932 0.284277 4.33435 0.330393L12.3338 4.94911L13.9523 5.8835L32.297 16.4752C32.6795 16.696 32.989 17.2874 32.989 17.796V42.098Z" fill="#005BF2"/>
<path d="M22.0246 20.605C23.0261 21.1846 23.8402 22.5901 23.8402 23.7473C23.8402 24.9044 23.0261 25.3736 22.0246 24.796C21.0232 24.2184 20.2111 22.8089 20.2111 21.6419C20.2111 20.4749 21.0232 20.0274 22.0246 20.605Z" fill="#FAD657"/>
<path d="M7.96351 10.8571L13.3451 21.8371L7.96351 26.6057L6.26624 24.0785L10.5893 20.2483L6.26624 11.4228L7.96351 10.8571Z" fill="#005BF2"/>
<path d="M29.1785 45.1771C29.0394 45.1735 28.9036 45.1341 28.7842 45.0627L27.2861 44.1954H27.2683L0.817603 28.9179C0.360265 28.6518 0.00346102 27.9796 0.00346102 27.3843V2.81218C-0.010103 2.66305 0.0163563 2.51301 0.0801155 2.37752C0.143875 2.24203 0.242625 2.126 0.366177 2.0414C0.474636 1.983 0.597024 1.95543 0.720049 1.96169C0.843075 1.96794 0.962038 2.00778 1.06401 2.07689L29.0366 18.2197C29.4939 18.4839 29.8507 19.1581 29.8507 19.7534V44.3294C29.8637 44.4783 29.8371 44.6279 29.7738 44.7632C29.7104 44.8986 29.6125 45.0148 29.49 45.1002C29.3952 45.154 29.2874 45.1806 29.1785 45.1771ZM27.493 43.7499L27.5128 43.7597L29.0267 44.635C29.076 44.6626 29.1706 44.7059 29.2238 44.6705C29.2771 44.635 29.3382 44.5305 29.3382 44.3255V19.7534C29.3344 19.5377 29.2812 19.3256 29.1828 19.1336C29.0844 18.9416 28.9434 18.7746 28.7704 18.6455L0.817603 2.50269C0.776206 2.481 0.67567 2.42975 0.620474 2.4672C0.565278 2.50465 0.502196 2.60716 0.502196 2.81218V27.3764C0.505839 27.5919 0.558925 27.8036 0.657358 27.9954C0.75579 28.1871 0.896941 28.3537 1.06993 28.4823L27.493 43.7499Z" fill="#121728"/>
<path d="M7.96355 26.8521H7.93201C7.89715 26.8478 7.8636 26.8361 7.83366 26.8178C7.80373 26.7994 7.77811 26.7748 7.75854 26.7456L6.06126 24.2224C6.02775 24.173 6.01345 24.1131 6.02108 24.0539C6.0287 23.9947 6.05772 23.9403 6.10265 23.9011L10.2857 20.195L6.04549 11.5372C6.02991 11.5057 6.02129 11.4712 6.02023 11.4361C6.01918 11.401 6.0257 11.3661 6.03935 11.3337C6.05301 11.3013 6.07348 11.2723 6.09937 11.2485C6.12526 11.2248 6.15596 11.2069 6.18939 11.1961L7.88668 10.6304C7.94291 10.6114 8.00413 10.6136 8.0589 10.6364C8.11367 10.6593 8.15825 10.7012 8.18433 10.7546L13.5659 21.7346C13.59 21.7831 13.5974 21.8381 13.5871 21.8912C13.5767 21.9442 13.5492 21.9924 13.5088 22.0283L8.12717 26.7851C8.0827 26.8267 8.02446 26.8506 7.96355 26.8521ZM6.58365 24.1199L8.00297 26.2351L13.0337 21.778L7.8295 11.1587L6.60337 11.5687L10.8022 20.1398C10.8262 20.1883 10.8336 20.2433 10.8233 20.2964C10.813 20.3495 10.7855 20.3977 10.745 20.4336L6.58365 24.1199Z" fill="#121728"/>
<path d="M23.8402 35.4291C23.7974 35.4294 23.7553 35.4185 23.718 35.3976L14.725 30.2072C14.6683 30.1745 14.6269 30.1206 14.6099 30.0574C14.5928 29.9942 14.6017 29.9268 14.6343 29.8701C14.667 29.8134 14.7209 29.7719 14.7841 29.7549C14.8473 29.7379 14.9147 29.7467 14.9714 29.7794L23.9644 34.9698C23.9924 34.9861 24.0169 35.0078 24.0365 35.0335C24.0561 35.0593 24.0704 35.0887 24.0786 35.12C24.0869 35.1513 24.0888 35.1839 24.0845 35.216C24.0801 35.248 24.0694 35.2789 24.0531 35.3069C24.0316 35.3442 24.0005 35.3752 23.9631 35.3967C23.9257 35.4181 23.8833 35.4293 23.8402 35.4291Z" fill="#121728"/>
<path d="M22.8348 25.2907C22.505 25.28 22.1836 25.1835 21.9024 25.0108C20.8162 24.382 19.9646 22.9055 19.9646 21.6596C19.9646 21.0091 20.1972 20.5183 20.6191 20.2797C21.041 20.0412 21.585 20.0826 22.1488 20.4059C23.235 21.0347 24.0866 22.5093 24.0866 23.7571C24.0866 24.4096 23.854 24.9024 23.4321 25.137C23.2504 25.2408 23.0441 25.2939 22.8348 25.2907ZM21.2164 20.605C21.0938 20.6023 20.9727 20.6322 20.8655 20.6917C20.6033 20.8435 20.4575 21.1845 20.4575 21.6517C20.4575 22.7281 21.2164 24.0429 22.1488 24.583C22.5529 24.8176 22.9216 24.861 23.1857 24.7092C23.4499 24.5574 23.5938 24.2144 23.5938 23.7472C23.5938 22.6729 22.8348 21.358 21.9024 20.8179C21.6959 20.689 21.4596 20.6157 21.2164 20.605Z" fill="#121728"/>
<path d="M29.3559 45.1298C29.3019 45.1294 29.2495 45.1113 29.2068 45.0782C29.1641 45.0451 29.1335 44.9989 29.1196 44.9467C29.1057 44.8946 29.1094 44.8393 29.13 44.7893C29.1506 44.7394 29.187 44.6977 29.2337 44.6705L32.6263 42.711C32.6834 42.6775 32.7426 42.5711 32.7426 42.366V17.794C32.7389 17.5785 32.6858 17.3667 32.5874 17.175C32.489 16.9832 32.3478 16.8166 32.1748 16.6881L4.21214 0.543252C4.16286 0.513683 4.06824 0.470314 4.01502 0.505797L0.620461 2.46526C0.592438 2.48377 0.560926 2.49636 0.527859 2.50225C0.494792 2.50814 0.46087 2.50721 0.428176 2.49952C0.395482 2.49182 0.364706 2.47752 0.337739 2.4575C0.310772 2.43748 0.288183 2.41216 0.27136 2.38308C0.254536 2.35401 0.243833 2.32181 0.239909 2.28845C0.235984 2.25509 0.238918 2.22129 0.248535 2.18911C0.258153 2.15692 0.274248 2.12705 0.295832 2.10132C0.317416 2.07558 0.344035 2.05453 0.374051 2.03946L3.7686 0.0799989C3.87683 0.0219809 3.99884 -0.0053784 4.12147 0.000874922C4.24411 0.00712824 4.3627 0.0467582 4.46446 0.115484L32.4291 16.2603C32.8865 16.5245 33.2433 17.1986 33.2433 17.794V42.3582C33.2566 42.5077 33.2298 42.6582 33.1657 42.794C33.1016 42.9298 33.0025 43.0461 32.8786 43.1309L29.488 45.0904C29.4484 45.1155 29.4027 45.1292 29.3559 45.1298Z" fill="#121728"/>
<path d="M29.1785 45.1771C29.0394 45.1735 28.9036 45.1341 28.7842 45.0627L27.2861 44.1954H27.2683L0.817603 28.9179C0.360265 28.6518 0.00346102 27.9796 0.00346102 27.3843V2.81218C-0.010103 2.66305 0.0163563 2.51301 0.0801155 2.37752C0.143875 2.24203 0.242625 2.126 0.366177 2.0414C0.474636 1.983 0.597024 1.95543 0.720049 1.96169C0.843075 1.96794 0.962038 2.00778 1.06401 2.07689L29.0366 18.2197C29.4939 18.4839 29.8507 19.1581 29.8507 19.7534V44.3294C29.8637 44.4783 29.8371 44.6279 29.7738 44.7632C29.7104 44.8986 29.6125 45.0148 29.49 45.1002C29.3952 45.154 29.2874 45.1806 29.1785 45.1771ZM27.493 43.7499L27.5128 43.7597L29.0267 44.635C29.076 44.6626 29.1706 44.7059 29.2238 44.6705C29.2771 44.635 29.3382 44.5305 29.3382 44.3255V19.7534C29.3344 19.5377 29.2812 19.3256 29.1828 19.1336C29.0844 18.9416 28.9434 18.7746 28.7704 18.6455L0.817603 2.50269C0.776206 2.481 0.67567 2.42975 0.620474 2.4672C0.565278 2.50465 0.502196 2.60716 0.502196 2.81218V27.3764C0.505839 27.5919 0.558925 27.8036 0.657358 27.9954C0.75579 28.1871 0.896941 28.3537 1.06993 28.4823L27.493 43.7499Z" fill="#121728"/>
</svg>
